<svg xmlns="http://www.w3.org/2000/svg" viewBox="0 0 160 160"><path d="M52.27 101.9c-13.26-1.63-30.22-1.52-41.37 6.94-10.89 8.25-12.65 23.78-2 33 10.5 9.08 26.18 11.15 39.49 12.33 14.78 1.31 30.83 2.7 45.32-1.16 8.07-2.15 6.76-15.88-2-15a100.3 100.3 0 0 1-35.61-2.66 92.56 92.56 0 0 1-16.38-5.91c-2.67-1.28-10.76-4.34-10-8.4 1.9-9.62-12.84-13.74-14.72-4.04-3.45 17.7 14.94 25.64 28.6 30.52a111.57 111.57 0 0 0 48.11 5.81l-2-15C79.31 141 68.3 140 57.69 139.5c-10.88-.5-22.24-1.4-32.46-5.5-6.74-2.71-12.24-8.74-3.88-13.81 8.52-5.15 21.51-4.13 30.92-3 4.11.51 7.65-3.87 7.65-7.64 0-4.56-3.53-7.15-7.65-7.65z"/><path d="M109.52 87.4c-25.15-1.2-51.93-1.28-73.44 11.81-6.17 3.75-12.1 9.16-13.17 16.3a20.64 20.64 0 0 0 1.78 11c4.23 9.93 13.39 17.13 23.42 21.11s21 5.08 31.72 5.65c19 1 38.8.33 55.86-8.1 9.72-4.8 18.74-12.88 20.7-23.54 1.73-9.4-4.67-14.87-11.73-21.3S119 88.38 109.52 87.4" fill="#fff"/><path d="M109.84 87.69c-.8-.7.1-.9 1.51-.89.7 0 1.52.12 2.3.21l2.07.34c2.37.42 5 1.19 6.3 1.51.5.11.87 0 1.3.11 3.62 1 7.22 2.37 10.43 3.58.62.24.48 0 .69 0a1.53 1.53 0 0 1 .52.47 16.07 16.07 0 0 1 1.58.44 38.87 38.87 0 0 1 5.88 3.24l1.42 1c.47.34.91.76 1.37 1.14.89.77 1.64 1.51 2.48 2.25a43 43 0 0 1 7.41 8 17.94 17.94 0 0 1 2.39 5.21 16.82 16.82 0 0 1 .49 6 24.3 24.3 0 0 1-1.6 7 25.34 25.34 0 0 1-3.5 5.91c-1.37 1.72-2.79 3.25-4.15 4.66-1.3 1.06 0 1-1 1.86-1.4 1.36-1.8 1.05-2.89 1.77-2.73 2.57-6.06 4.24-9.23 5.86a75.5 75.5 0 0 1-6.82 3.34 37.5 37.5 0 0 1-4 1.38c-1.36.44-2.78.8-4.25 1.19-2.21.61-5.21 1.19-7.7 1.78-1.6.37-2.75.93-4.14 1.28-1.55.34-3.54.61-5.21.85a82.77 82.77 0 0 1-14.42 1c-2.47 0-5.17-.15-7.19-.31-.47 0-.65.13-1 .08s0-.22-.65-.26c-2.94-.2-4.5-.16-8.15-.51l-7.58-.7c-1.43-.16-2.94-.48-4.31-.69-2.44-.38-4.71-.71-7.07-1.23a38.81 38.81 0 0 1-7.54-2.41 39.74 39.74 0 0 1-7.86-4.71c-1-.78-1.56-1.54-2.33-2.21-1-.9-1.89-1.5-2.91-2.5-.39-.39-.3-.41-1.18-1.31a46.54 46.54 0 0 1-4-4.38 37.78 37.78 0 0 1-4.3-7.48 29.83 29.83 0 0 1-2.21-8.13 22.24 22.24 0 0 1 0-7 18 18 0 0 1 2.73-6.85 32.18 32.18 0 0 1 10.72-9.64 72.38 72.38 0 0 1 13.07-5.86 81.13 81.13 0 0 1 8.78-2.48A34 34 0 0 1 60 89l2-.22c.64-.07 1.29-.13 1.94-.22 2.7-.39 5.37-.94 7.94-1.21L76 87l4.47-.29c2-.1 4.09 0 5.78-.13 1.11-.06 2.1-.37 3.19-.41.81 0 1.66.08 2.58.1h3.53c1.48 0 2.85.31 4.17.31s3.21-.28 4.81-.32c1.32 0 3.38-.27 4.8.42 1 1.08-2.25.84-3.21.8-3.48.48-8.3.19-12.78.29-2.93 0-5.65.32-8.59.48-1.12.07-2.27.13-3.44.17l-3.54.22a118.45 118.45 0 0 0-15 2.24A81.62 81.62 0 0 0 51 94.09a42.33 42.33 0 0 0-5.11 2.22 24.76 24.76 0 0 0-3.79 2.41 17.92 17.92 0 0 0-2.89 1.4c-.94.54-1.9 1.07-2.8 1.69a29.06 29.06 0 0 0-8.26 7.94 13.41 13.41 0 0 0-2.13 9.8 23.27 23.27 0 0 0 3 8 28.51 28.51 0 0 0 3.76 4.66 39.33 39.33 0 0 0 7.95 6.79 41.38 41.38 0 0 0 8.77 3.86 123.2 123.2 0 0 0 22 5c2.58.4 5.08.93 7.77 1.24s5.7.44 8.5.65c2.51.18 5 .56 7.56.57 1.73 0 3.6-.17 5.32-.21 4.18-.14 8.39 0 12.53-.47a31 31 0 0 0 3.27-.55l3.17-.66c2.05-.4 3.94-.67 5.83-1.17a69 69 0 0 0 10.71-4.26c.72-.33 1.5-.75 2.32-1.09s1.58-.71 2.27-1c2-1.52 4.39-3.16 6.57-5.14a19.78 19.78 0 0 0 5.11-6.69 20.73 20.73 0 0 0 3.39-8 13.94 13.94 0 0 0-1.57-9.56 35.75 35.75 0 0 0-6.74-8c-1.26-1.18-2.51-2.42-3.77-3.5a32 32 0 0 0-3.94-2.86c-.75-.48-1.4-1-2.16-1.4-1.75-.9-3.71-1.32-4.93-2.32-3.55-.84-8.71-3-13.44-4.16-1.75-.44-3.51-.86-5-1.09-1.74-.19-3.13.08-4.43-.5z" fill-rule="evenodd"/><path d="M147.3 124.69a6.55 6.55 0 0 1-2 3.44c-.56.6-1.2 1.18-1.82 1.75s-1.24 1.12-1.82 1.62-1.08 1.28-1.76 1.82a38 38 0 0 1-6 4.12c-.6.32-1 .21-1.63.46-.23.1-.64.65-.89.74s-.52-.11-.88 0-.89.54-1.49.77a56.15 56.15 0 0 1-9.38 3 42.55 42.55 0 0 1-9.56 1c-4.55.81-10 .77-15.86.65-2.81-.06-5.55-.07-8.63-.23-1.06-.06-2 .06-3.09 0-2.56-.06-5.24-.36-7.52-.5a53.39 53.39 0 0 1-11.47-2.15c-3.65-1-7.08-2.32-10.54-3.46-.94-1.19-2.82-1.46-4.47-2.46a63.49 63.49 0 0 1-6.06-4.63c-.93-.75-1.77-1.71-2.49-2.35a11.68 11.68 0 0 0-1.28-1 6.9 6.9 0 0 1-1.18-1.12 4 4 0 0 1-.45-2.06c.72 0 1.6.77 2.59 1.69.47.48 1 1 1.5 1.46s1 1 1.44 1.35a41.3 41.3 0 0 0 10.22 7.14c.45.21 1.08.73 1.62.44 1.8 1.43 4.07 1.82 6 2.52 3 1.08 6.43 2.39 9.88 2.37a34 34 0 0 0 6.79 1.28c3.58.28 7.19.26 10.84.42 4.58.18 9 .12 14.15-.06.75 0 1.47.06 2.2 0 .43 0 1-.29 1.38-.31 2.37-.07 4.75.12 7.11-.17.76-.08 1.42-.4 2.16-.53l6.62-1.17a33.72 33.72 0 0 0 6.33-1.83c.53-.23 1.15-.73 1.67-1a56.35 56.35 0 0 0 5.65-2.6c3.66-2.2 6.4-5.11 9.23-8.23a2.46 2.46 0 0 1 .27-.82c1.19-.31 1.58-1.93 2.62-1.36z" fill-rule="evenodd"/><path d="M81.53 112.91L76 111.76a5.58 5.58 0 0 0-1.81-.18c-1.55.19-2.65 1.59-3.3 3a12.54 12.54 0 0 0-1.07 6.83 2 2 0 0 0 .27.92 2.28 2.28 0 0 0 1.23.73 61.93 61.93 0 0 0 6.72 1.74c1.58.32 3.54.44 4.48-.87a4 4 0 0 0 .57-1.46 47.58 47.58 0 0 0 1-5.17 6.09 6.09 0 0 0-.1-2.85c-.29-.9-2.46-1.54-2.46-1.54z" fill="#feffcc"/><path d="M81.48 113.11c.07-.45.32-.53.5-1 .72.33 1 0 1.25.68a2.8 2.8 0 0 1 1.33.92 1.81 1.81 0 0 1 .26.48 1.73 1.73 0 0 1 .09.34 2.94 2.94 0 0 1 .06.64 4 4 0 0 1 .2 2.19c-.09.68-.27 1.35-.42 2s-.23 1.62-.47 2.35c-.16.5-.43.92-.6 1.46a3.07 3.07 0 0 1-.31 1 3.14 3.14 0 0 1-1.44 1 6 6 0 0 1-2.93.36 19.7 19.7 0 0 0-2.42-.15 9.66 9.66 0 0 1-1.29-.22 3.62 3.62 0 0 1-1.28-.25c-.23-.12-.28.08-.43.12a18.6 18.6 0 0 1-2.35-.67 5.25 5.25 0 0 1-1.28-.6 2.35 2.35 0 0 1-1-1.46A4.54 4.54 0 0 1 69 121l.09-1.09a8.67 8.67 0 0 0 .78-3.23 7 7 0 0 1 .91-3.1c0-.65.55-1.17 1.25-1.69a4.17 4.17 0 0 1 2.2-.88 3.09 3.09 0 0 1 1.93.6c1.59.25 3 .73 4.59.33.19.24.71.26.89.5 0 .58-.23.49-.45.85-.72-.06-1.22.24-1.91.23a1.21 1.21 0 0 0-1.06-.06 13.64 13.64 0 0 0-2.48-.6 1.84 1.84 0 0 0-1.52-.58 2.27 2.27 0 0 0-2 1c-.12.18-.09.44-.18.63s-.35.4-.45.63a8.84 8.84 0 0 0-.31 1.1c-.16.62-.13 1.33-.23 1.9-.14.8-.46 1.63-.62 2.48-.07.41-.18.83-.25 1.25a1.38 1.38 0 0 0 .14 1.18c.16.21.53.24.79.36a6.05 6.05 0 0 0 1.17.53c1.56.34 2.9.25 4.57.65.15 0 .32 0 .35-.16a11.86 11.86 0 0 0 2.18.38 4.33 4.33 0 0 0 2-.28 2 2 0 0 0 .79-.61 4.31 4.31 0 0 0 .55-1.22c.09-.31.06-.64.14-1 .24-.88.91-2.37.65-3.08a3.47 3.47 0 0 0-.07-3 .76.76 0 0 0 0-.34c0-.14 0-.13-.08-.23a1.74 1.74 0 0 0-.63-.43c-.45-.22-1.02-.42-1.25-.91z" fill-rule="evenodd"/><path d="M106.33 116l5-2.57a5.75 5.75 0 0 0 1.52-1c1.08-1.12 1-2.9.67-4.41a12.6 12.6 0 0 0-3.47-6 2 2 0 0 0-.8-.54 2.19 2.19 0 0 0-1.41.21 63.05 63.05 0 0 0-6.32 2.87c-1.43.76-3 1.9-2.92 3.51a4.23 4.23 0 0 0 .47 1.5 47.86 47.86 0 0 0 2.5 4.62 6.08 6.08 0 0 0 1.87 2.15c.8.52 2.89-.34 2.89-.34z" fill="#feffcc"/><path d="M104.54 107.86H103c-1 0-1.18.65-.34 1.19a16.64 16.64 0 0 0 3.75 1.81c1.21.4 2.46.45 3.66.77l-1.34-.93c.44 1-1.3 1.44-1.92 1.63l2.78 1.18a7 7 0 0 0-.33-3.56l-.31.48c1.27-.54 3.19-.5 4.19-1.49.59-.6-.93-1.2-1.24-1.3-2-.65-4.16.37-6.09.89-1 .26.38 1.15.63 1.27 1 .46 2.09.39 3 .85 1.3.66 3.14-.11 1.2-1.08-1-.48-2.06-.4-3-.85l.63 1.27 2-.55.88-.24c.83-.14.93-.2.3-.19l-1.24-1.3c-.75.75-2.76.82-3.78 1.25-.18.08-.39.26-.31.49a6.17 6.17 0 0 1 .32 3.16c-.16 1.08 2.11 1.38 2.77 1.18 1.09-.32 3.75-1.57 2.23-3-.75-.7-2-.69-2.93-.84a10.26 10.26 0 0 1-4-1.62l-.35 1.18h1.52c.59 0 1-.16.82-.78s-1.54-.85-2-.85z" fill="#ffa95c"/><path d="M106.24 115.81c.23.39.09.61.28 1.13-.77.19-.84.62-1.4.25a2.79 2.79 0 0 1-1.62.13 2 2 0 0 1-.5-.2 2.43 2.43 0 0 1-.29-.22 3.09 3.09 0 0 1-.44-.45 4 4 0 0 1-1.54-1.57c-.36-.59-.64-1.23-1-1.86s-.84-1.4-1.12-2.11c-.18-.5-.24-1-.45-1.52a3.54 3.54 0 0 1-.37-.93 3.13 3.13 0 0 1 .52-1.66 6 6 0 0 1 2.05-2.13 19.07 19.07 0 0 0 2-1.41 10.47 10.47 0 0 1 1.14-.64 3.49 3.49 0 0 1 1.15-.61c.26-.06.17-.25.26-.37a17.49 17.49 0 0 1 2.24-1 5.51 5.51 0 0 1 1.38-.35 2.34 2.34 0 0 1 1.68.52 4.45 4.45 0 0 1 .78.94l.61.9a8.68 8.68 0 0 0 1.43 3 7 7 0 0 1 1.25 3c.43.49.31 1.25.09 2.1a4.08 4.08 0 0 1-1.15 2.07 3 3 0 0 1-1.87.75c-1.4.81-2.78 1.32-3.77 2.64-.3-.07-.72.25-1 .17-.38-.44-.13-.52-.19-.94.6-.41.8-1 1.34-1.39a1.17 1.17 0 0 0 .86-.61 15 15 0 0 0 2.3-1.1 1.89 1.89 0 0 0 1.55-.51 2.25 2.25 0 0 0 .86-2c0-.22-.21-.4-.26-.61s0-.53 0-.76a8.7 8.7 0 0 0-.45-1c-.27-.59-.74-1.12-1-1.63-.4-.71-.67-1.55-1.09-2.31-.2-.37-.38-.76-.59-1.13s-.43-.74-.85-.83c-.25-.06-.57.15-.84.22a6.49 6.49 0 0 0-1.24.32c-1.43.73-2.41 1.64-4 2.38-.12.1-.28.17-.17.35a11.68 11.68 0 0 0-1.93 1.08 4.38 4.38 0 0 0-1.4 1.49 2 2 0 0 0-.23 1 3.87 3.87 0 0 0 .34 1.29c.12.3.36.53.5.84.37.83.79 2.4 1.43 2.79a3.46 3.46 0 0 0 2 2.31.82.82 0 0 0 .18.29.34.34 0 0 0 .21.13 1.75 1.75 0 0 0 .76-.07 2.48 2.48 0 0 1 1.57-.17z" fill-rule="evenodd"/><path d="M132.73 104.88l-5.5-1.11a5.6 5.6 0 0 0-1.82-.16c-1.54.19-2.63 1.61-3.27 3a12.66 12.66 0 0 0-1 6.84 2 2 0 0 0 .29.91 2.17 2.17 0 0 0 1.23.72 62.52 62.52 0 0 0 6.73 1.7c1.58.31 3.55.42 4.48-.91a4.18 4.18 0 0 0 .56-1.46 47.46 47.46 0 0 0 .94-5.17 6.23 6.23 0 0 0-.12-2.85c-.35-.88-2.52-1.51-2.52-1.51z" fill="#feffcc"/><path d="M132.46 104.57a10.8 10.8 0 0 0-2.85 1.35c-.59.44-1.58 1.37-1.42 2.21.24 1.29 2.21 1 3.11.88a11.65 11.65 0 0 0 3.63-1.24c.89-.48.9-1.54-.19-1.77a13.31 13.31 0 0 0-2.43-.35h-1c-.33 0-.52-.08-.4 0-.85-.65-2.81-.46-2.92.84-.15 2 .63 4.45 3.18 3.76a4.84 4.84 0 0 0 2.19-1.48c.45-.49 1-1.33 1.62-1.56 1-.36 1.54-1.58.18-1.91-2-.48-4.36-1-6.24-.1-.58.29-1 .94-.42 1.47a2.11 2.11 0 0 0 2.22.13 4 4 0 0 1 1.35.1c.56.08 1.11.21 1.66.34l.18-1.91a6.73 6.73 0 0 0-2.91 2.17c-.16.18-.32.37-.49.54s-.25.24-.39.35h1.25a6 6 0 0 0-.19-.91 6.18 6.18 0 0 1 0-1.29l-2.92.84c1.46 1.12 3.36.55 5.06.9l-.19-1.77a5.65 5.65 0 0 1-2.86.88l1 .37-.16-.13.27.5c0-.59 1.68-1.17 2.14-1.33s1.32-.69 1-1.39-1.46-.7-2-.5zM129.18 115.45a3.49 3.49 0 0 1 .37-.89.75.75 0 0 1 .33-.33l-1.07-.46c-.05.11.46.76.51.82a3 3 0 0 0 .85.69 2 2 0 0 0 2 .14 4.58 4.58 0 0 0 1.1-1.69c.6-1.1-2.21-2.65-2.81-1.55-.22.41-.44 1.12-.84 1.37l.56-.15H130l1.12.32c.48.49.62.56.4.2a2.25 2.25 0 0 0-.24-.36 3.61 3.61 0 0 0-.64-.71 3.53 3.53 0 0 0-1.83-.83c-1.32-.17-2.07.72-2.45 1.86s2.45 2.66 2.81 1.56z" fill="#ffa95c"/><path d="M132.68 105.09c.07-.45.32-.53.49-1.06.72.33 1.05 0 1.25.68a2.78 2.78 0 0 1 1.35.9 2 2 0 0 1 .26.48 2.58 2.58 0 0 1 .09.35 2.79 2.79 0 0 1 .06.63 4 4 0 0 1 .22 2.19c-.09.68-.26 1.35-.41 2s-.22 1.62-.45 2.34c-.16.51-.43.92-.59 1.47a3.32 3.32 0 0 1-.3 1 3.1 3.1 0 0 1-1.43 1 6.07 6.07 0 0 1-2.94.38 19.3 19.3 0 0 0-2.42-.13 9.75 9.75 0 0 1-1.28-.21 3.63 3.63 0 0 1-1.29-.24c-.23-.12-.28.08-.43.12a18.53 18.53 0 0 1-2.35-.65 5.57 5.57 0 0 1-1.28-.59 2.31 2.31 0 0 1-1-1.45 4.73 4.73 0 0 1 0-1.23q0-.55.09-1.08a8.57 8.57 0 0 0 .75-3.24 7.27 7.27 0 0 1 .89-3.11c0-.65.54-1.17 1.24-1.7a4.14 4.14 0 0 1 2.19-.89 3.06 3.06 0 0 1 1.93.58c1.6.24 3 .71 4.6.3.19.23.72.25.89.49 0 .58-.22.49-.44.86-.72-.06-1.22.24-1.91.24a1.21 1.21 0 0 0-1.06-.06 14.57 14.57 0 0 0-2.48-.57 1.82 1.82 0 0 0-1.53-.57 2.24 2.24 0 0 0-1.94 1c-.12.18-.08.45-.17.64s-.35.4-.45.62a8 8 0 0 0-.3 1.11c-.16.62-.12 1.32-.22 1.9-.14.8-.45 1.64-.6 2.49-.07.4-.18.82-.24 1.25a1.36 1.36 0 0 0 .14 1.17c.16.21.54.24.79.36a5.83 5.83 0 0 0 1.18.52c1.57.33 2.9.23 4.58.62.15 0 .32 0 .34-.16a12.87 12.87 0 0 0 2.18.36 4.44 4.44 0 0 0 2-.29 2 2 0 0 0 .79-.62 4 4 0 0 0 .54-1.22c.09-.31.06-.64.14-1 .23-.88.89-2.37.62-3.08a3.43 3.43 0 0 0-.09-3 .76.76 0 0 0 0-.34c0-.14 0-.13-.08-.23a1.93 1.93 0 0 0-.6-.42c-.52-.23-1.09-.43-1.32-.91z" fill-rule="evenodd"/><path d="M124.67 98.33l-5.61-.12a5.77 5.77 0 0 0-1.81.16c-1.48.47-2.31 2-2.69 3.56a12.59 12.59 0 0 0 .2 6.91 2.16 2.16 0 0 0 .44.85 2.26 2.26 0 0 0 1.34.49 61.73 61.73 0 0 0 6.93.48c1.61 0 3.56-.22 4.24-1.69a4 4 0 0 0 .3-1.54 48.39 48.39 0 0 0 0-5.25 6.47 6.47 0 0 0-.62-2.79c-.47-.83-2.72-1.06-2.72-1.06z" fill="#feffcc"/><path d="M127.63 100.12c-2.32-.94-4.82-1.23-6.48 1-.45.59-1.27 1.75-.66 2.48s2.47.36 3.27-.1c1-.57 1.55-1.69 2.54-2.31.64-.41 2.26-1.13 2.17-2.09s-1.89-.82-2.51-.72a9.16 9.16 0 0 0-3.52 1.53c-.41.27-.91.76-.29 1.11a2.67 2.67 0 0 0 2.19-.33c.09-.06 1.26-.76 1.27-.75-.07-.26-1.47.63-1.62.73a8.17 8.17 0 0 0-1.17.94 7.4 7.4 0 0 0-.55.57c-.09.1-.65.6-.28.46l1.21-.25c.38 0 .74-1.51 1.27-1.79l-1.18.39h.13a5.23 5.23 0 0 1 .54.12 8.24 8.24 0 0 1 1.18.41 2.73 2.73 0 0 0 2.19-.33c.37-.22 1-.83.3-1.1zM118.23 108v-2.74c0-1.45-2.48-2.47-2.89-.74l-.82 3.4a1.8 1.8 0 0 0 1.16 1.92 2.32 2.32 0 0 0 2-.16 11.19 11.19 0 0 0 1-.72c.33-.23.93-.32.53-.59l-.76-1c.37 1 .78 1.84 2 1.87s1.94-1 3-1.36l-1.44-.19.34-.88-.66-.44-1.1-.73c-1.73-1.16-2.84 1.3-1.26 2.36 1 .65 2.17 1.83 3.37 1.9a1.85 1.85 0 0 0 1.9-2.07 2.89 2.89 0 0 0-1.69-2.69 1.75 1.75 0 0 0-1.31.08 6 6 0 0 0-.81.54c-.37.24-.79.29-.23.71l.82 1.37a2.4 2.4 0 0 0-2.15-2.34 3 3 0 0 0-1.59.33c-.17.09-1.82 1.13-1.39 1.26l1.16 1.92.82-3.4-2.9-.74v2.74c0 1.71 2.89 2.41 2.92.38z" fill="#ffa95c"/><path d="M124.66 98.54c0-.45.22-.58.3-1.13.76.2 1-.15 1.35.45a2.74 2.74 0 0 1 1.48.65 1.83 1.83 0 0 1 .34.42c.07.13.11.22.16.33a4 4 0 0 1 .17.61 4 4 0 0 1 .6 2.12v2.09c0 .71.07 1.63 0 2.38-.08.53-.26 1-.32 1.55a3.57 3.57 0 0 1-.13 1 3.07 3.07 0 0 1-1.24 1.21 5.94 5.94 0 0 1-2.82.89 19.56 19.56 0 0 0-2.41.3 9.35 9.35 0 0 1-1.3 0 3.39 3.39 0 0 1-1.31 0c-.25-.07-.26.14-.4.2a17.85 17.85 0 0 1-2.43-.23 5 5 0 0 1-1.37-.35 2.34 2.34 0 0 1-1.23-1.25 4.45 4.45 0 0 1-.24-1.2c0-.37-.07-.73-.11-1.09a8.47 8.47 0 0 0 .17-3.32 7.16 7.16 0 0 1 .33-3.22c-.15-.63.32-1.24.92-1.88a4.1 4.1 0 0 1 2-1.27 3.11 3.11 0 0 1 2 .23c1.61 0 3.08.16 4.57-.52.23.2.75.12 1 .33.13.57-.13.52-.28.92-.72.07-1.16.46-1.84.58a1.2 1.2 0 0 0-1 .13 14 14 0 0 0-2.55-.13 1.84 1.84 0 0 0-1.6-.29 2.21 2.21 0 0 0-1.72 1.37c-.09.2 0 .45-.06.66s-.28.45-.33.69a7.47 7.47 0 0 0-.11 1.14c0 .64.12 1.33.13 1.91 0 .81-.16 1.69-.16 2.56v1.27a1.4 1.4 0 0 0 .35 1.13c.2.18.57.14.84.21a6.18 6.18 0 0 0 1.25.31c1.6 0 2.9-.29 4.62-.21.14 0 .32 0 .31-.22a11.64 11.64 0 0 0 2.21 0 4.37 4.37 0 0 0 1.94-.64 1.89 1.89 0 0 0 .67-.75 4.2 4.2 0 0 0 .32-1.3c0-.32-.06-.64 0-1 .07-.91.45-2.49.07-3.14a3.47 3.47 0 0 0-.63-3 .78.78 0 0 0 0-.34.36.36 0 0 0-.12-.22 1.76 1.76 0 0 0-.7-.3 2.44 2.44 0 0 1-1.69-.64z" fill-rule="evenodd"/><path d="M120.51 108.82l-5.61-.12a5.83 5.83 0 0 0-1.82.16c-1.48.47-2.31 2-2.69 3.56a12.68 12.68 0 0 0 .2 6.91 2.12 2.12 0 0 0 .45.85 2.24 2.24 0 0 0 1.34.49 64 64 0 0 0 6.92.48c1.62 0 3.57-.22 4.25-1.69a4.21 4.21 0 0 0 .29-1.54 48.58 48.58 0 0 0 0-5.26 6.15 6.15 0 0 0-.62-2.78c-.47-.83-2.71-1.06-2.71-1.06z" fill="#feffcc"/><path d="M114.1 115.24c-.67-.12-1.48-1.64-2.11-.81a2.27 2.27 0 0 0 .08 2.2 3.09 3.09 0 0 0 1.78 1.83l-.61-.51.12.16-.83-1.76a6.22 6.22 0 0 1-.57 1.18c-.26.52-.53 1-.81 1.54l1.71 2.42-.11-3.19-1.52-1.3c.37 1 1.3 2.54 2.28 1.35.48-.59-1.17-3.24-1.68-2.62l-.3.22 1 1.5v-.15a3.22 3.22 0 0 0-1-1.42c-.23-.15-.58-.3-.57.16l.11 3.19a3.72 3.72 0 0 0 .74 1.88c.14.19.72 1 1 .54.53-1 1.47-2.21 1.45-3.32a3.72 3.72 0 0 0-.75-2 3 3 0 0 0-.56-.66c-.2-.15-.46-.19-.66-.35l.87 1.11-.09-.18.39 1.08c0-.13.15-.29.23-.38s-.26-.16 0 0 .17.19.26.27a2.58 2.58 0 0 0 1.37.79c.56.1.12-1.1 0-1.29-.19-.46-.64-1.48-1.23-1.58zM122.92 113.55c.19.07-.37-.56-.37-.55a4.92 4.92 0 0 0-.67-.7 5.69 5.69 0 0 0-1.67-1 7.79 7.79 0 0 0-3.83-.45l1.64 2.58c.46-.31 1.25-1.09 1.81-1.18.37-.06 1 .15.92.54-.34 1.49 2.4 3 2.81 1.14s-1.21-3.46-2.81-4.21c-2-.93-3.36.3-5 1.4-1.22.83.64 2.69 1.64 2.58a4.2 4.2 0 0 1 2.85.45c.88.64 1.15 1.61 2.26 2 1.95.75 1.95-2 .38-2.63z" fill="#ffa95c"/><path d="M120.5 109c0-.46.21-.58.29-1.13.77.2 1-.15 1.35.45a2.76 2.76 0 0 1 1.49.65 1.83 1.83 0 0 1 .34.42 2.3 2.3 0 0 1 .15.33 3 3 0 0 1 .17.61 4 4 0 0 1 .61 2.12c0 .68 0 1.38-.05 2.08a23.69 23.69 0 0 1 0 2.39c-.07.53-.26 1-.32 1.55a3.62 3.62 0 0 1-.13 1 3.13 3.13 0 0 1-1.24 1.21 5.9 5.9 0 0 1-2.82.89 19.56 19.56 0 0 0-2.41.3 9.35 9.35 0 0 1-1.3 0 3.33 3.33 0 0 1-1.3 0c-.26-.07-.27.14-.41.2a17.85 17.85 0 0 1-2.43-.23 5.39 5.39 0 0 1-1.37-.35 2.38 2.38 0 0 1-1.23-1.25 4.87 4.87 0 0 1-.24-1.2c0-.37-.07-.73-.1-1.09a8.87 8.87 0 0 0 .17-3.32 7 7 0 0 1 .32-3.22c-.15-.63.33-1.24.92-1.88a4.09 4.09 0 0 1 2-1.27 3 3 0 0 1 2 .23c1.62 0 3.08.16 4.58-.52.22.2.75.12 1 .33.13.56-.13.52-.28.91-.72.08-1.16.46-1.84.58a1.17 1.17 0 0 0-1 .14 13.89 13.89 0 0 0-2.54-.13 1.86 1.86 0 0 0-1.61-.29 2.24 2.24 0 0 0-1.72 1.36c-.09.21 0 .46-.06.66s-.27.46-.33.7a8.82 8.82 0 0 0-.11 1.14c0 .64.12 1.33.13 1.91 0 .81-.15 1.69-.15 2.55v1.28a1.43 1.43 0 0 0 .35 1.13c.2.17.58.14.84.21a7.14 7.14 0 0 0 1.25.31c1.61 0 2.9-.29 4.62-.21.15 0 .33 0 .31-.22a11.61 11.61 0 0 0 2.21 0 4.3 4.3 0 0 0 2-.65 1.91 1.91 0 0 0 .66-.74 4.27 4.27 0 0 0 .32-1.3c0-.32-.06-.64 0-1 .07-.92.45-2.5.07-3.15a3.41 3.41 0 0 0-.63-3 .66.66 0 0 0 0-.34c0-.14 0-.13-.12-.22a1.76 1.76 0 0 0-.7-.3 2.44 2.44 0 0 1-1.71-.63z" fill-rule="evenodd"/><path d="M111.7 95.1l-5.61-.1a5.49 5.49 0 0 0-1.81.16c-1.49.47-2.31 2-2.69 3.56a12.55 12.55 0 0 0 .2 6.9 2.07 2.07 0 0 0 .44.86 2.23 2.23 0 0 0 1.34.48 64.2 64.2 0 0 0 6.93.49c1.61 0 3.56-.23 4.24-1.69a4.05 4.05 0 0 0 .29-1.54 46.15 46.15 0 0 0 0-5.26 6.28 6.28 0 0 0-.61-2.78c-.42-.85-2.72-1.08-2.72-1.08z" fill="#feffcc"/><path d="M112.73 103.42a4.26 4.26 0 0 0-3 1.74.76.76 0 0 0 .43 1.25 2.27 2.27 0 0 0 2-.61l.1-.08-1.09.6h.12-.75c-.27 0 .31.25.31.25a2.91 2.91 0 0 0 .55.23 2.86 2.86 0 0 0 1.45.08 2.51 2.51 0 0 0 2.08-2.18 2.78 2.78 0 0 0-.53-2.25 2.24 2.24 0 0 0-.9-.54 3 3 0 0 1-.85-.29l-1.69 2c-.16 0 .18.16.28.22a1.91 1.91 0 0 0 1.08.33 3 3 0 0 0 2.21-1.08l-.68.45.12-.06-.79.21h.14l-.68-.1.12.06-.41-.38v.11-.55c.12-.25-.29.12-.3.13-.29.15-.61.24-.9.38a4.5 4.5 0 0 0-1.78 1.91.8.8 0 0 0 .58 1.3 2.29 2.29 0 0 0 2.08-.93l.29-.47c.39-.63-.08 0-.19 0 .07.06.82-.35.93-.41a5.17 5.17 0 0 0 2-1.55c.5-.71.37-1.55-.59-1.69a2.87 2.87 0 0 0-2.58 1.27l.54-.53-.14.12.77-.35h-.16l.75-.06c.18 0 0 0-.14-.1a2.5 2.5 0 0 0-.5-.29 3 3 0 0 0-1.26-.18 2.31 2.31 0 0 0-1.6.81c-.24.3-.5.88-.09 1.19a2.69 2.69 0 0 0 .85.46c.22.07.63.1.81.27a1.52 1.52 0 0 1 .16 1.4l.54-.53-.16.1.78-.35h-.18.75c-.55 0-.89-.5-1.43-.59a2.67 2.67 0 0 0-2.19.74l2.42.64c.11-.15-1.64.34-.45.15a2.19 2.19 0 0 0 1.85-1.23c.23-.68-.46-1.12-1.08-1zM104.94 95.08c.13-.31-.75.13-.93.22a2.54 2.54 0 0 0-1.05 1 2.79 2.79 0 0 0-.16 2.45c1.1 2.24 4.83.56 6.62.92.9.19 1.55.45 2.37-.14a2.15 2.15 0 0 0 .7-2.65c-1.11-2.18-4.45-.91-6.29-1.38l1.26.93v-.15l-2.71.08c.52.94.59 1.9 1.71 2.39a2.35 2.35 0 0 0 2.62-.52 2.14 2.14 0 0 0-2.15-3.58c-1.76.62-3.88 2.52-1.92 4.23.94.84 1.86.55 3 .6s2-.05 2.28-1.33a1.69 1.69 0 0 0-1.8-2.15 3 3 0 0 0-2.37 1.17 1.63 1.63 0 0 0 0 1.56 2.08 2.08 0 0 0 3 .79c1.65-.91.22-3.78-1.43-2.88l.18.11.88.83-.06-.13v1.56c0 .23.23.27.52.11L107.42 97l.15-.24 1.06-.35a4.06 4.06 0 0 0-1.1-.09c-.49 0-.82-.14-.59.41v1.56a7.84 7.84 0 0 1 1.09-.65l-1-.56.21.21-.42-1.17c.85.32 1.14.2.85-.35a2.26 2.26 0 0 0-.32-.73c-.55-1-2.46-1.41-2.71.08-.21 1.29-.13 3 1.35 3.44a6.48 6.48 0 0 0 2.11.13h1.09c.08 0 1.43.24 1-.18l-.42-1.17c.7-.47.71-.72 0-.74l-.37-.09a6.59 6.59 0 0 0-1.6 0c-.94.08-2.39.53-3.3.12l1 1.24c.07.45-.16.3.41.16a2.59 2.59 0 0 0 .79-.37 2.63 2.63 0 0 0 1.06-1.41c.69-1.74-2.08-3-2.84-1.13zM104.36 101.3a4.06 4.06 0 0 0-1.21 2.46c0 1.1.91 1.61 1.92 1.59a3.39 3.39 0 0 0 2.69-1.71c.53-.77 1.14-1.69.59-2.6s-3.52-.29-3 .87c.89-.5 1-.68.41-.53l-.64.09a7.49 7.49 0 0 0-.8.15 2.94 2.94 0 0 0-1.82 1.17 2.59 2.59 0 0 0 .11 3.27l1.5-1.8c-1.12 0-3-.12-3.59 1.1s1.09 2 2.12 2c1.27 0 2.4-.53 3.64-.58s2.54-.67 2.32-2.14-3.35-.76-3.15.61a.44.44 0 0 1 0 .4l.32-.52-.16.13 1.48-.56a10.54 10.54 0 0 0-2.1.22c-.34.09-1.34.54-1.64.3l.31.45h-.06l-.86.64-.5.08h1.44c.8 0 2.56-.88 1.5-1.8-.18-.15.29-1.17.22-1.21s-.78.26 0 .15l1-.14c.87-.15 2.7-.8 2.19-2l-3 .86c.08.13-.32.64-.4.76s-.16.26-.25.38-.25.31-.06.15l1.24-.14c.57.09.29.18.49-.35a2.4 2.4 0 0 1 .43-.7c1.28-1.44-1.64-1.93-2.5-1z" fill="#ffa95c"/><path d="M111.69 95.31c0-.46.22-.58.29-1.13.77.2 1-.15 1.36.44a2.83 2.83 0 0 1 1.48.66 1.64 1.64 0 0 1 .34.42 2.3 2.3 0 0 1 .15.33 3 3 0 0 1 .18.61 4 4 0 0 1 .6 2.11v2.09c0 .7.07 1.63 0 2.39-.07.52-.26 1-.32 1.55a3.25 3.25 0 0 1-.12 1 3 3 0 0 1-1.24 1.2 5.88 5.88 0 0 1-2.83.9 19.38 19.38 0 0 0-2.4.3 9.35 9.35 0 0 1-1.3 0 3.39 3.39 0 0 1-1.31 0c-.25-.08-.26.14-.4.2a17.7 17.7 0 0 1-2.43-.23 5.29 5.29 0 0 1-1.37-.35 2.34 2.34 0 0 1-1.23-1.25 4.45 4.45 0 0 1-.24-1.2c0-.37-.07-.73-.11-1.09a8.66 8.66 0 0 0 .17-3.32 7.12 7.12 0 0 1 .33-3.22c-.15-.63.32-1.25.92-1.89a4.09 4.09 0 0 1 2-1.26 3 3 0 0 1 2 .23c1.61 0 3.07.16 4.57-.52.23.2.75.12 1 .33.13.56-.13.52-.28.91-.73.08-1.16.46-1.84.58a1.21 1.21 0 0 0-1.06.13 14.73 14.73 0 0 0-2.54-.13 1.84 1.84 0 0 0-1.6-.28 2.24 2.24 0 0 0-1.73 1.36c-.08.21 0 .46-.06.66s-.27.46-.32.7a7.35 7.35 0 0 0-.11 1.14c0 .64.12 1.33.13 1.91 0 .81-.16 1.69-.16 2.55v1.28a1.36 1.36 0 0 0 .35 1.13c.19.17.57.14.84.21a6.92 6.92 0 0 0 1.25.31c1.6 0 2.9-.29 4.62-.21.14 0 .32 0 .3-.22a11.73 11.73 0 0 0 2.22 0 4.3 4.3 0 0 0 1.94-.65 2 2 0 0 0 .67-.75 3.88 3.88 0 0 0 .31-1.29c0-.32-.06-.64 0-1 .07-.91.45-2.49.07-3.14a3.44 3.44 0 0 0-.63-3 .78.78 0 0 0 0-.34.42.42 0 0 0-.12-.22 1.89 1.89 0 0 0-.7-.3 2.5 2.5 0 0 1-1.64-.64z" fill-rule="evenodd"/><path d="M129.41 115.47l-5.61-.11a5.24 5.24 0 0 0-1.81.16c-1.49.46-2.31 2-2.7 3.55a12.68 12.68 0 0 0 .21 6.91 2.07 2.07 0 0 0 .44.86 2.23 2.23 0 0 0 1.34.48 64.2 64.2 0 0 0 6.93.49c1.61 0 3.56-.23 4.24-1.69a4.25 4.25 0 0 0 .29-1.54 46.15 46.15 0 0 0 0-5.26 6.24 6.24 0 0 0-.61-2.78c-.47-.83-2.72-1.07-2.72-1.07z" fill="#feffcc"/><path d="M122.54 124.84a6.74 6.74 0 0 1 .28-2.14l-2.48-.63.12.17-.28-.86c-.05.57-1 1.26-1.41 1.67s.47 1.41.77 1.66l.18.15-.72-.86a2.71 2.71 0 0 0 2.36 1.81 7.93 7.93 0 0 0 1.42-.41 10 10 0 0 1 2.18-.28c1.2 0 .08-1.6-.33-1.87a1.06 1.06 0 0 1-.49-.51l-.43 1c.42 0 .45.12.6.47a2.58 2.58 0 0 0 1.48 1.27c.33.11 1.16.22 1.17-.34a5.13 5.13 0 0 0-.2-1.74 2.46 2.46 0 0 0-1.57-1.57c-.43-.14-1.39-.14-1.17.61a3.58 3.58 0 0 1 .19 1.22l2.65.93a5.4 5.4 0 0 0-4.84-3.21c-.55 0-.62.62-.43 1a6 6 0 0 0 2 2.28l-.33-1.88a10.47 10.47 0 0 0-1.93.22c-.55.11-1.11.4-1.67.47l1.69.76c.62.65.19.09 0-.14a3.76 3.76 0 0 0-.76-.73l.77 1.66c.91-1 2.13-1.77 1.2-3.14-.37-.53-2.15-1.78-2.48-.63a7.36 7.36 0 0 0-.28 2.14A2.09 2.09 0 0 0 121 125c.3.16 1.55.56 1.54-.18zM128.52 115.41c-1.54.32-4.5 3.26-2.79 4.83 2.54 2.33 4.77-1.61 6.52-2.86l-.83.24h.21l-2-.86c.6 1-.32 2.75-.42 3.78a3.52 3.52 0 0 0 .7 2.69 2.66 2.66 0 0 0 2 .87c.42 0 1.31-.25.84-.84-1.53-1.93 1.56-5.42-.77-6.9-2.63-1.68-4.33 1.75-6.15 3l.84-.23h-.3l2 .86c-.53-.7 1.3-2.83 2-3s.71-.57.29-1a2.69 2.69 0 0 0-2.18-.62z" fill="#ffa95c"/><path d="M129.4 115.69c0-.46.21-.58.29-1.13.77.2 1-.15 1.36.44a2.83 2.83 0 0 1 1.48.66 1.64 1.64 0 0 1 .34.42 1.82 1.82 0 0 1 .15.32 3.08 3.08 0 0 1 .18.62 4.08 4.08 0 0 1 .6 2.11v2.09c0 .71.07 1.63 0 2.39-.07.52-.26 1-.32 1.55a3.25 3.25 0 0 1-.12 1 3 3 0 0 1-1.24 1.2 6 6 0 0 1-2.83.9 19.14 19.14 0 0 0-2.4.3 11.21 11.21 0 0 1-1.3 0 3.39 3.39 0 0 1-1.31 0c-.25-.08-.26.14-.4.2a17.7 17.7 0 0 1-2.43-.23 5.73 5.73 0 0 1-1.37-.35 2.33 2.33 0 0 1-1.23-1.26 4.31 4.31 0 0 1-.24-1.19c0-.37-.07-.74-.11-1.09a8.67 8.67 0 0 0 .17-3.32 7.12 7.12 0 0 1 .33-3.22c-.15-.63.32-1.25.92-1.89a4.09 4.09 0 0 1 2-1.26 3 3 0 0 1 2 .23c1.61 0 3.07.16 4.57-.52.23.19.75.12 1 .32.13.57-.13.53-.28.92-.73.08-1.16.46-1.84.58a1.21 1.21 0 0 0-1.06.13 14.78 14.78 0 0 0-2.54-.13 1.81 1.81 0 0 0-1.6-.28 2.24 2.24 0 0 0-1.73 1.36c-.08.21 0 .46-.06.66s-.27.46-.32.69a7.61 7.61 0 0 0-.11 1.15c0 .64.12 1.32.12 1.91 0 .81-.15 1.69-.15 2.55v1.28a1.36 1.36 0 0 0 .35 1.13c.19.17.57.14.84.21a6.72 6.72 0 0 0 1.25.31c1.6 0 2.9-.3 4.62-.21.14 0 .32 0 .3-.22a11.73 11.73 0 0 0 2.22 0 4.3 4.3 0 0 0 1.94-.65 2 2 0 0 0 .67-.75 3.88 3.88 0 0 0 .31-1.29c0-.32-.06-.64 0-1 .07-.91.45-2.49.07-3.14a3.44 3.44 0 0 0-.63-3 .78.78 0 0 0 0-.34.42.42 0 0 0-.12-.22 2.07 2.07 0 0 0-.7-.31 2.49 2.49 0 0 1-1.64-.63z" fill-rule="evenodd"/><path d="M144.32 108.94l-5.5-1.11a5.86 5.86 0 0 0-1.81-.17c-1.54.2-2.64 1.61-3.28 3a12.53 12.53 0 0 0-1 6.83 2.1 2.1 0 0 0 .28.92 2.26 2.26 0 0 0 1.23.72 62.52 62.52 0 0 0 6.73 1.7c1.59.31 3.55.41 4.48-.91a4.18 4.18 0 0 0 .56-1.46 48.08 48.08 0 0 0 .94-5.18 6 6 0 0 0-.12-2.84c-.34-.88-2.51-1.5-2.51-1.5z" fill="#feffcc"/><path d="M142.72 119.8l-.14-1.94c0-.43-.24-1.21.24-1.47h-1.13.25L140 116c1 .65.73 1.65.88 2.6s1.2.89 1.87 1 1.66.27 2.05-.5c.24-.47.38-1 .58-1.48a4.58 4.58 0 0 1 .2-.46c.08-.14.55-.54.25-.55l-1.93-.31c.12 0 0 .61-.07.77a4.11 4.11 0 0 1-.64 1 4.55 4.55 0 0 1-2 1.33c-.34.13 1 .5 1.06.51a4.07 4.07 0 0 0 2 .07c1.15-.43 4.39-3 1.94-3.79-.91-.28-2.66-.7-3.47 0a2.85 2.85 0 0 0-.6 1.09c-.17.44-.39 1.52-.87 1.69l2.67.24c.17.06.11-1 .11-1.11a3.27 3.27 0 0 0-.38-1.18c-.5-.94-1.52-1-2.51-1.15-.63-.06-1.6-.25-1.8.55a4.78 4.78 0 0 0 0 1.41l.11 1.61c.05.61 3.2.67 3.19.44zM134.5 113.51a17.21 17.21 0 0 0 4.86-.25c1.28-.32 2.7-1.52 2.38-3s-1.86-1.63-3-1.41a18 18 0 0 0-4.59 2.12l1.94.47c0-.36.11-1.66.43-1.77s.74.56.85.86c.39 1.12 3.16-.44 2.72-1.71-.57-1.63-2.56-1.7-3.92-1.11a5 5 0 0 0-2.94 4.39c-.09 1.2 1.27.82 1.93.48s1.46-.79 2.21-1.15.85-.33 1.46 0l.06.28c1-.6 1.13-.82.41-.67a6.05 6.05 0 0 0-1.2.08h-2.39c-1.21-.06-3.11 2.25-1.21 2.35z" fill="#ffa95c"/><path d="M144.27 109.14c.07-.45.32-.53.49-1 .72.33 1.05 0 1.26.67a2.85 2.85 0 0 1 1.34.91 1.74 1.74 0 0 1 .26.47 2 2 0 0 1 .09.35 2.91 2.91 0 0 1 .07.64 4.07 4.07 0 0 1 .22 2.19c-.1.68-.27 1.35-.41 2s-.22 1.62-.45 2.35c-.17.5-.43.92-.59 1.47a3.56 3.56 0 0 1-.31 1 3.06 3.06 0 0 1-1.43 1 6 6 0 0 1-2.94.39 17.49 17.49 0 0 0-2.42-.13 9.8 9.8 0 0 1-1.28-.22 3.42 3.42 0 0 1-1.29-.24c-.23-.12-.28.09-.43.13a17 17 0 0 1-2.35-.66 5.17 5.17 0 0 1-1.28-.59 2.28 2.28 0 0 1-1-1.45 4.21 4.21 0 0 1 0-1.22c0-.37.05-.73.08-1.09a8.71 8.71 0 0 0 .76-3.24 7 7 0 0 1 .89-3.11c0-.65.54-1.17 1.24-1.69a4.11 4.11 0 0 1 2.18-.89 3 3 0 0 1 1.94.58c1.59.24 3 .7 4.59.29.19.24.72.26.9.5 0 .58-.23.49-.45.85-.72 0-1.22.25-1.9.25a1.23 1.23 0 0 0-1.07-.06 14.33 14.33 0 0 0-2.48-.58 1.79 1.79 0 0 0-1.52-.56 2.22 2.22 0 0 0-1.94 1c-.13.19-.09.45-.18.64s-.35.4-.44.63a8.16 8.16 0 0 0-.31 1.1c-.15.63-.12 1.33-.22 1.91-.13.79-.45 1.63-.6 2.48-.07.41-.17.83-.24 1.26a1.39 1.39 0 0 0 .15 1.17c.16.2.54.24.79.35a6.05 6.05 0 0 0 1.17.53c1.57.33 2.91.23 4.58.62.15 0 .32 0 .34-.17a11.24 11.24 0 0 0 2.19.36 4.33 4.33 0 0 0 2-.29 2 2 0 0 0 .79-.62 4.34 4.34 0 0 0 .54-1.22c.09-.31 0-.64.13-1 .23-.89.89-2.37.63-3.08a3.47 3.47 0 0 0-.1-3 .65.65 0 0 0 0-.34c0-.14 0-.13-.08-.23a1.66 1.66 0 0 0-.63-.43c-.47-.3-1.05-.49-1.28-.98z" fill-rule="evenodd"/><path d="M118.52 124.83l5.54.94a5.58 5.58 0 0 1 1.75.5c1.37.73 1.88 2.44 2 4a12.68 12.68 0 0 1-1.5 6.75 2.14 2.14 0 0 1-.6.76 2.23 2.23 0 0 1-1.4.23 63.5 63.5 0 0 1-6.89-.83c-1.6-.28-3.47-.89-3.86-2.45a4.15 4.15 0 0 1 0-1.57 48 48 0 0 1 1-5.17 6.12 6.12 0 0 1 1.13-2.61c.58-.74 2.83-.55 2.83-.55z" fill="#feffcc"/><path d="M124 131.74a4.74 4.74 0 0 1-3.63 1.24c-.91 0-2.07-.46-3-.17-1.64.53-.8 2.41.28 3 1.82 1 4.07.67 6 .42 1.74-.22 3.38-.47 3.78-2.47.21-1-2.88-1.88-3.06-1-.34 1.71-1.69 1.68-3.15 1.87a8.21 8.21 0 0 1-1.9.18c.25.08.34-.05.3-.37a.58.58 0 0 1 .64 0c2.35.17 4.68.23 6.53-1.49.74-.7-2.11-2-2.84-1.29zM117 129.58a11 11 0 0 1 1.9 0 4.39 4.39 0 0 0 1.8.14c1.17-.32.65-1.58.15-2.28a4.67 4.67 0 0 0-3.39-1.8 1.79 1.79 0 0 0-1.56.43 5.38 5.38 0 0 0-.63 1.72c-.17.52.79.94 1.12 1.07.5.19 1.35.43 1.83.06a1.65 1.65 0 0 1 .5-.28c.67-.24.1-.84-.26-1.07a2.79 2.79 0 0 0-2.17-.43 3.48 3.48 0 0 0-.91.49l3 1.14c.11-.36.22-.72.34-1.07 0-.15.09-.29.15-.43l-1-.26s.36.48.39.53.1.51.16.59c-.06.25.14.26.6 0l-.55-.11c-.36-.05-.72-.1-1.08-.12h-2.17c-.72 0-.71.53-.29.92a3.07 3.07 0 0 0 2.16.69z" fill="#ffa95c"/><path d="M118.54 124.62c0 .45-.18.59-.22 1.14-.66-.1-.76.33-1.15-.13a3.75 3.75 0 0 0-.82.3l-.14.14-.27.31a10.81 10.81 0 0 1-.32 1.73L115 130c-.19.74-.22 1.55-.4 2.26a14.05 14.05 0 0 0-.43 1.41 3.9 3.9 0 0 0 .09.66c0 .28-.1.69.15 1a3.81 3.81 0 0 0 2.13 1.11 7.21 7.21 0 0 0 2.3.12 10.9 10.9 0 0 1 1.26.11 3.58 3.58 0 0 1 1.27.07c.24.08.26-.13.39-.19 1.46 0 3.64.38 3.42.24a4 4 0 0 0 .55-.64 4.67 4.67 0 0 0 .51-.82 3.4 3.4 0 0 0 1.11-2.86c0-1.12-.28-2.2-.3-2.94-.41-.39-.34-1-.56-1.57a2.54 2.54 0 0 0-1-1.24c-.44-.3-1-.5-1.53-.84-1.6-.19-3-.61-4.55-.14-.21-.24-.73-.23-.93-.47-.08-.59.17-.51.35-.88.72 0 1.19-.29 1.88-.31a1.22 1.22 0 0 0 1.07 0 15.54 15.54 0 0 0 2.55.51c.48.53 1.13.47 2 1.11a6.06 6.06 0 0 1 1.57 2.54c.1.23.33.41.42.66a5.37 5.37 0 0 1 0 .9c.06.4.16.78.21 1.27a9.09 9.09 0 0 1 .1 2.2 7.34 7.34 0 0 1-1.13 2.73 7.53 7.53 0 0 1-.87 1.07 2.65 2.65 0 0 1-1.12.82 2.35 2.35 0 0 1-.92.22 8.85 8.85 0 0 0-1.28-.24 26.73 26.73 0 0 1-4.65 0c-.15 0-.33 0-.34.18-.74-.16-1.52-.24-2.37-.47a4.78 4.78 0 0 1-2.51-1.5 2.7 2.7 0 0 1-.56-1.71 7.91 7.91 0 0 1 .26-1.57c.06-.32 0-.65.07-1 .17-.93.87-2.41.68-3.13.5-.79.54-2.16.9-3.33a2.48 2.48 0 0 0 .37-.29 3 3 0 0 1 .5-.39 3.79 3.79 0 0 1 1.1-.38 1.87 1.87 0 0 1 1.78.34z" fill-rule="evenodd"/><path d="M101.14 112.4l5.59-.45a5.62 5.62 0 0 1 1.83 0c1.5.38 2.42 1.91 2.89 3.39a12.68 12.68 0 0 1 .21 6.91 2 2 0 0 1-.4.88 2.24 2.24 0 0 1-1.3.57 63.94 63.94 0 0 1-6.89.89c-1.61.11-3.57 0-4.34-1.44a4.31 4.31 0 0 1-.38-1.52 48.32 48.32 0 0 1-.32-5.24 6.39 6.39 0 0 1 .45-2.82c.43-.81 2.66-1.17 2.66-1.17z" fill="#feffcc"/><path d="M101.11 112.19c.09.44 0 .62.06 1.16-.67.07-.66.51-1.15.16a4.28 4.28 0 0 0-.72.48 1.28 1.28 0 0 0-.1.17c-.07.12-.13.25-.19.38a10.67 10.67 0 0 1 .11 1.75c0 .65 0 1.32-.07 2s.17 1.55.16 2.29a12.29 12.29 0 0 0-.06 1.47 4.24 4.24 0 0 0 .24.62c.08.27.08.69.39.94a3.94 3.94 0 0 0 2.34.56 7.69 7.69 0 0 0 2.26-.45c.39-.15.85-.1 1.25-.21a3.64 3.64 0 0 1 1.25-.24c.25 0 .22-.19.34-.28 1.42-.32 3.62-.53 3.37-.61a4.34 4.34 0 0 0 .37-.75 4.49 4.49 0 0 0 .3-.92 3.39 3.39 0 0 0 .38-3c-.28-1.09-.81-2.07-1-2.78-.5-.28-.56-.84-.92-1.39a2.69 2.69 0 0 0-1.28-1c-.5-.18-1.12-.23-1.68-.44-1.6.21-3.09.15-4.45 1-.26-.17-.76 0-1-.23-.23-.55 0-.53.12-.93.7-.15 1.08-.58 1.74-.76a1.24 1.24 0 0 0 1-.24 15.49 15.49 0 0 0 2.59-.13c.6.4 1.22.18 2.17.6a6.1 6.1 0 0 1 2.15 2.07c.15.21.42.32.56.54a5.39 5.39 0 0 1 .28.86c.15.37.34.72.51 1.18a9.82 9.82 0 0 1 .64 2.11 7.29 7.29 0 0 1-.47 2.89 7.5 7.5 0 0 1-.58 1.25 2.67 2.67 0 0 1-.88 1.08 2.39 2.39 0 0 1-.84.43 8.54 8.54 0 0 0-1.3.08 25.43 25.43 0 0 1-4.51 1.14c-.15 0-.33.06-.29.26-.75 0-1.53.14-2.41.12a4.63 4.63 0 0 1-2.8-.83 2.66 2.66 0 0 1-1-1.52 8.19 8.19 0 0 1-.14-1.58c0-.33-.16-.64-.17-1-.06-1 .25-2.55-.11-3.21.29-.89 0-2.22.06-3.45a2.75 2.75 0 0 0 .28-.37 2.87 2.87 0 0 1 .4-.49 3.79 3.79 0 0 1 1-.65 1.89 1.89 0 0 1 1.8-.13z" fill-rule="evenodd"/><path d="M56.13 107.74a163 163 0 0 0-33.35 6.94 3.73 3.73 0 0 0-2.31 1.48 3.77 3.77 0 0 0 .25 3L27.93 138c21.17-6.51 29.25-8.36 44.13-11.31-1.9-3.5-1-9.85-2.14-13.66" fill="#feffcc"/><path d="M69.72 113.14c.4-.25.67.19 1.22.07.22 1 .35 1.58.46 2.06a2.5 2.5 0 0 1-.09 1.42c.31 2.34.32 4.35.44 6a17 17 0 0 0 1.25 3.53 1.06 1.06 0 0 1-.44 1.43 1.53 1.53 0 0 1-.27.11c-2 .43-4.12.75-6.25 1.15s-4.05.92-6 1.27c-1.29.24-2.57.35-3.87.66-.73.17-1.35.42-2.08.58-1.14.24-2.32.28-3.5.56-2.27.54-4.59 1.2-6.82 1.85-1.9.54-4.29 1.37-5.77 2-1 .4-2.15.65-3.18 1a23.28 23.28 0 0 1-3.18 1c-.64.14-.57.34-.87.51l-2.51.8a1.19 1.19 0 0 1-1.48-.7c-1.2-3.09-2.3-6.2-3.09-8.63-.55-1.68-1-3.41-1.61-5.07a20.54 20.54 0 0 0-1-3.79c-.23-.67-.5-1.34-.77-2a4.62 4.62 0 0 1-.31-2.35 2.76 2.76 0 0 1 1.55-1.93 18.94 18.94 0 0 1 2-.83 31.52 31.52 0 0 1 3.55-1.13 16.31 16.31 0 0 1 4.74-1.37c3.32-.72 7-1.64 9.93-1.67 4.11-.87 7.92-1.26 11.6-2.42.64.12 2-.11 2.58 0 .48.52-.2.55-.49 1-1.84.29-2.87.81-4.59 1.18a7 7 0 0 0-2.68.53 64.91 64.91 0 0 0-6.57 1.04 20.28 20.28 0 0 0-4.88.55A47.79 47.79 0 0 0 30 113c-.59.18-1.07.5-1.64.69s-1.45.32-2.09.53c-.93.29-1.84.66-2.95 1.06a3.93 3.93 0 0 0-1.91 1.1c-.27.38-.21.88 0 1.57.14.46.35 1 .54 1.57s.37 1.13.55 1.7c.34 1.14.68 2.29 1 3.4.64 2.15 1.11 4.36 1.81 6.47.21.63.67 1.46.92 2.17s.63 2.18 1 3.18c.23.54.45 1.07.67 1.56h-.07c3.22-1.17 6-2.35 9.74-3.43.35-.14.8-.27.69-.44 3.77-1 7.64-2.29 12.15-3.37 2.36-.57 4.84-1 7.35-1.48.83-.17 1.62-.46 2.48-.64 2.38-.49 6.49-.94 8.11-1.62a27 27 0 0 0 3.57-.58l-.22.45a18.36 18.36 0 0 1-1.57-4.75 31.49 31.49 0 0 0-.2-4.68 32.71 32.71 0 0 1-.21-4.32z" fill-rule="evenodd"/><path d="M49.88 104.79c-3.75.17-25 4.31-27 6.3a1.24 1.24 0 0 0-.4.62 1.42 1.42 0 0 0 .09.61l6.62 20.32a1.12 1.12 0 0 0 .41.66 1.14 1.14 0 0 0 .66.08c4.8-.4 9.25-2.48 13.81-4a120.35 120.35 0 0 1 15.62-3.62" fill="#feffcc"/><path d="M59.63 125.58c.16.43-.14.63-.06 1.18-1.29.16-1.47.62-2.29.27a26.54 26.54 0 0 1-4.1.81 50.09 50.09 0 0 1-6.87 1.85c-1.35.35-2.67.92-4 1.3-.86.25-1.75.39-2.62.7-.49.17-.89.42-1.39.57-.78.23-1.62.25-2.44.47a37.92 37.92 0 0 1-4.84 1.05c-.37 0-.66.11-1.16.12a1.23 1.23 0 0 1-.88-.37 2.22 2.22 0 0 1-.39-.68c-.28-.69-.57-1.34-.82-1.84-.33-.66-.49-1.47-.79-2.17a10.82 10.82 0 0 1-.78-2.16c-.09-.45-.29-.38-.43-.58a76.46 76.46 0 0 1-2.37-7.78c-.3-1.18-.51-2.4-.84-3.57a11.4 11.4 0 0 0-.4-2.73 1.12 1.12 0 0 1 .28-.89 2.55 2.55 0 0 1 .64-.54 11.79 11.79 0 0 1 1.41-.73 26 26 0 0 1 5.32-1.86 8.23 8.23 0 0 1 3.29-.88c2.32-.39 4.88-1 6.89-.91 2.83-.63 5.44-.92 7.94-2 .46.14 1.38-.07 1.84.12.32.54-.16.53-.34 1a31.29 31.29 0 0 0-3.1 1 3.52 3.52 0 0 0-1.83.47 37.09 37.09 0 0 0-4.52.76 10.62 10.62 0 0 0-3.4.23 26.82 26.82 0 0 0-4.66.81c-.41.12-.73.38-1.13.51s-1 .16-1.46.29c-.64.2-1.26.45-2 .73a32.09 32.09 0 0 0-3.19 1.45l-.4.22h-.11c-.11 0-.1.11-.12.14l-.22-.12h-.12.33a.23.23 0 0 0 0 .07l.06.27c.17.81.34 1.62.5 2.4.32 1.52.46 3.09.84 4.58.11.44.44 1 .58 1.52s.3 1.54.56 2.24c1 2.68 2.13 4.72 3.08 7.69.11.24.2.55.38.45.1.32.21.64.31 1l.15.47c0 .15.13.17.05.23s-.1.13-.06 0 0-.12.07-.11h.4c.34-.05.68-.08 1-.14a39.26 39.26 0 0 0 4.29-1c1.58-.43 3.26-.83 4.94-1.37.56-.18 1.06-.48 1.64-.67 1.59-.55 4.43-1 5.5-1.62a22.89 22.89 0 0 0 5.65-1.55c1.71.15 4.65-1.22 6.19-.7z" fill-rule="evenodd"/><path d="M80.1 83.09C69.76 89.82 41 107.83 42.2 111c4.18 14.05 15 17.19 21.56 19.39 3.45-5.33 8.65-9.25 12.52-14.28 1.65-2.14 15.59-13.22 18.49-14.77s6.23-4.22 6.2-6.24c.08-1-15.26-5.29-20.87-12" fill="#ffa95c"/><path d="M80 83.25c.25-.39.78 0 1.2-.39a8.89 8.89 0 0 0 1.8 1.59 4.45 4.45 0 0 1 1.2 1.21c2.44 1.56 4.72 2.77 6.67 3.83q2.63 1 5.29 2.07c.89.37 1.79.75 2.7 1.16.45.2.91.41 1.38.64.23.12.47.24.72.39a2.61 2.61 0 0 1 .41.27l.12.09.17.16.08.09a1.89 1.89 0 0 1 .1.17 1.2 1.2 0 0 1 .15.63v-.08a4 4 0 0 1-.77 2.18 14 14 0 0 1-3 3c-.55.42-1.11.81-1.69 1.17s-1.22.68-1.67.94a47.45 47.45 0 0 0-4.19 2.68c-.78.57-1.39 1.18-2.16 1.74-1.2.89-2.53 1.62-3.76 2.57-2.36 1.84-4.75 3.84-6.92 5.86l-.68.67c-.2.24-.4.45-.62.75-.42.57-.86 1.13-1.3 1.68l-2.4 2.92c-.87 1.06-2 2.08-3 3.13-.76.88-1.56 1.89-2.79 3.19-.58.6-.4.73-.61 1.1-.58.76-1.12 1.55-1.64 2.34a1.24 1.24 0 0 1-1.41.49 61.71 61.71 0 0 1-6.15-2.29A26.21 26.21 0 0 1 47 121.46a55.05 55.05 0 0 1-5.12-10.37 1.32 1.32 0 0 1 0-.93 4.2 4.2 0 0 1 .34-.67 10.54 10.54 0 0 1 .83-1.1 24.35 24.35 0 0 1 1.8-1.85 33.46 33.46 0 0 1 3.43-2.84 25.3 25.3 0 0 1 5.08-3.82 104.32 104.32 0 0 1 11-6.81c4.45-3 8.7-5.55 12.39-8.79.78-.27 2.18-1.28 2.93-1.52.76.17 0 .62-.13 1.18-2 1.39-2.94 2.48-4.77 3.81a12.58 12.58 0 0 0-2.89 2c-1.47.74-5.54 3.55-7.24 4.64a35.49 35.49 0 0 0-5.5 3.13 77.89 77.89 0 0 0-7.37 4.87c-.63.49-1.08 1-1.69 1.54s-1.57 1.07-2.24 1.62c-1 .79-1.88 1.65-2.94 2.7a13 13 0 0 0-1.27 1.43 5 5 0 0 0-.45.73.88.88 0 0 0-.09.26h-.13a1 1 0 0 0-.3 0l.44-.09c.37.88.68 1.73 1 2.54a29.94 29.94 0 0 0 4.23 7.67 23.65 23.65 0 0 0 6.27 5.68 8.55 8.55 0 0 0 1.32.65l1.43.62a29.86 29.86 0 0 0 3.94 1.7l2.48.75h-.08a53.11 53.11 0 0 1 8.12-10c.31-.37.73-.8.53-.89.86-.9 1.71-1.82 2.52-2.8.41-.5.73-1 1.26-1.54s1-1 1.48-1.42c2-1.82 4.16-3.6 6.51-5.44s5.12-3.73 7.84-5.62a32.58 32.58 0 0 1 2.76-1.9 22.51 22.51 0 0 0 3.61-2.32 9.38 9.38 0 0 0 1.61-1.6 3.08 3.08 0 0 0 .72-1.75h.21c-.1 0-.22.09-.2.08a1 1 0 0 0-.17-.11 2.81 2.81 0 0 0-.39-.19c-.26-.11-.51-.19-.73-.26a97.78 97.78 0 0 0-10.06-4.2c-1.3-.92-3.34-1.9-5.21-3.12S80.5 84.55 80 83.25z" fill-rule="evenodd"/><path d="M78.27 79.1c-8.1 5.33-16.71 11.9-24.8 17.23-2.08 1.37-13.39 7.48-11.4 9.45l6.92 9.3c3.32 4.46 6.89 9.12 12 11.22 3.08-3 6.74-5.39 9.69-8.54 1.54-1.64 2.86-3.47 4.33-5.17a74.54 74.54 0 0 1 5.79-5.73c6.24-5.71 12.63-11.44 20.13-15.35.17-2.53-15.62-7.44-22.69-12.41" fill="#ffa95c"/><path d="M78.16 79.28c.15-.44.74-.22 1.07-.67 1.92 1.34 2.58 1.17 3.53 2.24 2.65 1.24 5 2.33 7 3.35a53.47 53.47 0 0 1 6.08 2.47c1 .49 2 1 3 1.6a16.67 16.67 0 0 1 1.52 1 5.76 5.76 0 0 1 .77.67 2.44 2.44 0 0 1 .69 1.21 2.83 2.83 0 0 1 0 .41.83.83 0 0 1-.45.75A67.44 67.44 0 0 0 95 96.27c-1.39.91-2.79 1.74-4.13 2.8-.75.59-1.34 1.2-2.08 1.8-1.16.93-2.44 1.7-3.62 2.71-2.26 2-4.54 4.07-6.67 6.11a36.15 36.15 0 0 0-2.75 3c-.86 1-1.61 2.13-2.19 3a31.61 31.61 0 0 1-2.81 3.31 21.74 21.74 0 0 1-3.19 3c-.69.5-.54.65-.84 1-1.66 1.41-3.37 2.8-4.85 4.23a1.19 1.19 0 0 1-1.29.24 20.52 20.52 0 0 1-7.18-5.35 66.45 66.45 0 0 1-4.17-5.51c-1.6-3.23-4.63-7-7.48-10.52a1.26 1.26 0 0 1-.38-.77 1.62 1.62 0 0 1 .12-.76 4.05 4.05 0 0 1 .65-1.06 12 12 0 0 1 1.55-1.56 22.35 22.35 0 0 1 3-2.21 24 24 0 0 1 5.34-3.38c3.68-2.16 7.62-5.1 10.86-6.78 4.33-3.16 8.41-5.88 12-9.21.77-.28 2.15-1.32 2.9-1.57.76.17 0 .62-.12 1.19-1.94 1.4-2.86 2.52-4.63 3.91A11.93 11.93 0 0 0 70.32 86c-1.43.79-5.36 3.76-7 4.89a42.13 42.13 0 0 0-5.43 3.24l-7.56 4.59c-.66.43-1.16.95-1.8 1.39s-1.63.95-2.32 1.45a18.44 18.44 0 0 0-2.91 2.57 3.36 3.36 0 0 0-.55.82c0 .12-.07.23 0 .23h-.09.07c.06 0 0 0 0 0l.09.1c.95 1.14 1.92 2.27 2.75 3.37 1.78 2.36 3.46 5 5.1 7.49a38.74 38.74 0 0 0 5.16 6.76 21.13 21.13 0 0 0 2.43 1.77 16.68 16.68 0 0 0 2.74 1.64l.74-.69c3.82-3.69 7.29-6.25 10.77-10.81.28-.39.66-.86.45-.93a57.73 57.73 0 0 1 5.32-5.72c1.94-1.84 4-3.72 6.23-5.66s4.94-4 7.61-5.88c.89-.64 1.69-1.36 2.63-2a59 59 0 0 1 6-3.39l-.16.25a1.13 1.13 0 0 0-.42-.7 5.1 5.1 0 0 0-.74-.58 7.25 7.25 0 0 0-1.41-.72c-2.35-1.65-6.71-3.3-9.86-4.37a54.17 54.17 0 0 0-5.36-2.69 14.39 14.39 0 0 1-4.64-3.14z" fill-rule="evenodd"/><path d="M79.44 76.82a30.6 30.6 0 0 0-7.59 4.25c-1.43 1.09-2.77 2.31-4.25 3.34s-3.38 2-5.09 3a100.26 100.26 0 0 0-8.41 5.64c-3.8 2.74-12.68 6.2-11.4 8.22a108.59 108.59 0 0 0 17.62 20.06 1.6 1.6 0 0 0 1 .51 1.54 1.54 0 0 0 1-.49c6.54-5.49 11.9-12.23 18.12-18.08a88.15 88.15 0 0 1 20.69-14.51c1.21-1.4-14.39-8.12-21.59-12.17" fill="#ffa95c"/><path d="M79.4 76.78c.1-.46.7-.29 1-.77 2 1.19 2.65 1 3.6 2.07 2.64 1.18 4.91 2.33 6.83 3.4a45.56 45.56 0 0 1 5.72 2.61c.95.51 1.9 1 2.84 1.65a15.83 15.83 0 0 1 1.42 1 5.26 5.26 0 0 1 .73.65 2.23 2.23 0 0 1 .41.55 1.63 1.63 0 0 1 .16.6 1.32 1.32 0 0 1-.3.85.86.86 0 0 1-.27.2l-.25.12c-2.26 1.12-4.5 2.51-6.57 3.72-1.4.82-2.82 1.55-4.19 2.5-.76.54-1.37 1.1-2.12 1.64-1.17.84-2.47 1.53-3.64 2.48a74.89 74.89 0 0 0-6.49 6c-1.73 1.75-3.8 4.15-5 5.71-.82 1-1.91 2.06-2.83 3.1a30.1 30.1 0 0 1-2.9 3c-.64.54-.47.68-.73 1-.93.92-1.9 1.84-2.91 2.71l-.76.65a3 3 0 0 1-1.39.75 2 2 0 0 1-1.13-.11 2.63 2.63 0 0 1-.72-.42c-.36-.29-.53-.47-.78-.7-1.89-1.74-3.58-3.47-5-5s-2.89-3.43-4.3-5.13a92.13 92.13 0 0 0-6.13-8.42l-.85-1.12-.42-.55a1.27 1.27 0 0 1-.25-1 2.81 2.81 0 0 1 .82-1.31 9.54 9.54 0 0 1 1-.91 27.11 27.11 0 0 1 4-2.46c1.26-1.11 3.2-1.85 5.24-3.09 1.73-1.14 3.59-2.49 5.43-3.64a29.22 29.22 0 0 1 5.38-2.79c1.14-.65 2.25-1.28 3.27-2A34.55 34.55 0 0 0 70.26 82 78.39 78.39 0 0 1 76 77.5a31.45 31.45 0 0 1 3.09-1.07c.71.34-.11.61-.33 1.14A25.23 25.23 0 0 0 74 80.84 8.4 8.4 0 0 0 71.42 83c-.68.42-1.9 1.48-3.33 2.47a43.76 43.76 0 0 1-3.79 2.28c-1.79.49-3.19 1.45-5.41 2.79-1.15.68-2.34 1.43-3.54 2.23s-2.48 1.65-3.76 2.4c-.67.4-1.18.89-1.84 1.27s-1.68.81-2.41 1.23a23.85 23.85 0 0 0-3.13 2.19 2.72 2.72 0 0 0-.79 1h-.07s-.05 0 0 0h.07l.52.66L46 104c1.71 2.29 3.43 4.8 5.2 7.09s3.35 4.46 5.27 6.49c.57.6 1.51 1.32 2.18 2L60 121a4.16 4.16 0 0 0 .84.73 1 1 0 0 0 1-.07c3.94-3.4 6.45-6.75 10.36-10.83.3-.37.71-.8.51-.88A116 116 0 0 1 84.14 99a82.58 82.58 0 0 1 7.74-5.36c.9-.58 1.72-1.23 2.67-1.79 1.7-1 4.28-2.29 6.4-3.32l-.1.07a.8.8 0 0 0 0-.11 1.56 1.56 0 0 0-.25-.29 4.85 4.85 0 0 0-.63-.49 7.7 7.7 0 0 0-1.2-.65 42.43 42.43 0 0 0-9.44-4.69c-2.54-1.79-8.06-3.6-9.93-5.59z" fill-rule="evenodd"/><path d="M80.55 70.44C72 75.09 62.92 80.93 54.42 85.58c-2.18 1.2-14 6.36-12.13 8.48l6.13 9.84c2.94 4.72 6.12 9.66 11.07 12.17 3.31-2.75 7.16-4.82 10.35-7.71 1.67-1.51 3.14-3.23 4.75-4.8a70.79 70.79 0 0 1 6.24-5.23c6.69-5.19 13.52-10.33 21.32-13.66.37-2.5-15-8.7-21.6-14.23" fill="#ffa95c"/><path d="M80.43 70.62c.18-.43.75-.16 1.12-.59 1.81 1.5 2.48 1.38 3.33 2.53 2.55 1.45 4.8 2.73 6.7 3.91a52.92 52.92 0 0 1 5.87 3c1 .57 1.94 1.17 2.9 1.85a17.75 17.75 0 0 1 1.44 1.13 5.47 5.47 0 0 1 .7.73 2.43 2.43 0 0 1 .59 1.26 2.8 2.8 0 0 1 0 .41.83.83 0 0 1-.51.71 66.79 66.79 0 0 0-6.71 3.39c-1.45.8-2.92 1.51-4.34 2.45-.8.53-1.43 1.09-2.22 1.62-1.23.83-2.57 1.5-3.83 2.41-2.47 1.74-4.9 3.66-7.2 5.57a37.42 37.42 0 0 0-3 2.74c-.94 1-1.78 2-2.43 2.78a29.92 29.92 0 0 1-3.08 3.09 20.84 20.84 0 0 1-3.42 2.71c-.73.45-.59.61-.91.92-1.77 1.26-3.59 2.5-5.19 3.81a1.19 1.19 0 0 1-1.31.14 20.41 20.41 0 0 1-6.72-5.93 62.63 62.63 0 0 1-3.7-5.83c-1.33-3.35-4-7.38-6.6-11.1v.06a1.23 1.23 0 0 1-.31-.8 1.54 1.54 0 0 1 .18-.75 4.1 4.1 0 0 1 .73-1 12 12 0 0 1 1.67-1.43 25.09 25.09 0 0 1 3.21-2c1.31-1.13 3.3-1.9 5.6-2.93 3.85-1.85 8-4.46 11.39-5.86 4.57-2.8 8.86-5.18 12.72-8.2.79-.22 2.25-1.14 3-1.33.74.24 0 .63-.22 1.18-2 1.24-3.06 2.27-4.93 3.52a12.21 12.21 0 0 0-3 1.91c-1.49.67-5.65 3.31-7.4 4.3A42.55 42.55 0 0 0 59 83.79l-7.91 4c-.69.37-1.23.84-1.9 1.23s-1.71.81-2.44 1.26a19.14 19.14 0 0 0-3.11 2.32 3.36 3.36 0 0 0-.61.77c-.06.12-.09.22-.07.23h-.1.07l.08.1c.86 1.22 1.72 2.43 2.46 3.59 1.59 2.5 3 5.3 4.47 7.89a39.46 39.46 0 0 0 4.59 7.16 22.57 22.57 0 0 0 2.28 2 17.34 17.34 0 0 0 2.65 1.89l.79-.63c4.12-3.36 7.79-5.63 11.62-9.88.31-.37.73-.81.53-.89a56.45 56.45 0 0 1 5.77-5.27c2.09-1.67 4.27-3.38 6.67-5.13S90.13 90.74 93 89c.94-.56 1.79-1.21 2.79-1.76a58.57 58.57 0 0 1 6.21-2.85l-.18.24a1.09 1.09 0 0 0-.36-.73 4.64 4.64 0 0 0-.69-.64 7.23 7.23 0 0 0-1.34-.83C97.24 80.59 93 78.59 90 77.26a54.63 54.63 0 0 0-5.12-3.11 14.53 14.53 0 0 1-4.45-3.53z" fill-rule="evenodd"/><path d="M88.76 116.88l-5.49-1.15a5.52 5.52 0 0 0-1.81-.18c-1.54.19-2.65 1.59-3.3 3a12.63 12.63 0 0 0-1.07 6.83 2 2 0 0 0 .28.92 2.22 2.22 0 0 0 1.22.73 62.53 62.53 0 0 0 6.72 1.74c1.58.32 3.55.44 4.48-.87a4.22 4.22 0 0 0 .58-1.46 50.08 50.08 0 0 0 1-5.17 6.23 6.23 0 0 0-.09-2.85c-.35-.9-2.52-1.54-2.52-1.54z" fill="#feffcc"/><path d="M88.72 117.08c.07-.45.31-.53.49-1 .72.33 1.05 0 1.25.68a2.87 2.87 0 0 1 1.34.92 1.55 1.55 0 0 1 .25.48 1.73 1.73 0 0 1 .09.34 2.94 2.94 0 0 1 .06.64 4.07 4.07 0 0 1 .21 2.19c-.1.68-.27 1.35-.43 2s-.23 1.62-.46 2.35c-.17.5-.44.92-.6 1.46a3.7 3.7 0 0 1-.31 1 3.19 3.19 0 0 1-1.44 1 6.05 6.05 0 0 1-2.94.36 19.58 19.58 0 0 0-2.42-.15 9.66 9.66 0 0 1-1.29-.22 3.66 3.66 0 0 1-1.28-.25c-.23-.12-.28.08-.43.12a18.6 18.6 0 0 1-2.35-.67 5.43 5.43 0 0 1-1.28-.6 2.39 2.39 0 0 1-1-1.46 4.54 4.54 0 0 1 0-1.22l.09-1.09a8.48 8.48 0 0 0 .78-3.23 7 7 0 0 1 .91-3.1c0-.65.55-1.17 1.26-1.69a4.13 4.13 0 0 1 2.19-.88 3.09 3.09 0 0 1 1.93.6c1.59.25 3 .73 4.59.33.19.24.72.26.89.5 0 .58-.22.49-.45.85-.72-.06-1.22.24-1.91.23a1.21 1.21 0 0 0-1.06-.06 13.44 13.44 0 0 0-2.48-.6 1.84 1.84 0 0 0-1.52-.58 2.24 2.24 0 0 0-1.94 1c-.13.18-.09.44-.18.63s-.35.4-.45.63a7.33 7.33 0 0 0-.32 1.1c-.16.62-.13 1.33-.23 1.9-.14.8-.46 1.63-.62 2.48-.07.41-.18.83-.25 1.25a1.41 1.41 0 0 0 .14 1.18c.16.21.54.24.79.36a6.05 6.05 0 0 0 1.17.53c1.57.34 2.9.25 4.58.65.14 0 .32 0 .34-.16a12 12 0 0 0 2.18.38 4.33 4.33 0 0 0 2-.28 2 2 0 0 0 .79-.61 4.05 4.05 0 0 0 .55-1.22c.1-.31.06-.64.14-1 .24-.88.91-2.37.65-3.08a3.47 3.47 0 0 0-.07-3 .76.76 0 0 0 0-.34c0-.14 0-.13-.08-.23a1.66 1.66 0 0 0-.59-.5c-.49-.23-1.06-.43-1.28-.92z" fill-rule="evenodd"/><path d="M93.7 83a39.76 39.76 0 0 0-13.41 17.68c-.84 3 17.54 1.22 26.17 2.83s17.33 5.18 22.74 12.1a2 2 0 0 0 1 .8 1.9 1.9 0 0 0 1.53-.53 101 101 0 0 0 14.89-13.52c.93-1.35-5.21-6.88-9-9a87.42 87.42 0 0 0-11.92-4.93c-5.1-1.92-10.11-4.14-15.39-5.48s-11.42-1.7-16.59 0" fill="#feffcc"/><path d="M93.79 83.16c-.28-.39.29-.72.15-1.26l2.64-.71a4 4 0 0 1 1.88 0 24.19 24.19 0 0 1 8.22.25c4.56.22 9 2 13.38 3.8 2.5 1 5.13 2 7.49 2.88 1.62.65 3.15 1.38 4.8 2 .93.38 1.79.63 2.7 1.06a31 31 0 0 1 4 2.51 43.49 43.49 0 0 1 3.75 2.89 25.47 25.47 0 0 1 3.4 3.42 9 9 0 0 1 .66 1 3.36 3.36 0 0 1 .26.66 1.21 1.21 0 0 1-.12 1l-3.8 4.38c-.92 1.06-2.13 2.08-3.17 3.11a29.21 29.21 0 0 1-3.32 3c-.71.52-.56.66-.86 1-1.06.89-2.16 1.76-3.28 2.6a5.31 5.31 0 0 1-1.14.69 2.62 2.62 0 0 1-.95.2 2.22 2.22 0 0 1-1.08-.27 3.57 3.57 0 0 1-1.1-1l-.61-.75a28.8 28.8 0 0 0-5.12-4.82 32.33 32.33 0 0 0-5.85-3.52c-2.52-1.7-6.39-2.85-10.24-3.42s-7.72-.29-10.53-.47a31.34 31.34 0 0 1-6.49 0c-1.62-.09-3.32-.16-5-.34a18.46 18.46 0 0 1-2.54-.43 5.27 5.27 0 0 1-1.27-.49 1.87 1.87 0 0 1-.61-.56 1.32 1.32 0 0 1-.18-.47 2.7 2.7 0 0 1 0-.49 20.06 20.06 0 0 1 1.62-3c2.37-5 5.66-9 9-12.86a33.87 33.87 0 0 1 2.84-1.93c.79.11 0 .63 0 1.21a31 31 0 0 0-4.09 4.57A9.58 9.58 0 0 0 87 91.26a20.81 20.81 0 0 0-2.43 3.35c-.89 1.44-1.65 3-2.1 3.9a11.66 11.66 0 0 0-1.47 2.42v-.07h-.11c-.11 0 0 0 0 0a1.88 1.88 0 0 0 .51.28 9.23 9.23 0 0 0 1.75.45 49.22 49.22 0 0 0 9 .67c.81 0 1.53-.18 2.34-.2s2 .13 2.86.14h4.18c1.18 0 2.39.08 3.61.18a28 28 0 0 1 3.5.52 37.35 37.35 0 0 1 8.92 3.29 36.84 36.84 0 0 1 7.3 5.1 28.41 28.41 0 0 1 2.37 2 20.14 20.14 0 0 1 1.35 1.64c.23.31.47.63.71.93a1.2 1.2 0 0 0 1 .55 3.25 3.25 0 0 0 1.72-1l1.49-1.24c1-.83 1.89-1.66 2.82-2.52 1.84-1.72 3.69-3.51 5.81-5.59.33-.38.77-.81.57-.9 1.08-1.06 2.14-2.18 3.22-3.39l.15.22h-.25a.63.63 0 0 0 0-.12 1.77 1.77 0 0 0-.22-.47 7.62 7.62 0 0 0-.76-1 21.73 21.73 0 0 0-2-2 38.19 38.19 0 0 0-4.73-3.74 49.07 49.07 0 0 0-8.71-4.31c-1-.41-2.1-.67-3.19-1.09-3-1.14-7.88-3.55-10.15-4a27.7 27.7 0 0 0-5.1-1.75 26 26 0 0 0-5.62-.76 17.8 17.8 0 0 0-6-.29c-2.11.15-4.16.65-5.55.7z" fill-rule="evenodd"/><path d="M95.13 111.8l-5.45 1.34a5.39 5.39 0 0 0-1.71.62c-1.31.84-1.7 2.58-1.68 4.13a12.61 12.61 0 0 0 2 6.62 1.93 1.93 0 0 0 .65.71 2.22 2.22 0 0 0 1.42.13 63 63 0 0 0 6.8-1.35c1.57-.4 3.39-1.14 3.66-2.73a4.39 4.39 0 0 0-.11-1.57 47.58 47.58 0 0 0-1.36-5.08 6.15 6.15 0 0 0-1.35-2.5c-.64-.68-2.87-.32-2.87-.32z" fill="#feffcc"/><path d="M95.17 112c-.13-.43.06-.61 0-1.16.8 0 1-.42 1.43.08a2.82 2.82 0 0 1 1.6.24 2 2 0 0 1 .44.32 1.89 1.89 0 0 1 .23.28 3.92 3.92 0 0 1 .33.54 4.1 4.1 0 0 1 1.13 1.89c.2.66.34 1.34.5 2s.49 1.56.59 2.31c.07.53 0 1 .09 1.58a3.5 3.5 0 0 1 .14 1 3.06 3.06 0 0 1-.89 1.48 6 6 0 0 1-2.49 1.6 21.6 21.6 0 0 0-2.24.91 10.17 10.17 0 0 1-1.26.36 3.42 3.42 0 0 1-1.26.33c-.26 0-.22.2-.34.3a19.73 19.73 0 0 1-2.4.41 5.5 5.5 0 0 1-1.42 0 2.37 2.37 0 0 1-1.51-.89 4.25 4.25 0 0 1-.54-1.1l-.39-1a8.69 8.69 0 0 0-.7-3.25 7.22 7.22 0 0 1-.52-3.19c-.3-.58 0-1.29.4-2.06a4.06 4.06 0 0 1 1.6-1.74 3 3 0 0 1 2-.3c1.55-.46 3-.64 4.28-1.69.27.13.76-.08 1 .07.27.51 0 .53 0 1-.68.26-1 .74-1.63 1a1.21 1.21 0 0 0-1 .4 14.32 14.32 0 0 0-2.49.54 1.81 1.81 0 0 0-1.62.14 2.23 2.23 0 0 0-1.32 1.76c0 .22.12.44.12.65s-.15.51-.14.76a7.83 7.83 0 0 0 .19 1.13c.13.63.46 1.25.62 1.81.22.78.29 1.67.51 2.51.11.4.2.82.32 1.24a1.37 1.37 0 0 0 .63 1c.24.12.59 0 .87 0a6.3 6.3 0 0 0 1.29 0c1.55-.37 2.72-1 4.4-1.39.14-.07.31-.1.24-.3a11.35 11.35 0 0 0 2.13-.6 4.2 4.2 0 0 0 1.71-1.13 1.88 1.88 0 0 0 .45-.89 4.07 4.07 0 0 0 0-1.34c0-.32-.22-.6-.29-.93-.16-.9-.21-2.52-.74-3a3.44 3.44 0 0 0-1.38-2.7.76.76 0 0 0-.11-.32c-.08-.13-.07-.12-.17-.18a1.84 1.84 0 0 0-.76-.12 2.43 2.43 0 0 1-1.63-.36z" fill-rule="evenodd"/><path d="M103.66 122.48l-5.56-.77a5.57 5.57 0 0 0-1.82-.06c-1.53.29-2.53 1.77-3.09 3.22a12.64 12.64 0 0 0-.6 6.89 2 2 0 0 0 .34.89 2.19 2.19 0 0 0 1.27.65 63.47 63.47 0 0 0 6.82 1.28c1.6.21 3.57.2 4.42-1.18a4.19 4.19 0 0 0 .47-1.49 48.25 48.25 0 0 0 .62-5.22 6.13 6.13 0 0 0-.29-2.83c-.37-.86-2.58-1.38-2.58-1.38z" fill="#feffcc"/><path d="M103.63 122.69c0-.46.28-.55.42-1.09.74.29 1 0 1.29.6a2.83 2.83 0 0 1 1.4.83 1.94 1.94 0 0 1 .29.45c0 .14.08.23.11.34a2.94 2.94 0 0 1 .1.63 4 4 0 0 1 .35 2.18c0 .68-.18 1.37-.28 2.06s-.12 1.63-.31 2.37c-.13.52-.37.95-.5 1.5a3.27 3.27 0 0 1-.24 1 3 3 0 0 1-1.37 1.05 5.87 5.87 0 0 1-2.91.56 19.24 19.24 0 0 0-2.42 0 9.54 9.54 0 0 1-1.3-.13 3.65 3.65 0 0 1-1.3-.17c-.24-.1-.27.11-.42.16a18.64 18.64 0 0 1-2.38-.52 4.87 4.87 0 0 1-1.32-.51 2.33 2.33 0 0 1-1.08-1.38 4.63 4.63 0 0 1-.1-1.22v-1.09a8.66 8.66 0 0 0 .56-3.28 7.06 7.06 0 0 1 .7-3.16c-.07-.65.47-1.2 1.13-1.77a4.24 4.24 0 0 1 2.13-1 3.1 3.1 0 0 1 2 .46c1.61.15 3 .52 4.6 0 .21.22.73.21.92.44.07.58-.19.5-.38.88-.73 0-1.21.32-1.89.36a1.21 1.21 0 0 0-1.07 0 13.39 13.39 0 0 0-2.51-.43 1.81 1.81 0 0 0-1.56-.47 2.22 2.22 0 0 0-1.87 1.15c-.11.19-.06.45-.14.65s-.32.42-.4.65a7.53 7.53 0 0 0-.24 1.12c-.12.64 0 1.33-.1 1.91-.09.81-.35 1.66-.45 2.52 0 .41-.13.84-.17 1.27a1.41 1.41 0 0 0 .22 1.16c.17.2.55.21.81.31a6.1 6.1 0 0 0 1.21.45c1.58.23 2.91.05 4.61.34.14 0 .32 0 .33-.19a11.11 11.11 0 0 0 2.2.23 4.46 4.46 0 0 0 2-.41 2.06 2.06 0 0 0 .75-.67 4.24 4.24 0 0 0 .46-1.25c.07-.31 0-.64.08-1 .18-.9.74-2.42.43-3.11a3.45 3.45 0 0 0-.27-3 .78.78 0 0 0 0-.34.41.41 0 0 0-.1-.23 1.77 1.77 0 0 0-.66-.39c-.52-.19-1.11-.35-1.36-.82z" fill-rule="evenodd"/><path d="M92.32 125.45l-5.6.39a5.4 5.4 0 0 0-1.79.32c-1.43.6-2.11 2.25-2.36 3.79a12.59 12.59 0 0 0 .83 6.86 2.07 2.07 0 0 0 .51.81 2.27 2.27 0 0 0 1.38.36 64.25 64.25 0 0 0 6.94-.14c1.61-.13 3.53-.55 4.08-2.07a4.07 4.07 0 0 0 .15-1.56A48.14 48.14 0 0 0 96 129a6.27 6.27 0 0 0-.87-2.72c-.55-.8-2.81-.83-2.81-.83z" fill="#feffcc"/><path d="M92.33 125.66c-.06-.45.16-.6.19-1.15.78.13 1-.24 1.39.32a2.81 2.81 0 0 1 1.53.52 1.57 1.57 0 0 1 .38.39 2 2 0 0 1 .18.31 3.12 3.12 0 0 1 .23.59 4 4 0 0 1 .77 2.06c.1.68.11 1.37.15 2.08s.22 1.62.19 2.38c0 .53-.17 1-.18 1.57a3.49 3.49 0 0 1 0 1 3.06 3.06 0 0 1-1.16 1.32 6 6 0 0 1-2.73 1.15 20.26 20.26 0 0 0-2.37.51 9.07 9.07 0 0 1-1.3.14 3.59 3.59 0 0 1-1.3.11c-.26-.05-.25.16-.38.23a16.55 16.55 0 0 1-2.44 0 5.59 5.59 0 0 1-1.4-.22 2.34 2.34 0 0 1-1.33-1.14 4.16 4.16 0 0 1-.35-1.17c-.07-.37-.14-.72-.21-1.07a8.6 8.6 0 0 0-.13-3.33 7 7 0 0 1 0-3.23c-.21-.62.21-1.27.74-2a4.15 4.15 0 0 1 1.87-1.45 3.12 3.12 0 0 1 2 0c1.61-.19 3.08-.11 4.51-.93.25.18.76 0 1 .24.17.55-.09.53-.2.94-.72.14-1.12.56-1.78.74a1.24 1.24 0 0 0-1 .23 14 14 0 0 0-2.55.1 1.82 1.82 0 0 0-1.62-.14 2.22 2.22 0 0 0-1.59 1.51c-.07.22 0 .46 0 .67s-.23.48-.26.72a7.11 7.11 0 0 0 0 1.14c0 .65.24 1.32.3 1.9.08.8 0 1.69.08 2.55 0 .41 0 .85.1 1.28a1.38 1.38 0 0 0 .45 1.09c.21.15.58.09.85.13a6.87 6.87 0 0 0 1.28.2c1.6-.11 2.86-.56 4.58-.62.14 0 .32 0 .28-.25a12.15 12.15 0 0 0 2.2-.23 4.37 4.37 0 0 0 1.88-.82 1.92 1.92 0 0 0 .6-.81A3.94 3.94 0 0 0 96 134c0-.32-.12-.63-.13-1 0-.92.23-2.53-.21-3.14a3.42 3.42 0 0 0-.89-2.89.66.66 0 0 0-.06-.34c0-.14 0-.13-.13-.21a1.9 1.9 0 0 0-.73-.24 2.44 2.44 0 0 1-1.52-.52z" fill-rule="evenodd"/><path d="M105.73 127.38l5.59-.45a5.55 5.55 0 0 1 1.82 0c1.51.38 2.43 1.91 2.9 3.4a12.64 12.64 0 0 1 .2 6.9 2.07 2.07 0 0 1-.39.88 2.24 2.24 0 0 1-1.31.57 63.44 63.44 0 0 1-6.88.89c-1.61.12-3.58 0-4.34-1.44a4.1 4.1 0 0 1-.38-1.52 45.92 45.92 0 0 1-.32-5.24 6.12 6.12 0 0 1 .45-2.82c.43-.8 2.66-1.17 2.66-1.17z" fill="#feffcc"/><path d="M105.69 127.17c.1.44 0 .62.06 1.16-.66.07-.65.51-1.15.16a4.41 4.41 0 0 0-.72.49l-.1.17c-.07.12-.13.25-.19.38a9.67 9.67 0 0 1 .11 1.75c0 .65 0 1.32-.06 2s.16 1.56.16 2.29a10.57 10.57 0 0 0-.06 1.47 2.77 2.77 0 0 0 .24.62c.08.27.08.69.39.94a3.84 3.84 0 0 0 2.34.56 7.75 7.75 0 0 0 2.26-.45 12.06 12.06 0 0 1 1.25-.21 3.58 3.58 0 0 1 1.24-.24c.26 0 .22-.19.34-.28 1.42-.32 3.62-.53 3.37-.61a4.26 4.26 0 0 0 .38-.75 6.17 6.17 0 0 0 .3-.92 3.39 3.39 0 0 0 .37-3c-.28-1.09-.81-2.07-1-2.78-.5-.28-.57-.84-.93-1.38a2.58 2.58 0 0 0-1.27-1c-.5-.18-1.12-.23-1.69-.43-1.59.2-3.08.14-4.44 1-.26-.17-.76 0-1-.23-.23-.54 0-.53.11-.93.71-.15 1.08-.58 1.75-.76a1.22 1.22 0 0 0 1-.24 15.49 15.49 0 0 0 2.59-.13c.6.4 1.21.18 2.16.6a6.1 6.1 0 0 1 2.15 2.07c.16.21.42.32.56.54a4.54 4.54 0 0 1 .28.86c.16.37.35.72.51 1.18a9.76 9.76 0 0 1 .65 2.12 7.1 7.1 0 0 1-.48 2.88 6.18 6.18 0 0 1-.58 1.25 2.59 2.59 0 0 1-.88 1.08 2.31 2.31 0 0 1-.84.43 9.81 9.81 0 0 0-1.29.08 25.76 25.76 0 0 1-4.52 1.14c-.14 0-.32.06-.28.26-.75 0-1.53.14-2.41.12a4.6 4.6 0 0 1-2.8-.83 2.73 2.73 0 0 1-1-1.52 8.13 8.13 0 0 1-.13-1.58c0-.33-.16-.64-.18-1-.06-1 .26-2.55-.1-3.21.28-.88 0-2.22.06-3.45a2.75 2.75 0 0 0 .28-.37 2.69 2.69 0 0 1 .39-.49 4.12 4.12 0 0 1 1-.65 1.9 1.9 0 0 1 1.8-.16z" fill-rule="evenodd"/><path d="M86 78.12A39.7 39.7 0 0 0 72.61 95.8c-.84 3 17.54 1.22 26.17 2.83s17.33 5.18 22.73 12.1a2 2 0 0 0 .95.8A1.91 1.91 0 0 0 124 111a111.66 111.66 0 0 0 15.83-14c.93-1.35-6.15-6.38-9.91-8.47S122 85.08 118 83.56c-5.1-1.91-10.11-4.13-15.39-5.47s-11.43-1.7-16.59 0" fill="#feffcc"/><path d="M86.11 78.32c-.29-.39.29-.72.16-1.26 1.26-.35 2-.56 2.65-.72a4.17 4.17 0 0 1 1.9 0 24.49 24.49 0 0 1 8.28.27c4.61.24 9.05 2.07 13.49 3.87 2.52 1 5.16 2 7.56 2.9 1.63.65 3.17 1.39 4.84 2.07.93.38 1.8.64 2.71 1.08a40.92 40.92 0 0 1 4.07 2.47q2 1.27 3.92 2.68a27.58 27.58 0 0 1 3.65 3.1 6.35 6.35 0 0 1 .7.86 2.4 2.4 0 0 1 .29.6 1.08 1.08 0 0 1-.09 1c-1.39 1.61-2.95 3.32-4 4.51s-2.19 2.07-3.26 3.09a30.56 30.56 0 0 1-3.37 3c-.72.51-.57.66-.88 1-1.06.89-2.17 1.76-3.3 2.61l-.87.65a3.37 3.37 0 0 1-1.47.62 2.22 2.22 0 0 1-1.1-.13 2.33 2.33 0 0 1-.82-.53 9.76 9.76 0 0 1-.77-.9 29 29 0 0 0-5-5 31.1 31.1 0 0 0-5.84-3.65 26.35 26.35 0 0 0-10.3-3.53c-3.87-.6-7.78-.35-10.6-.55a31.22 31.22 0 0 1-6.55 0c-1.67-.09-3.41-.16-5.15-.34a18.17 18.17 0 0 1-2.61-.42 5.68 5.68 0 0 1-1.35-.46 1.92 1.92 0 0 1-.63-.56 1.25 1.25 0 0 1-.19-.47 1.67 1.67 0 0 1 0-.5 21.05 21.05 0 0 1 1.54-2.85c2.38-5.11 5.69-9.06 9-13a32.28 32.28 0 0 1 2.87-2c.79.1 0 .63-.06 1.21a30.91 30.91 0 0 0-4.12 4.61 9.6 9.6 0 0 0-2.19 2.82 21.28 21.28 0 0 0-2.44 3.38c-.89 1.45-1.65 3-2.09 3.94a11.13 11.13 0 0 0-1.32 2.28V96h-.12c-.06 0 0 0 0 0h.08c.01 0 0 0 0 0a1.82 1.82 0 0 0 .57.3 11.5 11.5 0 0 0 1.88.46 53.09 53.09 0 0 0 9.06.64c.83 0 1.55-.18 2.36-.19s2 .13 2.89.14h4.22c1.18 0 2.41.08 3.64.2a30.1 30.1 0 0 1 3.52.57 36.82 36.82 0 0 1 9 3.41 35.72 35.72 0 0 1 7.29 5.26 24.62 24.62 0 0 1 2.34 2.11 19.84 19.84 0 0 1 1.32 1.68 3 3 0 0 0 .8.86 1.11 1.11 0 0 0 1.1 0 31.33 31.33 0 0 0 3.12-2.46c1-.83 1.92-1.67 2.86-2.52 1.88-1.72 3.78-3.5 6-5.56.34-.37.79-.8.59-.89 1.15-1.1 2.28-2.26 3.41-3.52l.17.23h-.23c-.14 0 0 0 0-.09a2.76 2.76 0 0 0-.26-.44 9.32 9.32 0 0 0-.87-.94 24.09 24.09 0 0 0-2.13-1.81 59.028 59.028 0 0 0-5-3.45 48.31 48.31 0 0 0-8.78-4.39c-1-.42-2.11-.68-3.22-1.1-3-1.14-8-3.58-10.23-4a29 29 0 0 0-5.13-1.79 26.47 26.47 0 0 0-5.68-.78 18 18 0 0 0-6.06-.31c-2.31.14-4.37.64-5.77.7z" fill-rule="evenodd"/><path d="M87.5 73.07a39.61 39.61 0 0 0-13.4 17.68c-.85 3 17.54 1.22 26.16 2.83s17.33 5.18 22.74 12.1a2 2 0 0 0 1 .8 1.9 1.9 0 0 0 1.53-.53 101.59 101.59 0 0 0 14.89-13.52c.93-1.35-5.21-6.89-9-9s-7.89-3.42-11.92-4.94c-5.1-1.91-10.11-4.13-15.39-5.47s-11.42-1.7-16.59 0" fill="#feffcc"/><path d="M87.59 73.27c-.28-.39.29-.72.15-1.26 1.26-.34 2-.56 2.64-.71a3.83 3.83 0 0 1 1.88 0 24.47 24.47 0 0 1 8.22.24c4.56.22 9 2 13.38 3.81 2.5 1 5.13 2 7.49 2.88 1.62.64 3.15 1.38 4.8 2 .93.38 1.79.62 2.7 1.05a32.25 32.25 0 0 1 4.05 2.52 41.58 41.58 0 0 1 3.75 2.89 24.89 24.89 0 0 1 3.35 3.39 9 9 0 0 1 .66 1 2.84 2.84 0 0 1 .26.66 1.21 1.21 0 0 1-.12 1c-1.39 1.58-2.8 3.26-3.8 4.4s-2.13 2.09-3.17 3.12a29.28 29.28 0 0 1-3.32 3c-.7.52-.56.67-.86 1-1.06.89-2.16 1.76-3.28 2.59a5.29 5.29 0 0 1-1.14.7 2.84 2.84 0 0 1-1 .2 2.34 2.34 0 0 1-1.08-.27 3.58 3.58 0 0 1-1.1-1l-.61-.74a28.11 28.11 0 0 0-5.12-4.82 32.33 32.33 0 0 0-5.85-3.52c-2.52-1.7-6.39-2.85-10.24-3.42s-7.72-.29-10.53-.47a31.34 31.34 0 0 1-6.49 0c-1.62-.1-3.32-.17-5-.35a17 17 0 0 1-2.54-.42 5.47 5.47 0 0 1-1.26-.49 1.8 1.8 0 0 1-.62-.56 1.32 1.32 0 0 1-.18-.47 2.56 2.56 0 0 1 0-.49 20.06 20.06 0 0 1 1.62-3c2.37-5 5.66-9 9-12.86.73-.43 2.08-1.62 2.84-1.94.79.12 0 .64 0 1.21a31.56 31.56 0 0 0-4.09 4.58 9.45 9.45 0 0 0-2.17 2.79 21.1 21.1 0 0 0-2.43 3.34c-.89 1.44-1.65 3-2.09 3.9A11.58 11.58 0 0 0 74.84 91v-.07h-.11c-.11 0 0 0 0 0a1.88 1.88 0 0 0 .51.28 11 11 0 0 0 1.75.45 49.22 49.22 0 0 0 9 .67c.81 0 1.53-.18 2.34-.2s2 .13 2.86.14h4.18c1.18 0 2.4.07 3.61.17a29.93 29.93 0 0 1 3.5.53 37.35 37.35 0 0 1 8.92 3.29 36.84 36.84 0 0 1 7.3 5.1 26.65 26.65 0 0 1 2.37 2 18.55 18.55 0 0 1 1.35 1.64l.71.93a1.22 1.22 0 0 0 1 .55 3.31 3.31 0 0 0 1.72-1l1.49-1.24c1-.83 1.89-1.66 2.82-2.52 1.85-1.72 3.69-3.52 5.81-5.6.33-.37.77-.8.57-.89 1.08-1.07 2.14-2.18 3.22-3.39l.15.22a.2.2 0 0 0-.08 0h-.17a.66.66 0 0 0 0-.13 2.11 2.11 0 0 0-.22-.47 7.55 7.55 0 0 0-.76-1 23.14 23.14 0 0 0-2-2A40.16 40.16 0 0 0 132 84.7a49.73 49.73 0 0 0-8.71-4.3c-1-.41-2.1-.68-3.19-1.09-3-1.14-7.88-3.56-10.15-4a27.7 27.7 0 0 0-5.1-1.75 25.27 25.27 0 0 0-5.62-.76 17.8 17.8 0 0 0-6-.29c-2.23.21-4.23.71-5.64.76z" fill-rule="evenodd"/><path d="M105.34 71.55c-3.15 3.9-7.73 6.34-11.47 9.68A61.34 61.34 0 0 0 87 89c-5.31 6.72-10.82 13.94-11.7 22.44a1.78 1.78 0 0 0 1.53 2.37c6.58 1.84 13.51 1.94 20.35 2a3.54 3.54 0 0 0 1.17-.13 3.25 3.25 0 0 0 1.54-1.68c2.53-4.89 4.53-10 7-14.93S113 88.91 117.3 85.43c2.6-2.11 4.6-4.23 7-6.51a1.43 1.43 0 0 0 .6-1c0-.56-.14-.87-.66-1.08-6.15-2.41-12.75-3-19-5.25" fill="#feffcc"/><path d="M105.29 71.76c0-.47.63-.42.83-.94 2.09.79 2.64.49 3.73 1.3 2.7.56 5.09 1.1 7.12 1.69a29.88 29.88 0 0 1 6.08 1.42c.51.16 1 .37 1.52.57a2.06 2.06 0 0 1 1.15 1 1.92 1.92 0 0 1 .21.71 2.49 2.49 0 0 1 0 .65 2.23 2.23 0 0 1-.64 1.26c-.27.27-.45.41-.65.59l-1.18 1.09c-1.79 1.66-3.57 3.56-5.46 5a24.79 24.79 0 0 0-3.49 3c-.61.65-1 1.32-1.6 2-.87 1.06-1.88 2-2.69 3.23a51.74 51.74 0 0 0-4.09 7.4c-1 2.13-2.12 5-2.76 6.79-.43 1.2-1.11 2.47-1.64 3.69-.21.51-.43 1-.71 1.65a6.12 6.12 0 0 1-1.37 2.14 10.13 10.13 0 0 1-.88.66 1.72 1.72 0 0 1-.63.34 5.92 5.92 0 0 1-1.14 0h-2.82c-1.27 0-2.53-.07-3.76-.13a61.16 61.16 0 0 1-6.75-.7 56.51 56.51 0 0 1-6.33-1.49l-1-.47a2.41 2.41 0 0 1-1.11-.88 2.26 2.26 0 0 1-.28-1.38c0-.45.12-.85.19-1.28a35.67 35.67 0 0 1 1.19-5.2 32.52 32.52 0 0 1 4.21-8.82 20.26 20.26 0 0 1 3.4-4.89c2.61-3.13 5.33-6.88 8.11-9 3.45-3.72 7.76-5.88 10.55-9.45a24 24 0 0 0 2.29-1.95c.76 0 .21.56.24 1.14a36.48 36.48 0 0 1-3.88 4.35 12.14 12.14 0 0 0-2.6 2.15 27 27 0 0 0-3.08 2.26A36.36 36.36 0 0 0 92.65 84c-1.48.94-2.47 2.26-4.13 4.13a63.71 63.71 0 0 0-5.22 6.4c-.41.61-.65 1.24-1 1.86s-1.06 1.42-1.48 2.11c-.59 1-1.12 2-1.71 3.32a34.7 34.7 0 0 0-2 5.86 40 40 0 0 0-.87 4 2.61 2.61 0 0 0 0 .76.51.51 0 0 0 .2.36 3 3 0 0 0 .79.35l1 .32a45.61 45.61 0 0 0 7.77 1.88c.8.1 1.93 0 2.84.13 1.07.09 2.7.31 4 .31s2.43 0 3.59-.08a9 9 0 0 0 1.68-.13 2 2 0 0 0 1.14-1c1-2 1.89-4.22 3-6.67.15-.42.39-.94.18-1 2-4.24 3.75-8.87 7-13.56a41 41 0 0 1 6-6.85c.76-.69 1.48-1.44 2.29-2.09 1.11-.91 2.61-2.17 4-3.42.69-.62 1.35-1.24 1.93-1.8a10.66 10.66 0 0 0 .76-.79c.2-.23.25-.45.2-.55a1.86 1.86 0 0 0 0-.41.37.37 0 0 0-.15-.27 1.53 1.53 0 0 0-.45-.23l-.56-.23a23.65 23.65 0 0 0-2.5-.8 37.79 37.79 0 0 0-5.13-1 39 39 0 0 0-5.44-1.4 14 14 0 0 1-5.09-1.75z" fill-rule="evenodd"/><path d="M102.32 68c-3.19 4-7.83 6.43-11.61 9.82a63 63 0 0 0-7 7.88c-5.36 6.82-10.95 14.15-11.83 22.78a2.35 2.35 0 0 0 .32 1.77 2.28 2.28 0 0 0 1.22.63c6.66 1.87 13.67 2 20.59 2.06a3.63 3.63 0 0 0 1.18-.13A3.32 3.32 0 0 0 96.8 111c2.56-5 4.58-10.19 7.12-15.16s5.66-9.76 10-13.3c2.63-2.14 5.66-3.79 8.14-6.11a1.45 1.45 0 0 0 .61-1c0-.57-.65-.89-1.17-1.09-6.22-2.45-12.9-4-19.16-6.33" fill="#feffcc"/><path d="M102.26 68.19c0-.46.64-.41.85-.92 2.12.84 2.7.58 3.78 1.44 2.72.73 5.1 1.47 7.11 2.21a37.89 37.89 0 0 1 6 1.73c.51.18 1 .38 1.51.58a7.36 7.36 0 0 1 .85.39 2.5 2.5 0 0 1 1 .91 1.82 1.82 0 0 1 .06 1.71 3.14 3.14 0 0 1-.74.93c-.43.37-.87.74-1.32 1.09-2 1.59-4.18 3-6.06 4.38a24.08 24.08 0 0 0-3.62 3c-.62.64-1.06 1.32-1.64 2a37 37 0 0 0-2.74 3.27 56.65 56.65 0 0 0-4.12 7.53c-1 2.16-2.15 5-2.81 6.89-.43 1.22-1.12 2.51-1.65 3.75-.22.52-.44 1.07-.72 1.68a7.52 7.52 0 0 1-1.31 2.16c-.38.38-.63.56-.8.72a1.73 1.73 0 0 1-.63.42 5.38 5.38 0 0 1-1.23.12h-2.92c-1.28 0-2.57-.06-3.81-.12a63.08 63.08 0 0 1-6.86-.7 58.79 58.79 0 0 1-6.43-1.5l-1-.47a2.65 2.65 0 0 1-1.14-.81 2.19 2.19 0 0 1-.36-1.41 9.24 9.24 0 0 1 .17-1.3 35.44 35.44 0 0 1 1.2-5.28 32.61 32.61 0 0 1 4.24-9 21 21 0 0 1 3.45-5c2.64-3.18 5.39-7 8.2-9.15 3.49-3.79 7.87-6 10.7-9.62a23.27 23.27 0 0 0 2.32-2c.76 0 .21.56.24 1.15a37.63 37.63 0 0 1-3.94 4.41 12.51 12.51 0 0 0-2.62 2.16 28.45 28.45 0 0 0-3.12 2.31 37.27 37.27 0 0 0-3 2.82c-1.5 1-2.5 2.31-4.18 4.21a64.67 64.67 0 0 0-5.17 6.5c-.42.62-.66 1.26-1 1.89s-1.07 1.45-1.5 2.15c-.59 1-1.12 2.08-1.72 3.37a34.86 34.86 0 0 0-2 6 39.6 39.6 0 0 0-.87 4 2.3 2.3 0 0 0 0 .73.49.49 0 0 0 .25.37 3.91 3.91 0 0 0 .84.34l1 .33a46.11 46.11 0 0 0 7.9 1.88c.81.11 2 .06 2.88.13 1.09.1 2.74.32 4.07.31s2.47 0 3.65-.08a6 6 0 0 0 1.68-.17 2.26 2.26 0 0 0 1.09-1.09c1-2.06 1.9-4.3 3-6.8.16-.43.4-1 .18-1 2-4.31 3.84-9 7-13.78a35.47 35.47 0 0 1 6.19-6.89A30.22 30.22 0 0 1 115 81c1.22-.88 2.95-1.88 4.49-2.94a18.5 18.5 0 0 0 2.07-1.65 2.3 2.3 0 0 0 .64-.76.37.37 0 0 0-.12-.46c-.18-.4-1-.7-1.8-1s-1.64-.62-2.52-.89a53.07 53.07 0 0 0-5.11-1.3c-2.65-1.29-8.29-2.16-10.39-3.81z" fill-rule="evenodd"/><path d="M75.18 136.79l5.45-1.35a5.75 5.75 0 0 0 1.71-.62c1.31-.84 1.69-2.58 1.67-4.14a12.67 12.67 0 0 0-2-6.62 2.08 2.08 0 0 0-.65-.7 2.22 2.22 0 0 0-1.42-.13 62.56 62.56 0 0 0-6.81 1.34c-1.57.4-3.39 1.14-3.66 2.73a4.39 4.39 0 0 0 .11 1.57 49.2 49.2 0 0 0 1.42 5.07 6.33 6.33 0 0 0 1.32 2.53c.68.68 2.86.32 2.86.32z" fill="#feffcc"/><path d="M75.13 136.58c.14.44 0 .62 0 1.17-.79 0-1 .41-1.42-.08a2.75 2.75 0 0 1-1.6-.25 2 2 0 0 1-.44-.31 2.6 2.6 0 0 1-.23-.28 3.2 3.2 0 0 1-.33-.55A4.07 4.07 0 0 1 70 134.4c-.21-.66-.34-1.34-.5-2s-.5-1.56-.6-2.31c-.07-.53 0-1-.1-1.58a3.9 3.9 0 0 1-.13-1 3.13 3.13 0 0 1 .88-1.49A6 6 0 0 1 72 124.4a19.73 19.73 0 0 0 2.25-.92 10 10 0 0 1 1.25-.36 3.48 3.48 0 0 1 1.27-.33c.26 0 .21-.2.33-.29a16.9 16.9 0 0 1 2.41-.42 5.41 5.41 0 0 1 1.41 0 2.27 2.27 0 0 1 1.51.89 4.45 4.45 0 0 1 .55 1.09l.38 1a8.71 8.71 0 0 0 .71 3.25 7.24 7.24 0 0 1 .52 3.2c.3.57 0 1.28-.4 2.06a4.12 4.12 0 0 1-1.6 1.74 3 3 0 0 1-2 .3c-1.55.46-3 .64-4.28 1.69-.28-.13-.76.08-1-.06-.27-.52 0-.54 0-1 .68-.26 1-.75 1.62-1a1.22 1.22 0 0 0 1-.4 14.52 14.52 0 0 0 2.49-.54 1.81 1.81 0 0 0 1.62-.14 2.22 2.22 0 0 0 1.31-1.77c0-.22-.11-.44-.11-.65s.14-.51.13-.75a7.61 7.61 0 0 0-.19-1.13c-.13-.64-.46-1.25-.62-1.82-.22-.78-.29-1.67-.52-2.5-.11-.4-.19-.82-.31-1.24a1.42 1.42 0 0 0-.64-1c-.23-.11-.59 0-.86 0a6.29 6.29 0 0 0-1.29 0c-1.56.37-2.72 1-4.41 1.4-.13.06-.3.1-.24.29a12.05 12.05 0 0 0-2.12.6 4.41 4.41 0 0 0-1.71 1.13 2 2 0 0 0-.45.9 4 4 0 0 0 0 1.33c0 .32.22.61.29.94.17.89.21 2.52.75 3.05a3.45 3.45 0 0 0 1.38 2.7.65.65 0 0 0 .11.32.33.33 0 0 0 .17.18 1.83 1.83 0 0 0 .75.11 2.46 2.46 0 0 1 1.67.33z" fill-rule="evenodd"/><path d="M101.16 53.53s-3.32 1.6-4.19 3.33c-2.18 4.31-.15 19.73-.14 19.88.07 3.88 3.21 3.41 3.21 3.41 1.64 0 3.09-.42 4.84-.52 2.19-.13 5-.31 7.12-1.49.09 0-.78-15.42-1.52-18.9-.19-.91-1.76-6.52-5.18-6.76-2.1-6.62-1.7-30 3.6-40.06.24-.46 2.73-.79 2.67-2.09 0-.5-3-6.39-4.51-7.16a7.05 7.05 0 0 0-5.81.42c-1.52.89-4.66 5.54-4.61 6.1.11 1.18 1.49 2.26 1.84 2.87 2.76 4.81 2.68 40.97 2.68 40.97z" fill="#fff"/><path d="M101.46 53.65c-.19 0-.28-.14-.42-.2a.76.76 0 0 1-.39-.17 1.86 1.86 0 0 0-1-.37c.11-2.87-.54-3.45.21-5.08a85.17 85.17 0 0 1-.17-9.26c-.82-5-.67-10.33-1-15.77-.09-1.53-.27-3.09-.48-4.6a40.18 40.18 0 0 0-.74-4.2 4.61 4.61 0 0 0-.16-.54.78.78 0 0 0-.16-.35c-.25-.35-.61-.78-.93-1.28a4.37 4.37 0 0 1-.73-2 1.85 1.85 0 0 1 .09-.66l.12-.27c.08-.17.14-.27.22-.41l.43-.71a24.22 24.22 0 0 1 1.89-2.88 9.52 9.52 0 0 1 2.22-1.95 8.49 8.49 0 0 1 3-.86 7.81 7.81 0 0 1 3 .11 3.43 3.43 0 0 1 1.51.74 8.37 8.37 0 0 1 1 1.12 33.5 33.5 0 0 1 2.83 4.74 11.8 11.8 0 0 1 .51 1.15 1.79 1.79 0 0 1-.64 1.91 5.21 5.21 0 0 1-1.26.76l-.56.26-.2.11a.55.55 0 0 0 .1-.11v-.06.07l-.05.14-.11.27q-.1.28-.21.54c-.13.36-.27.7-.38 1-.2.71-.36 1.36-.5 1.93-.31 1.53-.9 3.19-1.15 4.82-.12.66-.16 1.38-.27 2.19s-.24 1.7-.46 2.75.11 1 .16 1.5a166.51 166.51 0 0 0-.8 17.6 31.68 31.68 0 0 0 .52 6.4l-1-.8c.31.06.61.11.9.19a6.77 6.77 0 0 1 .82.36 7.79 7.79 0 0 1 2 2.56 18.73 18.73 0 0 1 1.25 3c.18.53.34 1.05.48 1.62s.2 1.12.29 1.68c.16 1.11.32 2.25.48 3.37a105.82 105.82 0 0 1 1.32 12.22 7.61 7.61 0 0 1 .33 1.62v.2a2 2 0 0 1-.12.45 1.58 1.58 0 0 1-.53.65l-.22.13a4.73 4.73 0 0 1-.45.23 7.38 7.38 0 0 1-1 .38 17.33 17.33 0 0 1-4.37.62h-1.63c-.51 0-1 .06-1.55.12a29.1 29.1 0 0 1-3.38.3h.13a3.92 3.92 0 0 1-1.55-.16 3.62 3.62 0 0 1-1.35-.76 3.93 3.93 0 0 1-1.13-2.54 38.84 38.84 0 0 1 0-4.22c-.36-3.17-.53-6.23-.61-9.23v-4.48a15.75 15.75 0 0 1 .24-2.32 7 7 0 0 1 .37-1.26 6 6 0 0 1 .7-1.16c1-.61 2.71-1.85 3.72-2 .12.06.24.11.27.19s0 .24 0 .25.1.18 0 .3a2.68 2.68 0 0 0-.46 1A6.35 6.35 0 0 0 98.23 57a1.66 1.66 0 0 0-.15.55c0 .21-.07.43-.1.65 0 .52-.09 1-.1 1.64a7.73 7.73 0 0 0 0 4 26.56 26.56 0 0 0 0 4.8c.12 2 .34 4 .43 5.16a15.26 15.26 0 0 0-.18 3.4 2.61 2.61 0 0 0 .34 1.23 1.55 1.55 0 0 0 1 .68c.13 0 .34 0 .41.05h.12c1.39.09 3-.19 4.73-.23a17.73 17.73 0 0 0 4.84-.58 4.46 4.46 0 0 0 1.14-.55c.18-.11.34-.23.5-.35l.24-.17.48.88v-.1l-.25-.36a3 3 0 0 0-.26-.3.79.79 0 0 0-.32.38c-.1.44 0 .2-.07.18-.08-1 0-2.24 0-3.26-.12-1.48-.35-3-.55-4.75-.31-2.67-.86-5.49-1.17-8-.1-.85-.21-1.74-.32-2.46a16.43 16.43 0 0 0-.67-2.33c-.55-1.52-1.37-3-2.49-3.49-.16-.08-.33-.1-.49-.17l-.48-.19a.7.7 0 0 1-.4-.49c-.62-3.35-.29-6.49-.27-9.64 0-1-.2-2.44-.17-3.6.07-1.37.36-3.42.41-5.08.1-3.15.12-6 .39-8.94a41 41 0 0 1 1.75-9.3c.15-.57.41-1.26.08-1.28a21.2 21.2 0 0 1 .92-2.16l.25-.53.13-.27V11.9l.09-.15a1.74 1.74 0 0 1 .22-.24l.14-.11a4 4 0 0 1 .74-.38l.52-.22a2.75 2.75 0 0 0 .73-.4s.07 0 .07-.07l.08.05h.14-.1.83-.22a3 3 0 0 0-.43.05h-.32v-.1l-.1-.22-.34-.4c-.16-.34-.34-.68-.52-1a26.45 26.45 0 0 0-2.46-3.89 4 4 0 0 0-.33-.36l-.15-.14s-.06 0-.07-.07a3.66 3.66 0 0 0-.84-.25 6.29 6.29 0 0 0-2.16 0 4.7 4.7 0 0 0-2.05.77 14.63 14.63 0 0 0-1.84 1.85 25.67 25.67 0 0 0-1.69 2.2c-.13.19-.25.38-.37.57l-.14.25v.09a1.31 1.31 0 0 0-.27-.06 1.42 1.42 0 0 0-.29 0l.59-.05a2 2 0 0 0 .42 1 5.18 5.18 0 0 0 .58.69 7.3 7.3 0 0 1 .72.82 6.8 6.8 0 0 1 .8 2c.83 3.76.57 10 1.28 12.64a69 69 0 0 0 .79 12.94 39.39 39.39 0 0 0-.06 7.11c0 1.3.08 2.58 0 3.73a15.32 15.32 0 0 1-.16 1.62 6.81 6.81 0 0 1-.15.71l-.09.33-.06.15a.64.64 0 0 0 0 .09 1.17 1.17 0 0 1-.02.2z" fill-rule="evenodd"/><path d="M102.25 10.89c.13-.15-.39-.31-.44-.45a3 3 0 0 1 0-.43c0-.12.16-.26.11-.38s-.22-.12-.22-.18c0-.31-.12-.67-.12-1 0-.15.51-.39-.33-.5-.5.1-.22.25-.21.38a20.3 20.3 0 0 1 .22 2.66 4.83 4.83 0 0 0 .99-.1zM103.49 7.29a2.42 2.42 0 0 1 0 .43 2.67 2.67 0 0 1 .08.57c0 .3.06.67 0 1 0 .16-.64.33.33.55.6 0 .29-.23.29-.35a19.93 19.93 0 0 1 0-2.68c-.51-.03-.73.33-.7.48zM106.12 8.45c0 .11-.18.36-.17.4a3.49 3.49 0 0 1-.1.57c-.13.28-.14.67-.28 1-.06.15.53.51.57.39a18.09 18.09 0 0 1 .86-2.57c-.55-.24-.88.06-.88.21zM99.9 77.77c-.34-.29.08-1 0-1.41 0-.09-.1-.17-.1-.25a16.53 16.53 0 0 1 0-2c0-.24-.07-.49-.08-.74s.09-.37.08-.55-.2-.6-.19-.89c0-.11.09-.21.09-.31a5.76 5.76 0 0 0-.1-.95c0-.05.06-.1 0-.16s-.09-.07-.1-.12v-1.16c0-.2-.06-.42-.08-.62a20.19 20.19 0 0 1-.1-3.13c.06-.75.13-1.49.16-2.13s0-1.52 0-2.32c.19-.13.34-.39.75-.33.23.16.11.78.21.95s-.06.37-.07.55c0 .69.25 1.35.23 2 0 .37-.11.73-.12 1.08a18.93 18.93 0 0 0 .27 2.22 8.38 8.38 0 0 1 0 .86c0 .47 0 .95.07 1.42a2.37 2.37 0 0 1 0 .46c0 .08-.08.14-.09.22v.71c0 1.06.15 2 .13 3a6.31 6.31 0 0 1-.12.9 2.54 2.54 0 0 0-.09.31c0 .26.11.53.11.81s-.14.75.11 1.15a1.66 1.66 0 0 0-.19.8c0 .1.27.23.14.35s-.1 0-.1 0 .1 0 .1.1a1.94 1.94 0 0 0 0 .67c-.32.07-.29.31-.59.33a.67.67 0 0 1-.7-.45c0-.18.16-.5.16-.79s-.03-.35.21-.58zM104.05 78.25c-.36-.29 0-1.14-.08-1.54 0-.1-.11-.18-.12-.26a20 20 0 0 1-.16-2.17c0-.27-.11-.53-.13-.8s.06-.42 0-.61a8.48 8.48 0 0 1-.25-1c0-.12.07-.23.06-.34a6.91 6.91 0 0 0-.15-1v-.17c0-.06-.11-.08-.11-.13-.06-.42 0-.85-.09-1.27 0-.21-.08-.45-.12-.67a23.51 23.51 0 0 1-.25-3.42c0-.82.06-1.64.08-2.33a24.22 24.22 0 0 1 0-2.55c.19-.15.35-.42.75-.35.23.18.09.84.2 1s0 .41-.06.6c0 .75.27 1.46.28 2.2 0 .4-.09.8-.08 1.18a19.78 19.78 0 0 0 .38 2.39v1c0 .51.11 1 .16 1.53a4.53 4.53 0 0 1 .06.5c0 .09-.08.16-.08.24 0 .25.06.52.09.77.1 1.16.28 2.14.33 3.25a6.31 6.31 0 0 1 0 1 1.43 1.43 0 0 0-.06.34c0 .28.14.57.17.87s-.08.83.2 1.24a1.93 1.93 0 0 0-.12.89c0 .1.29.22.17.36s-.1 0-.1 0 .1 0 .11.1a2.4 2.4 0 0 0 .08.72c-.31.1-.26.37-.56.42a.69.69 0 0 1-.74-.43c0-.2.12-.56.1-.87s-.18-.47.04-.69zM108.2 77.48c-.39-.22-.11-1-.2-1.39 0-.09-.11-.16-.13-.23a13.38 13.38 0 0 1-.23-2c0-.24-.12-.48-.14-.73s0-.37 0-.55a7.51 7.51 0 0 1-.25-.86c0-.11.06-.21.06-.32a5.65 5.65 0 0 0-.16-.93v-.16c0-.06-.1-.06-.11-.11-.06-.38 0-.77-.08-1.15 0-.19-.08-.41-.11-.6a19.19 19.19 0 0 1-.26-3.08v-2.1c0-.63-.16-1.47-.19-2.23.17-.15.29-.42.7-.44.24.12.21.76.32.91s0 .38 0 .56c0 .68.36 1.31.39 2 0 .36-.07.73-.06 1.08a18.57 18.57 0 0 0 .4 2.16v.86c0 .46.1.92.15 1.39a2.3 2.3 0 0 1 .05.45c0 .08-.07.14-.07.22s.06.47.08.69c.1 1 .29 1.93.36 2.92a4.25 4.25 0 0 1 0 .88 2 2 0 0 0 0 .31c0 .25.17.5.21.77s0 .74.28 1.08a1.36 1.36 0 0 0 0 .78c0 .09.31.16.21.3s-.1 0-.09 0 .1 0 .11.07a1.39 1.39 0 0 0 .2.58c-.29.15-.2.36-.47.48a.65.65 0 0 1-.8-.22c-.09-.17 0-.53 0-.81s-.37-.35-.17-.58z" fill-rule="evenodd"/><path fill="#feffcc" d="M115.51 80.25l-12.65 1.54-6.17-1.54v-1.24h18.82v1.24z"/><path d="M114 78.2c.05.45 0 .6 0 1.16-.3-.06-.34.36-.54-.12a1.35 1.35 0 0 1-1 .06c-.51.48-1.08.29-1.66.25a8.25 8.25 0 0 1-1 0c-.21 0-.43-.2-.64-.19s-.23.1-.35.09-.38-.27-.58-.28a5.32 5.32 0 0 0-1.13 0 2.17 2.17 0 0 0-1 .34c-.16.12-.36 0-.53.1s-.3.18-.54.09-.03.3-.03.3a4.41 4.41 0 0 1-1.9-.1 6.64 6.64 0 0 0-.86-.28c-.76-1.08-1.93.15-2.62 0-.21.36-.47.17-.79.09-.54-.13-1.15 0-1.61-.53-.67.08-1.28-.1-1.89.62-.1-.2-.32-.11-.41-.31a2 2 0 0 1 .1-.93c.3-.09.47-.48.75-.61a.29.29 0 0 0 .44-.15c.2.17.82 0 1.07.07.23.43.45.32.78.46a1.89 1.89 0 0 0 1.11.22c.09 0 .18-.21.28-.23s.24.08.34.07a4.72 4.72 0 0 0 .5-.16 6.45 6.45 0 0 1 .85-.33 2.68 2.68 0 0 1 1.13.37 9.71 9.71 0 0 0 1.09.59c.1 0 .25-.11.37-.09s.37.18.54.14c.66-.15 1.18-.6 1.9-.61.06 0 .14 0 .12-.23.63 0 1.27-.14 2-.09.38 0 .79.21 1.2.25.14 0 .27-.1.41-.09.39 0 1.06.37 1.32 0 .38.27.94 0 1.34-.31.37.46 1.05-.4 1.44.37z" fill-rule="evenodd"/></svg>