<svg xmlns="http://www.w3.org/2000/svg" viewBox="0 0 238 100"><title>illo-ostrich-pencil</title><path d="M66.24,60.6a18.36,18.36,0,0,0-5,4c-1.59,1.85-1.88,3.85-3.12,5.8-.84,1.32,1.24-.45-.11.16a18,18,0,0,1-2.87.55,13,13,0,0,0-5.19,2.72c-1.54,1.28-2,4.5-.79,6.15,6.76,8.85,27.76,5.87,25.32-7.76-3-16.78-24.2-3-30.09,3.81-1.92,2.21-2.17,6.53,1,8,7.12,3.19,14.35,6.43,21.75,8.91,7.64,2.56,13.14.13,20.3-2.53,14.6-5.42,30.36-6.38,45.8-6.2,30.54.35,62.22,5.54,91.68-5.22,4.29-1.57,5.31-8.68,0-9.78-5.67-1.16-10.74.25-16.35,1.06a103.06,103.06,0,0,1-17.91.73c-12-.39-23.8-2.14-35.73-3a235.38,235.38,0,0,0-70.38,5.88c-6.46,1.53-3.61,10.8,2.69,9.78l34.12-5.55c5.83-1,4.12-9.76-1.35-10l-55.31-2c-16.47-.59-33.36-1.24-49.16,4.28a5.15,5.15,0,0,0-3,7.44c3.4,6.53,12.64,6.26,19,7.22l26.24,4c4.72.71,8.79-4.56,4.93-8.47-6.34-6.42-14.54-9.65-23.45-10.33l1.34,10L45,78.69c2.82-1,4-3.39,3.54-6.24-1.2-7.8-12.75-7-18.4-6.72A76.83,76.83,0,0,0,4.47,71.34c-4.61,1.88-5,8,0,9.77a207.91,207.91,0,0,0,34.11,9c5.35.92,10.85,1.4,16.06,3,5,1.51,9.48,3.83,14.71,4.52,10.58,1.38,21.33-2,31-5.91,9.27-3.79,18.76-10,29.15-8.91,6.49.65,6.44-9.49,0-10.13-20.67-2.08-37.39,17.35-58.43,15-5.13-.56-9.64-3.23-14.55-4.61s-10.18-1.86-15.26-2.74a207.26,207.26,0,0,1-34.12-9v9.77A70.83,70.83,0,0,1,23.6,76.48a66.33,66.33,0,0,1,8.32-.67c1.21,0,2.42,0,3.63,0,.89,0,1.79.06,2.68.14,1,.34,1.18.07.5-.82l3.54-6.24L37.82,70.4a5.1,5.1,0,0,0,1.35,10,25,25,0,0,1,16.28,7.36l4.93-8.47L39.77,76.13,30.4,74.72c-1.7-.26-8.25-.26-9.15-2l-3,7.44c15.6-5.45,32.2-4.43,48.45-3.84L120,78.27l-1.35-10L84.54,73.86l2.69,9.78a226.32,226.32,0,0,1,67.69-5.53c11,.77,21.92,2.31,32.92,2.86a122,122,0,0,0,16.78-.18c5.49-.47,12.19-3,17.59-1.85V69.16c-28,10.24-58.13,5.38-87.17,4.89-14-.23-28.36.41-42,4a90.79,90.79,0,0,0-9.91,3.2c-3.3,1.3-6.61,3.27-10.27,2.8s-7.36-2.49-10.62-3.79c-3.95-1.58-7.84-3.25-11.72-5l1,8a32.66,32.66,0,0,1,10.34-8c2-1,3.94-1.3.76-.46-.64.17-4.37.55-4.74.07L57.09,81c.79-.65,3.23-.52,4.25-.85a10.06,10.06,0,0,0,4.11-2.38c2.71-2.8,2.2-6.32,5.91-8.4,5.69-3.19.59-12-5.12-8.76Z"/><path d="M50.44,32.17A58.77,58.77,0,0,0,44,33.1c-6,1.82-15.64,3.64-21.52,5.83-1.17.43-3.92,1-4.27,2.22a2.74,2.74,0,0,0,.72,2.52c.61.69,2.87,1.14,3.68,1.58C29.14,48.81,41.5,52.88,47.73,57" fill="#ce9b57"/><path d="M105.27,50.06a97.44,97.44,0,0,1-5.46-17.73l.14-.16A19.21,19.21,0,0,0,95,37.72c-1.09,2.08,9.36,27,4.92,42.4,2.82-3.09,4-7.47,5-11.6l1.83-7.5a17,17,0,0,0,.58-3.31C107.44,55.05,106.29,52.52,105.27,50.06Z" fill="#5e2f1b"/><path d="M99.1,81.34c-.45-.77-.29-1.2,0-1.57a9.76,9.76,0,0,0,1.07-1.06c.23-.37.22-1.07.48-1.57s.78-.84.59-1.36c1.74-3.18,2.42-6.88,3.24-10.35.39-1.74.77-3.44,1.15-5.12a16.4,16.4,0,0,0,.39-2.31,9.23,9.23,0,0,0-.1-2.16,33.08,33.08,0,0,0-1.36-4.21c-.4-1.31-1.27-2.43-1.79-3.71-.24-.57-.3-1.22-.51-1.8s-.48-1.09-.69-1.65-.21-.95-.35-1.45-.59-1.14-.77-1.74-.17-1-.32-1.55c-.44-1.45-.36-4.3-1.26-6,.34-.52.83-1,1.13-1.49,1.73,2,1.26,5.37,2.47,7.63-.17,1.05.52,2.1.84,3.19.44,1.5.81,3.14,1.85,4.11-.09.8.53,1.3.84,1.93.18.38.22.82.39,1.22.33.77.9,1.46,1.21,2.28.19.49.1,1.14.27,1.64a10.8,10.8,0,0,1,.73,2.36,12.41,12.41,0,0,1-.33,2.66c0,.41.08.84,0,1.23-.19,1.44-.72,2.82-1,4.23-.09.39-.06.83-.15,1.21-.18.72-.63,1.35-.81,2.07-.25,1-.24,2.09-.55,3.13A27.14,27.14,0,0,1,104.36,75a9.94,9.94,0,0,1-1,2.2c-.59.62-1.1,1.51-1.78,2.33A4.92,4.92,0,0,1,99.1,81.34Z" fill-rule="evenodd"/><path d="M234.25,48.6a4.52,4.52,0,0,0-1.62-3.08,4.8,4.8,0,0,0-2.55-.51C189.43,44.29,92.73,31.57,51.67,31.8v0a5.73,5.73,0,0,0-3.2.23c-1.29.58-1.58,1.92-1.53,3.23a5.37,5.37,0,0,0,1.89,4,6,6,0,0,0-3.61,3.84c-.64,2.8,1.71,4,3.84,5.09a6.79,6.79,0,0,0-2.06.85,4.92,4.92,0,0,0-2,3.05c-.53,2.8,1.59,4.32,3.93,5l0,.34a142.74,142.74,0,0,0,20.3,2.65l63.39,4.81c13.41,1,82.2,5.82,95.61,6.84a4.64,4.64,0,0,0,2.72-.35,4.32,4.32,0,0,0,1.61-2.31A36.4,36.4,0,0,0,234.25,48.6Z" fill="#e5c45a"/><path d="M235,62.61c-.24-1.17-188.09-15.48-186-14.41a6.79,6.79,0,0,0-2.06.85,4.92,4.92,0,0,0-2,3.05c-.53,2.8,1.59,4.32,3.93,5l0,.34a142.74,142.74,0,0,0,20.3,2.65l63.39,4.81c13.41,1,82.2,5.82,95.61,6.84a4.64,4.64,0,0,0,2.72-.35,4.32,4.32,0,0,0,1.61-2.31C235,62.61,236.41,69.41,235,62.61Z" fill="#bc9a3b"/><polygon points="214.07 43.79 235.57 45.15 230.87 71.38 211.76 70.66 214.07 43.79" fill="#f277a9"/><polygon points="191.6 41.45 213.1 42.81 211.76 69.17 190.01 68.32 191.6 41.45" fill="#b2b2b2"/><path d="M123.53,65.85c.8-.14,4.56.39,4.73.11a37.82,37.82,0,0,0-5.86-.53l-14.09-1-24.5-1.66-12.23-.88c-2-.15-4.19-.29-6.34-.64s-4.28-.81-6.39-1.34c-1.49-.44-1.88-.76-3.34-1.21-3.37-.94-4.16-.86-6.8-1.66-.46-.53,2.42,0,5.63.74s6.83,1.61,7.8,1.42a57.15,57.15,0,0,0,6,.89c2.1.17,4.23.3,6.2.43a57.89,57.89,0,0,0,8.42.17c28.89,2,53.17,2.76,80.53,5.14,18.35,1,36.3,2.38,54,3.67l7.1.49,3.55.24a10.36,10.36,0,0,0,1.53,0,1.16,1.16,0,0,0,.78-.28,6.6,6.6,0,0,0,1.2-2.46,33.41,33.41,0,0,0,1-3.24,35.38,35.38,0,0,0,1-6.59,39.29,39.29,0,0,0,.17-4,34.39,34.39,0,0,0-.44-3.91c-.21-1.32-.51-2.61-1.05-3.07a1.82,1.82,0,0,0-1.14-.4c-.54,0-1.31,0-2-.07l-4.31-.11c-2.92,0-5.89-.22-9-.36s-6.29-.35-9.63-.58l-9.76-.64c-3.21-.21-6.49-.44-10.24-.78l-35.21-3c-6.42-.58-13-1.38-19.32-1.91-1.36-.11-2.79-.1-4.12-.21s-2.13-.28-3.51-.41c-1-.09-2,0-3-.1L107.43,37,91.6,35.73c-3.4-.3-7.23-.58-11.7-1-1.42-.14-2.71-.37-4.08-.51-1.11-.1-3-.14-4.1-.24l-7.55-.74a69.45,69.45,0,0,0-8.24-.4c-2-.16-3.39-.39-5.84-.49a18.53,18.53,0,0,1,4.74-.61c0-.31-2.83-.51-1.73-.7,5.92-.21,10.95.44,15.92.52,3.94.13,7-.18,11.23.25,1.79.05,2.38-.17,4.16-.13,3.7.33,7.54.59,11.55.86s8.19.52,12.56.9c2.84.25,5.84.67,8.77.94a14,14,0,0,0,1.79,0c1.6.11,8,.71,11.73,1.08l22.84,2.23c14.86,1.41,28,2.29,44,3.75,6.55.25,17.11,1.28,25.21,1.47,1.87,0,3.94.08,6.14.15l1.73.06a6.46,6.46,0,0,1,2.39.5,4.64,4.64,0,0,1,2.12,2,7.94,7.94,0,0,1,.79,2.2A39.27,39.27,0,0,1,236.07,63c-.25,1.26-.53,2.51-.9,3.74a33.76,33.76,0,0,1-1.31,3.67,5.78,5.78,0,0,1-1.49,2.12,4.36,4.36,0,0,1-1.35.78,6.08,6.08,0,0,1-1.35.27,14.79,14.79,0,0,1-2.09-.07l-1.81-.13-14.46-1-28.8-2.08C163.28,68.82,143.85,67.44,123.53,65.85Z" fill-rule="evenodd"/><path d="M98.92,81.12a10.45,10.45,0,0,0,.83-.8,34.83,34.83,0,0,0,1.39-9,66.79,66.79,0,0,0-2-15.66c-.56-2.48-1.1-5-1.85-7.4a32.28,32.28,0,0,1-1.6-6.33c-.36-3.87,1.93-6.47,4.24-9.23,0-.12-.06-.24-.08-.35a21.46,21.46,0,0,0,1.55-1.78c3.12-4.12,3.12-9.74,3-14.91a21.83,21.83,0,0,0-1-7.07,7.32,7.32,0,0,0-4.94-4.78l-1.65-.06Q90.71,9,84.84,14.53a36.23,36.23,0,0,0-6,6.75,38.23,38.23,0,0,0-4,10.09l-2.67,9.18c-.46,1.6-.93,3.33-.41,4.91a18.33,18.33,0,0,1,.85,2.19c.26,1.39-.52,2.75-1.26,4q-3.64,6-6.72,12.32a12.92,12.92,0,0,0-1.65,5.22c-.11,3.33,2.15,6.2,3.39,9.29a16,16,0,0,1-.18,12.16c8.85,3,18.66.08,26.82-4.45a21.48,21.48,0,0,0,3.54-2.34,13.2,13.2,0,0,0,2.42-2.75Z" fill="#844f34"/><path d="M90.77,5c2.71-1.69,4.59-2.14,5.84-1.71a2.19,2.19,0,0,0,.15,2.26c-.63.92-.5,1.61-1,2.49-1,1.1-1.17.76-1.93,1.46a49.21,49.21,0,0,1-7.12,7.09c-2.83,2.45-5.35,4.73-6.67,7.14a32.87,32.87,0,0,0-2.77,7l-2,6.76c-.3.84-.63,1.8-1,2.84a18.24,18.24,0,0,0-.88,3,3.91,3.91,0,0,0,0,1.38c.06.36.39.92.7,1.83a4.89,4.89,0,0,1,.25,1.55,5.34,5.34,0,0,1-.22,1.48,9.9,9.9,0,0,1-1.06,2.26c-1.52,2.37-3,4.71-4.44,7.3-.77,1.33-1.51,2.6-2.2,3.88a25,25,0,0,0-1.79,3.81,7.13,7.13,0,0,0-.36,2.84,9.09,9.09,0,0,0,.83,2.78c.84,1.89,2.19,3.79,3,6.29A17,17,0,0,1,69.2,83.6a17,17,0,0,1-.39,2.9,20.06,20.06,0,0,1-1.35,4.68l-.86-1.94a23.64,23.64,0,0,0,2.66.68A27.29,27.29,0,0,0,82,89.14a45.53,45.53,0,0,0,6.91-2.57c1.15-.54,2.31-1.13,3.47-1.75a21.44,21.44,0,0,0,3.2-2.07c.59-.65.3-1,.87-1.71,2-2,3.46-5.48,3.61-9.16a36.06,36.06,0,0,0-1.57-10.94c-.12-.46-.2-1.24-.36-1.72-1-2.94-2-6.86-3-11-.49-2-1-4.15-1.46-6.19a12.66,12.66,0,0,1-.41-3.85,8.94,8.94,0,0,1,1.34-3.94,18.26,18.26,0,0,1,2.44-3c.79-.82,1.51-1.55,2-2.22a11.33,11.33,0,0,0,2.1-4.66,37.63,37.63,0,0,0,.25-10.56,15.12,15.12,0,0,0-.93-3.92,25.2,25.2,0,0,0-1.44-2.85c-.28-.52-.54-1.19-1-1.86l.27,0c-.71-.9-2-1.87-1.85-2.37s1.08-.75,2-1l.35,0c.32,0,.62-.06.81-.08s-.88-.75.44,0a8.37,8.37,0,0,1,5.16,4.27,13.56,13.56,0,0,1,1.42,6.49c0,.49.17,2.29.12,4,0,1.32-.31,2.61-.42,4A31.67,31.67,0,0,1,106,24.7a14.78,14.78,0,0,1-2.52,5.64,29.88,29.88,0,0,1-4,4,8.16,8.16,0,0,0-2.24,3.2,7.21,7.21,0,0,0,.15,3.83c1.35,6.27,2.71,12.55,4.11,19.09.52,2.52,1.11,5.38,1.49,8,0,3.81-.65,8.92-3.51,13A14,14,0,0,1,97,84.26a19.94,19.94,0,0,1-2.92,2c-2,1.12-3.89,2.08-5.63,2.87a40.08,40.08,0,0,1-4.74,2,38.08,38.08,0,0,1-3.85.69,31.36,31.36,0,0,1-10.78.08l-1.4-.28L66,91.09l-.53-.15.22-.55a15.37,15.37,0,0,0,.53-10.56c-.73-2.41-2.32-4.56-3.31-7.18a9.14,9.14,0,0,1-.62-4.27,13.73,13.73,0,0,1,1.28-4.07c1.15-2.48,2.38-4.92,3.7-7.34.75-1.38,1.48-2.47,2.12-3.57.32-.55.62-1.1.89-1.68a8.08,8.08,0,0,0,.63-1.85,3.56,3.56,0,0,0,.51-1.54A2.66,2.66,0,0,0,71,46.92a6.52,6.52,0,0,1-.78-2.34,8.18,8.18,0,0,1,.09-2.39c.24-1.31.59-2.4.89-3.52l.9-3.34c.61-2.21,1.2-4.37,1.77-6.45.1-.35.06-.93.15-1.24a39,39,0,0,1,1.68-4.33,21,21,0,0,1,1.77-3.83,34.86,34.86,0,0,1,4.22-5c1.56-1.59,3.35-3.26,4.94-4.88C88,8.2,89.4,6.52,90.77,5Z" fill-rule="evenodd"/><path d="M91.09,55c1.32,1.13.06,1.55-.25,2.13-.15.28-.06.86-.29,1.24s-.69.51-.54,1c-3.47,4.16-6.16,8.44-9.26,11.88a24.84,24.84,0,0,1-2.19,2.49A18.72,18.72,0,0,0,76.84,76c-.29.32-.7.53-1,.85s-.51.65-.78,1a8.6,8.6,0,0,1-.8.67c-.32.29-.46.78-.76,1.09s-.59.42-.87.7a9.39,9.39,0,0,1-1.81,1.21,16.07,16.07,0,0,0-2.15,1.37,9.5,9.5,0,0,1-1.31-1.07,6.48,6.48,0,0,1,2-1.63,5.25,5.25,0,0,0,2-1.83c.79-.15,1.14-1,1.71-1.55.8-.75,1.75-1.46,1.91-2.54.6-.11.63-.74.94-1.14.18-.23.48-.36.67-.59.38-.44.58-1,.94-1.49.23-.27.69-.37.9-.65.31-.44.43-1,.77-1.37s.88-.7,1.21-1.15c.16-.21.15-.55.29-.77.5-.84,1.29-1.54,1.87-2.35.16-.22.23-.53.4-.74.32-.4.85-.63,1.17-1,.45-.57.66-1.31,1.13-1.88.61-.73,1.15-1.44,1.82-2.14.31-.34.62-1.07,1-1.27C89.17,57.07,89.7,55.45,91.09,55Z" fill-rule="evenodd"/><path d="M81.92,38.77c.08-.14.49-.38.48-.51a6.26,6.26,0,0,1,.31-1.18c.06-.28.25-.37.41-.56s-.06-.34,0-.49a10.26,10.26,0,0,1,.49-.92c1.1-2.75,1.57-5.27,2.76-7.4,0-.14-.31-.33-.19-.43.71,0,.55-.59.8-1.07.45-.85,1.41-1.63,2-2.5.06-.1,0-.33.05-.44.24-.48.84-.68.76-1.36a3,3,0,0,0,1.57-2c.53.18.46-.28.61-.46s.34-.18.47-.38a27.88,27.88,0,0,0,1.88-2.46c.24.08.45,0,.49-.13-.41-.59-.78-1.16-.46-1.35l-.59-.88c.45.13.18-.43-.23-.94-.57.27-1,.8-2.12.21-.19,0-.09.19-.2.24a3.58,3.58,0,0,0-3.42.55c-.12.84-.79,1-1.34,1.54.27.64-.34.56-.62.74s-.27.59-.49.8-.69.28-.53.83c-.26-.05-.14.09-.41.12a.74.74,0,0,1-.08.46c-.56.86-1.56,1.57-1.72,2.61-.19-.07-.3.07-.42.17a4.93,4.93,0,0,1-.55,1.08c-.1.24-.38.27-.53.49a7.18,7.18,0,0,0-.34,1c-.58,1.2-1.12,2.46-1.43,3.21s-.53,1.71-.87,2.54-.24,1.28-.44,1.89c-.11.32-.4.6-.51.93-.18.51.15,1.14-.44,1.64,0,.16.12.32.15.48-.56,1.62-.41,3.27-1.25,5.24-.06.18.43,0,.33.11.1.55-.3,1-.31,1.45,0,.1.19,0,.22.09s-.12.45.12.66.62.1.52.28.12.28,0,.47c.67.21.4.47.45.8s.32.5.36.72c.06.37-.29.62-.07.88.27.06.29-.06.61,0,.7-.37,1.11-.81,1.12-1.06s.64-.59.52-1.07c.06-.13.28.16.27-.06s-.12-.12-.18-.18a.49.49,0,0,0,.44-.82c0,.06,0,.14-.17.13.07-.15.17-.77.49-.95.14.19-.33.3-.07.5.28-.45.56-.75.56-1.09-.38-.07-.18.39-.57.47.08-.31.38-.74.37-.91.19-.1.44.19.51,0C81.79,39.9,81.62,39.3,81.92,38.77Zm-.73,1.4Zm.49-1.44c.34.1-.15.08-.08.19C81.31,38.86,81.64,38.75,81.68,38.73Zm-.34.49.12-.28C81.63,39,81.8,39.33,81.34,39.22Zm-1.27,3.44c.26,0,0,.21,0,.31C79.82,42.93,80.1,42.75,80.07,42.66Z" fill="#5e2f1b" fill-rule="evenodd"/><path d="M73,84a3.87,3.87,0,0,0,.61-.25c.28-.3.67-.56,1-.89a2.22,2.22,0,0,1,.56-.38c.14-.09.19-.29.3-.41s.53-.44.77-.68c2-2.15,3.61-4.38,5.32-6.43,0-.13,0-.28.08-.4.52-.15.68-.7,1-1.19.63-.89,1.53-1.82,2.12-2.68.06-.1.06-.25.12-.35.26-.45.71-.77.75-1.27a5.24,5.24,0,0,0,1.38-2c.34,0,.36-.35.49-.53s.26-.24.38-.43c.56-.9,1.23-1.61,1.64-2.4a.43.43,0,0,0,.36-.25c-.22-.29-.42-.58-.17-.82l-.32-.43c.31-.06.18-.36-.06-.59-.43.37-.81.9-1.51.82-.14.07-.08.16-.16.23a4.09,4.09,0,0,0-2.41,1.4c-.17.62-.65,1-1.08,1.47.11.39-.29.5-.5.71s-.25.49-.42.71-.5.39-.46.75c-.17,0-.11.1-.29.18a1,1,0,0,1-.12.35,13,13,0,0,0-1.5,2.19c-.11,0-.2.1-.29.18a6.17,6.17,0,0,1-.53.82c-.12.17-.29.22-.43.38s-.26.5-.42.72c-.62.83-1.38,1.77-1.8,2.3S76.53,76,76,76.6s-.65.92-1,1.34c-.19.22-.46.39-.67.61s-.43.87-1,1.11a2.54,2.54,0,0,1-.16.38c-.51.5-1,1-1.47,1.48a5.92,5.92,0,0,1-.85.65,11.86,11.86,0,0,0-1.29.89c-.18.16.23.06.06.18a6.74,6.74,0,0,0-1,1.54c0,.11.1,0,.08.11s-.21.51-.12.74.28.12.2.32,0,.28-.08.48c.32.2.17.47.19.79s.16.46.19.68-.11.6,0,.83c.14,0,.14-.08.31,0a2.12,2.12,0,0,0,.51-1.06c0-.29.31-.57.28-1,0-.12.13.13.14-.06s0-.1-.08-.15c.31,0,.42-.53.33-.65,0,0,0,.11-.11.09s.26-.58.47-.64c0,.15-.24.16-.17.34.24-.29.46-.4.59-.58-.15-.14-.22.17-.42.15.14-.2.44-.35.51-.44s.1.23.22.14C72.1,84.67,72.48,84.28,73,84Zm-1.27.64c-.12.13.23-.21,0,0ZM73,83.87c.06.17-.13,0-.19.11C72.71,83.85,72.93,83.87,73,83.87Zm-.53.24.27-.15C72.74,84,72.54,84.33,72.44,84.11Zm-2,1.9c.13,0-.05.18,0,.26S70.44,86.09,70.43,86Z" fill="#5e2f1b" fill-rule="evenodd"/><path d="M77.88,85.41c.1,0,.36.06.44,0s.54-.24.81-.41a1.28,1.28,0,0,1,.47-.13c.13,0,.18-.19.28-.26s.47-.21.68-.35a27.31,27.31,0,0,0,4.09-4c0-.1-.08-.23,0-.3.43,0,.5-.41.75-.74.44-.57,1.09-1.13,1.48-1.71,0-.06,0-.19.06-.25.16-.31.51-.48.48-.87a2.32,2.32,0,0,0,.9-1.33c.29,0,.26-.21.34-.33s.19-.15.27-.27a18.07,18.07,0,0,0,1-1.63c.14,0,.25,0,.27-.14-.23-.27-.45-.53-.27-.68l-.35-.4c.26,0,.09-.26-.15-.48-.31.22-.55.57-1.16.38-.11,0,0,.11-.1.16a2.25,2.25,0,0,0-1.84.66c0,.47-.41.63-.7,1,.14.33-.18.34-.33.46s-.14.35-.26.49-.37.21-.29.5c-.13,0-.08.06-.22.08a.44.44,0,0,1,0,.26c-.32.5-.85.89-1,1.43-.09,0-.16,0-.22.08a2.32,2.32,0,0,1-.35.53c-.08.12-.22.12-.32.22s-.16.34-.27.47c-.43.53-1,1.11-1.27,1.42s-.65.77-1,1.1-.45.56-.71.78-.35.17-.5.28-.29.53-.69.53c0,.08-.06.17-.1.24-.39.21-.7.43-1.1.64a15.09,15.09,0,0,1-1.65.69c-.12.06.17.15.05.18-.28.27-.67.34-1,.67-.05.06.08,0,0,.12s-.29.26-.28.47.23.21.11.32-.06.21-.21.32c.25.27,0,.4,0,.67a3,3,0,0,0,.09.59c0,.27-.12.51,0,.69.14,0,.13-.09.3-.08.26-.36.48-.55.5-.68s.36-.22.39-.45c0,0,.1.13.14,0s0-.08-.05-.12c.27.16.45-.09.39-.23,0,0,0,0-.1,0s.3-.24.47-.19c0,.11-.21,0-.18.15.24-.07.43-.06.56-.17-.1-.17-.2.06-.37,0,.14-.09.42-.11.48-.17s.06.24.17.19C77.27,85.74,77.51,85.48,77.88,85.41Zm-.9.17Zm.85-.28c0,.17-.09,0-.12,0C77.65,85.2,77.81,85.29,77.83,85.3Zm-.36,0,.18,0C77.68,85.37,77.56,85.56,77.47,85.33Zm-1.76.74c.1.09-.07.08-.07.13S75.7,86.12,75.71,86.07Z" fill="#5e2f1b" fill-rule="evenodd"/><path d="M68.93,71.21c0-.1.16-.31.14-.39a3.86,3.86,0,0,1,0-.77.72.72,0,0,1,.11-.4c0-.11-.06-.21-.06-.31a4.66,4.66,0,0,1,.12-.63c.07-.47.12-.93.18-1.31a7.14,7.14,0,0,1,.26-1.06,27,27,0,0,1,1-2.49c0-.1-.14-.21-.06-.31.41-.15.37-.57.52-1,.28-.71.79-1.47,1-2.15,0-.08,0-.2,0-.28.1-.35.41-.61.3-1a2.75,2.75,0,0,0,.67-1.58c.29,0,.22-.28.29-.42s.17-.19.22-.33c.26-.71.67-1.26.85-1.88a.26.26,0,0,0,.26-.19c-.27-.24-.51-.48-.35-.67L74,53.7c.26,0,.07-.29-.19-.48-.3.28-.52.7-1.16.62-.11,0,0,.13-.09.18a2.49,2.49,0,0,0-1.82,1.13c0,.51-.34.77-.59,1.21.2.31-.13.41-.26.58s-.09.41-.18.59-.34.33-.21.61c-.14,0-.07.09-.2.16a.56.56,0,0,1,0,.29,6.58,6.58,0,0,0-.69,1.82c-.1,0-.15.09-.21.16a3.2,3.2,0,0,1-.22.68c0,.15-.19.2-.25.33s-.08.42-.15.6c-.29.71-.64,1.51-.85,2s-.41,1.12-.62,1.75a7.64,7.64,0,0,0-.19,1.4c0,.24-.15.48-.18.71s.19.74,0,1.17a2.71,2.71,0,0,1,.13.3c-.06,1.17.29,2.25.38,3.72,0,.13.18-.12.18,0,.17.34.1.69.24,1,0,.07.08,0,.12,0s.07.32.24.39.3-.08.32.06.13.14.11.31c.36,0,.33.19.45.38s.31.22.4.34.09.44.27.54.1-.12.26-.16a1.37,1.37,0,0,0,.13-.91c-.1-.18.09-.5-.11-.75,0-.09.17,0,.1-.1s-.08,0-.13-.06c.3-.12.13-.55,0-.58,0,0,0,.09,0,.12s-.12-.49,0-.67c.11.08-.08.25.09.31a1.88,1.88,0,0,0,0-.76c-.19,0,0,.26-.15.4,0-.21,0-.53,0-.63s.25,0,.23-.11C69.09,71.91,68.89,71.58,68.93,71.21Zm-.06,1Zm-.06-1c.18,0,0,.08,0,.13C68.66,71.37,68.8,71.25,68.81,71.22Zm-.06.37v-.2C68.83,71.39,69,71.57,68.75,71.59ZM69,73.9c.13,0,.05.13.09.18C68.93,74.11,69,73.94,69,73.9Z" fill="#5e2f1b" fill-rule="evenodd"/><path d="M49.77,39.25c-.15.56-.23.24-.37.23s-.14.12-.17.12-.13-.2-.23-.23a3.83,3.83,0,0,1-2.24-1.89l-.31-.57c-.09-.2-.32-.37-.34-.56s.16-.15.17-.21-.18-.09-.18-.15.11-.27.1-.4a5.81,5.81,0,0,1-.15-.93c0-.16.15-.3.19-.45A5.92,5.92,0,0,1,46.53,33a2.9,2.9,0,0,1,.66-.7,3,3,0,0,1,.68-.61,6.64,6.64,0,0,1,1.62-.26c.1,0,.18-.17.27-.18.4-.08.83.18,1.23.15a2.25,2.25,0,0,1,.58.07c.17,0,.39-.09.48.53s-.11.54-.22.68-.18,0-.34,0a5.83,5.83,0,0,0-1.21,0c-1,0-2.24,0-2.58.89-.06.12-.07.28-.13.43a3.94,3.94,0,0,0-.22,2,2,2,0,0,0,.14.43l.19.31c.14.25.28.66.56.68a2.13,2.13,0,0,0,1,1c.18.08.35,0,.47.27S49.88,38.82,49.77,39.25Z" fill-rule="evenodd"/><path d="M48.44,48c-.21.54-.24.22-.37.2s-.15.12-.17.11-.12-.2-.22-.23a4.58,4.58,0,0,1-2.45-1.74,6.66,6.66,0,0,1-.38-.59c-.12-.2-.36-.4-.39-.63,0-.07.17-.16.17-.23s-.17-.11-.17-.17.13-.28.12-.41c0-.28-.17-.59-.17-.89s.13-.3.15-.45,0-.4,0-.62a2.56,2.56,0,0,1,.11-.71,3.58,3.58,0,0,1,.55-.77,5.77,5.77,0,0,1,.41-.72,6,6,0,0,1,1.47-.91c.1-.06.13-.22.23-.28.4-.21.92-.09,1.34-.2a2.24,2.24,0,0,1,.63,0c.18,0,.41-.16.58.44s0,.56-.12.72-.18,0-.35,0a3.63,3.63,0,0,0-1.17.23A3.1,3.1,0,0,0,45.9,42a3,3,0,0,0-.06.43,8.53,8.53,0,0,0-.12,2.27,1.28,1.28,0,0,0,.34.71c.15.23.37.64.66.64a2.72,2.72,0,0,0,1.17,1c.2.08.39,0,.52.3C48.46,47.5,48.6,47.61,48.44,48Z" fill-rule="evenodd"/><path d="M49.51,57.65c-.08.57-.2.26-.35.27s-.12.15-.15.15-.17-.18-.29-.18a4.76,4.76,0,0,1-2.94-1.36c-.15-.16-.32-.32-.48-.47s-.44-.21-.56-.4.1-.18,0-.32-.23-.12-.25-.21,0-.34,0-.48c-.08-.33-.29-.62-.34-.93,0-.15.07-.34.06-.44a4.77,4.77,0,0,1-.08-1.48A6.92,6.92,0,0,1,44.5,51a4.13,4.13,0,0,1,.22-.89,2.83,2.83,0,0,1,.6-.75c.25-.22.5-.4.72-.6s.09-.24.17-.32a2.12,2.12,0,0,1,.64-.31c.27-.09.54-.14.79-.22a2,2,0,0,1,.72-.07c.2,0,.44-.14.61.46s-.07.55-.17.71-.2,0-.37,0a1.57,1.57,0,0,0-1,.31,4.07,4.07,0,0,0-1.33,1,2.92,2.92,0,0,0-.62,1.68c0,.18,0,.37,0,.54a1.62,1.62,0,0,0,0,.49l.09.67a5.46,5.46,0,0,0,.24,1.18l0,0-.12.07,0,0h0l.15-.09h0l0,0,.05,0a1.45,1.45,0,0,0,.17.18c.13.11.26.21.37.32.27.26.57.65.87.61a2.72,2.72,0,0,0,1.43.79c.23,0,.42,0,.62.19S49.56,57.2,49.51,57.65Z" fill-rule="evenodd"/><path d="M210.18,70.55c-.71-.29-.25-.41-.19-.67,0-.08-.13-.25-.12-.29s.3-.26.36-.46c.47-1.67,1.09-3.53,1.46-5.31a5.7,5.7,0,0,0,.13-1.09c0-.37-.2-.74-.16-1.08,0-.12.27-.2.3-.32s-.2-.23-.19-.33c0-.26.23-.48.24-.73,0-.59-.16-1.2-.13-1.78,0-.3.19-.59.21-.88,0-.78-.06-1.54-.05-2.32,0-.52.2-1,.21-1.56s-.15-1-.16-1.44c0-1,.22-2.07.17-3.11,0-.2-.2-.39-.21-.59-.05-.81.31-1.67.3-2.53a8.27,8.27,0,0,1,.12-1.22c.06-.36-.1-.83.72-1.05.79.07.72.23.91.46s0,.4-.08.75a22.54,22.54,0,0,0-.11,2.71c-.18,2.25-.2,4.78-.19,7.51,0,.35.07.74,0,1.14-.1,1.54-.22,3.29-.33,4.9,0,.72,0,1.46-.05,2.17A13.59,13.59,0,0,0,213,65.9c-.49,1.15-1,2.22-1.33,3.26-.16.44-.14.83-.57,1.17A.75.75,0,0,1,210.18,70.55Z" fill-rule="evenodd"/><path d="M189.73,67.58c-.76-.06-.36-.3-.38-.56,0-.07-.2-.19-.2-.23s.22-.32.22-.52a46.45,46.45,0,0,1,.5-5.19,6,6,0,0,0,0-1c0-.35-.24-.69-.22-1,0-.12.25-.2.28-.32s-.21-.2-.2-.3.2-.45.2-.69c0-.55-.18-1.12-.16-1.67,0-.28.19-.55.21-.82.05-.72-.05-1.44,0-2.16,0-.48.22-1,.25-1.44s-.14-.89-.14-1.33c0-.95.25-1.91.19-2.86,0-.19-.2-.36-.21-.54-.07-.74.27-1.54.21-2.32a8.6,8.6,0,0,1,0-1.13c0-.33-.18-.73.62-1,.79,0,.74.13.95.33s0,.39,0,.72c-.12.71.08,1.46,0,2.56-.11,2.12-.2,4.47-.23,7,0,.32.05.68,0,1.05-.13,1.41-.25,3-.27,4.51,0,.66.11,1.33.1,2a8.63,8.63,0,0,0-.09,2.27,15.75,15.75,0,0,0-.65,3.13c0,.42.07.75-.22,1.16A.78.78,0,0,1,189.73,67.58Z" fill-rule="evenodd"/><path d="M22.82,38.47a2.66,2.66,0,0,0-3,1.77,6.66,6.66,0,0,1-.49.89c-.22.33,0-.09-.12.16s-.18.05,0,0c-.21,0,.4-.1.48-.1a1.18,1.18,0,0,1,1.19.87c-.08-.25,0,.4,0,0s-.06.37,0-.08c0,.17-.22.42-.71.56a1,1,0,0,1-1-.13.72.72,0,0,1-.1-.1c.09.23.25.46.34.67A4.77,4.77,0,0,0,22,45.46c3.44,1.2,2.4-4.73,1.9-6.33-.57-1.84-3.47-1.05-2.9.8a7.54,7.54,0,0,1,.4,3.67l.39-.66-.07.09,1.06-.44h-.2l.75.2a4,4,0,0,1-1-.8c-.21-.33-.3-.75-.51-1.09a2.49,2.49,0,0,0-1.46-1.22c-1.42-.36-2.35,1-2.44,2.21a2,2,0,0,0,1.85,2.33,2.3,2.3,0,0,0,1.66-.9,8.44,8.44,0,0,0,.7-1,5.91,5.91,0,0,0,.36-.71l.15-.37c0-.08,0,0-.07.08h-.8l.27,0a1.55,1.55,0,0,0,1.84-1,1.51,1.51,0,0,0-1.05-1.85Z" fill="#4f4f4f"/><path d="M45.64,56.36c-.34.68-.74,0-1.29-.29-.16-.09-.46,0-.56-.07-.36-.18-.64-.58-1.08-.79-3.68-1.78-8-3.65-11.93-5.37-.79-.35-1.64-.68-2.43-1s-1.68-.41-2.44-.75c-.26-.12-.39-.46-.65-.59s-.54,0-.77-.12c-.56-.29-1-.67-1.54-1a37.27,37.27,0,0,1-3.87-1.9,4.51,4.51,0,0,1-1-.89c-.18-.29-.4-.51-.71-1a2,2,0,0,1-.24-1.23,4.84,4.84,0,0,1,.09-.49,3.2,3.2,0,0,1,.26-.56,3.79,3.79,0,0,1,1.41-1.18,16.17,16.17,0,0,1,2.67-1.05c.52-.16,1.15-.35,1.75-.49s1.2-.29,1.8-.45c1.06-.31,2.12-.77,3.21-1.06,2.33-.63,4.75-.95,7.06-1.56.46-.12.83-.4,1.28-.52,1.8-.5,3.81-.62,5.7-1.18.89-.25,1.8-.49,2.74-.71s1.89-.6,2.6.16c0,.79-.33.77-.77,1.06s-.85.19-1.65.34c-1.69.36-3.52,1.07-6.19,1.64s-5.31,1.13-8.14,1.8a75.91,75.91,0,0,0-8.7,2.52c-.79.26-1.6.56-2.38.89a2.93,2.93,0,0,0-.93.55.79.79,0,0,0-.13.14c0,.06,0,0-.06.15a.69.69,0,0,0,0,.35c0,.1.39.55.66.84a6.53,6.53,0,0,0,1,.77,44.83,44.83,0,0,0,5,2.63c1.49.67,3.07,1.18,4.56,1.78a49.82,49.82,0,0,0,5.24,2.1c2.49,1.28,4.86,2.5,7.13,3.63A9.19,9.19,0,0,1,44.91,55C45.22,55.31,45.88,55.8,45.64,56.36Z" fill-rule="evenodd"/><path d="M22.9,45.34c-.27-.72-.1-.39-.07-.46a1,1,0,0,0-.07-.21s.14.13.16.09c.13-.3.44-.52.63-.9a.35.35,0,0,0,0-.25c0-.1-.26-.21-.25-.28s.25,0,.27-.06-.22-.07-.21-.09.19-.11.18-.17-.23-.3-.24-.45.15-.16.16-.25-.12-.42-.14-.63.17-.3.17-.44-.19-.21-.21-.31.1-.53-.05-.69-.2,0-.23,0,.05-.44-.11-.52a.56.56,0,0,1-.16-.18c-.06-.08-.14.09,0-.72s.22-.7.38-.86.21,0,.33.17.64.34.91.77A6.2,6.2,0,0,1,25,41.48c0,.1.09.21.08.33a10.88,10.88,0,0,0,0,1.53,4.5,4.5,0,0,1,.1.76c0,.33-.37.6-.25.89-.41.32-.8.52-1.09.79-.13.11-.18.32-.45.18C23.26,45.91,23.11,45.9,22.9,45.34Z" fill-rule="evenodd"/><path d="M199.49,58.23c-1.1-.49-.49-.5-.48-.67s-.23-.27-.22-.36.25-.12,0-.27c.68-1.09.54-2.32.73-3.34,0-.26-.06-.49.07-.74s-.16-.44-.17-.66.1-.19.1-.29-.06-.18-.07-.28.06-.15.07-.23-.16-.19-.16-.29.08-.17.07-.25c0-.23.48-.73.07-1,.31-.11.69-.22,1-.34.95.28.15.94.53,1.34-.31.18-.05.37-.07.58s-.18.55.26.78c-.26.13,0,.25,0,.38s-.08.15-.08.22.17.31.17.46-.2.17-.19.26.18.27.17.41-.18.26-.18.4.14.15.16.23c.06.26-.1.5-.12.76,0,.07.07.16.05.23s-.25.21-.28.34.1.4,0,.58a2.55,2.55,0,0,1-.33.66c-.08.1,0,.32-.17.38C200,57.68,200.18,58.19,199.49,58.23Z" fill="#fff" fill-rule="evenodd"/><path d="M204.18,58.58c-1.16-.32-.55-.44-.56-.61s-.26-.24-.26-.35.23-.15,0-.27c.56-1.23.35-2.5.51-3.59,0-.28-.07-.52.06-.8s-.15-.46-.17-.69.1-.21.11-.31a1.63,1.63,0,0,0-.07-.3c0-.08.07-.16.08-.24s-.15-.21-.15-.31.09-.18.08-.27c0-.24.51-.73.13-1,.31-.1.7-.18,1-.28.93.36.08,1,.45,1.4-.32.18-.07.39-.09.59s-.19.57.24.81c-.26.12,0,.25,0,.38s-.08.15-.08.23.17.31.17.46-.2.17-.19.26.19.28.18.42-.17.27-.17.41.15.15.17.22c.08.26-.07.52-.08.78,0,.07.09.16.08.23s-.24.23-.26.36.13.4.07.58a2.74,2.74,0,0,1-.27.7c-.06.11,0,.32-.12.39C204.63,58,204.86,58.44,204.18,58.58Z" fill="#fff" fill-rule="evenodd"/><path d="M208.51,58.21c-1.15-.38-.54-.42-.56-.57s-.26-.22-.25-.31.23-.11,0-.23c.56-1,.33-2.05.48-2.94,0-.23-.08-.43,0-.65s-.16-.38-.18-.57.1-.17.1-.26a1.13,1.13,0,0,0-.08-.24c0-.06.07-.13.08-.2S208,52.07,208,52s.08-.15.07-.22.49-.63.1-.86c.31-.09.69-.19,1-.29.94.25.12.82.5,1.16-.32.16-.06.33-.08.5s-.18.48.26.68c-.26.11,0,.21,0,.32s-.07.13-.07.2.17.26.18.38-.2.15-.19.23.2.24.19.35-.17.23-.16.36.15.13.17.19c.07.22-.07.44-.07.66,0,.06.08.14.07.2s-.24.19-.26.3.13.35.07.5a2,2,0,0,1-.26.58c-.07.09,0,.29-.13.34C209,57.71,209.18,58.14,208.51,58.21Z" fill="#fff" fill-rule="evenodd"/><path d="M197.88,57.69c-1-.64-.44-.52-.43-.67s-.22-.26-.21-.34.24-.07,0-.21c.63-.86.3-2,.36-2.88,0-.24-.11-.45,0-.7s-.18-.4-.21-.61.09-.19.09-.29a2.68,2.68,0,0,0-.07-.27c0-.08.06-.15.08-.23s-.15-.2-.15-.3.09-.17.09-.25c0-.25.57-.65.24-1l1-.07c.85.45,0,.81.3,1.21-.32.13-.07.31-.1.48s-.17.49.27.67c-.25.12,0,.21.06.32s-.07.13-.07.19.2.25.21.38-.18.17-.16.24.22.23.22.35-.15.25-.13.38.16.12.18.18c.1.23,0,.47,0,.71,0,.07.09.14.08.21s-.23.22-.25.34.14.38.08.56a2.15,2.15,0,0,1-.31.65c-.07.09,0,.32-.17.37C198.44,57.23,198.57,57.76,197.88,57.69Z" fill="#898989" fill-rule="evenodd"/><path d="M202.78,57.72c-1.18-.26-.59-.37-.61-.52s-.28-.21-.29-.3.23-.14,0-.24c.48-1.08.21-2.18.34-3.13,0-.24-.08-.45,0-.69s-.16-.4-.18-.6.11-.18.11-.27-.06-.17-.07-.26.06-.14.08-.22-.15-.18-.15-.27.08-.15.08-.23.51-.64.13-.9c.31-.08.7-.15,1-.24.93.31.08.85.45,1.21-.32.16-.07.34-.1.51s-.18.5.25.7c-.25.11,0,.22,0,.33s-.08.13-.08.2.18.26.18.39-.19.16-.18.24.2.24.2.35-.17.24-.16.37.15.12.18.18c.08.23-.06.45-.05.68,0,.06.09.13.08.19s-.23.21-.24.32.15.35.1.51a2.35,2.35,0,0,1-.22.61c-.06.09,0,.28-.1.34C203.17,57.16,203.44,57.58,202.78,57.72Z" fill="#898989" fill-rule="evenodd"/><path d="M206.88,59.14c-1.18-.29-.57-.39-.6-.54s-.27-.22-.28-.31.23-.14,0-.24c.5-1.09.23-2.21.36-3.17,0-.25-.09-.46,0-.7s-.16-.4-.19-.61.1-.18.1-.27a1.25,1.25,0,0,0-.07-.26c0-.07.06-.14.08-.22s-.16-.18-.16-.27.08-.15.08-.23.49-.66.11-.92c.31-.09.69-.17,1-.27.93.29.1.86.48,1.23-.32.16-.06.34-.09.52s-.17.51.27.71c-.26.11,0,.22,0,.33s-.07.14-.07.21.18.26.18.4-.19.16-.18.24.2.24.2.36-.17.24-.16.37.16.13.18.19c.08.23-.06.46,0,.69,0,.06.09.14.08.2s-.23.21-.24.33.14.35.09.51a2.32,2.32,0,0,1-.23.62c-.06.1,0,.29-.1.36C207.28,58.57,207.54,59,206.88,59.14Z" fill="#898989" fill-rule="evenodd"/><path d="M198.18,54.92c0,1.2-.19.63-.3.69s-.12.3-.18.32-.13-.19-.18.08c-.85-.31-1.65.06-2.38,0-.18,0-.34.1-.52,0s-.3.17-.45.19-.14-.1-.21-.1-.12,0-.19.07-.11-.07-.16-.09-.14.15-.21.15-.11-.09-.17-.09-.47-.53-.68-.17c-.05-.32-.08-.71-.13-1,.26-.91.61,0,.89-.39.11.32.24.07.37.1s.36.18.5-.25c.08.25.16,0,.24,0s.09.08.14.07.19-.18.28-.19.12.19.17.17.17-.21.25-.21.18.15.27.13.08-.16.12-.19.32,0,.48,0,.09-.1.14-.1.16.21.24.21.23-.19.35-.16a1.3,1.3,0,0,1,.45.14c.07.05.2-.08.25.05C197.74,54.63,198,54.29,198.18,54.92Z" fill="#898989" fill-rule="evenodd"/><path d="M209.92,63.18c-.39,1.15-.73.48-1,.46-.15,0-.41.22-.61.2s-.34-.27-.53,0c-2.41-.82-4.8-.74-6.93-1a11.19,11.19,0,0,1-1.54-.08c-.45-.11-.89.15-1.34.17-.2,0-.4-.1-.6-.1a5.54,5.54,0,0,0-.57.07,2.06,2.06,0,0,1-.48-.07c-.2,0-.4.16-.6.17s-.34-.07-.52-.06c-.47,0-1.41-.45-2,0-.17-.3-.32-.68-.5-1,.71-1,1.85-.19,2.66-.59.34.31.74,0,1.12.06.54,0,1.09.18,1.53-.26.24.25.48,0,.72,0s.28.08.43.08.57-.17.86-.17.35.21.51.2a7.64,7.64,0,0,1,.77-.17c.27,0,.53.2.8.2s.26-.14.39-.16a9.16,9.16,0,0,1,1.47.15c.14,0,.29-.06.42-.05s.47.27.71.31.73-.08,1.08,0a8.77,8.77,0,0,1,1.33.38c.21.08.61,0,.76.2C208.67,62.58,209.52,62.44,209.92,63.18Z" fill="#898989" fill-rule="evenodd"/><path d="M103.85,48.37l1.08-4.12.87.07-.9,3.46,1.9.14-.17.65Z"/><path d="M111.33,46.48a2.86,2.86,0,0,1-.64,1.62,2,2,0,0,1-1.75.74,1.77,1.77,0,0,1-1.64-2,2.93,2.93,0,0,1,.52-1.45,2,2,0,0,1,1.86-.91A1.71,1.71,0,0,1,111.33,46.48Zm-2.67-.9a3.21,3.21,0,0,0-.49,1.44,1.27,1.27,0,0,0,.16.84.9.9,0,0,0,.68.36,1,1,0,0,0,1-.57,3.41,3.41,0,0,0,.43-1.42c.05-.69-.26-1.09-.88-1.14A1,1,0,0,0,108.66,45.58Z"/><path d="M114.25,49.11l-.37-1.75-1.08-.07L112.36,49l-.83-.06,1.08-4.12,1.73.12a1.73,1.73,0,0,1,1.19.39,1.11,1.11,0,0,1,.35.88,1.22,1.22,0,0,1-.59,1,1.42,1.42,0,0,1-.6.19l.44,1.84Zm-.14-2.34a.91.91,0,0,0,.65-.12.67.67,0,0,0,.25-.48.52.52,0,0,0-.17-.44c-.13-.13-.28-.18-.65-.21l-.91-.06L113,46.69Z"/><path d="M117,45.11l1.35.1a1.8,1.8,0,0,1,1.29.47,1.85,1.85,0,0,1,.5,1.52,2.44,2.44,0,0,1-.93,1.78,1.81,1.81,0,0,1-.81.36,3.49,3.49,0,0,1-.88,0l-1.6-.11Zm.67,3.61a1.15,1.15,0,0,0,1-.32,2.16,2.16,0,0,0,.55-1.34,1.16,1.16,0,0,0-.31-1,1.2,1.2,0,0,0-.78-.25l-.5,0-.75,2.89Z"/><path d="M121,49.59l.46-1.73-1-2.5,1,.07.69,1.86,1.45-1.71.79.06-2,2.32-.44,1.7Z"/><path d="M123,50.64l.64-.86-.38,0,.19-.75.81.06-.18.69-.79.91Z"/><path d="M126.73,50l1.07-4.12.88.07-.91,3.46,1.91.14-.18.65Z"/><path d="M134.21,48.11a2.94,2.94,0,0,1-.65,1.62,2,2,0,0,1-1.75.75,1.77,1.77,0,0,1-1.63-2,2.91,2.91,0,0,1,.51-1.45,2,2,0,0,1,1.86-.91A1.72,1.72,0,0,1,134.21,48.11Zm-2.67-.9a3.35,3.35,0,0,0-.5,1.44,1.33,1.33,0,0,0,.17.84.89.89,0,0,0,.68.36,1,1,0,0,0,1-.57,3.58,3.58,0,0,0,.44-1.42c0-.69-.27-1.09-.88-1.14A1,1,0,0,0,131.54,47.21Z"/><path d="M137.13,50.74,136.76,49l-1.09-.08-.44,1.7-.82-.06,1.07-4.12,1.74.12a1.7,1.7,0,0,1,1.18.39,1.11,1.11,0,0,1,.35.88,1.21,1.21,0,0,1-.58,1,1.51,1.51,0,0,1-.6.19L138,50.8ZM137,48.4a.91.91,0,0,0,.65-.12.68.68,0,0,0,.26-.48.55.55,0,0,0-.17-.44,1,1,0,0,0-.66-.21l-.91-.06-.32,1.23Z"/><path d="M139.87,46.74l1.35.1a1.83,1.83,0,0,1,1.3.47,1.88,1.88,0,0,1,.49,1.52,2.44,2.44,0,0,1-.93,1.78,1.76,1.76,0,0,1-.81.36,3.48,3.48,0,0,1-.88,0l-1.6-.11Zm.67,3.61A1.19,1.19,0,0,0,141.6,50a2.2,2.2,0,0,0,.54-1.35,1.13,1.13,0,0,0-.31-1,1.2,1.2,0,0,0-.78-.25l-.49,0-.76,2.89Z"/><path d="M143.91,51.22l.45-1.73-1-2.5,1,.07.69,1.86,1.45-1.71.8.06-2,2.32-.45,1.7Z"/><path d="M145.86,52.27l.64-.86-.38,0,.19-.74.82,0-.19.69-.79.91Z"/><path d="M149.6,51.63l1.08-4.12.85.07-1.08,4.11Z"/><path d="M152.12,49.09l.58-.75-.37,0,.17-.67.74.06-.17.62-.67.79Z"/><path d="M156.83,52.15l1-3.75-2.24,3.66-.45,0-.36-3.81-1,3.72-.65,0,1.08-4.11,1.26.09.29,2.83,1.61-2.7,1.35.1-1.07,4.12Z"/><path d="M164.69,50.29a2.92,2.92,0,0,1-.64,1.62,2.05,2.05,0,0,1-1.75.74,1.78,1.78,0,0,1-1.64-2,3,3,0,0,1,.52-1.44,2,2,0,0,1,1.86-.91A1.7,1.7,0,0,1,164.69,50.29Zm-2.67-.9a3.13,3.13,0,0,0-.49,1.44,1.31,1.31,0,0,0,.16.83.93.93,0,0,0,.68.37,1.05,1.05,0,0,0,1-.57,3.68,3.68,0,0,0,.44-1.42c0-.7-.27-1.1-.89-1.14A1,1,0,0,0,162,49.39Z"/><path d="M165.79,52.79l-.48-4.23.87.06.35,3.34,1.84-3.18.73,0-2.39,4Z"/><path d="M168.56,53l1.07-4.11,2.92.2-.17.65-2.1-.15L170,50.64l1.73.12-.15.61-1.74-.12-.3,1.14,2.18.16-.17.65Z"/><path d="M175,53.44l-.37-1.75-1.08-.07-.44,1.69-.83-.06,1.07-4.12,1.74.12a1.73,1.73,0,0,1,1.19.39,1.15,1.15,0,0,1,.35.88,1.22,1.22,0,0,1-.59.95,1.42,1.42,0,0,1-.6.19l.44,1.84Zm-.15-2.34a.93.93,0,0,0,.66-.12.67.67,0,0,0,.25-.48.55.55,0,0,0-.17-.44,1,1,0,0,0-.65-.21l-.91-.06L173.7,51Z"/><path d="M180.25,53.82l.24-.94-2-.14.16-.67,2.67-2.51.84.06-.7,2.7.72,0L182,53l-.71-.05-.24.93Zm.89-3.3a.36.36,0,0,0,0-.11v0h0l-.37.4-1.51,1.42h.32l1,.07Z"/><path d="M186.11,50.44a2,2,0,0,1,.32,1.32,3.28,3.28,0,0,1-.61,1.67,1.82,1.82,0,0,1-1.62.79,1.48,1.48,0,0,1-.93-.36,2,2,0,0,1-.53-1.58,3.13,3.13,0,0,1,.77-1.83,1.79,1.79,0,0,1,1.5-.6A1.47,1.47,0,0,1,186.11,50.44Zm-2.05.44a4.11,4.11,0,0,0-.54,1.7c0,.64.22,1,.73,1.07s.69-.16,1-.64a4.52,4.52,0,0,0,.43-1.52c0-.64-.23-1-.75-1.07A.91.91,0,0,0,184.06,50.88Z"/></svg>