<svg xmlns="http://www.w3.org/2000/svg" viewBox="0 0 60 80"><title>illo-bev-bottle</title><path d="M43,37.21c-.06-.68-1-7.65-8.51-6.81a13.06,13.06,0,0,1-.88-4.59h-7c.21,2.08-1.28,5.32-1.28,5.32-9.53-.28-9.24,9.08-9.11,11.78l1.18,25c3.11.46,23.3.86,26.29-.35C43.79,56.58,43.8,47.69,43,37.21Z" fill="#e5b570"/><path d="M25.55,27.13c-.05.8-.4.85-.46,1.7-.26-1-.47.21-.52.23a8.15,8.15,0,0,1-1.23-2.53c-.16-1.55-.09-3.05-.19-4.69-.06-.91-.13-1.84-.2-2.79a28.08,28.08,0,0,1-.12-3,.67.67,0,0,1,.64-.64h.05c1.9-.08,3.83-.15,5.72-.12s3.73,0,5.71-.06a.61.61,0,0,1,.64.61v0h0c0,1.74,0,3.53.07,5.23,0,1.09-.11,2.15-.09,3.24s.06,2.41.2,3.61c0,.15,0,.3.06.43s.05.16,0,.1,0,.05,0-.05a.35.35,0,0,0-.27-.11c-.07,0,0,0,0,0h.12l1-.07a5.9,5.9,0,0,1,.94,0,9.28,9.28,0,0,1,.93.06,8,8,0,0,1,3.05,1.08,6.94,6.94,0,0,1,2.18,2.3,9.18,9.18,0,0,1,1.08,2.9c.19,1,.2,2,.29,3,.28,3.9.47,7.88.57,12.29,0,.48.1,1.12.1,1.62,0,.86-.14,1.72-.15,2.65,0,3.91.24,8.29,0,12a4.89,4.89,0,0,1-.21,1.62,5.69,5.69,0,0,1,.1,1.75v0a.25.25,0,0,1-.17.2,10.45,10.45,0,0,1-1.33.27,26.45,26.45,0,0,1-6.3.43c-2.82.69-7.62.18-12.2.19-1.47,0-3,0-4.88-.08-1.52-.09-3.12-.14-4.65-.3a.35.35,0,0,1-.32-.33v0c-.07-1-.13-1.86-.19-2.68-.15-1.94-.12-3.86-.25-5.28,0-.53,0-1.46-.34-1.61.13-2.86-.24-5.78-.44-9.33-.15-2.59-.15-5.43-.31-7.91a28.12,28.12,0,0,1,0-7.1,10.47,10.47,0,0,1,2.17-4.92,8.08,8.08,0,0,1,3.29-2.42,4.78,4.78,0,0,1,1.6-.37,4.93,4.93,0,0,1,1.73.12c2.16.53,1.63.88.31,1.73a7.36,7.36,0,0,0-1.48.26c-.23.06-.47.09-.71.16l-.73.26-.44.12-.41.17a3.3,3.3,0,0,0-.84.42,6.08,6.08,0,0,0-1.63,1.93c-1.34,2.17-1.63,5.23-1.48,8.15.32,7.39.27,15.52.73,24,.07,1.43.14,2.86.21,4.31l-.38-.42c2.52.28,5.16.36,7.74.46s5.2.13,7.78.11c2.29,0,4.57-.11,6.84-.24,1.13-.07,2.26-.16,3.38-.26.56-.07,1.13-.09,1.66-.19l.82-.12.73-.19-.32.47,0-.73c.12-4.06.11-7.81.14-12.78,0-3.88,0-7.92-.26-12-.14-2.73-.26-5.68-.47-8.36a7.79,7.79,0,0,0-1.14-3.46,4.7,4.7,0,0,0-2.11-1.85c-.19-.2,0-.34-.72-.62a8.82,8.82,0,0,0-2.41-.48,9,9,0,0,0-1.27,0l-.64,0h-.28a.67.67,0,0,1-.52-.22,1.06,1.06,0,0,1-.12-.24l0-.11c0-.09,0-.14,0-.21-.23-1.88-.23-3.66-.33-5.51-.12-2.35-.26-4.74-.29-7.11l.69.68-1.45.06c-3.47.14-6.75.46-10,.63l1.07-1v.13c0,.6.05,1.27.11,1.86s.12,1.19.2,1.82c.06.42.06,1,.12,1.41.1.63.31,1.17.37,1.79a20.05,20.05,0,0,0,.28,3.44C25.36,26.33,25.33,26.72,25.55,27.13Z" fill-rule="evenodd"/><path d="M33.64,15.41c-.44,0-.29-.34-.76-.36,0-.62.25-1.25.33-1.89,0-.35-.08-.71,0-1a6.6,6.6,0,0,0,.37-1.38c0-.11-.1-.23-.11-.32a1,1,0,0,0,0-.22c0-.05,0,0,0,0a.38.38,0,0,0,.1.19.46.46,0,0,0,.13.12c.11.06-.2,0-.42,0-.51,0-1.1,0-1.65,0a1.88,1.88,0,0,1-.33,0c-.09,0-.21-.08-.29-.08-.33,0-.64.18-1,.19l-1.11,0c-.51,0-1,.11-1.5.11-.26,0-.52-.13-.78-.14s-.51.09-.75.1a6.26,6.26,0,0,1-.74-.1l-.28,0h-.06s.11-.11.09-.14a5.08,5.08,0,0,0,0,.51c0,.37.06.73.11,1.09.1.73.24,1.44.37,2.13,0,.25.19.49.22.74a.57.57,0,0,1-.21.58,1.54,1.54,0,0,1-.73,0c-.14-.75-.3-1.69-.52-2.77A6.28,6.28,0,0,1,24,12c0-.15,0-.3-.17-.35A.68.68,0,0,0,24,11c0-.1-.05-.2-.07-.3l0-.15a1.07,1.07,0,0,1,0-.41.8.8,0,0,1,.3-.44,1,1,0,0,1,.35-.15.55.55,0,0,1,.26,0l.28.06a2.8,2.8,0,0,0,.58.08,20.38,20.38,0,0,0,2.58-.05c.2,0,.4-.08.61-.09s.45.09.67.08.25-.11.38-.12.23.08.34.08c.37,0,.71-.14,1.07-.14.2,0,.4,0,.6,0s.4-.07.59.07c.37-.25.76,0,1.15,0,.1,0,.19-.1.31-.07a.46.46,0,0,1,.26.18.65.65,0,0,1,.09.32,1.87,1.87,0,0,1-.12,1.53.79.79,0,0,1-.24.79,1.06,1.06,0,0,1,.21.6c0,.25-.2.46-.23.72s.12.4-.07.54C33.9,14.6,34.2,15.27,33.64,15.41Z" fill-rule="evenodd"/><path d="M36.78,36,22.8,36c-1,0-2.16.1-2.69.95a3.08,3.08,0,0,0-.3,1.54,198.13,198.13,0,0,0,1.3,24.95,1.15,1.15,0,0,0,.14.51,1.12,1.12,0,0,0,.77.4c3.38.7,18.53-.78,18.88-.94.7-.32.84-1.24.88-2a107.81,107.81,0,0,0-1.34-23,3.37,3.37,0,0,0-.38-1.25c-.62-1-2-1.16-3.23-1.17" fill="#ff6c6c"/><path d="M36.83,36.13c0-.11.64,0,.9,0,.49,0-.26-.27.38-.19a2.75,2.75,0,0,1,2.1,1.22,10.65,10.65,0,0,1,.57,2.42c.15.64-.06-.53.1,0s.3,2,.49,3.33A49.42,49.42,0,0,1,42,48.42c.11,0,0-.54,0-.76q.39,4.28.38,8.72c0,1.48,0,3-.11,4.48a4.63,4.63,0,0,1-.52,2.44,1.54,1.54,0,0,1-.58.52,1.31,1.31,0,0,1-.41.12l-.3,0-1.15.13-2.13.17c-.83.08-1.63.24-2.44.31-1.6.14-3.25.2-4.88.29s-3,.18-4.52.21c-.76,0-1.53,0-2.31,0a8.5,8.5,0,0,1-1.2-.14,1.76,1.76,0,0,1-.73-.29,1.24,1.24,0,0,1-.53-.82C20.34,62,20.2,60.39,20,58.9c0-.24,0-.54-.05-.76a1.69,1.69,0,0,0-.12-.32c0-.21.06-.48.05-.75,0-.6-.21-1.79-.24-2.6-.05-1.14,0-2.28-.11-3.8-.12-2.73-.16-5.78-.22-8.4,0-1-.05-2-.08-3a13.77,13.77,0,0,1,0-1.56A2.25,2.25,0,0,1,20.21,36a4.27,4.27,0,0,1,2.36-.58h2.09c1.37,0,2.72,0,4-.07,1,0,2-.15,2.92-.15a20.31,20.31,0,0,0,3,0,6,6,0,0,0,2.11.13c0,.32-1.06.27-1.6.4a5.45,5.45,0,0,1-1.14.37c-2,.05-3.54.13-5.53.25-1.25.08-1.68.07-3.21.05-.44,0-.75.07-1.23.08-.66,0-1.38,0-2,0a1.9,1.9,0,0,0-1.49.58c-.32.41-.19,1.2-.19,2,0,.45-.05.92,0,1.37,0,.23.08.41.08.62,0,.67,0,1.3,0,2s.09,1.4.14,2.15c0,1.42,0,2.89.06,4.39.13,3.18.39,6.54.69,9.86.11,1.28.26,2.57.41,3.86a2,2,0,0,0,.05.31s0,0,.06,0a2.27,2.27,0,0,0,.75.15,14.6,14.6,0,0,0,1.89.09c2.57,0,5.17-.2,7.7-.39,1.69-.14,3.46-.22,5.15-.41l3-.35c.34-.06.23,0,.35-.07a.69.69,0,0,0,.21-.33A5.17,5.17,0,0,0,41.06,61c.11-2.17.16-4.38.12-6.49A151.55,151.55,0,0,0,40,38.37a2.43,2.43,0,0,0-.35-1.13,1.78,1.78,0,0,0-.82-.63A12.09,12.09,0,0,0,36.83,36.13Z" fill-rule="evenodd"/><path d="M41.8,67.69s-.12-.07-.21-.09-.45,0-.72-.09l-.39-.06-.4,0-.4-.05h-.5l-.54,0a2.33,2.33,0,0,1-.54,0,10.08,10.08,0,0,1-1.23,0l-2.89,0-2.85-.06-4,0-3.44,0c-.24,0-.48,0-.69,0l-.37,0c-.24,0-.47,0-.69,0-.42,0-.86,0-1.27.07s-.74.07-1.17.08-.73.11-1,.21-.19,0-.33,0a2.5,2.5,0,0,0-.32,0c-.08,0,0,.07-.12.08s-.21,0-.18,0,.23.1.31.16-.14,0-.16.08c.21,0,.17,0,.29.08a13.54,13.54,0,0,0,1.64.24c.08,0,0,.08.11.07l3,.24a1.43,1.43,0,0,1,.39.07c.43,0,.83.06,1.23.08.74,0,1.44,0,2.21.05l1.16,0c1,0,1.92,0,2.84-.07l2.33-.11c.2,0,.23,0,.37,0h.25l1.6-.06.8-.06,1.82-.08,2.8-.17a6.76,6.76,0,0,0,1.09-.1s-.09,0,0-.08a4.67,4.67,0,0,0,1-.07c0-.07-.1-.06,0-.12A3.44,3.44,0,0,0,41.8,67.69Zm-.22,0s.08,0,.15,0S41.61,67.67,41.58,67.67Z" fill-rule="evenodd"/><path d="M21.34,33.1s.08,0,.13.06a2.42,2.42,0,0,0,.39,0l.22,0,.21,0,.22,0,.28,0h.31a.65.65,0,0,1,.31,0,5.77,5.77,0,0,1,.72-.16,6.58,6.58,0,0,0,1.68-.65,4.75,4.75,0,0,0,1.43-1.17A3.82,3.82,0,0,0,27.9,30a4.31,4.31,0,0,0,.23-1.31c0-.74,0-1.4-.06-2,0-.14,0-.27,0-.38s0-.14-.05-.2,0-.26,0-.38-.06-.48-.1-.71a6.09,6.09,0,0,1-.11-.64,4.6,4.6,0,0,0-.25-.55c0-.09,0-.1,0-.18a1,1,0,0,0,0-.18s-.07,0-.08-.06,0-.12,0-.1-.1.13-.15.17-.05-.08-.09-.08,0,.09-.07.15a4.8,4.8,0,0,0-.18.92s-.08,0-.07,0c-.05.42-.08,1.14-.15,1.67a.51.51,0,0,1-.06.22,4.94,4.94,0,0,1-.05.68c0,.41,0,.8,0,1.18,0,.19,0,.37-.05.55A3.51,3.51,0,0,1,26.19,30a3.19,3.19,0,0,1-.66.85l-.12.13a.65.65,0,0,1-.09.08,4.07,4.07,0,0,1-.67.44c-.12.07-.23.15-.36.21a5.2,5.2,0,0,1-.89.31l-1.49.41a2.19,2.19,0,0,0-.58.21s.07,0,0,.09-.38.06-.52.21c0,.06.06,0,.05.11C21,33.07,21.12,33.16,21.34,33.1Zm.12,0s0,0-.07,0S21.45,33.09,21.46,33.1Z" fill-rule="evenodd"/><path d="M33.09,16.37c.43.11.27.27.73.37a11.59,11.59,0,0,0-.31,1.13c0,.22.12.47.07.67s-.32.55-.33.88c0,.08.08.15.07.27a1,1,0,0,1-.32.59,1.16,1.16,0,0,1-.66.31,3.1,3.1,0,0,1-.34,0h-.27c-.37,0-.75,0-1.11,0l-.21,0c-.06,0-.13-.1-.19-.11s-.42.13-.62.11l-.71-.07c-.32,0-.65,0-1-.06s-.31-.18-.47-.2-.32,0-.49,0a1.55,1.55,0,0,1-.51-.23,1.27,1.27,0,0,1-.64-.65,6.29,6.29,0,0,1-.2-.72c-.13-.43-.34-.85-.5-1.27-.06-.15-.22-.29-.26-.45a.38.38,0,0,1,.21-.45,5.63,5.63,0,0,1,.72,0A13.77,13.77,0,0,0,26.43,18a2.62,2.62,0,0,1,.15.48c0,.13,0,.18.17.18-.14.11-.14.2-.11.23s.08,0,.06,0,.06.26.27.31a8,8,0,0,0,1.6.2c.13,0,.25,0,.39,0s.27.15.41.15.16-.08.24-.07.14.09.21.1c.23,0,.45-.07.68-.05s.24.09.37.1.25-.05.37.09c.23-.24.47,0,.72-.05.06,0,.1-.12.16-.13s.18.1.25.05-.1-.62.25-.82a.37.37,0,0,1,.2-.48.66.66,0,0,1-.23-.41c0-.16.18-.28.2-.44s-.13-.28.06-.35C32.79,16.86,32.53,16.36,33.09,16.37Z" fill-rule="evenodd"/></svg>