<svg xmlns="http://www.w3.org/2000/svg" viewBox="0 0 117 132"><title>illo-antimatter</title><path d="M84.53,108.93c3.38-1.72,13.87-7,16.83-1.87,1.39,2.42-3.27,5.2-5.36,5.52A18.66,18.66,0,0,1,85.86,111l-2.29,8.45c6.57-.12,16.91-.07,21.81-5.26L97.63,111c0-.65-7.64-.67-8.4-.66-5.84,0-5.85,9.09,0,9.07,6.24,0,18.15,1.41,17.47-8.41-.25-3.72-4.88-6.24-7.74-3.21-1.49,1.59-5.13,1.72-7.07,2a66.1,66.1,0,0,1-8.32.6c-4.32.07-6.4,6.3-2.29,8.45,5.53,2.89,14.07,4.22,20,1.63,5.13-2.27,10-7.56,9.59-13.48s-6.14-9.61-11.54-10.53C92.38,95.25,86,98,80,101.1c-5.2,2.65-.61,10.48,4.58,7.83Z"/><path d="M36.45,97.18c-4.18.29-7.16-1.89-11.07-2.78a18.51,18.51,0,0,0-6.76,0C14,95.1,8.55,96.53,4.88,99.62c-9.4,7.91-1.83,21.22,7.23,25.36,4.94,2.26,10.29,3.26,15.63,4.11,5.73.91,11.55,2.17,17.36,2.22,7.47.05,15.38-.67,22.46-3.15s13.49-6.18,19.93-9.87L80,112.57c-.46,2.42-6.62,4.52-8.6,5.21a36.13,36.13,0,0,1-9.87,1.92,49.33,49.33,0,0,1-19.34-3.15c-6-2.13-11.13-6.07-17-8.27-2.2-.83-10.23-1-11-2.26l-3,7.44c3.31-.71,11.82-2.73,14.46.14,4.43,4.81,11.58-2.37,7.17-7.17-5.72-6.22-17-4.31-24.33-2.74-3.21.68-4.62,4.76-3,7.44,3.37,5.66,9.76,4.74,15.25,6.36,3.64,1.08,7,3.71,10.44,5.35a78.15,78.15,0,0,0,13.3,5,53.44,53.44,0,0,0,25.75.79c6.76-1.54,18.13-5.6,19.6-13.38.81-4.23-3.39-8-7.44-5.73-10,5.7-19.19,10.47-30.81,11.35-9,.68-18.14-.76-27-2.61-3.48-.74-7.49-1.53-10.42-3.67-2.32-1.7-4.85-5.52-2.1-7.67,2.39-1.86,7.63-3,10.61-2.71,4.85.55,8.57,3.44,13.78,3.09,6.47-.44,6.52-10.58,0-10.14Z"/><path d="M28.44,35.8C23.61,38.52,17.83,41.53,17.28,47c-.47,4.67,3.92,8.46,7.66,11.43s8.45,4.53,13.16,5.52c12.61,2.64,25.1,2.45,37.08-2.11a30.55,30.55,0,0,0,8.93-5.1c1.58-1.3,5.87-3.73,6.51-5.64,1-3,3.92-11.16-11.6-16-7.39-2.32-17.2-3.19-24.9-4.06C54.12,31,35.44,31.84,28.44,35.8Z" fill="#fff"/><path d="M17.25,48.28c.63,1.68,5,62.3,6.33,64.6,5.47,9.17,17,12.81,32.24,12.67,19.16-.18,30.85-6.68,34.09-13.67.72-1.56,1.45-63.6,1.45-63.6" fill="#fff"/><path d="M15.87,54c.06-2.78.5-4.63,1.11-5.63.27.32.51.52.73.52a1.55,1.55,0,0,0,.57-.12c.3,1,.71,1.05,1,1.92a14.43,14.43,0,0,1,.07,2.47C20.5,58.9,20.6,67.08,21,72.78c.31,5,.8,10,1.08,13.88.09,1.62.18,3.75.34,6,.38,5.09.76,10,1.3,15.46.15,1.4.27,2.79.5,4,0,.19.07.23.08.31s.15.26.21.38l.53.81a12.34,12.34,0,0,0,1.18,1.54A21.56,21.56,0,0,0,30.74,119a31.85,31.85,0,0,0,5.5,2.68c.66.24,1.33.41,2,.6s1.28.29,1.87.46,1.52.5,2.29.7a43.82,43.82,0,0,0,6.64.93,78.72,78.72,0,0,0,12.37,0,59.33,59.33,0,0,0,14-2.71c.82-.33.76-.61,1.64-1a23.71,23.71,0,0,0,8.55-4.89,13,13,0,0,0,3.07-4l.14-.27,0-.07h0c1.88.87.48.21.88.4-.2-.11-.41-.2-.61-.29l-.29-.11h0l0-.49c0-.43,0-.86,0-1.28,0-.87,0-1.71.05-2.52,0-.44.09-1.17.07-1.63-.2-5.7,0-14.93.13-21.86.12-8.16.39-16.26.28-22.39,0-2.82-.35-6.14.18-9,.41-2.16,1.8-4.29,2.38-3.87.33.25.59,1.57.8,2,0,.07.3-.68.07.28a53.12,53.12,0,0,1,0,9.84c0,.4,0,2-.07,3.55-.06,1.2-.26,2.33-.31,3.52s0,2.48,0,3.56c-.15,3.52-.6,6.72-.77,10-.14,2.62-.15,5.55-.21,8.19-.15,5.92-.33,11.85-.61,18,0,1.18-.12,2.44-.18,3.71l0,.49a2.31,2.31,0,0,1-.14.64l-.43.88a16.85,16.85,0,0,1-1,1.66,22.53,22.53,0,0,1-4.39,3.92,35.94,35.94,0,0,1-5.72,3.08A55.31,55.31,0,0,1,67.13,125c-1.57.31-3.09.56-4.63.73-1.15.07-2.34,0-3.56.07-2.94.07-6,0-9.85-.19-.85,0-1.76-.11-2.75-.24s-2.07-.26-3.26-.46a45.48,45.48,0,0,1-7-1.82,29.37,29.37,0,0,1-6.61-3.35,21.91,21.91,0,0,1-5.41-5.29l-.54-.8a3.38,3.38,0,0,1-.51-.92,16.93,16.93,0,0,1-.39-1.93c-.19-1.25-.36-2.51-.5-3.77-.34-2.88-.28-4.81-1-7.34-.2-2.69-.56-5.15-.81-7.62-.42-4.29-.84-8.56-1.23-12.52,0-.33-.21-.8-.24-1.09-.14-1.32-.18-2.76-.32-4.08s-.39-2.36-.51-3.54c-.31-3.27-.7-7.81-1.22-11.69C16.53,57.49,16.17,55.67,15.87,54Z" fill-rule="evenodd"/><path d="M85.83,99.74c.2-.07.34.52.53.71.35.33.21-.47.56,0a7.68,7.68,0,0,0,3.52,2.73c.58.16-.43-.24.09-.16a29.43,29.43,0,0,0,2.92.88c1.23.17,3.31-.09,5.08,0,0-.2-.5,0-.71-.1a31.8,31.8,0,0,0,7.86-1.12,10.13,10.13,0,0,0,3.37-1.8,7.25,7.25,0,0,0,2.1-3.17,15.39,15.39,0,0,0,.61-1.81c.16-.74.14-1.52.28-2.28.27-1.49.68-3,.95-4.49.5-2.75.71-5.6,1-8.37a40.12,40.12,0,0,0,.2-4.51,5.54,5.54,0,0,0,0-.7,1.06,1.06,0,0,0-.18-.3c0-.19.19-.44.19-.68,0-.57-.21-1.65-.24-2.38a13.56,13.56,0,0,0-.34-3.39A7.66,7.66,0,0,0,112,65.61a6,6,0,0,0-3-1.74,14.66,14.66,0,0,0-5.2-.1,33.68,33.68,0,0,0-7.35,1.84c-.85.3-1.7.77-2.58,1a9.36,9.36,0,0,0-2.8.67,2.91,2.91,0,0,0-2,.29C89,67,90,66.8,90.37,66.42a4.08,4.08,0,0,1,.83-1c1.76-.57,3.16-1.11,4.91-1.84a14.92,14.92,0,0,1,2.9-.88c.41-.11.67-.33,1.12-.46a23.09,23.09,0,0,1,4-.55,21.86,21.86,0,0,1,2.3-.26c.46,0,.93.15,1.39.17.24,0,.45-.08.66,0a11.8,11.8,0,0,1,2,.66,7.71,7.71,0,0,1,2.15,1,8.3,8.3,0,0,1,2.67,4,19.39,19.39,0,0,1,1,4.82,41.4,41.4,0,0,1,.18,4.86,106.44,106.44,0,0,1-1.58,14.83c-.29,1.61-.68,3.19-1,4.87a13.14,13.14,0,0,1-1,3,8.91,8.91,0,0,1-2.15,2.85,13.87,13.87,0,0,1-6.21,2.84,33.76,33.76,0,0,1-8.09.58,14.88,14.88,0,0,1-4.12-.57,13.24,13.24,0,0,1-3.54-1.73A6.52,6.52,0,0,1,85.83,99.74Z" fill-rule="evenodd"/><path d="M88.3,50.6c.24-3.45-2.34-6.19-6.22-8.34S73.42,39,68.66,38.35c-12.71-1.8-25.17-1.52-36.89,2a32.19,32.19,0,0,0-8.66,3.86c-1.51,1-3.85,4.85-4.39,6.27,0,0,3.86,14.89,34.8,14.95S88.3,50.6,88.3,50.6Z" fill="#724c19"/><path d="M34.46,34.51c.13.13.87,0,1.48-.06,1.43-.16,3-.45,4.9-.62.88-.1,1.83-.11,2.71-.18s1.82-.22,2.73-.29,1.91-.06,2.73-.1c1.06-.07,2.33-.18,3.49-.23.58,0,1.17,0,1.72,0h-.33l2,.3a35,35,0,0,1,3.73.55c2.91.21,5.7.68,8.45,1.13a77.67,77.67,0,0,1,9.7,2.13A26.43,26.43,0,0,1,86,41a9.26,9.26,0,0,1,2.44,2.91,6.3,6.3,0,0,1,.53,3.65,13.49,13.49,0,0,1-.51,2.09l-.19.59h0c1.29.43.35.12.64.22l0,0-.1,0-.19-.06-.18-.08-.11-.06,0,0a3.66,3.66,0,0,1-.45.52,28.3,28.3,0,0,1-3.38,2.59c-.4.28-.81.56-1.28.91-.2.14-.54.42-.71.55l-.57.46a28.31,28.31,0,0,1-2.57,1.78A32.15,32.15,0,0,1,73,60a57.25,57.25,0,0,1-13.29,3,63.14,63.14,0,0,1-12.06.12A85.67,85.67,0,0,1,36.46,61.4a39.75,39.75,0,0,1-4.39-1.31,23.8,23.8,0,0,1-2.25-.82A19.4,19.4,0,0,1,26,57,28.29,28.29,0,0,1,19.9,51.3a6.27,6.27,0,0,1-.85-6.51A8.58,8.58,0,0,1,20.65,42a31.83,31.83,0,0,1,2.28-2.4c.91-.6,1-.83,1.84-1.34s1.11-.58,2-1.11c.46-.3.11-.3.58-.6s1.35-.69,1.08-.7a16,16,0,0,0-2.15.69c0-.18.79-.61.78-.77a6.39,6.39,0,0,1-1.85.81,26.77,26.77,0,0,0-5.3,3.29,11.19,11.19,0,0,0-3.68,5c-.2.56-.18-.3-.44.79a9,9,0,0,0,.41,5.56,16,16,0,0,0,3.46,5.07,48.1,48.1,0,0,0,4.48,4,26.64,26.64,0,0,0,5,3.07c1,.48,2,.89,2.68,1.24A70.66,70.66,0,0,0,40.5,66.9a70.31,70.31,0,0,0,15.92,1.18,62.5,62.5,0,0,0,8.39-.88,58.23,58.23,0,0,0,10-2.76,33.84,33.84,0,0,0,9.21-4.94l.88-.7.77-.65c.47-.38,1-.79,1.61-1.2a30.41,30.41,0,0,0,3.46-2.82,6.65,6.65,0,0,0,1.65-2.42c.22-.7.42-1.37.58-2.12A12,12,0,0,0,93.18,45a8.6,8.6,0,0,0-1-2.9A15.16,15.16,0,0,0,91,40.34a16.4,16.4,0,0,0-4.87-4l-1.27-.68c-.42-.22-.87-.38-1.31-.58l-1.33-.56-1.41-.47a43,43,0,0,0-5.58-1.42,126.49,126.49,0,0,0-12.69-1.87c-2.75-.29-5.52-.51-8.35-.75h-.14c-3.68.3-7.4.74-11.22,1.33A48.53,48.53,0,0,0,35.34,33c-.31.11.67,0-.23.31-2.76.73-4.68,1.16-6.66,2.52.16.13.68-.13.35.24.48-.19.89-.34,1.28-.47l1.19-.29c.4-.11.84-.2,1.36-.32Zm1.46-.27c-.15.16-.52.08-1,.23C35,34.36,35.77,34.25,35.92,34.24Z" fill-rule="evenodd"/><path d="M88.07,54.51a3.36,3.36,0,0,1-2.4,1.69c0-.53-.44-.62-.65-.75.09-.41-.14-.62-.08-1,.23-.52.37-.46.56-.83a17.34,17.34,0,0,0,.67-3.72,6.26,6.26,0,0,0-.93-3.47,11.22,11.22,0,0,0-4.3-3.58,19.64,19.64,0,0,0-2.28-1.18,39.73,39.73,0,0,0-6.46-2,29.11,29.11,0,0,0-3.54-.7c-1.85-.2-3.64-.32-5.54-.48-.65,0-1.26,0-1.82-.06-.34,0-.71-.16-1.07-.2-1-.13-2-.14-3-.19a98.83,98.83,0,0,0-11.92.34c-.39.09-.39.32-.82.39a35.14,35.14,0,0,0-9.08,1.67c-.18,0-.5.09-.7.16-1.16.47-2.73.95-4.3,1.53a33.58,33.58,0,0,0-4.46,2,24.82,24.82,0,0,0-2.19,1.29A8.61,8.61,0,0,0,22.24,47a8,8,0,0,0-1.69,3.6c0,.25,0,.5,0,.75s.07.48.14.7L21,53.35a3.13,3.13,0,0,1,.06.65,4.06,4.06,0,0,1,0,.7c0,.48-.09.92-.3,1s-.87-.16-1.15-.2c-.05,0,.1.4-.15-.06a6.93,6.93,0,0,1-.88-.91A6.53,6.53,0,0,1,18,53.34a5.61,5.61,0,0,1-.1-2.85,7.26,7.26,0,0,1,.47-1.78,10.27,10.27,0,0,1,.9-1.5,16.14,16.14,0,0,1,.88-1.46A9.45,9.45,0,0,1,22,44.07a13.5,13.5,0,0,1,2.08-1.13c1.06-.54,2.23-1.16,3.34-1.61A46.91,46.91,0,0,1,35.14,39c1-.26,2.18-.51,3.2-.85,3.06-.39,7.71-.88,10.81-1.07.71-.06,1.38-.16,2.07-.18.51,0,1,.09,1.58.11l4.38.09c.76,0,1.62,0,2.68.11A99.82,99.82,0,0,1,73,38.68a12.47,12.47,0,0,0,3.28.59c1.15.38,2.25.64,3.31,1A19.63,19.63,0,0,1,84.66,43c.13.09.36.17.47.26a5,5,0,0,1,.7.68c.23.25.45.5.65.76a7.9,7.9,0,0,1,1.11,1.38,9.1,9.1,0,0,1,1,2.7,10.75,10.75,0,0,1,0,3.1,11.85,11.85,0,0,1-.2,1.31A8.26,8.26,0,0,1,88.07,54.51Z" fill-rule="evenodd"/><path d="M40.72,11.87l.15,0,.28-.06a1.44,1.44,0,0,0,.46-.16,4,4,0,0,0,.65-.24c0-.11.51-.18.46-.33a5.13,5.13,0,0,1,1.35,0,1.31,1.31,0,0,1,.19,1.14,3.69,3.69,0,0,1-.42.89c-.22.4-.3.78-.49,1.05-.07.1-.22.15-.28.24s0,.28-.09.4-.18.08-.22.14a2.87,2.87,0,0,0-.19.4,1.59,1.59,0,0,0-.18.37.68.68,0,0,0,0,.42c.06.11.37.17.49.25s.12.14.19.2.2.07.21.14-.09.34,0,.48.33.25.56.42c.07.05.11.24.2.26s.18-.09.24-.07.09.19.15.23c.25.14.64.13,1,.29s.59.42.87.51.72-.06,1,.14a1.35,1.35,0,0,1,.32.53c.1.2,0,.68.06,1,0,0,.13,0,.12.06a2.35,2.35,0,0,0-.06.58A7.88,7.88,0,0,1,48,22.53c0,.5.09.94.14,1.45,0,.31.22.73-.28.86.14.16,0,.48,0,.82s.07.8-.56.67-.37-.32-.74-.51A2.32,2.32,0,0,0,47,24.58c0-.14-.16-.3-.17-.44s.2-.46.14-.68-.2-.22-.22-.32.07-.22.07-.31-.16-.19-.19-.29c-.08-.27.25-.7-.21-.84a1.17,1.17,0,0,0-.18-1.07,1.3,1.3,0,0,0-1.12-.46c-.19,0-.57.31-.79.32a.9.9,0,0,1-.48-.19c-.08-.08-.06-.23-.14-.3s-.5-.12-.76-.23-.58-.6-1-.7c0,0-.1.08-.16.08s-.08-.11-.14-.12c-.23,0-.53.09-.85.06-.56-.44-.35-1.27-.38-1.79A9.31,9.31,0,0,1,40.21,15s.1,0,.09-.12-.13-.12-.13-.12.21-.14.28-.21a1.89,1.89,0,0,0,.31-.67c0-.16,0-.37,0-.49s.24-.13.28-.24c.09-.26-.09-.68-.11-.93s-.09-.35-.43-.35Z" fill-rule="evenodd"/><path d="M47.46.69a4.58,4.58,0,0,0,1.12.2,6.16,6.16,0,0,0,.64.26c.12-.08.47.27.55.13.39.4.62.59,1,.91.1.5-.4.7-.65,1.07a4.19,4.19,0,0,0-.33,1c-.05.13-.17.23-.21.36s.06.35,0,.54-.14.19-.16.3a7,7,0,0,0,0,.83c0,.25-.06.53-.05.77a2.5,2.5,0,0,0,.1.76c.08.2.43.39.59.61s.19.34.29.52a1.86,1.86,0,0,1,.32.49c0,.22-.07.51,0,.75a4.94,4.94,0,0,0,.6,1c.06.11,0,.34.14.42s.25.06.31.13,0,.24.07.32a8.8,8.8,0,0,0,1,.85,4,4,0,0,0,.85.81c.26.15.91.19,1.26.79A1.82,1.82,0,0,1,55,15.62c0,.34-.43.72-.54,1.08,0,0,.11.08.06.14a2.25,2.25,0,0,0-.36.58c-.13.53-.08,1.23-.17,1.9a8.35,8.35,0,0,0,0,1.87c0,.41.23.94-.26,1.17.14.2,0,.65,0,1.11s.17,1.08-.48,1-.4-.37-.79-.56a5,5,0,0,0,.32-1.83c0-.19-.17-.4-.18-.6s.21-.7.17-1c0-.18-.18-.34-.19-.51a4.43,4.43,0,0,1,.13-.49c0-.17-.11-.34-.11-.5,0-.5.47-1,.13-1.48a3.58,3.58,0,0,0,.48-1.66c0-.53-.45-.69-1.11-1-.28-.13-.85,0-1.18-.22a2,2,0,0,1-.6-.59c-.08-.15,0-.29-.07-.42-.2-.32-.53-.49-.77-.78s-.36-1-.7-1.27c0,0-.13,0-.18,0s-.05-.14-.11-.17a8,8,0,0,0-.84-.24c-.4-.55-.07-1.33-.1-1.94,0-.84-.42-1.63-.51-2.58,0,0,.09-.09.06-.16a.38.38,0,0,0-.16-.09c0-.11.17-.21.21-.32a2.73,2.73,0,0,0,.08-.94,4.32,4.32,0,0,1-.11-.66c0-.19.21-.31.22-.48a14.08,14.08,0,0,1-.1-1.6,2.13,2.13,0,0,0,0-1.41C47.26.83,47.43.89,47.46.69Z" fill-rule="evenodd"/><path d="M61.91,8.27a4.69,4.69,0,0,0,1-.49,4.4,4.4,0,0,0,.65-.26c0-.11.51-.16.47-.28.54,0,.84-.09,1.32-.11.46.36.2.93.16,1.4s.09.77.05,1.14c0,.14-.11.27-.13.4s.11.35.09.54-.14.2-.16.31,0,.52-.12.8-.18.48-.24.7a4.54,4.54,0,0,0-.19.69c0,.19.2.52.21.79a4.32,4.32,0,0,1-.09.58,1.66,1.66,0,0,1-.11.58c-.13.18-.43.28-.58.44s-.31.65-.54,1c-.07.09-.27.15-.32.25s0,.23,0,.31-.21.08-.26.15c-.23.25-.34.69-.58,1s-.55.46-.66.71,0,.63-.08.84-.26.16-.38.23-.58,0-.79.21c0,0,.07.11,0,.13a1.12,1.12,0,0,0-.48.2,5.59,5.59,0,0,0-.59,1.25A3.14,3.14,0,0,0,59.29,23c0,.31.18.68-.31.81.14.16,0,.47.07.8s.24.74-.4.78-.44-.23-.85-.35a4.57,4.57,0,0,0,.29-1.47c0-.16-.15-.34-.14-.51s.26-.54.27-.8-.13-.32-.1-.46.16-.24.21-.36,0-.3,0-.44c.11-.41.68-.59.53-1.12a4.88,4.88,0,0,0,1.1-1,3.71,3.71,0,0,0,.71-1.4c.08-.22-.12-.69-.06-.92a1,1,0,0,1,.3-.42c.09-.05.23,0,.31-.05s.17-.42.28-.61.54-.43.52-.74c0,0-.1-.08-.11-.12s.06-.06,0-.11a4.79,4.79,0,0,0-.45-.56c0-.36.72-.47,1-.79s.28-1,.36-1.58c0,0,.09,0,.08-.08s-.15-.08-.15-.08.2-.1.25-.17a.84.84,0,0,0,.09-.6c0-.14-.16-.28-.16-.41s.17-.21.15-.32c-.06-.28-.41-.56-.56-.87s-.22-.53-.66-.59C61.83,8.4,62,8.35,61.91,8.27Z" fill-rule="evenodd"/><path d="M98.7,97.9c4-.79,6.48-4.07,7.88-7.25,2.85-6.48,2.11-16.89,1.42-18.26a5.46,5.46,0,0,0-3.79-2.92,10.26,10.26,0,0,0-3.49.16c-3.18.51-8.43,2.1-12.12,2.88l.22-6c3.26-1,7.08-2,10.34-2.92,3.91-1.17,8.58-1.8,12,.18,2.69,1.57,3.52,4.53,3.86,7.24,1,7.84-.59,15.74-2.13,23.52a11.82,11.82,0,0,1-3.33,5.89c-3,3.15-7.83,4.08-12.67,4.14a15.58,15.58,0,0,1-4.43-.39,13.85,13.85,0,0,1-7.49-5.86l1.43-5.17C89.67,96.05,94.07,98.82,98.7,97.9Z" fill="#fff"/><path d="M85.88,93.73c.15-.13.36.29.53.39.33.15.14-.47.48-.18a17,17,0,0,0,2.82,2c.44.17-.3-.23.11-.15s1.2.76,2.06,1.09a24.61,24.61,0,0,0,3.59,1c.06-.19-.34-.11-.47-.21a9,9,0,0,0,5.47-.72,10.69,10.69,0,0,0,4.23-4,13,13,0,0,0,.76-1.22c.25-.5.31-1.08.54-1.62.42-1,1-2.07,1.35-3.12A12.62,12.62,0,0,0,108,84a25.23,25.23,0,0,0,0-3c0-1.18-.09-2.38-.19-3.41a4.82,4.82,0,0,0,0-.54,1,1,0,0,0-.19-.21c0-.15.17-.35.17-.53,0-.43-.25-1.2-.32-1.7a4.94,4.94,0,0,0-.6-2.22,4.69,4.69,0,0,0-1.83-1.7,4.29,4.29,0,0,0-2.45-.39,17.16,17.16,0,0,0-2,.42c-.65.17-1.31.36-2,.5A46.06,46.06,0,0,0,93,72.67a19.54,19.54,0,0,1-2,.76c-.73.16-1.4-.07-2.17.38a1.9,1.9,0,0,0-1.58,0c-.09-.61.69-.64,1-1A3.37,3.37,0,0,1,89,72a28,28,0,0,0,3.7-1.36A8.62,8.62,0,0,1,94.85,70c.31-.06.49-.25.82-.35.91-.27,2-.32,2.9-.54.53-.13,1.07-.39,1.61-.52.33-.08.67,0,1-.11.17,0,.28-.2.44-.23.5-.07,1,0,1.56,0a5.93,5.93,0,0,1,1.86.07,6.13,6.13,0,0,1,3.09,2.21,8,8,0,0,1,1.66,3.66,25.68,25.68,0,0,1,.38,3.69,45.11,45.11,0,0,1,.14,5.75,20.47,20.47,0,0,1-1.41,5.69c-.46,1.18-1,2.25-1.54,3.48a13.08,13.08,0,0,1-2.83,4,11.76,11.76,0,0,1-4.5,2.72,10.31,10.31,0,0,1-6.59-.13,16.19,16.19,0,0,1-5.17-3A7.61,7.61,0,0,1,85.88,93.73Z" fill-rule="evenodd"/></svg>