<svg xmlns="http://www.w3.org/2000/svg" viewBox="0 0 160 111"><title>illo-mint-cake</title><path d="M51.65,56.78c-13.27-1.62-30.23-1.52-41.38,6.94C-.61,72-2.37,87.5,8.31,96.74c10.51,9.08,26.19,11.15,39.49,12.33,14.78,1.32,30.83,2.7,45.32-1.15,8.08-2.16,6.76-15.89-2-15a100.33,100.33,0,0,1-35.62-2.65,93.69,93.69,0,0,1-16.38-5.92c-2.66-1.27-10.76-4.33-10-8.4C31,66.3,16.25,62.19,14.37,71.85,10.93,89.55,29.31,97.49,43,102.37a111.42,111.42,0,0,0,48.11,5.82l-2-15c-10.36,2.77-21.38,1.76-32,1.23-10.88-.54-22.25-1.4-32.46-5.52-6.74-2.72-12.24-8.75-3.88-13.81s21.51-4.13,30.92-3c4.1.5,7.65-3.88,7.65-7.65,0-4.55-3.53-7.14-7.65-7.65Z"/><path d="M110.32,38.32C85.17,37.12,58.4,37,36.88,50.13c-6.17,3.75-12.1,9.16-13.17,16.3a20.64,20.64,0,0,0,1.78,11c4.23,9.93,13.39,17.13,23.42,21.11s21,5.08,31.72,5.65c19,1,38.8.33,55.87-8.1,9.72-4.8,18.73-12.88,20.69-23.55,1.73-9.39-4.66-14.87-11.73-21.29s-25.64-12-35.14-12.94" fill="#965e20"/><path d="M110.64,38.61c-.8-.7.1-.9,1.51-.89.71,0,1.52.12,2.31.21l2.06.34c2.37.42,5,1.19,6.3,1.51.5.11.87,0,1.3.11,3.63,1,7.22,2.37,10.43,3.58.62.24.48,0,.69,0a1.53,1.53,0,0,1,.52.47,16.07,16.07,0,0,1,1.58.44,37.93,37.93,0,0,1,5.88,3.24l1.42,1c.47.34.91.76,1.37,1.14.9.77,1.64,1.51,2.48,2.25a43,43,0,0,1,7.41,8,17.68,17.68,0,0,1,2.39,5.21,16.82,16.82,0,0,1,.49,6,24.3,24.3,0,0,1-1.6,7,25.55,25.55,0,0,1-3.5,5.91c-1.37,1.72-2.79,3.25-4.15,4.66-1.3,1.06-.05,1-1,1.86-1.4,1.36-1.79,1-2.89,1.77-2.73,2.57-6.06,4.24-9.23,5.86a74.22,74.22,0,0,1-6.82,3.34,37.5,37.5,0,0,1-4,1.38c-1.36.44-2.78.8-4.24,1.19-2.22.61-5.22,1.19-7.71,1.78-1.59.37-2.75.93-4.13,1.28-1.56.34-3.55.61-5.22.85a82.77,82.77,0,0,1-14.42,1c-2.47,0-5.17-.15-7.18-.31-.47,0-.65.13-1,.08s0-.23-.64-.26c-3-.2-4.5-.16-8.15-.51l-7.59-.7c-1.42-.16-2.94-.48-4.3-.69-2.44-.38-4.72-.71-7.08-1.23a38.81,38.81,0,0,1-7.54-2.41,39.66,39.66,0,0,1-7.85-4.71c-1-.78-1.57-1.54-2.34-2.21-1-.9-1.88-1.5-2.91-2.5-.38-.39-.3-.41-1.18-1.32a45.41,45.41,0,0,1-4-4.38,37.43,37.43,0,0,1-4.37-7.56,29.83,29.83,0,0,1-2.21-8.13,22.24,22.24,0,0,1,0-7A18,18,0,0,1,24.4,58.5a32.18,32.18,0,0,1,10.72-9.64A72.47,72.47,0,0,1,48.2,43,80.33,80.33,0,0,1,57,40.52a34.3,34.3,0,0,1,3.86-.59l1.93-.24c.65-.06,1.29-.12,1.94-.21,2.7-.39,5.37-.95,8-1.21l4.19-.35,4.46-.29c2-.1,4.1,0,5.78-.13,1.11-.06,2.11-.37,3.2-.41.8,0,1.66.08,2.57.09h3.53c1.48.05,2.86.31,4.17.31s3.22-.28,4.81-.32c1.32,0,3.38-.27,4.8.42,1,1.08-2.25.84-3.21.8-3.48.48-8.3.19-12.78.29-2.93.05-5.64.32-8.58.48-1.13.07-2.28.13-3.44.17l-3.55.22a118.45,118.45,0,0,0-15,2.24A80.69,80.69,0,0,0,51.82,45a43,43,0,0,0-5.11,2.22,23.43,23.43,0,0,0-3.78,2.41A18,18,0,0,0,40,51c-.94.54-1.9,1.07-2.79,1.69A29,29,0,0,0,29,60.67a13.41,13.41,0,0,0-2.13,9.8,23.15,23.15,0,0,0,3,8,29.12,29.12,0,0,0,3.76,4.67,39.33,39.33,0,0,0,7.89,6.69,41.46,41.46,0,0,0,8.78,3.86,123.29,123.29,0,0,0,21.94,5c2.59.4,5.08.93,7.78,1.24s5.69.44,8.5.65c2.5.18,5,.56,7.55.57,1.73,0,3.6-.17,5.32-.21,4.19-.14,8.39,0,12.53-.47a31,31,0,0,0,3.27-.55l3.17-.66c2-.4,3.94-.67,5.83-1.17A68.58,68.58,0,0,0,137,94c.72-.33,1.51-.75,2.32-1.09s1.58-.71,2.27-1c2-1.52,4.39-3.16,6.57-5.14a19.78,19.78,0,0,0,5.11-6.69,20.58,20.58,0,0,0,3.39-8,13.94,13.94,0,0,0-1.57-9.56,35.71,35.71,0,0,0-6.73-8c-1.27-1.18-2.52-2.42-3.78-3.5a31.28,31.28,0,0,0-3.94-2.86c-.75-.48-1.39-1-2.15-1.4-1.76-.9-3.72-1.32-4.94-2.32-3.55-.84-8.7-3-13.44-4.16-1.74-.44-3.51-.86-5-1.09C113.34,38.89,111.94,39.19,110.64,38.61Z" fill-rule="evenodd"/><path d="M110.65,38.52c-.83-.48.07-.56,1.46-.49.69,0,1.5.16,2.28.27l2,.36c2.35.44,5,1.17,6.27,1.51.5.12.84.08,1.27.2a107.69,107.69,0,0,1,10.38,3.57c.61.25.44.05.65.12a2.24,2.24,0,0,1,.54.39c.79.3.85.21,1.54.52a41.63,41.63,0,0,1,5.82,3.18l1.4,1c.47.33.89.74,1.34,1.1.88.75,1.65,1.5,2.48,2.23a44.51,44.51,0,0,1,7.32,8,17.14,17.14,0,0,1,2.34,5,16.22,16.22,0,0,1,.46,5.79,23.61,23.61,0,0,1-1.65,6.78,27.17,27.17,0,0,1-3.39,5.81,52,52,0,0,1-4.07,4.59c-1.25,1.08-.22.78-1.14,1.65A13.49,13.49,0,0,1,145.26,92a42.12,42.12,0,0,1-9.15,5.69,72.49,72.49,0,0,1-6.82,3.13c-1.26.49-2.55,1-3.91,1.33s-2.74.78-4.2,1.16c-2.19.58-5.16,1.15-7.64,1.67-1.58.31-2.75.72-4.12,1-1.54.27-3.52.52-5.17.7a99,99,0,0,1-14.29.77c-2.44,0-5.12-.14-7.13-.27-.46,0-.64.06-1,0s0-.14-.65-.18c-2.92-.18-4.47-.18-8.09-.51-3.36-.33-5-.46-7.48-.75-1.4-.17-2.9-.46-4.23-.68-2.39-.4-4.6-.79-6.89-1.34a43.89,43.89,0,0,1-7.31-2.39A42.11,42.11,0,0,1,39.52,97c-1-.71-1.6-1.36-2.37-2-1-.82-1.85-1.42-2.87-2.36-.38-.37-.32-.35-1.19-1.22a44.37,44.37,0,0,1-3.92-4.19A36.22,36.22,0,0,1,24.78,80a28.31,28.31,0,0,1-2.32-7.8,20.17,20.17,0,0,1,0-6.71A17.48,17.48,0,0,1,25.13,59,32,32,0,0,1,35.52,49.5a73.37,73.37,0,0,1,12.88-6A81,81,0,0,1,57.08,41c1.27-.34,2.55-.49,3.82-.71l1.91-.3,1.93-.26c2.68-.44,5.36-.92,7.93-1.2l4.18-.38,4.46-.29c2-.1,4.09-.09,5.78-.17,1.1,0,2.1-.24,3.19-.27.8,0,1.66,0,2.57.06h3.53c1.47,0,2.85.21,4.17.22s3.2-.13,4.8-.13a17.19,17.19,0,0,1,4.8.34c1,.69-2.23.48-3.2.44-3.47.24-8.29,0-12.78.06-2.93,0-5.65.2-8.6.33l-3.45.16-3.55.22a121.51,121.51,0,0,0-15.09,2.14,84.85,84.85,0,0,0-11.86,3.21,50.24,50.24,0,0,0-5.19,2.14,33.12,33.12,0,0,0-3.92,2.23,23.46,23.46,0,0,0-2.92,1.47c-.94.54-1.92,1.07-2.84,1.7a30.51,30.51,0,0,0-8.63,8.11,14.74,14.74,0,0,0-2.48,10.53,24.26,24.26,0,0,0,3.09,8.53,29.7,29.7,0,0,0,3.77,5,40.12,40.12,0,0,0,8.13,7.07,44.47,44.47,0,0,0,9,4.27,103.06,103.06,0,0,0,22.47,5.08c2.63.34,5.16.74,7.87,1s5.72.39,8.55.54c2.53.13,5,.38,7.62.36,1.74,0,3.63-.14,5.36-.2,4.22-.18,8.45-.25,12.62-.81,1.08-.15,2.2-.33,3.29-.57s2.19-.44,3.2-.69c2.07-.43,4-.81,5.85-1.34a69.83,69.83,0,0,0,10.83-4.31c.73-.34,1.51-.78,2.31-1.16s1.56-.79,2.21-1.11A66.33,66.33,0,0,0,148.39,87a23.67,23.67,0,0,0,5.2-6.76,22.09,22.09,0,0,0,3.27-8.19,14.26,14.26,0,0,0-1.64-9.69,35.72,35.72,0,0,0-6.78-8c-1.28-1.19-2.53-2.41-3.8-3.49a30.92,30.92,0,0,0-4-2.82c-.75-.47-1.43-.92-2.19-1.34-1.76-.88-3.67-1.45-4.95-2.28-3.47-1-8.69-3.09-13.42-4.23-1.75-.44-3.51-.84-5-1.09A38.31,38.31,0,0,1,110.65,38.52Z" fill-rule="evenodd"/><path d="M143.23,24.6,142,60.48c-1.46,7.21-8.34,12.65-15.77,15.86-13,5.63-28.23,6-42.81,5.25-8.27-.43-16.64-1.22-24.35-4S44.32,70,41,63.24a12.57,12.57,0,0,1-1.41-7.46l-.12-32.14" fill="#8adb9b"/><path d="M105.93,3.41C86.64,2.49,66.11,2.32,49.66,11.1c-4.72,2.51-9.24,6.15-10,11A12.57,12.57,0,0,0,41,29.55c3.28,6.74,10.34,11.65,18.05,14.39s16.08,3.53,24.35,4c14.58.76,29.76.38,42.81-5.26C133.68,39.43,140.56,34,142,26.79c1.29-6.36-3.64-10.09-9.08-14.47s-19.72-8.21-27-8.91" fill="#422917"/><path d="M106.13,4.46c1.17.34,1.13,1,2.22,1.39.66-.22,1.21,0,.53.45,1.59-.13,3.29.78,5,1.14.9.21,1.76.13,2.7.32.61.12,1.41.43,2,.58A55.59,55.59,0,0,1,124,9.92a43.7,43.7,0,0,1,6.65,2.76c.53.29,1,.59,1.5.94l1.57,1.15c1,.77,2.08,1.56,3,2.42a15.42,15.42,0,0,1,3.75,4.61,8.34,8.34,0,0,1,.72,2.77c0,.17,0,.35,0,.52a13.1,13.1,0,0,1,.88,4.23,11.34,11.34,0,0,0,1.23-4.3,9.65,9.65,0,0,0-1-4.58,15,15,0,0,0-2.67-3.74c-2.08-2.16-4.28-3.86-6.24-5.57A27.48,27.48,0,0,0,125.37,7c-2.79-1-5.58-1.8-8.23-2.63a57.31,57.31,0,0,0-6.93-2.05,8.85,8.85,0,0,0-4.28,1.2C106,3.56,107.68,4.31,106.13,4.46Z" fill-rule="evenodd"/><path d="M40.31,23.05a8.35,8.35,0,0,1,.38-2,13.11,13.11,0,0,1,4-5.72,30.24,30.24,0,0,1,7.93-4.79,55.59,55.59,0,0,1,8.62-3A96.61,96.61,0,0,1,78.39,5c4.48-.36,9.17-.42,13.42-.49,1.42,0,2.88-.24,4.3-.18,1,0,2.08.26,3.06.32,1.81.1,3.19,0,4.92,0,2.23-1.35,2.8-1.92-.17-3.13C100.53.09,98.54.62,94,.92l-7.46.51c-3.29.23-7.06.71-10.54,1.13a93.64,93.64,0,0,0-12,1.9C58.64,5.82,54.55,7.8,50.39,9.34c0,.63-1.31,1.12-2,1.58-1.83,1.19-4.51,2.64-6.5,5.05a13.47,13.47,0,0,0-2.68,5A11.85,11.85,0,0,0,39.33,27c.13.46.27.88.42,1.3A27.49,27.49,0,0,1,40.31,23.05Z" fill-rule="evenodd"/><path d="M38.92,24.12c.42.21.41-.94.76-.27.2,1.13-.13,2.52.18,3.47-.14,5.28-.39,10.23-.28,15.21,0,.5.22,1,.26,1.6.08,1.15-.06,2.5,0,3.47,0,.58.16,1,.17,1.59s-.1,1.63-.07,2.41c0,1.36.2,2.74.36,4.17v.12a11.15,11.15,0,0,0,.44,3.49,17.46,17.46,0,0,0,4.64,7.92,4.05,4.05,0,0,0,.6.94,12,12,0,0,0,1.07,1.09,21.53,21.53,0,0,0,2.4,1.81c3.21,2.11,6.52,4,9.87,4.87,1.31.33,2.42.39,3.57.71.57.15,1.38.48,2,.6,1.3.29,3,.4,4.62.61a32.84,32.84,0,0,0,4.66.49c1.4.39,2.88.53,4.65.86.39.07.64.26,1,.32.55.09,1.16,0,1.58.11.2,0,.33.25.51.28a20.79,20.79,0,0,0,2.64.31,12.56,12.56,0,0,0,2.94-.47,22.55,22.55,0,0,0,3.18-.33,66.49,66.49,0,0,1,8.13-.15,28.45,28.45,0,0,0,5.76,0c2.59-.68,5.79-1.15,8.93-1.82A34.11,34.11,0,0,0,122,74.76a19.67,19.67,0,0,0,5.67-2.06c.85-.16,1.28.1,2.34-.44a21,21,0,0,0,5-4.42,10.29,10.29,0,0,0,2.05-2.6c.25.2.91-1.14,1.16-1.17a34.24,34.24,0,0,0,2-4l0,.31c0-.18.07-.34.11-.5a43.37,43.37,0,0,1,.65-9.32c.19-8.59.51-16.75.76-25.34.43-1,1.07-.86,1.43,0,.08,3.71-.38,7.16-.09,10.14-.6,3.25-.28,7.21-.44,10.67-.12,2.45-.45,5.18.09,7.21a5.9,5.9,0,0,0,.07,2.94c-.27,1-.05,1.93-.26,2.93.06.35.11.79.15,1.3v.1a14.38,14.38,0,0,1-1.87,5.6,25.16,25.16,0,0,1-3.38,4.48,26.61,26.61,0,0,1-3.54,3.19,20.93,20.93,0,0,1-4.56,2.61c-2.51,1.67-5,3-7.23,4.3a70,70,0,0,1-7.48,2.11,37.67,37.67,0,0,0-4.94.59,13.48,13.48,0,0,0-4.93.3,73.53,73.53,0,0,1-13.31,1.11c-1.88,0-4.14-.2-4.61-.12-3.52-.26-7.15-.47-11-.86a76.55,76.55,0,0,1-11.78-2,51.71,51.71,0,0,1-6.41-2,40.85,40.85,0,0,1-6.86-3.55A36.73,36.73,0,0,1,44.24,71c-2.6-2.64-5.39-6.36-6.25-10.09a12.9,12.9,0,0,1-.12-5.28l0-.11,0,.29c.19-5.56.22-12.75.27-17.52.12-.14.21-.39.33-.53C38.47,32.77,38.66,28.69,38.92,24.12Z" fill-rule="evenodd"/><path d="M149,84.58a.34.34,0,0,0,.28.06,1.68,1.68,0,0,0,.5-.18c.08,0,.22,0,.3-.07s.11-.12.19-.16.21,0,.28-.09.15-.16.24-.22.21-.12.31-.18.15-.21.31-.19c.09-.27.33-.4.51-.58.44-.44.81-.92,1.24-1.34a14,14,0,0,0,1.25-1.42c.22-.3.49-.69.76-1.09a9.9,9.9,0,0,0,.67-1.27,17,17,0,0,0,.88-2.25,2.92,2.92,0,0,0,.13-.46c0-.09,0-.2,0-.28s.09-.32.11-.47a4,4,0,0,0,0-.91,7.72,7.72,0,0,1-.06-.83,5,5,0,0,0-.49-.79c0-.09-.06-.14,0-.22s.09-.1.09-.2-.18-.06-.2-.11.08-.12,0-.13-.29.1-.44.12-.1-.11-.22-.14-.09.08-.22.13a3.25,3.25,0,0,0-.69.83s-.2-.07-.19,0a13.21,13.21,0,0,1-.93,1.51.32.32,0,0,1-.22.14c-.06.24-.28.38-.4.57a12.15,12.15,0,0,0-.58,1.07c-.09.19-.22.35-.31.55-.22.47-.48,1-.71,1.48s-.38.9-.59,1.3a.74.74,0,0,0-.05.23s-.06.1-.07.14c-.15.34-.34.57-.5.89-.08.15-.11.34-.19.49-.18.34-.41.66-.59,1-.29.5-.5,1.08-.81,1.61a1.24,1.24,0,0,0-.26.67s.15,0,.15.16-.34.27-.29.59c.13.1.16,0,.26.19C148.55,84.67,148.83,84.8,149,84.58Zm.15,0c.07.08-.06,0-.07.06S149.13,84.53,149.15,84.53Z" fill="#e29e5a" fill-rule="evenodd"/><path d="M126.94,96.17a.56.56,0,0,0,.23.16,2.2,2.2,0,0,0,.44,0c.08,0,.18.08.25.09s.11,0,.18,0,.17.07.23.07.16,0,.24,0a2.89,2.89,0,0,1,.29,0c.09,0,.19-.07.29,0,.19-.14.41-.09.64-.1.55,0,1.12-.13,1.73-.14a10.59,10.59,0,0,0,2-.24,8.82,8.82,0,0,0,1.47-.5,8.29,8.29,0,0,0,1.32-.74,22,22,0,0,0,1.86-1.32,1.72,1.72,0,0,0,.33-.26c.06-.06.07-.16.12-.22a3,3,0,0,1,.33-.24,4.8,4.8,0,0,0,.51-.59,3.06,3.06,0,0,1,.48-.53c.07-.3.26-.5.33-.81.09,0,.08-.13.16-.16s.12,0,.2,0,0-.19,0-.23.14,0,.09-.09-.2-.22-.29-.34.06-.15,0-.27c-.13,0-.13,0-.24-.13a2.53,2.53,0,0,0-1.26-.08c-.05,0-.06-.2-.14-.14-.56.07-1.42.43-2.06.59a.39.39,0,0,1-.3,0,2.74,2.74,0,0,1-.75.28,9.56,9.56,0,0,0-1.14.63l-.55.28-1.2.76a6.8,6.8,0,0,1-1.18.58c-.11,0-.12.08-.2.13s-.1,0-.14,0c-.34.15-.63.19-1,.31-.16.06-.31.17-.48.24-.38.13-.78.23-1.16.38a9.26,9.26,0,0,0-1.7,1c-.24.16-.45.29-.53.56,0,0,.13.09.1.19-.2.17-.41.2-.42.52.11.11.15.08.23.23C126.53,96.12,126.76,96.31,126.94,96.17Zm.14,0c0,.09-.06,0-.07,0S127.06,96.17,127.08,96.18Z" fill="#e29e5a" fill-rule="evenodd"/><path d="M94.25,100.52a.39.39,0,0,0,.14.26,1.68,1.68,0,0,0,.45.27c.08,0,.17.15.25.19s.16,0,.24,0,.17.13.25.16a2.91,2.91,0,0,0,.31,0l.33.12c.11,0,.25,0,.34.12a1.59,1.59,0,0,1,.75,0c.61.06,1.21,0,1.78.1a15.16,15.16,0,0,0,1.75.1,23.62,23.62,0,0,0,2.47-.19c.73-.11,1.49-.13,2.12-.25a2.65,2.65,0,0,0,.42-.06c.08,0,.15-.11.23-.13a3.53,3.53,0,0,1,.42-.06,4.25,4.25,0,0,0,.79-.3,4.93,4.93,0,0,1,.72-.29c.19-.25.45-.38.63-.67.09,0,.11-.09.2-.1s.11.07.2,0,0-.19.08-.22.13.06.11-.06-.14-.27-.19-.41.09-.12.1-.25-.1-.07-.17-.18a2.56,2.56,0,0,0-1-.47s0-.22-.06-.18c-.47-.15-1.28-.21-1.88-.4a.33.33,0,0,1-.24-.15,2.69,2.69,0,0,1-.76-.13,7.92,7.92,0,0,0-1.38,0c-.24,0-.48,0-.72,0a12.94,12.94,0,0,0-1.76.3c-.5.12-1,.26-1.44.34-.13,0-.14.07-.23.1a.8.8,0,0,1-.15,0c-.36.1-.65.11-1,.18-.17,0-.33.13-.5.16-.37.08-.75.12-1.12.18-.56.1-1.12.3-1.72.41a1.17,1.17,0,0,0-.67.22s.06.15,0,.22c-.25,0-.42-.09-.63.15,0,.17.07.16,0,.33C93.9,100.23,94,100.53,94.25,100.52Zm.14.08c0,.11,0,0-.09,0S94.37,100.59,94.39,100.6Z" fill="#e29e5a" fill-rule="evenodd"/><path d="M66.59,98.89a.42.42,0,0,0,.12.26c.11.13.23.15.37.26s.14.16.2.2.14,0,.2,0,.14.13.2.16.17,0,.25.07a2.29,2.29,0,0,1,.27.14c.09,0,.21,0,.26.14.23-.08.43.06.63.11.51.13,1,.19,1.51.35a12.53,12.53,0,0,0,1.54.41,17.13,17.13,0,0,0,2.35.24c.72,0,1.48.09,2.13,0a3.15,3.15,0,0,0,.44,0c.08,0,.15-.1.23-.12s.3,0,.44,0a5.36,5.36,0,0,0,.79-.3,5.12,5.12,0,0,1,.71-.34,4.76,4.76,0,0,0,.51-.73c.1,0,.1-.12.18-.13s.11,0,.19,0,0-.19,0-.22.13,0,.09-.09S80,99.09,80,99s0-.13,0-.25c-.1,0-.1-.06-.18-.16a2.68,2.68,0,0,0-.9-.37s0-.21-.07-.18a9.43,9.43,0,0,1-1.5-.38.27.27,0,0,1-.19-.16c-.22,0-.41-.13-.61-.19a6.57,6.57,0,0,0-1.12-.16c-.2,0-.4-.09-.61-.1a12,12,0,0,0-1.59,0c-.46,0-.94.08-1.37.08a.71.71,0,0,0-.22,0c-.05,0-.11,0-.15,0-.35,0-.62,0-1,0-.16,0-.33.07-.49.08l-1.09,0c-.54,0-1.1.19-1.68.28a.91.91,0,0,0-.63.23s0,.14,0,.21c-.23.05-.4-.07-.58.18,0,.16.07.15,0,.32C66.28,98.61,66.36,98.91,66.59,98.89Zm.12.08c0,.1,0,0-.08,0S66.69,99,66.71,99Z" fill="#e29e5a" fill-rule="evenodd"/><path d="M44.33,93.1a.49.49,0,0,0,.06.27c.08.14.17.18.28.3s.1.16.15.2.11,0,.16.07.1.14.15.17.14,0,.21.07.14.11.21.15.17,0,.22.14c.18-.07.34,0,.51.1.4.11.8.14,1.17.27a7.49,7.49,0,0,0,1.12.3c.44.07,1.13.15,1.6.17s.94.14,1.36.16c.09,0,.17.06.26,0s.13-.07.19-.08.18,0,.27,0a2.37,2.37,0,0,0,.57-.08,2.59,2.59,0,0,1,.55-.07c.22-.17.43-.21.66-.4,0,0,.11-.05.17,0s0,.1.1.11.1-.16.14-.17.06.09.11,0a3.32,3.32,0,0,0,.07-.42c.06-.1.11-.08.18-.19-.09,0,0-.1,0-.22a1.67,1.67,0,0,0-.47-.77s.1-.19,0-.19c-.26-.29-.82-.6-1.19-.93a.31.31,0,0,1-.12-.21c-.21,0-.35-.23-.52-.33a4.33,4.33,0,0,0-1-.32,3.41,3.41,0,0,0-.53-.13,5.16,5.16,0,0,0-1.36,0c-.38,0-.77.12-1.11.14-.09,0-.11.05-.17.07a.26.26,0,0,1-.12,0c-.27.06-.48,0-.73.07s-.25.09-.38.11-.54,0-.81.07-.83.2-1.26.26a.68.68,0,0,0-.5.17s0,.15,0,.21-.28-.12-.45.11a1.22,1.22,0,0,1,0,.33C44.12,92.78,44.14,93.08,44.33,93.1Zm.08.09c0,.1,0,0-.06,0S44.4,93.18,44.41,93.19Z" fill="#e29e5a" fill-rule="evenodd"/><path d="M30.09,81.43a.42.42,0,0,0-.13.23,1,1,0,0,0,0,.39c0,.07,0,.18,0,.24s.07.08.08.14a1.7,1.7,0,0,0,0,.22c0,.06.07.1.1.17a1.89,1.89,0,0,0,.05.23c0,.07.11.1.05.24.19,0,.22.23.3.36.22.31.49.57.69.87a5.9,5.9,0,0,0,.67.87,8.57,8.57,0,0,0,1.26,1,10.44,10.44,0,0,0,1.32.84c.1,0,.18.13.29.15s.16,0,.22,0a2.08,2.08,0,0,1,.3.13,2.5,2.5,0,0,0,.67,0c.23,0,.41,0,.63,0a2.82,2.82,0,0,0,.62-.47c.06,0,.11-.07.16-.06s0,.08.12.08,0-.18.09-.2.07.07.08-.05a3.25,3.25,0,0,0,0-.42c0-.11.08-.11.11-.23s0-.09,0-.2a1.71,1.71,0,0,0-.3-.61s.09-.19,0-.17a4.86,4.86,0,0,1-.51-.75.24.24,0,0,1,0-.19c-.12,0-.12-.22-.19-.32a2.83,2.83,0,0,0-.5-.47,2.33,2.33,0,0,0-.28-.26,5.07,5.07,0,0,0-.92-.54c-.29-.14-.6-.26-.85-.41-.07,0-.11,0-.17,0l-.09,0a5.5,5.5,0,0,1-.54-.32c-.1,0-.24-.06-.33-.11s-.4-.26-.6-.39-.7-.3-1-.5c-.15-.08-.24-.18-.45-.14,0,0-.09.13-.17.14s-.11-.25-.38-.18-.09.13-.23.23S30,81.31,30.09,81.43Zm0,.11c-.09.07,0-.05,0,0S30.09,81.53,30.09,81.54Z" fill="#e29e5a" fill-rule="evenodd"/><path d="M25.93,68.75a.49.49,0,0,0-.24.1c-.13.08-.15.15-.24.24s-.14.09-.17.14,0,.07,0,.11-.11.1-.13.14,0,.09,0,.15-.07.11-.09.17,0,.11-.1.17c.12.1,0,.23,0,.35,0,.28.05.55,0,.83A3.6,3.6,0,0,0,25,72a4.67,4.67,0,0,0,.41,1.09c.18.31.26.64.44.9,0,.06,0,.13.1.18s.12,0,.15.07.06.12.1.17a1.34,1.34,0,0,0,.37.28,2.07,2.07,0,0,1,.36.25c.26,0,.42.1.71.11,0,0,.11,0,.12.06s-.05.06,0,.1.18,0,.21,0,0,.07.08,0,.24-.13.37-.19a2.29,2.29,0,0,0,.25,0s.06-.06.16-.12a1.22,1.22,0,0,0,.35-.55s.21,0,.17-.07c.1-.24.08-.59.2-.89a.23.23,0,0,1,.13-.13c-.06-.11,0-.24.06-.35a1.46,1.46,0,0,0-.11-.58,1.09,1.09,0,0,0-.07-.3,2.59,2.59,0,0,0-.43-.68,6.83,6.83,0,0,1-.45-.55s-.07,0-.11-.08,0,0,0-.06a3.44,3.44,0,0,1-.24-.39c-.05-.07-.15-.12-.2-.19s-.16-.3-.25-.45-.37-.44-.51-.69c-.06-.1-.08-.2-.27-.26,0,0-.14.05-.21,0s.06-.2-.2-.25a1.64,1.64,0,0,1-.32,0C26.2,68.55,25.91,68.63,25.93,68.75Zm-.06.07c-.11,0,0,0,0,0S25.88,68.81,25.87,68.82Z" fill="#e29e5a" fill-rule="evenodd"/><path d="M40.09,24.18c.12,6.51,3.4,12.36,3.3,19.06-.06,3.65-2.88,9.61.06,12.68a1.51,1.51,0,0,0,2.36-.31c3.09-5.82.34-13.42,2.31-19.74.57-1.85-2.33-2.64-2.9-.8A28.2,28.2,0,0,0,44,43c-.07,3.44.88,8-.78,11.12l2.35-.3c-1.14-1.2.42-5.44.59-7a38.38,38.38,0,0,0,0-8.09c-.51-5-3-9.62-3.1-14.57,0-1.93-3-1.94-3,0Z" fill="#422917"/><path d="M47.64,36.79c4.81,6,2.06,15.41,1.76,22.39-.09,2-1,8.52,2.79,8.08a1.53,1.53,0,0,0,1.5-1.5c-.13-3.7-.13-7.41.11-11.11s-.09-9.42,3.09-11.91c1.52-1.18-.61-3.29-2.12-2.12-2.69,2.11-3.06,5.28-3.45,8.5a107.57,107.57,0,0,0-.63,16.64l1.5-1.5c.29,0,1.11-17,1.1-18.37,0-4.2-.88-7.91-3.52-11.22-1.21-1.51-3.32.63-2.13,2.12Z" fill="#422917"/><path d="M55.13,40.16H53.59a1.5,1.5,0,0,0,0,3h1.54a1.5,1.5,0,0,0,0-3Z" fill="#422917"/><path d="M55.68,43.57c4.76-.39,2.32,11.83,3.26,14.26a1.52,1.52,0,0,0,2.51.66,4.58,4.58,0,0,0,1.49-3.71,18.68,18.68,0,0,0-.39-2.7,14,14,0,0,1-.29-2.33q-.82-3.63,4.71,0c1.52,2.49.42,8.9.23,11.74-.14,2.11-.48,3.75.62,5.62a1.52,1.52,0,0,0,2.59,0c1.52-2.37,1.52-4.48,1.19-7.23C71,55,71,51.17,74.54,47.34a1.52,1.52,0,0,0-1.06-2.56c-2.21.15-8.1.13-5.12,4.2A1.5,1.5,0,0,0,71,47.46l-.64-1.24c-.89-1.72-3.47-.2-2.59,1.51L68.36,49,71,47.46c.38.52,2,.35,2.53.32l-1.06-2.56a15.22,15.22,0,0,0-4.18,8.06c-.65,4,1.94,8.58-.42,12.26h2.59c-1.13-1.91-.07-5.63,0-7.76a42.23,42.23,0,0,0-.25-7.2c-.41-2.82-1.46-5.79-4.39-6.85a4.74,4.74,0,0,0-5.8,1.84c-1.75,3,1.49,8.79-.61,10.8l2.51.66c-.72-1.84.21-4.55,0-6.53a25.13,25.13,0,0,0-1.25-6.39c-.87-2.29-2.43-3.75-5-3.54-1.91.16-1.93,3.17,0,3Z" fill="#422917"/><path d="M73.15,48.23c5,.65,1.95,16.71,3.27,20.23a2.93,2.93,0,0,0,5.21.91c1.16-1.44.72-3.21.43-4.86a46.66,46.66,0,0,1-.56-10.29c0-1,.11-2,.18-3.08L86,50.33c.89.62.46,4.32.59,5.48.24,2,.51,3.42,2.33,4.41a1.5,1.5,0,0,0,1.52,0c4.69-3.11-2-8.54,1.37-12a1.51,1.51,0,0,0-1.06-2.56c-1.31-.11-2.33.24-3.64,0a29.57,29.57,0,0,0-3.18-.8c-1.94-.14-5.25,0-6.69,1.49s-.94,3.8-.56,5.72a62.41,62.41,0,0,1,1.1,15.25c-.09,1.93,2.91,1.92,3,0a65.37,65.37,0,0,0-.07-8.28c-.21-2.48-1.17-5.32-1.14-7.76,0-4.47,3.78-3.48,6.93-2.58,1.65.47,2.5-.2,4.25,0l-1.06-2.56A6.17,6.17,0,0,0,88.05,52c0,.15.82,3.12.88,3.11.79-.26.44-2.12.43-2.62A10,10,0,0,0,88.3,48.2c-2.1-4-7.73-4.4-9.23.26-1.08,3.35-.77,7.69-.62,11.14.09,1.95.48,3.78.71,5.71s0,1.19-.07-.29c0-1.11-.07-2.22-.1-3.33-.16-5.33,1.54-15.49-5.84-16.46-1.91-.25-1.89,2.75,0,3Z" fill="#422917"/><path d="M138.1,28.77a32.93,32.93,0,0,0-1.17,7.64c-.07,2.78.36,5.52,0,8.3l2.94-.39c-1.65-4.46-.16-9-4-12.66-1.4-1.33-3.53.79-2.12,2.12,3.2,3,1.82,7.56,3.22,11.33a1.51,1.51,0,0,0,2.95-.4c.58-5.16-.36-10,1-15.14a1.5,1.5,0,0,0-2.89-.8Z" fill="#422917"/><path d="M138.69,36.21c-2.58-2.78-6.34-1.63-7.86,1.67-.94,2-.51,4.34-.21,6.46.65,4.57,1.49,9.13,2.23,13.68l1.85-1.85c-.85-.23-1.72-7.36-1.84-8.12-.35-2.27,0-5.3-1.19-7.38a4.06,4.06,0,0,0-5.53-1.45c-2.43,1.22-3,3.89-3,6.4,0,6.39,2.59,12.38,2,18.85l2.25-1.3a35.91,35.91,0,0,0-.61-3.73,57.56,57.56,0,0,1-1.67-8.7c-.21-2.73.34-6.54-2.64-8-7.57-3.76-5,11.58-5,14.36l1.9-1.45-.58-.22,1.1,1.45c-.44-3.83.44-9.41-2.38-12.6a3.77,3.77,0,0,0-6.4.58c-1.86,3.1,0,9.17.29,12.63.42,4.5.76,9,1.38,13.49l2.74-1.16c-2.52-3.88-2-9.77-2.16-14.21-.07-3,.67-8.48-2.34-10.39A4.78,4.78,0,0,0,104.62,47c-2.24,4.73,2.2,11.56.87,16.61l2.74-.35c-2.37-5.57-.09-11.76-3.09-17.22-.92-1.69-3.52-.18-2.59,1.52,2.88,5.25.73,11.68,3.09,17.21.52,1.23,2.43.79,2.74-.36.82-3.1.22-6.13-.3-9.22-.18-1-1.9-7.53.65-7.6,1.61,0,1.61,5.21,1.64,6.26.14,5.43-.5,12.65,2.6,17.42a1.51,1.51,0,0,0,2.75-1.15c-.74-5.26-1-10.59-1.58-15.87-.11-1.08-.23-2.16-.36-3.23-.21-1.89-1.13-2.6.86-3.25,2.55-.83,2.07,7.14,2.29,9A1.59,1.59,0,0,0,118,58.3l.58.23a1.51,1.51,0,0,0,1.9-1.45c-.06-2.78-1.05-7.29-.23-9.91.91-2.87,1.65,2.34,1.84,3.57s.25,2.41.49,3.72c.52,2.94,1.19,5.93,1.86,8.84.3,1.34.1,1.73,1.42,2.46a1.52,1.52,0,0,0,2.26-1.29,41.31,41.31,0,0,0-1-11.3c-.34-1.78-1.39-5.25-1-6.9-.43-1.87.64-2.84,3.2-2.88.06.84.14,1.69.25,2.53C130,49.2,130,58,133.9,59.07a1.52,1.52,0,0,0,1.84-1.85l-1.43-8.79c-.21-1.3-.45-2.6-.64-3.91-.13-.71-.23-1.43-.29-2.16-.55-2,.51-3.32,3.18-4,1.32,1.43,3.43-.7,2.13-2.12Z" fill="#422917"/><path d="M103.12,46c-2.47.17-4.55-.25-5.53,2.51-1.37,3.87.72,8-.5,11.95l2.74-.35c-2.42-4.72.09-12.79-7-14.08l-.39,3c1.8-.15,3.65-.8,4.1,1.28.37,1.7-.07,3.92-.07,5.66A28.83,28.83,0,0,0,98,66a1.51,1.51,0,0,0,2.89,0c.82-2.45.38-4.65-.13-7.13a24.27,24.27,0,0,1-.69-5.09,10.16,10.16,0,0,1,.29-2.85q1.59-2.28,4.36-1c1.21,1.5,3.33-.64,2.12-2.12-2.16-2.67-7.25-1.6-8.92,1.22-3,5,1.76,11.14.08,16.18h2.89a25.1,25.1,0,0,1-1.38-8.68c0-2.56.52-5.62,0-8.15-.7-3.5-4.09-2.66-7.06-2.41-1.56.13-2.19,2.62-.4,2.95,4.72.86,3.36,9.07,5.22,12.69a1.52,1.52,0,0,0,2.74-.36,17,17,0,0,0,.36-6.89,20.47,20.47,0,0,1-.17-3.32c.2-2.52,1-1.92,3-2.05s1.93-3.14,0-3Z" fill="#422917"/><path d="M86.08,29.9c4.11.37,8.8.54,12-2.55,2.15-2.06,3-5.3.55-7.5-3.48-3.15-18.83-2.73-17.75,4.36.93,6.06,14.47,6.74,15.69.73s-13.19-5.33-14.92-.83a1.51,1.51,0,0,0,1,1.84c2.89.9,7.94,2.06,9.92-.91a1.51,1.51,0,0,0-.9-2.2,6.56,6.56,0,0,0-6.44,1,1.52,1.52,0,0,0,0,2.59c2.13,1,4.7,1.58,7,.57,1.66-.75,2.33-2.16,1.43-3.8L92.4,25.45c1.76.16,4.09-.39,4.95-2.17a2.19,2.19,0,0,0-1.29-3.06,10.91,10.91,0,0,0-7.55.41,3.94,3.94,0,0,0-1.63,1.86c-.2.43-.57,3.61-1,3.53-1.55-.28-2.78,1.93-1.15,2.74a10,10,0,0,0,2.1.83V26.7l-1.94-2.42c.59-1.84-2.3-2.63-2.89-.79-1.25,3.9,1.77,6.85,5.63,6.1,1.5-.29,1.34-2.51,0-2.89l-1.39-.53-1.15,2.74c1.4.25,3.07.29,3.94-1.1.53-.85.12-1.72.38-2.6q.78-2.67,3.08-2.21,2.63.26-.08-.55a1.52,1.52,0,0,0-1.3,2.26s-4-.75-4.3-.87v2.59a4.1,4.1,0,0,1,4.14-.7L90,23.52c-.82,1.23-5.58-.17-6.53-.46l1,1.84c.69-1.8,8.94-1.39,8.41.06-.44,1.22-4.81,1.08-5.66.91-.62-.13-2-.39-2.4-.88l0-2.6a8.14,8.14,0,0,1,1.66-.57,20,20,0,0,1,5.28-.67,9,9,0,0,1,2.64.17c1.35.4,2.66,2,1.92,3.32-1.77,3.24-7.37,2.53-10.36,2.26-1.92-.17-1.91,2.83,0,3Z" fill="#8adb9b"/><path d="M94.94,16.05c-4.11-.36-8.8-.53-12,2.56-2.16,2.06-3,5.3-.55,7.5,3.47,3.14,18.82,2.72,17.74-4.36C99.19,15.69,85.65,15,84.43,21s13.19,5.33,14.93.83a1.52,1.52,0,0,0-1-1.84c-2.89-.9-7.93-2.06-9.92.91a1.51,1.51,0,0,0,.9,2.2,6.56,6.56,0,0,0,6.44-1c.81-.62,1.13-2,0-2.59-2.13-1-4.7-1.59-7-.57-1.67.75-2.34,2.16-1.44,3.8l1.3-2.26c-1.76-.16-4.1.4-4.95,2.18A2.2,2.2,0,0,0,85,25.74a11,11,0,0,0,7.55-.41,3.94,3.94,0,0,0,1.63-1.86c.2-.44.57-3.61,1-3.53,1.55.27,2.79-1.93,1.16-2.75a10.6,10.6,0,0,0-2.11-.82v2.89l1.94,2.41c-.59,1.85,2.31,2.64,2.89.8,1.25-3.9-1.76-6.85-5.62-6.1-1.51.29-1.35,2.5,0,2.89l1.38.53L96,17c-1.4-.25-3.08-.29-3.94,1.1-.54.85-.13,1.72-.39,2.61-.52,1.78-1.55,2.51-3.08,2.21-1.74-.18-1.72,0,.09.54a1.51,1.51,0,0,0,1.29-2.25s4,.75,4.3.87V19.53a4.1,4.1,0,0,1-4.13.7l.89,2.2c.82-1.22,5.59.18,6.53.47l-1.05-1.85c-.69,1.81-8.93,1.39-8.41-.06.44-1.22,4.81-1.07,5.67-.9a5.22,5.22,0,0,1,2.4.88l0,2.59a7.66,7.66,0,0,1-1.67.57,20.38,20.38,0,0,1-5.27.68,9.4,9.4,0,0,1-2.65-.17c-1.35-.4-2.66-2-1.92-3.32,1.77-3.25,7.38-2.53,10.36-2.27,1.92.18,1.91-2.83,0-3Z" fill="#55a562"/><path d="M94.94,15.65c-3.87-.27-8.38-.55-11.71,1.88-2,1.46-3.34,4-1.43,6.11,2.51,2.8,8.1,2.09,11.34,1.66,2.52-.33,7.11-1,7-4.48-.16-5.78-13.57-6-15.59-1.5C82.18,24.61,97.29,24.91,99.21,21a1.53,1.53,0,0,0-.9-2.21c-2.61-.64-7.67-1.82-9.68.56a1.52,1.52,0,0,0,.66,2.51A7.91,7.91,0,0,0,95.73,21a1.52,1.52,0,0,0-.35-2.74c-2.09-.78-5.11-1.29-7.18-.11a2.16,2.16,0,0,0-.87,3.24l1.3-2.25c-1.6-.12-4.12.2-4.95,1.87A2,2,0,0,0,85,23.93a11.84,11.84,0,0,0,7.55-.34A3.76,3.76,0,0,0,94.14,22c.25-.47.38-2.74,1-2.65a1.5,1.5,0,0,0,.8-2.89,6,6,0,0,0-1.75-.54v2.9l1.94,1.52c-.72,1.79,2.18,2.57,2.89.8,1.54-3.8-2.44-5.7-5.62-5.22-1.49.23-1.38,2.58,0,2.9a5.65,5.65,0,0,1,1.74.53l.8-2.89c-1.36-.19-3.08-.32-3.94,1-.48.74-.1,1.49-.39,2.22C91,21.22,87,21.81,85.7,20.89l.74,1.3a8,8,0,0,1,2.19,0,1.51,1.51,0,0,0,1.29-2.26c-.27,1.19.34,1.39,1.83.61a7.28,7.28,0,0,1,2.83.66l-.36-2.74a4.82,4.82,0,0,1-4.13.52l.66,2.51c1-1.25,5.54-.09,6.76.21l-.89-2.21c-.51,1-3.64,1-4.54,1.06S88,20.57,88.6,20c.75-.8,3.47-.64,4.52-.55.49,0,2.14.12,2.52.53,1.12,1.24-.25,1.93-1.22,2.13a26.6,26.6,0,0,1-5.27.52c-1.5,0-6-.33-4.21-2.54,1.93-2.37,7.38-1.57,10-1.39,1.93.14,1.92-2.86,0-3Z" fill="#8adb9b"/><path d="M116.92,21.87c-1.09,1.37-2.18-.06-3.2-.38-.48-.14-1.25,0-1.9-.21s-1.13-.67-1.68-.41a36,36,0,0,0-12.08-1.82A92.25,92.25,0,0,0,86.64,20c-1.85.23-3.37.66-5.21.83A36.37,36.37,0,0,0,77,21.94c-.67.15-1.39.13-2.07.26s-1.27.34-1.93.49-1.08.11-1.66.2-1.34.48-2,.61-1.16.08-1.79.19c-1.7.31-4.89-.07-7.11.36-.49-.47-.85-1.05-1.33-1.5A13.3,13.3,0,0,1,63.45,22a14.32,14.32,0,0,0,4.5-.61c1.14.27,2.42-.34,3.7-.55,1.76-.3,3.65-.46,5-1.35.87.2,1.56-.33,2.36-.53.47-.11,1-.07,1.45-.16.93-.18,1.83-.6,2.76-.77.57-.1,1.24.07,1.8,0,.86-.18,1.62-.54,2.48-.66s1.83,0,2.74-.13c.43-.06.84-.31,1.26-.39a39.29,39.29,0,0,1,5-.27c.46,0,1-.15,1.4-.14.86,0,1.69.32,2.55.37,1.21.07,2.42-.09,3.66.09a33.43,33.43,0,0,1,4.62,1,15.15,15.15,0,0,1,2.58.76C112.85,19.59,115.61,20.16,116.92,21.87Z" fill="#5e9648" fill-rule="evenodd"/><path d="M89.49,10.25c.6,0,.58-.1,1.07-.1.3,0-.18.14.26.15-.2.28-.55.59-.38.83,0,0,.31,0,.37,0s-.07.14,0,.17.23,0,.25,0-.14.11-.09.14a7.83,7.83,0,0,0,1,.17c.28.08.13.31.58.31-.54.2-.19.26,0,.28.37.07.07.36.61.33a3.8,3.8,0,0,1,.62-.06s-.11.11-.08.12.39,0,.51,0,0,.14.3.07a3.43,3.43,0,0,0-.48.42s-.28.15-.31.19.08,0,0,.06l-.32.17c-.08.07-.21.19-.17.2a3.77,3.77,0,0,0,.81-.25,2.57,2.57,0,0,0,.6-.15c.27,0,.58-.1.25.22s-.47.42-.3.43c1.18-.46.55.27,1.48-.11-.33.29-.3.36-.26.46a7.27,7.27,0,0,0-.82.71c-.09.15.53-.16.74-.21s0,.14.28,0c-.35.28-.06.12-.33.36,0,.08-.15.33-.41.63.28-.05.32.09-.09.62a7.29,7.29,0,0,1,.86.67,16.13,16.13,0,0,1-1.33,1.54c-.34.09-.14-.4-.64-.09.37-.63-.22-.3-.31-.48s.11-.47-.61,0c.27-.32,0-.1-.29.05.23-.27-.08-.07.08-.28a2.21,2.21,0,0,1-1.37.22c-.25,0-.77.07-.53-.31-.52.16-1.08.34-1.77.61-.08-.22-.52-.11-.48-.29s.48-.52.14-.46c.45-.36.49-.49.15-.46a1.55,1.55,0,0,1-1.27-.31c-.08-.1,0-.31-.14-.28.08-.56-.25-1-.16-1.59,0-.14-.08-.25,0-.44s.41-.87.5-1.2-.29-.42-.18-.67.23-.25.29-.36a3.25,3.25,0,0,0,.28-1.14l.47-.1C88.85,10.81,89.12,10.53,89.49,10.25Z" fill="#5e9648" fill-rule="evenodd"/><path d="M97.77,17.43c.52.3.53.25,1,.52.23.18-.23,0,.14.24-.3.09-.76.14-.71.41,0,0,.26.15.31.2s-.13.07-.06.14.2.11.21.14-.17,0-.15.06a7,7,0,0,0,.83.57c.21.17,0,.27.39.45-.57-.08-.27.1-.15.18.31.18-.08.27.42.45a4.49,4.49,0,0,1,.59.18s-.14,0-.13.05a4.13,4.13,0,0,0,.48.18c.09.06-.06.11.23.16a3.81,3.81,0,0,0-.6.14c-.06,0-.32,0-.36,0s.07,0,0,.06l-.36,0c-.11,0-.27.07-.24.1a4.42,4.42,0,0,0,.84.09,3.68,3.68,0,0,0,.61.09c.26.08.57.13.13.27-.24.08-.6.17-.46.25,1.27.06.39.45,1.39.51-.43.11-.42.19-.44.3a8.77,8.77,0,0,0-1,.26c-.16.1.54.1.76.16s-.07.13.26.11c-.44.08-.11.09-.46.16,0,.1-.29.22-.67.36.26.1.24.25-.39.49a4.91,4.91,0,0,1,.36,1.06,16.43,16.43,0,0,1-2,.46c-.32-.1.13-.37-.45-.38.66-.3,0-.33,0-.5s.34-.31-.54-.23c.4-.14,0-.09-.26-.08.33-.12,0-.09.21-.19a2.53,2.53,0,0,1-1.29-.35c-.22-.07-.7-.23-.31-.43C95.3,24.06,94.71,24,94,24c0-.19-.41-.26-.3-.38s.67-.24.33-.31c.56-.12.66-.21.34-.3s-.94-.41-1-.7c0-.11.13-.26,0-.28.3-.44.17-.92.51-1.41.08-.12,0-.26.15-.41s.75-.6,1-.85,0-.51.15-.68.33-.11.43-.18a4,4,0,0,0,.82-.86l.45.16C96.94,17.52,97.32,17.44,97.77,17.43Z" fill="#5e9648" fill-rule="evenodd"/><path d="M71.71,13c.6-.06.58-.11,1.07-.13.3,0-.18.13.26.12-.19.26-.54.56-.36.77,0,0,.31,0,.37,0s-.07.13,0,.15.23,0,.25,0-.14.1-.09.13a9.21,9.21,0,0,0,1,.08c.28.06.13.27.58.24-.54.22-.19.24,0,.25.37,0,.07.31.6.23.21,0,.58-.14.61-.11s-.11.11-.09.12.39-.06.51-.05,0,.13.28,0a3.89,3.89,0,0,0-.46.41l-.3.2c0,.05.08,0,0,.05l-.3.19c-.09.07-.2.19-.17.2a5.05,5.05,0,0,0,.79-.31,3.56,3.56,0,0,0,.57-.21c.27,0,.57-.16.25.17s-.46.43-.3.42c1.13-.56.53.17,1.41-.3-.32.3-.29.36-.26.44-.28.28-.7.64-.77.76s.49-.22.7-.29,0,.12.25-.08c-.32.3,0,.12-.31.37,0,.07-.14.32-.38.64.26-.08.3,0-.08.58a7.82,7.82,0,0,1,.8.51A15.74,15.74,0,0,1,77,20.23c-.31.13-.13-.36-.59,0,.32-.65-.23-.26-.31-.42s.09-.46-.58.12c.24-.35,0-.09-.28.07.21-.28-.08-.05.07-.27A2.26,2.26,0,0,1,74,20.1c-.24,0-.74.14-.53-.25-.49.21-1,.44-1.7.76-.08-.2-.51-.06-.48-.23s.46-.55.12-.46c.43-.38.47-.51.13-.45a1.49,1.49,0,0,1-1.25-.19c-.08-.09,0-.3-.15-.26.05-.54-.28-.91-.21-1.49,0-.15-.09-.24,0-.42s.38-.85.46-1.16-.3-.39-.19-.62.22-.26.28-.36a3.07,3.07,0,0,0,.25-1.08l.46-.11C71.08,13.51,71.35,13.24,71.71,13Z" fill="#5e9648" fill-rule="evenodd"/><path d="M68.88,22.38c0,.6,0,.59,0,1.08,0,.29-.08-.2,0,.24a.44.44,0,0,0-.27-.28c-.12,0-.25,0-.24.12s.24.19.28.23-.11,0,0,.08.2.11.21.13-.17,0-.14,0a4.39,4.39,0,0,0,.89.39c.23.08,0,.13.46.19-.57,0-.25,0-.12.09.34.14,0,.29.48.41a3.12,3.12,0,0,1,.61.13s-.14.06-.12.08.38.11.48.17-.05.12.24.17a4.67,4.67,0,0,0-.59.18c-.07,0-.32,0-.37.05s.08,0,0,.05l-.36,0c-.11,0-.27.07-.24.1a5.15,5.15,0,0,0,.84.09,2.58,2.58,0,0,0,.6.11c.26.1.57.18.13.3-.25.07-.61.14-.48.22,1.26.18.34.49,1.33.67-.44.06-.45.13-.48.24a8.66,8.66,0,0,0-1.08.1c-.17.06.52.16.73.25s-.09.1.24.13c-.45,0-.13.07-.48.08,0,.08-.32.15-.72.21.24.13.19.25-.47.35a3.65,3.65,0,0,1,.13.92,17.36,17.36,0,0,1-2,0c-.3-.13.19-.26-.37-.36.71-.13,0-.27.12-.39s.39-.2-.49-.26c.42-.05,0-.07-.24-.1.35-.05,0-.08.24-.12a2.87,2.87,0,0,1-1.2-.43c-.22-.07-.66-.23-.25-.34-.51-.1-1.08-.19-1.8-.27.05-.12-.38-.2-.25-.27s.69-.11.36-.18c.57,0,.67-.1.36-.18s-.91-.29-1-.46.13-.15,0-.17c.31-.26.17-.53.47-.82.07-.07,0-.15.12-.24a3.23,3.23,0,0,1,.41-.27l.24-.15a1.2,1.2,0,0,0,.18-.26c.14-.25-.13-.58.08-.82a5.08,5.08,0,0,1,.43-.27c.39-.34.71-.92,1.22-1.35.14.11.26.17.4.29A1.14,1.14,0,0,1,68.88,22.38Z" fill="#5e9648" fill-rule="evenodd"/><path d="M118.16,12.28c0,.6.1.58.08,1.08-.06.29-.19-.19-.23.26-.39-.2-.79-.56-1.13-.37,0,0,0,.31-.06.37s-.19-.06-.25,0,0,.24-.07.26-.14-.13-.19-.08-.21.79-.35,1-.45.15-.52.61c-.21-.54-.34-.17-.4,0-.15.39-.5.1-.55.67,0,.22,0,.61,0,.65s-.13-.11-.16-.07,0,.41-.1.55-.21,0-.18.32c-.2-.28-.28-.22-.49-.44,0,0-.16-.27-.21-.31s0,.1-.09.05l-.17-.32c-.08-.08-.23-.19-.26-.15s.13.57.19.84,0,.21.09.62c0,.31,0,.64-.37.33-.21-.17-.49-.44-.54-.25.35,1.24-.51.69-.22,1.68-.31-.31-.41-.26-.56-.19a6,6,0,0,0-.75-.79c-.18-.08.08.58.09.83s-.18,0,0,.32c-.28-.35-.15,0-.38-.31-.13.07-.4-.1-.73-.34,0,.32-.18.42-.75,0-.31.47-.7.8-1,1.24a10.88,10.88,0,0,1-1.54-1.34c0-.39.49-.24.23-.79.67.32.41-.33.63-.46s.55,0,.07-.72c.35.25.13-.07,0-.32.29.21.1-.12.33,0-.35-.69,0-1.14,0-1.53s0-.85.48-.65a17.94,17.94,0,0,0-.46-1.87c.28-.11.21-.58.43-.56s.57.46.55.09c.37.44.53.47.54.1a1.88,1.88,0,0,1,.57-1.39c.14-.09.39,0,.37-.17.69,0,1.26-.37,2-.33.18,0,.34-.1.57-.07.38,0,1.07.36,1.5.42s.59-.31.9-.21c.14,0,.31.22.44.28a6,6,0,0,0,1.51.24c0,.18.06.3.09.48A1.55,1.55,0,0,1,118.16,12.28Z" fill="#5e9648" fill-rule="evenodd"/><path d="M115.15,37.11c-.51-.33-.56-.22-1-.53-.19-.24.3-.12,0-.41.44-.34,1-.64,1.07-1.17,0,0-.25-.2-.28-.27s.17-.2.12-.32-.19-.17-.18-.23.2-.1.18-.18c0-.28-.56-.68-.72-1s.09-.65-.29-1c.58,0,.31-.34.19-.49-.28-.4.12-.71-.37-1.07-.2-.13-.58-.25-.58-.35s.14-.13.12-.18-.37-.27-.47-.42.06-.28-.24-.4c.34-.13.31-.26.59-.43.06,0,.31-.07.35-.11s-.07-.1,0-.14.32-.05.35-.07.26-.19.23-.26-.58-.12-.86-.19-.19-.18-.62-.21c-.28-.18-.6-.27-.2-.54.22-.15.55-.34.39-.43-.64,0-.75,0-.83-.09s-.12-.08-.57.14c.34-.28.28-.36.22-.49a4.31,4.31,0,0,0,.69-.85c0-.2-.62.12-.9.12s-.11-.23-.4-.05c.31-.33,0-.2.19-.48-.14-.17-.08-.51.07-.91-.43-.08-.7-.42-.43-1.09A6,6,0,0,1,109,20a5.42,5.42,0,0,1,2-.47c.37.28,0,.81.7.81-.45.65.35.64.51.92s.07.66.83.18c-.22.38.11.16.37,0-.17.32.14.12,0,.37.69-.37,1.29,0,1.75,0,.31,0,1,.09,1,.65l2.14-.17c.28.53.85.69.89,1.09s-.43.73,0,.93c-.48.35-.5.59-.12.84a2.92,2.92,0,0,1,1.28,1.68c0,.25-.08.54.06.58-.25.87-.07,1.77-.41,2.74a7.76,7.76,0,0,1-.16.78c-.2.46-.76,1.21-1,1.73s0,.94-.25,1.3c-.13.17-.36.29-.49.44a18.84,18.84,0,0,0-1.14,1.82l-.47-.13A2.22,2.22,0,0,1,115.15,37.11Z" fill="#5e9648" fill-rule="evenodd"/><path d="M105.2,26.66c-.44-.41-.46-.37-.8-.72s.21.06-.1-.26c.29,0,.73.09.73-.15a2.27,2.27,0,0,0-.27-.25c-.06-.1.13,0,.07-.11s-.17-.15-.17-.17.16,0,.14,0a6.76,6.76,0,0,0-.71-.68c-.19-.19,0-.21-.32-.45.54.2.27,0,.16-.1-.27-.22.12-.2-.35-.45A5.15,5.15,0,0,1,103,23s.15,0,.13,0-.35-.17-.44-.23.08-.07-.21-.16a4.26,4.26,0,0,0,.61,0l.36,0c.07,0-.06-.05,0-.05l.36.05c.11,0,.27,0,.25,0a8.25,8.25,0,0,0-.82-.22,5.12,5.12,0,0,0-.58-.17c-.24-.11-.54-.2-.09-.23.25,0,.62,0,.49-.12-1.23-.25-.3-.41-1.28-.61.44,0,.45-.09.49-.18a9,9,0,0,0,1.08-.05c.16-.06-.52-.16-.72-.24s.09-.09-.24-.12c.45,0,.12-.06.48-.07,0-.07.32-.14.72-.2-.24-.12-.19-.23.47-.34a4.32,4.32,0,0,1-.17-.94,19.6,19.6,0,0,1,2-.12c.3.13-.19.29.38.38-.7.16,0,.29-.1.43s-.39.21.49.26c-.42.06,0,.08.24.11-.35.05,0,.08-.24.13a2.55,2.55,0,0,1,1.21.49c.21.09.65.3.23.42.51.14,1.08.28,1.79.43-.06.16.36.29.22.38s-.69.1-.37.22c-.57,0-.68.07-.38.21s.85.52.87.8c0,.1-.16.2,0,.25-.38.34-.33.79-.74,1.18-.1.09-.08.23-.23.34s-.82.39-1.09.56,0,.48-.26.59-.34,0-.45.07a3.81,3.81,0,0,0-.94.58l-.4-.26C106,26.8,105.62,26.77,105.2,26.66Z" fill="#5e9648" fill-rule="evenodd"/><path d="M50.49,61.23c.67-1,.56-1,1.15-1.83.42-.42,0,.49.59-.18.26.72.15,1.65.71,1.8.06,0,.5-.37.63-.4s.07.32.28.27.4-.23.47-.19-.1.35,0,.36c.39,0,1.51-.51,2.11-.49s.63.67,1.55.5c-.87.76-.12.75.22.8.87.14.46,1,1.6.93.45,0,1.22-.19,1.32,0s-.17.31-.1.38.88.12,1.17.29.08.51.71.52c-.56.44-.45.64-.9,1.07-.1.1-.57.29-.64.37s.18.12.07.22-.61.23-.67.27-.44.41-.36.48,1.15-.06,1.73,0,.41.24,1.28.17c.58.27,1.27.5.48,1.16-.44.36-1.11.72-.81,1,1.3.2,1.53.68,1.68,1.16A1.56,1.56,0,0,0,66,71.13c-.86.27-.86.55-.93,1a13.74,13.74,0,0,0-2.16.35c-.34.21,1,.62,1.42,1,.21.2-.19.36.46.53-.89,0-.26.22-1,.21-.08.31-.68.5-1.49.63.43.47.28.92-1.07,1.05A12.41,12.41,0,0,1,61,78.93a26.16,26.16,0,0,1-4-.82c-.5-.5.54-.69-.51-1.2,1.45-.1.23-.74.41-1.07s.86-.46-.86-.86c.84,0,.09-.19-.45-.34.7,0,0-.2.51-.25a6.53,6.53,0,0,1-2.33-1.33c-.42-.21-1.29-.6-.47-.85a20.25,20.25,0,0,0-3.62-.5c.11-.24-.76-.31-.51-.45s1.34-.32.68-.37c1.13-.2,1.31-.35.68-.41a5,5,0,0,1-2-.41c-.06-.09.2-.26-.06-.22.52-.49.14-.76.54-1.36.1-.15-.05-.2.08-.4a8.61,8.61,0,0,0,1-1.58c.1-.33-.52-.19-.38-.53.08-.18.33-.5.39-.67a2,2,0,0,0-.13-1.5l.59-.75C50.29,62.77,50.4,62.13,50.49,61.23Z" fill="#dd439f" fill-rule="evenodd"/><path d="M40,83.47a15.9,15.9,0,0,1,1.77-1.24c.26-.14.18-.08.15,0s0,.11.27-.24a1,1,0,0,0,.25.87.69.69,0,0,0,.77.3c.06,0,.18-.6.26-.7s.25.2.37,0S44,82,44.09,82s.14.32.23.25c.3-.23.7-1.42,1-1.84s.75,0,1.1-.87c0,1.16.41.54.59.29.45-.63.81.15,1.23-.85.16-.39.31-1.15.43-1.17s.14.29.21.26.31-.74.44-.94.21.12.26-.48c.07.68.1.63.18,1.19,0,.13.06.63.08.72s0-.14,0,0l.1.71a1.85,1.85,0,0,0,.14.46,9.48,9.48,0,0,0-.37-1.63c-.2-.53-.18-.31-.55-1.09a1.26,1.26,0,0,0-.65-.42c-.2,0-.36.16-.22.6a3,3,0,0,0,.45.86c-1.74-1.8.23-1.19-.91-2.85.73.49.87.37,1.1.23a15.72,15.72,0,0,0,1.75,1.27c.36.11-.49-1-.63-1.46-.08-.24.3-.07-.14-.57.68.58.29,0,.84.49.18-.13.74.12,1.45.51-.15-.56.13-.74,1.32-.11a17.86,17.86,0,0,1,1.29-2.16,29.13,29.13,0,0,1,3.36,2.32c.25.67-.77.4-.05,1.31-1.35-.54-.56.57-.9.79s-1,0,.27,1.22c-.73-.41-.19.13.18.56-.61-.35-.11.19-.59-.05,1,1.16.73,2,.94,2.62.16.46.46,1.47-.39,1.16.52.93,1.14,2,2,3.16-.37.24,0,1-.31,1s-1.21-.71-1,0c-.92-.69-1.21-.68-1.16.1a3.43,3.43,0,0,1-.5,2,4.84,4.84,0,0,1-2,1.81c-.63.29-1.43.18-1.5.47-2.32-.09-3.86.06-4.84-.58-.22-.17-.48-.07-.75-.3-.45-.37-1.17-1.42-1.69-1.83s-.92.26-1.27-.1c-.17-.18-.31-.6-.46-.77a5,5,0,0,0-1.92-1.13c0-.35,0-.6,0-1A2.7,2.7,0,0,1,41,85.44,3.23,3.23,0,0,1,40,83.47Z" fill="#dd439f" fill-rule="evenodd"/><path d="M42.24,60.85a20.24,20.24,0,0,1,.92,2c.12.58-.49-.21-.19.63-.77-.1-1.88-.25-2.21.47,0,.08.34.53.37.66s-.35.13-.3.34.28.38.26.46-.38,0-.38.1c0,.43.92,1.31,1.22,1.72s-.15.64.61,1.07c-1.12-.22-.56.22-.31.35a.73.73,0,0,1,.27.23s0,.26,0-.21a3.14,3.14,0,0,0-.23-1,3.94,3.94,0,0,0-.9-1.37c-.72-.68-1-.83-1-1.11,0-.1.13-.19.23-.3l.31-.31c.2-.19.38-.34.52-.31s.23.38.37.39c.31,0,.9-.47,1.34-.49s.61.4,1.16,0c0,.74.27.85.32,1.52,0,.15-.21.61-.19.73s.26,0,.26.16-.28.59-.29.66c0,.24,0,.64.15.66s.88-.78,1.35-1.13.53-.06,1.15-.67c.69-.14,1.39-.41,1.31.64,0,.58-.26,1.33.17,1.33,2.19-1.49,2,.67,3.6-.58-.38.79-.23.93,0,1.15a14.28,14.28,0,0,0-1,1.93c0,.39,1-.62,1.36-.85.21-.14.12.28.5-.27-.42.79,0,.28-.31.92.15.15,0,.72-.18,1.51.47-.31.62-.14.43,1.18a6.22,6.22,0,0,0,1.7-.06,30.14,30.14,0,0,1,.69,4c-.21.33-.5.27-.74.25s-.46,0-.71.56c-.22-.71-.44-.77-.72-.67s-.6.34-.84.21-.48-1-1.34.6c.1-.85-.27-.16-.62.29.11-.71-.31-.09-.26-.63-1,1.22-2.17,1-2.91,1.21-.53.19-1.72.5-1.66-.47a30,30,0,0,0-3.23,2.13c-.39-.44-1.17,0-1.25-.35s.48-1.35-.13-1c.58-1,.52-1.3-.09-1a4.26,4.26,0,0,1-2.39.63c-.18-.08-.18-.44-.36-.25-.19-.87-.75-.86-.82-1.53a.17.17,0,0,0-.09-.13l0-.06s.08,0-.26-.19a13.39,13.39,0,0,1-1.43-.75,8.22,8.22,0,0,1-2.71-2.74,6.85,6.85,0,0,1-1-3.55A2.49,2.49,0,0,1,32,68.26c.38-.76.83-1.46,1.15-2,.44-.8.24-2,.92-2.66a10.52,10.52,0,0,1,1.15-.66c1.17-.87,2.37-2,3.32-2.52.25.25.45.4.7.66A3.11,3.11,0,0,1,42.24,60.85Z" fill="#dd439f" fill-rule="evenodd"/><path d="M29.4,80.92c.11-.59,0-.59.13-1.07.17-.27.26.23.43-.19.56.28,1.07.73,1.65.66.05,0,.14-.29.22-.34s.27.12.39,0,.14-.21.21-.21.16.17.25.14c.3-.09.66-.67,1-.85s.79,0,1.14-.36c.07.59.45.31.64.19.47-.28.87.14,1.29-.36.17-.19.31-.57.44-.58s.15.15.22.14.34-.37.52-.46.35.06.5-.23c.15.35.3.32.48.6,0,.07.07.32.11.37s.12-.08.17,0,0,.33.06.36.2.27.28.24.17-.57.27-.85.22-.19.28-.62c.24-.27.41-.59.75-.18.2.23.41.56.6.4.26-1.3,1.09-.56,1.19-1.62.23.37.39.35.59.29a4.45,4.45,0,0,0,.59.93c.2.1.13-.63.21-.89s.24,0,.15-.36c.22.39.19,0,.39.33.21-.09.52.07.87.32.2-.39.6-.57,1.2-.16a7.25,7.25,0,0,1,3.52-1.36,5,5,0,0,1,.17,2c-.37.33-.89-.06-1,.59-.59-.55-.77.25-1.13.37s-.71-.06-.46.81c-.33-.29-.21.08-.16.38-.27-.25-.17.12-.41,0,.15.79-.45,1.33-.69,1.78s-.55,1-1.07.75a18.79,18.79,0,0,0-.5,2.08c-.5.09-.7.58-1,.52s-.54-.58-.76-.21c-.25-.53-.46-.59-.72-.25a2.8,2.8,0,0,1-1.7,1.15c-.25,0-.56-.1-.62,0-1-.27-1.92-.15-2.9-.5-.24-.09-.49,0-.78-.16-.47-.19-1.2-.78-1.73-1s-.91.06-1.28-.14c-.18-.1-.33-.32-.49-.42a8.21,8.21,0,0,0-2-.7v-.48A2.75,2.75,0,0,1,29.4,80.92Z" fill="#ba2d88" fill-rule="evenodd"/><path d="M46.1,64.44c.18-.57.11-.58.29-1,.14-.26.08.23.25-.17.24.3.39.75.7.71,0,0,.15-.27.2-.31s.11.13.2.07.13-.19.17-.19,0,.18.09.16.56-.57.83-.7.46.16.84-.12c-.2.54.15.37.33.33.45-.12.49.37,1,.15.22-.07.56-.29.66-.22s0,.2.06.23.48-.05.68,0,.18.29.51.22c-.18.34-.08.45-.21.75,0,.07-.22.23-.24.29s.12,0,.08.12-.26.2-.28.23-.15.28-.1.32.57-.14.87-.18.24.11.67,0c.34.13.73.25.41.7-.17.25-.46.51-.29.66,1.36.16.59,1,1.61,1.36-.41.19-.41.34-.43.58a6.23,6.23,0,0,0-1.06.26c-.16.13.54.31.74.51s-.09.2.25.27c-.45,0-.13.13-.49.14,0,.17-.32.28-.72.37.23.24.16.48-.51.59a7.43,7.43,0,0,1,0,1.57,12.65,12.65,0,0,1-2-.24c-.27-.24.24-.39-.3-.61.73-.12.1-.41.18-.6s.41-.27-.46-.43c.43,0,.05-.11-.23-.17.35,0,0-.11.25-.15a3.12,3.12,0,0,1-1.2-.65c-.21-.1-.66-.28-.26-.43a9,9,0,0,0-1.82-.1c0-.11-.38-.09-.27-.15s.66-.22.33-.19c.55-.15.64-.22.32-.19a6.49,6.49,0,0,0-1,.16s.12-.08,0,0a1.07,1.07,0,0,0,.37-.3c.05-.06,0,0,.06-.11a1.76,1.76,0,0,0,.23-.85c0-.17-.28,0-.32-.16s0-.3,0-.4a1.41,1.41,0,0,0-.61-.73c0-.17.08-.29.12-.46C46.37,65.24,46.24,64.9,46.1,64.44Z" fill="#ba2d88" fill-rule="evenodd"/><path d="M52.54,87c0-.6-.08-.59-.06-1.08,0-.3.15.19.16-.26.27.21.64.53.88.32,0,0,0-.31,0-.37s.15,0,.17-.06,0-.22,0-.25.13.11.15.06a4.33,4.33,0,0,0-.1-1c0-.26.22-.19.06-.59.36.45.28.1.23,0-.1-.34.24-.18,0-.61-.12-.18-.39-.46-.38-.49s.13.07.13,0a4,4,0,0,0-.31-.38c-.06-.09.09,0-.14-.21a3.42,3.42,0,0,0,.55.23,3.29,3.29,0,0,0,.33.16c.06,0,0-.06,0,0l.33.16c.1,0,.26.07.24,0a4.6,4.6,0,0,0-.72-.44,2.56,2.56,0,0,0-.52-.3c-.22-.14-.51-.25-.07-.15.24,0,.6.11.48,0-1.22-.32-.31-.19-1.29-.28.44,0,.44-.09.47-.19a8.47,8.47,0,0,0,1.07-.18c.16-.09-.54-.17-.75-.3s.07-.16-.26-.19c.45,0,.11-.13.46-.17,0-.16.3-.32.69-.45-.25-.23-.21-.54.46-.74a3.82,3.82,0,0,1,.66-2.55,8,8,0,0,1,1.67,1.18c.13.31-.4.3.07.65-.73,0-.15.38-.23.52s-.41.29.47.39c-.42.07,0,.11.24.14-.34.07,0,.1-.23.16a2.62,2.62,0,0,1,1.25.54c.23.1.7.34.3.57l1.82.57c-.06.35.35.62.21.83s-.72.22-.43.47c-.58,0-.69.14-.44.42a1.86,1.86,0,0,1,.51,1.59c-.05.2-.3.34-.2.45-.59.53-.89,1.25-1.64,1.68-.18.09-.27.29-.5.39a11.62,11.62,0,0,1-1.62.3c-.32.07-.46.53-.82.53-.17,0-.37-.12-.52-.13a12.56,12.56,0,0,0-1.57.06c0-.17-.09-.29-.15-.46A1.28,1.28,0,0,1,52.54,87Z" fill="#ba2d88" fill-rule="evenodd"/><path d="M56.72,99c-.39-.46-.47-.37-.75-.78-.11-.29.33,0,.09-.42.54-.19,1.18-.33,1.4-.82,0,0-.18-.27-.19-.35s.23-.14.21-.28-.12-.21-.1-.27.22,0,.23-.13c0-.28-.35-.82-.4-1.16s.28-.6,0-1c.56.17.4-.25.33-.43-.16-.46.32-.66-.06-1.14-.15-.18-.48-.4-.46-.5s.17-.08.17-.14-.28-.37-.34-.53.13-.26-.13-.46c.36,0,.37-.17.68-.26.07,0,.32,0,.37,0s-.05-.12,0-.14.33,0,.36,0,.3-.12.29-.19-.53-.27-.78-.42-.14-.23-.55-.37c-.22-.28-.49-.49,0-.73.26-.14.64-.26.53-.48-1.2-.58-.25-1.23-1.23-1.74.44-.13.45-.31.49-.58A4.25,4.25,0,0,0,58,85.46c.16-.16-.53-.43-.74-.67s.08-.26-.25-.35c.45,0,.12-.16.47-.19,0-.23.31-.41.7-.58-.26-.33-.23-.67.42-1-.19-.85-.22-1.68-.35-2.56a7.29,7.29,0,0,1,2-.19c.34.35-.12.75.46,1-.67.4,0,.75,0,1.11s-.36.57.53.72c-.41.15,0,.21.26.29-.34.12,0,.2-.22.32.76.23,1,.93,1.25,1.26s.67.73.26,1a11.35,11.35,0,0,0,1.79.93c-.07.39.34.67.2.89s-.7.3-.39.55c-.58.08-.7.25-.41.54a2.39,2.39,0,0,1,.76,1.69c0,.23-.21.48-.09.56-.46.81-.54,1.77-1.13,2.65-.15.21-.17.48-.38.73-.31.42-1.09,1-1.5,1.45s-.28.93-.63,1.21c-.17.13-.44.18-.6.3a21.77,21.77,0,0,0-1.67,1.46l-.4-.27A2.31,2.31,0,0,1,56.72,99Z" fill="#5e9648" fill-rule="evenodd"/><path d="M70.22,65.75a9.62,9.62,0,0,1,1.06-.22c.3.06-.16.27.29.31-.15.59-.55,1-.47,1.52,0,0,.29.13.34.2s-.12.24,0,.34.2.14.2.21-.19.13-.17.22c.07.27.59.7.7,1.07s-.21.75.07,1.19c-.57-.11-.41.33-.37.54.11.55-.42.75-.15,1.33.1.23.38.52.32.65s-.2.07-.22.14.15.48.13.7-.25.28-.09.58c-.37,0-.44.11-.79.11-.08,0-.3-.12-.37-.11s0,.14-.1.14-.28-.16-.32-.16-.34,0-.36.08.34.5.48.76,0,.3.27.64c0,.4.09.8-.5.8-.32,0-.72-.1-.78.18.52,1.29-.77,1.31-.53,2.43a.72.72,0,0,0-.87.14c-.33-.22-.72-.62-.91-.63s0,.73-.15,1.06-.29.12-.18.46c-.27-.36-.22,0-.46-.25-.22.13-.56,0-.92-.21-.17.4-.51.59-1.1.17A4.86,4.86,0,0,1,62.9,81a4,4,0,0,1-2.58.3,4,4,0,0,1,.51-2,1,1,0,0,1,.54,0c.17,0,.34-.06.37-.37.55.56.65-.23.93-.34s.64.06.3-.77c.33.28.17-.08.09-.36.27.23.13-.11.36,0-.24-.74.13-1.22.15-1.63s0-.87.48-.72a7.46,7.46,0,0,0-.74-1.77c.24-.15,0-.57.25-.58s.65.31.52,0c.47.33.63.3.52,0a2,2,0,0,1-.08-1.4c.07-.12.29-.17.21-.28.57-.24.79-.79,1.36-1.16.14-.09.17-.26.36-.37a10.82,10.82,0,0,0,1.26-.65c.23-.19.06-.57.28-.73s.33-.11.44-.19a2.13,2.13,0,0,0,.67-1.09h.48C69.61,66.48,69.89,66.19,70.22,65.75Z" fill="#5e9648" fill-rule="evenodd"/><path d="M78.36,78.89c.49.34.56.22.93.55.17.27-.33.15,0,.49-.55.44-1.21.71-1.48,1.26,0,.06.16.29.16.38s-.27.19-.28.34.08.24,0,.31-.26,0-.3.15c-.12.32,0,1-.14,1.44s-.8.68-1,1.26c-.42-.41-.72.09-.93.31-.53.56-1.28.34-1.83.9-.22.22-.41.61-.63.63s-.26-.14-.36-.13-.54.35-.83.43-.51-.12-.77.14c-.16-.37-.37-.38-.56-.7,0-.07,0-.33-.08-.38s-.16,0-.2,0,0-.33,0-.37-.2-.3-.29-.29-.34.5-.53.75-.33.11-.53.5c-.4.18-.76.42-1.09-.11-.18-.3-.32-.71-.63-.65-1,1-1.78-.11-2.73.62-.07-.47-.32-.56-.67-.71,0-.4.14-1,0-1.12s-.73.31-1.12.38c-.22,0-.31-.2-.55.07.16-.42-.16-.19-.07-.54-.27-.13-.39-.48-.43-.92-.5.06-.9-.16-.94-.88a11.07,11.07,0,0,0-2.36-.6,8.25,8.25,0,0,1,.14-2c.5-.26.81.32,1.3-.12.18.78.82.32,1.21.55s.45.6,1-.12c0,.44.21.12.42-.1,0,.37.22.07.24.35.55-.58,1.35-.46,1.79-.63s1-.37,1.14.13a7.59,7.59,0,0,0,1.41-1.46c.35.17.7-.18.87,0s.13.75.43.49c0,.58.12.72.44.48a2.59,2.59,0,0,1,1.65-.6c.21,0,.42.22.5.1a3.81,3.81,0,0,0,1.12.45,3,3,0,0,1,.89.35c.12.07.22,0,.32.11s.46.6.82.62.31-.37.59-.39.37.07.51,0a3.29,3.29,0,0,0,1.49-1l.42.24A3.51,3.51,0,0,1,78.36,78.89Z" fill="#5e9648" fill-rule="evenodd"/></svg>