<svg xmlns="http://www.w3.org/2000/svg" viewBox="0 0 172 114"><title>illo-lemon-bars</title><path d="M57.85,90c7.63,2.24,15.89,2.41,23.78,2.85q12.14.69,24.31.64a405.22,405.22,0,0,0,49.47-3.33c4.84-.62,7.07-6.5,2.55-9.45l-1.55-1c-5.48-3.58-10.57,5.19-5.12,8.75l1.56,1,2.56-9.44a404,404,0,0,1-47.53,3.32q-11.67.11-23.34-.47c-7.93-.39-16.34-.39-24-2.64-6.27-1.84-8.95,7.94-2.7,9.77Z"/><path d="M163.8,100s-27,3.1-52,2.73c-17.24-.25-35,.07-52.18-1.17-1.89-.14-9.4-1-10.14-2.58-2.17-4.6-4.41-14.12-4.88-26.39-.12-3.2-.7-6.37-.69-9.58,0-2.88.54-5.72.71-8.58a1.24,1.24,0,0,1-.7-.51c-.28-.41-.07-1.48,0-1.9a31.87,31.87,0,0,1,.41-3.89c.49-3,1.46-6,2.24-8.94.64-2.46.93-5,1.67-7.41a112.51,112.51,0,0,0-11.35.92C28.09,33.9,23.75,39.57,20.15,47.1c-4.38,9.12-8.71,18.25-13.07,27.38C3.77,81.41-.07,89.13,1.41,97.05S9.49,109.57,17.06,111c9,1.66,18.6,1.42,27.74,1.71,20.52.65,41.05.59,61.58.47,11.15-.06,22.37.06,33.47-1.17,7.34-.82,20.81-1,24.37-9C165.78,99.48,163.8,100,163.8,100Z"/><path d="M149.57,34.23c-.53-.31.05-1.18,0-1.6,0-.1-.15-.19-.16-.28a13.11,13.11,0,0,1-.09-2.26c0-.27-.12-.54-.13-.83s.12-.42.1-.63-.3-.67-.29-1c0-.12.12-.23.12-.35a5.31,5.31,0,0,0-.15-1.07c0-.06.08-.12.06-.18s-.15-.08-.15-.13c-.06-.44,0-.89,0-1.33,0-.23-.09-.46-.12-.69a16.66,16.66,0,0,1-.11-3.55c.1-.84.22-1.68.27-2.4s0-1.71.1-2.61a1.54,1.54,0,0,1,1.12-.37c.35.18.15.88.3,1.07s-.09.42-.1.63c-.05.77.34,1.52.3,2.29,0,.41-.17.82-.2,1.22a15.36,15.36,0,0,0,.4,2.49,8.09,8.09,0,0,1-.08,1c0,.53.08,1.07.12,1.6a2.27,2.27,0,0,1,0,.52c0,.09-.12.15-.12.24a7.16,7.16,0,0,0,.05.8c.06,1.2.26,2.23.24,3.37a3.68,3.68,0,0,1-.14,1,2.08,2.08,0,0,0-.12.35c0,.29.18.6.21.9s-.18.86.23,1.29a1.38,1.38,0,0,0-.22.91c0,.1.42.23.24.37s-.15,0-.14,0,.15,0,.15.1a1.53,1.53,0,0,0,.13.73c-.46.11-.39.38-.84.44a1.1,1.1,0,0,1-1.11-.43c-.08-.21.17-.59.15-.91S149.23,34.46,149.57,34.23Z" fill="#fff" fill-rule="evenodd"/><g opacity="0.49"><path d="M169.75,48.91H44.7S52.35,8.69,59.2,5.48s91.6-3,95.55,0S169.75,48.91,169.75,48.91Z" fill="#dadfe5"/></g><path d="M66.5,37.88c-.09,0,0-.31-.14-.3s0,.27,0,.39c0,.27.07.55.13,1a22.77,22.77,0,0,1,.37,3.33c0,.1-.11.14-.13.24s.11.29,0,.48c-.36.1-.21-.78-.52-.89-.08-.49-.08-1.23-.35-1.36-.22-1.93-.92-3.47-1-5.32a32.2,32.2,0,0,1-.63-3.57C64.19,31.2,64,30.58,64,30c0-.11,0-.19,0-.29-.08-.72-.27-1.45-.4-2.34-.07-.46-.19-.83-.24-1.34s-.19-1.49-.31-2.38c0-.43,0-.89-.06-1.31,0-.09-.08-.19-.08-.28a1.94,1.94,0,0,1,0-.24c0-.07-.07-.13-.08-.2,0-.27,0-.61,0-.92a9.91,9.91,0,0,1-.06-1.08,6.1,6.1,0,0,1,0-.8c0-.09.09-.18.11-.28a2.61,2.61,0,0,0,0-.28c.07-.37.3-.63.23-1.07a1.57,1.57,0,0,0,.19-.39.5.5,0,0,1,.28.32c.13,0,.21-.18.29-.11.1.4-.07.73,0,1.06s.23.47.17.75c0,.12.15.15.19.27a11.53,11.53,0,0,0,.11,1.6c0,.19-.06.39,0,.59s.07.08.08.11,0,.53,0,.78,0,1,.07,1.53c.08,1,.33,1.84.38,2.91.17.41.14,1.13.29,1.66s.13,1.22.23,1.84C65.83,32.66,66.23,35.13,66.5,37.88Z" fill="#9b9a91" fill-rule="evenodd"/><path d="M149.09,36.12c-.09-.06,0-.28-.09-.3s-.06.25-.06.36,0,.51,0,.88a28.85,28.85,0,0,1-.09,3.07c0,.09-.13.12-.16.21s.08.27,0,.44c-.36,0-.11-.74-.41-.87,0-.46.07-1.14-.17-1.3,0-1.8-.35-3.33-.05-5a26.66,26.66,0,0,1,.1-3.36c0-.59,0-1.18.07-1.75,0-.1.08-.17.08-.25.07-.68,0-1.37,0-2.19,0-.43-.05-.78,0-1.24s0-1.38,0-2.19c0-.4.08-.81,0-1.2a2.33,2.33,0,0,0-.07-.25c0-.09,0-.14,0-.22s-.07-.13-.07-.18c0-.26,0-.56,0-.84s-.05-.67,0-1a5.39,5.39,0,0,1,.07-.73c0-.09.08-.17.1-.26s0-.18,0-.25c.06-.35.28-.6.19-1a1.59,1.59,0,0,0,.18-.37c.15,0,.22.16.29.29s.2-.19.29-.12c.1.36-.05.68,0,1s.25.43.19.69c0,.11.14.15.18.26a13.5,13.5,0,0,0,.08,1.5c0,.18-.07.37-.07.56s.06.07.07.11,0,.5,0,.73,0,1,0,1.43c0,.94.11,1.76,0,2.76.11.41,0,1.07,0,1.58a13.71,13.71,0,0,1-.13,1.72C149.46,31.29,149.29,33.59,149.09,36.12Z" fill="#9b9a91" fill-rule="evenodd"/><path d="M54.72,78.31c.2-5.81,14.91-38,15.46-38.54.79-.74,20.71-3.12,23.16-.51S90,60.56,88.41,79.08" fill="#fefefe"/><path d="M162.75,78.81c-.2-5.81-18.34-38.53-18.89-39-.79-.74-20.71-3.12-23.16-.51s6.82,21.3,8.36,39.82" fill="#fff"/><path d="M126.32,78.31c-.2-5.81-7.9-38-8.45-38.54-.79-.74-18.64-2.12-21.1.49s-2.7,22.51-4.64,38.82" fill="#fff"/><polygon points="94.61 45.47 91.36 61.4 87.06 83.81 94.8 83.81 91.81 80.56 94.61 45.47" fill="#d8ca41"/><path d="M54.72,78.31c-.31,1.94-1.2,7.15.49,8.56,1.21,1,32.3,1.53,33.6.64s.67-5.49-.62-8.07S65.1,77.8,54.72,78.31" fill="#eae58c"/><path d="M54.72,78.05c-.16-.76.83-.44,1.67-.53.26,0,.54-.25.7-.26.55,0,1.16.13,1.82.08,5.57-.43,11.91-.51,17.69-.37l3.53.06a33.06,33.06,0,0,1,3.44,0c.39,0,.71.32,1.11.39s.7-.12,1-.06a7.72,7.72,0,0,1,1.24.38,7.3,7.3,0,0,1,1.31.63,1.94,1.94,0,0,1,.44.36,3,3,0,0,1,.34.49c.11.23.23.46.33.69a15,15,0,0,1,.55,1.4,11.72,11.72,0,0,1,.66,2.94A6.56,6.56,0,0,1,90,87.48a2.42,2.42,0,0,1-.48.62,1.08,1.08,0,0,1-.39.27,1.83,1.83,0,0,1-.43.15c-.4.08-.7.11-1,.15l-1.86.15c-1.23.08-2.45.13-3.67.15-1.65,0-3.27-.18-4.92-.21-1.46,0-3,.12-4.49.1-3.23,0-6.47-.4-9.68-.49-.64,0-1.23.14-1.84.11a31.36,31.36,0,0,1-3.89-.41,16.9,16.9,0,0,1-2.07-.42,1.85,1.85,0,0,1-.44-.21,2.27,2.27,0,0,1-.27-.26,2.36,2.36,0,0,1-.37-.54,4.14,4.14,0,0,1-.42-1.1,11.31,11.31,0,0,1-.08-4c.14-1.14.17-2.56,1.11-3.25.77.2.62.7.72,1.41a7.67,7.67,0,0,1-.3,2.28,8.5,8.5,0,0,0,.15,3.41l.15.36c.07.08.11.21.18.26l.09.1h0l-.47.56h0a1.46,1.46,0,0,0,.16-.19,1.87,1.87,0,0,0,.25-.41s-.1,0,0,0a3.23,3.23,0,0,0,.45.09c.71.12,1.55.2,2.45.29,7,.64,14.87.91,23.3.84l3.48-.13c.59,0,1.19,0,1.78-.07.3,0,.6,0,.88-.07l.38-.06h0l.09.15a.83.83,0,0,0,.13.18l0,0L88.44,87h0a.17.17,0,0,1,.06-.06,2.69,2.69,0,0,0,.38-1.4,10,10,0,0,0-.08-1.8,14,14,0,0,0-1-3.56l-.19-.4c-.07-.08,0-.07-.14-.15a1.6,1.6,0,0,0-.3-.17,2.13,2.13,0,0,0-.38-.14,10.63,10.63,0,0,0-1.73-.39,54.28,54.28,0,0,0-6.5-.28,61.31,61.31,0,0,0-7.53,0c-3.72-.16-7.27-.2-10.62,0a21.28,21.28,0,0,1-3.92.09C56,78.65,54.9,78.64,54.72,78.05Z" fill-rule="evenodd"/><path d="M125.76,78.31c.31,1.94,1.2,7.15-.49,8.56-1.21,1-32.3,1.53-33.6.64S91,82,92.28,79.44s23.1-1.64,33.48-1.13" fill="#eae58c"/><path d="M125.73,78.57c.09.77-.86.35-1.71.36-.26,0-.56.2-.72.2-.55,0-1.14-.24-1.8-.24-5.57,0-11.87-.4-17.61-.39-1.15,0-2.36,0-3.47.14s-2.23.41-3.29.52c-.37,0-.73-.17-1.11-.14s-.58.32-.9.36-.74.09-1.09.15a2.3,2.3,0,0,0-.86.26s-.13.08-.09.07,0-.06,0,.09a6.19,6.19,0,0,0-.23.6,12.23,12.23,0,0,0-.34,1.26,20.78,20.78,0,0,0-.36,2.58,5.82,5.82,0,0,0,0,2.22s.07.12.07.11,0,0,0,0-.09,0,0,0a5.29,5.29,0,0,0,.79.1c.57,0,1.17.07,1.77.08l3.6,0c1.64,0,3.24.23,4.88.24,1.47,0,3-.17,4.48-.19,3.21,0,6.45.11,9.64-.07.63,0,1.2-.25,1.81-.29,1.24-.1,2.53-.1,3.82-.14a12.49,12.49,0,0,0,1.84-.16c.11,0,0,0,0,0s.06,0,.09-.08a.69.69,0,0,0,.2-.26,2.3,2.3,0,0,0,.29-.75,13.82,13.82,0,0,0,.21-3.56c-.05-1.1-.44-2.42.23-3.38.78-.05.81.46,1.12,1.14a6,6,0,0,1,.22,2.45c0,.62,0,1.24,0,1.91a9.12,9.12,0,0,1-.32,2.19c-.07.2-.15.41-.24.62a4.14,4.14,0,0,1-.42.64l-.29.31a2.09,2.09,0,0,1-.59.31c-.24.06-.48.12-.68.15a23.9,23.9,0,0,1-2.63.26c-7.11.32-15,.37-23.46.33-1.09,0-2.27,0-3.52,0-.6,0-1.2-.07-1.83-.13-.31,0-.63-.06-1-.11a4,4,0,0,1-.54-.11,2,2,0,0,1-.42-.19,3.31,3.31,0,0,1-.27-.26,3.66,3.66,0,0,1-.66-2.18,11.31,11.31,0,0,1,.12-2,15.88,15.88,0,0,1,1.06-3.87l.21-.46a1.8,1.8,0,0,1,.48-.57,2.63,2.63,0,0,1,.52-.31,4,4,0,0,1,.5-.2,13.13,13.13,0,0,1,1.93-.46,56.9,56.9,0,0,1,6.64-.74c2.73-.13,5.94.1,7.61-.12,3.74.26,7.29.55,10.64.65a19.29,19.29,0,0,1,3.92.26C124.54,77.85,125.61,78,125.73,78.57Z" fill-rule="evenodd"/><path d="M120.35,44.52s10.32,25.23,9.12,36.68S126,75.63,126,75.63Z" fill="#d8ca41"/><path d="M128.48,87.37c-.32-1.94-1.21-7.15.49-8.56,1.2-1,32.29-1.53,33.6-.64s.66,5.49-.62,8.07-23.1,1.64-33.47,1.13" fill="#eae58c"/><path d="M128.5,87.11c-.09-.77.87-.35,1.71-.36.26,0,.56-.2.72-.2.56,0,1.15.24,1.8.24,5.57,0,11.88.4,17.61.39,1.15,0,2.36-.05,3.48-.14s2.22-.41,3.28-.52c.38,0,.73.17,1.11.14s.58-.32.9-.36.74-.09,1.09-.15a2.36,2.36,0,0,0,.87-.26s.12-.08.09-.07,0,.05,0-.09a6.13,6.13,0,0,0,.22-.6,10.13,10.13,0,0,0,.34-1.26,18,18,0,0,0,.36-2.58,5.44,5.44,0,0,0,0-2.22S162.05,79,162,79s0,0,0,0,.09,0,0,0a5.32,5.32,0,0,0-.78-.1c-.58,0-1.17-.07-1.77-.08l-3.61,0c-1.64,0-3.24-.23-4.88-.24-1.46,0-3,.16-4.48.19-3.2,0-6.45-.12-9.64.07-.63,0-1.2.25-1.81.29-1.24.1-2.53.1-3.82.14a12.74,12.74,0,0,0-1.84.16c-.1,0,0,0,0,0s-.06,0-.09.08a.71.71,0,0,0-.21.26,2.3,2.3,0,0,0-.29.75,14.3,14.3,0,0,0-.2,3.56c0,1.1.43,2.42-.23,3.37-.79.05-.82-.45-1.13-1.13A6.15,6.15,0,0,1,127,83.8c0-.62,0-1.24,0-1.92a9,9,0,0,1,.32-2.18c.08-.21.16-.41.25-.62a2.82,2.82,0,0,1,.42-.64l.29-.31a1.91,1.91,0,0,1,.58-.31,5.43,5.43,0,0,1,.69-.15,23.48,23.48,0,0,1,2.62-.26c7.11-.32,15-.37,23.46-.33,1.09,0,2.27,0,3.52,0,.6,0,1.21.07,1.83.13.31,0,.63.06,1,.11a4,4,0,0,1,.54.11,1.79,1.79,0,0,1,.42.19l.28.26a3.72,3.72,0,0,1,.65,2.18,10.5,10.5,0,0,1-.12,2A15.85,15.85,0,0,1,162.72,86l-.22.46A1.8,1.8,0,0,1,162,87a2.63,2.63,0,0,1-.52.31,4,4,0,0,1-.5.2,13.13,13.13,0,0,1-1.93.46,56.9,56.9,0,0,1-6.64.74c-2.73.13-5.94-.1-7.61.12-3.73-.26-7.28-.55-10.64-.65a19.33,19.33,0,0,1-3.92-.26C129.7,87.83,128.62,87.71,128.5,87.11Z" fill-rule="evenodd"/><path d="M54.46,78.29c-.4.07-.46-.22-.4-.67,0-.23.08-.49.14-.77s.16-.53.21-.79,0-.74,0-.94c.16-.7.61-1.34.83-2.15a192.55,192.55,0,0,1,8.2-20.45c.59-1.32,1.18-2.71,1.73-4s.9-2.69,1.47-3.94c.2-.44.6-.72.82-1.16s.13-.83.32-1.21.48-.88.73-1.31l.83-1.43.19-.28a1.19,1.19,0,0,1,.46-.3,4.68,4.68,0,0,1,.52-.18c.31-.09.61-.16.9-.23.59-.13,1.17-.26,1.75-.37,1.17-.23,2.34-.43,3.5-.56s2.36-.07,3.52-.15a70.52,70.52,0,0,1,9.21-.23,11.57,11.57,0,0,1,3.22.67L93,38l.43.25a2.4,2.4,0,0,1,.8.87,5.14,5.14,0,0,1,.43,1.82,30.46,30.46,0,0,1-.26,5.76c-.59,4-1.64,7.91-2.3,11.84-.14.78-.09,1.52-.21,2.27-.5,3.08-1.41,6.28-1.85,9.55-.23,1.54-.46,3.1-.68,4.64-.21,1.38-.18,3.1-1.08,4.07-.78-.16-.66-.79-.79-1.69a10,10,0,0,1,.37-3c.49-2.91.76-6.06,1.61-10.56.84-4.31,1.73-8.87,2.67-13.65a67.16,67.16,0,0,0,1-7.3,13.69,13.69,0,0,0,0-1.81,2.72,2.72,0,0,0-.39-1.4,3.53,3.53,0,0,0-1.44-.58,15.71,15.71,0,0,0-1.86-.27c-1.32-.11-2.76-.07-4.29-.07a87.42,87.42,0,0,0-9.22.56c-1.58.18-3.18.38-4.69.69l-.54.14a1,1,0,0,0-.23.07h0l0-.06a1.63,1.63,0,0,0-.17-.2l-.15-.16.36.4,0,.05c-.06.16-.28.55-.44.9-.34.7-.66,1.41-1,2.11C68,45.77,67,48.36,66,50.82c-1.32,3.1-3.09,6.67-3.66,8.67a122.65,122.65,0,0,0-5.15,12.15c-.29.82-.5,1.55-.71,2.29s-.49,1.45-.81,2.29C55.29,76.87,55.1,78.1,54.46,78.29Z" fill-rule="evenodd"/><path d="M128.8,79.08c-.76.22-.48-1-.66-2.09,0-.32-.3-.66-.33-.85-.1-.7,0-1.47-.16-2.29a211.51,211.51,0,0,0-5.38-21.71c-.41-1.41-.88-2.89-1.32-4.27s-1.06-2.73-1.37-4.15a12.68,12.68,0,0,1,0-1.51c0-.47-.33-.86-.34-1.36a3.4,3.4,0,0,1,.6-2,3.59,3.59,0,0,1,1.79-1,21,21,0,0,1,3.72-.67A32.39,32.39,0,0,1,129,37c1.21,0,2.4.25,3.59.34,3.14.24,6.21.42,9.34.94a15.39,15.39,0,0,1,1.62.36,4,4,0,0,1,.47.17,1.47,1.47,0,0,1,.45.27,1.72,1.72,0,0,1,.28.35c.15.25.28.49.4.72.48.94.94,1.87,1.45,2.79.9,1.64,2,3.27,2.89,5,2,3.61,3.66,7.39,5.56,11,.37.72.87,1.3,1.23,2,1.49,2.84,2.65,6.06,4.07,9.16.66,1.45,1.26,3,1.79,4.5a18.24,18.24,0,0,1,.7,2.2,2.76,2.76,0,0,1-.2,2.1c-.8-.07-.77-.56-1.2-1.34a15.12,15.12,0,0,1-.89-2.79,108,108,0,0,0-4.38-9.87c-1.89-4.06-4-8.32-6.3-12.73q-1.72-3.31-3.59-6.72c-.63-1.14-1.26-2.28-1.91-3.43-.32-.56-.67-1.18-1-1.66.2.08-.23-.08-.51-.13L142,40c-1.34-.24-2.83-.37-4.38-.57a88.31,88.31,0,0,0-9.44-.7,30.51,30.51,0,0,0-4.8.25,5.45,5.45,0,0,0-2,.63c-.37.18-.41.94-.36,1.66a21.6,21.6,0,0,0,.88,4c.42,1.33.84,2.65,1.24,4,1,3.28,2,7.25,2.83,9.23,1.09,4.64,2,9.1,2.79,13.33a23.34,23.34,0,0,1,.65,5C129.32,77.46,129.37,78.85,128.8,79.08Z" fill-rule="evenodd"/><path d="M91.87,79.53c-.77.06-.27-1-.21-2,0-.31-.15-.67-.14-.86,0-.66.32-1.34.38-2.12.45-6.59,1-14.07,1.69-20.89.13-1.37.25-2.81.35-4.16s0-2.73.21-4.05c.06-.47.38-.84.48-1.29s-.08-.82,0-1.23a9,9,0,0,1,.48-1.44A8.19,8.19,0,0,1,95.9,40a2.64,2.64,0,0,1,.86-.81,5.38,5.38,0,0,1,.91-.44,11.84,11.84,0,0,1,1.74-.52,20.62,20.62,0,0,1,3.44-.48c1.14-.07,2.27.08,3.38.09,3,0,5.82.07,8.76.38.49,0,1,.13,1.48.22a9.68,9.68,0,0,1,1.61.44,1.42,1.42,0,0,1,.46.32,1.27,1.27,0,0,1,.18.27l.06.14,0,0c0,.14.09.29.12.41l.18.73c.12.47.23,1,.35,1.43.44,1.7,1,3.42,1.46,5.15.91,3.71,1.54,7.53,2.43,11.23.17.73.5,1.37.67,2.08.69,2.9,1,6.08,1.64,9.18.3,1.46.54,3,.74,4.45.18,1.31.61,3-.16,4-.79-.06-.76-.61-1.06-1.4a10.54,10.54,0,0,1-.37-2.75c-.34-2.77-1.08-5.66-1.91-9.93-.8-4.1-1.72-8.44-2.75-13-.51-2.26-1.06-4.57-1.64-6.91-.3-1.17-.6-2.36-.94-3.52l-.13-.42-.07-.19,0,0,0,0h0s0,0,.08,0a2.27,2.27,0,0,0,.28-.26c0-.06-.36.43-.27.38h0l-.16,0-.41-.09c-.58-.11-1.19-.19-1.8-.27-1.27-.14-2.66-.19-4.11-.29a64.18,64.18,0,0,0-8.8-.11,15.05,15.05,0,0,0-4.29.79,1.64,1.64,0,0,0-.7.46,3.36,3.36,0,0,0-.43.83,16.8,16.8,0,0,0-.54,2.06,77.16,77.16,0,0,0-.79,7.71c-.26,3.2-.75,7-.65,9-.55,4.4-1,8.6-1.35,12.58a25.5,25.5,0,0,1-.54,4.63C92.7,78.16,92.49,79.43,91.87,79.53Z" fill-rule="evenodd"/><path d="M54.72,63.31c.2-5.8,14.91-38,15.46-38.53.79-.74,20.71-3.12,23.16-.52S90,45.56,88.41,64.08" fill="#fefefe"/><path d="M162.75,63.81c-.2-5.8-18.34-38.52-18.89-39-.79-.74-20.71-3.12-23.16-.52s6.82,21.3,8.36,39.82" fill="#fff"/><path d="M126.32,63.31c-.2-5.8-7.9-38-8.45-38.53-.79-.74-18.64-2.12-21.1.48s-2.7,22.52-4.64,38.82" fill="#fff"/><polygon points="94.61 30.48 91.36 46.41 87.06 68.82 94.8 68.82 91.81 65.57 94.61 30.48" fill="#d8ca41"/><path d="M54.72,63.31c-.31,1.94-1.2,7.15.49,8.56,1.21,1,32.3,1.53,33.6.64s.67-5.48-.62-8.06S65.1,62.8,54.72,63.31" fill="#eae58c"/><path d="M54.72,63.05c-.16-.76.83-.43,1.67-.53.26,0,.54-.24.7-.25.55-.05,1.16.12,1.82.07,5.57-.42,11.91-.51,17.69-.36l3.53.05c1.17,0,2.31-.16,3.44-.05.39,0,.71.32,1.11.39s.7-.12,1-.06a7.72,7.72,0,0,1,1.24.38,9,9,0,0,1,1.31.63,2,2,0,0,1,.44.37,2.3,2.3,0,0,1,.34.49c.11.23.23.45.33.68a15,15,0,0,1,.55,1.4,11.8,11.8,0,0,1,.66,2.95A6.54,6.54,0,0,1,90,72.48a2.45,2.45,0,0,1-.48.63,1.39,1.39,0,0,1-.39.27,1.67,1.67,0,0,1-.43.14,9.15,9.15,0,0,1-1,.15q-.95.1-1.86.15c-1.23.08-2.45.14-3.67.15-1.65,0-3.27-.18-4.92-.2-1.46,0-3,.12-4.49.09-3.23,0-6.47-.39-9.68-.48-.64,0-1.23.13-1.84.11a33.39,33.39,0,0,1-3.89-.41,17,17,0,0,1-2.07-.43,2.2,2.2,0,0,1-.44-.2,3.49,3.49,0,0,1-.27-.26,2.6,2.6,0,0,1-.37-.54,4.27,4.27,0,0,1-.42-1.1,11.32,11.32,0,0,1-.08-4c.14-1.14.17-2.56,1.11-3.25.77.2.62.69.72,1.4a7.73,7.73,0,0,1-.3,2.29,8.52,8.52,0,0,0,.15,3.41l.15.35c.07.08.11.21.18.26l.09.1h0c-1,1.15-.26.31-.47.56h0a1.37,1.37,0,0,0,.16-.18,2.22,2.22,0,0,0,.25-.42s-.1,0,0,0l.45.09c.71.11,1.55.2,2.45.29,7,.63,14.87.9,23.3.83l3.48-.13c.59,0,1.19,0,1.78-.06.3,0,.6,0,.88-.08a3.79,3.79,0,0,0,.38-.06h0l.09.15.13.18,0,0c-.11-.15.26.38-.24-.34h0l.06-.06a2.62,2.62,0,0,0,.38-1.39,10,10,0,0,0-.08-1.8,13.86,13.86,0,0,0-1-3.56l-.19-.41c-.07-.08,0-.07-.14-.14a1.19,1.19,0,0,0-.3-.17,3.34,3.34,0,0,0-.38-.15,10.62,10.62,0,0,0-1.73-.38,50.41,50.41,0,0,0-6.5-.28,59.37,59.37,0,0,0-7.53,0c-3.72-.17-7.27-.21-10.62,0a20.44,20.44,0,0,1-3.92.09C56,63.65,54.9,63.64,54.72,63.05Z" fill-rule="evenodd"/><path d="M125.76,63.31c.31,1.94,1.2,7.15-.49,8.56-1.21,1-32.3,1.53-33.6.64S91,67,92.28,64.45s23.1-1.65,33.48-1.14" fill="#eae58c"/><path d="M125.73,63.58c.09.77-.86.35-1.71.36-.26,0-.56.19-.72.19-.55,0-1.14-.23-1.8-.24-5.57,0-11.87-.4-17.61-.39-1.15,0-2.36,0-3.47.14s-2.23.41-3.29.52c-.37,0-.73-.17-1.11-.14s-.58.32-.9.36-.74.1-1.09.15a2.5,2.5,0,0,0-.86.26s-.13.08-.09.08,0-.06,0,.09a5.17,5.17,0,0,0-.23.59,12.23,12.23,0,0,0-.34,1.26,21.32,21.32,0,0,0-.36,2.58,5.87,5.87,0,0,0,0,2.23s.07.12.07.1,0,0,0,0-.09,0,0,0,.51.07.79.1c.57,0,1.17.07,1.77.08l3.6,0c1.64,0,3.24.23,4.88.24,1.47,0,3-.17,4.48-.2,3.21,0,6.45.12,9.64-.07.63,0,1.2-.24,1.81-.29,1.24-.09,2.53-.09,3.82-.14a14.12,14.12,0,0,0,1.84-.15c.11,0,0,0,0,0s.06-.06.09-.08a.83.83,0,0,0,.2-.27,2.3,2.3,0,0,0,.29-.75,13.82,13.82,0,0,0,.21-3.56c-.05-1.1-.44-2.42.23-3.37.78,0,.81.45,1.12,1.14a5.93,5.93,0,0,1,.22,2.44c0,.62,0,1.25,0,1.92a9.19,9.19,0,0,1-.32,2.19c-.07.2-.15.41-.24.62a4.68,4.68,0,0,1-.42.64l-.29.31a2.06,2.06,0,0,1-.59.3,5.45,5.45,0,0,1-.68.16c-.85.13-1.7.2-2.63.26-7.11.31-15,.36-23.46.32-1.09,0-2.27,0-3.52,0l-1.83-.13-1-.12c-.17,0-.35-.06-.54-.1a2,2,0,0,1-.42-.2,3.31,3.31,0,0,1-.27-.26,3.62,3.62,0,0,1-.66-2.18,11.36,11.36,0,0,1,.12-2,16,16,0,0,1,1.06-3.87l.21-.46a1.66,1.66,0,0,1,.48-.56,1.93,1.93,0,0,1,.52-.31,2.9,2.9,0,0,1,.5-.2,12,12,0,0,1,1.93-.47,56.9,56.9,0,0,1,6.64-.74c2.73-.13,5.94.1,7.61-.12,3.74.27,7.29.55,10.64.66a19.27,19.27,0,0,1,3.92.25C124.54,62.85,125.61,63,125.73,63.58Z" fill-rule="evenodd"/><path d="M120.35,29.53s10.32,25.22,9.12,36.68S126,60.64,126,60.64Z" fill="#d8ca41"/><path d="M128.48,72.37c-.32-1.93-1.21-7.14.49-8.55,1.2-1,32.29-1.54,33.6-.65s.66,5.49-.62,8.07-23.1,1.64-33.47,1.13" fill="#eae58c"/><path d="M128.5,72.11c-.09-.77.87-.35,1.71-.36.26,0,.56-.2.72-.19.56,0,1.15.23,1.8.24,5.57,0,11.88.39,17.61.39,1.15,0,2.36-.06,3.48-.15s2.22-.4,3.28-.51c.38,0,.73.16,1.11.14s.58-.32.9-.36.74-.1,1.09-.15a2.35,2.35,0,0,0,.87-.27s.12-.07.09-.07,0,.06,0-.09a5.14,5.14,0,0,0,.22-.59,11.17,11.17,0,0,0,.34-1.26,17.92,17.92,0,0,0,.36-2.59,5.44,5.44,0,0,0,0-2.22s-.06-.12-.07-.1,0,0,0,0,.09,0,0,0-.51-.07-.78-.1c-.58,0-1.17-.07-1.77-.08l-3.61,0c-1.64,0-3.24-.23-4.88-.24-1.46,0-3,.17-4.48.19-3.2.06-6.45-.11-9.64.08-.63,0-1.2.24-1.81.29-1.24.09-2.53.09-3.82.14a11.52,11.52,0,0,0-1.84.15c-.1,0,0,0,0,0s-.06.06-.09.08a.92.92,0,0,0-.21.26,2.45,2.45,0,0,0-.29.76,14.22,14.22,0,0,0-.2,3.55c0,1.11.43,2.42-.23,3.38-.79,0-.82-.45-1.13-1.14A6.13,6.13,0,0,1,127,68.8c0-.61,0-1.24,0-1.91a9.19,9.19,0,0,1,.32-2.19c.08-.2.16-.41.25-.62a3.34,3.34,0,0,1,.42-.64l.29-.31a1.91,1.91,0,0,1,.58-.31c.24-.06.49-.12.69-.15a23.48,23.48,0,0,1,2.62-.26c7.11-.31,15-.37,23.46-.33,1.09,0,2.27,0,3.52,0,.6,0,1.21.07,1.83.13l1,.11.54.11a1.79,1.79,0,0,1,.42.19c.09.09.19.17.28.27a3.68,3.68,0,0,1,.65,2.18,10.55,10.55,0,0,1-.12,2A15.78,15.78,0,0,1,162.72,71l-.22.47A1.76,1.76,0,0,1,162,72a2.63,2.63,0,0,1-.52.31,4,4,0,0,1-.5.2,12,12,0,0,1-1.93.47,59.14,59.14,0,0,1-6.64.74c-2.73.12-5.94-.1-7.61.12-3.73-.27-7.28-.55-10.64-.66a19.32,19.32,0,0,1-3.92-.25C129.7,72.83,128.62,72.72,128.5,72.11Z" fill-rule="evenodd"/><path d="M54.46,63.29c-.4.07-.46-.22-.4-.67,0-.23.08-.49.14-.77s.16-.52.21-.79,0-.74,0-.93c.16-.71.61-1.35.83-2.15a192.7,192.7,0,0,1,8.2-20.46c.59-1.32,1.18-2.71,1.73-4s.9-2.7,1.47-3.95c.2-.44.6-.72.82-1.15s.13-.83.32-1.21.48-.89.73-1.31l.83-1.43.19-.29a1.47,1.47,0,0,1,.46-.3,4.41,4.41,0,0,1,.52-.17c.31-.09.61-.16.9-.23.59-.14,1.17-.26,1.75-.38,1.17-.23,2.34-.43,3.5-.56s2.36-.06,3.52-.14a70.51,70.51,0,0,1,9.21-.24,11.94,11.94,0,0,1,3.22.67L93,23l.43.26a2.33,2.33,0,0,1,.8.87,5.09,5.09,0,0,1,.43,1.81,30.6,30.6,0,0,1-.26,5.77c-.59,4-1.64,7.91-2.3,11.84-.14.77-.09,1.51-.21,2.27-.5,3.07-1.41,6.27-1.85,9.55-.23,1.53-.46,3.1-.68,4.64-.21,1.38-.18,3.1-1.08,4.06-.78-.16-.66-.78-.79-1.68a9.9,9.9,0,0,1,.37-3c.49-2.92.76-6.07,1.61-10.57.84-4.31,1.73-8.87,2.67-13.65a67.33,67.33,0,0,0,1-7.29,13.84,13.84,0,0,0,0-1.82,2.72,2.72,0,0,0-.39-1.4,3.68,3.68,0,0,0-1.44-.58,18.09,18.09,0,0,0-1.86-.27c-1.32-.1-2.76-.06-4.29-.06a90.09,90.09,0,0,0-9.22.55c-1.58.18-3.18.38-4.69.7-.19,0-.38.08-.54.13a2.19,2.19,0,0,0-.23.07h0l0-.06a1.63,1.63,0,0,0-.17-.2l-.15-.16.36.41,0,0c-.06.17-.28.56-.44.91-.34.69-.66,1.41-1,2.1C68,30.77,67,33.37,66,35.83c-1.32,3.09-3.09,6.66-3.66,8.66a122.65,122.65,0,0,0-5.15,12.15c-.29.83-.5,1.56-.71,2.29s-.49,1.46-.81,2.29C55.29,61.88,55.1,63.1,54.46,63.29Z" fill-rule="evenodd"/><path d="M128.8,64.09c-.76.22-.48-1-.66-2.09,0-.32-.3-.66-.33-.86-.1-.69,0-1.47-.16-2.29a211.33,211.33,0,0,0-5.38-21.7c-.41-1.42-.88-2.9-1.32-4.28s-1.06-2.72-1.37-4.15a12.68,12.68,0,0,1,0-1.51,12.87,12.87,0,0,1-.34-1.36,3.35,3.35,0,0,1,.6-2,3.52,3.52,0,0,1,1.79-1,20.12,20.12,0,0,1,3.72-.67A28.32,28.32,0,0,1,129,22c1.21,0,2.4.25,3.59.33,3.14.24,6.21.43,9.34.94a13.33,13.33,0,0,1,1.62.37l.47.16a1.34,1.34,0,0,1,.73.63c.15.25.28.49.4.72.48.93.94,1.86,1.45,2.78.9,1.65,2,3.28,2.89,5,2,3.61,3.66,7.39,5.56,11,.37.71.87,1.29,1.23,2,1.49,2.85,2.65,6.07,4.07,9.16.66,1.46,1.26,3,1.79,4.51a17.69,17.69,0,0,1,.7,2.2,2.76,2.76,0,0,1-.2,2.1c-.8-.08-.77-.57-1.2-1.35a15,15,0,0,1-.89-2.78c-.95-2.81-2.42-5.66-4.38-9.88-1.89-4.06-4-8.31-6.3-12.73-1.15-2.2-2.35-4.45-3.59-6.72l-1.91-3.43c-.32-.55-.67-1.18-1-1.66.2.09-.23-.07-.51-.13L142,25c-1.34-.23-2.83-.36-4.38-.56a88.26,88.26,0,0,0-9.44-.71,30.51,30.51,0,0,0-4.8.26,5.64,5.64,0,0,0-2,.62c-.37.19-.41.94-.36,1.67a21.5,21.5,0,0,0,.88,4c.42,1.33.84,2.66,1.24,4,1,3.28,2,7.25,2.83,9.23,1.09,4.65,2,9.11,2.79,13.33a23.43,23.43,0,0,1,.65,5C129.32,62.46,129.37,63.85,128.8,64.09Z" fill-rule="evenodd"/><path d="M91.87,64.54c-.77,0-.27-1.05-.21-2.05,0-.3-.15-.67-.14-.85,0-.66.32-1.35.38-2.13.45-6.58,1-14.06,1.69-20.89.13-1.37.25-2.81.35-4.16s0-2.73.21-4.05c.06-.46.38-.83.48-1.29s-.08-.82,0-1.23a9.36,9.36,0,0,1,.48-1.44A8.89,8.89,0,0,1,95.9,25a2.72,2.72,0,0,1,.86-.8,5.47,5.47,0,0,1,.91-.45,14.91,14.91,0,0,1,1.74-.52,21.72,21.72,0,0,1,3.44-.48c1.14-.07,2.27.08,3.38.09,3,.05,5.82.07,8.76.38.49.06,1,.14,1.48.23a8.05,8.05,0,0,1,1.61.44,1.38,1.38,0,0,1,.46.31,2.11,2.11,0,0,1,.18.27l.06.15,0,.05c0,.13.09.28.12.4l.18.73c.12.48.23.95.35,1.43.44,1.7,1,3.42,1.46,5.15.91,3.72,1.54,7.53,2.43,11.23.17.74.5,1.37.67,2.08.69,2.91,1,6.08,1.64,9.19.3,1.46.54,2.95.74,4.44.18,1.32.61,3-.16,4-.79-.07-.76-.61-1.06-1.4a10.63,10.63,0,0,1-.37-2.76c-.34-2.76-1.08-5.66-1.91-9.92s-1.72-8.45-2.75-13c-.51-2.26-1.06-4.57-1.64-6.91-.3-1.17-.6-2.35-.94-3.51l-.13-.43-.07-.19s0-.11,0-.05l0,0h0s0,0,.08,0a3.45,3.45,0,0,0,.28-.26c0-.06-.36.43-.27.37h0l-.16-.05-.41-.09c-.58-.11-1.19-.19-1.8-.26-1.27-.14-2.66-.19-4.11-.3a64.22,64.22,0,0,0-8.8-.1,15,15,0,0,0-4.29.78,1.65,1.65,0,0,0-.7.47,3.28,3.28,0,0,0-.43.82,16.5,16.5,0,0,0-.54,2.07,76.86,76.86,0,0,0-.79,7.71c-.26,3.19-.75,7-.65,8.94-.55,4.4-1,8.61-1.35,12.58a25.71,25.71,0,0,1-.54,4.64C92.7,63.16,92.49,64.43,91.87,64.54Z" fill-rule="evenodd"/><polygon points="168.59 53.91 44.7 53.91 44.7 48.91 49.08 48.91 49.19 49.77 102.85 49.38 161.44 48.9 168.59 48.91 168.59 53.91" fill="#ccd2db" opacity="0.49"/><g opacity="0.49"><path d="M44.2,53.91C42,68.47,47.12,97,50,99.89s110.35,3.77,115-.39,4.3-36.87,4.74-45.59H44.2Z" fill="#ccd2db"/></g><path d="M158.49,51.82a55.91,55.91,0,0,1,10.9,1.81c-1,.37,0,.88.46,1.19-1.29.17-1,.57-2.25.77-2.12.13-2.5-.14-4.13-.12-8.59.78-22.44.38-31.73.28-8.22,0-16.31.09-22.56.07-2.68-.06-6.17-.17-9.8-.21-8.3-.09-16.21-.14-25.15-.3-4.62-.08-8.88-.26-13.18-.18-5.61.1-11.06.26-16.85.33a1.54,1.54,0,0,1-1.55-1.52,2.46,2.46,0,0,1,0-.28v0c.18-1,.39-2.15.59-3.29.44-2.29.67-4.48,1.1-6.47.27-1.21.76-2.51,1.08-3.76.87-3.51,1.7-7.25,2.55-10.61.75-2.94,1.57-6,2.53-9.26a83.05,83.05,0,0,1,3.55-10c.38-.85.8-1.71,1.28-2.57a12.17,12.17,0,0,1,1.9-2.56,3.55,3.55,0,0,1,.73-.6,3.81,3.81,0,0,1,.9-.5,10.25,10.25,0,0,1,1.61-.43c1-.2,2-.33,3-.45,3.91-.44,7.88-.64,12-.8,1.44-.14,1.49-.61,3.08-.7,9.7.14,23.06-.34,33.57-.61.7,0,1.86.08,2.61,0,4.55-.29,10.52-.35,16.74-.23s12.67.37,18.32.9c.83.09,1.67.18,2.54.31.43.06.87.14,1.33.22a11.82,11.82,0,0,1,1.56.41,5.14,5.14,0,0,1,.54.22,4.36,4.36,0,0,1,.78.49l.48.46a4,4,0,0,1,.39.46l.49.72c.15.24.24.44.36.65.46.86.8,1.64,1.13,2.42,1.28,3.13,2.24,6.14,3.17,9.07,1.83,5.86,3.38,11.33,4.82,16,1.32,4.31,3.19,9.29,3.56,13.94a14,14,0,0,1-.52,4.93,5.53,5.53,0,0,1-.71,1.57c-.07.08-.13.2-.21.2s-.11-.14-.13-.21-.06-.13-.14-.14-.24,0-.34.26a.71.71,0,0,0-.05.22c0,.09,0,0-.05,0a.53.53,0,0,1-.12-.1,1.94,1.94,0,0,1-.26-.29,7.71,7.71,0,0,1-.55-.79,15.09,15.09,0,0,0-1-1.49c-.08-.1-.17,1.16-.22-.41a97.06,97.06,0,0,1-4.06-15.08c-.13-.62-.87-3-1.46-5.43-.45-1.85-.68-3.66-1.15-5.49s-1.23-3.71-1.7-5.36c-.74-2.67-1.44-5.23-2.13-7.74-.37-1.24-.74-2.48-1.2-3.61a10.92,10.92,0,0,0-.75-1.53.86.86,0,0,1-.14-.18c-.06-.06,0,0-.1-.08a2,2,0,0,0-.34-.13l-.41-.12a43.66,43.66,0,0,0-6.28-.86c-2.19-.17-4.39-.29-6.49-.4C131,4.4,121.59,4.15,111.78,4c-3.75-.05-8,0-11.75.3-5.46-.2-12.35-.25-19.26-.09A153.81,153.81,0,0,0,61.55,5.56,11.67,11.67,0,0,0,59.83,6a2.67,2.67,0,0,0-.34.15l-.28.22a2.73,2.73,0,0,0-.55.53,16.43,16.43,0,0,0-1.8,2.91,50.26,50.26,0,0,0-2.41,5,125.59,125.59,0,0,0-4.52,14.91c-.63,2.61-1.32,5.59-2.14,9.31-1.06,4.8-2,9.69-3,15l-.6-.71c10.07-.08,20.72-.2,31.49-.2,4.57,0,7.73.36,11.59-.37,4.28.1,8.13-.08,12-.11L119,52.53c.52,0,1.18-.18,1.62-.19,2.07,0,4.4.11,6.47.09,1.85,0,3.58-.21,5.42-.21,5.14,0,12.3.06,18.25-.06C153.35,52.1,156,51.93,158.49,51.82Z" fill-rule="evenodd"/><path d="M162.86,48.86c0-.28-.14-.3-.2-.47s-.15-.3-.23-.48c-.15-.37-.31-.83-.47-1.35-.33-1.05-.66-2.36-1-3.78-.68-2.85-1.38-6.15-2-8.67s-1.66-5.7-2.58-9a77.47,77.47,0,0,0-2.51-8.35q-.6-1.91-1.29-3.75a17.79,17.79,0,0,0-1.63-3.46,1.76,1.76,0,0,0-.48-.52,3.39,3.39,0,0,0-.79-.24c-.6-.14-1.25-.23-1.89-.32-1.29-.17-2.6-.29-3.9-.39-5.22-.4-10.42-.58-15.57-.73C118,7.08,107.89,7.05,98,7.14s-19.66.31-29.14,1c-1.19.09-2.36.2-3.53.34A18.4,18.4,0,0,0,62,9.1a4.1,4.1,0,0,0-.62.34c-.18.18-.38.34-.56.53l-.53.62-.47.69a24.83,24.83,0,0,0-1.6,3,89.67,89.67,0,0,0-4.39,13c-1.19,4.47-2.1,8.62-2.88,12.78-.38,2.07-.73,4.15-1,6.27-.06.53-.12,1.06-.16,1.58a8,8,0,0,0,0,1.46.08.08,0,0,1,0,0c0,.07-.1-.16-.16-.16h0l.3.07.78.1c.54.06,1.1.1,1.66.13,7.63.38,15,.11,22.62.07l10.23,0,9.77-.18,8.19-.07c3.41,0,6.91-.22,10.31-.29l8.7-.1c8.22-.17,23.36-.11,33.81-.63l3.34.28,1.66.14.89.07.46,0a1.57,1.57,0,0,0,.57,0,4,4,0,0,1-.72.09l-.63,0-1.28.08-2.62.15-5.46.22c-3.73.13-7.61.21-11.51.27-7.8.13-15.69.21-22.67.47-5.33-.12-12.08.17-18.44.26-8.8.11-18.08.12-25.25.47-4-.16-7.85.05-11.83.05-2.39,0-4.73-.1-7.17-.16-1.17,0-2.33-.06-3.51-.12-.58,0-1.17-.07-1.77-.13l-.47-.07-.26-.07a1,1,0,0,1-.42-.21.47.47,0,0,1-.16-.26l-.06-.17,0-.18v-.13a4.22,4.22,0,0,1,0-.49,47.12,47.12,0,0,1,.77-7c.47-2.78,1.23-5.79,1.83-8.5.94-4.19,1.79-8,3.06-12.06.66-2.08,1.41-4.18,2.29-6.25a23,23,0,0,1,3.42-6c.19-.21.42-.4.63-.6a7.34,7.34,0,0,1,.77-.51,8.69,8.69,0,0,1,1.62-.49A31.11,31.11,0,0,1,66,7.07c7.85-.82,16.16-.9,24.16-1.1,2.22,0,4.54-.14,6.72-.16,4.12,0,8.15.09,12.26.1,5.85,0,11.57,0,17.52.11,3.85.1,7.56.23,11.27.42a109.34,109.34,0,0,1,11.31,1,8.34,8.34,0,0,1,1.56.4,1.77,1.77,0,0,1,.5.28l.39.38c.17.25.38.52.53.78a24.11,24.11,0,0,1,1.52,3.31c.86,2.25,1.54,4.44,1.94,5.88,1.14,4.18,2.55,9.44,3.86,14.81.65,2.69,1.28,5.4,1.85,8,.28,1.31.54,2.59.8,3.83.12.63.24,1.24.35,1.84.06.3.11.59.17.89l.07.44,0,.21,0,.11A.44.44,0,0,1,162.86,48.86Z" fill-rule="evenodd"/><path d="M166.43,61.15c.15-1,.53-1,.7-2,.14,1.28.53-.2.58-.23a11.62,11.62,0,0,1,1,3.25c0,1.91-.18,3.73-.2,5.75,0,4.43.33,9.32,0,14-.15,2.08-.3,4.36-.58,6.67a27.83,27.83,0,0,1-1.54,6.86,7.52,7.52,0,0,1-2.61,3.38,7.28,7.28,0,0,1-2.24.77c-.75.16-1.51.29-2.27.41-1.52.24-3.05.43-4.5.59-5.1.55-9.83.83-14.63,1.06s-9.7.36-15.13.46c-.59,0-1.38.11-2,.11-1.06,0-2.11-.15-3.25-.16-4.81,0-10.21.33-14.77.13a7.05,7.05,0,0,1-2-.22,19,19,0,0,1-3.75.06,64.23,64.23,0,0,1-7.76-.13c-3.48.58-9.37-.1-15-.19-1.81,0-3.66,0-6-.16l-9-.47c-2.4-.12-4.74-.5-6.5-.68-.66-.06-1.79-.37-2.06-.07-.44-.14-.88-.27-1.34-.45a4.89,4.89,0,0,1-.73-.36,2.87,2.87,0,0,1-.62-.56,9.72,9.72,0,0,1-1.49-2.58,30.44,30.44,0,0,1-1.65-6c-.58-3.19-.76-6.7-1-9.77-.22-2.81-.48-5.87-.64-8.52l-.31-6c-.19-3.67-.5-5.28.37-8,.78-2.43,1.11-1.95,1.88-.15,0,1.4,0,2.51,0,4,0,.8-.18,1.65-.2,2.49,0,1.15.1,2.34.12,3.49,0,3.46.09,7.28.28,11a96.31,96.31,0,0,0,1.46,14,20.73,20.73,0,0,0,1,3.48,7.14,7.14,0,0,0,.82,1.55,3.6,3.6,0,0,0,.53.62,3.21,3.21,0,0,0,.69.32,22.29,22.29,0,0,0,3.67.76c1.26.17,2.54.31,3.83.42,8.08.65,16.35,1,24.45,1.21,6,.1,11.85-.07,17.75.06,5,.11,9.62.06,15.75,0,4.78,0,9.76-.06,14.75-.25,6.73-.24,14.56-.29,18.69-1.28.37.06.27.29,1.27.11l6.46-.79a28.53,28.53,0,0,0,3.22-.58,4.47,4.47,0,0,0,1.38-.55,4.25,4.25,0,0,0,1-1.09,13.15,13.15,0,0,0,1.7-4.7,46.6,46.6,0,0,0,.68-5.12,109.28,109.28,0,0,0,0-12.41c-.05-1.8-.1-3.17-.2-4.73,0-.53,0-1.24,0-1.75-.06-.8-.24-1.47-.26-2.25a34,34,0,0,0,0-4.28C166.55,62.16,166.62,61.67,166.43,61.15Z" fill="#fff" fill-rule="evenodd"/><path d="M168.43,56.28c.14-1,.53-1.07.69-2.13.15,1.36.54-.22.59-.25a12.67,12.67,0,0,1,1,3.46c0,2-.21,4-.26,6.1-.1,4.71.21,9.9-.12,14.89-.3,4.41-.47,9.65-1.47,14.37a22.82,22.82,0,0,1-1.42,4.12A9.81,9.81,0,0,1,166.19,99a4.69,4.69,0,0,1-1,.91,4.87,4.87,0,0,1-1.23.51,35.94,35.94,0,0,1-4.77.91c-5.41.72-10.43,1-15.53,1.28s-10.29.42-16,.54c-.63,0-1.47.11-2.13.11-1.12,0-2.24-.15-3.45-.14-5.11,0-10.84.34-15.67.15a8.4,8.4,0,0,1-2.13-.22,21.27,21.27,0,0,1-4,.07,72,72,0,0,1-8.23-.14c-3.7.59-10-.1-15.93-.19-1.92,0-3.89,0-6.38-.17l-9.56-.5c-2.55-.14-5-.52-6.89-.76-.71-.07-1.9-.43-2.21-.16a5.17,5.17,0,0,1-1.52-.77,7.21,7.21,0,0,1-1-1.29,18.41,18.41,0,0,1-1.25-2.8A43.93,43.93,0,0,1,45.64,90c-.65-3.37-1-7.08-1.34-10.33-.34-3-.71-6.2-1-9-.19-2.26-.37-4.52-.53-6.39-.29-3.88-.64-5.6.19-8.56.77-2.6,1.11-2.08,1.88-.19,0,1.48.09,2.66,0,4.22,0,.84-.14,1.74-.13,2.64,0,1.22.16,2.48.22,3.7.17,3.66.35,7.72.69,11.6a128.24,128.24,0,0,0,1.9,14.92,35.19,35.19,0,0,0,1,3.75,7.74,7.74,0,0,0,1.78,3.22,5.62,5.62,0,0,0,1.7.59c.65.14,1.31.26,2,.37,1.34.2,2.7.35,4.07.47,8.57.7,17.34,1.11,25.95,1.27,6.32.1,12.58-.08,18.84,0,5.3.11,10.2,0,16.72,0,5.07,0,10.35-.08,15.65-.3,7.14-.26,15.45-.37,19.82-1.45.4,0,.29.29,1.34.09,2.23-.35,4.55-.6,6.77-1.1a5.68,5.68,0,0,0,1.48-.52,4.32,4.32,0,0,0,1.05-1.15,10.91,10.91,0,0,0,1.34-3.14,55,55,0,0,0,1.43-10.9c.27-4.58.07-9,0-13.21,0-1.91-.08-3.37-.15-5,0-.56,0-1.31,0-1.85,0-.84-.22-1.57-.24-2.39a32.87,32.87,0,0,0,.06-4.53C168.54,57.35,168.61,56.84,168.43,56.28Z" fill-rule="evenodd"/><path d="M166.43,61.65c1,.36.48,1.86.54,2.84,0,.47.26,1.1.29,1.74s-.15,1.21.09,1.64c0,4,.05,7.85,0,11.59a59.84,59.84,0,0,1-.82,10.77A16.41,16.41,0,0,1,165,95.09a12.56,12.56,0,0,1-1.3,2,3.65,3.65,0,0,1-.44.44,2.86,2.86,0,0,1-.52.41,5.21,5.21,0,0,1-1.15.49,18.25,18.25,0,0,1-2,.36c-.62.11-1.22.24-1.84.34s-1,.08-1.54.13-1.28.27-1.92.33-1.06,0-1.64.07c-1.54.14-4.4-.12-6.34.3-.46-.25-.82-.56-1.32-.78,2.43-.9,5.75-.37,8.32-.92a13.34,13.34,0,0,0,3.43-.27c1.61-.17,3.39-.31,4.5-1a1.5,1.5,0,0,0,.91-.29,7.22,7.22,0,0,0,.63-.72c.13-.15.27-.29.39-.45a2.4,2.4,0,0,0,.37-.5,11.15,11.15,0,0,0,.8-2.32,15.33,15.33,0,0,0,.56-1.47c.15-.77.13-1.5.24-2.26s.36-1.59.43-2.41c0-.39-.07-.78-.06-1.16,0-1.45.21-3,.23-4.46,0-.41-.07-.84-.06-1.25,0-.76.2-1.51.21-2.27,0-1.09-.17-2.16-.15-3.26,0-1.44,0-2.77.05-4.21,0-.69-.1-1.84,0-2.4C166.13,65.87,165.81,63.39,166.43,61.65Z" fill="#9b9a91" fill-rule="evenodd"/><path d="M125,99.83c-.09,1-.65.55-1,.6-.17,0-.4.27-.63.29s-.44-.17-.59.07c-2.88-.24-5.56.11-8,.07a14.93,14.93,0,0,1-1.77,0,8.64,8.64,0,0,0-1.52.18c-.23,0-.46-.08-.69-.08s-.44.05-.66.07a3.45,3.45,0,0,1-.55-.07c-.23,0-.47.14-.7.14s-.38-.07-.58-.07c-.56,0-1.58-.44-2.28-.13-.16-.26-.29-.6-.46-.84.89-.79,2.07,0,3-.37.36.27.81.06,1.24.08a2.46,2.46,0,0,0,1.7-.24c.27.22.53,0,.8,0s.31.07.48.06.62-.16.94-.18.39.16.58.14.55-.18.83-.19.6.13.9.11c.14,0,.28-.14.42-.17a14.53,14.53,0,0,1,1.62,0c.15,0,.3-.09.45-.09s.55.17.83.17.77-.17,1.17-.15a13,13,0,0,1,1.52.11c.25,0,.66-.08.86,0C123.44,99.6,124.32,99.3,125,99.83Z" fill="#9b9a91" fill-rule="evenodd"/><path d="M87.56,99.89c-.44,1-2.55.5-3.89.51-.64,0-1.52.23-2.4.22a7.6,7.6,0,0,0-2.25,0c-5.47-.29-10.75-.5-15.84-.81-2.55-.17-5-.36-7.5-.69-.62-.11-1.22-.18-1.84-.33a8.65,8.65,0,0,1-.94-.24l-.48-.16a5.21,5.21,0,0,1-.56-.31,4.7,4.7,0,0,1-1.32-1.61,10.5,10.5,0,0,1-.75-1.74A30.17,30.17,0,0,1,48.4,88c-.17-2-.56-3.84-.72-5.8-.07-.87,0-1.76-.08-2.63s-.12-1.66-.19-2.5,0-1.37,0-2.1c0-.88-.19-1.77-.23-2.64,0-.71,0-1.45,0-2.23-.08-2.1.24-6-.25-8.63.23-.62.52-1.12.71-1.8,1.07,3.34.47,7.9.91,11.45a28.1,28.1,0,0,0,.1,4.72,28.46,28.46,0,0,0,.57,6.42,11.24,11.24,0,0,0,.29,3c.08.6,0,1.2.13,1.82.14,1.17.46,2.32.68,3.46.13.69.12,1.48.31,2.15a15.15,15.15,0,0,0,1.16,2.78,6.33,6.33,0,0,0,.76,1.22c.16.22.27.22.46.34s.47.18.73.24a13.15,13.15,0,0,0,1.54.14c1.94.24,4,.54,6.06.69.56,0,1.16,0,1.71,0,1,.08,2.06.31,3.11.38,1.49.09,3,0,4.47.09l5.75.35c.93.07,2.51,0,3.27.14C81.83,99.52,85.19,99.31,87.56,99.89Z" fill="#9b9a91" fill-rule="evenodd"/></svg>