<svg xmlns="http://www.w3.org/2000/svg" viewBox="0 0 60 80"><title>illo-bev-molotov</title><path d="M27.37,13.13c.07.17-.16.55-.15.91a12.88,12.88,0,0,0-.29,3.87c0,.7,0,1.37,0,2.21,0,.38.06.77.07,1.14,0,.2,0,.45,0,.65s.05.55.06.82,0,.8,0,1.23.06.62.07.89,0,.49,0,.74c0,.52,0,1.4,0,2,0,.22.05.36.06.57,0,.49,0,1.05,0,1.56,0,1.63.17,4.26.27,6.45a17,17,0,0,1-.53,5.8,10.32,10.32,0,0,1-.32,1,16,16,0,0,1-1.39,2.53l-.17.26a.67.67,0,0,1-.93.21.69.69,0,0,1-.31-.64v0c.09-.86.17-1.74.2-2.57,0-.5.06-1,.07-1.52,0-.29,0-.6,0-.88s0-.42,0-.65c0-.75-.12-1.82-.21-2.9-.05-.77-.17-1.77-.25-2.5,0-.26-.13-.86-.2-1.29,0-.13,0-.32,0-.49-.05-.47-.1-.95-.15-1.38,0-.22-.11-.48-.13-.73s0-.22,0-.33c-.1-.66-.23-1.42-.36-2.18a15,15,0,0,0-.37-2.36,8.24,8.24,0,0,0-.16-1.39c-.1-.79-.11-1.58-.19-2.47s0-1.57-.06-2.32c0-.28,0-.56,0-.83,0-1.06.23-2.29.24-3.46a20.53,20.53,0,0,1,.43-2.18c.07-.2.11-.28.19-.48.3.19.29.8.55,1a7.43,7.43,0,0,1,0,1.07c0,.34,0,.65,0,1,0,.7-.11,1.51-.13,2.27,0,.46,0,.87,0,1.29,0,1.33,0,2.9.06,4.34,0,.37,0,.8,0,1.14,0,.54.14,1.06.2,1.61.15,1.3.31,2.68.46,4,.09.75.2,1.66.27,2.28s.1.95.15,1.38c.14,1.39.32,2.84.4,4.25.07,1,.11,2,.1,3,0,.47,0,.94-.05,1.39L24.81,44c0,.49-.09,1-.14,1.48l-.36-.13.39-.6c.1-.16.23-.29.33-.46a13,13,0,0,0,.69-1.46,9.71,9.71,0,0,0,.66-1.9c.09-.45.11-.9.16-1.35.06-.67.13-1.33.13-2l0-.82c0-.61,0-1.24,0-1.88s-.08-1.28-.08-1.88c0-.86,0-1.78,0-2.69,0-1.43,0-2.7,0-4.34,0-.66,0-1.53,0-2.12,0-.88,0-2,0-3.27,0-.65,0-1.33,0-2,0-.37.05-.72.06-1.06s-.05-.85,0-1.23a15.41,15.41,0,0,1,.2-1.53,3.81,3.81,0,0,1,.07-.47c0-.1.06-.11.09-.22C27,13.76,27.18,13.15,27.37,13.13Z" fill-rule="evenodd"/><g opacity="0.57"><path d="M33.34,40.33H16.64a21.51,21.51,0,0,0-.75,7l.78,23.72c2.06.44,15.43.82,17.41-.34.05-10.42.05-18.84-.49-28.78A11.58,11.58,0,0,0,33.34,40.33Z" fill="#894d0c"/></g><path d="M35.24,52c0-.8-.18-1.85-1-1.89-1.16-.07-2.43.42-3.58.25-.68,0-1.82.07-2.08-.66a3,3,0,0,0-.54-.8,7,7,0,0,0-2.44-.23c-1.55-.09-3.53-.83-5,0-.44.25-.58.8-1.28,2.09-1,.07-5,.45-5,.45a3.25,3.25,0,0,0-.56,1.62c-.33.22,1.06,14.3,1.06,14.3,3.12-.43,19.72-.2,19.72-.2.57-.07.44-3.64.38-4.19C34.68,59.19,35.27,55.54,35.24,52Z" fill="#eaeeef"/><path d="M21.91,32.45c-.09.75-.46.79-.54,1.57-.22-1-.48.19-.53.21a7.3,7.3,0,0,1-1.11-2.45c-.07-1.47.08-2.88.07-4.43,0-3.41-.46-7.14-.4-10.77,0-.46,0-.91.05-1.48h0a.64.64,0,0,1,.64-.6c2.5,0,5.31-.16,8-.23a.63.63,0,0,1,.66.62v0c0,.34,0,.67,0,1,0,1-.16,2-.18,3.07-.05,2.21,0,4.69.09,6.92.07,2,.14,3.84.2,5.7L28.88,33l.06.66,0,.14s0,0,0-.07l0,0a.53.53,0,0,0-.15-.15.5.5,0,0,0-.34-.06h.07l.37,0a5.15,5.15,0,0,1,3,.48A5.36,5.36,0,0,1,34,36a9.66,9.66,0,0,1,1,2.83,20.28,20.28,0,0,1,.28,3c0,1,.09,2,.14,3,0,.46.12,1.07.13,1.54,0,.81-.12,1.63-.11,2.51,0,3.69.38,7.84.21,11.34a4.72,4.72,0,0,1-.19,1.54,12.16,12.16,0,0,1,.07,2.88,42.58,42.58,0,0,1-.08,6,11.42,11.42,0,0,1,.22,1.91.34.34,0,0,1-.2.34h0a6.56,6.56,0,0,1-2.21.57c-.77.09-1.57.14-2.4.16l-5.13.06c-1.39,0-2.82.09-4.63,0-2.07-.12-4.29-.13-6.27-.38a.38.38,0,0,1-.33-.34v0c0-.26,0-.48,0-.7-.13-1.83-.06-3.65-.18-5,0-.5,0-1.39-.32-1.52a84.53,84.53,0,0,0-.3-8.84c-.11-2.45-.07-5.14-.2-7.49-.09-2.15-.4-4.48-.35-6.61a16.53,16.53,0,0,1,.74-4.88A7,7,0,0,1,16,34.55a4.32,4.32,0,0,1,3.32-1c2.19.49,1.55.86.41,1.71a5.57,5.57,0,0,0-2.37,1.07,4.86,4.86,0,0,0-.63.51,2.35,2.35,0,0,0-.56.65,7.19,7.19,0,0,0-.83,2.3A29.76,29.76,0,0,0,14.88,48c.21,7,0,14.69.38,22.68l.09,2.23L15,72.48c2.63.35,5.46.41,8.21.5s5.53.06,8.25-.14c.64-.06,1.27-.11,1.89-.22a6.85,6.85,0,0,0,1.72-.45l-.22.37c-.05-3.27-.13-6.52-.06-9.78.08-3.84,0-7.38,0-12.09,0-1.84-.07-3.71-.14-5.6,0-1-.08-1.9-.13-2.85a23.66,23.66,0,0,0-.23-2.83,8.32,8.32,0,0,0-1.35-3.56,4,4,0,0,0-3.15-1.7,3.86,3.86,0,0,0-.9,0h-.32a.24.24,0,0,1-.2,0c-.11-.1-.09-.11-.1-.12v0l0-.05v-.08c0-.17,0-.32-.06-.47-.05-.6-.1-1.18-.14-1.74a26.22,26.22,0,0,0-.39-2.88c.07-.28.29-.19.18-1-.28-3.28-.13-6.72-.21-10.19l-.06-2.72.58.57-5.35.31c-.89,0-1.77.1-2.61.16l.76-.73c.07,2.28.35,4.65.5,6.89.09,1.39.17,2.44.28,3.64,0,.41,0,.95.06,1.34.07.61.24,1.13.28,1.72a17.65,17.65,0,0,0,.08,3.27C21.76,31.69,21.71,32.06,21.91,32.45Z" fill-rule="evenodd"/><path d="M33.8,70.59s-.09-.07-.15-.09a3.21,3.21,0,0,0-.5-.09,2.86,2.86,0,0,0-.28-.07h-.28l-.28,0H32l-.38,0a1.17,1.17,0,0,1-.38,0,6.17,6.17,0,0,1-.86,0l-2,0-2,0-2.81,0-2.41,0c-.17,0-.34,0-.48,0s-.18,0-.26,0-.33,0-.49,0l-.89.08c-.29,0-.52.07-.82.08a6.58,6.58,0,0,0-.71.22c-.11,0-.13,0-.23,0a1.6,1.6,0,0,0-.23,0s0,.07-.08.08-.15,0-.13,0,.16.1.21.16-.1,0-.11.08c.15,0,.12,0,.2.08a6.79,6.79,0,0,0,1.15.22c.05,0,0,.08.07.07l2.13.23a.72.72,0,0,1,.27.06c.3,0,.58.06.86.08.52,0,1,0,1.56,0l.81,0c.67,0,1.35,0,2-.08l1.64-.13a1.18,1.18,0,0,0,.25,0H28l1.13-.08.56-.06L31,71.29l2-.19a3.54,3.54,0,0,0,.77-.09s-.07-.06,0-.08a2.35,2.35,0,0,0,.72-.07c0-.06-.07-.06,0-.12A1.75,1.75,0,0,0,33.8,70.59Zm-.15,0s.05,0,.1,0S33.66,70.57,33.65,70.57Z" fill-rule="evenodd"/><path d="M35,50.1c-.05.35-.38.2-.41.58a14.39,14.39,0,0,0-2-.2c-.39,0-.76.15-1.12.14a15.15,15.15,0,0,0-1.64-.12c-.13,0-.26.1-.39.11l-.41,0a.53.53,0,0,1-.37-.11l0,0a1.77,1.77,0,0,1-.61-1,2.91,2.91,0,0,0-.16-.46l0,0L27.73,49,27.42,49a6.2,6.2,0,0,0-.78,0l-.36,0c-.11,0-.23-.08-.33-.08-.37,0-.74.11-1.1.11l-1.24,0c-.57,0-1.14,0-1.69,0a5.36,5.36,0,0,0-.77-.09,1,1,0,0,0-.55.29,1.53,1.53,0,0,0-.4.52c-.17.35-.37.9-.88,1.07a9.19,9.19,0,0,1-1.26.21c-.82.12-1.63.22-2.43.26-.29,0-.58.12-.86.11a.76.76,0,0,1-.62-.25,1,1,0,0,1,.13-.57,19.42,19.42,0,0,0,3.08-.23l.78-.1c.15,0,.31,0,.37-.15A.67.67,0,0,0,19,50c.1-.05.09-.09.17-.2s.36-.67.74-1.12a2,2,0,0,1,1.56-.57c.52,0,1,0,1.48,0,.23,0,.46,0,.69,0s.5.1.74.1.29-.07.44-.07.25.07.36.07c.41,0,.81-.07,1.21-.06.22,0,.44.05.66.06a1.08,1.08,0,0,1,.66.13.66.66,0,0,1,.64.19,2.23,2.23,0,0,1,.25.64c0,.1.14.15.18.25s0,.35.16.47l.05,0-.05,0a3.5,3.5,0,0,1,1.61,0,1.17,1.17,0,0,1,.91.08,1.41,1.41,0,0,1,.63-.24c.28,0,.55.11.84.11s.44-.12.63,0C34,49.82,34.86,49.63,35,50.1Z" fill-rule="evenodd"/><path d="M36,66.27c0,.35-.32.26-.29.64-.62,0-1.28,0-1.93,0-.36,0-.7.19-1,.2A11.93,11.93,0,0,0,31.2,67c-.12,0-.25.1-.37.12a32,32,0,0,1-3.46.07l-.34,0c-.1,0-.21-.07-.3-.08-.34,0-.69.11-1,.1l-1.15,0c-.53,0-1.06,0-1.56,0-.27,0-.52-.14-.79-.16s-.53,0-.77,0-.5-.08-.75-.1a25.26,25.26,0,0,0-4.54.13c-.26,0-.52.13-.78.14a.73.73,0,0,1-.58-.21,1.1,1.1,0,0,1,.08-.59c.79-.06,1.78-.13,2.91-.24l.75,0c.15,0,.3,0,.36-.11.35.26.83.06,1.23.08s.78.16,1.19.18c.86.06,1.78.12,2.68.11.22,0,.43,0,.64,0s.46.11.69.11.27-.07.4-.07.23.08.34.08c.38,0,.75-.06,1.12,0,.2,0,.4.06.61.06a1.16,1.16,0,0,1,.61.07c.38-.2.78,0,1.19-.06.09,0,.16-.1.26-.11s.34.08.52.07a3.36,3.36,0,0,1,1.55,0,1,1,0,0,1,.85,0,1.21,1.21,0,0,1,.57-.27c.25,0,.51.08.78.06s.39-.16.58,0C35.09,66.14,35.79,65.83,36,66.27Z" fill-rule="evenodd"/><path d="M17.6,45.64s0,0,.07-.09,0-.18.07-.29,0-.11.05-.17l0-.16,0-.16c0-.1,0-.12,0-.21l0-.23a.78.78,0,0,1,0-.22,4.36,4.36,0,0,1,0-.51c0-.44.05-.77.07-1.2s.06-.85.07-1.19a2.35,2.35,0,0,1,.28-1.3,10.24,10.24,0,0,1,1-.86c.07-.06.16-.12.22-.18l.11-.11.22-.18.39-.37c.12-.12.21-.22.35-.34a3.87,3.87,0,0,0,.24-.37c.06,0,.05-.07.1-.1s.07,0,.11-.07,0,0,0-.07.08,0,.06-.06-.12,0-.17,0,0-.05,0-.08-.06,0-.12,0a4.45,4.45,0,0,0-.62.32s0,0-.06,0l-1.08.67a.51.51,0,0,1-.15.07c-.14.11-.29.18-.43.28a5.16,5.16,0,0,0-.78.59,2.25,2.25,0,0,0-.4.5,2.82,2.82,0,0,0-.27,1.36c0,.34,0,.72,0,1a.61.61,0,0,0,0,.15v.1c0,.31,0,.42,0,.67,0,.09,0,.25,0,.34,0,.28,0,.49,0,.75s0,.82,0,1.17a1.68,1.68,0,0,0,0,.46s0,0,0,0a1,1,0,0,0,0,.42s0,0,.07,0C17.53,45.87,17.6,45.82,17.6,45.64Zm0-.09s0,0,0,.06S17.62,45.56,17.62,45.55Z" fill-rule="evenodd"/><path d="M36.23,56.87c.08-.17.43-.2.62-.61a9.66,9.66,0,0,0,.73-.95,3.22,3.22,0,0,1,1.16-1,1.81,1.81,0,0,1,.86-.17,1.42,1.42,0,0,1,.88.41A2.33,2.33,0,0,1,41,56.1a2.34,2.34,0,0,0,.2,1c.13.18.34.27.76.18a3.2,3.2,0,0,0,1.07-.6c.21-.13.48-.26.68-.41s.48-.45.72-.67.74-.62,1.08-1c.1-.11.18-.22.27-.34V55c-.16-.17-.33-.35-.47-.52a7.39,7.39,0,0,1-.51-.81,20.15,20.15,0,0,1-1.34-2.26c-.14-.24-.25-.39-.37-.64a18,18,0,0,1-.74-1.86,31.13,31.13,0,0,1-1.61-8.1A45,45,0,0,1,41,33.6c0-.41,0-.81.07-1.24.1-1.12.29-2.29.43-3.46s.28-2.48.41-3.65c.07-.63.18-1.28.23-1.92,0-.36,0-.75,0-1.11s.08-.52.1-.8c.06-1,.08-2.28,0-3.61a18.59,18.59,0,0,0-.37-3,13.57,13.57,0,0,0-.48-1.47c0-.16-.1-.37-.17-.56a9.15,9.15,0,0,0-.73-1.47c-.13-.22-.38-.42-.54-.66a1.24,1.24,0,0,0-.21-.33,8.8,8.8,0,0,0-2-1.59,6.19,6.19,0,0,0-2.6-1,2.64,2.64,0,0,0-.75-.22c-.29,0-.58,0-.86-.07a11.71,11.71,0,0,0-2.89,0,12.88,12.88,0,0,0-2.6.66l-.85.43a5.9,5.9,0,0,0-2.9,2.37,4.39,4.39,0,0,0-.75,2.18c0,.22,0,.31-.06.55-.45,0-.64-.8-.95-1.11a3.14,3.14,0,0,1,.15-1.49,4.88,4.88,0,0,1,.51-1.31,6.94,6.94,0,0,1,2.34-2.13,11.89,11.89,0,0,1,1.53-.87,11.7,11.7,0,0,1,5.78-.88,13.37,13.37,0,0,1,1.5.26,14.31,14.31,0,0,1,2.1.52,10.19,10.19,0,0,1,4.41,3.12,10.87,10.87,0,0,1,1.5,2.62,10.52,10.52,0,0,1,.53,1.73,21.85,21.85,0,0,1,.53,5.4c0,1.28-.1,2.53-.21,3.7-.08.6-.14,1.16-.21,1.74-.15,1.53-.31,3.08-.52,4.58,0,.24-.11.46-.14.71-.08.67-.1,1.36-.18,2-.09.84-.21,1.69-.28,2.54,0,.59,0,1.15-.06,1.73-.05.85-.15,1.67-.14,2.55l0,1c0,.75,0,1.55.08,2.34s.24,1.58.35,2.31a26.27,26.27,0,0,0,.69,3.28A17.3,17.3,0,0,0,45.07,53c.34.52.78,1.14,1.16,1.63a0,0,0,0,1,0,0l-.44.48a13,13,0,0,1-3.23,2.48,2,2,0,0,1-1.19.18,1,1,0,0,1-.74-.84c-.1-.45,0-.88-.07-1.33a1.21,1.21,0,0,0-.38-.75,1,1,0,0,0-.77-.26,2.37,2.37,0,0,0-1.69,1.1c-.12.17-.21.34-.34.5s-.13.1-.22.2a2.17,2.17,0,0,1-.49.46C36.47,57,36.28,57,36.23,56.87Z" fill-rule="evenodd"/><path d="M39.26,50.73c-.16,0-.23-.26-.41-.41a16.45,16.45,0,0,1-.75-2.14A9.32,9.32,0,0,1,37.87,47c0-.22-.11-.42-.13-.63s0-.25,0-.36-.07-.3-.08-.45,0-.44,0-.68-.06-.34-.06-.49,0-.26,0-.4,0-.76,0-1.11c0-.11,0-.19,0-.31s0-.56,0-.84c0-.88-.07-2.31-.12-3.49,0-1,0-2,0-3,0-.18,0-.34,0-.53,0-.48,0-1,0-1.49s0-1.06-.07-1.57c0-.27,0-.56,0-.83s0-.33-.06-.48,0-.23,0-.35c0-.41-.09-1-.13-1.56,0-.42-.09-1-.12-1.35,0-.14-.09-.45-.13-.69,0-.07,0-.17,0-.26,0-.25,0-.51-.08-.74s-.08-.25-.1-.38,0-.12,0-.18c-.07-.35-.19-.74-.3-1.14a3.34,3.34,0,0,0-.39-1.19c0-.22-.15-.46-.24-.7a10,10,0,0,0-.46-1.19c-.17-.34-.33-.73-.52-1.06a4.15,4.15,0,0,1-.24-.34,5.73,5.73,0,0,0-1-1.42c-.17-.33-.49-.65-.63-.94a1.69,1.69,0,0,1-.1-.27c.26-.2.55,0,.82-.15a1.79,1.79,0,0,1,.52.34,5.07,5.07,0,0,1,.46.35,6.55,6.55,0,0,1,.79,1.05c.15.22.31.4.44.61A9.23,9.23,0,0,1,36.86,21c.06.2.08.43.13.62s.2.57.27.86a22.14,22.14,0,0,1,.42,2.21c.07.4.11.9.16,1.24a5.79,5.79,0,0,1,.07.76c.07.77.15,1.54.22,2.3,0,.55.07,1.09.08,1.59,0,.26,0,.51,0,.76,0,.66.09,1.33.08,2,0,.1,0,.2,0,.31,0,.29.06.59.06.88s0,.74,0,1.11.05.5.05.75-.05.72-.05,1.1c0,.15,0,.3,0,.45,0,.32,0,.67,0,1s0,.7,0,1-.06,1-.09,1.45c0,.77-.07,1.46-.06,2.34,0,.36,0,.83,0,1.15a15.13,15.13,0,0,0,.1,1.76c0,.35.11.71.18,1.05s0,.39.06.58.16.43.22.63.12.51.23.82c0,.09.1.15.13.24s0,.09,0,.15S39.36,50.6,39.26,50.73Z" fill-rule="evenodd"/></svg>