<svg xmlns="http://www.w3.org/2000/svg" viewBox="0 0 158 146"><title>illo-pancakes</title><path d="M51.25,88C38,86.42,21,86.52,9.87,95-1,103.24-2.77,118.76,7.92,128c10.5,9.08,26.18,11.15,39.49,12.33,14.78,1.32,30.82,2.7,45.31-1.16,8.08-2.15,6.77-15.88-2-15a100.51,100.51,0,0,1-35.61-2.65,93.11,93.11,0,0,1-16.38-5.92c-2.67-1.27-10.76-4.33-10-8.4C30.6,97.56,15.86,93.44,14,103.11c-3.45,17.7,14.94,25.64,28.6,30.52a111.42,111.42,0,0,0,48.11,5.82l-2-15c-10.37,2.76-21.39,1.75-32,1.23-10.88-.54-22.24-1.4-32.46-5.52-6.74-2.72-12.24-8.75-3.88-13.81,8.51-5.16,21.51-4.13,30.92-3,4.11.5,7.65-3.88,7.65-7.65,0-4.55-3.53-7.14-7.65-7.65Z"/><path d="M108.5,73.55c-25.16-1.21-51.93-1.29-73.44,11.8C28.89,89.1,23,94.51,21.89,101.66a20.57,20.57,0,0,0,1.78,11c4.23,9.92,13.39,17.13,23.42,21.1s21,5.08,31.72,5.66c19,1,38.8.32,55.86-8.11,9.72-4.8,18.74-12.88,20.7-23.54,1.73-9.39-4.67-14.87-11.73-21.3S118,74.52,108.5,73.55" fill="#fff"/><path d="M108.82,73.84c-.81-.71.1-.9,1.51-.89.7,0,1.52.11,2.3.2l2.07.34c2.36.43,5,1.2,6.29,1.51.51.11.88,0,1.31.12,3.62,1,7.22,2.36,10.43,3.57.62.24.47,0,.69,0a1.47,1.47,0,0,1,.51.47,13.29,13.29,0,0,1,1.59.45,37.19,37.19,0,0,1,5.88,3.24l1.42,1c.47.34.91.77,1.37,1.14.89.78,1.64,1.51,2.48,2.25a43.36,43.36,0,0,1,7.41,8.06,18.08,18.08,0,0,1,2.39,5.21,17.05,17.05,0,0,1,.49,6,24.38,24.38,0,0,1-1.6,7,26.5,26.5,0,0,1-3.5,5.91c-1.37,1.72-2.8,3.24-4.15,4.65-1.3,1.07-.05,1-1,1.86-1.39,1.36-1.79,1.06-2.89,1.78-2.72,2.57-6.05,4.23-9.22,5.85a75.58,75.58,0,0,1-6.82,3.35,39.89,39.89,0,0,1-4,1.37c-1.36.44-2.78.8-4.25,1.2-2.21.6-5.21,1.19-7.7,1.78-1.6.36-2.75.92-4.14,1.27-1.55.34-3.55.62-5.21.85a81.92,81.92,0,0,1-14.43,1c-2.46,0-5.16-.14-7.18-.3-.47,0-.65.12-1,.07s0-.22-.65-.26c-2.94-.2-4.5-.15-8.15-.51l-7.58-.7c-1.43-.15-2.95-.48-4.31-.69-2.44-.37-4.71-.71-7.08-1.23a38.06,38.06,0,0,1-7.53-2.41,39.27,39.27,0,0,1-7.86-4.71c-1-.77-1.56-1.53-2.33-2.21-1-.89-1.89-1.5-2.91-2.5-.39-.39-.31-.4-1.18-1.31a45.31,45.31,0,0,1-4-4.38A37.82,37.82,0,0,1,22,115.7a29.64,29.64,0,0,1-2.2-8.12,22.3,22.3,0,0,1,0-7,17.84,17.84,0,0,1,2.73-6.85A32.05,32.05,0,0,1,33.3,84.09a71.74,71.74,0,0,1,13.07-5.87,82.63,82.63,0,0,1,8.77-2.48A34.44,34.44,0,0,1,59,75.16l1.93-.24,1.94-.21c2.69-.39,5.37-.95,7.94-1.22L75,73.15l4.47-.3c2-.1,4.09,0,5.78-.13,1.11,0,2.1-.36,3.19-.41.8,0,1.66.08,2.58.1h3.53c1.47,0,2.85.3,4.17.3s3.21-.27,4.81-.32c1.32,0,3.38-.27,4.8.42,1,1.09-2.25.84-3.21.8-3.49.48-8.3.19-12.78.29-2.93,0-5.65.32-8.59.48-1.12.07-2.27.13-3.44.18l-3.54.21a118.21,118.21,0,0,0-15,2.25A79.58,79.58,0,0,0,50,80.24a42.15,42.15,0,0,0-5.11,2.21,24.62,24.62,0,0,0-3.78,2.41,18.48,18.48,0,0,0-2.9,1.41c-.93.53-1.89,1.07-2.79,1.69a28.81,28.81,0,0,0-8.27,7.93A13.48,13.48,0,0,0,25,105.7a23.15,23.15,0,0,0,3,8,28.51,28.51,0,0,0,3.76,4.66,39.71,39.71,0,0,0,7.89,6.7A41.34,41.34,0,0,0,48.48,129a122.35,122.35,0,0,0,22,5c2.58.39,5.08.92,7.77,1.23s5.69.45,8.5.65c2.51.18,5,.56,7.56.57,1.73,0,3.6-.16,5.32-.21,4.18-.14,8.39,0,12.53-.47a31.38,31.38,0,0,0,3.27-.54l3.17-.67c2-.4,3.93-.67,5.83-1.17a68,68,0,0,0,10.76-4.16c.72-.32,1.5-.74,2.31-1.09s1.59-.71,2.28-1c2-1.53,4.38-3.17,6.57-5.15a19.68,19.68,0,0,0,5.11-6.69,20.53,20.53,0,0,0,3.38-8,13.9,13.9,0,0,0-1.56-9.57,36,36,0,0,0-6.74-8c-1.27-1.19-2.51-2.43-3.77-3.5a31.73,31.73,0,0,0-3.94-2.86c-.75-.48-1.4-1-2.16-1.41-1.75-.9-3.72-1.32-4.93-2.32-3.55-.84-8.71-3-13.44-4.16-1.75-.43-3.51-.85-5-1.09C111.51,74.12,110.12,74.41,108.82,73.84Z" fill-rule="evenodd"/><path d="M144.69,97.91c.16-.4-.22-.9-.51-1.28a19.84,19.84,0,0,0-2.78-2.48c-.51-.44-1-1.06-1.48-1.45s-1.18-.62-1.73-1-1.06-1-1.56-1.31c-.66-.42-1.51-.76-2.23-1.19s-1.52-1-2.31-1.46-1.86-.74-2.34-1.43A39.83,39.83,0,0,1,124,83.92c-1.17-.49-2.38-1-3.65-1.38l-1-.32c-.33-.11-.64-.21-1.06-.31l-1.17-.3c-.39-.09-.7-.14-1-.21-2.69-.52-5.07-.79-7.45-1.13A115.75,115.75,0,0,0,94.17,79.2l-2.29,0-1.29,0-1.25.07c-1.66.09-3.45.22-5.24.36-3.61.31-7.26.7-10.14,1.18a136.29,136.29,0,0,0-17.15,3.39,28.78,28.78,0,0,0-3.41,1c-.62.25-1.13.67-1.71.91-1.15.43-2.32.74-3.36,1.18a43.84,43.84,0,0,0-5.9,3.15c-1.78,1.24-3.21,2.2-5,3.56-.48.76-1.16,1.44-1.73,2.23a10,10,0,0,0-1.39,2.34c-.68.41-.59.78-1.1,1.25a9.51,9.51,0,0,0-1.32,1c-.23.33.28.57.05.9s-.92.56-.51.74c.2.3,1.47-.11,2,0,.19.34-.21.73,0,1.06.67-.64.73-.3,1.37-.36,2.25-.94,5.11-2,6.9-2.74.31-.07.23.69.68.32.75-.3,1.73-.57,2.73-.94s2.14-.68,3.3-1,2.37-.63,3.57-.88c.59-.12,1.17-.25,1.75-.35l1.71-.22a4.18,4.18,0,0,1,1.84,0,14.5,14.5,0,0,1,2.8-.47c.92-.09,1.84-.12,2.76-.22L73,95.3l5.39-.53L85,94l6.59-.86a106.92,106.92,0,0,1,10.83-.84A11.76,11.76,0,0,0,104.2,92c.35,0,.87,0,1.2,0,2.76-.11,4.95.08,7.45.2.6,0,1.19,0,1.77,0a8.23,8.23,0,0,1,1.62.13,73.41,73.41,0,0,1,8.13,2.34c4.09,1.32,8.45,2.5,12.77,4.25a21.78,21.78,0,0,0,5,1.75c.25,0-.15-.64.53-.53,1.78.88,2.63,1.87,4.41,2.23.31-.45-.06-.69.58-.92a19.64,19.64,0,0,1-1.13-1.85A4.7,4.7,0,0,0,144.69,97.91Zm-.82-.76c.29-.25.27.28.63.36C144.32,97.75,144,97.23,143.87,97.15Z" fill="#d1dce5" fill-rule="evenodd"/><path d="M75.69,130.76c-.08-.2-.35,0-.36.06-.12-.22-.31-.06-.41-.26a14.06,14.06,0,0,1-1.54-.37c-.33,0-.54.08-.85-.23-.16-.16-.67-.23-.47-.4-.6-.07-1.08-.48-1.42-.48a1.48,1.48,0,0,0-.6-.62c-.3-.09-.43,0-.7,0a19.5,19.5,0,0,0-2.86-1.25c.11-.58-.64-.79-.64-1.32.18-.07.22,0,.42.1.07-.35.63-.18.86-.36a2.84,2.84,0,0,1,.65.26c.3-.08.51.06.64-.1.37.29,1.52.19,2.19.48.23,0,.36-.18.64-.17a14.82,14.82,0,0,0,2.42.63c.75.11,1.56.07,2.31.2,2.66.47,5.72.93,8.57,1.31.16,0,.42,0,.59,0s.26.14.41.15c.34,0,.69,0,1,0,.15,0,.28.12.42.14a46.14,46.14,0,0,0,8.13-.29c.72-.05,1.46-.05,2.19-.15,1.34-.17,2.65-.42,3.93-.51,2-.12,4.36-.09,5.85-.22l1.35-.14a17.58,17.58,0,0,0,2.72-.46,21.43,21.43,0,0,1,2.17-.5c1.11-.15,1.78-.7,2.42-.29.65-.35,1.58-.44,2.21-.73a1.55,1.55,0,0,1,.84-.14c.52.68-1,1.26-1.18,1.87a13.72,13.72,0,0,0-2.55,1.5c-.12.08,0,.06.1,0-.14.24-.76.32-.6.64-1.13.4-2.23.93-3.38,1.34-.27.08-.59.1-.87.19-.1,0-.29.18-.4.22a13.19,13.19,0,0,0-2.59.58,24.3,24.3,0,0,1-4.1.64c-1,.15-1.93.31-2.88.41a8.44,8.44,0,0,0-2.1.26,13.19,13.19,0,0,0-2.66.07c-.14,0-.23.13-.34.14s-.37-.1-.46-.1c-.77,0-1.61.07-2.39.1-1.25,0-2.65,0-3.85.12-2.61-.28-5.4-.49-8-.82-.28-.3-.93-.27-1.48-.4a28.86,28.86,0,0,0-3.61-1A.72.72,0,0,1,75.69,130.76Z" fill="#d1dce5" fill-rule="evenodd"/><path d="M98,68.8c-17.15-.83-28.51.92-43.22,10.68-4.22,2.8-8.28,6.83-9,12.12a16.52,16.52,0,0,0,1.19,8.16c2.86,7.34,9.08,12.66,15.92,15.58s15.94,3.65,23.29,4c13,.7,24.8.2,36.46-6.1,6.64-3.58,12.81-9.6,14.18-17.5,1.21-7-3.14-11-7.95-15.75S104.45,69.5,98,68.8" fill="#f7dbbc"/><path d="M97.94,69.05a9.17,9.17,0,0,1,2.22.3c1.2.14-.62-.47.91-.18,4,.86,7.68,1.83,11.63,3.06,1.54.44-1.26-.44.08-.12a71.43,71.43,0,0,1,7.8,2.81,45.41,45.41,0,0,1,5.78,2.69c.54.28,1,.65,1.57,1s1,.81,1.46,1.22c.87.85,1.73,1.71,2.52,2.56.19,0-.89-1-1.23-1.39a45.24,45.24,0,0,1,3.63,3.91A16.17,16.17,0,0,1,137,89.68a12.47,12.47,0,0,1,.49,5.59,20.18,20.18,0,0,1-1.53,5.38,25.39,25.39,0,0,1-6.77,8.89,38,38,0,0,1-9.62,6c-.8.37-1.63.69-2.47,1s-1.66.58-2.48.86c-1,.35-2,.62-2.93,1s-1.94.57-3,.75a66.83,66.83,0,0,1-12,1.23c-3.67.09-7.39,0-11.1-.14s-7.44-.39-11.13-.92a50.2,50.2,0,0,1-11.8-3c-.55-.22-1.21-.58-1.74-.8-.2-.09-.78-.25-.78-.25-.49-.23-1-.71-1.56-1a31.28,31.28,0,0,1-5.34-3.81,25.54,25.54,0,0,1-3-3.27,30.09,30.09,0,0,1-2.81-4.29A19.79,19.79,0,0,1,45,92.46,15.66,15.66,0,0,1,49.41,83a29.71,29.71,0,0,1,5.86-4.82c1-.68,2.07-1.35,3.14-1.94.54-.3,1.06-.61,1.6-.9l1.62-.8a60.51,60.51,0,0,1,9.78-3.68,75.1,75.1,0,0,1,9.84-2,69.89,69.89,0,0,1,7.22-.79c2.6-.07,4.66.2,7.53,0a26.79,26.79,0,0,0,5.19.38c0,.48-2.64.28-4,.45a22.22,22.22,0,0,1-2.8.49A82.72,82.72,0,0,0,81,70.49c-3,.54-4,.67-7.65,1.5-1,.26-1.75.54-2.85.91a55.87,55.87,0,0,0-9.24,3.62,52.39,52.39,0,0,0-4.78,2.9c-.92.59-1.91,1.14-2.75,1.8-.44.36-.71.71-1.09,1a20,20,0,0,0-3.27,3.29,14.05,14.05,0,0,0-1.39,14.33c2.83,7,9.52,12.66,17,15.32,5.83,2.06,12.25,2.7,18.61,3.08a116.47,116.47,0,0,0,18.88-.14,53.71,53.71,0,0,0,12.18-2.58,49.83,49.83,0,0,0,6.72-2.91,33.87,33.87,0,0,0,6.39-4.2c4-3.29,7.09-7.81,7.92-12.7a11.13,11.13,0,0,0-.06-4.6,12.88,12.88,0,0,0-2-4.24,30.34,30.34,0,0,0-3.19-3.77,34.68,34.68,0,0,0-3.56-3.38,46.55,46.55,0,0,0-8.67-4.42c-3-1.22-6-2.28-8.91-3.21C104.77,70.68,100.9,69.8,97.94,69.05Z" fill-rule="evenodd"/><path d="M98,62.83c-17.15-.82-28.51.93-43.22,10.69-4.22,2.79-8.28,6.82-9,12.12a16.48,16.48,0,0,0,1.19,8.15c2.86,7.35,9.08,12.66,15.92,15.58s15.94,3.65,23.29,4c13,.7,24.8.2,36.46-6.09,6.64-3.59,12.81-9.6,14.18-17.51,1.21-7-3.14-11-7.95-15.75S104.45,63.53,98,62.83" fill="#f7dbbc"/><path d="M97.94,63.08a9.31,9.31,0,0,1,2.22.31c1.2.14-.62-.48.91-.19,4,.86,7.68,1.83,11.63,3.07,1.54.43-1.26-.44.08-.12a70.93,70.93,0,0,1,7.8,2.8,46.84,46.84,0,0,1,5.78,2.69c.54.28,1,.65,1.57,1a17.15,17.15,0,0,1,1.46,1.22c.87.84,1.73,1.7,2.52,2.55.19,0-.89-1-1.23-1.39a46.76,46.76,0,0,1,3.63,3.91A16.42,16.42,0,0,1,137,83.71a12.51,12.51,0,0,1,.49,5.6A20,20,0,0,1,136,94.68a25.42,25.42,0,0,1-6.77,8.9,38,38,0,0,1-9.62,6c-.8.37-1.63.7-2.47,1s-1.66.58-2.48.85c-1,.35-2,.62-2.93,1s-1.94.57-3,.76a67.74,67.74,0,0,1-12,1.22c-3.67.1-7.39,0-11.1-.13s-7.44-.4-11.13-.93a50.7,50.7,0,0,1-11.8-3c-.55-.23-1.21-.59-1.74-.81a7.84,7.84,0,0,0-.78-.24c-.49-.24-1-.71-1.56-1a31.74,31.74,0,0,1-5.34-3.8,27,27,0,0,1-3-3.27,30.81,30.81,0,0,1-2.81-4.3A19.76,19.76,0,0,1,45,86.49a15.69,15.69,0,0,1,4.45-9.44,29.66,29.66,0,0,1,5.86-4.81c1-.69,2.07-1.36,3.14-1.95.54-.3,1.06-.61,1.6-.89l1.62-.81a61.46,61.46,0,0,1,9.78-3.68,76.71,76.71,0,0,1,9.84-2,64.78,64.78,0,0,1,7.22-.79c2.6-.08,4.66.19,7.53,0a26.79,26.79,0,0,0,5.19.38c0,.49-2.64.29-4,.46a26.54,26.54,0,0,1-2.8.49A81.61,81.61,0,0,0,81,64.53c-3,.53-4,.66-7.65,1.49-1,.26-1.75.54-2.85.92a56.72,56.72,0,0,0-9.24,3.61,52.48,52.48,0,0,0-4.78,2.91,30.25,30.25,0,0,0-2.75,1.8c-.44.35-.71.7-1.09,1a20,20,0,0,0-3.27,3.3A14.49,14.49,0,0,0,47.14,84a14.69,14.69,0,0,0,.79,9.9c2.83,7,9.52,12.66,17,15.33,5.83,2,12.25,2.7,18.61,3.08a116.45,116.45,0,0,0,18.88-.15,53.18,53.18,0,0,0,12.18-2.58,48.59,48.59,0,0,0,6.72-2.91,33.87,33.87,0,0,0,6.39-4.2c4-3.29,7.09-7.81,7.92-12.7a11.13,11.13,0,0,0-.06-4.6,13,13,0,0,0-2-4.24,31.87,31.87,0,0,0-3.19-3.77,34.54,34.54,0,0,0-3.56-3.37,45.37,45.37,0,0,0-8.67-4.42c-3-1.22-6-2.28-8.91-3.22C104.77,64.72,100.9,63.83,97.94,63.08Z" fill-rule="evenodd"/><path d="M100,57.33c-17.15-.82-28.51.93-43.22,10.69-4.22,2.79-8.28,6.82-9,12.12a16.48,16.48,0,0,0,1.19,8.15C51.77,95.64,58,101,64.83,103.87s15.94,3.65,23.29,4c13,.7,24.8.2,36.46-6.09,6.64-3.59,12.81-9.6,14.18-17.51,1.21-7-3.14-11-7.95-15.75S106.45,58,100,57.33" fill="#f7dbbc"/><path d="M99.94,57.58a9.31,9.31,0,0,1,2.22.31c1.2.14-.62-.48.91-.19,4,.86,7.68,1.83,11.63,3.07,1.54.43-1.26-.44.08-.12a70.93,70.93,0,0,1,7.8,2.8,46.84,46.84,0,0,1,5.78,2.69c.54.28,1,.65,1.57,1a17.15,17.15,0,0,1,1.46,1.22c.87.84,1.73,1.7,2.52,2.55.19,0-.89-1-1.23-1.39a46.76,46.76,0,0,1,3.63,3.91A16.42,16.42,0,0,1,139,78.21a12.51,12.51,0,0,1,.49,5.6A20,20,0,0,1,138,89.18a25.42,25.42,0,0,1-6.77,8.9,38,38,0,0,1-9.62,6c-.8.37-1.63.7-2.47,1s-1.66.58-2.48.85c-1,.35-2,.62-2.93,1s-1.94.57-3,.76a67.74,67.74,0,0,1-12,1.22c-3.67.1-7.39,0-11.1-.13s-7.44-.4-11.13-.93a50.7,50.7,0,0,1-11.8-3c-.55-.23-1.21-.59-1.74-.81a7.84,7.84,0,0,0-.78-.24c-.49-.24-1-.71-1.56-1a31.74,31.74,0,0,1-5.34-3.8,27,27,0,0,1-3-3.27,30.81,30.81,0,0,1-2.81-4.3A19.76,19.76,0,0,1,47,81a15.69,15.69,0,0,1,4.45-9.44,29.66,29.66,0,0,1,5.86-4.81c1-.69,2.07-1.36,3.14-1.95.54-.3,1.06-.61,1.6-.89l1.62-.81a61.46,61.46,0,0,1,9.78-3.68,76.71,76.71,0,0,1,9.84-2,64.78,64.78,0,0,1,7.22-.79c2.6-.08,4.66.19,7.53,0a26.79,26.79,0,0,0,5.19.38c0,.49-2.64.29-4,.46a26.54,26.54,0,0,1-2.8.49A81.61,81.61,0,0,0,83,59c-3,.53-4,.66-7.65,1.49-1,.26-1.75.54-2.85.92a56.72,56.72,0,0,0-9.24,3.61A52.48,52.48,0,0,0,58.43,68a30.25,30.25,0,0,0-2.75,1.8c-.44.35-.71.7-1.09,1a20,20,0,0,0-3.27,3.3,14.49,14.49,0,0,0-2.18,4.42,14.69,14.69,0,0,0,.79,9.9c2.83,7,9.52,12.66,17,15.33,5.83,2,12.25,2.7,18.61,3.08a116.45,116.45,0,0,0,18.88-.15,53.18,53.18,0,0,0,12.18-2.58,48.59,48.59,0,0,0,6.72-2.91,33.87,33.87,0,0,0,6.39-4.2c3.95-3.29,7.09-7.81,7.92-12.7a11.13,11.13,0,0,0-.06-4.6,13,13,0,0,0-2-4.24,31.87,31.87,0,0,0-3.19-3.77,34.54,34.54,0,0,0-3.56-3.37,45.37,45.37,0,0,0-8.67-4.42c-3-1.22-6-2.28-8.91-3.22C106.77,59.22,102.9,58.33,99.94,57.58Z" fill-rule="evenodd"/><path d="M99,51.83c-17.15-.82-28.51.93-43.22,10.69-4.22,2.79-8.28,6.82-9,12.12a16.48,16.48,0,0,0,1.19,8.15C50.77,90.14,57,95.45,63.83,98.37s15.94,3.65,23.29,4c13,.7,24.8.2,36.46-6.09,6.64-3.59,12.81-9.6,14.18-17.51,1.21-7-3.14-11-7.95-15.75S105.45,52.53,99,51.83" fill="#f7dbbc"/><path d="M98.94,52.08a9.31,9.31,0,0,1,2.22.31c1.2.14-.62-.48.91-.19,4,.86,7.68,1.83,11.63,3.07,1.54.43-1.26-.44.08-.12a70.93,70.93,0,0,1,7.8,2.8,46.84,46.84,0,0,1,5.78,2.69c.54.28,1,.65,1.57,1a17.15,17.15,0,0,1,1.46,1.22c.87.84,1.73,1.7,2.52,2.55.19,0-.89-1-1.23-1.39a46.76,46.76,0,0,1,3.63,3.91A16.42,16.42,0,0,1,138,72.71a12.51,12.51,0,0,1,.49,5.6A20,20,0,0,1,137,83.68a25.42,25.42,0,0,1-6.77,8.9,38,38,0,0,1-9.62,6c-.8.37-1.63.7-2.47,1s-1.66.58-2.48.85c-1,.35-2,.62-2.93,1s-1.94.57-3,.76a67.74,67.74,0,0,1-12,1.22c-3.67.1-7.39,0-11.1-.13s-7.44-.4-11.13-.93a50.7,50.7,0,0,1-11.8-3c-.55-.23-1.21-.59-1.74-.81a7.84,7.84,0,0,0-.78-.24c-.49-.24-1-.71-1.56-1a31.74,31.74,0,0,1-5.34-3.8,27,27,0,0,1-3-3.27,30.81,30.81,0,0,1-2.81-4.3A19.76,19.76,0,0,1,46,75.49a15.69,15.69,0,0,1,4.45-9.44,29.66,29.66,0,0,1,5.86-4.81c1-.69,2.07-1.36,3.14-2,.54-.3,1.06-.61,1.6-.89l1.62-.81a61.46,61.46,0,0,1,9.78-3.68,76.71,76.71,0,0,1,9.84-2,64.78,64.78,0,0,1,7.22-.79c2.6-.08,4.66.19,7.53,0a26.79,26.79,0,0,0,5.19.38c0,.49-2.64.29-4,.46a26.54,26.54,0,0,1-2.8.49A81.61,81.61,0,0,0,82,53.53c-3,.53-4,.66-7.65,1.49-1,.26-1.75.54-2.85.92a56.72,56.72,0,0,0-9.24,3.61,52.48,52.48,0,0,0-4.78,2.91,30.25,30.25,0,0,0-2.75,1.8c-.44.35-.71.7-1.09,1a20,20,0,0,0-3.27,3.3A14.49,14.49,0,0,0,48.14,73a14.69,14.69,0,0,0,.79,9.9c2.83,7,9.52,12.66,17,15.33,5.83,2,12.25,2.7,18.61,3.08a116.45,116.45,0,0,0,18.88-.15,53.18,53.18,0,0,0,12.18-2.58,48.59,48.59,0,0,0,6.72-2.91,33.87,33.87,0,0,0,6.39-4.2c3.95-3.29,7.09-7.81,7.92-12.7a11.13,11.13,0,0,0-.06-4.6,13,13,0,0,0-2-4.24,31.87,31.87,0,0,0-3.19-3.77,34.54,34.54,0,0,0-3.56-3.37,45.37,45.37,0,0,0-8.67-4.42c-3-1.22-6-2.28-8.91-3.22C105.77,53.72,101.9,52.83,98.94,52.08Z" fill-rule="evenodd"/><path d="M96.47,46.33C79.32,45.51,68,47.26,53.25,57c-4.22,2.79-8.28,6.82-9,12.12a16.48,16.48,0,0,0,1.19,8.15C48.27,84.64,54.49,90,61.33,92.87s15.94,3.65,23.29,4c13,.7,24.8.2,36.46-6.09,6.64-3.59,12.81-9.6,14.18-17.51,1.21-7-3.14-11-7.95-15.75S103,47,96.47,46.33" fill="#f7dbbc"/><path d="M96.44,46.58a9.31,9.31,0,0,1,2.22.31c1.2.14-.62-.48.91-.19,4,.86,7.68,1.83,11.63,3.07,1.54.43-1.26-.44.08-.12a70.93,70.93,0,0,1,7.8,2.8,46.84,46.84,0,0,1,5.78,2.69c.54.28,1,.65,1.57,1a17.15,17.15,0,0,1,1.46,1.22c.87.84,1.73,1.7,2.52,2.55.19,0-.89-1-1.23-1.39a46.76,46.76,0,0,1,3.63,3.91,16.42,16.42,0,0,1,2.73,4.79,12.51,12.51,0,0,1,.49,5.6,20,20,0,0,1-1.53,5.37,25.42,25.42,0,0,1-6.77,8.9,38,38,0,0,1-9.62,6c-.8.37-1.63.7-2.47,1s-1.66.58-2.48.85c-1,.35-2,.62-2.93,1s-1.94.57-3,.76a67.74,67.74,0,0,1-12,1.22c-3.67.1-7.39,0-11.1-.13s-7.44-.4-11.13-.93a50.7,50.7,0,0,1-11.8-3c-.55-.23-1.21-.59-1.74-.81a7.84,7.84,0,0,0-.78-.24c-.49-.24-1-.71-1.56-1a31.74,31.74,0,0,1-5.34-3.8,27,27,0,0,1-3-3.27A30.81,30.81,0,0,1,46,80.33,19.76,19.76,0,0,1,43.46,70a15.69,15.69,0,0,1,4.45-9.44,29.66,29.66,0,0,1,5.86-4.81c1-.69,2.07-1.36,3.14-2,.54-.3,1.06-.61,1.6-.89l1.62-.81a61.46,61.46,0,0,1,9.78-3.68,76.71,76.71,0,0,1,9.84-2A64.78,64.78,0,0,1,87,45.61c2.6-.08,4.66.19,7.53,0a26.79,26.79,0,0,0,5.19.38c0,.49-2.64.29-4,.46a26.54,26.54,0,0,1-2.8.49A81.61,81.61,0,0,0,79.45,48c-3,.53-4,.66-7.65,1.49-1,.26-1.75.54-2.85.92a56.72,56.72,0,0,0-9.24,3.61A52.48,52.48,0,0,0,54.93,57a30.25,30.25,0,0,0-2.75,1.8c-.44.35-.71.7-1.09,1a20,20,0,0,0-3.27,3.3,14.49,14.49,0,0,0-2.18,4.42,14.69,14.69,0,0,0,.79,9.9c2.83,7,9.52,12.66,17,15.33,5.83,2,12.25,2.7,18.61,3.08A116.45,116.45,0,0,0,101,95.66a53.18,53.18,0,0,0,12.18-2.58,48.59,48.59,0,0,0,6.72-2.91,33.87,33.87,0,0,0,6.39-4.2c4-3.29,7.09-7.81,7.92-12.7a11.13,11.13,0,0,0-.06-4.6,13,13,0,0,0-2-4.24,31.87,31.87,0,0,0-3.19-3.77,34.54,34.54,0,0,0-3.56-3.37,45.37,45.37,0,0,0-8.67-4.42c-3-1.22-6-2.28-8.91-3.22C103.27,48.22,99.4,47.33,96.44,46.58Z" fill-rule="evenodd"/><path d="M99,41.33c-17.15-.82-28.51.93-43.22,10.69-4.22,2.79-8.28,6.82-9,12.12a16.48,16.48,0,0,0,1.19,8.15C50.77,79.64,57,85,63.83,87.87s15.94,3.65,23.29,4c13,.7,24.8.2,36.46-6.09,6.64-3.59,12.81-9.6,14.18-17.51,1.21-7-3.14-11-7.95-15.75S105.45,42,99,41.33" fill="#f7dbbc"/><path d="M98.94,41.58a9.31,9.31,0,0,1,2.22.31c1.2.14-.62-.48.91-.19,4,.86,7.68,1.83,11.63,3.07,1.54.43-1.26-.44.08-.12a70.93,70.93,0,0,1,7.8,2.8,46.84,46.84,0,0,1,5.78,2.69c.54.28,1,.65,1.57,1a17.15,17.15,0,0,1,1.46,1.22c.87.84,1.73,1.7,2.52,2.55.19,0-.89-1-1.23-1.39a46.76,46.76,0,0,1,3.63,3.91A16.42,16.42,0,0,1,138,62.21a12.51,12.51,0,0,1,.49,5.6A20,20,0,0,1,137,73.18a25.42,25.42,0,0,1-6.77,8.9,38,38,0,0,1-9.62,6c-.8.37-1.63.7-2.47,1s-1.66.58-2.48.85c-1,.35-2,.62-2.93,1s-1.94.57-3,.76a67.74,67.74,0,0,1-12,1.22c-3.67.1-7.39,0-11.1-.13s-7.44-.4-11.13-.93a50.7,50.7,0,0,1-11.8-3c-.55-.23-1.21-.59-1.74-.81a7.84,7.84,0,0,0-.78-.24c-.49-.24-1-.71-1.56-1a31.74,31.74,0,0,1-5.34-3.8,27,27,0,0,1-3-3.27,30.81,30.81,0,0,1-2.81-4.3A19.76,19.76,0,0,1,46,65a15.69,15.69,0,0,1,4.45-9.44,29.66,29.66,0,0,1,5.86-4.81c1-.69,2.07-1.36,3.14-2,.54-.3,1.06-.61,1.6-.89l1.62-.81a61.46,61.46,0,0,1,9.78-3.68,76.71,76.71,0,0,1,9.84-2,64.78,64.78,0,0,1,7.22-.79c2.6-.08,4.66.19,7.53,0a26.79,26.79,0,0,0,5.19.38c0,.49-2.64.29-4,.46a26.54,26.54,0,0,1-2.8.49A81.61,81.61,0,0,0,82,43c-3,.53-4,.66-7.65,1.49-1,.26-1.75.54-2.85.92a56.72,56.72,0,0,0-9.24,3.61A52.48,52.48,0,0,0,57.43,52a30.25,30.25,0,0,0-2.75,1.8c-.44.35-.71.7-1.09,1a20,20,0,0,0-3.27,3.3,14.49,14.49,0,0,0-2.18,4.42,14.69,14.69,0,0,0,.79,9.9c2.83,7,9.52,12.66,17,15.33,5.83,2,12.25,2.7,18.61,3.08a116.45,116.45,0,0,0,18.88-.15,53.18,53.18,0,0,0,12.18-2.58,48.59,48.59,0,0,0,6.72-2.91,33.87,33.87,0,0,0,6.39-4.2c3.95-3.29,7.09-7.81,7.92-12.7a11.13,11.13,0,0,0-.06-4.6,13,13,0,0,0-2-4.24,31.87,31.87,0,0,0-3.19-3.77,34.54,34.54,0,0,0-3.56-3.37,45.37,45.37,0,0,0-8.67-4.42c-3-1.22-6-2.28-8.91-3.22C105.77,43.22,101.9,42.33,98.94,41.58Z" fill-rule="evenodd"/><path d="M97.47,35.33C80.32,34.51,69,36.26,54.25,46c-4.22,2.79-8.28,6.82-9,12.12a16.48,16.48,0,0,0,1.19,8.15C49.27,73.64,55.49,79,62.33,81.87s15.94,3.65,23.29,4c13,.7,24.8.2,36.46-6.09,6.64-3.59,12.81-9.6,14.18-17.51,1.21-7-3.14-11-7.95-15.75S104,36,97.47,35.33" fill="#f7dbbc"/><path d="M97.44,35.58a9.31,9.31,0,0,1,2.22.31c1.2.14-.62-.48.91-.19,4,.86,7.68,1.83,11.63,3.07,1.54.43-1.26-.44.08-.12a70.93,70.93,0,0,1,7.8,2.8,46.84,46.84,0,0,1,5.78,2.69c.54.28,1,.65,1.57,1a17.15,17.15,0,0,1,1.46,1.22c.87.84,1.73,1.7,2.52,2.55.19,0-.89-1-1.23-1.39a46.76,46.76,0,0,1,3.63,3.91,16.42,16.42,0,0,1,2.73,4.79,12.51,12.51,0,0,1,.49,5.6,20,20,0,0,1-1.53,5.37,25.42,25.42,0,0,1-6.77,8.9,38,38,0,0,1-9.62,6c-.8.37-1.63.7-2.47,1s-1.66.58-2.48.85c-1,.35-2,.62-2.93,1s-1.94.57-3,.76a67.74,67.74,0,0,1-12,1.22c-3.67.1-7.39,0-11.1-.13s-7.44-.4-11.13-.93a50.7,50.7,0,0,1-11.8-3c-.55-.23-1.21-.59-1.74-.81a7.84,7.84,0,0,0-.78-.24c-.49-.24-1-.71-1.56-1a31.74,31.74,0,0,1-5.34-3.8,27,27,0,0,1-3-3.27A30.81,30.81,0,0,1,47,69.33,19.76,19.76,0,0,1,44.46,59a15.69,15.69,0,0,1,4.45-9.44,29.66,29.66,0,0,1,5.86-4.81c1-.69,2.07-1.36,3.14-2,.54-.3,1.06-.61,1.6-.89l1.62-.81a61.46,61.46,0,0,1,9.78-3.68,76.71,76.71,0,0,1,9.84-2A64.78,64.78,0,0,1,88,34.61c2.6-.08,4.66.19,7.53,0a26.79,26.79,0,0,0,5.19.38c0,.49-2.64.29-4,.46a26.54,26.54,0,0,1-2.8.49A81.61,81.61,0,0,0,80.45,37c-3,.53-4,.66-7.65,1.49-1,.26-1.75.54-2.85.92a56.72,56.72,0,0,0-9.24,3.61A52.48,52.48,0,0,0,55.93,46a30.25,30.25,0,0,0-2.75,1.8c-.44.35-.71.7-1.09,1a20,20,0,0,0-3.27,3.3,14.49,14.49,0,0,0-2.18,4.42,14.69,14.69,0,0,0,.79,9.9c2.83,7,9.52,12.66,17,15.33,5.83,2,12.25,2.7,18.61,3.08A116.45,116.45,0,0,0,102,84.66a53.18,53.18,0,0,0,12.18-2.58,48.59,48.59,0,0,0,6.72-2.91,33.87,33.87,0,0,0,6.39-4.2c4-3.29,7.09-7.81,7.92-12.7a11.13,11.13,0,0,0-.06-4.6,13,13,0,0,0-2-4.24,31.87,31.87,0,0,0-3.19-3.77,34.54,34.54,0,0,0-3.56-3.37,45.37,45.37,0,0,0-8.67-4.42c-3-1.22-6-2.28-8.91-3.22C104.27,37.22,100.4,36.33,97.44,35.58Z" fill-rule="evenodd"/><path d="M97.47,29.33C80.32,28.51,69,30.26,54.25,40c-4.22,2.79-8.28,6.82-9,12.12a16.48,16.48,0,0,0,1.19,8.15C49.27,67.64,55.49,73,62.33,75.87s15.94,3.65,23.29,4c13,.7,24.8.2,36.46-6.09,6.64-3.59,12.81-9.6,14.18-17.51,1.21-7-3.14-11-7.95-15.75S104,30,97.47,29.33" fill="#f7dbbc"/><path d="M97.44,29.58a9.31,9.31,0,0,1,2.22.31c1.2.14-.62-.48.91-.19,4,.86,7.68,1.83,11.63,3.07,1.54.43-1.26-.44.08-.12a70.93,70.93,0,0,1,7.8,2.8,46.84,46.84,0,0,1,5.78,2.69c.54.28,1,.65,1.57,1a17.15,17.15,0,0,1,1.46,1.22c.87.84,1.73,1.7,2.52,2.55.19,0-.89-1-1.23-1.39a46.76,46.76,0,0,1,3.63,3.91,16.42,16.42,0,0,1,2.73,4.79,12.51,12.51,0,0,1,.49,5.6,20,20,0,0,1-1.53,5.37,25.42,25.42,0,0,1-6.77,8.9,38,38,0,0,1-9.62,6c-.8.37-1.63.7-2.47,1s-1.66.58-2.48.85c-1,.35-2,.62-2.93,1s-1.94.57-3,.76a67.74,67.74,0,0,1-12,1.22c-3.67.1-7.39,0-11.1-.13s-7.44-.4-11.13-.93a50.7,50.7,0,0,1-11.8-3c-.55-.23-1.21-.59-1.74-.81a7.84,7.84,0,0,0-.78-.24c-.49-.24-1-.71-1.56-1a31.74,31.74,0,0,1-5.34-3.8,27,27,0,0,1-3-3.27A30.81,30.81,0,0,1,47,63.33,19.76,19.76,0,0,1,44.46,53a15.69,15.69,0,0,1,4.45-9.44,29.66,29.66,0,0,1,5.86-4.81c1-.69,2.07-1.36,3.14-2,.54-.3,1.06-.61,1.6-.89l1.62-.81a61.46,61.46,0,0,1,9.78-3.68,76.71,76.71,0,0,1,9.84-2A64.78,64.78,0,0,1,88,28.61c2.6-.08,4.66.19,7.53,0a26.79,26.79,0,0,0,5.19.38c0,.49-2.64.29-4,.46a26.54,26.54,0,0,1-2.8.49A81.61,81.61,0,0,0,80.45,31c-3,.53-4,.66-7.65,1.49-1,.26-1.75.54-2.85.92a56.72,56.72,0,0,0-9.24,3.61A52.48,52.48,0,0,0,55.93,40a30.25,30.25,0,0,0-2.75,1.8c-.44.35-.71.7-1.09,1a20,20,0,0,0-3.27,3.3,14.49,14.49,0,0,0-2.18,4.42,14.69,14.69,0,0,0,.79,9.9c2.83,7,9.52,12.66,17,15.33,5.83,2,12.25,2.7,18.61,3.08A116.45,116.45,0,0,0,102,78.66a53.18,53.18,0,0,0,12.18-2.58,48.59,48.59,0,0,0,6.72-2.91,33.87,33.87,0,0,0,6.39-4.2c4-3.29,7.09-7.81,7.92-12.7a11.13,11.13,0,0,0-.06-4.6,13,13,0,0,0-2-4.24,31.87,31.87,0,0,0-3.19-3.77,34.54,34.54,0,0,0-3.56-3.37,45.37,45.37,0,0,0-8.67-4.42c-3-1.22-6-2.28-8.91-3.22C104.27,31.22,100.4,30.33,97.44,29.58Z" fill-rule="evenodd"/><path d="M98.47,23.33C81.32,22.51,70,24.26,55.25,34c-4.22,2.79-8.28,6.82-9,12.12a16.48,16.48,0,0,0,1.19,8.15C50.27,61.64,56.49,67,63.33,69.87s15.94,3.65,23.29,4c13,.7,24.8.2,36.46-6.09,6.64-3.59,12.81-9.6,14.18-17.51,1.21-7-3.14-11-7.95-15.75S105,24,98.47,23.33" fill="#f7dbbc"/><path d="M98.44,23.58a9.31,9.31,0,0,1,2.22.31c1.2.14-.62-.48.91-.19,4,.86,7.68,1.83,11.63,3.07,1.54.43-1.26-.44.08-.12a70.93,70.93,0,0,1,7.8,2.8,46.84,46.84,0,0,1,5.78,2.69c.54.28,1,.65,1.57,1a17.15,17.15,0,0,1,1.46,1.22c.87.84,1.73,1.7,2.52,2.55.19,0-.89-1-1.23-1.39a46.76,46.76,0,0,1,3.63,3.91,16.42,16.42,0,0,1,2.73,4.79,12.51,12.51,0,0,1,.49,5.6,20,20,0,0,1-1.53,5.37,25.42,25.42,0,0,1-6.77,8.9,38,38,0,0,1-9.62,6c-.8.37-1.63.7-2.47,1s-1.66.58-2.48.85c-1,.35-2,.62-2.93,1s-1.94.57-3,.76a67.74,67.74,0,0,1-12,1.22c-3.67.1-7.39,0-11.1-.13s-7.44-.4-11.13-.93a50.7,50.7,0,0,1-11.8-3c-.55-.23-1.21-.59-1.74-.81a7.84,7.84,0,0,0-.78-.24c-.49-.24-1-.71-1.56-1a31.74,31.74,0,0,1-5.34-3.8,27,27,0,0,1-3-3.27A30.81,30.81,0,0,1,48,57.33,19.76,19.76,0,0,1,45.46,47a15.69,15.69,0,0,1,4.45-9.44,29.66,29.66,0,0,1,5.86-4.81c1-.69,2.07-1.36,3.14-2,.54-.3,1.06-.61,1.6-.89l1.62-.81a61.46,61.46,0,0,1,9.78-3.68,76.71,76.71,0,0,1,9.84-2A64.78,64.78,0,0,1,89,22.61c2.6-.08,4.66.19,7.53,0a26.79,26.79,0,0,0,5.19.38c0,.49-2.64.29-4,.46a26.54,26.54,0,0,1-2.8.49A81.61,81.61,0,0,0,81.45,25c-3,.53-4,.66-7.65,1.49-1,.26-1.75.54-2.85.92a56.72,56.72,0,0,0-9.24,3.61A52.48,52.48,0,0,0,56.93,34a30.25,30.25,0,0,0-2.75,1.8c-.44.35-.71.7-1.09,1a20,20,0,0,0-3.27,3.3,14.49,14.49,0,0,0-2.18,4.42,14.69,14.69,0,0,0,.79,9.9c2.83,7,9.52,12.66,17,15.33,5.83,2,12.25,2.7,18.61,3.08A116.45,116.45,0,0,0,103,72.66a53.18,53.18,0,0,0,12.18-2.58,48.59,48.59,0,0,0,6.72-2.91,33.87,33.87,0,0,0,6.39-4.2c3.95-3.29,7.09-7.81,7.92-12.7a11.13,11.13,0,0,0-.06-4.6,13,13,0,0,0-2-4.24,31.87,31.87,0,0,0-3.19-3.77,34.54,34.54,0,0,0-3.56-3.37,45.37,45.37,0,0,0-8.67-4.42c-3-1.22-6-2.28-8.91-3.22C105.27,25.22,101.4,24.33,98.44,23.58Z" fill-rule="evenodd"/><path d="M97,16.83c-17.15-.82-28.51.93-43.22,10.69-4.22,2.79-8.28,6.82-9,12.12a16.48,16.48,0,0,0,1.19,8.15C48.77,55.14,55,60.45,61.83,63.37s15.94,3.65,23.29,4c13,.7,24.8.2,36.46-6.09,6.64-3.59,12.81-9.6,14.18-17.51,1.21-7-3.14-11-7.95-15.75S103.45,17.53,97,16.83" fill="#f7dbbc"/><path d="M96.94,17.08a9.31,9.31,0,0,1,2.22.31c1.2.14-.62-.48.91-.19,4,.86,7.68,1.83,11.63,3.07,1.54.43-1.26-.44.08-.12a70.93,70.93,0,0,1,7.8,2.8,46.84,46.84,0,0,1,5.78,2.69c.54.28,1,.65,1.57,1a17.15,17.15,0,0,1,1.46,1.22c.87.84,1.73,1.7,2.52,2.55.19,0-.89-1-1.23-1.39a46.76,46.76,0,0,1,3.63,3.91A16.42,16.42,0,0,1,136,37.71a12.51,12.51,0,0,1,.49,5.6A20,20,0,0,1,135,48.68a25.42,25.42,0,0,1-6.77,8.9,38,38,0,0,1-9.62,6c-.8.37-1.63.7-2.47,1s-1.66.58-2.48.85c-1,.35-2,.62-2.93,1s-1.94.57-3,.76a67.74,67.74,0,0,1-12,1.22c-3.67.1-7.39,0-11.1-.13s-7.44-.4-11.13-.93a50.7,50.7,0,0,1-11.8-3c-.55-.23-1.21-.59-1.74-.81a7.84,7.84,0,0,0-.78-.24c-.49-.24-1-.71-1.56-1a31.74,31.74,0,0,1-5.34-3.8,27,27,0,0,1-3-3.27,30.81,30.81,0,0,1-2.81-4.3A19.76,19.76,0,0,1,44,40.49a15.69,15.69,0,0,1,4.45-9.44,29.66,29.66,0,0,1,5.86-4.81c1-.69,2.07-1.36,3.14-1.95.54-.3,1.06-.61,1.6-.89l1.62-.81a61.46,61.46,0,0,1,9.78-3.68,76.71,76.71,0,0,1,9.84-2,64.78,64.78,0,0,1,7.22-.79c2.6-.08,4.66.19,7.53,0a26.79,26.79,0,0,0,5.19.38c0,.49-2.64.29-4,.46a26.54,26.54,0,0,1-2.8.49A81.61,81.61,0,0,0,80,18.53c-3,.53-4,.66-7.65,1.49-1,.26-1.75.54-2.85.92a56.72,56.72,0,0,0-9.24,3.61,52.48,52.48,0,0,0-4.78,2.91,30.25,30.25,0,0,0-2.75,1.8c-.44.35-.71.7-1.09,1a20,20,0,0,0-3.27,3.3A14.49,14.49,0,0,0,46.14,38a14.69,14.69,0,0,0,.79,9.9c2.83,7,9.52,12.66,17,15.33,5.83,2.05,12.25,2.7,18.61,3.08a116.45,116.45,0,0,0,18.88-.15,53.18,53.18,0,0,0,12.18-2.58,48.59,48.59,0,0,0,6.72-2.91,33.87,33.87,0,0,0,6.39-4.2c4-3.29,7.09-7.81,7.92-12.7a11.13,11.13,0,0,0-.06-4.6,13,13,0,0,0-2-4.24,31.87,31.87,0,0,0-3.19-3.77,34.54,34.54,0,0,0-3.56-3.37,45.37,45.37,0,0,0-8.67-4.42c-3-1.22-6-2.28-8.91-3.22C103.77,18.72,99.9,17.83,96.94,17.08Z" fill-rule="evenodd"/><path d="M100,11.83c-17.15-.82-28.51.93-43.22,10.69-4.22,2.79-8.28,6.82-9,12.12a16.48,16.48,0,0,0,1.19,8.15C51.77,50.14,58,55.45,64.83,58.37s15.94,3.65,23.29,4c13,.7,24.8.2,36.46-6.09,6.64-3.59,12.81-9.6,14.18-17.51,1.21-7-3.14-11-7.95-15.75S106.45,12.53,100,11.83" fill="#f7dbbc"/><path d="M99.94,12.08a9.31,9.31,0,0,1,2.22.31c1.2.14-.62-.48.91-.19,4,.86,7.68,1.83,11.63,3.07,1.54.43-1.26-.44.08-.12a70.93,70.93,0,0,1,7.8,2.8,46.84,46.84,0,0,1,5.78,2.69c.54.28,1,.65,1.57,1a17.15,17.15,0,0,1,1.46,1.22c.87.84,1.73,1.7,2.52,2.55.19,0-.89-1-1.23-1.39a46.76,46.76,0,0,1,3.63,3.91A16.42,16.42,0,0,1,139,32.71a12.51,12.51,0,0,1,.49,5.6A20,20,0,0,1,138,43.68a25.42,25.42,0,0,1-6.77,8.9,38,38,0,0,1-9.62,6c-.8.37-1.63.7-2.47,1s-1.66.58-2.48.85c-1,.35-2,.62-2.93,1s-1.94.57-3,.76a67.74,67.74,0,0,1-12,1.22c-3.67.1-7.39,0-11.1-.13s-7.44-.4-11.13-.93a50.7,50.7,0,0,1-11.8-3c-.55-.23-1.21-.59-1.74-.81a7.84,7.84,0,0,0-.78-.24c-.49-.24-1-.71-1.56-1a31.74,31.74,0,0,1-5.34-3.8,27,27,0,0,1-3-3.27,30.81,30.81,0,0,1-2.81-4.3A19.76,19.76,0,0,1,47,35.49a15.69,15.69,0,0,1,4.45-9.44,29.66,29.66,0,0,1,5.86-4.81c1-.69,2.07-1.36,3.14-1.95.54-.3,1.06-.61,1.6-.89l1.62-.81a61.46,61.46,0,0,1,9.78-3.68,76.71,76.71,0,0,1,9.84-2,64.78,64.78,0,0,1,7.22-.79c2.6-.08,4.66.19,7.53,0a26.79,26.79,0,0,0,5.19.38c0,.49-2.64.29-4,.46a26.54,26.54,0,0,1-2.8.49A81.61,81.61,0,0,0,83,13.53c-3,.53-4,.66-7.65,1.49-1,.26-1.75.54-2.85.92a56.72,56.72,0,0,0-9.24,3.61,52.48,52.48,0,0,0-4.78,2.91,30.25,30.25,0,0,0-2.75,1.8c-.44.35-.71.7-1.09,1a20,20,0,0,0-3.27,3.3A14.49,14.49,0,0,0,49.14,33a14.69,14.69,0,0,0,.79,9.9c2.83,7,9.52,12.66,17,15.33,5.83,2.05,12.25,2.7,18.61,3.08a116.45,116.45,0,0,0,18.88-.15,53.18,53.18,0,0,0,12.18-2.58,48.59,48.59,0,0,0,6.72-2.91,33.87,33.87,0,0,0,6.39-4.2c3.95-3.29,7.09-7.81,7.92-12.7a11.13,11.13,0,0,0-.06-4.6,13,13,0,0,0-2-4.24,31.87,31.87,0,0,0-3.19-3.77,34.54,34.54,0,0,0-3.56-3.37,45.37,45.37,0,0,0-8.67-4.42c-3-1.22-6-2.28-8.91-3.22C106.77,13.72,102.9,12.83,99.94,12.08Z" fill-rule="evenodd"/><path d="M97,6.83C79.82,6,68.46,7.76,53.75,17.52c-4.22,2.79-8.28,6.82-9,12.12a16.48,16.48,0,0,0,1.19,8.15C48.77,45.14,55,50.45,61.83,53.37s15.94,3.65,23.29,4c13,.7,24.8.2,36.46-6.09,6.64-3.59,12.81-9.6,14.18-17.51,1.21-7-3.14-11-7.95-15.75S103.45,7.53,97,6.83" fill="#f7dbbc"/><path d="M96.94,7.08a9.31,9.31,0,0,1,2.22.31c1.2.14-.62-.48.91-.19,4,.86,7.68,1.83,11.63,3.07,1.54.43-1.26-.44.08-.12a70.93,70.93,0,0,1,7.8,2.8,46.84,46.84,0,0,1,5.78,2.69c.54.28,1,.65,1.57,1a17.15,17.15,0,0,1,1.46,1.22c.87.84,1.73,1.7,2.52,2.55.19,0-.89-1-1.23-1.39a46.76,46.76,0,0,1,3.63,3.91A16.42,16.42,0,0,1,136,27.71a12.51,12.51,0,0,1,.49,5.6A20,20,0,0,1,135,38.68a25.42,25.42,0,0,1-6.77,8.9,38,38,0,0,1-9.62,6c-.8.37-1.63.7-2.47,1s-1.66.58-2.48.85c-1,.35-2,.62-2.93,1s-1.94.57-3,.76a67.74,67.74,0,0,1-12,1.22c-3.67.1-7.39,0-11.1-.13s-7.44-.4-11.13-.93a50.7,50.7,0,0,1-11.8-3c-.55-.23-1.21-.59-1.74-.81a7.84,7.84,0,0,0-.78-.24c-.49-.24-1-.71-1.56-1a31.74,31.74,0,0,1-5.34-3.8,27,27,0,0,1-3-3.27,30.81,30.81,0,0,1-2.81-4.3A19.76,19.76,0,0,1,44,30.49a15.69,15.69,0,0,1,4.45-9.44,29.66,29.66,0,0,1,5.86-4.81c1-.69,2.07-1.36,3.14-1.95.54-.3,1.06-.61,1.6-.89l1.62-.81a61.46,61.46,0,0,1,9.78-3.68,76.71,76.71,0,0,1,9.84-2,64.78,64.78,0,0,1,7.22-.79c2.6-.08,4.66.19,7.53,0a26.79,26.79,0,0,0,5.19.38c0,.49-2.64.29-4,.46a26.54,26.54,0,0,1-2.8.49A81.61,81.61,0,0,0,80,8.53c-3,.53-4,.66-7.65,1.49-1,.26-1.75.54-2.85.92a56.72,56.72,0,0,0-9.24,3.61,52.48,52.48,0,0,0-4.78,2.91,30.25,30.25,0,0,0-2.75,1.8c-.44.35-.71.7-1.09,1a20,20,0,0,0-3.27,3.3A14.49,14.49,0,0,0,46.14,28a14.69,14.69,0,0,0,.79,9.9c2.83,7,9.52,12.66,17,15.33,5.83,2.05,12.25,2.7,18.61,3.08a116.45,116.45,0,0,0,18.88-.15,53.18,53.18,0,0,0,12.18-2.58,48.59,48.59,0,0,0,6.72-2.91,33.87,33.87,0,0,0,6.39-4.2c4-3.29,7.09-7.81,7.92-12.7a11.13,11.13,0,0,0-.06-4.6,13,13,0,0,0-2-4.24,31.87,31.87,0,0,0-3.19-3.77,34.54,34.54,0,0,0-3.56-3.37,45.37,45.37,0,0,0-8.67-4.42c-3-1.22-6-2.28-8.91-3.22C103.77,8.72,99.9,7.83,96.94,7.08Z" fill-rule="evenodd"/><path d="M98.73,2.18c-17.16-.82-28.51.93-43.22,10.69-4.22,2.79-8.28,6.82-9,12.11a16.5,16.5,0,0,0,1.18,8.16c2.86,7.35,9.09,12.66,15.92,15.58s16,3.65,23.3,4c13,.7,24.79.2,36.45-6.1,6.65-3.58,12.82-9.59,14.19-17.5,1.2-7-3.15-11-8-15.75S105.21,2.88,98.73,2.18" fill="#ddad73"/><path d="M125.34,40c-14,8.87-40.58,9.22-56,5C63.09,43.37,48.44,31.88,46.48,25c.11,1.91.5,6.4,1.18,8.16,2.86,7.35,9.09,12.66,15.92,15.58s16,3.65,23.3,4c13,.7,24.79.2,36.45-6.1,6.65-3.58,12.82-9.59,14.19-17.5a13.59,13.59,0,0,0-1.05-6.84C134.33,30.23,131.49,36.12,125.34,40Z" fill="#f7dbbc"/><path d="M98.7,2.43a9.23,9.23,0,0,1,2.22.3c1.19.14-.62-.47.91-.18,4,.86,7.68,1.83,11.62,3.07,1.55.43-1.25-.44.09-.13a73.64,73.64,0,0,1,7.79,2.81A46.9,46.9,0,0,1,127.12,11c.53.28,1,.65,1.57,1s1,.8,1.46,1.21c.86.85,1.72,1.71,2.52,2.56.19,0-.89-1-1.24-1.39a43.82,43.82,0,0,1,3.64,3.91,16.27,16.27,0,0,1,2.72,4.79,12.51,12.51,0,0,1,.5,5.6A20.22,20.22,0,0,1,136.76,34a25.42,25.42,0,0,1-6.77,8.9,38.14,38.14,0,0,1-9.62,6c-.81.37-1.64.7-2.47,1s-1.66.58-2.49.86-2,.62-2.92.95-1.95.57-2.95.75a66.92,66.92,0,0,1-12,1.23c-3.67.1-7.39,0-11.1-.14S79,53.14,75.3,52.61a50.07,50.07,0,0,1-11.8-3c-.55-.22-1.21-.58-1.74-.8a7.81,7.81,0,0,0-.79-.24c-.49-.24-1-.71-1.56-1a32.1,32.1,0,0,1-5.33-3.8,26.16,26.16,0,0,1-3-3.27,29.94,29.94,0,0,1-2.81-4.3,19.76,19.76,0,0,1-2.56-10.34,15.69,15.69,0,0,1,4.45-9.44A29.71,29.71,0,0,1,56,11.58c1-.68,2.07-1.35,3.14-1.94.53-.3,1.06-.61,1.59-.9l1.63-.8a61.46,61.46,0,0,1,9.78-3.68,75.1,75.1,0,0,1,9.84-2,67.22,67.22,0,0,1,7.22-.78c2.6-.08,4.65.19,7.53,0a26.79,26.79,0,0,0,5.19.38c0,.49-2.64.28-4,.46a26.54,26.54,0,0,1-2.8.49A82.61,82.61,0,0,0,81.71,3.87c-3,.54-4,.67-7.65,1.5-1,.26-1.75.54-2.85.91A57.69,57.69,0,0,0,62,9.9a52.48,52.48,0,0,0-4.78,2.91,30.25,30.25,0,0,0-2.75,1.8c-.44.35-.72.7-1.09,1a20,20,0,0,0-3.27,3.29,14.32,14.32,0,0,0-2.18,4.43,14.63,14.63,0,0,0,.79,9.9c2.83,7,9.52,12.66,17,15.33,5.82,2.05,12.25,2.69,18.6,3.08a116.43,116.43,0,0,0,18.88-.15,53,53,0,0,0,12.18-2.58A49.94,49.94,0,0,0,122.11,46a34.52,34.52,0,0,0,6.39-4.2c3.95-3.29,7.09-7.81,7.92-12.7a11.13,11.13,0,0,0-.07-4.6,12.74,12.74,0,0,0-2-4.24,32.85,32.85,0,0,0-3.19-3.77,33.49,33.49,0,0,0-3.56-3.37A45.16,45.16,0,0,0,119,8.72c-3-1.23-6-2.29-8.9-3.22C105.53,4.06,101.66,3.18,98.7,2.43Z" fill-rule="evenodd"/><path d="M77.37,20c-.13,1.74-.23,3.59.62,5.11.56,1,2,1.72,2.93,2.34a37.6,37.6,0,0,0,9.83,4,7.81,7.81,0,0,0,2.24.44c1.66,0,3.14-1,4.44-2.06,1-.82,2-1.69,3-2.59a6.43,6.43,0,0,0,1.24-1.42,5.9,5.9,0,0,0,.58-2.69,24.82,24.82,0,0,0-.28-3.65" fill="#ddd892"/><path d="M89.18,13.93c-3.63.15-6.86,2.24-9.88,4.26-.63.42-1.32.93-1.42,1.67A2.6,2.6,0,0,0,79,22a27.22,27.22,0,0,0,10.21,6,6,6,0,0,0,2.67.37A6.44,6.44,0,0,0,94.5,27a73.2,73.2,0,0,0,6.13-5A3.25,3.25,0,0,0,102,19.83c0-1.17-1.14-2-2.18-2.51a38,38,0,0,0-10.32-3.49Z" fill="#f4f3dc"/><path d="M87.3,12.64a2.41,2.41,0,0,1,1.16.35,3.66,3.66,0,0,1,.68.73,1.14,1.14,0,0,0,0,.92c-.26.15-.3.45-.54.62s-.38-.09-.64,0a17.9,17.9,0,0,1-2.41.92,22.5,22.5,0,0,0-2.48,1c-1.25.63-2.44,1.48-3.35,2.05a2.24,2.24,0,0,0-.91.71.59.59,0,0,0,0,.46,2.1,2.1,0,0,0,.4.69,18.79,18.79,0,0,0,1.55,1.52A12,12,0,0,0,82.49,24c1,.62,2,1.12,3.13,1.65.37.18.76.25,1.08.41s.38.28.58.39a13.47,13.47,0,0,0,1.78.71,5,5,0,0,0,3.1.36,14.83,14.83,0,0,0,3.31-2.09c.18-.18.06-.37.27-.56a20.37,20.37,0,0,0,4.5-3.89c.08-.08.23-.18.28-.28a1.72,1.72,0,0,0,.28-.78.84.84,0,0,0-.23-.52A7.28,7.28,0,0,0,98.29,18a26.39,26.39,0,0,0-5.85-2.12A5.53,5.53,0,0,1,90,15.27a2.24,2.24,0,0,1-.63-.91l.28,0a1.07,1.07,0,0,1-.56-.84,2.28,2.28,0,0,1,.11-.45l.42,0a2.92,2.92,0,0,0,.3-.18s-.15-.25.1,0a5.46,5.46,0,0,1,2.86.6c.11,0,.57.13,1,.3s.61.36.94.5.71.18,1,.31c1,.42,1.72,1.06,2.57,1.53.68.39,1.44.7,2.15,1.12a3.57,3.57,0,0,1,1.85,2.22,2.26,2.26,0,0,1-.28,1.56,4.67,4.67,0,0,1-.93,1.12,14.54,14.54,0,0,0-1.51,1.53c-1.66,1.15-4,3-5.7,4.16a5.57,5.57,0,0,1-1.21.75,3.78,3.78,0,0,1-1.12.12,8.31,8.31,0,0,1-2.86-.56c-.47-.14-1-.32-1.65-.58a28.29,28.29,0,0,1-7.41-4.31A6.81,6.81,0,0,0,78,21.79a4.16,4.16,0,0,1-.67-1.21,2.08,2.08,0,0,1,.12-1.51A4.54,4.54,0,0,1,79,17.54l1.47-1c.08-.06.14-.22.21-.27.32-.23.72-.39,1-.61s.54-.49.85-.66a32.21,32.21,0,0,1,3.22-1.6C86.25,13.14,86.78,12.85,87.3,12.64Z" fill-rule="evenodd"/><path d="M102.12,19.46c.36-.09.22.37.3.75,0,.12.13.24.14.31,0,.26,0,.55,0,.86a10.58,10.58,0,0,1,.09,2,6.21,6.21,0,0,1-.41,2.16,5.07,5.07,0,0,1-1.37,1.77c-.52.46-1,.89-1.57,1.33s-.83.72-1.22,1.08a12,12,0,0,1-1.16,1.1c-.15.11-.35.1-.51.2s-.2.26-.34.34a8.6,8.6,0,0,1-1.08.47,5,5,0,0,1-2.78.49,8.36,8.36,0,0,1-1.31-.4c-1.09-.34-2.17-.61-3.25-1-.73-.24-1.41-.58-2.12-.86s-1.33-.46-2-.75a34.89,34.89,0,0,1-3.88-2.32c-.26-.16-.54-.24-.78-.41a4.06,4.06,0,0,1-1.3-1.47,7,7,0,0,1-.53-1.88,7.78,7.78,0,0,1-.07-1.8c0-.53,0-1.18.41-1.54.37.07.33.3.4.63a3.15,3.15,0,0,1-.06,1.07,6.31,6.31,0,0,0,.09,1.66,4.85,4.85,0,0,0,.73,1.83,7.58,7.58,0,0,0,1.84,1.49c.74.48,1.45,1,2.24,1.39a30.49,30.49,0,0,0,5.16,2.16l1.55.47a20.27,20.27,0,0,0,3.27.9,4.91,4.91,0,0,0,3.15-.93,17.77,17.77,0,0,0,2.31-1.93,22.19,22.19,0,0,0,2.57-2.31c1.28-1,1.37-2.79,1.32-4.28a11.49,11.49,0,0,1-.14-1.79C101.86,20.06,101.84,19.56,102.12,19.46Z" fill-rule="evenodd"/></svg>