<svg xmlns="http://www.w3.org/2000/svg" viewBox="0 0 158 74"><title>illo-plate</title><path d="M51.36,16.68C38.1,15.05,21.14,15.16,10,23.62-.9,31.87-2.66,47.4,8,56.64,18.53,65.72,34.21,67.79,47.52,69c14.78,1.31,30.82,2.7,45.31-1.16,8.08-2.15,6.77-15.88-2-15a100.28,100.28,0,0,1-35.61-2.66,92.56,92.56,0,0,1-16.38-5.91c-2.67-1.28-10.76-4.34-10-8.4C30.71,26.2,16,22.08,14.09,31.75,10.64,49.45,29,57.39,42.69,62.27A111.57,111.57,0,0,0,90.8,68.08l-2-15c-10.37,2.76-21.39,1.75-32,1.22-10.88-.54-22.24-1.4-32.46-5.51C17.58,46.05,12.08,40,20.44,35,29,29.8,42,30.82,51.36,32c4.11.5,7.65-3.88,7.65-7.65,0-4.56-3.53-7.15-7.65-7.65Z"/><path d="M108.61,2.18C83.45,1,56.68.9,35.17,14,29,17.74,23.07,23.15,22,30.29a20.54,20.54,0,0,0,1.78,11C28,51.23,37.17,58.43,47.2,62.41s21,5.08,31.72,5.65c19,1,38.8.33,55.86-8.1,9.72-4.8,18.74-12.88,20.7-23.54,1.73-9.4-4.67-14.87-11.73-21.3s-25.64-12-35.14-12.94" fill="#fff"/><path d="M108.93,2.47c-.81-.7.1-.9,1.51-.89.7,0,1.52.12,2.3.21l2.07.34c2.36.42,5,1.2,6.29,1.51.51.11.88,0,1.31.11,3.62,1,7.22,2.37,10.43,3.58.62.24.47,0,.69,0a1.47,1.47,0,0,1,.51.47,15.55,15.55,0,0,1,1.59.44,38.08,38.08,0,0,1,5.88,3.25l1.42,1c.47.34.91.76,1.37,1.14.89.77,1.64,1.51,2.48,2.25A42.74,42.74,0,0,1,154.19,24a18,18,0,0,1,2.39,5.2,17.09,17.09,0,0,1,.49,6,24.24,24.24,0,0,1-1.6,7,26.05,26.05,0,0,1-3.5,5.91c-1.37,1.73-2.8,3.25-4.15,4.66-1.3,1.06,0,1-1,1.86-1.4,1.36-1.8,1-2.9,1.78-2.72,2.56-6.05,4.23-9.22,5.85a75.5,75.5,0,0,1-6.82,3.34,37.5,37.5,0,0,1-4,1.38c-1.36.44-2.78.8-4.25,1.19-2.21.61-5.21,1.19-7.7,1.78-1.6.37-2.75.93-4.14,1.28-1.55.34-3.55.61-5.21.85a81.92,81.92,0,0,1-14.43,1c-2.46,0-5.16-.14-7.18-.31-.47,0-.65.13-1,.08s0-.22-.65-.26c-2.94-.2-4.5-.16-8.15-.51l-7.58-.7c-1.43-.15-2.95-.48-4.31-.69-2.44-.38-4.71-.71-7.08-1.23A38.73,38.73,0,0,1,44.77,67a39.74,39.74,0,0,1-7.86-4.71c-1-.78-1.56-1.54-2.33-2.21-1-.89-1.89-1.5-2.91-2.5-.39-.39-.3-.41-1.18-1.31a46.54,46.54,0,0,1-4-4.38,37.82,37.82,0,0,1-4.38-7.57,29.81,29.81,0,0,1-2.2-8.13,22.24,22.24,0,0,1,0-7,17.84,17.84,0,0,1,2.73-6.85,32.08,32.08,0,0,1,10.72-9.64A72.38,72.38,0,0,1,46.48,6.86a79.86,79.86,0,0,1,8.78-2.48,34,34,0,0,1,3.86-.59l1.93-.23L63,3.35c2.69-.4,5.37-1,7.94-1.22l4.19-.35,4.47-.29c2-.1,4.09,0,5.78-.13C86.48,1.3,87.47,1,88.56,1c.8,0,1.66.08,2.58.1h3.53c1.47.05,2.85.31,4.17.31s3.21-.28,4.81-.32c1.32,0,3.38-.27,4.8.42,1,1.09-2.25.84-3.21.8-3.48.48-8.3.19-12.78.29-2.93.05-5.65.32-8.59.48-1.12.07-2.27.13-3.44.17l-3.54.22a118.19,118.19,0,0,0-15,2.24A82.1,82.1,0,0,0,50.1,8.87,43.76,43.76,0,0,0,45,11.09a24.62,24.62,0,0,0-3.78,2.41,18.43,18.43,0,0,0-2.9,1.4c-.93.54-1.89,1.07-2.79,1.69a28.81,28.81,0,0,0-8.26,7.94,13.42,13.42,0,0,0-2.13,9.8,23.27,23.27,0,0,0,3,8.05A28.51,28.51,0,0,0,31.93,47a39.33,39.33,0,0,0,7.89,6.69,41.38,41.38,0,0,0,8.77,3.86,123.22,123.22,0,0,0,22,5c2.58.39,5.08.92,7.77,1.23s5.69.45,8.5.65c2.51.18,5,.56,7.56.57,1.73,0,3.6-.16,5.32-.21,4.18-.14,8.39,0,12.53-.47a28.61,28.61,0,0,0,3.27-.55l3.17-.66c2-.4,3.94-.67,5.83-1.17a69,69,0,0,0,10.76-4.16c.72-.33,1.5-.75,2.31-1.09s1.59-.71,2.28-1c2-1.52,4.39-3.16,6.57-5.14a19.78,19.78,0,0,0,5.11-6.69,20.59,20.59,0,0,0,3.38-8,13.9,13.9,0,0,0-1.56-9.57,35.74,35.74,0,0,0-6.74-8c-1.27-1.19-2.51-2.43-3.77-3.51A33.93,33.93,0,0,0,138.89,12c-.75-.48-1.4-1-2.16-1.4C135,9.7,133,9.28,131.8,8.28c-3.55-.84-8.71-3-13.44-4.16-1.75-.44-3.51-.86-5-1.09C111.62,2.75,110.23,3.05,108.93,2.47Z" fill-rule="evenodd"/><path d="M131,24a1.28,1.28,0,0,0-.12-1.14,10.39,10.39,0,0,0-1.71-2.23,14.92,14.92,0,0,0-.94-1.31c-.36-.35-.85-.54-1.24-.88s-.74-.88-1.12-1.16-1.16-.64-1.72-1-1.19-.84-1.84-1.2-1.53-.52-1.94-1.12a13.43,13.43,0,0,1-2.52-.61L116.58,13c-.38-.11-.72-.22-1.09-.31a94.57,94.57,0,0,0-10.55-1.73c-1.63-.22-3.52-.4-5.4-.47-.94,0-1.88,0-2.77,0s-1.61,0-2.34.07a123.89,123.89,0,0,0-14,1.43,107.81,107.81,0,0,0-12.17,2.42c-.83.25-1.72.39-2.43.68-.43.19-.79.53-1.2.72-.82.37-1.66.5-2.4.79a20.4,20.4,0,0,0-2.15,1.06q-1.05.57-2,1.23L56.22,20a20.79,20.79,0,0,1-1.83,1.23c-.71,1.15-1.86,2.25-2.29,3.49-.53.18-.43.6-.85.83s-.65.12-1.06.43c-.19.22.21.6,0,.81s-.74.22-.43.5c.16.33,1.17.36,1.62.64.13.36-.2.58,0,1,.55-.37.59-.05,1.11.09.46,0,.93-.09,1.41-.15s1-.11,1.46-.18c.92-.18,1.81-.34,2.49-.51.24,0,.19.69.53.44,2.32-.45,6.27-1.45,9.38-1.49a2.38,2.38,0,0,1,1.33.25A16.41,16.41,0,0,1,73,27.12c2.35-.15,4.56-.55,7-.84,1.25-.14,2.49-.19,3.77-.35,3.1-.41,6.25-.91,9.34-1.48l4-.76c1.21-.24,2.41-.43,3.56-.54a5,5,0,0,0,1.17-.3c.23-.05.59,0,.82-.06a50,50,0,0,1,5.16-.16c.87,0,1.76-.2,2.65-.18a50.88,50.88,0,0,1,5.78.55,31.75,31.75,0,0,1,8.62,2.34,11.24,11.24,0,0,0,3.42,1.33c.2,0,0-.58.53-.5,1.21.71,1.65,1.61,3.06,1.71.32-.44.07-.61.61-.89C132,26,132.25,25,131,24Zm-.48-.66c.28-.24.16.25.42.31C130.71,23.9,130.53,23.43,130.49,23.36Z" fill="#d1dce5" fill-rule="evenodd"/><path d="M75.8,53.58c-.08-.2-.35,0-.36.06-.12-.22-.31-.06-.41-.26A14.26,14.26,0,0,1,73.49,53c-.33,0-.54.07-.85-.23-.16-.17-.67-.23-.47-.41-.6-.07-1.08-.48-1.42-.48a1.48,1.48,0,0,0-.6-.62c-.3-.08-.43,0-.7,0A19.5,19.5,0,0,0,66.59,50c.11-.57-.64-.78-.64-1.31.18-.08.22,0,.43.09.06-.35.62-.18.85-.36a2.83,2.83,0,0,1,.65.27c.3-.09.51.05.64-.11.37.29,1.52.19,2.19.49.23,0,.36-.19.64-.17a14.8,14.8,0,0,0,2.42.62c.75.11,1.56.08,2.31.21,2.66.46,5.72.93,8.57,1.3.16,0,.42,0,.59,0s.26.14.41.15c.34,0,.69,0,1,0,.15,0,.28.13.42.14a46.24,46.24,0,0,0,8.14-.28c.71,0,1.45-.06,2.19-.15,1.33-.18,2.64-.43,3.92-.52,2-.12,4.36-.08,5.85-.22l1.35-.14a16.46,16.46,0,0,0,2.72-.46c.73-.19,1.4-.37,2.17-.5,1.11-.15,1.78-.7,2.42-.29.65-.35,1.58-.43,2.21-.73a1.54,1.54,0,0,1,.84-.13c.52.67-1,1.25-1.18,1.86a13.73,13.73,0,0,0-2.55,1.51c-.12.07,0,.06.1,0-.14.25-.76.33-.6.64-1.13.41-2.23.93-3.38,1.34-.27.09-.59.1-.87.2-.1,0-.28.18-.4.21a13.17,13.17,0,0,0-2.59.59,25.37,25.37,0,0,1-4.1.64c-1,.15-1.93.3-2.88.4a8.93,8.93,0,0,0-2.1.26,14.83,14.83,0,0,0-2.66.07c-.14,0-.23.14-.34.14s-.37-.09-.45-.09c-.78,0-1.62.06-2.4.09-1.25,0-2.64,0-3.85.12-2.61-.27-5.4-.49-8-.82-.28-.3-.93-.27-1.48-.4a30.76,30.76,0,0,0-3.61-1A.58.58,0,0,1,75.8,53.58Z" fill="#d1dce5" fill-rule="evenodd"/></svg>