<svg xmlns="http://www.w3.org/2000/svg" viewBox="0 0 158 146"><title>illo-pancakes</title><path d="M51.36,88.38C38.1,86.76,21.14,86.86,10,95.32c-10.88,8.26-12.64,23.78-2,33,10.5,9.08,26.18,11.15,39.49,12.33,14.78,1.32,30.82,2.7,45.31-1.16,8.08-2.15,6.77-15.88-2-15a100.51,100.51,0,0,1-35.61-2.65,93.4,93.4,0,0,1-16.38-5.92c-2.67-1.27-10.76-4.33-10-8.4C30.71,97.9,16,93.78,14.09,103.45,10.64,121.15,29,129.09,42.69,134a111.42,111.42,0,0,0,48.11,5.82l-2-15c-10.37,2.76-21.39,1.75-32,1.23-10.88-.54-22.24-1.4-32.46-5.52-6.74-2.72-12.24-8.75-3.88-13.81s21.51-4.13,30.92-3C55.47,104.18,59,99.8,59,96c0-4.55-3.53-7.15-7.65-7.65Z"/><path d="M108.61,73.89c-25.16-1.21-51.93-1.29-73.44,11.8C29,89.44,23.07,94.85,22,102a20.59,20.59,0,0,0,1.78,11c4.23,9.92,13.39,17.13,23.42,21.1s21,5.08,31.72,5.66c19,1,38.8.32,55.86-8.11,9.72-4.8,18.74-12.88,20.7-23.54,1.73-9.39-4.67-14.87-11.73-21.3s-25.64-12-35.14-12.93" fill="#fff"/><path d="M108.93,74.18c-.8-.71.1-.9,1.51-.89.7,0,1.52.11,2.3.2l2.07.34c2.36.43,5,1.2,6.29,1.51.51.11.88,0,1.31.12,3.62,1,7.22,2.36,10.43,3.57.62.24.48,0,.69,0a1.47,1.47,0,0,1,.51.47,13.29,13.29,0,0,1,1.59.45,37.19,37.19,0,0,1,5.88,3.24l1.42,1c.47.34.91.77,1.37,1.14.89.77,1.64,1.51,2.48,2.25a43,43,0,0,1,7.41,8.06,18,18,0,0,1,2.39,5.21,17.05,17.05,0,0,1,.49,6,24.38,24.38,0,0,1-1.6,7,26.5,26.5,0,0,1-3.5,5.91c-1.37,1.72-2.8,3.24-4.15,4.65-1.3,1.07,0,1-1,1.86-1.4,1.36-1.8,1.06-2.9,1.78-2.72,2.57-6.05,4.23-9.22,5.85a72.94,72.94,0,0,1-6.82,3.34,37.5,37.5,0,0,1-4,1.38c-1.36.44-2.78.8-4.25,1.19-2.21.61-5.21,1.2-7.7,1.79-1.6.36-2.75.92-4.14,1.27-1.55.34-3.55.62-5.21.85a81.92,81.92,0,0,1-14.43,1c-2.46,0-5.16-.14-7.18-.3-.47,0-.65.12-1,.07s0-.22-.65-.26c-2.94-.2-4.5-.16-8.15-.51l-7.58-.7c-1.43-.15-2.95-.48-4.31-.69-2.44-.37-4.71-.71-7.08-1.23a38.06,38.06,0,0,1-7.53-2.41A39.27,39.27,0,0,1,36.91,134c-1-.77-1.56-1.54-2.33-2.21-1-.89-1.89-1.5-2.91-2.5-.39-.39-.3-.4-1.18-1.31a45.31,45.31,0,0,1-4-4.38A37.31,37.31,0,0,1,22.13,116a29.31,29.31,0,0,1-2.21-8.12,22.3,22.3,0,0,1,0-7,17.84,17.84,0,0,1,2.73-6.85,32.05,32.05,0,0,1,10.72-9.63,71.74,71.74,0,0,1,13.07-5.87,82.63,82.63,0,0,1,8.77-2.48,34.44,34.44,0,0,1,3.87-.58l1.93-.24L63,75.05c2.69-.4,5.37-1,7.94-1.22l4.19-.35,4.47-.29c2-.1,4.09,0,5.78-.13,1.11,0,2.1-.37,3.19-.41.8,0,1.66.08,2.58.1h3.53c1.47,0,2.85.3,4.17.3s3.21-.28,4.81-.32c1.32,0,3.38-.27,4.8.42,1,1.09-2.25.84-3.21.8-3.48.48-8.3.19-12.78.29-2.93,0-5.65.32-8.59.48-1.12.07-2.27.13-3.44.18l-3.54.21a118.21,118.21,0,0,0-15,2.25A79.58,79.58,0,0,0,50.1,80.58,42.15,42.15,0,0,0,45,82.79a24.62,24.62,0,0,0-3.78,2.41,17.64,17.64,0,0,0-2.9,1.41c-.93.53-1.89,1.06-2.79,1.68a28.81,28.81,0,0,0-8.26,7.94A13.44,13.44,0,0,0,25.13,106a23.23,23.23,0,0,0,3,8,28.51,28.51,0,0,0,3.76,4.66,39.71,39.71,0,0,0,7.89,6.7,41.34,41.34,0,0,0,8.77,3.85,122.35,122.35,0,0,0,22,5c2.58.39,5.08.92,7.77,1.23s5.69.45,8.5.65c2.51.18,5,.56,7.56.57,1.73,0,3.6-.16,5.32-.21,4.18-.14,8.39,0,12.53-.47a31,31,0,0,0,3.27-.54l3.17-.67c2-.4,3.94-.67,5.83-1.17a68,68,0,0,0,10.76-4.16c.72-.32,1.5-.74,2.31-1.09s1.59-.71,2.28-1c2-1.53,4.38-3.17,6.57-5.15a19.68,19.68,0,0,0,5.11-6.69,20.53,20.53,0,0,0,3.38-8A13.9,13.9,0,0,0,153.34,98a36,36,0,0,0-6.74-8c-1.26-1.19-2.51-2.43-3.77-3.5a32.89,32.89,0,0,0-3.94-2.87c-.75-.47-1.4-1-2.16-1.4C135,81.4,133,81,131.8,80c-3.55-.84-8.71-3-13.44-4.16-1.75-.44-3.51-.85-5-1.09C111.62,74.45,110.23,74.75,108.93,74.18Z" fill-rule="evenodd"/><path d="M131,95.72a1.28,1.28,0,0,0-.12-1.14,10.34,10.34,0,0,0-1.71-2.22A13.7,13.7,0,0,0,128.2,91c-.36-.35-.85-.53-1.24-.88s-.74-.88-1.12-1.16-1.16-.63-1.72-1-1.19-.84-1.84-1.2-1.53-.52-1.94-1.12a13.43,13.43,0,0,1-2.52-.61l-1.24-.38-1.09-.32a96.94,96.94,0,0,0-10.55-1.73c-1.63-.22-3.52-.39-5.4-.47-.94,0-1.88,0-2.77,0s-1.61,0-2.34.07a123.89,123.89,0,0,0-14,1.43,112.43,112.43,0,0,0-12.17,2.42c-.83.25-1.72.39-2.43.68-.43.19-.79.54-1.2.73-.82.36-1.66.49-2.4.78a20.4,20.4,0,0,0-2.15,1.06q-1.05.57-2,1.23l-1.8,1.21A20.76,20.76,0,0,1,54.39,93c-.71,1.15-1.86,2.26-2.29,3.49-.53.18-.43.6-.85.84s-.65.11-1.06.43c-.19.21.21.59,0,.8s-.74.22-.43.51c.16.32,1.17.36,1.62.63.13.36-.2.58,0,1,.55-.37.59-.06,1.11.08.46,0,.93-.09,1.41-.15s1-.1,1.46-.18c.92-.17,1.81-.34,2.49-.51.24,0,.19.69.53.44,2.32-.45,6.27-1.45,9.38-1.49a2.38,2.38,0,0,1,1.33.25c1.28-.41,2.62-.14,3.88-.25,2.35-.15,4.56-.55,7-.83,1.25-.15,2.49-.19,3.77-.35,3.1-.42,6.25-.92,9.34-1.49l4-.76c1.21-.24,2.41-.42,3.56-.54a5.68,5.68,0,0,0,1.17-.29,7.56,7.56,0,0,1,.82-.07,47.31,47.31,0,0,1,5.16-.15c.87,0,1.76-.2,2.65-.19a48.63,48.63,0,0,1,5.78.56A31.36,31.36,0,0,1,124.89,97a11.54,11.54,0,0,0,3.42,1.34c.2,0,0-.58.53-.51,1.21.71,1.65,1.61,3.06,1.71.32-.44.07-.6.61-.89C132,97.71,132.25,96.65,131,95.72Zm-.48-.66c.28-.24.16.26.42.31C130.71,95.6,130.53,95.13,130.49,95.06Z" fill="#d1dce5" fill-rule="evenodd"/><path d="M75.8,131.1c-.08-.2-.35,0-.36.06-.12-.22-.31-.07-.41-.27a12.22,12.22,0,0,1-1.54-.36c-.33,0-.54.08-.85-.23-.16-.16-.67-.23-.47-.4-.6-.07-1.08-.48-1.42-.48a1.37,1.37,0,0,0-.6-.62c-.3-.09-.43,0-.7,0a19.5,19.5,0,0,0-2.86-1.25c.11-.58-.64-.79-.64-1.32.18-.07.22,0,.43.1.06-.35.62-.18.85-.36a2.84,2.84,0,0,1,.65.26c.3-.08.51.06.64-.1.37.29,1.52.19,2.19.48.23,0,.36-.18.64-.17a14.82,14.82,0,0,0,2.42.63c.75.11,1.56.07,2.31.2,2.66.46,5.72.93,8.57,1.3.16,0,.42,0,.59,0s.26.13.41.15c.34,0,.69,0,1,0,.15,0,.28.13.42.15a46.28,46.28,0,0,0,8.14-.29c.71-.05,1.45-.05,2.18-.15,1.34-.18,2.65-.42,3.93-.51,2-.12,4.36-.09,5.85-.22l1.35-.14a17.58,17.58,0,0,0,2.72-.46,21.43,21.43,0,0,1,2.17-.5c1.11-.15,1.78-.7,2.42-.29.65-.35,1.58-.44,2.21-.73a1.55,1.55,0,0,1,.84-.14c.52.68-1,1.26-1.18,1.87a13.72,13.72,0,0,0-2.55,1.5c-.12.08,0,.06.1,0-.14.24-.76.32-.6.64-1.13.4-2.23.93-3.38,1.34-.27.08-.59.1-.87.19-.1,0-.28.18-.4.22a12.51,12.51,0,0,0-2.59.58,24.3,24.3,0,0,1-4.1.64c-1,.15-1.93.31-2.88.41a8.44,8.44,0,0,0-2.1.26,13.19,13.19,0,0,0-2.66.07c-.14,0-.23.13-.34.14s-.37-.1-.45-.1c-.78,0-1.62.07-2.4.1-1.25,0-2.64,0-3.85.12-2.61-.28-5.4-.49-8-.82-.28-.3-.93-.27-1.48-.4a28.86,28.86,0,0,0-3.61-1A.72.72,0,0,1,75.8,131.1Z" fill="#d1dce5" fill-rule="evenodd"/><path d="M97.67,69.27C80.51,68.45,69.16,70.2,54.45,80c-4.22,2.8-8.28,6.82-9,12.12a16.47,16.47,0,0,0,1.18,8.15c2.86,7.35,9.09,12.66,15.92,15.58s15.95,3.65,23.3,4c13,.69,24.79.19,36.45-6.1,6.65-3.59,12.82-9.6,14.19-17.51,1.2-7-3.15-11-8-15.75S104.15,70,97.67,69.27" fill="#ddad73"/><path d="M124.7,104.5c-14,8.87-44.34,9.11-59.73,4.93-6.28-1.71-17-14.33-19.55-17.35.11,1.91.5,6.39,1.18,8.15,2.86,7.35,9.09,12.66,15.92,15.58s15.95,3.65,23.3,4c13,.69,24.79.19,36.45-6.1,6.65-3.59,12.82-9.6,14.19-17.51a13.59,13.59,0,0,0-1.05-6.84C131.89,96,130.85,100.59,124.7,104.5Z" fill="#f7dbbc"/><path d="M97.64,69.52a9.37,9.37,0,0,1,2.22.31c1.19.14-.62-.48.91-.19,4,.86,7.68,1.83,11.62,3.07,1.55.43-1.25-.44.09-.12a73.11,73.11,0,0,1,7.79,2.8,46.24,46.24,0,0,1,5.79,2.69c.53.29,1,.66,1.57,1a17.15,17.15,0,0,1,1.46,1.22c.87.85,1.72,1.7,2.52,2.55.19,0-.89-1-1.24-1.38a45.09,45.09,0,0,1,3.64,3.9,16.32,16.32,0,0,1,2.72,4.8,12.46,12.46,0,0,1,.5,5.59,20,20,0,0,1-1.53,5.37,25.42,25.42,0,0,1-6.77,8.9,38.14,38.14,0,0,1-9.62,6c-.81.38-1.64.7-2.47,1s-1.66.58-2.48.86c-1,.35-2,.62-2.93.94s-2,.57-3,.76a66.91,66.91,0,0,1-12,1.22c-3.67.1-7.39,0-11.1-.13a109.39,109.39,0,0,1-11.13-.93,50.57,50.57,0,0,1-11.8-3c-.55-.22-1.21-.58-1.74-.81a7.81,7.81,0,0,0-.79-.24c-.49-.23-1-.71-1.56-1a32.1,32.1,0,0,1-5.33-3.8,26.23,26.23,0,0,1-3-3.27,29.94,29.94,0,0,1-2.81-4.3,19.74,19.74,0,0,1-2.56-10.34,15.63,15.63,0,0,1,4.45-9.43A29.71,29.71,0,0,1,55,78.68c1-.69,2.07-1.36,3.14-2,.53-.3,1.06-.61,1.59-.89L61.33,75a61.46,61.46,0,0,1,9.78-3.68,76.71,76.71,0,0,1,9.84-2,67.24,67.24,0,0,1,7.22-.79c2.6-.07,4.65.19,7.53,0a26.79,26.79,0,0,0,5.19.38c0,.49-2.64.29-4,.46a26.54,26.54,0,0,1-2.8.49A81.61,81.61,0,0,0,80.65,71c-3,.53-4,.66-7.65,1.5a29.09,29.09,0,0,0-2.85.91A56.72,56.72,0,0,0,60.91,77a52.48,52.48,0,0,0-4.78,2.91,32.53,32.53,0,0,0-2.75,1.8c-.44.35-.72.7-1.09,1A19.21,19.21,0,0,0,49,86a14.26,14.26,0,0,0-2.18,4.42,14.62,14.62,0,0,0,.79,9.9c2.83,7,9.52,12.67,17,15.33,5.82,2,12.25,2.7,18.6,3.08a116.58,116.58,0,0,0,18.89-.14A54.26,54.26,0,0,0,114.33,116a50.47,50.47,0,0,0,6.72-2.92,34,34,0,0,0,6.39-4.2c3.95-3.29,7.09-7.81,7.92-12.7a11.13,11.13,0,0,0-.07-4.6,12.61,12.61,0,0,0-2-4.23,31.23,31.23,0,0,0-3.19-3.77,33.63,33.63,0,0,0-3.56-3.38,45.16,45.16,0,0,0-8.68-4.42c-3-1.22-6-2.28-8.9-3.22C104.47,71.16,100.6,70.27,97.64,69.52Z" fill-rule="evenodd"/><path d="M97.67,55.93c-17.16-.82-28.51.93-43.22,10.69-4.22,2.79-8.28,6.82-9,12.11a16.5,16.5,0,0,0,1.18,8.16c2.86,7.35,9.09,12.66,15.92,15.58s15.95,3.65,23.3,4c13,.7,24.79.2,36.45-6.09,6.65-3.59,12.82-9.6,14.19-17.51,1.2-7-3.15-11-8-15.75S104.15,56.63,97.67,55.93" fill="#ddad73"/><path d="M124.7,91.16c-14,8.87-44.34,9.11-59.73,4.93-6.28-1.71-17-14.34-19.55-17.36.11,1.91.5,6.4,1.18,8.16,2.86,7.35,9.09,12.66,15.92,15.58s15.95,3.65,23.3,4c13,.7,24.79.2,36.45-6.09,6.65-3.59,12.82-9.6,14.19-17.51a13.59,13.59,0,0,0-1.05-6.84C131.89,82.64,130.85,87.25,124.7,91.16Z" fill="#f7dbbc"/><path d="M97.64,56.22a8.34,8.34,0,0,1,2.22.3c1.19.13-.62-.54.92-.24,4,.86,7.68,1.82,11.62,3,1.55.42-1.25-.44.1-.14a68.18,68.18,0,0,1,7.8,2.8,47.26,47.26,0,0,1,5.81,2.67c.53.29,1,.66,1.57,1a17.71,17.71,0,0,1,1.47,1.23c.87.85,1.73,1.7,2.52,2.56.21,0-.88-1-1.22-1.4A43.82,43.82,0,0,1,134.09,72a16.09,16.09,0,0,1,2.75,4.83,12.41,12.41,0,0,1,.5,5.64,20.39,20.39,0,0,1-1.53,5.41,25.68,25.68,0,0,1-6.8,8.94,38.4,38.4,0,0,1-9.66,6,26.56,26.56,0,0,1-2.47,1c-.83.32-1.67.57-2.49.85-1,.36-2,.63-2.93,1s-1.95.59-2.95.77a67.23,67.23,0,0,1-12,1.22c-3.68.09-7.4,0-11.12-.12s-7.45-.38-11.14-.91a50.67,50.67,0,0,1-11.84-3c-.55-.22-1.21-.59-1.74-.81a7.12,7.12,0,0,0-.8-.23c-.49-.23-1-.73-1.56-1.06a31.94,31.94,0,0,1-5.36-3.81,25.78,25.78,0,0,1-3-3.3A29.38,29.38,0,0,1,47.12,90a19.88,19.88,0,0,1-2.57-10.41A15.8,15.8,0,0,1,49,70.07a29.93,29.93,0,0,1,5.87-4.85c1-.69,2.06-1.36,3.14-1.95.53-.31,1.06-.62,1.6-.9l1.63-.81a61.36,61.36,0,0,1,9.8-3.69,79.25,79.25,0,0,1,9.86-2A65,65,0,0,1,88.16,55c2.61-.07,4.66.24,7.54,0a22.63,22.63,0,0,0,5.19.41c0,.57-2.64.35-4,.56a21,21,0,0,1-2.8.58,79.17,79.17,0,0,0-13.45,1.11c-3,.55-4,.68-7.64,1.51-1,.25-1.74.55-2.84.92A57.46,57.46,0,0,0,61,63.75a54.4,54.4,0,0,0-4.75,2.92c-.92.59-1.92,1.13-2.75,1.79-.44.36-.7.72-1.07,1a20.11,20.11,0,0,0-3.26,3.26,14.08,14.08,0,0,0-1.36,14.18c2.8,7,9.46,12.59,16.94,15.24,5.8,2,12.22,2.69,18.56,3.07a116.16,116.16,0,0,0,18.86-.17,53.36,53.36,0,0,0,12.14-2.57A49.49,49.49,0,0,0,121,99.6a33.81,33.81,0,0,0,6.36-4.17c3.93-3.27,7.05-7.75,7.86-12.59a11,11,0,0,0-.06-4.53,12.56,12.56,0,0,0-1.94-4.17A30.73,30.73,0,0,0,130,70.39,34.25,34.25,0,0,0,126.48,67a45.58,45.58,0,0,0-8.63-4.42c-3-1.23-6-2.3-8.88-3.24C104.44,57.91,100.58,57,97.64,56.22Z" fill-rule="evenodd"/><path d="M97.67,42.27C80.51,41.45,69.16,43.2,54.45,53c-4.22,2.8-8.28,6.82-9,12.12a16.47,16.47,0,0,0,1.18,8.15c2.86,7.35,9.09,12.66,15.92,15.58s15.95,3.65,23.3,4c13,.69,24.79.19,36.45-6.1,6.65-3.59,12.82-9.6,14.19-17.51,1.2-7-3.15-11-8-15.75S104.15,43,97.67,42.27" fill="#ddad73"/><path d="M124.7,77.5c-14,8.87-44.34,9.11-59.73,4.93-6.28-1.71-17-14.34-19.55-17.35.11,1.91.5,6.39,1.18,8.15,2.86,7.35,9.09,12.66,15.92,15.58s15.95,3.65,23.3,4c13,.69,24.79.19,36.45-6.1,6.65-3.59,12.82-9.6,14.19-17.51a13.59,13.59,0,0,0-1.05-6.84C131.89,69,130.85,73.59,124.7,77.5Z" fill="#f7dbbc"/><path d="M97.65,42.48a11.4,11.4,0,0,1,2.22.31c1.19.16-.64-.42.9-.13,4,.86,7.67,1.84,11.61,3.08,1.54.45-1.25-.43.08-.1a76.86,76.86,0,0,1,7.79,2.81,47.82,47.82,0,0,1,5.77,2.7c.53.29,1,.66,1.55,1A17.2,17.2,0,0,1,129,53.35c.87.85,1.73,1.71,2.52,2.55.18,0-.89-1-1.24-1.37a43.39,43.39,0,0,1,3.62,3.9,16,16,0,0,1,2.7,4.76,12.11,12.11,0,0,1,.49,5.54,20,20,0,0,1-1.52,5.35,25.44,25.44,0,0,1-6.73,8.85,37.78,37.78,0,0,1-9.6,5.94c-.8.38-1.63.7-2.46,1s-1.66.59-2.48.86-1.95.62-2.92.94-1.94.56-2.94.74a66.7,66.7,0,0,1-12,1.23c-3.67.1-7.38,0-11.09-.15s-7.44-.4-11.12-.93a50.18,50.18,0,0,1-11.77-3c-.54-.22-1.2-.57-1.73-.8-.2-.09-.77-.26-.77-.26-.49-.23-1-.68-1.57-1a31.86,31.86,0,0,1-5.3-3.79,26,26,0,0,1-3-3.25,28.46,28.46,0,0,1-2.8-4.27,19.65,19.65,0,0,1-2.56-10.27,15.5,15.5,0,0,1,4.43-9.37A29.45,29.45,0,0,1,55,51.79c1-.68,2.07-1.35,3.14-1.93.53-.3,1.06-.61,1.59-.89l1.62-.81a60.83,60.83,0,0,1,9.76-3.67,74.71,74.71,0,0,1,9.82-2,69.33,69.33,0,0,1,7.21-.75c2.59-.08,4.64.14,7.51,0a33.43,33.43,0,0,0,5.19.34c0,.41-2.63.22-4,.36-.73.17-1.77.27-2.8.4a83.88,83.88,0,0,0-13.48,1c-3,.51-4,.65-7.67,1.49-1,.26-1.75.52-2.86.9a56.6,56.6,0,0,0-9.25,3.64,51.3,51.3,0,0,0-4.8,2.89,31.26,31.26,0,0,0-2.76,1.81c-.44.35-.73.69-1.11,1a20.66,20.66,0,0,0-3.29,3.32,14.34,14.34,0,0,0-2.22,4.46,14.81,14.81,0,0,0,.81,10c2.85,7.08,9.57,12.74,17.12,15.41,5.85,2.06,12.28,2.71,18.64,3.1a118,118,0,0,0,18.91-.12,54,54,0,0,0,12.22-2.59,48.48,48.48,0,0,0,6.75-2.92,34.58,34.58,0,0,0,6.43-4.22c4-3.32,7.14-7.88,8-12.82a11.3,11.3,0,0,0-.07-4.67,12.76,12.76,0,0,0-2-4.3,31.59,31.59,0,0,0-3.21-3.79,33.17,33.17,0,0,0-3.59-3.39A45.42,45.42,0,0,0,118,48.67c-3-1.21-6-2.26-8.92-3.19C104.49,44.06,100.62,43.17,97.65,42.48Z" fill-rule="evenodd"/><path d="M99.67,28.48c-17.16-.83-28.51.92-43.22,10.68-4.22,2.8-8.28,6.82-9,12.12a16.53,16.53,0,0,0,1.18,8.16C51.46,66.78,57.69,72.09,64.52,75s16,3.65,23.3,4c13,.7,24.79.19,36.45-6.1,6.65-3.58,12.82-9.6,14.19-17.51,1.2-7-3.15-11-8-15.75S106.15,29.17,99.67,28.48" fill="#ddad73"/><path d="M126.7,63.7c-14,8.87-44.34,9.11-59.73,4.93-6.28-1.7-17-14.33-19.55-17.35.11,1.91.5,6.39,1.18,8.16C51.46,66.78,57.69,72.09,64.52,75s16,3.65,23.3,4c13,.7,24.79.19,36.45-6.1,6.65-3.58,12.82-9.6,14.19-17.51a13.63,13.63,0,0,0-1.05-6.84C133.89,55.18,132.85,59.8,126.7,63.7Z" fill="#f7dbbc"/><path d="M99.64,28.73a9.23,9.23,0,0,1,2.22.3c1.19.14-.62-.48.91-.19,4,.86,7.68,1.84,11.62,3.07,1.55.43-1.25-.44.09-.12a73.11,73.11,0,0,1,7.79,2.8,47.72,47.72,0,0,1,5.79,2.69c.53.29,1,.66,1.57,1a17.15,17.15,0,0,1,1.46,1.22c.87.85,1.72,1.71,2.52,2.56.19,0-.89-1-1.24-1.39a45.09,45.09,0,0,1,3.64,3.9,16.32,16.32,0,0,1,2.72,4.8,12.46,12.46,0,0,1,.5,5.59,20.18,20.18,0,0,1-1.53,5.38,25.48,25.48,0,0,1-6.77,8.89,37.85,37.85,0,0,1-9.62,6c-.81.38-1.64.7-2.47,1s-1.66.58-2.48.86c-1,.35-2,.62-2.93.95s-2,.57-3,.75a66,66,0,0,1-12,1.22c-3.67.1-7.39,0-11.1-.13s-7.44-.39-11.13-.92a50.07,50.07,0,0,1-11.8-3c-.55-.22-1.21-.58-1.74-.8-.2-.09-.79-.25-.79-.25-.49-.23-1-.71-1.56-1A31.53,31.53,0,0,1,55,70a26.23,26.23,0,0,1-3-3.27,28.86,28.86,0,0,1-2.81-4.3,19.73,19.73,0,0,1-2.56-10.33,15.66,15.66,0,0,1,4.45-9.44A29.71,29.71,0,0,1,57,37.88c1-.68,2.07-1.35,3.14-1.94.53-.3,1.06-.62,1.59-.9l1.63-.8a60.51,60.51,0,0,1,9.78-3.68,75.1,75.1,0,0,1,9.84-2,69.89,69.89,0,0,1,7.22-.79c2.6-.07,4.65.19,7.53,0a27.61,27.61,0,0,0,5.19.38c0,.48-2.64.28-4,.45a22.22,22.22,0,0,1-2.8.49,82.72,82.72,0,0,0-13.47,1.06c-3,.53-4,.67-7.65,1.5-1,.26-1.75.54-2.85.91a55.87,55.87,0,0,0-9.24,3.62,52.39,52.39,0,0,0-4.78,2.9,32.53,32.53,0,0,0-2.75,1.8c-.44.36-.72.7-1.09,1A19.57,19.57,0,0,0,51,45.22a14.26,14.26,0,0,0-2.18,4.42,14.65,14.65,0,0,0,.79,9.91c2.83,7,9.52,12.66,17,15.32,5.82,2,12.25,2.7,18.6,3.08a116.58,116.58,0,0,0,18.89-.14,54.26,54.26,0,0,0,12.18-2.58,51.72,51.72,0,0,0,6.72-2.91,35,35,0,0,0,6.39-4.2c3.95-3.29,7.09-7.82,7.92-12.7a11.13,11.13,0,0,0-.07-4.6,12.57,12.57,0,0,0-2-4.24,31.23,31.23,0,0,0-3.19-3.77,34.68,34.68,0,0,0-3.56-3.38A46.33,46.33,0,0,0,119.9,35c-3-1.22-6-2.28-8.9-3.21C106.47,30.36,102.6,29.48,99.64,28.73Z" fill-rule="evenodd"/><path d="M95.49,15.27C78.33,14.45,67,16.2,52.27,26c-4.22,2.79-8.28,6.82-9,12.12a16.36,16.36,0,0,0,1.18,8.15c2.86,7.35,9.09,12.66,15.92,15.58s16,3.65,23.3,4c13,.7,24.79.2,36.45-6.09,6.65-3.59,12.82-9.6,14.18-17.51,1.21-7-3.14-11-7.94-15.75S102,16,95.49,15.27" fill="#ddad73"/><path d="M122.52,50.5c-14,8.87-44.34,9.11-59.73,4.93-6.28-1.71-17-14.34-19.55-17.35.11,1.91.49,6.39,1.18,8.15,2.86,7.35,9.09,12.66,15.92,15.58s16,3.65,23.3,4c13,.7,24.79.2,36.45-6.09,6.65-3.59,12.82-9.6,14.18-17.51a13.59,13.59,0,0,0-1-6.84C129.71,42,128.67,46.59,122.52,50.5Z" fill="#f7dbbc"/><path d="M95.45,15.57c.12-.17,1.56.19,2.22.29,1.2.13-.61-.53.92-.24,4,.86,7.68,1.83,11.63,3.05,1.55.43-1.25-.44.1-.14a69.58,69.58,0,0,1,7.8,2.8,46,46,0,0,1,5.8,2.68c.54.28,1,.65,1.58,1s1,.81,1.47,1.23c.87.85,1.73,1.71,2.52,2.56.21-.05-.88-1-1.22-1.4a45.34,45.34,0,0,1,3.64,3.91,16.43,16.43,0,0,1,2.75,4.83,12.55,12.55,0,0,1,.5,5.64,20,20,0,0,1-1.54,5.41,25.53,25.53,0,0,1-6.79,8.94,38.12,38.12,0,0,1-9.66,6c-.8.38-1.64.7-2.47,1s-1.67.58-2.5.85-2,.63-2.92,1-2,.58-3,.76a67,67,0,0,1-12,1.22c-3.68.1-7.39,0-11.11-.12s-7.45-.38-11.14-.91a50.41,50.41,0,0,1-11.84-3c-.55-.22-1.21-.59-1.74-.81a7.08,7.08,0,0,0-.8-.22c-.5-.24-1-.74-1.56-1.07A32.4,32.4,0,0,1,50.73,57a27.35,27.35,0,0,1-3-3.3,30.51,30.51,0,0,1-2.81-4.32,19.78,19.78,0,0,1-2.56-10.41,15.69,15.69,0,0,1,4.48-9.5,29.93,29.93,0,0,1,5.86-4.86c1-.68,2.07-1.36,3.15-1.95.53-.3,1.06-.62,1.59-.9l1.63-.81a60.82,60.82,0,0,1,9.81-3.68,77.17,77.17,0,0,1,9.86-2A64.75,64.75,0,0,1,86,14.36c2.6-.07,4.66.24,7.54.05a22.58,22.58,0,0,0,5.19.41c0,.57-2.64.35-4,.56a21.32,21.32,0,0,1-2.8.58,80.33,80.33,0,0,0-13.46,1.11c-3,.56-4,.68-7.63,1.51a28.39,28.39,0,0,0-2.84.93,56.49,56.49,0,0,0-9.23,3.58A52.33,52.33,0,0,0,54,26c-.92.59-1.91,1.12-2.75,1.78-.43.36-.69.72-1.06,1A19.71,19.71,0,0,0,47,32.1a14.22,14.22,0,0,0-2.13,4.39,14.58,14.58,0,0,0,.76,9.8c2.81,7,9.47,12.58,16.94,15.24,5.81,2,12.22,2.69,18.57,3.06a116,116,0,0,0,18.85-.17,53.25,53.25,0,0,0,12.14-2.57,49.6,49.6,0,0,0,6.7-2.91,33.74,33.74,0,0,0,6.35-4.17c3.94-3.27,7.05-7.75,7.87-12.59a11,11,0,0,0-.07-4.53A12.43,12.43,0,0,0,131,33.48a30.73,30.73,0,0,0-3.17-3.75,33.07,33.07,0,0,0-3.53-3.36,45.34,45.34,0,0,0-8.63-4.43c-3-1.23-6-2.29-8.88-3.24C102.26,17.25,98.4,16.38,95.45,15.57Z" fill-rule="evenodd"/><path d="M98.43,2.65c-17.16-.82-28.51.93-43.22,10.69-4.22,2.8-8.28,6.82-9,12.12a16.41,16.41,0,0,0,1.18,8.16C50.22,41,56.45,46.27,63.28,49.19s16,3.65,23.3,4.05c13,.7,24.79.19,36.45-6.1,6.65-3.59,12.82-9.6,14.19-17.51,1.2-7-3.15-11-7.95-15.75S104.9,3.35,98.43,2.65" fill="#ddad73"/><path d="M125.46,37.88c-14,8.87-44.34,9.11-59.73,4.93-6.28-1.7-17-14.33-19.55-17.35.11,1.91.5,6.39,1.18,8.16C50.22,41,56.45,46.27,63.28,49.19s16,3.65,23.3,4.05c13,.7,24.79.19,36.45-6.1,6.65-3.59,12.82-9.6,14.19-17.51a13.74,13.74,0,0,0-1.05-6.84C132.65,29.36,131.61,34,125.46,37.88Z" fill="#f7dbbc"/><path d="M98.4,2.91a9.28,9.28,0,0,1,2.22.3c1.19.14-.63-.48.91-.19,4,.86,7.68,1.84,11.62,3.07,1.55.43-1.25-.44.09-.12A73.11,73.11,0,0,1,121,8.77a48.43,48.43,0,0,1,5.79,2.69c.53.29,1,.66,1.56,1a17.29,17.29,0,0,1,1.47,1.22c.86.85,1.72,1.7,2.52,2.55.19,0-.89-1-1.24-1.38a46.71,46.71,0,0,1,3.64,3.9,16.32,16.32,0,0,1,2.72,4.8,12.46,12.46,0,0,1,.5,5.59,20.56,20.56,0,0,1-1.53,5.38,25.48,25.48,0,0,1-6.77,8.89,37.85,37.85,0,0,1-9.62,6c-.81.38-1.64.7-2.47,1s-1.67.58-2.49.86-2,.62-2.92,1-2,.57-3,.75a66,66,0,0,1-12,1.22c-3.67.1-7.39,0-11.1-.13s-7.44-.39-11.13-.92a50.16,50.16,0,0,1-11.81-3c-.54-.22-1.21-.58-1.73-.81a7.81,7.81,0,0,0-.79-.24c-.49-.23-1-.71-1.56-1a31.7,31.7,0,0,1-5.33-3.8,25.48,25.48,0,0,1-3-3.27A28.1,28.1,0,0,1,48,36.65a19.73,19.73,0,0,1-2.56-10.33,15.66,15.66,0,0,1,4.45-9.44,29.71,29.71,0,0,1,5.86-4.82c1-.68,2.06-1.35,3.14-1.94.53-.3,1.06-.62,1.59-.9l1.63-.8a61.15,61.15,0,0,1,9.78-3.69,76.37,76.37,0,0,1,9.84-2,69.59,69.59,0,0,1,7.22-.79c2.6-.07,4.65.19,7.52,0a28.68,28.68,0,0,0,5.2.38c-.05.48-2.64.28-4,.45a22.55,22.55,0,0,1-2.8.49A82.63,82.63,0,0,0,81.41,4.35c-3,.53-4,.66-7.65,1.5-1,.26-1.75.53-2.85.91a55.87,55.87,0,0,0-9.24,3.62,52.39,52.39,0,0,0-4.78,2.9,32.53,32.53,0,0,0-2.75,1.8c-.44.35-.72.7-1.09,1a20,20,0,0,0-3.28,3.29,14.47,14.47,0,0,0-2.17,4.42,14.65,14.65,0,0,0,.79,9.91c2.83,7,9.51,12.66,17,15.32,5.83,2.05,12.26,2.7,18.61,3.08A116.45,116.45,0,0,0,102.9,52a54.14,54.14,0,0,0,12.18-2.58,49.37,49.37,0,0,0,6.72-2.92,33.81,33.81,0,0,0,6.39-4.19c4-3.29,7.1-7.82,7.93-12.7a11.13,11.13,0,0,0-.07-4.6,12.57,12.57,0,0,0-2-4.24,30.43,30.43,0,0,0-3.2-3.77,33.62,33.62,0,0,0-3.55-3.38,45.73,45.73,0,0,0-8.68-4.42c-3-1.22-6-2.28-8.9-3.21C105.23,4.54,101.36,3.66,98.4,2.91Z" fill-rule="evenodd"/><path d="M77.07,20.45c-.13,1.73-.23,3.59.62,5.1.56,1,2,1.72,2.93,2.35a37.17,37.17,0,0,0,9.82,4,8,8,0,0,0,2.24.45,7.52,7.52,0,0,0,4.45-2.06c1-.83,2-1.7,3-2.6a6.21,6.21,0,0,0,1.24-1.42,6,6,0,0,0,.58-2.69,25,25,0,0,0-.28-3.65" fill="#ddd892"/><path d="M88.88,14.41c-3.63.14-6.86,2.23-9.88,4.26-.63.42-1.32.92-1.43,1.67a2.66,2.66,0,0,0,1.13,2.12,27.33,27.33,0,0,0,10.21,6,5.82,5.82,0,0,0,2.67.37,6.29,6.29,0,0,0,2.62-1.31,73.32,73.32,0,0,0,6.13-5,3.25,3.25,0,0,0,1.36-2.18c0-1.17-1.14-2-2.19-2.51a37.61,37.61,0,0,0-10.31-3.5Z" fill="#f4f3dc"/><path d="M87,13.12a2.37,2.37,0,0,1,1.15.34,3.26,3.26,0,0,1,.69.74,1.14,1.14,0,0,0,0,.92c-.26.15-.3.44-.54.61s-.38-.08-.64,0a17.9,17.9,0,0,1-2.41.92,19.29,19.29,0,0,0-2.49,1c-1.24.62-2.43,1.48-3.34,2a2.34,2.34,0,0,0-.91.72.55.55,0,0,0,0,.46,2.07,2.07,0,0,0,.4.68A20.54,20.54,0,0,0,80.41,23a12.65,12.65,0,0,0,1.78,1.46c1,.62,2,1.11,3.13,1.65.37.18.76.25,1.08.41s.37.28.58.38a12.22,12.22,0,0,0,1.78.71,5,5,0,0,0,3.1.37,15.6,15.6,0,0,0,3.31-2.09c.18-.19,0-.38.27-.56a20.64,20.64,0,0,0,4.5-3.89c.07-.09.23-.19.28-.28a1.79,1.79,0,0,0,.28-.79.84.84,0,0,0-.23-.51A7.21,7.21,0,0,0,98,18.51a26.65,26.65,0,0,0-5.85-2.13,5.48,5.48,0,0,1-2.42-.63,2.38,2.38,0,0,1-.63-.91l.28,0a1,1,0,0,1-.56-.83,2.12,2.12,0,0,1,.11-.45l.42,0a1.31,1.31,0,0,0,.3-.18s-.16-.25.09,0a5.68,5.68,0,0,1,2.87.6c.11.05.57.14,1,.31s.62.36.94.5.71.18,1,.3c1,.43,1.72,1.06,2.57,1.54.68.38,1.44.69,2.15,1.11a3.62,3.62,0,0,1,1.85,2.22,2.3,2.3,0,0,1-.28,1.57,4.81,4.81,0,0,1-.93,1.11,15.78,15.78,0,0,0-1.52,1.54c-1.65,1.14-4,3-5.7,4.15a5.27,5.27,0,0,1-1.2.75,3.78,3.78,0,0,1-1.12.13,8.29,8.29,0,0,1-2.86-.57c-.47-.14-1-.32-1.65-.58a28,28,0,0,1-7.42-4.3,6.43,6.43,0,0,0-1.75-1.39A3.82,3.82,0,0,1,77,21.05a2,2,0,0,1,.12-1.5A4.49,4.49,0,0,1,78.67,18l1.47-1c.08-.05.14-.22.21-.26.32-.23.72-.4,1-.62s.54-.48.85-.66a34.52,34.52,0,0,1,3.22-1.6C86,13.62,86.48,13.32,87,13.12Z" fill-rule="evenodd"/><path d="M101.82,19.93c.36-.09.22.37.3.76,0,.11.13.24.14.31,0,.26,0,.55,0,.85a10.65,10.65,0,0,1,.09,2,6.25,6.25,0,0,1-.41,2.16,5.07,5.07,0,0,1-1.37,1.77c-.52.46-1.06.89-1.57,1.32s-.84.73-1.22,1.08a11.94,11.94,0,0,1-1.16,1.1c-.15.11-.35.11-.51.2s-.2.27-.35.35a10.14,10.14,0,0,1-1.07.46,5,5,0,0,1-2.79.5,9.43,9.43,0,0,1-1.3-.4c-1.09-.34-2.17-.61-3.25-1-.73-.24-1.41-.57-2.13-.86s-1.33-.45-2-.74a33.62,33.62,0,0,1-3.89-2.33c-.25-.15-.53-.24-.77-.41a3.82,3.82,0,0,1-1.3-1.47,7.39,7.39,0,0,1-.54-1.87,8.37,8.37,0,0,1-.06-1.8c0-.53,0-1.19.41-1.54.37.06.33.29.4.62a3.24,3.24,0,0,1-.07,1.08,6.35,6.35,0,0,0,.1,1.66,4.65,4.65,0,0,0,.73,1.82,7.84,7.84,0,0,0,1.84,1.5c.74.47,1.45,1,2.23,1.39a30.12,30.12,0,0,0,5.17,2.15l1.55.47a20,20,0,0,0,3.27.91,4.94,4.94,0,0,0,3.15-.94,18.38,18.38,0,0,0,2.31-1.92,24,24,0,0,0,2.57-2.32c1.28-1,1.37-2.78,1.31-4.27a13,13,0,0,1-.13-1.8C101.56,20.54,101.54,20,101.82,19.93Z" fill-rule="evenodd"/></svg>