<svg xmlns="http://www.w3.org/2000/svg" viewBox="0 0 60 80"><title>illo-bev-lonely-gal</title><path d="M38.57,16.81a16.09,16.09,0,0,1,1.5-4.68L44,3c.09-.22.23-.47.47-.5a.71.71,0,0,1,.47.18l1.7,1.21a.37.37,0,0,1,.18.21.35.35,0,0,1-.06.22,107.37,107.37,0,0,0-5.44,12.62" fill="#db4949"/><path d="M41.88,15.91a.87.87,0,0,0,.14-.24l.38-.85.21-.46c.08-.18.12-.29.19-.47l.22-.46.25-.6.28-.64c.1-.2.2-.47.29-.63.19-.5.42-1,.63-1.45C45,9,45.51,7.81,46,6.74l.84-1.67.22-.43.11-.23a.67.67,0,0,0,0-.6c-.26-.33-.34-.29-.46-.41l-.35-.24-1-.69a1.66,1.66,0,0,0-.79-.39.85.85,0,0,0-.63.24,1.9,1.9,0,0,0-.27.41c-.36.86-.73,1.73-1,2.43C42.07,6.59,41.47,8,41,9.26c-.13.29-.23.54-.35.82l-.17.44-.34.82-.61,1.54c-.18.49-.32.9-.5,1.43s-.22.92-.26,1.28c0,.19,0,.24-.07.42a3.32,3.32,0,0,0-.08.41c0,.1,0,0,0,.15s-.05.28,0,.24.08-.3.13-.39,0,.18,0,.19a.9.9,0,0,1,.09-.35,17.45,17.45,0,0,1,.64-2c0-.08,0,.05.08-.11.36-.89,1.07-2.42,1.59-3.56a4.6,4.6,0,0,1,.23-.45c.21-.51.44-1,.65-1.44.39-.9.75-1.71,1.14-2.62.2-.46.4-.9.6-1.37L44.45,3a.62.62,0,0,1,.11-.17s0,0,.08,0l.72.49,1.2.8s0-.07,0-.08,0,0,0,.09l-.16.34c-.1.22-.21.44-.31.65l-.19.43-.14.29c-.33.72-.56,1.22-.86,1.89-.12.3-.27.65-.4,1l-.92,2.16c-.44,1.08-.85,2.2-1.29,3.38-.19.51-.35.94-.46,1.33,0,.06.06-.1,0,.07a12.34,12.34,0,0,0-.43,1.24s.07-.1.07,0A10.69,10.69,0,0,0,41.88,15.91Zm.11-.26s0,.09-.06.18A.76.76,0,0,1,42,15.65Z" fill-rule="evenodd"/><path d="M41.36,12.73l0,0H41.2l0,0h0l0,0H41s0,0,0,0,0,0-.08.06l-.19.13a.83.83,0,0,0-.18.13,1.25,1.25,0,0,0-.23.23c0,.07-.13.14-.17.2l0,0v0l0,0a.3.3,0,0,0,0,.1l0,.1A.68.68,0,0,0,40,14s0,0,0,0h0l0,0s0,0,0,0,0,0,.07,0,0,0,0,0,0,0,0,0l.15,0,0,0c.07,0,.15-.07.23-.09h0s.06,0,.09,0l.13-.1.07-.06.13-.18a1.14,1.14,0,0,1,.09-.16v0s0,0,0,0l.07-.11,0-.06.08-.11.12-.2a.1.1,0,0,0,0-.08s0,0,0,0,0,0,0-.07l0-.05S41.38,12.71,41.36,12.73Zm0,0h0Z" fill="#fff" fill-rule="evenodd"/><path d="M42.71,10.27l-.05,0h-.24l-.05,0-.06,0s0,0-.06,0-.07.06-.1.08l-.26.18a1.5,1.5,0,0,0-.25.19,1.78,1.78,0,0,0-.29.32c-.08.1-.17.2-.23.29s0,0,0,.06a.11.11,0,0,0,0,.05l0,.06s0,.09-.05.14a.93.93,0,0,1,0,.13s0,.1,0,.15,0,0,0,0l0,0,0,0s0,0,0,0l.07,0s0,0,0,0h.05a.44.44,0,0,0,.17-.07l0,0c.07,0,.17-.13.26-.18h0s.07,0,.1-.07.1-.1.16-.15L42,11.6c.06-.07.11-.15.17-.23a1.37,1.37,0,0,1,.13-.2.08.08,0,0,0,0,0l0,0s.07-.08.1-.13l0-.07.12-.14c.07-.07.12-.15.19-.23s.06,0,.07-.09,0,0,0,0,.07,0,.07-.08,0,0,0-.05S42.74,10.24,42.71,10.27Zm0,0s0,0,0,0S42.68,10.27,42.68,10.27Z" fill="#fff" fill-rule="evenodd"/><path d="M43.5,8.35l0,0a.12.12,0,0,0-.08,0l0,0h-.18a0,0,0,0,1,0,0s-.06,0-.1.05a1.55,1.55,0,0,0-.22.12,1,1,0,0,0-.22.14,2,2,0,0,0-.24.26,2.79,2.79,0,0,0-.17.25l0,.06s0,0,0,0,0,0,0,0a.43.43,0,0,0,0,.12.41.41,0,0,1,0,.11.78.78,0,0,0,0,.14s0,0,0,0l0,0s0,0,0,0,0,0,0,0,.06,0,.08,0l0,0s0,0,.05,0a.26.26,0,0,0,.14-.06l0,0a1.56,1.56,0,0,1,.19-.13h0s0,0,.07,0a.38.38,0,0,0,.11-.11l.06-.06A1,1,0,0,0,43,9.22l.09-.15a0,0,0,0,0,0,0l0,0,.07-.09,0-.06.1-.09s.09-.12.15-.17.05,0,.06-.07,0,0,0,0,.06,0,.07-.06,0,0,0,0S43.53,8.33,43.5,8.35Zm0,0s0,0,0,0S43.47,8.34,43.47,8.34Z" fill="#fff" fill-rule="evenodd"/><path d="M44.39,6.55s0,0,0,0l-.06,0,0,0h0l0,0h-.08s0,0,0,0-.05,0-.07,0l-.18.06a.55.55,0,0,0-.18.06,1.35,1.35,0,0,0-.22.14.83.83,0,0,0-.17.15s0,0,0,0v0l0,0,0,.09,0,.08a.66.66,0,0,0,0,.14s0,0,0,0,0,0,0,0,0,0,0,0,0,0,0,0,0,0,.06.06,0,0,0,0,0,0,0,0a.22.22,0,0,0,.13,0s0,0,0,0l.19,0,0,0s0,0,.07,0a.6.6,0,0,0,.11-.06l.06,0L44,7.27l.1-.12s0,0,0,0h0l.08-.07,0,0a.5.5,0,0,0,.08-.07,1.54,1.54,0,0,0,.13-.12.13.13,0,0,0,.05-.07v0s0,0,.05,0,0,0,0-.06S44.42,6.54,44.39,6.55Zm0,0s0,0,0,0S44.37,6.54,44.37,6.54Z" fill="#fff" fill-rule="evenodd"/><path d="M45.34,4.36l0,0-.06,0,0,0h0l0,0h-.08s0,0,0,0-.05,0-.08,0l-.21,0-.19.06a2.13,2.13,0,0,0-.25.16c-.06.06-.14.11-.19.17l0,0s0,0,0,0l0,0a.25.25,0,0,0,0,.09L44,5a.69.69,0,0,0,0,.13s0,0,0,0h0s0,0,0,0,0,0,0,0l.07,0,0,0s0,0,0,0a.31.31,0,0,0,.13,0s0,0,0,0a1.29,1.29,0,0,1,.19,0h0s0,0,.07,0a.6.6,0,0,0,.11-.06l0,0,.12-.12.1-.11a0,0,0,0,0,0,0h0L45,4.85l0,0,.1-.06s.09-.09.15-.12a.08.08,0,0,0,0,0s0,0,0,0,0,0,.06,0,0,0,0-.05S45.37,4.35,45.34,4.36Zm0,0s0,0,0,0S45.32,4.35,45.32,4.35Z" fill="#fff" fill-rule="evenodd"/><path d="M10.87,21.18A16.57,16.57,0,0,0,20,30a1,1,0,0,1,.51.34.93.93,0,0,1,.07.55c-.2,2.74.77,5.42,1.85,7.95a16.88,16.88,0,0,0,2.76,4.83A6.6,6.6,0,0,0,30.07,46c2.5-.06,4.57-2,6-4a23.41,23.41,0,0,0,4.41-13c2-.4,4.11-.86,5.62-2.23A9.18,9.18,0,0,0,48,24.15a24.14,24.14,0,0,0,1.49-3.6c.41-1.3.63-2.94-.41-3.83a3.8,3.8,0,0,0-2.35-.65l-6.59-.32a10.29,10.29,0,0,1-2.35-.3c-.86-.25-1.64-.74-2.51-.95-2.34-.59-4.66.79-7,1.36a21.89,21.89,0,0,1-7.27.07,6.83,6.83,0,0,0-2.47,0c-.74.19-1.41.61-2.16.79s-1.46.1-2.18.23a4.28,4.28,0,0,0-3.45,3.82" fill="#fffbae"/><path d="M11.07,20.55c-.14,0-.17-.32-.17-.61s0-.54-.23-.42a4.32,4.32,0,0,1,3.94-2.84A7,7,0,0,0,17,16.47a7.56,7.56,0,0,1,2.36-.66c.89-.07,2.5.24,4.14.33a11.2,11.2,0,0,0,4.29-.41c.16-.06.27-.25.42-.3.49-.17,1.1-.32,1.54-.53a14.35,14.35,0,0,1,3.1-1.4,5.84,5.84,0,0,1,2-.11,6.3,6.3,0,0,1,2,.69,7.63,7.63,0,0,0,1.7.68c.57.14,1.17.21,1.72.29a41.52,41.52,0,0,0,4.21.67c.78,0,1.54.06,2.28.07a4.37,4.37,0,0,1,2.19.4,2.49,2.49,0,0,1,1.15,1.92A6.14,6.14,0,0,1,50,20.3a20.75,20.75,0,0,1-1.7,4.55A7.91,7.91,0,0,1,46.68,27a6.94,6.94,0,0,1-2.53,1.47A13.83,13.83,0,0,1,42,28.9c-.44.08-.93.2-1.4.3l.36-.42c0,.26,0,.49,0,.72a31.19,31.19,0,0,1-1,4.67,25,25,0,0,1-3.92,9,18,18,0,0,1-2.81,2.61,10.13,10.13,0,0,1-3.26.72,6.1,6.1,0,0,1-3.42-1c-.63-.45-.57-.72-.87-1a8.43,8.43,0,0,1-.82-.67,8,8,0,0,1-1-1.06,17.48,17.48,0,0,1-1.35-2.06,39.82,39.82,0,0,1-2.21-4.56,12.6,12.6,0,0,1-1-5c0-.17,0-.34,0-.5a1,1,0,0,1,0-.27.8.8,0,0,0,.23.4c.12.09.12.05,0,0a18.88,18.88,0,0,1-1.92-1c-.33-.2-.6-.49-.8-.61a24.13,24.13,0,0,1-3.21-2.34,12.32,12.32,0,0,1-3.88-5.22c.09-.57.4-.28.79.32s1,1.45,1.49,2.08,1,1,1.55,1.51c1.46,1.49,3.24,3.07,4.71,3.55a7.71,7.71,0,0,0,1,.59c.32.19.86.34.95.51a1.18,1.18,0,0,1,0,.53c0,.24,0,.49,0,.75a12.43,12.43,0,0,0,.16,1.64,15.92,15.92,0,0,0,.69,2.78A17.84,17.84,0,0,0,22.73,39c.57,1,1.17,1.86,1.81,2.77a11.24,11.24,0,0,0,2.36,2.57,5.53,5.53,0,0,0,3.16,1.25A5.75,5.75,0,0,0,33,44a14.66,14.66,0,0,0,3.39-3.57A20.69,20.69,0,0,0,39,34.67a31,31,0,0,0,1-5.91V28.7a.54.54,0,0,1,.46-.49L41.55,28a10.36,10.36,0,0,0,3.35-2,8.27,8.27,0,0,0,2.26-2.6,17.25,17.25,0,0,0,1.57-3.93,3.77,3.77,0,0,0,.06-1.72,1.11,1.11,0,0,0-.82-.85,7,7,0,0,0-1.62-.26c-.63-.06-1.26-.12-1.88-.15-1.56-.08-3.06-.06-4.46,0a10.28,10.28,0,0,1-2.19-.14A8,8,0,0,1,36,15.69c-.43-.2-.76-.39-1.1-.51A2.6,2.6,0,0,0,33.74,15a9.94,9.94,0,0,0-3.28,1.09,10.9,10.9,0,0,1-4.23,1.11,20.75,20.75,0,0,1-3-.31c-.93-.1-2-.1-2.83-.19a5.9,5.9,0,0,0-1.39,0,5.62,5.62,0,0,0-1.36.42,5.46,5.46,0,0,1-1.9.4c-.61,0-1.11,0-1.51,0a3.6,3.6,0,0,0-2,1.08A5.38,5.38,0,0,0,11.07,20.55Z" fill-rule="evenodd"/><path d="M41.12,33.48c.37-1,.74-.93,1.09-1.95-.12,1.36.53-.11.59-.17a10.6,10.6,0,0,1,.09,3.74,41.31,41.31,0,0,1-2.39,5.95A35.59,35.59,0,0,1,38,45.71a14.89,14.89,0,0,1-3.75,4.15l.32-.62c0,1.62,0,3.23,0,4.83-.07,4.4.08,9.58.12,14.33l-.29-.52.4.26c1.22.84,2.32,1.76,3.53,2.61,2.26,1.6,4.84,3.3,7.22,4.86a.43.43,0,0,1,.12.58.49.49,0,0,1-.32.19l-1.17.1a92.91,92.91,0,0,1-13.54.18h.09a96.55,96.55,0,0,1-14.71.18.51.51,0,0,1-.49-.53.52.52,0,0,1,.22-.39l3.67-2.59C20,73,20.66,72.39,21.22,72c1-.66,2-1.19,3-1.89L27,68.21l-.15.29c-.08-4.33-.28-8.88-.18-12.85a9.46,9.46,0,0,1,.17-2.19,25.22,25.22,0,0,1-.12-4.11h0c.05.08-.1-.2.11.19h0l0,0-.06,0-.11-.08-.23-.17-.46-.34a7,7,0,0,1-.87-.77,14.86,14.86,0,0,1-1.56-1.72,15.12,15.12,0,0,1-2-3.46c-1.78-2.35-3.26-6.58-4.28-11.13l.22.23a19.64,19.64,0,0,1-4.19-1.93,13.6,13.6,0,0,1-4.73-4.71,15.78,15.78,0,0,1-2.06-5.45.34.34,0,0,1,.29-.4h.07l4.15-.12c2.63-.09,5.21,0,7.13-.09.72,0,2,0,2.18-.29,3.86.21,7.82-.07,12.61-.17,3.5-.07,7.33,0,10.69-.07,3.08-.08,6.41-.25,9.31-.39h.38a.88.88,0,0,1,.93.84.49.49,0,0,1,0,.12v0a16.75,16.75,0,0,1-2,6.32,14.27,14.27,0,0,1-3.21,4A9,9,0,0,1,45,31.65c-2.26.1-2.68.11-1-1.47a18.83,18.83,0,0,0,3.52-2.29c.33-.24.66-.51,1-.8a6.36,6.36,0,0,0,.94-.93A12.58,12.58,0,0,0,51.25,23a13.67,13.67,0,0,0,1.12-3.81l.87.93-7.78.08c-10,.09-20.94-.19-32.33,0l-6.35.09.43-.49a14.53,14.53,0,0,0,3.5,7.25,15.11,15.11,0,0,0,6.88,4.28.36.36,0,0,1,.25.27c.28,1.18.62,2.35,1,3.5a42.49,42.49,0,0,0,3.25,7.62,17.67,17.67,0,0,0,5.12,6.14l0,0a.53.53,0,0,1,.23.42v2.75c0,5.22.07,10.07.09,16.41h0a.37.37,0,0,1-.16.31l-.7.48c-3.38,2.34-6.87,4.77-10.41,7.28L16.12,76c1.11.07,2.28.11,3.45.13a96,96,0,0,0,11.14-.28h0a42.37,42.37,0,0,0,9.32-.26,2.13,2.13,0,0,0,1.38.14l3.86-.34-.24,1c-2.9-1.92-5.81-4-8.81-5.94l-2.46-1.6a.56.56,0,0,1-.25-.42v0c-.09-2.85-.18-5.73-.26-8.56-.09-3.66-.3-7.18-.45-10.59a.88.88,0,0,1,.3-.72l.14-.13c.35-.32.72-.61,1.06-.93s.65-.69.95-1.06a20.31,20.31,0,0,0,2.54-4.22c.23-.51.6-1.16.78-1.67.32-.78.43-1.52.72-2.29a21.15,21.15,0,0,0,1.45-4.3C40.94,34.54,41.14,34.06,41.12,33.48Z" fill-rule="evenodd"/><path d="M31.5,46.22a.38.38,0,0,0,.34,0,4.82,4.82,0,0,0,.74-.5,5.08,5.08,0,0,0,.43-.27c.12-.1.2-.25.32-.35s.3-.2.4-.3.24-.33.38-.48.32-.31.46-.49.25-.42.45-.49A7.68,7.68,0,0,1,35.81,42a32.45,32.45,0,0,0,1.61-3.16,21.35,21.35,0,0,0,1.22-3.31,23,23,0,0,0,.48-2.4c.06-.45.13-.89.16-1.32s.07-.91.06-1.07v-.08l-.26-.07-.27-.1a1.13,1.13,0,0,1-.25-.14,1.65,1.65,0,0,1,.26.26c.07.08.16.18.27.33h0l.12-.09.41-.25c.55-.34,1.13-.68,1.65-1.05.24-.18.51-.32.71-.5s.2-.26.32-.37.49-.38.69-.59a6.29,6.29,0,0,0,1-1.42,9.77,9.77,0,0,0,.61-1.48,3.6,3.6,0,0,0-.16-1.41c.05-.19,0-.24,0-.41a1.14,1.14,0,0,0,.06-.39c0-.1-.17-.05-.2-.14s0-.26-.07-.21-.23.29-.36.36-.12-.14-.24-.15c0,.2-.07.17-.17.27a12,12,0,0,1-.82,1.28c0,.05-.17-.11-.2,0a5.87,5.87,0,0,1-2.16,1.7.73.73,0,0,1-.4.09,6,6,0,0,1-1.18.54,12,12,0,0,0-1.12.58,7.2,7.2,0,0,0-.71.42,3.33,3.33,0,0,0-.57.49,3,3,0,0,0-.53.77,4.13,4.13,0,0,0-.38,1.29c0,.23,0,.45-.07.69-.07,1-.17,2-.28,3a18.45,18.45,0,0,1-.42,2.49c-.05.22,0,.26-.05.41a2.68,2.68,0,0,1-.07.27c-.14.63-.34,1.09-.52,1.67-.1.28-.15.58-.25.86-.24.63-.54,1.24-.83,1.84a24.12,24.12,0,0,1-1.46,2.79,4.3,4.3,0,0,0-.61,1.09c0,.06.17,0,.12.17-.27.38-.57.52-.66,1,.12.09.18,0,.24.18C30.86,46.53,31.16,46.6,31.5,46.22Zm.22-.15c.05.09-.09,0-.12.13S31.69,46.08,31.72,46.07Z" fill-rule="evenodd"/><path d="M33.32,49.73c0-.11,0-.17.07-.22a1.48,1.48,0,0,0,0-.26l0-.18s0,0,0,0,0-.12,0-.14,0,0,0-.06V48.7s0,0,0-.12c-.07.07-.06,0-.08-.07s-.14-.09-.19-.18a.35.35,0,0,0-.18-.18.7.7,0,0,0-.37,0c-.13.06-.22,0-.34.1s0,0-.07,0l-.07.1s0,0-.08,0a1.58,1.58,0,0,0-.19.22,2.33,2.33,0,0,1-.19.22c-.1.2-.18.3-.29.54,0,0-.05.08-.06.07s0-.06,0,0a1.54,1.54,0,0,0-.08.19s0-.06,0,0-.07.24-.11.36-.05.1-.09.21,0,.07,0,.17a1.46,1.46,0,0,0,0,.46s-.07.18-.05.16c0,.15.09.25.1.44a.58.58,0,0,1,0,.15s0,.11,0,.15.1.07.17.09.05,0,.09,0a.88.88,0,0,0,.31-.17c.1-.08.21-.17.29-.22s0-.05.06-.08h0c.08-.07.11-.06.18-.11l.11-.11a1.86,1.86,0,0,1,.2-.1c.1,0,.24-.2.34-.26s.08,0,.16-.16a1.26,1.26,0,0,1,.08-.18s0,.1.13-.11,0-.13.1-.28S33.35,49.74,33.32,49.73Zm0-.07c0-.09,0,0,0,0S33.32,49.67,33.33,49.66Z" fill-rule="evenodd"/><path d="M28.5,50.12a1.42,1.42,0,0,0,0-.24,1.15,1.15,0,0,0-.06-.25c0-.05,0-.15,0-.18s0,0-.05,0a.46.46,0,0,0-.05-.14s0,0-.06-.05l-.07-.11s0,0-.07-.1c0,.09-.1,0-.16,0s-.24,0-.37,0a.61.61,0,0,0-.38,0,.82.82,0,0,0-.38.36c-.08.16-.2.25-.24.41s0,0,0,.09,0,.09,0,.12,0,0,0,.09a1.07,1.07,0,0,0,.08.29c0,.1.09.2.11.27a5,5,0,0,0,.38.48s.06.07.06.08-.06,0-.05,0l.15.14s-.05,0,0,.05l.29.23.17.16s.06,0,.14.11l.34.28.12.12a2.11,2.11,0,0,1,.23.3l.08.11s0,.09.06.12,0,0,0,0,0,0,0,0a.79.79,0,0,1-.15-.22,1.83,1.83,0,0,1-.11-.29l0-.09v0a.5.5,0,0,1,0-.16l0-.14a.4.4,0,0,1,0-.16,1.57,1.57,0,0,1,.05-.37,1,1,0,0,0,0-.21,1.56,1.56,0,0,1,0-.2s0,.08.06-.14,0-.14,0-.3S28.54,50.12,28.5,50.12Zm0-.07c0-.1,0,0,0,0S28.49,50.06,28.49,50.05Z" fill-rule="evenodd"/><path d="M29,69.55s0-.08.05-.14,0-.31,0-.5,0-.18,0-.27v-.27c0-.1,0-.19,0-.27s0-.24,0-.35,0-.25,0-.37a2.05,2.05,0,0,1,0-.37c0-.29,0-.57,0-.85,0-.68,0-1.35,0-2s0-1.4,0-2c0-.75,0-2,0-2.77s0-1.66,0-2.37c0-.16,0-.33,0-.47l0-.25c0-.17,0-.33,0-.48s0-.59-.05-.88,0-.5-.06-.8-.07-.5-.12-.68,0-.13,0-.23,0-.12,0-.22,0,0,0-.08,0-.15,0-.13-.05.17-.08.22,0-.1,0-.11a.4.4,0,0,1,0,.2c0,.36-.08.83-.09,1.14,0,.05,0,0,0,.07,0,.52,0,1.42-.07,2.09a1.85,1.85,0,0,1,0,.27c0,.29,0,.57,0,.84,0,.51,0,1,0,1.52,0,.27,0,.53,0,.8,0,.65,0,1.31.05,1.95s.05,1.1.06,1.6c0,.14,0,.15,0,.25a1,1,0,0,1,0,.17c0,.4,0,.72,0,1.1l0,.55,0,1.25c0,.62.06,1.26.07,1.93a5.43,5.43,0,0,0,.05.75s0-.06,0,0a3.94,3.94,0,0,0,0,.7s0-.07.06,0A2.8,2.8,0,0,0,29,69.55Zm0-.15s0,0,0,.1S29,69.42,29,69.4Z" fill-rule="evenodd"/><path d="M32.07,66.06s0-.07,0-.12a2.3,2.3,0,0,0,0-.4c0-.07,0-.15,0-.22s0-.15,0-.22l0-.23a2.72,2.72,0,0,1,0-.28c0-.1,0-.2,0-.3a1.51,1.51,0,0,1,0-.31,5.3,5.3,0,0,1,0-.69c0-.55,0-1.09,0-1.62s0-1.13,0-1.6,0-1.61,0-2.26,0-1.36,0-1.93c0-.13,0-.27,0-.39s0-.13,0-.2,0-.27,0-.39l-.06-.71c0-.23,0-.42,0-.66S32,53.13,32,53a3.25,3.25,0,0,1,0-.36s0,0,0-.07,0-.12,0-.1-.05.13-.07.18,0-.08-.05-.09a.28.28,0,0,1,0,.16,8.31,8.31,0,0,0-.09.93s0,0,0,.06c0,.42,0,1.16-.07,1.7a1.3,1.3,0,0,1,0,.22c0,.24,0,.46,0,.69,0,.41,0,.81,0,1.24v.65c0,.53,0,1.07.06,1.58s0,.9.06,1.31a1,1,0,0,0,0,.2v.15c0,.32,0,.58,0,.89,0,.15,0,.3,0,.45,0,.34,0,.68,0,1,0,.5.06,1,.08,1.57a5.35,5.35,0,0,0,0,.61s0,0,0,0a2.68,2.68,0,0,0,0,.58s0-.06.06,0A2.51,2.51,0,0,0,32.07,66.06Zm0-.12s0,0,0,.08S32.08,66,32.08,65.94Z" fill-rule="evenodd"/><path d="M22.76,74.29s0,0,.08,0l.15-.17.1-.08.08-.1.09-.08.1-.12.11-.12s.07-.1.12-.12a1.68,1.68,0,0,1,.24-.29c.2-.22.4-.45.61-.64s.46-.41.66-.57.68-.55,1-.76.63-.41.89-.57a.85.85,0,0,0,.19-.1l.09-.07.19-.1a3.79,3.79,0,0,0,.34-.2l.32-.18c.08-.08.19-.14.26-.21s.05,0,.09,0l.1,0s0,0,0,0,.06,0,.05,0-.09,0-.12,0,0,0,0-.06-.05,0-.09,0a2.8,2.8,0,0,0-.54.08s0,0,0,0c-.24.06-.65.21-.94.32l-.13,0c-.13.07-.26.1-.38.16a6.74,6.74,0,0,0-.63.36l-.32.21a8.32,8.32,0,0,0-.71.6c-.19.18-.37.38-.53.55l-.08.09-.05.07c-.12.15-.23.25-.34.39l-.16.21c-.12.15-.23.32-.35.47s-.31.5-.47.78a1,1,0,0,0-.15.31s0,0,0,0-.13.17-.14.29,0,0,.06,0S22.69,74.4,22.76,74.29Zm0-.05s0,0,0,0S22.8,74.24,22.81,74.24Z" fill-rule="evenodd"/><path d="M40.71,75.48s0-.1,0-.14a1.65,1.65,0,0,0-.21-.27s-.07-.12-.11-.16a.88.88,0,0,0-.15-.12c0-.05-.07-.11-.11-.15l-.19-.15-.18-.18c-.07,0-.16-.1-.19-.17a4,4,0,0,1-.48-.32c-.38-.27-.77-.5-1.13-.74s-.81-.51-1.15-.69-1.2-.6-1.71-.8A9.59,9.59,0,0,1,33.81,71c-.06,0-.09-.08-.13-.11s-.06,0-.08,0a.41.41,0,0,1-.07-.15,1.84,1.84,0,0,1-.13-.43,3.92,3.92,0,0,1-.06-.52,2.52,2.52,0,0,0-.22-.5c0-.07,0-.09,0-.15s0-.09,0-.16-.07,0-.09,0,0-.1,0-.08-.08.13-.12.17-.06,0-.1,0,0,.07-.06.12c-.06.21-.15.47-.19.67,0,0-.08,0-.07,0a4.06,4.06,0,0,0-.12.73,2.36,2.36,0,0,0,.2,1,1.5,1.5,0,0,1,.12.27,3.88,3.88,0,0,0,.6.57,5.94,5.94,0,0,0,1,.49l.47.23c.39.17.79.33,1.18.48s.68.26,1,.4a.71.71,0,0,0,.16,0l.11,0c.24.1.42.2.65.31l.34.14c.25.11.49.25.73.38s.76.37,1.14.59a2.13,2.13,0,0,0,.46.22s0-.07.06-.06.23.21.41.23,0-.07.06-.11S40.88,75.59,40.71,75.48Zm-.06-.09s0,0,.05,0S40.66,75.4,40.65,75.39Z" fill-rule="evenodd"/><path d="M49,20.7a1.35,1.35,0,0,0-.34-.05l-1.18,0-.64,0h-.65l-.64,0h-.83l-.88,0c-.29,0-.66,0-.89,0-.68,0-1.35,0-2,0-1.62,0-3.2,0-4.73,0l-4.68,0-6.58,0-5.63,0H18.19l-.6,0H16.46l-2.08,0-1.91.05c-.5.05-1.18.07-1.63.12l-.54,0H9.77c-.13,0-.06,0-.18,0s-.36,0-.3,0,.39.05.51.08c0,0-.23,0-.25,0A2.15,2.15,0,0,1,10,21c.86.05,2,.08,2.7.09.12,0,0,0,.17,0,1.24,0,3.38,0,5,.08a6,6,0,0,1,.65,0c.7,0,1.35,0,2,0,1.21,0,2.36,0,3.62,0H26l4.63-.05,3.81-.06c.32,0,.37,0,.59,0h.42l2.61,0,1.31,0,3,0c1.48,0,3-.05,4.58-.06.68,0,1.26,0,1.79,0,.07,0-.16,0,.06,0,.67,0,1.11,0,1.67,0,0,0-.16,0-.05-.06C49.91,20.76,49.72,20.7,49,20.7Zm-.35,0a.9.9,0,0,1,.24,0Z" fill="#fff" fill-rule="evenodd"/></svg>