<?xml version="1.0" encoding="utf-8"?>
<!-- Generator: Adobe Illustrator 23.0.1, SVG Export Plug-In . SVG Version: 6.00 Build 0)  -->
<svg version="1.1" id="Layer_1" xmlns="http://www.w3.org/2000/svg" xmlns:xlink="http://www.w3.org/1999/xlink" x="0px" y="0px"
	 viewBox="0 0 130 126" style="enable-background:new 0 0 130 126;" xml:space="preserve">
<style type="text/css">
	.st0{fill:#FFFFFF;}
	.st1{fill-rule:evenodd;clip-rule:evenodd;}
	.st2{fill:#EDE7CE;}
	.st3{fill:#D3CCAE;}
	.st4{fill:#FCFAF2;}
	.st5{fill-rule:evenodd;clip-rule:evenodd;fill:#30A565;}
</style>
<path d="M32.2,94.2c-4.7-1.2-9.4-2.1-14.2-2.7c-2-0.2-4.5,1.7-4.9,3.7c-0.8,4.4-1.4,8.9,0.8,12.9c2,3.4,4.7,6.3,8,8.4
	c6.9,4.3,17.8,4.1,21.2-4c1.1-2.6-1.2-5.6-3.5-6.2c-2.9-0.8-5.2,1-6.2,3.5c0.9-0.9,0.5-1.2-1-0.8c-1-0.1-1.9-0.2-2.8-0.4
	c-1.4-0.3-2.6-1-3.6-2c-3-2.8-3.7-4.7-3-8.8l-5,3.7c3.9,0.5,7.7,1.3,11.5,2.4C35.8,105.7,38.5,95.9,32.2,94.2L32.2,94.2z"/>
<path d="M53.8,90.7c-6,0.4-11.1-3.8-17.1-3.8c-4.7-0.2-9.1,2.2-11.4,6.3c-5,9.5,3.9,19.5,11.7,23.8c9.4,5.1,21.8,7.4,32.3,7.3
	c13-0.1,24.4-6.2,35.4-12.5l-7.4-5.7c-0.4,2.1-5.5,4-7.1,4.7c-2.5,1-5.2,1.7-7.8,2.1c-5.4,0.8-11,0.5-16.3-0.8
	c-5.4-1.3-10.7-3.4-15.6-6c-4.7-2.5-10.4-5.1-13-10l-3,7.4c3.5-0.6,6.3,1.1,8.5,3.6c4.2,5,11.3-2.2,7.2-7.2
	c-4.6-5.5-11.4-7.4-18.3-6.2c-3.4,0.6-4.4,4.8-3,7.4c3.3,6.6,10.2,10.4,16.6,13.7c7.2,3.9,15,6.6,23.1,7.9c7.4,1.2,15,0.7,22.2-1.4
	c5.9-1.9,15.2-5.7,16.5-12.5c0.8-4.2-3.4-8-7.4-5.7c-7.8,4.4-15.7,9.1-24.6,10.7c-8,1.4-16.6-0.2-24.3-2.3
	c-5.6-1.5-15.2-4.7-16.4-11.4c-0.8-4.3,3.9-3,6.5-2.1c4.4,1.4,8.2,3.3,13,2.9C60.2,100.4,60.3,90.2,53.8,90.7L53.8,90.7z"/>
<path class="st0" d="M30.5,95.1c-3-0.7-4.9-3.7-6-6.6c-2.1-5.9-2.1-12.4-1.7-18.7c0-1.4,0.3-2.7,0.7-4c0.5-1.3,1.5-2.3,2.9-2.7
	c0.9-0.1,1.8-0.1,2.6,0.1c2.4,0.5,6.4,1.9,9.2,2.6L38,63.3c-2.5-0.9-5.4-1.8-7.8-2.7c-3-1.1-6.5-1.6-9.1,0.2c-2,1.4-2.7,4.2-2.9,6.6
	c-0.7,7.2,0.4,14.4,1.6,21.5c0.3,2.1,0.7,4.2,2,5.9c2.3,2.9,6.4,3.2,10.1,3.3c1.1,0.1,2.3,0,3.3-0.4c2.1-0.7,3.9-2.2,4.8-4.2
	l-0.2-2.8C37.3,93.3,34,95.9,30.5,95.1z"/>
<path class="st1" d="M39.8,93.4c0.1,0.1-0.2,0.4-0.3,0.7c-0.1,0.4,0.4,0,0.2,0.4c-0.7,1.1-1.6,2.1-2.7,2.8c-0.4,0.3,0.4-0.2,0.1,0.1
	c-0.8,0.5-1.7,0.8-2.6,1c-1.5,0.3-3,0.4-4.4,0.2c0,0.2,0.4,0.1,0.6,0.1c-2.4,0.1-4.8-0.4-7-1.4c-1.2-0.6-2.1-1.5-2.9-2.6
	c-0.7-1.1-1.1-2.3-1.4-3.6c-0.1-0.6-0.2-1.2-0.2-1.7s-0.4-1.2-0.5-1.9c-0.2-1.2-0.3-2.5-0.5-3.8c-0.3-2.3-0.8-4.7-1-7.1
	c-0.1-1.4-0.1-2.7-0.2-3.9c0-0.2,0-0.4,0-0.6c0-0.1-0.1-0.2-0.1-0.3c0-0.2,0.2-0.4,0.2-0.6c0-0.5-0.1-1.4,0-2.1
	c0.1-0.9,0.3-1.8,0.5-3c0.2-1.2,0.5-2.3,1-3.4c0.5-1.1,1.3-2.1,2.3-2.8c1.4-1,3.2-1.5,4.9-1.4c2.4,0.1,4.6,1.1,6.5,1.6
	c0.7,0.2,1.5,0.3,2.2,0.5c0.7,0.4,1.4,0.7,2.2,0.9c0.4,0.4,0.9,0.7,1.5,0.7c-0.2,0.5-0.9,0.1-1.4,0.2c-0.3,0.1-0.7,0.2-1,0.2
	c-1.5-0.4-2.7-0.7-4.2-1c-0.8-0.2-1.6-0.4-2.4-0.8c-0.3-0.1-0.6-0.1-0.9-0.2c-1-0.3-2-0.5-3-0.6c-0.5,0-1.1,0.1-1.6,0.3
	c-0.3,0-0.6,0.1-0.9,0.2c-0.1,0.1-0.2,0.2-0.3,0.3c-0.4,0.2-0.8,0.4-1.1,0.6c-0.3,0.3-0.6,0.7-0.8,1.2c-0.5,0.9-0.9,1.8-1.2,2.8
	c-0.2,1.2-0.4,2.4-0.4,3.7c-0.1,1.3-0.1,2.6-0.1,3.9c0.2,4,0.6,8,1.5,12c0.2,1.3,0.4,2.7,0.6,4c0.2,1.5,0.7,2.9,1.4,4.2
	c0.8,1.2,2,2.2,3.4,2.6c2,0.6,4,0.8,6.1,0.9c1,0.1,1.9,0.1,2.9-0.1c0.9-0.2,1.8-0.5,2.5-1C38.4,95.2,39,94.1,39.8,93.4z"/>
<path class="st1" d="M39.8,90.3c0.1,0.1-0.3,0.3-0.4,0.5s0.4,0.1,0.1,0.4c-0.8,0.7-1.5,1.5-2.3,2.2c-0.3,0.3,0.3-0.2,0.1,0.1
	c-0.6,0.5-1.2,0.9-1.9,1.2c-0.5,0.3-1,0.6-1.6,0.8c-0.6,0.2-1.3,0.3-2,0.3c0,0.2,0.4,0,0.5,0.1c-1,0.1-2-0.1-3-0.4
	c-1-0.4-1.8-1-2.6-1.8c-1.4-1.5-2.4-3.3-3-5.3c-0.1-0.4-0.2-0.9-0.4-1.4s-0.4-1-0.6-1.5c-0.2-1-0.4-2.1-0.5-3.2
	c-0.3-1.9-0.6-3.9-0.6-5.9v-3.2c0-0.2,0-0.3,0-0.5c0-0.1-0.1-0.1-0.1-0.2c0-0.1,0.2-0.3,0.2-0.5c0-0.4-0.1-1.2,0-1.7
	c0.1-0.7,0.2-1.5,0.4-2.5c0.1-1,0.4-2,0.8-2.8c0.5-0.9,1.1-1.7,2-2.3c0.7-0.4,1.5-0.7,2.2-0.7c0.7,0,1.3,0.1,2,0.2
	c1.9,0.4,3.6,1,5.2,1.4c0.6,0.1,1.3,0.2,1.8,0.3c0.6,0.2,1.1,0.7,1.8,0.6c0.3,0.4,0.8,0.5,1.2,0.5c-0.1,0.5-0.7,0.3-1.1,0.4
	c-0.3,0.2-0.6,0.3-0.9,0.4c-1.2-0.3-2.2-0.5-3.5-0.7c-0.7-0.1-1.4-0.3-2-0.6c-0.3-0.1-0.5,0-0.8-0.1c-0.8-0.2-1.6-0.6-2.5-0.8
	c-0.5,0-0.9,0-1.4,0c-0.2,0-0.5,0-0.7,0c-0.1,0-0.2,0.2-0.2,0.2c-0.3,0.1-0.6,0.2-0.8,0.4c-0.2,0.3-0.5,0.6-0.6,0.9
	c-0.5,0.7-0.8,1.4-1,2.2c-0.2,1-0.3,2-0.3,3c0,1.1-0.1,2.1-0.1,3.2c-0.1,3.3,0.2,6.6,0.9,9.8c0.2,1.1,0.4,2.1,0.8,3.1
	c0.4,1.2,0.9,2.4,1.4,3.5c0.6,1.1,1.4,2.1,2.4,2.8c1.2,0.9,2.7,1.3,4.2,1c1.5-0.3,3-1,4.2-1.9C38.1,91.4,38.9,90.8,39.8,90.3z"/>
<path class="st0" d="M36.8,56.2c0.6,1.7,3.4,14.1,3.4,14.1s-0.7,33.3,0.7,35.6c5.5,9.2,17,12.8,32.2,12.7
	c19.2-0.2,30.8-6.7,34.1-13.7c0.7-1.6-1.7-36.2-1.7-36.2l2-12.3"/>
<path class="st1" d="M36.1,61.3c-0.3-1.7-0.1-3.4,0.5-5c0.3,0.4,0.9,0.5,1.3,0.2c0.4,0.8,0.8,0.8,1.2,1.5c0.2,0.7,0.3,1.4,0.3,2.1
	c1.1,3.2,1.9,6.6,2.5,9.9v0.4c-0.1,2.4-0.3,4.7-0.4,6.6c-0.2,4.3-0.1,8.6-0.2,11.9c-0.1,1.4-0.2,3.2-0.2,5.1c0,2.2,0,4.3,0.1,6.5
	c0,1.1,0.1,2.2,0.2,3.3c0,0.5,0.1,1.1,0.2,1.6c0,0.2,0.4,0.8,0.7,1.2c1.2,1.9,2.7,3.6,4.5,4.9c2.9,2,6.1,3.4,9.4,4.3
	c0.6,0.2,1.2,0.3,1.7,0.4s1.1,0.2,1.6,0.3s1.3,0.4,2,0.5c1.9,0.3,3.8,0.6,5.7,0.7c3.5,0.2,7.1,0.2,10.6-0.1c4.1-0.3,8.1-0.9,12-1.9
	c0.7-0.2,0.7-0.5,1.5-0.8c2.8-0.7,5.4-1.8,7.9-3.2c2.5-1.4,4.6-3.5,6.1-5.9c0.2-0.3,0.5-0.8,0.6-1.1v-0.1l1,0.4h-0.1
	c-0.2-0.1-0.3-0.2-0.5-0.2l-0.3-0.1h-0.2c0,0,0,0,0,0.1v-0.3v-0.9c0-0.7-0.1-1.4-0.1-2.1c-0.1-1.5-0.2-3.1-0.3-4.8
	c-0.2-3.3-0.4-6.7-0.6-9.7c-0.4-6.4-0.7-12.7-1.2-17.7v-0.4c0.1-0.5,0.1-0.9,0.2-1.4c0.3-2.4,0.4-5.2,1.3-7.6
	c0.7-1.8,2.3-3.3,2.8-2.9c0.3,0.3,0.4,1.4,0.6,1.8c0,0.1,0.4-0.5,0,0.2c-0.1,2.8-0.5,5.6-1.3,8.3c-0.1,0.2-0.2,1-0.3,2v-0.5v1
	c0,1-0.1,2-0.1,3s0.2,2.1,0.2,3c0.1,3-0.1,5.8-0.1,8.6c0,2.2,0.2,4.7,0.3,7c0.1,2.5,0.2,5.1,0.3,7.6c0,1.3,0.1,2.6,0,3.9
	c0,0.7,0,1.4-0.1,2.1c0,0.1-0.1,0.2-0.1,0.4l-0.1,0.2l-0.2,0.4c-0.2,0.3-0.3,0.6-0.5,0.9c-1.2,1.8-2.7,3.4-4.4,4.8
	c-2.9,1.9-6,3.4-9.2,4.4c-3.3,1.1-6.7,1.8-10.2,2.3c-1.4,0.2-2.6,0.5-4,0.6h-3c-2.5,0.1-5.1,0-8.4-0.1l-2.4-0.1
	c-0.8-0.1-1.8-0.2-2.8-0.3c-2-0.3-4.1-0.7-6-1.2c-1-0.2-2-0.6-3-0.9s-2-0.8-2.9-1.2c-4-1.8-7.3-4.8-9.7-8.5
	c-0.1-0.2-0.2-0.3-0.2-0.5c-0.1-0.2-0.1-0.3-0.1-0.5c0-0.3-0.1-0.6-0.1-0.9c0-0.5-0.1-1.1-0.1-1.6c-0.1-1-0.2-2.1-0.5-3.1
	c0-2.3-0.2-4.4-0.3-6.6c-0.1-3.7-0.1-7.4-0.2-10.8c0-0.3-0.1-0.7-0.1-1c0-1.1,0.1-2.4,0.1-3.5S38.8,76,38.8,75v-4.8v0.3
	c-0.4-1.7-0.9-3.5-1.3-5.1C37.1,64.2,36.6,62.7,36.1,61.3z"/>
<path class="st0" d="M34.6,49.6c-5.5,8.5,6,15,10,17.8s9,4.1,13.8,4.8c13.1,2,26.3,1.1,38.3-4.1c3.4-1.4,8.3-6,10-7.8
	c4.8-5.1,2.8-11.8-1.3-16.6"/>
<path class="st1" d="M107.8,45.6c1.2-0.8,1.1,0.2,1.4,0.5c0.1,0.2,0.6,0.3,0.8,0.5s0,0.6,0.4,0.7c1,3.4,0.8,7.1-0.8,10.2
	c-0.3,0.7-0.6,1.4-1.1,2c-0.3,0.6-0.6,1.1-0.9,1.8c-0.2,0.2-0.5,0.4-0.6,0.6s-0.3,0.5-0.5,0.7s-0.4,0.3-0.5,0.5s-0.3,0.6-0.5,0.8
	s-0.4,0.3-0.6,0.5c-0.5,0.5-1.9,0.8-2.4,1.7c-0.4-0.2-0.8-0.5-1.2-0.7c0.1-0.6,0.5-1.2,1.1-1.4c0.5-0.3,1-0.7,1.3-1.2
	c0.6,0,0.7-0.6,1.1-1s1.1-1,1-1.7c0.4-0.1,0.3-0.5,0.5-0.8s0.3-0.2,0.4-0.4s0.2-0.7,0.3-1s0.4-0.3,0.5-0.5s0-0.7,0.2-1
	s0.4-0.5,0.5-0.9c0-0.2-0.1-0.4-0.1-0.5c0.1-0.6,0.4-1.2,0.4-1.8c0-0.2-0.1-0.3,0-0.5s0.3-0.6,0.3-0.9s-0.2-0.8-0.2-1.3v-0.8
	c0-0.3-0.1-0.5-0.1-0.8s-0.3-0.6-0.3-0.9s-0.1-0.7-0.3-1.1C107.9,46.5,107.7,46.1,107.8,45.6L107.8,45.6z M44.7,67.3
	c-0.9,1.1-1.1,0.2-1.5,0c-0.2-0.1-0.6,0-0.9-0.1s-0.3-0.5-0.6-0.4c-1.3-1.2-2.6-2.3-3.8-3.5c-1.2-1.1-2.2-2.4-3.1-3.7l-0.6-1
	c-0.2-0.3-0.4-0.7-0.4-1.1c-0.1-0.3-0.2-0.6-0.4-0.9c-0.2-0.3-0.3-0.6-0.4-1c-0.1-0.3-0.1-0.7,0-1c0-0.3-0.1-0.6-0.1-0.9
	c0-0.3,0-0.5,0.1-0.8c0.1-0.3-0.1-0.7,0-1c0.1-0.3,0.1-0.5,0.2-0.8c0.2-0.5,0.4-0.9,0.7-1.3c0.3-0.4,0.6-0.9,0.7-1.4
	c0.4,0,0.9,0.1,1.3,0.1c0.2,0.6,0,1.3-0.4,1.8c-0.2,0.5-0.6,1.1-0.5,1.6c-0.4,0.3-0.2,0.9-0.3,1.4c0,0.7-0.2,1.4,0.5,1.8
	c-0.2,0.4,0.1,0.6,0.3,0.8s0,0.4,0.1,0.5c0.2,0.3,0.4,0.6,0.6,0.9c0.1,0.2,0,0.5,0.1,0.7s0.5,0.4,0.7,0.7s0.2,0.7,0.4,0.9
	s0.4,0.1,0.5,0.2c0.5,0.4,0.8,1,1.2,1.4c0.1,0.1,0.3,0.2,0.4,0.3s0.3,0.6,0.5,0.8s0.8,0.5,1.2,0.8s0.8,0.8,1.2,1.4
	c0.2,0.2,0.7,0.4,0.8,0.7C43.5,65.9,44.6,66.2,44.7,67.3z"/>
<path class="st2" d="M106.7,52.3c0.2-3.6-3.3-6.4-7.2-8.6s-8.7-3.3-13.4-4c-12.7-1.8-25.2-1.5-36.9,2.1c-3.1,0.9-6,2.2-8.7,4
	c-1.5,1-5.4,5-5.9,6.5c0,0,5.3,15.4,36.3,15.4S106.7,52.3,106.7,52.3z"/>
<path class="st1" d="M51.8,36.8c0.5,0.1,1,0,1.5-0.1c1.4-0.2,3-0.4,4.9-0.6c0.9-0.1,1.8-0.1,2.7-0.2s1.8-0.2,2.7-0.3
	c0.9-0.1,1.9-0.1,2.7-0.1c1.1-0.1,2.3-0.2,3.5-0.2h1.7h-0.3l2,0.3c1.2,0.2,2.8,0.3,3.7,0.5c2.9,0.2,5.7,0.7,8.4,1.1
	c3.3,0.5,6.5,1.2,9.7,2.1c2.9,0.8,5.7,2.1,8.2,3.9c1,0.8,1.8,1.8,2.4,2.9c0.5,1.1,0.7,2.4,0.5,3.7c-0.1,0.7-0.3,1.4-0.5,2.1
	l-0.2,0.6l0.6,0.2H106l-0.2-0.1l-0.2-0.1l-0.1-0.1c-0.1,0.2-0.3,0.4-0.4,0.5c-1.1,0.9-2.2,1.8-3.4,2.6c-0.4,0.3-0.8,0.6-1.3,0.9
	l-0.7,0.5l-0.6,0.5c-0.8,0.6-1.7,1.2-2.6,1.8c-2,1.2-4.1,2.2-6.3,2.9c-4.3,1.5-8.8,2.5-13.3,3c-4,0.4-8.1,0.5-12.1,0.1
	c-3.8-0.3-7.5-0.9-11.2-1.7c-1.5-0.4-2.9-0.8-4.4-1.3c-0.8-0.3-1.5-0.5-2.2-0.8c-1.3-0.6-2.6-1.4-3.8-2.3c-2.3-1.6-4.4-3.5-6.1-5.7
	c-1.5-1.8-1.8-4.4-0.8-6.5c0.3-1,0.9-2,1.6-2.8c0.7-0.8,1.5-1.7,2.3-2.4c0.9-0.6,1-0.8,1.8-1.3s1.1-0.6,2-1.1
	c0.5-0.3,0.1-0.3,0.6-0.6s1.3-0.7,1.1-0.7c-0.7,0.2-1.4,0.4-2.2,0.7c0.1-0.2,0.8-0.6,0.8-0.8c-0.6,0.4-1.2,0.6-1.8,0.8
	c-1.9,0.9-3.7,2-5.3,3.3c-1.7,1.3-2.9,3-3.7,5c-0.2,0.6-0.2-0.3-0.4,0.8c-0.5,1.8-0.3,3.8,0.4,5.6c0.8,1.9,2,3.7,3.4,5.1
	c1.4,1.4,2.9,2.8,4.5,4c1.5,1.2,3.2,2.2,5,3.1c1,0.5,2,0.9,2.7,1.2c2.8,0.9,5.7,1.7,8.7,2.3c5.2,1,10.6,1.4,15.9,1.2
	c2.8-0.1,5.6-0.4,8.4-0.9c3.4-0.6,6.8-1.5,10-2.8c3.3-1.2,6.4-2.8,9.2-4.9l0.9-0.7l0.8-0.7c0.5-0.4,1-0.8,1.6-1.2
	c1.2-0.9,2.4-1.8,3.5-2.8c0.7-0.7,1.3-1.5,1.7-2.5c0.2-0.7,0.4-1.4,0.6-2.1c0.3-1.5,0.4-3.1,0.2-4.6c-0.2-1-0.5-2-1-2.9
	c-0.3-0.6-0.7-1.2-1.1-1.8c-1.3-1.6-3-3-4.9-4l-1.3-0.6c-0.4-0.2-0.9-0.4-1.3-0.6l-1.3-0.6l-1.4-0.5c-1.8-0.6-3.7-1.1-5.6-1.4
	c-4.2-0.8-8.4-1.5-12.7-1.9c-2.7-0.3-5.5-0.5-8.3-0.8h-0.2c-3.7,0.3-7.4,0.7-11.2,1.3c-2.5,0.3-5.1,0.9-7.5,1.6
	c-0.3,0.1,0.7,0-0.2,0.3c-2.8,0.7-4.7,1.2-6.7,2.5c0.2,0.1,0.7-0.1,0.3,0.2c0.5-0.2,0.9-0.3,1.3-0.5l1.2-0.3
	c0.4-0.1,0.8-0.2,1.3-0.3L51.8,36.8z M53.2,36.6c-0.2,0.2-0.5,0.1-1,0.2C52.3,36.7,53.1,36.6,53.2,36.6z"/>
<path class="st1" d="M105.4,56.4c-0.3,0.5-0.7,0.9-1.2,1.3c-0.4,0.2-0.8,0.4-1.2,0.5c0-0.5-0.4-0.6-0.7-0.8c0.1-0.4-0.2-0.6-0.1-1
	c0.2-0.5,0.4-0.5,0.6-0.8c0.4-1.2,0.6-2.5,0.7-3.8c0.1-1.2-0.2-2.5-0.8-3.6c-1-1.6-2.5-2.9-4.2-3.8c-0.7-0.5-1.5-0.9-2.3-1.2
	c-2.1-0.9-4.3-1.6-6.5-2.2c-1.2-0.3-2.4-0.6-3.6-0.7c-1.9-0.2-3.7-0.3-5.6-0.5c-0.7-0.1-1.3,0-1.8-0.1c-0.3,0-0.7-0.2-1.1-0.2
	c-1-0.1-2.1-0.2-3-0.2c-4-0.1-8,0-12,0.4c-0.4,0.1-0.4,0.3-0.8,0.4c-3.1,0.2-6.2,0.8-9.2,1.8C52.5,41.9,52.2,42,52,42
	c-1.2,0.5-2.8,1-4.3,1.6c-1.5,0.6-3,1.3-4.5,2.1L42,46.4l-0.5,0.3l-0.3,0.2L41,47c-0.6,0.5-1.1,1.1-1.5,1.7
	c-0.8,1.1-1.4,2.4-1.6,3.7v0.8c0,0.2,0,0.5,0.1,0.7c0.1,0.2,0.1,0.5,0.2,0.7c0.1,0.2,0.1,0.5,0.2,0.7c0,0.2,0,0.4,0,0.7
	c0,0.2,0,0.5,0,0.7c0,0.5-0.1,0.9-0.3,1s-0.9-0.2-1.2-0.2c0,0,0.1,0.4-0.2-0.1c-0.3-0.3-0.6-0.6-0.9-0.9c-0.2-0.4-0.4-0.8-0.6-1.2
	c-0.3-0.9-0.3-1.9-0.1-2.9c0.1-0.6,0.2-1.2,0.4-1.8c0.2-0.5,0.5-1,0.9-1.5c0.3-0.5,0.5-1.1,0.9-1.5c0.5-0.7,1.1-1.2,1.7-1.8l0.5-0.4
	c0.2-0.1,0.4-0.3,0.6-0.3l1-0.5c1.1-0.6,2.2-1.2,3.3-1.7c2.5-1.1,5.1-1.9,7.8-2.5c1-0.3,2.2-0.5,3.2-0.9c3.1-0.4,7.8-1,10.9-1.2
	c0.7-0.1,1.4-0.2,2.1-0.2c0.5,0,1.1,0.1,1.6,0.1l4.4,0.1c0.8,0,1.6,0,2.7,0.1c4.5,0.2,8.9,0.7,13.3,1.6c1.1,0.4,2.2,0.6,3.3,0.6
	c1.2,0.4,2.3,0.7,3.3,1.1c1.8,0.7,3.6,1.7,5.1,2.9c0.1,0.1,0.4,0.2,0.5,0.3c0.5,0.5,0.9,1,1.3,1.5c0.2,0.2,0.4,0.5,0.6,0.7
	c0.2,0.2,0.4,0.5,0.5,0.8c0.4,0.9,0.7,1.8,0.9,2.8c0.1,1,0.1,2.1,0,3.1c0,0.4-0.1,0.9-0.2,1.3C105.7,55.5,105.6,56,105.4,56.4
	L105.4,56.4z M80.2,72.9h0.1c0,0,0.2,0.1,0.3,0.1s0.2-0.1,0.2-0.2c0.1-0.1,0.1-0.2,0.2-0.3c0-0.3-0.4-0.4-0.5-0.3
	c-0.1,0.1-0.2,0.1-0.3,0.2c-0.1,0-0.2,0.1-0.2,0.2C80,72.7,80.1,72.8,80.2,72.9L80.2,72.9z M66.6,77c0.2-0.1,0.4-0.2,0.5-0.3
	l0.1-0.1v-0.1c0,0,0,0,0,0c0.1-0.2,0-0.4-0.2-0.5c-0.2,0.1-0.5,0.2-0.6,0.4c0,0.2,0,0.3,0,0.5C66.6,77,66.6,77,66.6,77z M97.5,102
	l0.1-0.1c0.1-0.1,0.2-0.1,0.3-0.1s0-0.4,0-0.5c-0.3-0.1-0.6,0-0.7,0.3c0,0.1,0,0.2,0,0.3C97.3,101.9,97.4,102,97.5,102z M83.2,106.6
	c0-0.6-0.4-0.9-0.8-0.7c-0.1,0.3,0,0.6,0.3,0.7C82.9,106.8,83.1,106.7,83.2,106.6z M93,73.3c0.2,0.2,0.4,0.4,0.6,0.4
	c0.1-0.1,0.2-0.1,0.2-0.2s0-0.1,0-0.2s-0.1-0.3-0.3-0.3S93,72.9,92.9,73S92.9,73.2,93,73.3z M50.7,72.3v-0.2c-0.1-0.1-0.5-0.3-0.6,0
	C50.2,72.4,50.5,72.5,50.7,72.3z M82.6,96.4h0.1c0,0,0.1-0.1,0.2-0.2s-0.1-0.2-0.1-0.2c-0.2-0.3-0.6-0.3-0.8-0.2c0,0.1,0,0.1,0,0.2
	C82.1,96.2,82.3,96.4,82.6,96.4C82.5,96.4,82.5,96.4,82.6,96.4z M70.6,96.1c0.2,0,0.3-0.1,0.5,0c0.1-0.2,0.1-0.5-0.1-0.6h-0.1
	c0,0-0.2-0.2-0.2-0.1s-0.4,0-0.4,0.3C70.2,95.9,70.4,96.1,70.6,96.1z M78.5,84.3c0.1-0.2-0.1-0.3-0.1-0.6c-0.3-0.1-0.6-0.1-0.8,0.1
	c0,0.1,0,0.3,0,0.4c0.1,0.1,0.1,0,0.2,0s0.2,0.1,0.3,0.1S78.5,84.4,78.5,84.3z M61,85.3L61,85.3c0.1,0,0.1-0.2,0.1-0.2
	c-0.2-0.3-0.6-0.4-0.9-0.2c0,0.1,0,0.2-0.1,0.2c0,0.1,0,0.2,0,0.3c0,0,0.1,0.1,0.1,0.1s0,0.1,0.1,0.1s0.2,0,0.3,0s0.2-0.1,0.2-0.1
	S61,85.3,61,85.3z M101.1,89c0.2,0,0.3-0.1,0.3-0.3c0-0.2-0.1-0.2-0.2-0.3s-0.2-0.1-0.3-0.1c-0.2-0.1-0.5,0-0.6,0.2
	c0,0.1,0,0.1,0,0.2c0,0.1,0.1,0.1,0.1,0.1c0.1,0.1,0.2,0.1,0.3,0.1C100.8,89,100.9,89,101.1,89z M46.5,101.3
	c-0.2-0.3-0.6-0.3-0.9-0.2c-0.1,0.1-0.1,0.3-0.1,0.4c0.3,0.2,0.6,0.3,0.9,0.1C46.5,101.5,46.5,101.4,46.5,101.3z M91,88.8
	c0-0.1,0-0.3-0.1-0.4c-0.2-0.4-1-0.3-0.9,0.2c0.1,0,0.1,0.1,0.2,0.2s0.1,0.1,0.2,0.1S90.8,89.1,91,88.8z M68.5,114.1
	c0-0.1,0-0.3-0.1-0.4c-0.2-0.4-1-0.3-0.9,0.2c0.1,0,0.1,0.1,0.2,0.2s0.1,0.1,0.2,0.1S68.3,114.5,68.5,114.1z M89.9,101
	c0-0.1,0-0.3-0.1-0.4c-0.2-0.4-1-0.3-0.9,0.2c0.1,0,0.1,0.1,0.2,0.2s0.1,0.1,0.2,0.1S89.7,101.4,89.9,101z M95.1,109.9
	c0-0.1,0-0.3-0.1-0.4c-0.2-0.4-0.9-0.3-0.9,0.2c0.1,0,0.1,0.1,0.2,0.2s0.1,0.1,0.2,0.1S94.9,110.2,95.1,109.9z M104.5,103.5
	c0-0.1,0-0.3-0.1-0.4c-0.2-0.4-1-0.3-0.9,0.2c0.1,0,0.1,0.1,0.2,0.2s0.1,0.1,0.2,0.1S104.3,103.8,104.5,103.5z M78,100.2
	c0-0.1,0-0.3-0.1-0.4c-0.2-0.4-1-0.3-0.9,0.2c0.1,0,0.1,0.1,0.2,0.2s0.1,0.1,0.2,0.1S77.9,100.5,78,100.2z M56.3,111.4
	c0-0.1,0-0.3-0.1-0.4c-0.2-0.4-1-0.3-0.9,0.2c0.1,0,0.1,0.1,0.2,0.2s0.1,0.1,0.2,0.1S56.2,111.7,56.3,111.4z M56.5,77.7
	c0-0.1,0-0.3-0.1-0.4s-0.5-0.1-0.8-0.1c0,0.1-0.1,0.1-0.2,0.2s0,0.1,0,0.2c0.1,0.1,0.2,0.2,0.3,0.2H56C56,77.8,56.4,77.9,56.5,77.7z
	 M45.6,83.5c0,0-0.1-0.2-0.1-0.2c-0.3-0.1-0.7-0.1-1,0.1c0,0.1,0,0.2,0,0.3c0.3,0.2,0.7,0.2,1,0.1C45.6,83.6,45.6,83.5,45.6,83.5z
	 M68.2,85.1C68.2,85.1,68.2,85.2,68.2,85.1c0,0.2-0.1,0.2-0.1,0.4l0.4,0.4c0.2,0,0.4,0.2,0.5-0.1c0-0.1-0.1-0.3-0.1-0.4
	C68.8,85.2,68.5,85.1,68.2,85.1z M56.1,93.9C56.1,93.9,56.1,94,56.1,93.9c0,0.2-0.2,0.2-0.1,0.5l0.4,0.4c0.2,0,0.4,0.2,0.5-0.1
	s-0.1-0.2-0.1-0.4C56.6,94,56.3,93.9,56.1,93.9z M65.6,104.9C65.6,104.9,65.6,105,65.6,104.9c0,0.2-0.1,0.2-0.1,0.5l0.4,0.4
	c0.2,0,0.4,0.2,0.5-0.1c0-0.1-0.1-0.3-0.1-0.4C66.2,105,65.9,104.9,65.6,104.9z M77.6,113.5C77.6,113.5,77.6,113.6,77.6,113.5
	c0,0.2-0.1,0.2-0.1,0.4l0.4,0.4c0.2,0,0.4,0.2,0.5-0.1s-0.1-0.3-0.1-0.4C78.2,113.6,77.9,113.4,77.6,113.5z M93.9,94.6
	C93.9,94.6,93.9,94.6,93.9,94.6c0,0.2-0.1,0.2-0.1,0.5s0.3,0.2,0.4,0.4s0.4,0.2,0.5-0.1s-0.1-0.3-0.1-0.4
	C94.5,94.6,94.2,94.5,93.9,94.6z M50.4,91.6c-0.1-0.1-0.3,0-0.4,0s0,0.1-0.1,0.1s-0.2,0.1-0.3,0.1s0,0.1,0,0.2s0.1,0.2,0.1,0.2
	s0.3-0.1,0.5,0c0.1-0.1,0.2-0.1,0.3-0.2c0-0.1,0-0.2,0-0.3C50.4,91.7,50.4,91.7,50.4,91.6z M101.7,95.9c-0.1-0.1-0.3,0-0.4,0
	s0,0.1-0.1,0.1s-0.2,0.1-0.3,0.1s0,0.1,0,0.2s0.1,0.2,0.1,0.2s0.3-0.1,0.4,0c0.1-0.1,0.2-0.2,0.3-0.2c0-0.1,0-0.2,0-0.3
	C101.7,96,101.7,96,101.7,95.9L101.7,95.9z M86.7,110.6c-0.1-0.1-0.3,0-0.4,0s0,0.1-0.1,0.1s-0.2,0.1-0.3,0.1s0,0.1,0,0.2
	s0.1,0.2,0.1,0.2s0.3-0.1,0.4,0c0.1-0.1,0.2-0.2,0.3-0.2c0-0.1,0-0.2,0-0.3C86.8,110.7,86.8,110.6,86.7,110.6z M72.5,73.3
	c-0.1-0.1-0.3,0-0.4,0s0,0.1-0.1,0.1s-0.2,0.1-0.3,0.1s0,0.1,0,0.2s0.1,0.2,0.1,0.2s0.3-0.1,0.4,0c0.1-0.1,0.2-0.2,0.3-0.2
	c0-0.1,0-0.2,0-0.3C72.5,73.4,72.5,73.4,72.5,73.3L72.5,73.3z M92.8,82.6c-0.2-0.2-0.3,0.1-0.5,0.1c-0.2,0.1-0.3,0.3-0.3,0.5v0.1
	c0,0,0.2,0,0.2,0.1c0.2,0,0.5-0.1,0.6-0.3c0-0.1,0-0.2,0-0.3C92.8,82.7,92.8,82.6,92.8,82.6z M84.7,77.6c-0.1,0.1-0.2,0.3-0.2,0.5
	c0.1,0.1,0.2,0.1,0.2,0s0.5,0.3,0.7,0.1v-0.4C85.2,77.7,85,77.5,84.7,77.6z M95,67.4c-0.1,0.1-0.2,0.3-0.2,0.5
	c0.1,0.1,0.2,0.1,0.2,0s0.5,0.3,0.7,0.1c0-0.1,0-0.2,0-0.4C95.5,67.4,95.3,67.3,95,67.4z M44.8,69.8c-0.1,0.1-0.2,0.3-0.2,0.5
	c0.1,0.1,0.2,0.1,0.2,0s0.5,0.3,0.7,0.1c0-0.1,0-0.2,0-0.4C45.3,69.9,45.1,69.7,44.8,69.8z M42,90.4c-0.1,0.1-0.2,0.3-0.2,0.5
	c0.1,0.1,0.2,0.1,0.2,0s0.5,0.3,0.7,0.1c0-0.1,0-0.2,0-0.4C42.5,90.5,42.2,90.3,42,90.4z M48.7,107.6c-0.1,0.1-0.2,0.3-0.2,0.5
	c0.1,0.1,0.2,0.1,0.2,0s0.5,0.3,0.7,0.1c0-0.1,0-0.2,0-0.4C49.3,107.6,49,107.5,48.7,107.6z M75.2,91.2c0,0.1-0.1,0.3-0.1,0.5
	c0.3,0.1,0.6,0.1,0.8-0.2c0.1-0.2,0-0.4-0.1-0.5C75.7,90.9,75.4,91,75.2,91.2z M100,79.3c0,0.1,0,0.2-0.1,0.2c0,0.2,0.1,0.4,0.3,0.5
	c0.2,0.2,0.3,0.2,0.4,0C100.8,79.4,100.4,79.2,100,79.3z M73.1,106.3c0,0.1,0,0.2-0.1,0.2c0,0.2,0.1,0.4,0.3,0.5
	c0.2,0.2,0.3,0.2,0.4,0C73.9,106.3,73.5,106.2,73.1,106.3z M84.6,88.1h-0.3c-0.1,0-0.2,0-0.3,0.1v0.2c0,0.1,0.1,0.2,0.1,0.3
	c0.2,0,0.5,0.3,0.7,0.1c0-0.1,0.1-0.2,0.1-0.3c0-0.1-0.1-0.1-0.1-0.2C84.8,88.3,84.7,88.2,84.6,88.1z M57.4,102.2h-0.3
	c-0.1,0-0.2,0-0.3,0.1v0.2c0,0.1,0.1,0.2,0.1,0.3c0.2,0,0.5,0.3,0.7,0.1c0.1-0.1,0.1-0.2,0.1-0.3c0-0.1-0.1-0.1-0.1-0.2
	C57.6,102.4,57.5,102.3,57.4,102.2z M63.7,95.4c0-0.3-0.2-0.4-0.3-0.2c0,0.2,0,0.4,0.1,0.5c0.1-0.1,0.2,0,0.2,0s0-0.1,0-0.2
	S63.7,95.4,63.7,95.4z M51.9,100.2c0-0.3-0.2-0.4-0.3-0.2c0,0.2,0,0.4,0.1,0.5c0.1-0.1,0.2,0,0.2,0s0-0.1,0-0.2S52,100.3,51.9,100.2
	z M45.1,96.3c0-0.3-0.2-0.4-0.3-0.2c0,0.2,0,0.4,0.1,0.5c0.1-0.1,0.2,0,0.2,0s0-0.1,0-0.2S45.1,96.4,45.1,96.3z M44.3,104.5
	c0-0.3-0.2-0.4-0.3-0.2c0,0.2,0,0.4,0.1,0.5c0.1-0.1,0.2,0,0.2,0s0-0.1,0-0.2S44.3,104.5,44.3,104.5z M64.1,109.5
	c0-0.3-0.2-0.4-0.3-0.2c0,0.2,0,0.4,0.1,0.5c0.1-0.1,0.2,0,0.2,0s0-0.1,0-0.2S64.1,109.6,64.1,109.5z M71.2,101.1
	c0-0.3-0.2-0.4-0.3-0.2c0,0.2,0,0.4,0.1,0.5c0.1-0.1,0.2,0,0.2,0s0-0.1,0-0.2S71.2,101.2,71.2,101.1z M65.6,88.4
	c0-0.3-0.2-0.4-0.3-0.2c0,0.2,0,0.4,0.1,0.5c0.1-0.1,0.2,0,0.2,0s0-0.1,0-0.2S65.7,88.5,65.6,88.4z M64.3,100.3
	c0-0.3-0.2-0.4-0.3-0.2c0,0.2,0,0.4,0.1,0.5c0.1-0.1,0.2,0,0.2,0s0-0.1,0-0.2S64.3,100.3,64.3,100.3z M55.5,107
	c0-0.3-0.2-0.4-0.3-0.2c0,0.2,0,0.4,0.1,0.5c0.1-0.1,0.2,0,0.2,0s0-0.1,0-0.2S55.5,107.1,55.5,107z M61.1,113.4
	c0-0.3-0.2-0.4-0.3-0.2c0,0.2,0,0.4,0.1,0.5c0.1-0.1,0.2,0,0.2,0s0-0.1,0-0.2S61.1,113.5,61.1,113.4z M51.9,113.7
	c0-0.3-0.2-0.4-0.3-0.2c0,0.2,0,0.4,0.1,0.5c0.1-0.1,0.2,0,0.2,0s0-0.1,0-0.2S51.9,113.7,51.9,113.7z M100.1,70.2
	c0-0.3-0.2-0.4-0.3-0.2c0,0.2,0,0.4,0.1,0.5c0.1-0.1,0.2,0,0.2,0s0-0.1,0-0.2S100.1,70.2,100.1,70.2z M92,78c0-0.3-0.2-0.4-0.3-0.2
	c0,0.2,0,0.4,0.1,0.5c0.1-0.1,0.2,0,0.2,0s0-0.1,0-0.2S92.1,78,92,78z M87.3,71.8c0-0.3-0.2-0.4-0.3-0.2c0,0.2,0,0.4,0.1,0.5
	c0.1-0.1,0.2,0,0.2,0s0-0.1,0-0.2S87.3,71.8,87.3,71.8z M97.7,91.4c0-0.3-0.2-0.4-0.3-0.2c0,0.2,0,0.4,0.1,0.5c0.1-0.1,0.2,0,0.2,0
	s0-0.1,0-0.2S97.7,91.5,97.7,91.4z M88.8,94.5c0-0.3-0.2-0.4-0.3-0.2c0,0.2,0,0.4,0.1,0.5c0.1-0.1,0.2,0,0.2,0s0-0.1,0-0.2
	S88.8,94.6,88.8,94.5z M81,91.7c0-0.3-0.2-0.4-0.3-0.2c0,0.2,0,0.4,0.1,0.5c0.1-0.1,0.2,0,0.2,0s0-0.1,0-0.2S81,91.7,81,91.7z
	 M77.1,94.4c0-0.3-0.2-0.4-0.3-0.2c0,0.2,0,0.4,0.1,0.5c0.1-0.1,0.2,0,0.2,0s0-0.1,0-0.2S77.2,94.5,77.1,94.4z M73.7,86.2
	c0-0.3-0.2-0.4-0.3-0.2c0,0.2,0,0.4,0.1,0.5c0.1-0.1,0.2,0,0.2,0s0-0.1,0-0.2S73.7,86.2,73.7,86.2z M48.8,87.4
	c0-0.3-0.2-0.4-0.3-0.2c0,0.2,0,0.4,0.1,0.5c0.1-0.1,0.2,0,0.2,0s0-0.1,0-0.2S48.8,87.4,48.8,87.4z M50.2,77.8
	c0-0.3-0.2-0.4-0.3-0.2c0,0.2,0,0.4,0.1,0.5c0.1-0.1,0.2,0,0.2,0s0-0.1,0-0.2C50.2,77.9,50.2,77.9,50.2,77.8z M42.9,77.8
	c0-0.3-0.2-0.4-0.3-0.2c0,0.2,0,0.4,0.1,0.5c0.1-0.1,0.2,0,0.2,0s0-0.1,0-0.2S42.9,77.8,42.9,77.8z M57,88.8c0-0.3-0.2-0.4-0.3-0.2
	c0,0.2,0,0.4,0.1,0.5c0.1-0.1,0.2,0,0.2,0s0-0.1,0-0.2S57,88.8,57,88.8z M55.4,70.6c0-0.3-0.2-0.4-0.3-0.2c0,0.2,0,0.4,0.1,0.5
	c0.1-0.1,0.2,0,0.2,0s0-0.1,0-0.2S55.5,70.6,55.4,70.6z M98.2,75.9c0-0.3-0.2-0.4-0.3-0.2c0,0.2,0,0.4,0.1,0.5c0.1-0.1,0.2,0,0.2,0
	s0-0.1,0-0.2S98.2,76,98.2,75.9z M97.1,86.6c0-0.3-0.2-0.4-0.3-0.2c0,0.2,0,0.4,0.1,0.5c0.1-0.1,0.2,0,0.2,0s0-0.1,0-0.2
	S97.1,86.6,97.1,86.6z M103.7,82.7c0-0.3-0.2-0.4-0.3-0.2c0,0.2,0,0.4,0.1,0.5c0.1-0.1,0.2,0,0.2,0s0-0.1,0-0.2
	S103.7,82.7,103.7,82.7z M103.8,92.9c0-0.3-0.2-0.4-0.3-0.2c0,0.2,0,0.4,0.1,0.5c0.1-0.1,0.2,0,0.2,0s0-0.1,0-0.2
	S103.8,92.9,103.8,92.9z M92.8,104.7c0-0.3-0.2-0.4-0.3-0.2c0,0.2,0,0.4,0.1,0.5c0.1-0.1,0.2,0,0.2,0s0-0.1,0-0.2
	S92.8,104.8,92.8,104.7z M100.9,106.8c0-0.3-0.2-0.4-0.3-0.2c0,0.2,0,0.4,0.1,0.5c0.1-0.1,0.2,0,0.2,0s0-0.1,0-0.2
	S101,106.9,100.9,106.8z M91.6,113.9c0-0.3-0.2-0.4-0.3-0.2c0,0.2,0,0.4,0.1,0.5c0.1-0.1,0.2,0,0.2,0s0-0.1,0-0.2
	S91.7,113.9,91.6,113.9z M87.3,107.7c0-0.3-0.2-0.4-0.3-0.2c0,0.2,0,0.4,0.1,0.5c0.1-0.1,0.2,0,0.2,0s0-0.1,0-0.2
	S87.4,107.8,87.3,107.7z M83.3,100.9c0-0.3-0.2-0.4-0.3-0.2c0,0.2,0,0.4,0.1,0.5c0.1-0.1,0.2,0,0.2,0s0-0.1,0-0.2
	S83.3,101,83.3,100.9z M78,106.7c0-0.3-0.2-0.4-0.3-0.2c0,0.2,0,0.4,0.1,0.5c0.1-0.1,0.2,0,0.2,0s0-0.1,0-0.2S78.1,106.8,78,106.7z
	 M74.1,113.2c0-0.3-0.2-0.4-0.3-0.2c0,0.2,0,0.4,0.1,0.5c0.1-0.1,0.2,0,0.2,0s0-0.1,0-0.2S74.1,113.2,74.1,113.2z M70.9,109.2
	c0-0.3-0.2-0.4-0.3-0.2c0,0.2,0,0.4,0.1,0.5c0.1-0.1,0.2,0,0.2,0s0-0.1,0-0.2S71,109.2,70.9,109.2z M83.5,115.4
	c0-0.3-0.2-0.4-0.3-0.2c0,0.2,0,0.4,0.1,0.5c0.1-0.1,0.2,0,0.2,0s0-0.1,0-0.2S83.5,115.5,83.5,115.4z M80.4,110.9
	c0-0.3-0.2-0.4-0.3-0.2c0,0.2,0,0.4,0.1,0.5c0.1-0.1,0.2,0,0.2,0s0-0.1,0-0.2S80.4,110.9,80.4,110.9z M71.5,117.8
	c0-0.3-0.2-0.4-0.3-0.2c0,0.2,0,0.4,0.1,0.5c0.1-0.1,0.2,0,0.2,0s0-0.1,0-0.2S71.5,117.9,71.5,117.8z M86.4,82.9
	c0-0.3-0.2-0.4-0.3-0.2c0,0.2,0,0.4,0.1,0.5c0.1-0.1,0.2,0,0.2,0s0-0.1,0-0.2S86.4,82.9,86.4,82.9z M77.5,77.6
	c0-0.3-0.2-0.4-0.3-0.2c0,0.2,0,0.4,0.1,0.5c0.1-0.1,0.2,0,0.2,0s0-0.1,0-0.2S77.5,77.6,77.5,77.6z M70.2,81.3
	c0-0.3-0.2-0.4-0.3-0.2c0,0.2,0,0.4,0.1,0.5c0.1-0.1,0.2,0,0.2,0s0-0.1,0-0.2S70.2,81.3,70.2,81.3z M62.9,74.7
	c0-0.3-0.2-0.4-0.3-0.2c0,0.2,0,0.4,0.1,0.5c0.1-0.1,0.2,0,0.2,0s0-0.1,0-0.2S62.9,74.8,62.9,74.7z M53.8,84.7
	c0-0.3-0.2-0.4-0.3-0.2c0,0.2,0,0.4,0.1,0.5c0.1-0.1,0.2,0,0.2,0s0-0.1,0-0.2S53.8,84.8,53.8,84.7z M46.7,75.9
	c0-0.3-0.2-0.4-0.3-0.2c0,0.2,0,0.4,0.1,0.5c0.1-0.1,0.2,0,0.2,0s0-0.1,0-0.2C46.7,76,46.7,76,46.7,75.9z"/>
<path d="M22,108c2,1.1,4,2,6.1,2.7c2.7,0.7,5.5-0.9,6.2-3.5c0.7-2.7-0.9-5.4-3.5-6.2c-0.5-0.1-0.9-0.3-1.4-0.5l-0.3-0.1l0.2,0.1
	c-0.3-0.2-0.7-0.3-1-0.4c-0.4-0.2-0.9-0.4-1.3-0.7c-2.3-1.5-5.5-0.9-7,1.4c-1.5,2.3-0.9,5.5,1.4,7C21.7,107.8,21.8,107.9,22,108z"/>
<path class="st3" d="M56.2,46.8c-1.3,0.3-3.2,1-3.2,2.6c0,0.8,1.1,0.9,1.7,1c1.3,0.1,2.6-0.2,3.8-0.8c0.7-0.4,3-2,1.3-2.6
	c-1.1-0.3-2.4-0.3-3.5,0c-0.9,0.2-1.8,0.6-2.5,1.3c-1.3,1.5,2,1.7,2.8,1.6c1.4-0.1,4-0.5,4.2-2.2s-2-1.8-3.1-1.7
	C56,46,53.9,46.6,53,48.1c-0.3,0.5-0.6,1.3,0,1.7c0.4,0.2,0.8,0.4,1.2,0.5c0.4,0.1,0.8,0.2,1.2,0.3c1.5,0.3,3.1,0.1,4.5-0.7
	c0.6-0.6,0.9-1.3,0.8-2.1c0.1-0.9-4.8-0.8-5,0.7c0,0.2,0,1-0.3,1.2l1.4-0.7l-0.2,0.1l1.9-0.2c0.3,0-0.4-0.1-0.4-0.1
	c-0.2,0-0.4-0.1-0.6-0.1c-0.3-0.2-0.1,0-0.1,0c0-0.1,0-0.3,0-0.4c0.1-0.3,0.2-0.5,0.4-0.8c0.1-0.1,0.2-0.2,0.3-0.2h-0.1
	c-0.6,0.2-1.2,0.3-1.9,0.3l-0.9-0.2c0.2,0.1,0.2,0.1,0.3,0.3c0,0.2,0,0.4-0.1,0.6l-0.1,0.1c0.3-0.3,0.7-0.4,1.3-0.2
	c0.4-0.3,0.9-0.3,1.3-0.2L58.1,48c0.1,0.3,0.3,0.3,0.4,0c0,0-0.7,0.2-0.2,0.1l-1.2,0.3l-1.7-0.3c0,0.1-0.1,0.2-0.2,0.2
	c-0.1,0.1-0.2,0.2-0.3,0.3c-0.1,0.1-0.2,0.2-0.3,0.2h-0.1c-0.6,0.3-0.1,0.2,1.7-0.3l1.1,0.1l0.5,0.1c0-0.1,0-0.1,0-0.2
	c0.1-0.1,0.1-0.2,0.2-0.3c0.3-0.4,0.4-0.3-0.4-0.1c0.4-0.1,2.2-0.5,1.6-1.2c-0.2-0.3-0.9-0.3-1.2-0.3c-0.6,0-1.3,0-1.9,0.2
	L56.2,46.8z M69.8,62c0-0.5-0.1-1.6,0.4-1.7c0.3,0,0.5,0,0.8,0.1c0.1,0,0.7,0.2,0.5,0.1L70,59.3l0.1,0.1L69,58
	c0.1,0.4-1,0.6-1.3,0.7s-1.2,0.6-1.5,0.5l2.8,2l-0.1-0.1l0.7,1c-0.2-0.9,1-2,1.8-2l-1.1-0.5l0.1,0.1l-2.3-2l0.1,0.1l-0.3-0.6v0.1
	c0,0.3,0.5,0.8,0.7,1c0.4,0.5,0.9,0.9,1.5,1.3c0.2,0.1,1.8,1.2,1.8,0.5s-0.6-1.1-1-1.5c-0.7-0.7-1.5-1.3-2.3-1.7
	c-0.7-0.3-1.6-0.1-2.2,0.5c-0.5,0.4-0.8,1.1-0.7,1.8c0.3,0.7,0.8,1.3,1.5,1.7c0.6,0.6,1.4,1.1,2.3,1.4c0.8,0.2,1.7-0.4,2.4-0.6
	s1.5-0.4,1.1-1.3c-0.5-0.7-1.1-1.4-1.9-1.9c-0.6-0.4-1.2-0.8-1.8-1.1c-0.9-0.4-1.9-0.6-2.8-0.6l-0.2,0.1c-0.2,0.7-0.3,1.4-0.2,2.2
	c0,0.3,0.5,0.8,0.7,1c0.4,0.5,0.9,0.9,1.4,1.3C68.2,61.6,69.8,62.7,69.8,62L69.8,62z M89.6,46c-1.5-0.2-3.4,0-4.3,1.4
	c-1.3,2.1,1.5,3.1,3.1,3.4s3.6,0.5,5-0.3c0.6-0.3,0.9-0.9,0.8-1.5c0-0.8-0.8-1.3-1.4-1.7c-1-0.6-2.2-0.9-3.4-0.7
	c-1,0.3,0,1.1,0.5,1.4l0.2,0.1l-0.8-0.6c0.3,0.4-0.2,0.9-0.5,1.1c-0.2,0.1-0.5,0.1-0.8,0.1c-0.3,0-0.5,0-0.1,0.1l1.6,0.8l-0.1-0.1
	l0.5,0.5c-0.6-1,0.8-2.1,1.7-2c0.6,0.1,1.8,0,1.2-0.9S90.6,46.1,89.6,46z M78.6,49.4c-1-0.4-2.2-0.6-3.3-0.4c-0.8,0-1.5,0.2-2.2,0.7
	c-0.8,0.9,0.3,1.6,1,1.9c1.6,0.7,3.3,0.9,5,0.6c0.6,0,1.1-0.3,1.5-0.8c0.2-0.4,0.3-0.8,0.2-1.2c-0.1-0.7-2-0.7-2.5-0.7
	c-0.6,0-1.2,0.1-1.8,0.2c-0.2,0.1-0.8,0.2-0.7,0.5c0,0.2,0,0.4,0,0.7c0,0.1,0,0.2-0.1,0.2c0,0.1-0.2,0.1-0.1,0.1l0.9-0.2
	c0.7-0.2,1.5-0.2,2.2,0l-0.4-0.1c-0.1,0-0.3-0.1-0.4-0.2c-0.2-0.1-0.3-0.5-0.1-0.6l-0.9,0.3l-1,0.1l-1.8-0.2h-0.1
	c1.1,0.4,2.3,0.5,3.4,0.3C78.1,50.3,79.5,50,78.6,49.4L78.6,49.4z M54.1,54.2h-2.9c-1,0-1.6,0.7-1.1,1.7c1.4,2.3,4,3.4,6.6,2.8
	c0.9-0.2-0.5-1.7-0.7-1.9c-0.6-0.6-1.8-1.7-2.8-1.5c-0.7,0.2-1.3,0.2-2,0l1,0.5l-0.1-0.1l1.4,1.3l-0.1-0.1l0.5,0.8
	c0,0.1,0,0.1,0.1,0c0.1,0,0.2-0.1,0.4-0.1h2.5c1,0,0.5-1,0-1.5c-0.4-0.5-0.9-0.9-1.5-1.3C55,54.5,54.5,54.3,54.1,54.2L54.1,54.2z
	 M69.7,42.6h-1.4c-0.3,0-0.7,0-1,0C66,43,67.7,44,68.1,44.2c1.3,0.8,2.9,1.4,4.4,1.5c0.7,0,1.5-0.3,1.5-1c0-0.3-0.4-0.5-0.5-0.6
	c-0.5-0.3-1-0.6-1.6-0.8c-0.2-0.1-2.5-0.9-2.5-0.5c0,0.3-0.1,0.5-0.3,0.7c-0.1,0.1-0.2,0.1-0.4,0.2h-0.1c0.6,0.4,1.3,0.7,2,0.8
	l0.8,0.5c-0.2-0.2,0.4-0.3,0.4-0.3h1.7c1,0-0.3-0.8-0.6-1c-0.6-0.3-1.1-0.6-1.8-0.8C70.7,42.7,70.2,42.5,69.7,42.6L69.7,42.6z
	 M88.3,55.6c-0.8,0.1-1.7,0.4-2.4,0.8c-0.9,0.4-1.7,1.1-2.3,2c-0.6,1.1,0.7,1.3,1.6,1.2c1.7-0.3,3.3-1.1,4.6-2.3
	c0.4-0.4,1-0.9,1-1.5s-0.6-0.7-1-0.7c-0.6,0-1.2,0-1.8,0.1c-1,0.3-2,0.9-2.8,1.5c-0.8,0.7-1.9,2-0.4,2.6c1.1,0.4,2.4,0.4,3.5,0.1
	c1.3-0.5,3.5-1.6,3.3-3.2c0-0.4-0.1-1.2-0.5-1.5s-1.2,0-1.7,0.2c-1,0.3-2,0.8-2.8,1.4c-0.5,0.4-1.6,1.2-1.3,1.9s2.2-0.6,2.5-0.7
	c0.4-0.3,2-1.2,1.7-1.9v0l-0.4,0.6l-0.6,0.5l-1.7,1c-0.3,0.1,0.2-0.1,0.2-0.1c0.2-0.1,0.3-0.1,0.5-0.2L87,57.6
	c0.4,0,0.4,1.4,0.3,1.7l0.4-0.6l-0.1,0.1l2.5-1.8H90l0.9-0.3c-0.6,0-1.1,0-1.7-0.1c-0.2,0-0.4-0.1-0.6-0.1c-0.8-0.3,0.2-0.6-1.2,0.4
	l-1.7,1l0.2-0.1L85,58.1c0.2,0,1.6-0.2,1.4,0.2l0.4-0.6c-0.6,0.7,1.4-1.2,1.6-1c0.2,0,0.2-0.1,0,0c-0.1,0-0.2,0-0.3,0
	c-0.3,0-0.5-0.1-0.3-0.5l-0.4,0.6l0.1-0.1l-1.4,1.2l0.2-0.1l-1.6,0.8c0.1-0.1,0.2-0.1,0.3,0c1.1-0.2,2.2-0.8,3-1.6
	C88.4,56.6,89.4,55.5,88.3,55.6L88.3,55.6z"/>
<path class="st3" d="M56.9,58.7c-0.2,0-2.2-3.3-3.5-3.3C53.6,55.4,55.7,58.7,56.9,58.7z"/>
<path class="st4" d="M46.6,51.9c0.7,0.1,2.1,0.3,2.3-0.7s-1-1.5-1.7-1.7c-0.9-0.3-1.8-0.3-2.8-0.2c-0.9,0.2-1.5,0.9-1,1.7
	c0.5,0.7,1.3,1.2,2.2,1.4c0.8,0.2,2,0.5,2.4-0.4c0.4-0.7,0.3-1.7-0.3-2.3c-0.7-0.7-1.7-0.8-2.5-0.3c-0.5,0.4-0.3,0.9,0.1,1.3
	c0.4,0.4,0.9,0.8,1.5,1c0.5,0.2,1.3,0.4,1.7-0.1s-0.1-1.1-0.5-1.3c-0.4-0.2-0.7-0.4-1-0.7l0.1,1.3l-0.6,0.1
	c-0.4-0.5-0.7-0.5-0.7-0.1c0,0.1,0,0.2-0.1,0.2l0.4-0.3l-0.2,0.1l0.6-0.1c-0.2,0-0.5,0-0.7-0.1l-0.3-0.1c-0.3-0.2-0.3-0.1,0,0.2
	l-0.3,0.4h-0.1h0.3c0.2,0,0.3,0,0.5,0h0.3l0.3,0.1c0.1,0,0.1,0,0,0l-0.3-0.4V51v-0.5v0.1l0.3-0.4l-0.1,0.1l0.5-0.2
	c-0.2,0-0.5,0-0.7-0.1c-0.5,0-1.2,0.2-1.2,0.8S46,51.8,46.6,51.9L46.6,51.9z M65.4,50.4c0,0.9,0.5,1.8,1.3,2.2
	c0.5,0.3,1.3,0.5,1.6-0.2c0.5-1.2-1.6-3.5-2.7-2.4c-0.6,0.5,1.1,2.4,1.6,1.9c0.1,0,0.1-0.1,0.2-0.1h0.1c-0.5-1.3-0.8-1.6-1-1.1
	l-0.1,0.2h-0.1c-0.3,0.2-0.1,0.5,0.8,0.8l0.2,0.5V52c0-0.6-0.3-1.1-0.7-1.4C66.4,50.4,65.5,49.8,65.4,50.4L65.4,50.4z M80.4,57.6
	c-0.7,0-1.3,0-2,0.1c-0.7,0.2-0.6,0.7-0.2,1.2s1.3,1.4,2.1,1.4c0.7-0.2,1.4-0.5,1.9-1c0.3-0.2-1.2-1.3-1.3-1.4
	c-0.5-0.5-1.2-0.5-1.8-0.2c-0.2,0.2,1.5,2,1.9,1.6c0.1-0.1,0.3-0.2,0.4-0.2c0.2,0,0.4,0.1,0.1-0.1L80.4,57.6l-1.1,0.6
	c-0.2,0.1-0.3,0.2-0.5,0.3c-0.7,0.3-0.6-0.3,0.4,0.7l0.5,0.6c-0.2-0.4,0.6-0.5,0.8-0.5l1.5,0c0.3,0-0.4-0.8-0.4-0.8
	C81.3,58.2,80.8,57.6,80.4,57.6L80.4,57.6z M83.4,47.2c-0.5-0.1-1.1,0-1.6,0.2c-0.5,0.3-0.7,1-0.5,1.5c0.3,1.1,1.4,1.7,2.5,1.6
	c0.7-0.1,0.9-0.9,0.8-1.4c-0.1-0.6-0.8-1.1-1.4-1c0.1,0,0.2,0,0.2,0.1c0,0,0.2,0.4,0.1,0.2v0.6v-0.1L83,49.5c-0.2,0-0.2,0.1,0,0h0.4
	C84.9,49.6,84.8,47.2,83.4,47.2L83.4,47.2z M98.5,47.7c-0.5-0.2-1.1-0.1-1.5,0.3c-0.4,0.5,0.1,1.3,0.4,1.7c0.4,0.5,0.9,0.9,1.6,1
	c0.6,0,0.9-0.5,1.2-0.9c0.4-0.6-0.7-1.6-1.1-1.8c-0.7-0.5-1.7-0.4-2.3,0.2c-0.4,0.5,0.8,1.8,1.3,1.9c0.6,0.2,1.3,0,1.7-0.5
	c0.5-0.6-1.2-2.4-1.6-1.9c-0.3,0.4-0.7,0.6-1.1,0.5l1.3,1.9c0.3-0.4,0.9-0.6,1.3-0.4l-1.1-1.8c-0.1,0.2-0.3,0.4-0.5,0.6
	c-0.1,0.1-0.1,0.1-0.2,0.2c-0.6,0.2-0.2-0.8,0.6,0.9l0.2,0.5c-0.1-0.4,0.7-0.4,0.9-0.3c0.5,0.2,0.3-0.5,0.2-0.8
	C99.4,48.4,99,47.9,98.5,47.7L98.5,47.7z M76.2,41c-0.6,0-1.4-0.1-1.9,0.3c-0.4,0.3-0.4,0.9-0.1,1.3c0,0,0.1,0.1,0.1,0.1
	c1.1,0.8,2.6,0.9,3.8,0.3c0.3-0.1,0.5-0.5,0.4-0.8c0-0.1-0.1-0.2-0.2-0.3c-0.5-0.4-1.2-0.5-1.8-0.3c-0.1,0-0.3,0-0.4,0.1
	s-0.2,0-0.2,0c0.1,0.2,0.2,0.4,0.4,0.5l-0.4,0.3h0.1l-0.6,0.1h1c0.3,0,1.2-0.3,1-0.8S76.7,41,76.2,41z M61.2,61.6l-1.1,0.1
	c-1.3,0.1-0.6,1.1,0.2,1.4c1.5,0.6,3.2,0.4,4.6-0.3c0.8-0.5-0.3-1.1-0.7-1.3c-0.9-0.4-1.9-0.3-2.7,0.1c-1,0.6,1.1,1.7,1.8,1.3
	c0.2-0.1,0.3-0.2,0.5-0.1l-0.7-1.3c-0.7,0.5-1.6,0.6-2.4,0.4l0.2,1.4l1.1-0.1c0.4,0,1-0.2,0.7-0.7C62.4,61.9,61.8,61.6,61.2,61.6
	L61.2,61.6z"/>
<path class="st2" d="M46.5,54.5l1.7-1.1c0.3-0.2,0.6-0.4,0.9-0.5s1-0.2,0.5-0.5c0.2,0.1,1.1,0.6,1.2,0.4s-0.9-0.8-1-0.8
	c-0.8-0.6-1.8-0.7-2.7-0.4c-1,0.5-1.9,1.1-2.8,1.7c-0.2,0.1,0.9,0.8,1,0.8C45.5,54.3,46.2,54.7,46.5,54.5L46.5,54.5z M52.7,51.9
	c0.7,0.1,1.4,0.1,2-0.2c0.2-0.1,0.4-0.3,0.7-0.4c0.7-0.5-0.1-0.3,0.3,0c1.5,1,2.8,0.7,4.5,0.8c1.5,0.1,1.6-1.6,0.1-1.7
	c-0.7,0-1.4,0-2.1,0c-0.7-0.2-1.2-0.7-1.9-0.9c-0.5-0.2-1-0.2-1.5-0.1c-0.5,0.2-0.9,0.5-1.3,0.9c-0.5-0.1-1.3-0.1-1.6,0.5
	S52.2,51.8,52.7,51.9L52.7,51.9z M75.2,54.5c-0.1-0.7,0.3-1.4,1-1.6c0.6-0.1,1.3-0.1,1.9,0.2c0.9,0.3,1.8,0.2,2.7-0.1
	c0.5-0.3,0.3-0.5,1-0.8c0.3-0.1,0.5,0,0.6-0.3c0.4-0.7-0.8-1.3-1.1-1.8c-0.3-0.4-0.7-0.8-1.2-1c-0.1,0-1.1-0.5-0.9-0.2
	c0.2,0.3,0.4,0.7,0.7,0.9c0.8,1,0.1,0.6-0.5,1c-0.2,0.2-0.3,0.4-0.5,0.5c-0.5,0.4-1.1,0.5-1.7,0.4c-1,0-2-0.7-3-0.3
	c-0.8,0.2-1.3,1-1.2,1.9C73.3,54,75.3,54.7,75.2,54.5L75.2,54.5z M88.5,52.1c0-0.5,0.3-0.9,0.8-0.9c0.1,0,0.2,0,0.2,0
	c0.3,0,0.6,0.4,0.9,0.6c0.4,0.3,0.8,0.4,1.3,0.3c0.4-0.1,0.8-0.3,1.1-0.6c0.3-0.3,0.7-1.3,1-0.9c0.7,0.8,2.7-0.7,1.8-1.7
	c-0.6-0.6-1.6-0.7-2.4-0.3C92.1,49,91.7,50,91,50.8l1.1-0.7h-0.3l0.8,0.1c-1.5-0.8-2.6-1.6-4.3-0.7c-1.3,0.6-2.1,2-1.9,3.5
	C86.4,54.2,88.7,53.2,88.5,52.1L88.5,52.1z M85.4,62.3c0.7-1.5,2.4-2.5,4.1-2.3c1.1,0.2,1.8,1,2.8,0s-1.2-2.2-2.1-1.3L90,58.8
	l0.7-0.3c0.4,0-0.4-0.2-0.5-0.3C89.8,58.1,89.4,58,89,58c-0.9-0.1-1.8,0.1-2.6,0.5c-1.5,0.4-2.8,1.5-3.4,3
	C82.6,62.7,84.9,63.6,85.4,62.3L85.4,62.3z M81.1,59c-0.5-0.1-1.1,0.1-1.4,0.4c-0.6,0.6,0.9,2.4,1.6,1.9c0.5-0.3,0.9-0.7,1.3-1.1
	c0.6-0.6-1-2.5-1.6-1.9c-0.4,0.4-0.9,0.7-1.3,1l1.6,1.9c0.2-0.2,0.5-0.3,0.7-0.3c0.6,0.1,0.5-0.5,0.4-0.9
	C82.1,59.6,81.7,59.2,81.1,59z"/>
<path class="st2" d="M85.4,51.7c0.1-0.6,0-1.2-0.3-1.7c-0.4-0.5-0.9-0.8-1.6-0.9c-1.4-0.2-2.6,0.7-2.8,2.1c0,0,0,0,0,0
	c-0.1,1.3,2.4,1.1,2.5-0.1c0,0,0-0.3,0.1-0.3s-0.5,0.2-0.5,0.1s0.2,0.2,0.2,0.2c0,0.2,0,0.4,0,0.6C82.8,53.1,85.3,52.9,85.4,51.7
	L85.4,51.7z M79.9,42.3c-1.1-0.1-2.2-0.1-3.2,0.2c-0.9,0.5-1.6,1.3-2,2.3c-0.3,0.5,2.1,1.3,2.4,0.6s0.9-1.6,1.6-1.8
	c0.8-0.1,1.5-0.1,2.3,0c0.4,0,0.8-0.1,0.6-0.6S80.3,42.3,79.9,42.3L79.9,42.3z M69.4,52c-1.9-0.2-4.2,0-5.1,2
	c-0.6,1.3,1.8,2.1,2.3,0.9c0.4-1,1.5-0.9,2.4-0.8c0.6,0.2,1.1-0.2,1.3-0.7s-0.2-1.1-0.7-1.3C69.6,52,69.5,52,69.4,52L69.4,52z
	 M64.7,63.2l-0.2-0.2l0.4,1.3c0.3-1.2,2.3,0,2.9,0.1c0.5,0.1,1.1-0.2,1.4-0.6c0.6-0.7,0.5-1.6,1.7-1.7c1.1,0,1.9,0.6,3.1,0.5
	l-1.1-2.1c-1.2,0.3-2.5,0.6-3.8,0.8c-0.3,0-1.1,0-1.3,0.2c-0.6,0.5,1.5,0.7,1.6,0.8c1.4,0.9,1.8-0.8,0.7-1.6c-0.9-0.8-2.2-1-3.3-0.5
	c-0.7,0.4-1.1,1.3-0.7,2c0,0,0,0.1,0.1,0.1c1.3,2.7,5.9,0.8,8,0.3c1.1-0.3-0.2-2.2-1.1-2.1c-1.4,0.2-2.8-0.9-4.2-0.4
	c-0.5,0.1-0.8,0.4-1.1,0.8c-0.6,0.9-0.5,1.2-1.6,0.9s-2-0.6-2.9,0.4c-0.6,0.5-0.6,1.5,0,2c0.1,0.1,0.1,0.1,0.2,0.1
	C64.6,65.5,65.8,64.4,64.7,63.2L64.7,63.2z M59.6,58.8c0.4-1.5-0.7-2.2-2.1-1.9c-0.7,0.2-1.4,0.6-2,1.1c-0.4,0.4-0.3,0.3-0.8,0.4
	c-0.6,0-1.3,0-1.9,0c-0.4,0-1.4,0.1-1.5,0.6s0.6,0.6,1,0.6c1.3,0.1,2.6,0.1,3.8-0.2c0.5-0.2,0.9-0.5,1.3-0.8
	c0.2-0.2,0.5-0.3,0.7-0.5c0.5-0.3,0.5-0.3-0.2-0.1c-0.6-0.1-0.8,0.2-0.6,0.8C57,59.6,59.4,59.5,59.6,58.8L59.6,58.8z M97,51.6
	c0.9,0.1,1.8,0,2.6-0.3c0.3-0.1,2.1-1,1.2-1.3c-0.8-0.3-1.7-0.2-2.5,0.2c-0.7,0.3-1.8,0.8-2,1.6c-0.1,0.3,0.8,0,0.9-0.1
	c0.3-0.1,1.2-0.5,1.3-0.8s0.3-0.4-0.4,0s-0.4,0.2,0,0.3c0.1,0,0.8,0.1,0.7,0.3l0.4-0.4l0.7-0.3l0.7-0.2c-0.5,0-1,0-1.5,0
	c-0.5,0-1,0.2-1.5,0.5c-0.2,0.1-0.4,0.3-0.6,0.4C97.1,51.4,96.9,51.6,97,51.6L97,51.6z"/>
<path class="st5" d="M59.4,47.7c0-0.2,0.2-0.3,0.4-0.3c0.1,0,0.2,0,0.2,0.1c0.2,0.2,0.3,0.4,0.5,0.5s0.3-0.1,0.4,0
	c0.3,0.1,0.6,0.2,0.9,0.3c0.1,0,0,0.3,0.1,0.3s0.2-0.2,0.2-0.1s-0.1,0.2,0,0.3s0.2,0,0.2,0c0.8,0.4,1.7,0.7,2.2,1.5
	c0.7,0.1,1.4,0.4,2.1,0.7c0.3,0.2,0.7,0.3,1.1,0.5c0.1,0.1,0.3,0,0.5,0.1c0.2,0.1,0.3,0.2,0.5,0.3c0.2,0.2,0.3,0.3,0.5,0.4
	c0.5,0.4,0.8,0.9,0.9,1.5c0.1,0.5,0.4,1,0.8,1.3c-0.4,0.4,0.1,0.4,0.2,0.7s0,0.7,0.3,1c0.1,0.1,0.1,0.3,0.3,0.4s0.5,0.1,0.6,0.2
	s-0.3,0.3-0.5,0.5c-0.5,0.3-1.1,0.1-1.4-0.4c-0.3-0.4-0.4-1.1-0.7-1.6c0-0.1,0.1-0.2-0.3-0.1c0.3-0.5-0.2-0.6-0.2-0.9s0-1.1-0.6-1.2
	c0-0.3-0.1-0.7-0.3-0.9c-0.4-0.3-0.9-0.5-1.4-0.7c-0.6-0.2-1.2-0.4-1.9-0.6c-0.1,0-0.1-0.2-0.2-0.2s-0.2,0.1-0.3,0.1
	c-0.3-0.2-0.4-0.6-0.7-0.7h-0.4c-0.6-0.2-0.9-0.9-1.5-1.1c-0.1,0-0.3,0.1-0.3,0.1c-0.2-0.1-0.4-0.5-0.6-0.6
	c-0.5-0.3-1.1-0.2-1.5-0.5c0,0.1-0.1,0.1-0.2,0.2C59.5,48.2,59.5,48.7,59.4,47.7L59.4,47.7z"/>
<path class="st5" d="M69.3,53.4c-1.2,0.2-0.2-0.2-0.2-0.3s-0.3,0-0.3,0s-0.2-0.2-0.2-0.3s0.3-0.1,0.4-0.1s-0.3,0-0.3,0
	s0.4-0.1,0.4-0.1s-0.1,0-0.2,0c0-0.3-0.5-0.5,0.2-0.9c-0.6-0.1-0.6-0.4-0.8-0.6s-0.3-0.2-0.4-0.4s-0.2-0.1-0.3-0.1s-0.1-0.2-0.2-0.3
	c-0.4-0.3,1.1-0.8,0.1-1c0.8-0.1,0.1-0.1,0.1-0.2s0.4-0.2,0.2-0.3s0-0.1-0.1-0.2c-0.2,0-0.4-0.1-0.7-0.1c0.3-0.1,0.6-0.1,0.9-0.1
	c1.4,0,1.5,0.2,1.6,0.3s-0.2,0.4-0.1,0.5c0,0-0.2,0.1,0.3,0.1c-0.7,0.1-0.2,0.2-0.3,0.3s-0.9,0.3-0.2,0.5c-0.3,0.1-0.6,0.2-0.5,0.3
	s0.4,0.3,0.5,0.4s0.6,0.3,0.8,0.5c0,0-0.1,0.1,0,0.1s0.3,0,0.3,0s-0.4,0.2-0.3,0.3s0.3,0,0.3,0c0.3,0.2-0.4,0.5-0.2,0.6s0.3,0,0.3,0
	s-0.3,0.2-0.3,0.3s0.6,0.2,0.3,0.5h0.3C70.4,53.2,69.9,53.3,69.3,53.4z"/>
<path class="st5" d="M67.6,51c-1.1,0.4-0.2-0.2-0.2-0.2s-0.3,0-0.3,0s-0.2-0.1-0.3-0.2s0.3-0.2,0.3-0.2s-0.3,0.1-0.3,0.1
	s0.3-0.1,0.3-0.2s-0.1,0-0.1,0c-0.1-0.2-0.6-0.3,0-0.7c-0.6,0-0.6-0.1-0.8-0.3s-0.3-0.1-0.4-0.2s-0.2,0-0.3,0S65.3,49,65.2,49
	c-0.5-0.1,0.8-0.9-0.1-0.8c0.7-0.3,0.1-0.1,0-0.2s0.3-0.3,0.1-0.3s0-0.1-0.1-0.1s-0.6,0.2-0.6,0.1s0.6-0.3,0.9-0.4
	c1.3-0.5,1.5-0.4,1.6-0.4s-0.1,0.4,0,0.5s-0.2,0.1,0.3-0.1c-0.6,0.3-0.1,0.2-0.2,0.3s-0.7,0.5-0.1,0.4c-0.3,0.2-0.5,0.4-0.4,0.4
	s0.4,0.1,0.6,0.2c0.3,0.1,0.6,0.1,0.9,0.2V49c0,0,0.3-0.1,0.3-0.1s-0.3,0.3-0.2,0.4s0.3,0,0.3,0c0.3,0-0.3,0.5-0.1,0.5
	c0.1,0,0.2,0,0.3,0c0,0.1-0.2,0.2-0.2,0.3s0.6,0.1,0.4,0.3l0.3-0.1C68.4,50.6,68,50.8,67.6,51z"/>
<path class="st5" d="M65.6,51c-1.1,0.2-0.2-0.2-0.2-0.3s-0.3,0-0.3,0s-0.2-0.1-0.2-0.2s0.3-0.1,0.4-0.2s-0.3,0-0.3,0
	s0.4-0.1,0.4-0.1s-0.1,0-0.2,0c0-0.2-0.5-0.4,0.1-0.8c-0.6,0-0.6-0.2-0.8-0.4s-0.3-0.1-0.4-0.2s-0.2,0-0.3,0s-0.1-0.2-0.2-0.2
	c-0.5-0.2,1-0.8,0-0.9c0.8-0.2,0.1-0.1,0.1-0.2s0.3-0.2,0.1-0.3s0-0.1-0.1-0.1c-0.2,0-0.4,0-0.7,0c0.1,0,0.6-0.2,0.9-0.2
	c1.4-0.2,1.5-0.1,1.7-0.1s-0.2,0.3,0,0.5s-0.2,0.1,0.3,0c-0.7,0.2-0.2,0.2-0.3,0.3S64.7,48,65.3,48c-0.3,0.2-0.5,0.3-0.5,0.4
	s0.4,0.2,0.5,0.3c0.3,0.1,0.5,0.2,0.8,0.3c0,0-0.1,0.1,0,0.1s0.3,0,0.3,0s-0.3,0.3-0.3,0.3s0.3,0,0.3,0c0.3,0.1-0.4,0.4-0.2,0.5
	s0.3,0,0.3,0s-0.3,0.2-0.3,0.3s0.6,0.2,0.3,0.4h0.3C66.6,50.8,66.1,50.9,65.6,51L65.6,51z"/>
<path class="st5" d="M64,49.9c-1.1,0.3-0.2-0.2-0.2-0.3s-0.3,0-0.3,0s-0.2-0.1-0.3-0.2c0.1-0.1,0.2-0.1,0.4-0.2c0,0-0.3,0.1-0.3,0.1
	s0.3-0.1,0.3-0.2s-0.2,0-0.2,0c-0.1-0.2-0.6-0.3,0-0.8c-0.6,0-0.6-0.2-0.8-0.4s-0.3-0.1-0.4-0.2s-0.2,0-0.3,0s-0.1-0.2-0.2-0.2
	c-0.5-0.2,0.9-0.9-0.1-0.9c0.8-0.2,0.1-0.2,0.1-0.2s0.3-0.3,0.1-0.3s0-0.1-0.1-0.1s-0.6,0.1-0.7,0c0.3-0.1,0.6-0.2,0.9-0.3
	c1.4-0.3,1.5-0.2,1.7-0.1s-0.2,0.4,0,0.5s-0.2,0.1,0.3,0c-0.6,0.2-0.2,0.2-0.3,0.3s-0.8,0.5-0.1,0.4c-0.3,0.2-0.5,0.3-0.4,0.4
	s0.4,0.2,0.6,0.3c0.3,0.1,0.6,0.2,0.9,0.3v0.1c0,0,0.3-0.1,0.3-0.1s-0.3,0.3-0.2,0.4s0.3,0,0.3,0c0.3,0.1-0.3,0.5-0.2,0.6
	c0,0,0.3,0,0.3,0s-0.2,0.2-0.2,0.3s0.6,0.1,0.4,0.3l0.3-0.1C64.9,49.6,64.5,49.7,64,49.9z"/>
<path class="st5" d="M62.8,50.5c-0.9,0.7-0.3-0.1-0.4-0.2s-0.3,0.1-0.3,0.1s-0.3,0-0.3-0.1S62,50,62,50s-0.3,0.2-0.3,0.2
	s0.3-0.2,0.3-0.3s-0.1,0-0.2,0c-0.2-0.2-0.7-0.2-0.3-0.9c-0.6,0.1-0.7-0.1-1-0.2c-0.1-0.1-0.4-0.1-0.5-0.2s-0.2,0-0.3,0
	s-0.2-0.2-0.3-0.2c-0.6-0.2,0.7-1.1-0.3-1.1c0.7-0.3,0.1-0.2,0-0.3s0.3-0.3,0.1-0.4s0-0.1-0.2-0.1c-0.2,0-0.4,0-0.7,0
	c0.3-0.1,0.6-0.3,0.9-0.3c1.3-0.3,1.5-0.2,1.7-0.2s-0.1,0.4,0,0.5s-0.2,0.1,0.3,0c-0.6,0.3-0.1,0.2-0.2,0.4s-0.7,0.6-0.1,0.5
	c-0.3,0.2-0.4,0.4-0.3,0.5s0.5,0.1,0.6,0.2c0.3,0.1,0.6,0.1,0.9,0.1v0.1c0,0,0.3-0.1,0.3-0.1s-0.2,0.4-0.1,0.4s0.2-0.1,0.3-0.1
	c0.3,0-0.2,0.6,0,0.6c0,0,0.3-0.2,0.3-0.1s-0.1,0.3-0.1,0.4s0.6-0.1,0.5,0.2l0.3-0.2C63.4,49.8,63.1,50.1,62.8,50.5z"/>
<path class="st5" d="M57.2,49.2c0.1-1.2,0.2-0.1,0.3-0.2s0-0.3,0.1-0.3s0.2-0.2,0.2-0.2c0,0.1,0,0.3,0.1,0.4v-0.3V49
	c0,0,0-0.1,0-0.1c0.2,0,0.4-0.4,0.6,0.3c0.2-0.5,0.3-0.5,0.5-0.7s0.2-0.3,0.3-0.3s0.1-0.2,0.1-0.3s0.2-0.1,0.2-0.2
	c0.2-0.4,0.5,1.1,0.7,0.2c0,0.8,0.1,0.1,0.2,0.1s0.2,0.4,0.2,0.2s0.1,0,0.1-0.1s0.1-0.6,0.1-0.7c0,0.3,0.1,0.7,0.1,1
	c0,1.4-0.2,1.5-0.2,1.6s-0.3-0.2-0.4-0.1s0-0.2-0.1,0.3c-0.1-0.7-0.2-0.2-0.2-0.3s-0.2-0.9-0.3-0.2c-0.1-0.3-0.1-0.6-0.2-0.5
	s-0.2,0.4-0.3,0.5c-0.2,0.2-0.3,0.5-0.5,0.7c0,0,0-0.1-0.1-0.1s0,0.3,0,0.3s-0.2-0.4-0.2-0.3s0,0.3-0.1,0.3
	c-0.2,0.3-0.3-0.5-0.4-0.3s0,0.3-0.1,0.3s-0.1-0.3-0.2-0.3s-0.3,0.5-0.4,0.2v0.3C57.2,50.2,57.2,49.7,57.2,49.2z"/>
<path class="st5" d="M58,49.9c0-1.2,0.2-0.1,0.3-0.2s0-0.3,0.1-0.3s0.2-0.2,0.2-0.2s0.1,0.3,0.1,0.4s0-0.3,0-0.3c0,0.1,0,0.2,0,0.4
	c0,0,0-0.1,0-0.1c0.2,0,0.4-0.4,0.7,0.2c0.1-0.5,0.3-0.5,0.5-0.7s0.2-0.3,0.3-0.3s0.1-0.2,0.1-0.3s0.2-0.1,0.2-0.2
	c0.2-0.5,0.6,1.1,0.8,0.1c0.1,0.8,0.1,0.1,0.2,0.1s0.2,0.4,0.3,0.2s0.1,0,0.1-0.1s0-0.6,0.1-0.7s0.1,0.6,0.1,0.9
	c0.1,1.4-0.1,1.5-0.1,1.7s-0.3-0.2-0.5-0.1s-0.1-0.2,0,0.3c-0.1-0.7-0.2-0.2-0.3-0.3s-0.3-0.9-0.4-0.2c-0.1-0.3-0.2-0.6-0.3-0.5
	s-0.2,0.4-0.3,0.5c-0.2,0.2-0.3,0.5-0.5,0.8c0,0-0.1-0.1-0.1,0s0,0.3,0,0.3s-0.2-0.4-0.3-0.3s0,0.3-0.1,0.3
	c-0.1,0.3-0.3-0.4-0.5-0.3s0,0.3,0,0.3s-0.2-0.3-0.2-0.3s-0.3,0.5-0.4,0.3c0,0.1,0,0.2,0,0.3C58.1,51,58,50.4,58,49.9z"/>
<path class="st5" d="M58,51.5c0.1-1.2,0.2-0.1,0.4-0.2s0.1-0.3,0.1-0.3s0.2-0.2,0.3-0.2s0,0.3,0.1,0.4s0-0.3,0-0.3v0.4
	c0,0,0-0.1,0.1-0.1c0.3,0,0.6-0.4,0.8,0.3c0.2-0.5,0.4-0.5,0.7-0.7s0.2-0.3,0.4-0.3s0.1-0.2,0.1-0.3s0.2-0.1,0.3-0.2
	c0.3-0.4,0.7,1.1,1,0.2c0.1,0.8,0.1,0.1,0.2,0.1s0.2,0.4,0.3,0.2s0.1,0,0.2-0.1c0-0.2,0.1-0.4,0.1-0.7c0,0.3,0.1,0.7,0.1,1
	c0,1.4-0.2,1.5-0.3,1.6s-0.4-0.2-0.6-0.1c0,0,0-0.2-0.1,0.3c-0.1-0.7-0.2-0.2-0.3-0.3s-0.3-0.9-0.5-0.2c-0.1-0.4-0.2-0.6-0.3-0.5
	s-0.3,0.4-0.5,0.5s-0.4,0.5-0.6,0.7c0,0-0.1-0.1-0.1-0.1s0,0.3-0.1,0.3s-0.2-0.4-0.3-0.3s-0.1,0.3-0.1,0.3c-0.2,0.3-0.4-0.5-0.6-0.3
	c0,0-0.1,0.3-0.1,0.3s-0.2-0.3-0.3-0.3s-0.4,0.5-0.6,0.2V53C58,52.5,58,52,58,51.5z"/>
<path class="st5" d="M61.2,52.2C61,51,61.3,52,61.4,52s0-0.3,0-0.3s0.1-0.2,0.2-0.2c0,0.1,0.1,0.3,0.1,0.4v-0.3c0,0,0.1,0.4,0.1,0.4
	s0-0.2,0-0.2c0.2,0,0.3-0.5,0.6,0.2c0-0.6,0.2-0.5,0.4-0.8s0.1-0.3,0.2-0.4s0-0.2,0-0.3s0.2-0.1,0.2-0.2c0.2-0.5,0.6,1,0.7,0.1
	c0.2,0.8,0.1,0.1,0.2,0.1s0.2,0.3,0.2,0.1s0.1,0,0.1-0.1c0-0.2,0-0.4,0-0.7c0,0.1,0.1,0.6,0.2,0.9c0.2,1.4,0.1,1.5,0,1.6
	s-0.3-0.2-0.4-0.1s-0.1-0.2,0,0.3c-0.2-0.7-0.2-0.2-0.2-0.3s-0.3-0.8-0.3-0.2c-0.1-0.3-0.2-0.5-0.3-0.5s-0.2,0.4-0.3,0.5
	c-0.1,0.3-0.2,0.5-0.3,0.8c0,0-0.1-0.1-0.1,0s0,0.3,0,0.3s-0.2-0.4-0.3-0.3s0,0.3,0,0.3c-0.1,0.3-0.3-0.4-0.5-0.3s0,0.3,0,0.3
	s-0.2-0.3-0.2-0.3s-0.2,0.5-0.3,0.3c0,0.1,0,0.2,0,0.3C61.3,53.2,61.2,52.7,61.2,52.2z"/>
<path class="st5" d="M62.3,52.5c0-1.2,0.3-0.1,0.5-0.2s0.1-0.3,0.1-0.3s0.3-0.2,0.4-0.2s0.1,0.3,0.1,0.4s0-0.3,0-0.3s0,0.4,0.1,0.4
	s0-0.2,0.1-0.2c0.3,0,0.7-0.4,1.1,0.2c0.2-0.6,0.5-0.5,0.8-0.7c0.2-0.1,0.3-0.3,0.5-0.3S66,51,66,51s0.3-0.1,0.4-0.2
	c0.4-0.4,0.9,1.1,1.2,0.1c0.1,0.8,0.2,0.1,0.3,0.1s0.2,0.4,0.4,0.2s0.1,0,0.2-0.1s0.1-0.6,0.1-0.7c0.1,0.3,0.1,0.6,0.1,0.9
	c0,1.4-0.2,1.5-0.3,1.6s-0.5-0.2-0.7-0.1c0,0-0.1-0.2-0.1,0.3c-0.2-0.7-0.3-0.2-0.4-0.3s-0.4-0.9-0.6-0.2c-0.1-0.3-0.3-0.6-0.4-0.5
	s-0.4,0.4-0.6,0.5s-0.5,0.5-0.7,0.8c0,0-0.1-0.1-0.1,0s0,0.3-0.1,0.3s-0.3-0.4-0.4-0.3s-0.1,0.3-0.1,0.3c-0.2,0.3-0.5-0.4-0.8-0.3
	c0,0-0.1,0.3-0.1,0.3s-0.2-0.3-0.4-0.3s-0.4,0.5-0.7,0.3V54C62.3,53.5,62.3,53,62.3,52.5L62.3,52.5z"/>
<path class="st5" d="M64.2,54c-0.1-1.2,0.2-0.1,0.4-0.2s0-0.3,0.1-0.3s0.2-0.2,0.3-0.2s0.1,0.3,0.1,0.4s0-0.3,0-0.3s0.1,0.4,0.1,0.4
	s0-0.2,0.1-0.2c0.3,0,0.5-0.5,0.9,0.2c0.1-0.6,0.3-0.6,0.6-0.8s0.2-0.3,0.3-0.4s0-0.2,0.1-0.3s0.2-0.1,0.3-0.2c0.2-0.5,0.9,0.9,1,0
	c0.2,0.8,0.2,0.1,0.2,0.1s0.3,0.3,0.3,0.1S69,52,69,51.9c0-0.2,0-0.4,0-0.7c0.1,0.1,0.2,0.6,0.3,0.9c0.3,1.3,0.2,1.5,0.1,1.7
	s-0.4-0.1-0.6,0s-0.1-0.2,0,0.3c-0.2-0.6-0.2-0.2-0.4-0.3s-0.5-0.8-0.5-0.1c-0.2-0.3-0.3-0.5-0.4-0.5s-0.2,0.4-0.4,0.5
	c-0.2,0.3-0.4,0.6-0.5,0.8c0,0-0.1-0.1-0.1,0s0,0.3,0,0.3s-0.3-0.4-0.4-0.3s0,0.3,0,0.3c-0.2,0.3-0.5-0.4-0.7-0.2s0,0.3-0.1,0.3
	s-0.2-0.3-0.3-0.3s-0.3,0.5-0.6,0.3v0.3C64.4,55,64.2,54.5,64.2,54L64.2,54z"/>
<path class="st5" d="M64.5,54.5c-0.2-1.2,0.2-0.2,0.3-0.2s0-0.3,0.1-0.3s0.2-0.2,0.3-0.2s0.1,0.3,0.1,0.4s0-0.3,0-0.3
	s0.1,0.4,0.1,0.4s0-0.2,0-0.2c0.3,0,0.5-0.5,0.9,0.2c0.1-0.6,0.4-0.5,0.6-0.8s0.2-0.3,0.4-0.4s0.1-0.2,0.1-0.3s0.2-0.1,0.3-0.2
	c0.4-0.4,0.7,1.1,1,0.2c0,0.8,0.1,0.1,0.2,0.1s0.2,0.4,0.3,0.2s0.1,0,0.2-0.1s0.1-0.6,0.2-0.6c0,0.3,0,0.6,0,1
	c-0.2,1.4-0.3,1.5-0.4,1.6s-0.3-0.3-0.5-0.2c0,0,0-0.2-0.1,0.3c-0.1-0.7-0.2-0.2-0.3-0.3s-0.3-0.9-0.4-0.2c-0.1-0.3-0.2-0.6-0.3-0.5
	s-0.3,0.4-0.4,0.5s-0.4,0.5-0.6,0.8c0,0-0.1-0.1-0.1,0s0,0.3,0,0.3s-0.2-0.4-0.3-0.3s0,0.3-0.1,0.3c-0.2,0.3-0.4-0.4-0.6-0.2
	s0,0.3,0,0.3s-0.2-0.3-0.3-0.3s-0.2,0.6-0.5,0.3c0,0.1,0,0.2,0,0.3C64.7,55.5,64.6,55,64.5,54.5z M80.2,52c-0.3,0.7-0.4,0-0.6,0
	c0,0-0.1,0.2-0.2,0.2c-0.2,0-0.3,0.1-0.5,0.1c0,0-0.1-0.2-0.1-0.3s-0.1,0.2-0.1,0.2s0-0.2,0-0.3s-0.1,0.1-0.1,0.1
	c-0.4,0-0.8,0.3-1.3-0.1c-0.2,0.4-0.6,0.4-0.9,0.7c-0.1,0.1-0.3,0.3-0.5,0.4c-0.1,0-0.1,0.2-0.1,0.2s-0.3,0.2-0.4,0.3
	c-0.3,0.4-1.2-0.3-1.4,0.5c-0.3-0.4-0.2,0-0.3,0.1s-0.4-0.1-0.5,0.1s-0.1,0.1-0.2,0.2s0.1,0.4,0,0.5c-0.2-0.2-0.3-0.3-0.4-0.5
	c-0.4-0.8-0.2-1-0.1-1.2s0.6-0.1,0.8-0.3c0,0,0.2,0.1,0-0.2c0.3,0.3,0.3,0,0.5,0s0.7,0.3,0.7-0.1c0.2,0.2,0.4,0.2,0.6,0.2
	s0.4-0.4,0.6-0.5s0.5-0.5,0.8-0.7h0.2c0.1,0,0-0.2,0.1-0.2c0.2,0,0.4,0.2,0.6,0.2s0.1-0.2,0.1-0.2c0.3-0.2,0.7,0.2,1,0.2
	c0,0,0.1-0.2,0.2-0.2s0.3,0.2,0.5,0.3c0.3,0.1,0.7-0.2,1,0c0-0.1,0.1-0.1,0.1-0.2C80.2,51.6,80.4,51.2,80.2,52L80.2,52z"/>
<path class="st5" d="M78.2,48.5c0.6,1-0.1,0.2-0.2,0.3s0.1,0.3,0.1,0.3s0,0.3-0.1,0.3s-0.2-0.2-0.3-0.3s0.2,0.3,0.2,0.3
	s-0.2-0.3-0.3-0.3s0.1,0.1,0,0.2c-0.2,0.2-0.2,0.7-0.8,0.3c0.2,0.5,0,0.7,0,1c0,0.2,0,0.3,0,0.5c0,0,0.1,0.2,0.1,0.3
	s-0.1,0.2-0.1,0.3c0.1,0.5-1.3-0.2-0.7,0.6c-0.7-0.4-0.2,0-0.2,0.1s-0.4-0.1-0.2,0.1s0,0,0.1,0.1s0.6,0.2,0.6,0.2s-0.6-0.1-0.9-0.2
	C74.1,52.5,74,52.2,74,52c-0.1-0.3,0.4-0.4,0.4-0.6c0,0,0.2,0.1-0.2-0.2c0.6,0.3,0.3-0.1,0.5-0.1s0.9,0.3,0.5-0.2
	c0.3,0.2,0.6,0.2,0.6,0.1s-0.1-0.5,0-0.7s-0.1-0.7-0.1-1c0,0,0.1,0,0.1,0S75.6,49,75.6,49s0.4,0.1,0.5,0S76,48.8,76,48.7
	c0-0.4,0.6,0,0.7-0.2c0,0-0.1-0.3-0.1-0.3s0.3,0.1,0.4,0.1s0-0.7,0.3-0.5c-0.1-0.1-0.1-0.2-0.2-0.3C77.6,47.8,77.9,48.1,78.2,48.5
	L78.2,48.5z"/>
<path class="st5" d="M80.1,49.8c0,1.2-0.2,0.1-0.3,0.2s0,0.3,0,0.3s-0.1,0.2-0.2,0.2s-0.1-0.3-0.1-0.4s0,0.3,0,0.3
	c0-0.1-0.1-0.2-0.1-0.4v0.2c-0.2,0-0.3,0.5-0.7-0.1c0,0.6-0.2,0.6-0.2,0.8s0,0.3-0.1,0.4c0,0.1,0,0.2,0,0.3c0,0.2-0.1,0.1-0.1,0.2
	c0,0.5-0.9-0.8-0.6,0.1c-0.5-0.7-0.1,0-0.2,0s-0.3-0.2-0.3,0s-0.1,0,0,0.1s0.3,0.5,0.3,0.5s-0.4-0.5-0.6-0.7
	c-0.9-1.1-0.8-1.3-0.8-1.4s0.4,0,0.5-0.2s0.2,0.2-0.1-0.3c0.4,0.5,0.2,0.1,0.4,0.2s0.6,0.7,0.4,0c0.2,0.3,0.4,0.4,0.4,0.4
	s0.1-0.4,0.1-0.6s0.1-0.6,0.2-0.9c0,0,0.1,0,0.1,0s-0.1-0.3,0-0.3s0.3,0.3,0.4,0.3s0-0.3,0-0.3c0.1-0.3,0.4,0.4,0.6,0.2s0-0.3,0-0.3
	s0.2,0.3,0.3,0.3s0.3-0.5,0.5-0.3c0-0.1,0-0.2,0-0.3C80.1,48.7,80.1,49.2,80.1,49.8z"/>
<path class="st5" d="M83.1,50.8c-0.1,1.2-0.2,0.1-0.3,0.1s-0.1,0.3-0.1,0.3s-0.2,0.2-0.3,0.2s0-0.3-0.1-0.4s0,0.3,0,0.3V51
	c0,0,0,0.1-0.1,0.1c-0.2,0-0.5,0.4-0.7-0.3c-0.2,0.5-0.4,0.5-0.6,0.7s-0.2,0.3-0.3,0.3s-0.1,0.2-0.1,0.3s-0.2,0.1-0.3,0.2
	c-0.3,0.4-0.6-1.1-0.8-0.2c0-0.8-0.1-0.1-0.2-0.1s-0.2-0.4-0.3-0.2s-0.1,0-0.1,0.1s-0.1,0.6-0.1,0.6c0-0.3-0.1-0.6-0.1-0.9
	c0-1.4,0.2-1.5,0.3-1.6s0.3,0.2,0.5,0.1s0,0.2,0.1-0.3c0.1,0.7,0.2,0.2,0.2,0.3s0.3,0.9,0.4,0.2c0.1,0.3,0.2,0.6,0.3,0.5
	s0.3-0.4,0.4-0.5s0.3-0.5,0.5-0.7c0,0,0.1,0.1,0.1,0s0-0.3,0-0.3s0.2,0.4,0.3,0.4s0.1-0.3,0.1-0.3c0.2-0.3,0.3,0.5,0.5,0.3
	s0.1-0.3,0.1-0.3s0.2,0.3,0.2,0.3s0.3-0.5,0.5-0.2v-0.3C83.1,49.8,83.1,50.3,83.1,50.8L83.1,50.8z"/>
<path class="st5" d="M79.9,53.5c0,1.2-0.2,0.1-0.3,0.2s-0.1,0.3-0.1,0.3s-0.2,0.2-0.3,0.2s0-0.3,0-0.4S79.1,54,79.1,54s0-0.4,0-0.4
	s0,0.1-0.1,0.1c-0.2,0-0.6,0.4-0.7-0.4c-0.3,0.5-0.5,0.4-0.7,0.6s-0.3,0.2-0.4,0.2S77,54.4,77,54.4s-0.2,0-0.4,0.1
	c-0.5,0.3-0.2-1.2-1-0.7c0.4-0.7-0.1-0.2-0.2-0.3s0.1-0.5-0.2-0.6c-0.1-0.1-0.1-0.2-0.2-0.3s-0.7-0.2-0.7-0.4s0.6-0.2,1-0.2l0.8,0.2
	h0.4c0.1,0,0.2-0.1,0.3-0.2c0,0-0.1,0.1,0,0.1s-0.1,0.2,0.2-0.2c-0.3,0.6,0,0.2-0.1,0.3s-0.1,0.9,0.2,0.3c0,0.4,0,0.6,0.1,0.6
	s0.4-0.3,0.5-0.3s0.4-0.4,0.6-0.6c0,0,0,0.1,0.1,0.1s0.1-0.3,0.1-0.3s0.1,0.4,0.2,0.4s0.1-0.2,0.1-0.3c0.2-0.2,0.2,0.5,0.4,0.4
	s0.1-0.3,0.1-0.3s0.1,0.3,0.2,0.3s0.3-0.5,0.4-0.2V52C79.9,52.5,79.9,53,79.9,53.5L79.9,53.5z"/>
<path class="st5" d="M82.6,53c-0.2,1.1-0.2,0.1-0.4,0.1s-0.1,0.3-0.1,0.3s-0.2,0.2-0.3,0.2s0-0.3,0-0.4s-0.1,0.3-0.1,0.3
	s0-0.4,0-0.4s-0.1,0.1-0.1,0.1c-0.3,0-0.6,0.3-0.7-0.4c-0.3,0.5-0.5,0.4-0.8,0.5c-0.1,0.1-0.3,0.2-0.5,0.2s-0.2,0.2-0.2,0.2
	s-0.3,0-0.4,0.1c-0.5,0.3-0.2-1.3-0.9-0.5c0.3-0.8-0.1-0.2-0.1-0.2s0-0.4-0.2-0.3s-0.1,0-0.2,0c-0.1,0.2-0.2,0.4-0.4,0.5
	c0.1-0.3,0.2-0.6,0.3-0.9c0.6-1.2,0.8-1.3,1-1.3s0.2,0.3,0.4,0.3c0,0,0,0.2,0.2-0.3c-0.2,0.7,0.1,0.3,0.1,0.4s-0.1,0.9,0.3,0.4
	c0,0.4,0,0.6,0.1,0.6s0.4-0.3,0.6-0.3s0.5-0.4,0.7-0.6c0,0,0,0.1,0.1,0.1s0.1-0.3,0.1-0.3s0.1,0.4,0.2,0.4c0.1-0.1,0.1-0.2,0.1-0.3
	c0.2-0.2,0.3,0.5,0.5,0.4c0,0,0.1-0.3,0.1-0.3s0.1,0.3,0.2,0.4s0.4-0.5,0.5-0.2c0-0.1,0-0.2,0.1-0.3C82.7,52,82.7,52.5,82.6,53
	L82.6,53z"/>
<path class="st5" d="M79.5,55.3c-0.1,1.2-0.3,0.1-0.3,0.1s-0.1,0.3-0.2,0.3s-0.2,0.2-0.3,0.1s0.1-0.3,0-0.4s-0.1,0.3-0.1,0.3
	s0.1-0.4,0.1-0.4s-0.1,0.1-0.1,0.1c-0.2-0.1-0.7,0.1-0.5-0.6C77.5,55.2,77.3,55,77,55c-0.2,0-0.4,0-0.5-0.1c-0.1,0-0.2,0.1-0.3,0
	s-0.2-0.2-0.4-0.2c-0.3-0.1-0.2-0.4-0.1-0.7s0.2-0.5-0.3-0.5c0.8-0.3,0.1-0.2,0-0.3s0.3-0.3,0.2-0.6s0-0.2,0-0.3s-0.5-0.5-0.4-0.6
	s0.6,0.2,0.9,0.3c0.3,0.3,0.6,0.6,1,0.8c0,0,0.1,0,0.1,0h0.2c-0.2,0-0.1,0.1-0.1,0.1s-0.2,0.1,0.3,0c-0.6,0.2-0.2,0.2-0.3,0.3
	s-0.7,0.6-0.1,0.4c-0.3,0.2-0.4,0.4-0.3,0.5s0.4,0,0.6,0c0.3,0,0.6-0.1,0.8-0.3v0.1l0.2-0.2c0,0-0.1,0.4-0.1,0.4s0.2-0.2,0.2-0.2
	c0.2-0.2,0,0.5,0.1,0.4s0.1-0.3,0.2-0.3s0,0.3,0,0.4s0.3-0.5,0.3-0.2v-0.3C79.5,54.5,79.6,53.9,79.5,55.3z"/>
<path class="st1" d="M58,14.2h0.2l0.3-0.1c0.2,0,0.3-0.1,0.5-0.2c0.2-0.1,0.4-0.1,0.6-0.2c0-0.1,0.5-0.2,0.5-0.3
	c0.4-0.1,0.9-0.1,1.3-0.1c0.2,0.3,0.3,0.8,0.2,1.1c-0.1,0.3-0.2,0.6-0.4,0.9c-0.1,0.4-0.3,0.7-0.5,1.1c-0.1,0.1-0.2,0.1-0.3,0.2
	s0,0.3-0.1,0.4s-0.2,0.1-0.2,0.1c-0.1,0.1-0.1,0.3-0.2,0.4c-0.1,0.1-0.1,0.2-0.2,0.4c0,0.1,0,0.3,0,0.4c0.1,0.1,0.4,0.2,0.5,0.2
	s0.1,0.1,0.2,0.2s0.2,0.1,0.2,0.1s-0.1,0.3,0,0.5s0.3,0.3,0.6,0.4s0.1,0.2,0.2,0.3s0.2-0.1,0.2-0.1s0.1,0.2,0.1,0.2
	c0.2,0.1,0.7,0.1,1,0.3c0.3,0.2,0.6,0.4,0.9,0.5c0.2,0.1,0.7-0.1,1,0.1c0.1,0.2,0.3,0.3,0.3,0.5c0.1,0.2,0,0.7,0.1,1
	c0,0,0.1,0,0.1,0.1c0,0.2-0.1,0.4-0.1,0.6c0.2,0.5,0.3,1,0.4,1.5c0,0.5,0.1,0.9,0.1,1.5c0,0.3,0.2,0.7-0.3,0.9c0.1,0.2,0,0.5,0,0.8
	s0.1,0.8-0.6,0.7s-0.4-0.3-0.8-0.5c0.3-0.4,0.4-0.8,0.4-1.2c0-0.1-0.2-0.3-0.2-0.4s0.2-0.5,0.1-0.7s-0.2-0.2-0.2-0.3
	s0.1-0.2,0.1-0.3S64,25,64,24.9c-0.1-0.3,0.2-0.7-0.2-0.8c0.1-0.4,0-0.8-0.2-1c-0.3-0.3-0.7-0.5-1.1-0.5c-0.2,0-0.6,0.3-0.8,0.3
	c-0.2,0-0.4-0.1-0.5-0.2c-0.1-0.1-0.1-0.2-0.1-0.3s-0.5-0.1-0.8-0.2s-0.6-0.6-1-0.7c0,0-0.1,0.1-0.2,0.1s-0.1-0.1-0.2-0.1
	c-0.2,0-0.5,0.1-0.8,0.1c-0.5-0.4-0.3-1.3-0.4-1.8c-0.2-0.8-0.3-1.5-0.2-2.3c0,0,0.1,0,0.1-0.1c0,0-0.1-0.1-0.1-0.1
	c0-0.1,0.2-0.1,0.3-0.2c0.1-0.2,0.3-0.4,0.3-0.7c0-0.2,0-0.4,0-0.5s0.2-0.1,0.3-0.2c0.1-0.3-0.1-0.7-0.1-0.9s-0.1-0.4-0.4-0.4
	L58,14.2z M64.8,3c0.4,0.1,0.7,0.2,1.1,0.2c0.2,0.1,0.4,0.2,0.7,0.3c0.1-0.1,0.5,0.3,0.5,0.1c0.4,0.4,0.6,0.6,1,0.9
	c0.1,0.5-0.4,0.7-0.7,1.1c-0.1,0.3-0.3,0.7-0.3,1c0,0.1-0.2,0.2-0.2,0.3s0.1,0.4,0,0.5s-0.2,0.2-0.2,0.3v0.8c0,0.3-0.1,0.5-0.1,0.8
	c0,0.3,0,0.5,0.1,0.8c0.1,0.2,0.4,0.4,0.6,0.6s0.2,0.4,0.3,0.5c0.1,0.2,0.2,0.3,0.3,0.5c0,0.2-0.1,0.5,0,0.7c0.2,0.4,0.4,0.7,0.6,1
	c0.1,0.1,0,0.3,0.1,0.4s0.2,0,0.3,0.1s0,0.2,0.1,0.3c0.3,0.3,0.6,0.6,0.9,0.8c0.2,0.3,0.5,0.6,0.8,0.8c0.3,0.1,0.9,0.2,1.3,0.8
	c0.1,0.3,0.2,0.7,0.2,1.1c0,0.3-0.4,0.7-0.5,1.1c0,0,0.1,0.1,0.1,0.1c-0.2,0.2-0.3,0.4-0.4,0.6c-0.1,0.5-0.1,1.2-0.2,1.9
	c-0.1,0.6-0.1,1.3,0,1.9c0,0.4,0.2,0.9-0.3,1.2c0.2,0.2,0,0.6,0.1,1.1s0.2,1.1-0.5,1s-0.4-0.4-0.8-0.6c0.2-0.6,0.3-1.2,0.3-1.8
	c0-0.2-0.2-0.4-0.2-0.6s0.2-0.7,0.2-1S70,22.4,70,22.2s0-0.2,0-0.4s-0.1-0.3-0.1-0.5c0-0.5,0.5-1,0.1-1.5c0.3-0.5,0.5-1.1,0.5-1.7
	c0-0.5-0.5-0.7-1.1-1c-0.3-0.1-0.8,0-1.2-0.2c-0.2-0.2-0.4-0.4-0.6-0.6c-0.1-0.1,0-0.3-0.1-0.4c-0.2-0.3-0.5-0.5-0.8-0.8
	s-0.4-1-0.7-1.3h-0.2c-0.1,0,0-0.1-0.1-0.2c-0.3-0.1-0.5-0.2-0.8-0.2c-0.4-0.6-0.1-1.3-0.1-1.9c-0.1-0.8-0.4-1.6-0.5-2.6
	c0,0,0.1-0.1,0.1-0.2c-0.1,0-0.1-0.1-0.2-0.1c0-0.1,0.2-0.2,0.2-0.3c0.1-0.3,0.1-0.6,0.1-0.9c0-0.2-0.1-0.4-0.1-0.7
	c0-0.2,0.2-0.3,0.2-0.5c-0.1-0.5-0.1-1.1-0.1-1.6c0.2-0.5,0.2-1,0-1.4C64.6,3.2,64.7,3.2,64.8,3L64.8,3z M79.2,10.6
	c0.4-0.1,0.7-0.3,1-0.5c0.2-0.1,0.4-0.2,0.7-0.2c0-0.1,0.5-0.2,0.5-0.3c0.5-0.1,0.8-0.1,1.3-0.1c0.4,0.4,0.2,0.9,0.2,1.4
	s0.1,0.8,0.1,1.1c0,0.1-0.1,0.3-0.1,0.4s0.1,0.4,0.1,0.5s-0.1,0.2-0.2,0.3c0,0.2,0,0.5-0.1,0.8s-0.2,0.5-0.2,0.7
	c-0.1,0.2-0.1,0.5-0.2,0.7c0,0.2,0.2,0.5,0.2,0.8c0,0.2,0,0.4-0.1,0.6c0,0.2,0,0.4-0.1,0.6c-0.1,0.2-0.4,0.3-0.6,0.4s-0.3,0.6-0.5,1
	c-0.1,0.1-0.3,0.2-0.3,0.3s0,0.2,0,0.3s-0.2,0.1-0.3,0.1c-0.2,0.2-0.3,0.7-0.6,1s-0.6,0.5-0.7,0.7s0,0.6-0.1,0.8s-0.2,0.2-0.4,0.2
	s-0.6,0-0.8,0.2c0,0,0.1,0.1,0,0.1c-0.2,0-0.3,0.1-0.5,0.2c-0.2,0.4-0.5,0.8-0.6,1.2c-0.2,0.4-0.3,0.9-0.2,1.3
	c0,0.3,0.2,0.7-0.3,0.8c0.1,0.2,0,0.5,0.1,0.8s0.2,0.7-0.4,0.8s-0.4-0.2-0.8-0.4c0.2-0.5,0.3-1,0.3-1.5c0-0.2-0.2-0.3-0.1-0.5
	s0.3-0.5,0.3-0.8s-0.1-0.3-0.1-0.5s0.2-0.2,0.2-0.4s0-0.3,0-0.4c0.1-0.4,0.7-0.6,0.5-1.1c0.4-0.3,0.8-0.6,1.1-1
	c0.3-0.4,0.6-0.9,0.7-1.5c0.1-0.2-0.1-0.7-0.1-0.9c0.1-0.2,0.2-0.3,0.3-0.4c0.1,0,0.2,0,0.3,0s0.2-0.4,0.3-0.6s0.6-0.4,0.5-0.7
	c0,0-0.1-0.1-0.1-0.1s0.1-0.1,0.1-0.1c-0.1-0.2-0.3-0.4-0.4-0.5c0-0.4,0.7-0.5,1-0.8s0.3-1,0.3-1.6c0,0,0.1,0,0.1-0.1
	s-0.1-0.1-0.1-0.1s0.2-0.1,0.2-0.2c0.1-0.2,0.1-0.4,0.1-0.6c0-0.1-0.2-0.3-0.2-0.4s0.2-0.2,0.1-0.3s-0.4-0.6-0.6-0.9
	s-0.2-0.5-0.7-0.6C79.2,10.7,79.3,10.7,79.2,10.6L79.2,10.6z"/>
</svg>
