<svg xmlns="http://www.w3.org/2000/svg" viewBox="0 0 190 92"><path d="M84.15 68.62c8.84 5.36 18.14 10 27.07 15.2s18.41 8.16 28.87 6.56a47.65 47.65 0 0 0 25.55-12.93c7.44-7.25 11.77-16.78 16.17-26 3.28-6.88-7-12.93-10.28-6-7.27 15.25-15.76 31.32-34.53 33.42-9.14 1-16.45-3.36-24-7.91s-15.4-8.1-22.84-12.62c-6.56-4-12.55 6.3-6 10.28z"/><path d="M40.35 27.33c-13.7-.07-33.22 0-38 16.37-1.77 6.08-.48 13 4.18 17.48C12 66.35 20.65 66.7 27.61 68c2.58.47 7.36.6 8.71 2.91.62 1.06.53 2.89 1.06 4.12A10.55 10.55 0 0 0 41 79.6c5.83 4.23 15 4.24 21.82 3.3 15.51-2.15 27.92-12 36.63-24.61 4.18-6-4.49-11-9.35-7.22a56 56 0 0 1-23.71 10.68 52.81 52.81 0 0 1-11.39.93c-2.42 0-3.77.08-5.38-1.64-1.29-1.36-2.12-3.55-3.18-5.11-4.59-6.76-10.2-11.2-18.55-11.85-2.28-.18-4.55 0-6.83-.08a25.64 25.64 0 0 1-3.51-.21q-2.7 7.86 1.6 5.13c2.14-.13 4.26-1.21 6.51-1.33a22.54 22.54 0 0 1 6.59.74V36.85a13.83 13.83 0 0 1-4.54-.17c-7.49-1.44-10.7 10-3.17 11.48a30.78 30.78 0 0 0 10.87.17c6-.87 5.38-10.17 0-11.48-7.54-1.85-32-1.71-28.5 11.86 1.41 5.52 7.57 6.89 12.44 7.16 6.79.36 12-.68 16.38 5.45 3.17 4.4 5.1 10 10.58 12.07S59 74.75 64.76 74a68.84 68.84 0 0 0 33.76-14.5l-9.35-7.21C82.92 61.31 74 68.66 63 70.87a32 32 0 0 1-8.57.52 18.54 18.54 0 0 1-5.12-.9c-.34-.14-1.59-.79-1 .05-1.2-1.74-.85-4.77-2.13-6.77A13.48 13.48 0 0 0 40.32 59c-4.85-2.21-10.55-2.64-15.74-3.59-3.86-.71-10.62-.75-11.07-5.8-1.09-12.17 19.9-10.41 26.84-10.38 7.66 0 7.67-11.86 0-11.9z"/><path d="M100.53 26.5s-32-40-67-16 13 48 16 54-1 13 15 10 57-20 36-48z" fill="#ce9b57"/><path d="M100.57 26.79c-.12-.72.38-.29 1 .52.32.39.69.88 1 1.35s.59 1 .81 1.33l.69 1.18c.23.4.39.83.57 1.22.34.79.69 1.47.83 2s.31.56.42.88a21.17 21.17 0 0 1 1 8.22c-.06.5.06.33 0 .5a1.62 1.62 0 0 1-.19.48c-.07.64 0 .67-.07 1.23a22.89 22.89 0 0 1-4.38 9c-3.35 4.45-7.4 7.49-12.18 10.51-1.43.89-2.82 1.8-4.32 2.59-3 1.57-6 2.67-8.56 3.75-1.15.38-.35.51-1.2.85a12.75 12.75 0 0 1-2.36.58 51 51 0 0 1-7.6 2.29c-.91.22-1.8.44-2.71.62a22.07 22.07 0 0 1-2.76.51A15 15 0 0 1 54 76l-.73-.33a2.94 2.94 0 0 1-.76-.44l-.75-.58c-.21-.23-.42-.48-.62-.74a9.89 9.89 0 0 1-1.44-3.14c-.36-1.21-.7-2-1-2.92-.16-.51-.37-1-.56-1.54l-.36-.72a.89.89 0 0 0-.08-.17l-.07-.07a.86.86 0 0 1-.13-.14c-.22-.2-.4-.4-.67-.63l-.83-.7c-.59-.46-1.21-.94-1.88-1.44-1.34-1-2.8-2.09-4.44-3.38-1.41-1.12-3-2.38-4.08-3.37-.26-.23-.42-.25-.59-.42s.06-.1-.3-.41c-1.65-1.44-2.57-2.16-4.52-4.07-.9-.9-1.57-1.55-2.16-2.18s-1.15-1.16-1.79-1.88-1.4-1.72-2.05-2.52-1.08-1.46-1.62-2.16-1-1.49-1.47-2.25a20.33 20.33 0 0 1-2.29-5.6 18.74 18.74 0 0 1-.5-3.56 17 17 0 0 1 .32-3.52 12.07 12.07 0 0 1 .74-2.35c.18-.48.32-.92.46-1.37a14 14 0 0 1 .61-1.35c.18-.37.22-.31.63-1.16a27.73 27.73 0 0 1 2.48-3.59c.33-.4.67-.8 1-1.19L25.68 15l1.14-1L28 13a53 53 0 0 1 4.79-3.39c1.29-.75 2.6-1.67 4-2.48l2.19-1.19c.73-.41 1.53-.69 2.28-1a38.12 38.12 0 0 1 20.63-2.57 46.26 46.26 0 0 1 6.58 1.52 49.86 49.86 0 0 1 5.33 2.22c.92.41 1.86.79 2.76 1.23l1.35.66 1.28.69c1.86 1 3.48 2 5.49 3.36 1.2.82 2.45 1.79 3.46 2.53.68.47 1.34.83 2 1.32.47.35.92.82 1.43 1.26.67.55 1.42 1.2 2 1.71.8.75 1.48 1.53 2.19 2.2s1.83 1.53 2.68 2.36a10.11 10.11 0 0 1 2.31 2.76c.06.91-1.43-.95-1.92-1.46-2-1.68-4.45-4.22-7-6.35-1.68-1.37-3.31-2.55-5.09-3.8-1.36-1-2.79-1.95-4.29-2.91a56.12 56.12 0 0 0-10.08-5 44.74 44.74 0 0 0-8.71-2.4 23.65 23.65 0 0 0-7.41-.14 17.35 17.35 0 0 0-2.39.06 18.27 18.27 0 0 0-2.41.31 37.82 37.82 0 0 0-4.42 1c-.71.21-1.41.49-2.11.73l-1 .37c-.34.14-.68.3-1 .45l-2 .92c-.65.34-1.29.72-1.94 1.08a41.11 41.11 0 0 0-3.76 2.39 48.09 48.09 0 0 0-5.5 4.44A14.35 14.35 0 0 0 28 17.66l-.74.88-.66.94a16.79 16.79 0 0 0-3.27 6.78 13.72 13.72 0 0 0 .55 6.6c1.42 4.81 5.16 9.67 8.84 13.64 1.31 1.43 2.56 2.82 4 4.2s3.16 2.79 4.76 4.16c1.43 1.23 2.79 2.52 4.31 3.76 1 .84 2.17 1.71 3.19 2.66a10.66 10.66 0 0 1 .93 1l.46.54c.16.21.32.49.47.73a11.73 11.73 0 0 1 .91 2.6c.4 1.69.5 3.32.85 4.67a3.7 3.7 0 0 0 2.4 2.72l.94.28c.32.09.67.12 1 .19a11.86 11.86 0 0 0 2.08.14 30.85 30.85 0 0 0 4.29-.42c1.43-.18 2.81-.5 4.2-.79 1.17-.27 2.63-.59 3.72-.74 3.53-1.27 8.46-2.58 11.85-4.62a50.65 50.65 0 0 0 6-3 49.14 49.14 0 0 0 6.27-4.25A38.44 38.44 0 0 0 101 55a27.09 27.09 0 0 0 3.92-6.29 12 12 0 0 0 .73-1.75c.44-1.4.43-2.88.76-4-.07-.68 0-1.44-.12-2.25 0-.41-.09-.83-.13-1.27 0-.21 0-.43-.07-.65l-.14-.67q-.14-.66-.27-1.35c-.08-.46-.27-.89-.39-1.34l-.43-1.33-.56-1.25a26.69 26.69 0 0 0-1.78-3.35 19.8 19.8 0 0 1-1.95-2.71z" fill-rule="evenodd"/><path d="M98.53 36.5c-3.55-5.33-17-7-30 3s-13 17-12 21 5 9 15 7c34.78-6.96 31-25 27-31z" fill="#fff"/><path d="M98.25 35.55c-1.78-.95-3.41-2.22-5.26-3s-3.78-.64-5.74-.63H87a2.38 2.38 0 0 1-1.88 1 33 33 0 0 0-12.34 3.49 2.33 2.33 0 0 1-1.09 1.42c-2.08 1.25-4 2.64-6.06 4a2 2 0 0 1-.63.86c-.8.65-1.59 1.3-2.4 1.94-3.59 3.35-5.26 7.81-5.73 12.61 1.72-2.54 4.69-4.53 7.47-6.33a6.78 6.78 0 0 1 6.49-7c1.7-1.09 2.75-2.42 4.66-3.76s4.28-1.15 6.46-1.82c1.75-.55 2.76-1 4.67-.56 2.93.73 5.08 2.18 8.22 2.33A2.39 2.39 0 0 1 97 41.42a7 7 0 0 0 2.68-5.58 2.52 2.52 0 0 1-1.43-.29z" fill="#30a565"/><path d="M96.78 32.84a5.83 5.83 0 0 1 1.63 1.9 3.16 3.16 0 0 1 .31 1.63c-.63-.29-.83.1-1 .26-.45-.31-.67-.2-1.14-.38-.59-.41-.46-.6-1-.88a21.66 21.66 0 0 0-5.28-1.57 21.12 21.12 0 0 0-5.73-.18 28.21 28.21 0 0 0-8 2.26c-.47.15-1 .42-1.54.66a16.57 16.57 0 0 0-1.75.86 46.68 46.68 0 0 0-7.72 5.47c-.69.55-1.31 1.11-1.92 1.67A19 19 0 0 0 62 46.31a25.26 25.26 0 0 0-4 6.38c-.14.41-.28.8-.38 1.19s-.17.77-.26 1.13-.31.9-.35 1.37a10.66 10.66 0 0 0 .27 3.95 8.71 8.71 0 0 0 4.26 5.54 11.06 11.06 0 0 0 3.87 1.23 18.87 18.87 0 0 0 4.44 0c.53-.12.52-.36 1.1-.47a47.55 47.55 0 0 0 12.37-3.49c.25-.11.68-.23.94-.35 1.54-.8 3.58-1.78 5.56-3a27.58 27.58 0 0 0 5.3-4.11A16.85 16.85 0 0 0 98.83 50a15.14 15.14 0 0 0 .75-3 13 13 0 0 0 0-2.79c-.17-1.6-.86-3.32-1.16-4.95-.17-1.22 0-2.87.49-2.93.31 0 1 .62 1.22.79 0 0 0-.51.15.14a11.24 11.24 0 0 1 1.89 6.24 13 13 0 0 1 0 2.37 17.17 17.17 0 0 1-.46 2.31 18.25 18.25 0 0 1-.57 2.29 16.63 16.63 0 0 1-3.66 5.39 26.5 26.5 0 0 1-3.82 3.52 39.08 39.08 0 0 1-10 5.23l-4.33 1.6c-2.09.54-4.74 1.08-7.39 1.61-.66.14-1.35.21-2 .33s-1.34.12-2 .16a16.73 16.73 0 0 1-3.58-.31 11.25 11.25 0 0 1-2.87-.82 7.87 7.87 0 0 1-1-.59c-.31-.23-.59-.49-.91-.72a10.32 10.32 0 0 1-3.3-5.21 11.78 11.78 0 0 1-.44-3.77 16.48 16.48 0 0 1 3.19-8.47 36.64 36.64 0 0 1 6.33-6.91c.67-.62 1.3-1 1.86-1.49a14.73 14.73 0 0 0 1.64-1.56c.71-.46 1.34-1 2-1.42l2-1.28a36.91 36.91 0 0 1 7.29-3.21c.2-.08.48-.24.66-.29a24.73 24.73 0 0 1 2.56-.53 17.75 17.75 0 0 1 2.26-.46 23.75 23.75 0 0 1 7.67.46 16.56 16.56 0 0 1 3.48 1.11z" fill-rule="evenodd"/><path d="M100.79 48.43c-.52.3-.81 0-1.22 0a18.24 18.24 0 0 1-1.4-3.43 7.82 7.82 0 0 0-2.09-3.35 4.09 4.09 0 0 0-1-.64c-.39-.15-.8-.26-1.18-.37a13.1 13.1 0 0 0-1.31-.24c-.47-.11-1-.14-1.5-.21s-1-.12-1.39-.23a3.49 3.49 0 0 1-1.07-.46c-.19-.15-.38-.34-.6-.54a4.59 4.59 0 0 0-.76-.52 5.33 5.33 0 0 0-1.45-.63 4.2 4.2 0 0 0-1-.13 2.83 2.83 0 0 0-1 .23c-.58.23-.83.93-1.32 1.3s-1.15.15-1.52.84a1.56 1.56 0 0 0-.71-.54 5.51 5.51 0 0 1-1.24.08h-1.34a3.69 3.69 0 0 0-2.41.68 3.41 3.41 0 0 0-.7.81c-.18.33-.34.67-.5 1a3.85 3.85 0 0 1-1.29 1.63 5.1 5.1 0 0 1-1.89.58 12.19 12.19 0 0 0-2 .49 6.27 6.27 0 0 0-1.57 1A4.66 4.66 0 0 0 66 47.34c-.32.65-.1 1.34-.25 2 0 .2-.31.4-.41.67a3.57 3.57 0 0 1-.75 1.65l-.66.45c-1 .66-2.38 1-3.4 1.78-.13.1-.2.39-.39.56a3.86 3.86 0 0 1-.39.14c-.15.17-.16.51-.34.73a3.32 3.32 0 0 0-1.15 2.73c-.58.5-.12 2.93-1.31 2.6-.54-.13-.45-.56-.48-1.14v-1.2a9.83 9.83 0 0 1 .74-2.65c0-.1-.09-.28 0-.42a9.27 9.27 0 0 1 .83-.84c.25-.31.43-.76.65-1s.62-.28.91-.49.58-.61.87-.79.64-.13 1-.29c.12-.06.24-.29.43-.38a2.12 2.12 0 0 0 .85-.49c.28-.24.79-.38 1.12-.83a3.09 3.09 0 0 0 .35-2.08c.47-.74.87-1.66 1.4-2.6a5.83 5.83 0 0 1 2.35-2.32 9 9 0 0 0 2.7-.35 5.06 5.06 0 0 0 1.35-.24 8.22 8.22 0 0 0 1.48-2.09 5.92 5.92 0 0 1 1.64-1.93 5.09 5.09 0 0 1 1.07-.41c.49-.11 1-.21 1.45-.26.88-.12 1.84.44 2.66.39a2.85 2.85 0 0 0 1.65-.58c.45-.34.85-.83 1.37-1.28a19.88 19.88 0 0 1 3.57.08 6.54 6.54 0 0 1 1.66.91c.28.18.54.33.81.54a3.22 3.22 0 0 0 1.58.73 7.45 7.45 0 0 0 1.85.08 5.36 5.36 0 0 1 1.57.14 7.45 7.45 0 0 1 1.37.47 6.67 6.67 0 0 1 .76.37 4.15 4.15 0 0 1 .59.49 10.45 10.45 0 0 1 .92 1.32c.26.38.61.8.82 1.19.28.57.53 1.17.77 1.74s.4 1.17.62 1.69c.23.87.87 1.4.56 2.3zM33.23 24.47c-.08.38-.31.37-.42.21s-.11-.38-.18-.47-.24 0-.28-.09a1.11 1.11 0 0 1-.25-.67c0-.07.24-.08.28-.12s-.21-.12-.19-.15.25 0 .26 0-.06-.12 0-.17c.21-.5.69-1.1 1.33-.84a1.13 1.13 0 0 1 .49-.48c.19-.09.34-.23.24-.25s-.19-.07-.33-.37c0-.09-.19-.14-.25-.24a2.6 2.6 0 0 1-.2-.81 1.06 1.06 0 0 1 .22-.87 1.33 1.33 0 0 1 .89-.54c.67-.05.85.17 1.16-.17.1.54.25.08.4.09s.36.25.6.12.2 0 .28-.06.16-.42.25-.43a2.23 2.23 0 0 1 .15.64c-.08.92-.39 1-.59 1.08s-.69-.17-1-.1c0 0-.1-.17-.14.21-.17-.45-.38-.15-.49-.23s-.18-.19-.31-.21-.23.1-.06.26c-.27 0-.45.23-.4.41a3.08 3.08 0 0 0 .46.76 1 1 0 0 1 .22.88 1.55 1.55 0 0 1-.76.84h-.18c-.04 0 0 .23 0 .23s-.38-.15-.51-.07 0 .2 0 .25-.18.12-.31.11-.27 0-.27.12.17.1.18.11-.22 0-.23.12.09.15.17.14.11-.06 0 0a.51.51 0 0 0-.09.12c-.11.1-.11-.28-.14.64zM58.08 11.29c-.68.38-.2-.15-.36-.26s-.17.1-.21.09-.23 0-.31 0 .06-.23 0-.27-.12.2-.12.19.07-.24.05-.25-.07.07-.1.06c-.29-.09-.59.15-.86-.32-.22.36-.45.34-.71.49s-.23.21-.36.26-.07.16-.11.21-.2.07-.26.16-.23 0-.39-.07-.32-.09-.16.19c-.41-.35-.11 0-.13 0s-.27 0-.16.07 0 0 0 .06a1.31 1.31 0 0 0 .43 0 2.37 2.37 0 0 0-.63.06c-.92.14-1-.2-1.05-.4 0-.37.39-.51.5-.73 0 0 .18.06-.07-.24.41.23.32-.08.5-.09s.56.37.6-.08c.18.2.31.31.41.26s.31-.29.47-.37.4-.38.67-.54h.12c.04 0 0-.22.07-.22s.25.26.39.24.09-.17.13-.19c.3-.16.5.36.76.35 0 0 .15-.17.18-.16s.2.29.31.37.71.06.8.45a.75.75 0 0 1 .22-.08c-.27.41.14.26-.62.76zM38.2 41c.13.77-.18.12-.27.16s0 .2 0 .21-.17.16-.27.15 0-.23-.06-.26 0 .23 0 .22v-.26c0-.01 0 .09-.06.09a1.69 1.69 0 0 1-.39 0c-.13 0-.25-.18-.14-.41-.39.13-.5-.23-.61-.44s-.19-.21-.22-.31-.15-.07-.19-.11 0-.17-.12-.25c-.28-.27.74-.51.13-.76.53 0 .07-.11.08-.17s.25-.15.12-.25 0-.08-.07-.12-.41-.07-.43-.11a4.22 4.22 0 0 1 .64-.05c.92 0 1 .16 1.08.25s-.16.29-.09.43-.16 0 .22.06c-.45.07-.15.15-.23.22s-.59.23-.17.35c-.24.07-.38.15-.35.23s.24.24.3.37a.56.56 0 0 0 .22.21h.15-.09.07c-.06 0 0 0 0 0a.54.54 0 0 0 .06-.11s.06-.17 0-.08 0 .19 0 .15v-.21c0-.01.07.21.12.22s.15-.35.29-.2a1.22 1.22 0 0 1 0-.22 9.43 9.43 0 0 1 .28 1zM45.18 51.58c0 .39-.11.42-.22.35s-.21-.25-.29-.26-.15.17-.21.16a1.22 1.22 0 0 1-.51-.09s.06-.23 0-.28-.17.16-.18.14.12-.22.1-.24-.1 0-.14 0c-.3-.24-.81-.48-.58-1-.45-.09-.56-.45-.75-.81a2.22 2.22 0 0 1-.29-.55c0-.07-.16-.12-.2-.19s-.05-.35-.12-.5c-.27-.54.78-.93.18-1.38.54 0 .09-.17.09-.28s.25-.25.12-.41 0-.13-.08-.18-.43-.07-.44-.12a3.88 3.88 0 0 1 .61-.17c.92-.08 1 .17 1.12.33s-.14.57-.08.83c0 0-.17.07.21.11-.46.12-.16.27-.25.4s-.61.38-.2.61c-.24.12-.39.26-.36.4a4.71 4.71 0 0 0 .33.63 1.81 1.81 0 0 0 .62.61v.11c0 .03.22 0 .23 0s-.15.3-.07.39.18 0 .23 0c.24 0 0 .5.2.57 0 0 .17-.13.19-.12s0 .26.07.31.33-.23.41-.06v-.23c.08.44.08.03.26.92zM84.93 19.72c-.79-.06-.09-.27-.14-.43s-.2-.05-.22-.09-.17-.19-.19-.29.21-.1.24-.14-.24 0-.23 0 .23-.09.23-.11-.1 0-.11-.05c-.11-.3-.47-.43-.24-.92-.42 0-.55-.2-.82-.31s-.3 0-.42-.1-.16.06-.22.07-.18-.11-.3-.09-.22-.19-.29-.39-.18-.35-.41-.11c.13-.52-.1-.11-.16-.13s-.11-.28-.26-.19-.1 0-.14.05-.13.41-.16.42a5.37 5.37 0 0 1 0-.64c.08-.92.32-1 .47-1s.44.25.67.26c0 0 0 .18.16-.17 0 .46.18.23.26.35s0 .68.4.4c0 .27 0 .45.09.49s.44 0 .62.12.58.1.88.24v.13c0 .03.21-.08.22-.06s-.06.38 0 .48.2 0 .25 0c.29.16 0 .61.13.81h.24c.02 0-.12.31-.12.43s.44.43.27.72a.59.59 0 0 1 .23 0c-.45.14-.03.23-.93.25zM60 70.25c-.17.75-.19 0-.29 0s-.07.18-.1.19-.17.11-.24.09 0-.23 0-.27-.06.23-.07.22 0-.25 0-.26 0 .09-.07.09c-.19 0-.44.21-.56-.28-.19.34-.35.29-.55.39s-.21.16-.33.17-.1.14-.16.16-.22 0-.36 0-.37-.22-.44-.46-.09-.43-.46-.48c.45-.3 0-.19 0-.32s.19-.29.08-.48 0-.15 0-.24-.33-.31-.28-.42.41.1.61.21a4.84 4.84 0 0 0 .69.53h.18s-.09 0-.05.06-.14.09.2-.09c-.38.23-.1.11-.16.17s-.25.55 0 .22c-.06.23 0 .4 0 .39s.26-.17.37-.22.31-.3.49-.42h.07c.07 0 .06-.21.07-.21s.11.28.18.27.07-.17.1-.2.24.34.38.28.07-.2.09-.2.1.22.16.25.3-.3.41-.1a1.06 1.06 0 0 1 .06-.22 4.69 4.69 0 0 1-.02 1.18z" fill-rule="evenodd"/><path d="M182.53 33.5c-5-10-13-23-31-22s-40 3-52 19-5 33 11 45 25 9 31 8 53-26 41-50z" fill="#ce9b57"/><path d="M181.61 36.84c-.12-1.12.39-1.38.12-2.6.91 1.3.69-.62.74-.72a7.73 7.73 0 0 1 3.18 3.48 18.22 18.22 0 0 1-.22 8 34.13 34.13 0 0 1-8.91 16.32A96.46 96.46 0 0 1 163.13 73c-1.45 1-3 1.74-4.51 2.65-3.21 1.93-6.8 4.11-10.16 5.87-1.48.78-3 1.49-4.49 2.12a13.29 13.29 0 0 1-2.43.77l-2.31.44a30.33 30.33 0 0 1-9.56.48 32.56 32.56 0 0 1-9.33-2.76 51.8 51.8 0 0 1-8.81-5.23c-.62-.46-1.58-.92-2.19-1.46-1.06-.91-2-1.93-3-3l-1.76-1.63-1.7-1.75a24.13 24.13 0 0 1-1.68-1.82c-.53-.64-1.11-1.24-1.6-1.91a29.9 29.9 0 0 1-4.7-8.34 7.32 7.32 0 0 1-.53-2.61 6.18 6.18 0 0 1-.74-2.15 20.42 20.42 0 0 1-.37-2.67c-.06-.43-.12-.88-.17-1.32v-1.37a14.8 14.8 0 0 1 .08-2.75 15.13 15.13 0 0 1 .39-2.56 16.31 16.31 0 0 1 .75-2.07 7.86 7.86 0 0 1 .33-1.84 18.5 18.5 0 0 1 .66-2 24.15 24.15 0 0 1 2.42-4.22 42.54 42.54 0 0 1 7.45-8 26.93 26.93 0 0 1 2.83-2.28l1.66-1.15c.59-.36 1.24-.7 1.92-1.07a70.51 70.51 0 0 1 10.86-4.56 45.14 45.14 0 0 1 4.42-1.15c1.43-.26 2.74-.54 3.85-.79.84-.19 2.34-.29 2.5-.91 4.61-.23 9.25-1.1 14.93-1.52 1-.08 2.09-.13 3.16-.18h3.33c1.11.09 2.21.23 3.29.33l3.13.63A29.49 29.49 0 0 1 171.57 16a37.91 37.91 0 0 1 6.07 5.5 38.44 38.44 0 0 1 3.74 4.5 11.51 11.51 0 0 1 1.79 4.63c.51 3.36-.3 3.08-2.62 1.74-1-1.53-1.75-2.7-2.7-4.31-.52-.86-.92-1.89-1.54-2.76a13.23 13.23 0 0 0-1.39-1.7l-.75-.81c-.25-.26-.51-.51-.76-.78a27.84 27.84 0 0 0-10.94-7.62 28.91 28.91 0 0 0-8.41-1.6l-2.23-.05c-.76 0-1.55 0-2.33.06l-4.73.18a93.61 93.61 0 0 0-19.37 2.62 58.35 58.35 0 0 0-14.51 5.73 35.15 35.15 0 0 0-11.42 10.4A26.41 26.41 0 0 0 95 42a27.4 27.4 0 0 0 3.56 19.6 43.81 43.81 0 0 0 6.5 8.31c.5.57 1.1 1.06 1.65 1.6s1.11 1.08 1.73 1.56c1.21 1 2.4 2 3.71 2.91a48 48 0 0 0 8.18 4.92A29.84 29.84 0 0 0 133 84.11a25.33 25.33 0 0 0 5.9-.74c.89-.21 1.75-.44 2.54-.67a8.61 8.61 0 0 0 1.86-1c.48 0 .48.39 1.6-.27A142.88 142.88 0 0 0 159.58 73a97.92 97.92 0 0 0 10.36-8.54 51.75 51.75 0 0 0 5.38-6A47.86 47.86 0 0 0 179.4 52l.69-1.4c.22-.44.36-.89.54-1.31a18.89 18.89 0 0 0 .82-2.58c.18-.6.37-1.39.48-2a4.78 4.78 0 0 0 0-1.31v-1.26c-.06-.79.16-1.62.07-2.43a11.69 11.69 0 0 0-.1-1.19 3.83 3.83 0 0 0-.44-1.06c.65.43.61-.14.15-.62z" fill-rule="evenodd"/><path d="M125.53 33.5c6.91 3.19 21 14 20 26s-4 21-16 19-31-14-32-28 15-23 28-17z" fill="#fff"/><path d="M144.88 53.29c-.69-1.5-1.49-3.07-2.41-4.67a2.21 2.21 0 0 1-.94-.62c-2.2-2.41-3.57-5.24-6.34-7.15a2.48 2.48 0 0 1-1.06-1.6 84.73 84.73 0 0 0-7.71-4.36 2.5 2.5 0 0 1-1.19-1.77 2.14 2.14 0 0 1-.39-.16 14.77 14.77 0 0 0-3.55-1.45c-5.36-.32-9.9-.65-14.78 2.36-3.63 2.23-5.41 5.28-7.44 8.54l.76 1a2.84 2.84 0 0 1 1.1-.33c3.22-.24 5.81-2.51 8.52-4a22.93 22.93 0 0 1 3.83-1.65A2.46 2.46 0 0 1 114 37a8 8 0 0 1 3.24-.42h.58a2.43 2.43 0 0 1 1.58.55 12 12 0 0 1 4.69 3.87c.74.07 1.56 1.74 2.28 1.85.14.19.28.34.42.5a7 7 0 0 1 6.11 4.63c.35 2.29.86 4.56 1 6.88.29.41 1.9 3.43 2.07 3.93 3.39 1.57 3.31 6.42 2.1 9.55a2.59 2.59 0 0 1-.89 1.18 24 24 0 0 1-1.45 2 2.58 2.58 0 0 1-.58 1.36c-1.14 1.41-2.18 2.9-3.2 4.39 2.11.21 4.35.5 6.27-.08s3.5-2.14 5.11-3.56c-.38-6.69 1.36-13.21 1.5-19.88a2.57 2.57 0 0 1 .05-.46z" fill="#30a565"/><path d="M125.35 33c-.27.22.56.53 0 .57-.87-.17-1.77-.82-2.54-.82a19.57 19.57 0 0 0-11.55-.32 6.12 6.12 0 0 0-1.13.55 17 17 0 0 0-2.45 1c-.38.23-.62.44-1 .67s-1.08.61-1.57 1l-.58.44-.53.52-1 1.08c-.31.39-.6.82-.91 1.23l-.47.62c-.14.21-.26.45-.4.68-.29.51-.68 1-.94 1.58l-.81 1.73c-.18.61-.35 1.21-.52 1.78l-.11.43v.42c0 .28 0 .55-.06.8a4 4 0 0 0-.33 2 11.54 11.54 0 0 0 .19 2.29 17.86 17.86 0 0 0 3.01 7.75c.63.82 1.26 1.38 1.82 2.1.28.36.63.93 1 1.27a32.23 32.23 0 0 0 2.53 2.42 20.29 20.29 0 0 0 2.76 2.29 30.69 30.69 0 0 0 2.69 2.4c.23.21.32.41.57.61s.75.47 1 .66.13.28.24.37a13 13 0 0 0 1.74 1.15 9.43 9.43 0 0 0 2.15.71 14.55 14.55 0 0 0 2.29.79c1.92.74 3.49 1.21 5.77 2.15a14.25 14.25 0 0 0 4.14 1.16 15.34 15.34 0 0 0 6.2-.91 7.29 7.29 0 0 0 3.93-4.17 10.76 10.76 0 0 0 1.8-4.09 4.39 4.39 0 0 0 .93-1.6 31.19 31.19 0 0 0 .44-5.42c0-.54.08-1.05.13-1.53a6 6 0 0 0-.1-1.17c.11 0 .13-.28.14-.58s0-.63 0-.71c-.15-1.61-.39-2.83-.56-3.94-.93-2.33-2.31-4.46-3.13-6.13a41.48 41.48 0 0 0-6.62-6.83 41 41 0 0 0-8-5.27c-.54-.58-.3-1 .45-.91 2.64 1.14 4.73 2.87 6.73 4 1.8 1.8 4.29 3.59 6.07 5.61.62.74 1.27 1.51 1.83 2.29.3.38.6.74.91 1.07a7.93 7.93 0 0 0 .87.94 7.25 7.25 0 0 0 1.26 1.93 5.31 5.31 0 0 0 .46 1.06 5.67 5.67 0 0 1 .4 1.09 7.21 7.21 0 0 1 .87 1.84c.14.39.28.8.43 1.23s.18.92.27 1.39a15.14 15.14 0 0 1 .23 2.81c0 .9-.07 1.65-.08 2.26a26.87 26.87 0 0 1-1.19 7.5 25.42 25.42 0 0 1-1.83 6.48c-.49.6-.86 1.18-1.32 1.65a13.74 13.74 0 0 1-1.3 1.26c-.45.34-.87.67-1.28.94s-.87.43-1.29.61a11.4 11.4 0 0 1-2 .47c-.68.11-1.41.12-2.27.33a21.73 21.73 0 0 0-4.08-.39 31.25 31.25 0 0 1-10.28-2.69c-1.37-.58-2.93-1.49-3.29-1.6a50.33 50.33 0 0 1-14.07-11.27A29.88 29.88 0 0 1 99 60.37a23.62 23.62 0 0 1-2.32-5.62 19.76 19.76 0 0 1-.58-3.41 11.55 11.55 0 0 1 0-1.66v-1.56a20.7 20.7 0 0 1 .9-4.56 10.69 10.69 0 0 1 .88-2.18c.17-.34.33-.68.5-1l.61-.88a19.32 19.32 0 0 1 2.49-2.84 23.43 23.43 0 0 1 6.2-4.12c.57-.28 1.18-.44 1.76-.66l.86-.31c.29-.09.58-.15.86-.22l1.65-.38c.54-.08 1.06-.13 1.54-.19.12.08.33.11.45.19A18.87 18.87 0 0 1 125.35 33z" fill-rule="evenodd"/><path d="M132.25 77.16a2.17 2.17 0 0 0 1.16-1c1.59-1 2.59-2.85 3.59-4.16a17.17 17.17 0 0 0 1.93-3.12 12.91 12.91 0 0 0 .79-2.49 10.33 10.33 0 0 0-2.06-7.52c-.81-1.08-1.81-1.65-2.31-3.28a21 21 0 0 0 0-3.64c-.82-1-.74-2.12-1.11-3.11a12.06 12.06 0 0 0-3-4.43 8.77 8.77 0 0 0-1-.57 22.84 22.84 0 0 1-4.08-2.54c-.78-.82-1.44-2-2.12-2.63a19.84 19.84 0 0 0-2-1.38 6.21 6.21 0 0 0-.8-.49c-.54-.37-.72-.8-1.22-1.06-.23-.12-.63-.24-1-.39a9.85 9.85 0 0 0-3.28-.75 9.31 9.31 0 0 0-3.54.83 13.21 13.21 0 0 0-1.56.76c-.47.29-.9.62-1.35.87-1.36.87-3.14 2-4.35 2.67a5.31 5.31 0 0 1-1.86.75 5.21 5.21 0 0 1-2 1.12c-.77.76-1.64 1.3-2.37 2.14a7.71 7.71 0 0 0-2.1 5.5c.25 0 .55.21.81.14C98 48 98 47 98.58 45.88a7.87 7.87 0 0 1 4.87-3.66c.47-.12.88-.31 1.36-.48a33.44 33.44 0 0 0 4.13-1.47 5.53 5.53 0 0 1 .79-.34 4.14 4.14 0 0 0 .69-.32 2.71 2.71 0 0 0 .72-.65c.18-.21.39-.46.63-.69a19.36 19.36 0 0 1 2-1.18 8.66 8.66 0 0 0 1.73-.64 13.85 13.85 0 0 1 2-.17c.8.07 1.42.57 2 .61a10.51 10.51 0 0 0 1.27 1.42 8.2 8.2 0 0 1 1.23 1.41c.2.37.25.82.46 1.13a7.82 7.82 0 0 0 1 1.2 4.78 4.78 0 0 0 .68.63 4 4 0 0 0 .61.45 7.53 7.53 0 0 0 1.43.54 13 13 0 0 1 4.26 1.85 7.38 7.38 0 0 1 1.78 1.83c.14.28.05.65.2 1.06s.62.9.7 1.33a5.74 5.74 0 0 1-.06 1.43c0 1 .17 2 .29 3a4.72 4.72 0 0 0 1.28 3.2c.31.38.58.78.83 1.13a25.85 25.85 0 0 1 1.81 2c.26.42.49 1.22.69 1.64a4 4 0 0 1 .48 1.37 5.35 5.35 0 0 1-.25 1.06c-.1.57-.05 1.25-.15 1.69-.65.8-1.18 1.74-1.79 2.59a9.36 9.36 0 0 1-1.25 2.56c-.13.26-.18.59-.34.88s-.41.46-.53.71-.2.69-.4 1a10.23 10.23 0 0 1-1.19 1.45c-.4.41-.6.58-.64.8a1.26 1.26 0 0 0 .35.91zM160 22.28c-.75-.25 0-.43 0-.68 0-.06-.18-.14-.18-.2a2.78 2.78 0 0 1-.11-.53c0-.05.22-.08.26-.13s-.24 0-.23-.07.25-.05.25-.08-.09-.07-.1-.11c0-.5-.39-.89-.1-1.47-.45-.21-.58-.57-.92-.84-.15-.13-.36-.18-.52-.31s-.2 0-.27 0-.26-.17-.42-.19-.35-.27-.51-.49-.37-.39-.63-.12c0-.55-.18-.11-.28-.11s-.27-.26-.45-.11-.14 0-.18.1 0 .44 0 .46-.18-.36-.3-.56c-.29-.88 0-1.08.25-1.19.36-.19.79.1 1.14.08 0 0 .08.18.18-.19.11.48.36.23.51.37s.28.74.72.51c0 .29.1.51.26.59a4.87 4.87 0 0 1 .82.36 8.62 8.62 0 0 1 1.07.76c.05.05 0 .13.05.19s.23 0 .25 0c.09.2-.1.49 0 .67s.2.08.25.14c.28.36-.14.84 0 1.19 0 0 .21.1.22.15s-.19.38-.21.54c0 .35.31.73.08 1.08a.83.83 0 0 1 .21.1c-.64.04-.25.24-1.11.09zM161.59 44.64c0-.78.25-.09.4-.14s0-.2.07-.21.18-.17.27-.19.11.21.14.23 0-.23 0-.22.09.23.11.23 0-.1 0-.11c.28-.1.39-.46.86-.21 0-.42.18-.53.28-.78s0-.3.08-.4-.06-.16-.06-.22.09-.17.07-.28.18-.2.38-.25.35-.15.1-.39c.52.15.11-.08.14-.14s.28-.09.18-.23 0-.09 0-.14-.41-.13-.41-.16.4 0 .63 0c.92.11 1 .33 1 .48s-.26.4-.26.62c0 0-.18 0 .17.16-.46-.06-.23.16-.35.23s-.67 0-.4.36c-.26 0-.44 0-.47.07s0 .42-.1.58-.09.56-.22.85h-.12c-.02 0 .08.21.06.22s-.37-.08-.46 0 0 .19 0 .24c-.16.29-.59 0-.78.11v.24c0 .02-.29-.13-.4-.12s-.4.43-.68.26a.63.63 0 0 1 0 .23c-.13-.44-.2-.01-.23-.92zM174.85 51.7c.13-.37.15-.39.19-.3s.11.24.17.21 0-.19 0-.21.07-.17.12-.2.16.17.2.19-.13-.2-.11-.2l.18.18v-.11c.18-.18 0-.48.54-.52-.28-.28-.22-.44-.34-.63a1.94 1.94 0 0 1-.23-.27s-.15-.06-.19-.09-.06-.18-.15-.26c-.31-.28.67-.65.06-1 .54 0 .08-.14.09-.23s.27-.19.17-.36 0-.11 0-.18-.37-.22-.35-.3a2.13 2.13 0 0 1 .62.13c.84.39.9.49 1 .57s-.19.21-.12.35-.17 0 .21.06c-.45.07-.14.14-.22.22s-.56.29-.13.38c-.23.11-.37.21-.33.3s.27.25.34.4a3.13 3.13 0 0 1 .44.71s-.06.07-.06.11.2.1.19.13-.33.17-.35.29.12.14.13.19c0 .34-.52.3-.62.52 0 0 .09.21.06.24s-.35 0-.48.07a2.26 2.26 0 0 0-.38.29.46.46 0 0 1-.51.07.57.57 0 0 1-.1.22c-.06-.47-.25-.09-.04-.97zM157.48 66.2c.3-.72.24 0 .38 0s.14-.2.14-.2.19-.1.27-.09 0 .23 0 .27a2.25 2.25 0 0 0 .05-.22v.25s0-.09.07-.09c.27 0 .45-.3.79.09.09-.4.29-.43.43-.64s.1-.26.17-.33 0-.16 0-.22.12-.11.12-.22.21-.11.39-.09.36 0 .18-.29c.45.29.12 0 .16-.08s.28 0 .22-.13 0-.07 0-.13-.35-.23-.35-.26.38.13.6.2c.85.37.85.58.86.72s-.34.28-.4.47c0 0-.17-.06.12.2-.42-.2-.25.07-.39.09s-.61-.22-.45.2c-.23-.13-.39-.19-.44-.1s-.12.37-.24.49a7.31 7.31 0 0 1-.41.72h-.11c-.03 0 0 .22 0 .23s-.3-.2-.41-.14 0 .18-.07.22c-.21.22-.5-.23-.7-.15 0 0-.07.21-.1.21s-.22-.21-.31-.24-.49.28-.67 0a1.28 1.28 0 0 1-.11.21c.14-.46-.06-.08.21-.95zM144.2 79.08c.78 0 .08.21.08.26s.17.1.17.14.07.21 0 .29-.22-.08-.26-.08.19.15.17.15-.22-.12-.22-.11v.09c-.1.16-.14.56-.56.27.07.39-.13.46-.3.64s-.16.23-.28.28-.06.16-.1.2-.21.05-.3.13c-.36.28-.5-.76-.82-.19 0-.54-.09-.1-.15-.11s-.09-.28-.21-.17-.07 0-.12 0-.16.39-.19.4a4.24 4.24 0 0 1 .08-.63c.24-.89.37-1 .46-1s.21.21.34.15 0 .18.08-.2c0 .46.1.16.14.25s.14.61.26.19c0 .24.12.39.19.36s.2-.26.28-.34.13-.38.14-.55h.05l-.08-.2s.19.19.21.14l-.1-.18c-.08-.16.3.14.28 0s-.16-.14-.16-.14a2.18 2.18 0 0 0 .22.06c.07-.05-.3-.15-.12-.12h.12zM122.61 24.52c-.33-.22-.26-.43-.08-.55s.43-.15.55-.26 0-.26.11-.33a2 2 0 0 1 .76-.45c.08 0 .17.2.24.23s.07-.25.1-.24.07.25.11.25.11-.1.19-.1c.7 0 1.62.09 1.92.87a2.27 2.27 0 0 1 1.56 1 4 4 0 0 1 .58.64h-1.06a1.2 1.2 0 0 1 .09-.21c.07-.13 0-.33.11-.48a3 3 0 0 1 .81-.78 1.76 1.76 0 0 1 1.62-.24 2.82 2.82 0 0 0 1.46.17c0 .56.34.22.56.34s.35.48.72.59c.14.05.22.19.35.2s.46-.15.58-.06-.17.4-.28.61c-.73.58-1.06.39-1.29.3s-.6-.61-1-.69c0 0-.07-.2-.22.15-.06-.49-.36-.24-.52-.35s-.73-.57-1-.07a.66.66 0 0 0-.78 0 1.66 1.66 0 0 0-.47.94l-.13.54-.41-.56v-.06a3.14 3.14 0 0 0-1.17-.84c-.06 0-.06-.13-.12-.16s-.21.1-.23.08-.17-.47-.38-.57-.2.09-.27.09c-.38 0-.6-.58-1-.51 0 0-.11.2-.15.21s-.29-.22-.47-.22a.54.54 0 0 0-.34.32c-.07.14-.1.25-.24.3l.17.15c-.47-.2-.13.06-.98-.25zM173.28 36.23c-.76-.19 0-.48-.07-.73 0-.07-.19-.14-.2-.21a4.71 4.71 0 0 1-.14-.57c0-.06.23-.1.26-.15s-.24-.06-.23-.08.25-.05.25-.08-.1-.08-.1-.13a1.75 1.75 0 0 0-.63-1.27 2.8 2.8 0 0 1-1.3.44c-.2 0-.39.15-.6.2l-.51.12-.07-.79a.53.53 0 0 1 0-.13c0-.1-.11-.22-.13-.33 0-.26.09-.47.06-.67-.05-.35.19-.51.35-.72s.21-.49-.13-.48c.24-.13.23-.19.17-.19s-.16.05-.17 0 0-.31-.14-.21-.07 0-.08.06.11.41.18.39a1.22 1.22 0 0 0-.32-.54c-.3-.35-.35-.64-.23-.84a.68.68 0 0 1 .52-.29c.6-.07 1 .54 1.24.92 0 .06-.09.2.28.1-.32.4 0 .53-.06.78s-.61.56-.27.94c-.28.13-.47.27-.49.46a2.79 2.79 0 0 0 .1.82l-.28-.32h.07a11.84 11.84 0 0 0 1.17-.49c.06 0 .12.05.18 0s.08-.22.11-.22c.21 0 .47.26.81.33.11 0 .29-.07.45 0a1 1 0 0 1 .53.51 1.15 1.15 0 0 1 .1.57c0 .31-.12.47-.06.67s.22.1.23.15-.18.39-.2.56c0 .37.35.73.16 1.11a.68.68 0 0 1 .22.08c-.53.12-.12.28-1.03.23z" fill-rule="evenodd"/><path d="M119.58 34.34a5 5 0 0 0 1.13 0 9.69 9.69 0 0 1 2.85.95c.15.06.27.06.35.11s.46.31.71.43.36.13.55.24a14.78 14.78 0 0 1 2.88 2.48c0 .22.47.64.5.88a6 6 0 0 0 1.59.65 1.19 1.19 0 0 0 .71.46c.65.68 1.22 1 2 1.87.23.28.54.71.79 1.06a4.31 4.31 0 0 1 1.14 2.4 1.52 1.52 0 0 1 0 .7 6.4 6.4 0 0 1 1.35.5 13.55 13.55 0 0 1 1.46 1.93 17.74 17.74 0 0 1 1 1.65 11 11 0 0 1 .84 2 12.73 12.73 0 0 1 .5 2 9.14 9.14 0 0 1 .14 2.29c-.09.26-.44 0-.39.57.22.49.45.53.68.81a14.86 14.86 0 0 1 1.12 4.68 11.26 11.26 0 0 0-.16 1.54c-.26.29-.35 1.17-.68 1.2-.1.14-.1.64-.29.47.14 1.19.48.59.71 1.15a8.15 8.15 0 0 1 .31 2.38 8.81 8.81 0 0 1-.06 1.72 7.27 7.27 0 0 1-1.31 2.87 4.14 4.14 0 0 1-1.66 1c-.17 0-.12-.28-.35-.1a3.56 3.56 0 0 0 .49-1.13 4 4 0 0 0 1.13-2 9.57 9.57 0 0 0 .24-2.65c.16-1.72 0-3.83 0-5.73a26.92 26.92 0 0 0-.69-5.78 25.63 25.63 0 0 0-2.7-7.81 27.92 27.92 0 0 0-4.06-5.88 31 31 0 0 0-4.88-4.44c-.76-.56-1.59-1.25-2.5-1.82-.1-.06-.31-.14-.41-.2-1-.65-2.29-1.45-3.21-1.95a10 10 0 0 0-4.24-1.23 13.79 13.79 0 0 0-4 .46 26.54 26.54 0 0 0-5.16 1.86 32.25 32.25 0 0 0-6 4c-.69.31-.95-.46-.12-1.6a10.36 10.36 0 0 1 4.2-3.07 2.92 2.92 0 0 1 1.74-.19 14.12 14.12 0 0 1 4.12-2.54 17.34 17.34 0 0 1 3.74-.72 6.16 6.16 0 0 1 3.49 1c-.12.14.09.27 0 .41.29-.02.47.06.41.12zM83.45 35.56a1.56 1.56 0 0 0-.65.39c-.45.22-1 .31-1.72.56-.09 0-.14.1-.19.12s-.31 0-.45.08-.18.13-.29.17c-.9.32-1.32.2-2.15.46-.17-.11-.52 0-.69-.07a2.23 2.23 0 0 0-.62.95c-.24.08-.36.24-.36.36-.52.25-.73.6-1.37.93-.19.11-.49.22-.72.34a2.33 2.33 0 0 1-1.65.41 1.19 1.19 0 0 1-.52-.11 7 7 0 0 1-.07 1.11 9.68 9.68 0 0 1-1 1.08c-.25.26-.42.45-.81.82a7 7 0 0 1-1 .82 6.73 6.73 0 0 1-1.05.64 5.69 5.69 0 0 1-1.33.57c-.21 0-.26-.37-.56-.19s-.06.51-.09.76a10.2 10.2 0 0 1-1.76 2.44c-.3.19-.49.16-.84.49-.31-.08-.77.23-1 0-.13 0-.36.21-.42 0-.43.62.08.59 0 1a5.85 5.85 0 0 1-.68 1.31c-.14.22-.27.55-.49.87-.35.49-.73.76-1.15 1.32-.35.19-.7.49-1 .65-.15 0-.23-.17-.33 0 0-.37-.09-.59 0-1a30.25 30.25 0 0 0 2-3c.81-.85 1.67-1.86 2.58-2.67s2.13-1.9 2.73-2.55c1.19-.9 2.56-2.18 4.14-3.39 1.25-1 2.64-2 3.74-2.73S76 37 77.2 36.3a14.22 14.22 0 0 1 1.91-.83 2.49 2.49 0 0 1 .28-.15 8.59 8.59 0 0 1 2.61-.39c.9 0 2 0 3 .09s1.78 0 2.65 0a16.29 16.29 0 0 1 3.79.57c1.38.42 3 1 4 .75a.53.53 0 0 1 .3.54 1 1 0 0 1-.63.83 3.85 3.85 0 0 1-3.3-.41 1.76 1.76 0 0 1-.77-.89c-.8.2-1.87.27-3 .46-.68-.09-1.45 0-2.2 0a4.82 4.82 0 0 1-2.06-.8c.06-.16-.09-.25-.07-.39-.16-.01-.28-.04-.26-.12z" fill-rule="evenodd" opacity=".3"/><path d="M78.24 58.64a3.18 3.18 0 0 1-.35-.26c0 .08-.08.19-.13.31a3.56 3.56 0 0 1-.41.7 2.09 2.09 0 0 1-1.75.49 2.42 2.42 0 0 1-1.6-.71c-.17-.22-.25-.46-.5-.57s-.24 0-.52 0a3.2 3.2 0 0 1-4.93.59c-.18-.41-.24-1.17-.91-.87a2.09 2.09 0 0 0 .49 1.6c.19.21.5.27.65.53a6.17 6.17 0 0 0 2.47.43 3.3 3.3 0 0 0 .67-.25 5.79 5.79 0 0 0 .73-.23c.09-.06.15-.22.24-.29a2.34 2.34 0 0 1 .89-.47c.23 0 .42.4.68.52a3.64 3.64 0 0 0 2.93.49c.67-.24 1-1 1.37-1.44a2.44 2.44 0 0 1-.02-.57zM88.78 46.26h-.12c-.04 0 0 .1 0 .15a5.6 5.6 0 0 0 0 .6 3.11 3.11 0 0 1-2.2 2.49c-.62.08-1-.4-1.32.32a13.39 13.39 0 0 0-.14 1.62 2.9 2.9 0 0 1-1.39 1.72c-.3-.06-.42.09-.67.09-.68 0-1.46-.6-2-.42a2.43 2.43 0 0 1 .41.8c.91.14 1.74.58 2.67.15a4.68 4.68 0 0 0 1.44-1.39c.4-.67.2-1.57.5-2.16a7 7 0 0 0 1.6-.17 2.7 2.7 0 0 0 1.31-1.27 4.5 4.5 0 0 0 .6-2c-.35-.14-.37-.7-.69-.53zM106.3 50.16a.08.08 0 0 0 .11 0c0-.08.07-.07.07-.13a5.31 5.31 0 0 0 .27-.53 2.69 2.69 0 0 1 3-.81c.51.31.51.91 1.17.54.34-.18.67-.77 1.1-1.09a2.49 2.49 0 0 1 2.09-.39c.18.24.36.21.53.38.55.52.62 1.73 1.34 1.78.63-.59 2.13-1.37 3.13-.54.31.26.31.72.69 1 .05.32.14.91.55 1.06.24.09.8-.33 1.29-.46a2.05 2.05 0 0 1 1.65.52 2.39 2.39 0 0 1 .94 1.4c0 .27 0 .52.12.73s.21.07.4.27a2.65 2.65 0 0 1 2.68 0 2 2 0 0 1 .79 2.26c-.29.33-1 .69-.56 1a2.16 2.16 0 0 0 1.37-.94c.12-.25 0-.55.18-.82a3.57 3.57 0 0 0-1.44-2.2 2.66 2.66 0 0 0-.69-.21 3.43 3.43 0 0 0-.73-.19c-.1 0-.24.1-.34.12a2.33 2.33 0 0 1-1 0c-.21-.07-.14-.54-.29-.77a3.58 3.58 0 0 0-2.06-1.87c-.7-.18-1.48.39-2 .37-.46-.72-.7-1.72-1.67-2.1a2.33 2.33 0 0 0-.76 0 5.2 5.2 0 0 0-.92-.08c-.49.1-.84.61-1.28.68-.51-.72-.78-1.65-1.75-2a4.16 4.16 0 0 0-2 .09c-.72.28-1.11 1.08-1.68 1.38-.4-.22-.87-.73-1.32-.82a2.38 2.38 0 0 0-1.73.31 4.09 4.09 0 0 0-1.49 1.3c.16.25-.06.72.24.76zM129.8 65a.49.49 0 0 0-.21 0c-.49.7-1.7 1.75-2.79 1.21-.34-.16-.45-.63-.86-.74-.12-.29-.36-.83-.78-.87-.24 0-.64.56-1 .83-.83.55-2.59-.22-2.88-1-.09-.25-.11-.49-.29-.65s-.21 0-.43-.14a2.56 2.56 0 0 1-2.45.82 2.08 2.08 0 0 1-1.5-1.77c.11-.42.52-1.06 0-1.12a2.21 2.21 0 0 0-.71 1.49c0 .27.2.5.17.79a3.73 3.73 0 0 0 1.93 1.4 2.68 2.68 0 0 0 .68 0 3.12 3.12 0 0 0 .71 0c.09 0 .19-.17.28-.21a2 2 0 0 1 .89-.27c.2 0 .27.48.47.63a3.27 3.27 0 0 0 2.38 1.14c.67 0 1.23-.81 1.75-1 .61.57 1.07 1.45 2 1.58a2.31 2.31 0 0 0 .69-.13 4.91 4.91 0 0 0 .85-.13c.34-.15.56-.55.84-.78a9.44 9.44 0 0 1 .26-1.08zM54 20.32c-.36.18-.4.15-.44 0s-.06-.32-.18-.32-.16.16-.22.17-.33.13-.48.15-.12-.21-.18-.23 0 .24 0 .23-.1-.23-.13-.22-.05.11-.09.13c-.49.18-.68.7-1.35.69 0 .51-.35.79-.71 1.17a1.82 1.82 0 0 1-.66.55c-.1 0-.17.2-.29.25-.3.14-.63.06-.78.12s-.23.05-.24 0 0-.14 0-.2-.1-.08-.12 0 0 .16.18.26c-.53.1-.06.21 0 .34s-.21.38-.07.65c.06.11 0 .23.06.34s.39.29.36.45-.44.07-.67 0c-.82-.44-.89-.56-1-.72s.1-.6 0-1c0 0 .16-.12-.22-.15.45-.21.15-.46.35-.73a.89.89 0 0 1 .6-.28.59.59 0 0 0 .48-.29c.24.22.39.39.58.37a1.45 1.45 0 0 0 .73-.4c.26-.19.36-.58.53-.92 0-.05.12 0 .15-.08s-.09-.21-.07-.23.45-.05.58-.2 0-.21 0-.28.35-.31.58-.35a1.65 1.65 0 0 0 .66-.18s.06-.24.12-.26c.22-.08.49.06.71.06s.47-.09.75-.1a1 1 0 0 1 .83.34.38.38 0 0 1 .24-.09c-.29.51.15.4-.59.96z" fill-rule="evenodd"/></svg>