<svg xmlns="http://www.w3.org/2000/svg" viewBox="0 0 344 122"><title>illo-sandwich</title><path d="M58.8,29.54c-8.52,1-17.19-1.25-25.52,1.57C26.39,33.44,20.75,38.68,19.46,46,16.41,63.3,33.63,72.26,47.94,74.27A412.8,412.8,0,0,0,101.46,78c15.19.12,30.76-3.5,45.9-1.37,4.12.58,8.17-1,9.41-5.34,1-3.58-1.26-8.83-5.35-9.41-12.46-1.76-24.8-.5-37.29.33-13.75.91-27.47-.15-41.21-1-7.24-.42-14.52-.89-21.71-1.89-5-.69-11.84-1.57-15.16-5.93-8.71-11.42,18.52-8.13,22.75-8.64s7.65-3.16,7.65-7.65c0-3.75-3.52-8.14-7.65-7.65Z"/><path d="M149.53,76.1c27.3,1.5,54.33-2.36,81.55-3.64,13.28-.62,26.58.9,39.81.23,5.91-.3,12.22-1.08,17.37-4.2,4.69-2.84,7.8-7.35,10.57-11.95,3.1-5.16-.95-11.27-6.61-11.51-34.08-1.47-68,1.18-101.84,5.45-8.31,1.05-16.61,2.21-24.91,3.33-8.73,1.18-17.08-.22-25.8-.67-8.55-.43-17.14.29-25.7.3s-17.13-.95-25.7-1.21c-18-.54-36.77-.31-52.54-10.17V55.27c1.5-.88,4.63-3.35,6.51-2.65.57.21-.19-.08-.27-.13.63.45,2,3.87,2.66,4.6A10.4,10.4,0,0,0,51.89,60c2.51,0,4.61-1.81,6.93-1.86,9.83-.22,9.86-15.52,0-15.3-3.36.07-5.79,1.55-9,2.13h4.06q3.33,3.8,2,1.13a13.28,13.28,0,0,0-.94-2,13.85,13.85,0,0,0-2.4-2.83,15.19,15.19,0,0,0-7.23-3.68c-6.25-1.33-12,1.3-17.3,4.41a7.74,7.74,0,0,0,0,13.21c14.07,8.8,30.6,11.14,46.88,11.85,17.79.76,35.52,1.74,53.32,1.31,8.72-.21,17.18.76,25.86,1.22,9,.48,18-1.46,26.84-2.64,17.13-2.28,34.3-4.3,51.53-5.59a505.33,505.33,0,0,1,59.78-1.09l-6.6-11.51c-1.94,3.22-3.68,6.27-7.4,7.49-5.36,1.76-11.61,1.26-17.14,1a344.7,344.7,0,0,0-37.21.25c-24.79,1.57-49.46,4.61-74.34,3.25-9.84-.54-9.8,14.76,0,15.29Z"/><path d="M63.68,48.58c-7.46-.84-15.07-4.35-18.73-10.9-5.13-9.19-.34-21.71,8.6-27.26S74.14,5.31,84,9.05a34.57,34.57,0,0,0,6.45,2.13c4,.68,8.49.63,12-1.36,13-7.29,21.93-2.75,31.49,1.94,10.14,5,15-.44,15.77-1.13,5.16-4.42,12.4-5.86,19.15-5.08s9.1,3.54,15.07,6.79a13.15,13.15,0,0,0,4.23,1.72c2.66.39,5.34-.74,7.6-2.19,23.6-15.11,40.75-5.42,44.94-2.75,6.73,4.29,10,1.86,17.72-.08,6.35-1.6,14-7.61,30.23-2.77,10.48,3.12,22.2,42-36.69,42C252,48.22,71.14,49.43,63.68,48.58Z" fill="#ce9b57"/><path d="M70.13,50.86c-2.78-.25-2.88-.9-5.82-1.23,3.74-.17-.58-.9-.64-1a33,33,0,0,1,4-.87c1.59-.28,3.41-.51,5.4-.71,5.52,0,10.77.45,16.57.55,12.78.25,26.84-.26,40.36,0,11.94.19,26.07,0,38.94,0,3.89,0,7.65.27,11.53.31,8.27.08,17.58,0,25.95-.14l42.21-.41c1.73,0,3.48,0,5.2-.06s3.47,0,5.2-.18l2.61-.17c.88,0,1.74-.19,2.62-.27s1.75-.19,2.62-.32l2.62-.44A53.39,53.39,0,0,0,279.91,43a32,32,0,0,0,9.52-5.66,18.12,18.12,0,0,0,1.9-2c.32-.36.57-.78.86-1.15s.57-.72.78-1.09a19.61,19.61,0,0,0,3.43-8.22,20.76,20.76,0,0,0-1.25-10.15,18.56,18.56,0,0,0-2.56-4.56,9.2,9.2,0,0,0-3.9-3.1,43,43,0,0,0-10.34-1.83,33.71,33.71,0,0,0-9.91,1c-2,.52-3.74,1.22-5.52,1.53a18.62,18.62,0,0,1-4.7,1.8c-1.79.43-3.72,1-5.62,1.51a16.3,16.3,0,0,1-6,.78,13.69,13.69,0,0,1-5.79-2.1,49.45,49.45,0,0,0-9.27-4.45A54.44,54.44,0,0,0,223,4.41a46.08,46.08,0,0,0-10.31.94c-.91.17-1.81.47-2.73.7l-1.38.36-1.36.49-2.76,1-2.7,1.25-1.36.64-1.31.74-2.62,1.52a16.43,16.43,0,0,1-5.76,2.49,8.07,8.07,0,0,1-4.18-.3,27,27,0,0,1-3.79-1.84c-2.53-1.35-5-3.18-7.94-4.59a24.32,24.32,0,0,0-12.67-1.64,22,22,0,0,0-11.26,4.51c-.32.27-.65.51-.94.8a11,11,0,0,1-1,.88,12,12,0,0,1-2.38,1.37,12.29,12.29,0,0,1-5.16.85c-3.4-.12-6.26-1.49-8.56-2.52-1.71-.81-4.63-2.34-5.38-2a30.82,30.82,0,0,0-7-2.53,21.31,21.31,0,0,0-7.57-.29,26.07,26.07,0,0,0-7.67,2.46l-1.88,1a15.85,15.85,0,0,1-2.19,1,16.33,16.33,0,0,1-4.86,1,22.6,22.6,0,0,1-3.68,0,22.3,22.3,0,0,1-3.7-.61c-2.48-.66-4.62-1.77-6.81-2.49A38.43,38.43,0,0,0,68.79,7.39a33.07,33.07,0,0,0-5.91.69A28.26,28.26,0,0,0,57.23,10a21.24,21.24,0,0,0-8.56,7.19,22.1,22.1,0,0,0-3.39,7.61,17.12,17.12,0,0,0-.08,7.36,13.8,13.8,0,0,0,2.48,5.4A18.87,18.87,0,0,0,51.07,41a42.19,42.19,0,0,0,8.29,4.9c3.07,1.37,4.5,1.79,4.37,2.29s-1.73.83-4.47.91a28.28,28.28,0,0,1-5.67-1.81A21.87,21.87,0,0,1,48.32,44a19.52,19.52,0,0,1-4.68-6.12,17.07,17.07,0,0,1-1.08-2.48,17.93,17.93,0,0,1-.77-2.62,18.26,18.26,0,0,1-.32-5.41,24.38,24.38,0,0,1,7-14.77A27,27,0,0,1,63.51,5.21,40.25,40.25,0,0,1,84,7.64c1.66.62,3.2,1.34,4.76,1.83a14.91,14.91,0,0,0,2.35.56c.82.13,1.65.23,2.48.29A18.44,18.44,0,0,0,98.56,10a12.19,12.19,0,0,0,2.32-.7c.38-.15.72-.33,1.1-.52l1.23-.62a28.23,28.23,0,0,1,10.65-3.07,25.88,25.88,0,0,1,5.63.27,32.8,32.8,0,0,1,5.44,1.45,110.74,110.74,0,0,1,10.15,4.56,17.14,17.14,0,0,0,5.1,1.53,10.88,10.88,0,0,0,5.17-.47,9.87,9.87,0,0,0,3.46-2.1,20.73,20.73,0,0,1,3.72-2.67,24.94,24.94,0,0,1,8.62-2.84,30.51,30.51,0,0,1,9,.11,20.19,20.19,0,0,1,4.42,1.24,27.84,27.84,0,0,1,4,2.1,81.3,81.3,0,0,0,7.57,4.42,6.92,6.92,0,0,0,3.94.67,11.42,11.42,0,0,0,3.93-1.32c1.22-.67,2.51-1.48,3.79-2.21l1.93-1.13,2-1,2-1c.68-.3,1.39-.54,2.08-.81L208,5.21c.7-.23,1.42-.42,2.13-.63A41.78,41.78,0,0,1,223,2.9a38.12,38.12,0,0,1,12.74,2.67,36.87,36.87,0,0,1,5.8,3,12.48,12.48,0,0,0,5.54,2A17.41,17.41,0,0,0,253,9.57l3.07-.87,3.07-.81c1.66-.5,3.31-1.18,5-1.78a45.18,45.18,0,0,1,5.19-1.59,33.86,33.86,0,0,1,11-.7l2.8.38,2.81.57,2.82.76a8.18,8.18,0,0,1,2.8,1.55,15.57,15.57,0,0,1,3.88,5,22.15,22.15,0,0,1,2.07,6.29,21.48,21.48,0,0,1,.28,5.32,20.43,20.43,0,0,1-1,5.28,22.15,22.15,0,0,1-5.89,9,32.15,32.15,0,0,1-9.16,5.81A57.87,57.87,0,0,1,271.31,47a89.41,89.41,0,0,1-14.93,1.61c-5.06.11-10,.06-14.84.1-9.57.06-18.23.25-24.29.83a7.78,7.78,0,0,0-3.61-.34c-12.33.45-25.21.16-38.22.32L145.15,50c-12.54.15-24.42.63-36.05.82l-13.7.24c-1.53,0-3.57-.05-5,0-2.3.06-4.26.33-6.5.34-4.11,0-8.53-.53-12.28-.2C73,50.7,71.64,50.56,70.13,50.86Z" fill-rule="evenodd"/><path d="M213.18,22.88c-.82-4.27-2-9.06-5.73-11.26-2.35-1.39-5.75-1.28-8.42-.73a9.14,9.14,0,0,0-4,1.72c-2.73,2.27-2.83,6.38-2.5,9.92a11.2,11.2,0,0,0,1.28,4.95A10.24,10.24,0,0,0,198,30.91a16.64,16.64,0,0,0,6.38,2c2.23.13,4.29-1.46,5.89-3a8.83,8.83,0,0,0,2.76-7" fill="#db2323"/><path d="M209.85,13.38c-2.59-2.29-4.65-3.25-8.16-2.74-2.59.39-6.06,1.53-7.69,3.79-3.38,4.69-1.46,11.22,2.57,14.63,4.43,3.75,10,5.49,14.33.76,3.65-4,2.19-12.85-1.22-16.53-.65-.71-1.71.36-1.06,1.06,2.56,2.77,3.32,7.67,2.41,11.3-1.75,7-8.36,6.25-13,2.63-3.49-2.72-5.09-6.63-3.53-11,2.11-5.9,10.1-6.55,14.3-2.85.72.63,1.79-.42,1.06-1.06Z" fill="#9b1313"/><path d="M212.79,22.81c.26,0,.2.79.55.57a13.9,13.9,0,0,1-1.72,5.71A6.91,6.91,0,0,1,210.06,31a15.94,15.94,0,0,1-2.12,1.42c-.08,0-.12.22-.21.26-.3.14-.7.2-1,.3a6.8,6.8,0,0,1-2.05.58,9.42,9.42,0,0,1-4.56-1.24c-.69-.38-1.33-1-2.19-1.45-1.66-.86-3.31-1.6-4.42-3a9.64,9.64,0,0,1-1.66-5.94c0-.47.1-.84.11-1.31s0-.9,0-1.31a19.47,19.47,0,0,1,.56-2.87,11.22,11.22,0,0,1,1-2.84,6.18,6.18,0,0,1,2.22-2.33c.66-.4,1.48-.56,2.12-.93,1.07,0,2.61-.47,3.88-.39.45,0,.52.23.75.24a10.63,10.63,0,0,1,1.5,0,11.57,11.57,0,0,1,1.52.24A8.21,8.21,0,0,1,210.77,14a12.08,12.08,0,0,1,1,2.26c.07.22.06.47.11.6.24.6.66,1.61.86,2.21a11.68,11.68,0,0,1,1,3.67c-.47.65-.74-.77-1.09-1.7-.16-.43-.39-.77-.53-1.2a13.91,13.91,0,0,0-1.21-3.38,6.61,6.61,0,0,0-1.62-2.9,7.57,7.57,0,0,0-1.24-1.23,7.62,7.62,0,0,0-3.94-1.15,23,23,0,0,0-4.31-.24,20.53,20.53,0,0,0-2,.87A9,9,0,0,0,195.24,13a6.25,6.25,0,0,0-2,3.51,30.78,30.78,0,0,0-.47,3.88c.17,1,.6,1.54.76,2.46.12.65,0,1.47.19,2.29a6,6,0,0,0,2.7,3.84,13,13,0,0,0,1.81,1.21,18.3,18.3,0,0,0,4.54,1.4,9.85,9.85,0,0,0,1.53.47,8.56,8.56,0,0,0,4-1.09,5.92,5.92,0,0,0,1.34-.6,4.47,4.47,0,0,0,.93-1.14A10.46,10.46,0,0,0,212.1,26C212.38,25,212.48,23.67,212.79,22.81Z" fill-rule="evenodd"/><path d="M206.11,16.05c-1.4-.89-3.8-1.66-5.38-.8a.74.74,0,0,0-.37.64c0,.87,1.36,1.93,2.13,2.2a5.91,5.91,0,0,0,2.1.11,3.88,3.88,0,0,0,1.86-.22c.88-.54.38-1.73-.3-2.19a8.35,8.35,0,0,0-4.33-.83.75.75,0,0,0,0,1.5c.28,0,3.71.34,3.58.64l.35-.45a6.62,6.62,0,0,1-2.39.07,3.26,3.26,0,0,1-1.72-1.25l.22.53v-.11l-.37.65a3.67,3.67,0,0,1,2,0,5.56,5.56,0,0,1,1.81.77c.82.52,1.57-.77.76-1.29Z" fill="#9b1313"/><path d="M207.38,21.75c-.72.87-1.48,1.72-2.26,2.54s-2,1.62-1.69,2.88,1.63,1.51,2.73,1.15a3.87,3.87,0,0,0,2.33-2c.39-.74.94-1.39,1.29-2.14.48-1.05.33-2.51-1-2.83-2.29-.55-4.06,1.74-5,3.44a1.5,1.5,0,0,0,2.59,1.51,7,7,0,0,1,1-1.45,2,2,0,0,1,.51-.4c.18-.1.67-.08.26-.18l-1-1.05c-.1-.24.18-.44-.09-.14-.1.11-.18.26-.28.39a7.6,7.6,0,0,0-.57.9c-.25.48-.4,1.06-1,1.14l.76.21-.19-.09.69.9,0-.17-.15,1.16c.24-.54,1.16-1.21,1.6-1.68.6-.64,1.17-1.31,1.73-2a1.55,1.55,0,0,0,0-2.12,1.5,1.5,0,0,0-2.12,0Z" fill="#9b1313"/><path d="M201.92,22.55c-1-1.36-3-5.31-5.18-4-1.13.68-.81,2-.61,3a16.23,16.23,0,0,0,1.23,3.84,4,4,0,0,0,2.06,2.46,2.39,2.39,0,0,0,2.85-1.32c1.33-2.63-1-5-2.44-7-1.1-1.57-3.7-.07-2.59,1.52l1.61,2.31a6.78,6.78,0,0,1,.61.9,1.11,1.11,0,0,1,.21.67c.72.23,1,.16.68-.2,0-.31-.39-.79-.52-1.1s-.31-.86-.44-1.29a7.4,7.4,0,0,1-.47-2.45l-.74,1.3c-.9-.08-1.08.1-.56.55l.57.76,1.14,1.52c1.15,1.52,3.76,0,2.59-1.51Z" fill="#9b1313"/><path d="M105.08,31.18c4.25.89,9.11,1.66,12.6-.94,2.18-1.63,3.39-4.81,3.92-7.48a9.05,9.05,0,0,0,0-4.39c-1-3.4-4.79-5.07-8.18-6.14a11.3,11.3,0,0,0-5.06-.72,10.12,10.12,0,0,0-4.8,2.6,16.42,16.42,0,0,0-4.28,5.11c-1,2-.32,4.52.51,6.6a8.87,8.87,0,0,0,5.43,5.28" fill="#db2323"/><path d="M115.22,31.73a11,11,0,0,0,5.29-14.31c-2.13-5-9.22-6.37-13.78-4.39-5.41,2.35-9.83,6.91-7.35,13,2.09,5.13,11,7.44,15.8,5.68.9-.33.51-1.78-.4-1.44-3.74,1.37-11.28-.29-13.66-4C98,21.4,102.91,16.43,107,14.55s10.32-.6,12.32,3.86c2.09,4.67-.64,10-4.82,12-.87.42-.11,1.72.76,1.3Z" fill="#9b1313"/><path d="M105.29,30.85c-.1.24-.8-.13-.74.28a14,14,0,0,1-4.6-3.78,7.33,7.33,0,0,1-1.13-2.17,16.25,16.25,0,0,1-.48-2.5c0-.1-.16-.2-.16-.3a8.2,8.2,0,0,1,.1-1,6.89,6.89,0,0,1,.25-2.11,9.52,9.52,0,0,1,2.91-3.73c.61-.49,1.44-.84,2.18-1.46,1.44-1.19,2.75-2.43,4.5-2.91a9.68,9.68,0,0,1,6.12.76c.44.18.74.42,1.17.62s.84.31,1.2.51A18.63,18.63,0,0,1,119,14.66a10.68,10.68,0,0,1,2.23,2,6.13,6.13,0,0,1,1.29,2.95c.12.76,0,1.58,0,2.32-.43,1-.58,2.58-1.14,3.72-.19.4-.42.39-.51.6a11.28,11.28,0,0,1-.55,1.4A10.27,10.27,0,0,1,119.6,29a8.18,8.18,0,0,1-5.37,3.41,11.59,11.59,0,0,1-2.47.05c-.23,0-.46-.12-.59-.13-.65,0-1.74,0-2.38-.06a11.61,11.61,0,0,1-3.77-.47c-.42-.68,1-.39,2-.35.45,0,.86-.06,1.32,0a12.9,12.9,0,0,0,3.58.19,6.55,6.55,0,0,0,3.3-.37,6.89,6.89,0,0,0,1.61-.67,7.64,7.64,0,0,0,2.59-3.19,23.94,23.94,0,0,0,1.88-3.88,19.15,19.15,0,0,0,0-2.13,8.94,8.94,0,0,0-.12-2.92,6.2,6.2,0,0,0-2.48-3.15,28.88,28.88,0,0,0-3.4-1.93c-1-.22-1.65,0-2.57-.25-.64-.14-1.35-.54-2.18-.71a6,6,0,0,0-4.58,1,12.07,12.07,0,0,0-1.81,1.2A18.45,18.45,0,0,0,101,18.26a11.13,11.13,0,0,0-1,1.23,8.51,8.51,0,0,0-.55,4.11,6.59,6.59,0,0,0,0,1.47,4.73,4.73,0,0,0,.69,1.29A10.73,10.73,0,0,0,102.65,29C103.48,29.64,104.61,30.22,105.29,30.85Z" fill-rule="evenodd"/><path d="M114,27.34a7.26,7.26,0,0,0,2-2,4.79,4.79,0,0,0,.9-2.58.78.78,0,0,0-.55-.72c-.53-.2-1.09.19-1.55.41a3.23,3.23,0,0,0-1.32.88,8.05,8.05,0,0,0-.88,2,3.07,3.07,0,0,0-.42,1.66c.24,1.17,1.76.87,2.4.26a9.88,9.88,0,0,0,2.18-3.52c.37-.89-1.08-1.28-1.44-.4a11.94,11.94,0,0,1-.89,1.7c-.17.25-.34.49-.52.73s-.19.23-.29.34c-.3.11-.36.19-.18.26l.22.53A2.31,2.31,0,0,1,114,26c.17-.42.33-.86.51-1.28a1.28,1.28,0,0,1,.74-.77l.5-.24c.11-.05.48-.12.27-.2l-.55-.72a3.41,3.41,0,0,1-.7,1.82A5.11,5.11,0,0,1,113.28,26c-.79.54,0,1.84.75,1.3Z" fill="#9b1313"/><path d="M108.27,26.08c-.55-1-1.07-2.11-1.53-3.19s-.65-2.1-1.82-2.35-2,.8-2.13,1.9a3.8,3.8,0,0,0,.86,3,23.65,23.65,0,0,0,1.62,2.21,1.88,1.88,0,0,0,3,0c1.33-2-.18-4.43-1.42-6a1.53,1.53,0,0,0-2.13,0,1.56,1.56,0,0,0,0,2.13c.36.46,1.43,1.75,1,2.39l1.29-.74h-.16l.76.2c-.47-.25-.81-1.12-1.15-1.54s-.75-.8-.55-1.51l-.39.66.16-.14-1.46.39.16,0-.66-.38a10,10,0,0,1,.38,1c.16.38.33.76.5,1.14.36.81.76,1.6,1.17,2.38.9,1.71,3.49.19,2.59-1.51Z" fill="#9b1313"/><path d="M109.93,20.88c1.61-.41,6.13-.74,5.42-3.4-.33-1.22-1.73-1.4-2.79-1.6a16.44,16.44,0,0,0-4.43-.26,3.09,3.09,0,0,0-2.6,1.22,2.47,2.47,0,0,0,.47,3c2,2.07,5.13.77,7.48.26,1.88-.41,1.09-3.3-.8-2.89l-2.41.52a9.87,9.87,0,0,0-1.2.26c-.33.1-1.71.33-.91.63a11.34,11.34,0,0,0,2.4,0,7.88,7.88,0,0,1,2.56.46l-.69-.89,0,.19.15-1.15c.34-.26.22-.27-.34,0l-1.06.27-2.1.54c-1.87.48-1.08,3.37.8,2.89Z" fill="#9b1313"/><path d="M68.08,31.4c2.3-3.7,4.68-8,3.42-12.16-.79-2.61-3.37-4.84-5.7-6.24a9.05,9.05,0,0,0-4.13-1.46c-3.55-.18-6.41,2.77-8.57,5.6a11.27,11.27,0,0,0-2.4,4.51,10.21,10.21,0,0,0,.8,5.4,16.42,16.42,0,0,0,3.36,5.76c1.55,1.61,4.14,1.84,6.38,1.77a8.84,8.84,0,0,0,6.81-3.31" fill="#db2323"/><path d="M72.07,22.19A10.9,10.9,0,0,0,61,12.2C55.65,12.09,51.46,18,51.54,23c.1,6.19,3.16,12.62,10.13,12C67.07,34.49,72,27,72,22a.75.75,0,0,0-1.5,0c0,3.75-2.75,7.87-5.86,10-7,4.66-11.59-2.79-11.61-9,0-4.28,3.3-9,7.94-9.25a9.52,9.52,0,0,1,9.59,8.49c.1.95,1.6,1,1.5,0Z" fill="#9b1313"/><path d="M67.84,31.09c.2.18-.38.71,0,.79a13.84,13.84,0,0,1-5.12,3,6.94,6.94,0,0,1-2.42.33,16.28,16.28,0,0,1-2.52-.4c-.1,0-.24.08-.34,0-.31-.1-.64-.32-.92-.44a6.94,6.94,0,0,1-1.9-1,9.57,9.57,0,0,1-2.52-4c-.25-.74-.29-1.64-.62-2.55-.64-1.75-1.35-3.41-1.2-5.22a9.54,9.54,0,0,1,2.8-5.49c.32-.35.64-.55,1-.89s.59-.68.89-1a20,20,0,0,1,2.35-1.73A11.37,11.37,0,0,1,60,11.24,6.09,6.09,0,0,1,63.2,11c.75.15,1.47.59,2.19.75.77.74,2.24,1.42,3.12,2.34.31.32.22.52.38.68a11.51,11.51,0,0,1,1.13,1A10.31,10.31,0,0,1,71,17a8.18,8.18,0,0,1,1.37,6.21,12.4,12.4,0,0,1-.79,2.34c-.1.21-.27.39-.32.52-.23.6-.62,1.62-.87,2.21a11.71,11.71,0,0,1-1.73,3.39c-.79.16,0-1.07.35-2,.17-.42.23-.83.42-1.24a13.52,13.52,0,0,0,1.4-3.31,6.59,6.59,0,0,0,.77-3.22,6.69,6.69,0,0,0-.08-1.75,7.68,7.68,0,0,0-2.11-3.52,23.12,23.12,0,0,0-3-3.09,19.93,19.93,0,0,0-2-.68A8.84,8.84,0,0,0,61.58,12a6.22,6.22,0,0,0-3.81,1.25,29.37,29.37,0,0,0-3,2.54c-.54.82-.61,1.54-1.11,2.33-.35.56-1,1.09-1.42,1.81a6.06,6.06,0,0,0-.61,4.65,12.45,12.45,0,0,0,.51,2.11,19,19,0,0,0,2.39,4.12,11.24,11.24,0,0,0,.81,1.37,8.6,8.6,0,0,0,3.68,1.92,6,6,0,0,0,1.39.46,4.47,4.47,0,0,0,1.45-.21,10.7,10.7,0,0,0,3.32-1.4C66.1,32.38,67,31.51,67.84,31.09Z" fill-rule="evenodd"/><path d="M67.51,21.61c-.4-1.57-1.66-3.81-3.37-4.25a.73.73,0,0,0-.73.2c-.64.74-.29,2.73.3,3.44a12.79,12.79,0,0,0,1.53,1.41,2.87,2.87,0,0,0,1.24.83c1,.2,1.46-1.11,1.21-1.92a8.89,8.89,0,0,0-2.57-3.41c-.72-.65-1.78.41-1.06,1.06.23.21,2.5,2.78,2.24,2.9l.57-.07c-.53-.14-1.19-1-1.6-1.37a2.65,2.65,0,0,1-.66-2.26l-.21.53.07-.08-.73.19c.57.14,1.17.91,1.5,1.37A5.43,5.43,0,0,1,66.07,22a.75.75,0,0,0,1.44-.4Z" fill="#9b1313"/><path d="M64.25,26.69c-1.23.17-2.47.27-3.71.32-1,0-2.07,0-2.58,1a1.91,1.91,0,0,0,1.15,2.56,3.93,3.93,0,0,0,3.2.17c1.33-.46,5-1.08,3.63-3.36-1.21-2-4.2-1.56-6-1s-1,3.49.79,2.9a7.46,7.46,0,0,1,1.64-.42,4.72,4.72,0,0,1,1,.05l-.15-1.16c.26-.66.1-.45-.44-.33a7,7,0,0,0-1,.28c-.73.25-1.06.42-1.73-.07l.68.9-.08-.19-.15,1.16c-1,.4-1.14.57-.42.48L61,30l1.24-.09c1-.08,1.9-.2,2.85-.33a1.5,1.5,0,0,0,1-1.84,1.53,1.53,0,0,0-1.84-1Z" fill="#9b1313"/><path d="M60.06,23.21c.16-1.63,1.38-6.09-1.47-6.14-1.23,0-1.86,1.26-2.4,2.18a17.06,17.06,0,0,0-1.61,3.69A3.41,3.41,0,0,0,54.7,26a2.48,2.48,0,0,0,3.16.59c2.44-1.22,2.31-4.27,2.63-6.6.25-1.89-2.64-2.71-2.9-.8-.12.93-.25,1.86-.38,2.79a6.1,6.1,0,0,1-.2,1.28c-.06.15-1,1.43.28,1.12.1,0,.83-2.39,1-2.64a7.79,7.79,0,0,1,1.31-2.14l-1.06.44.2,0-1.06-.44c-.31-.35-.17-.05-.24.26a9.44,9.44,0,0,0-.12,1.18l-.21,2.13c-.18,1.92,2.82,1.91,3,0Z" fill="#9b1313"/><path d="M270.68,30.05c4.32.51,9.23.85,12.47-2.06,2-1.82,3-5.09,3.23-7.8a9.11,9.11,0,0,0-.43-4.37c-1.34-3.29-5.22-4.62-8.7-5.38a11.31,11.31,0,0,0-5.1-.26,10.18,10.18,0,0,0-4.55,3,16.43,16.43,0,0,0-3.8,5.48c-.8,2.09.09,4.53,1.1,6.53A8.84,8.84,0,0,0,270.78,30" fill="#db2323"/><path d="M280.77,29.73c3-1.8,4.46-3.43,5.05-7,.43-2.6.33-6.22-1.31-8.48-3.57-4.89-10.75-4.65-15.23-1.61-4.66,3.16-7.65,7.82-4.51,13.14,2.76,4.67,11.58,5.93,16.13,3.78.88-.41.12-1.71-.75-1.3-3.4,1.61-9.36.66-12.56-1.59C262.3,23,266.16,16.67,270,14c3.63-2.52,8.75-2.9,12.2.3,4.32,4,2.33,11.42-2.21,14.16a.75.75,0,0,0,.75,1.29Z" fill="#9b1313"/><path d="M270.86,29.71c-.08.24-.81-.06-.71.34a14.09,14.09,0,0,1-4.92-3.35,7.18,7.18,0,0,1-1.32-2.06,15.56,15.56,0,0,1-.7-2.44c0-.1-.18-.19-.19-.29,0-.33,0-.72,0-1a6.64,6.64,0,0,1,.07-2.13,9.46,9.46,0,0,1,2.56-4c.56-.54,1.35-1,2-1.65,1.32-1.31,2.52-2.66,4.22-3.29a9.61,9.61,0,0,1,6.16.21c.45.14.77.34,1.22.5s.87.24,1.25.4a20.16,20.16,0,0,1,2.56,1.4,11,11,0,0,1,2.4,1.83A6.11,6.11,0,0,1,287.06,17c.18.75.09,1.59.26,2.31-.35,1-.35,2.63-.81,3.81-.15.42-.38.43-.45.64a10.15,10.15,0,0,1-.42,1.45,10.26,10.26,0,0,1-.69,1.37,8.17,8.17,0,0,1-5,3.88,12.15,12.15,0,0,1-2.46.27c-.23,0-.47-.08-.6-.07-.64,0-1.74.14-2.38.15a11.52,11.52,0,0,1-3.8-.13c-.48-.64,1-.47,1.95-.52.45,0,.85-.15,1.31-.15a13.64,13.64,0,0,0,3.58-.13,6.56,6.56,0,0,0,3.25-.67,7.07,7.07,0,0,0,1.55-.81A7.6,7.6,0,0,0,284.6,25a23.06,23.06,0,0,0,1.53-4c0-.71-.2-1.38-.24-2.12a9.18,9.18,0,0,0-.38-2.9A6.25,6.25,0,0,0,282.76,13a30.67,30.67,0,0,0-3.56-1.62c-1-.13-1.65.11-2.58,0-.66-.08-1.4-.41-2.24-.51a6,6,0,0,0-4.47,1.41,13.51,13.51,0,0,0-1.7,1.36,18.53,18.53,0,0,0-2.71,3.91,9.75,9.75,0,0,0-.91,1.32,8.59,8.59,0,0,0-.17,4.14,6.12,6.12,0,0,0,.17,1.46,4.44,4.44,0,0,0,.8,1.22,10.54,10.54,0,0,0,2.68,2.41C269,28.67,270.13,29.15,270.86,29.71Z" fill-rule="evenodd"/><path d="M279.35,25.35c1.28-1.06,2.69-3.13,2.36-4.89a.76.76,0,0,0-.53-.53,1.84,1.84,0,0,0-1.4.43,3.55,3.55,0,0,0-1.48,1.2,9.3,9.3,0,0,0-.61,1.87,3.45,3.45,0,0,0-.3,1.73c.32,1.14,1.79.75,2.39.12a9.51,9.51,0,0,0,1.88-3.69c.29-.92-1.16-1.32-1.44-.4a10.68,10.68,0,0,1-.74,1.82,7.83,7.83,0,0,1-.47.79,3.31,3.31,0,0,1-.38.52c.17.37.27.44.3.2.26-.23.41-1.38.51-1.72a1.43,1.43,0,0,1,.65-.88c.09-.06.91-.48.69-.54l-.52-.52a3.77,3.77,0,0,1-.65,1.91,5.63,5.63,0,0,1-1.32,1.52c-.74.61.32,1.67,1.06,1.06Z" fill="#9b1313"/><path d="M273.47,24.8c-.64-1-1.24-2-1.8-3s-.95-2.28-2.28-2.3-1.79,1.2-1.78,2.31a3.94,3.94,0,0,0,1.26,2.84c.57.59,1,1.33,1.64,1.86a1.9,1.9,0,0,0,2.92-.1c1.27-2.05-.45-4.46-1.8-5.91s-3.43.7-2.12,2.12c.33.35,1.68,1.68,1.33,2.27l1.29-.74c.37.16.43.13.17-.09l-.19-.27a10.58,10.58,0,0,0-.74-.89c-.41-.42-.88-.69-.76-1.35l-.38.66.14-.16-1.06.44.17,0L268.41,22a3.75,3.75,0,0,1,.5.93c.19.37.39.73.59,1.09.44.77.9,1.52,1.38,2.26,1.05,1.62,3.65.12,2.59-1.51Z" fill="#9b1313"/><path d="M274.46,19.41c1.59-.56,6-1.24,5.26-3.79-.34-1.23-1.62-1.31-2.69-1.44a16.85,16.85,0,0,0-4.43.07,3.43,3.43,0,0,0-2.69,1.36,2.44,2.44,0,0,0,.57,3c2.12,2,5.13.45,7.45-.28,1.83-.57,1.05-3.47-.8-2.89l-2.61.82c-.45.13-.88.28-1.33.37l-.53-.12c-.6.71-.68,1-.23.83a8,8,0,0,0,1.37-.21c.45,0,.9-.05,1.35-.05a7.67,7.67,0,0,1,2.7.31l-1.05-1.05.06.19.15-1.15c.32-.15.23-.13-.27.07l-1,.36-2,.73c-1.81.63-1,3.53.8,2.89Z" fill="#9b1313"/><path d="M112.32,17.19c.24,0,.59-.37.94-.45.93-.2,2.09,0,2.62-.21a4.8,4.8,0,0,0,1.7-1.34c.36-.37,1.26-1.2,1.18-1.75-.13-.71-1.21-.94-2.33-.91a8.06,8.06,0,0,0-2.66.51,13.37,13.37,0,0,0-2.15,1.73,1.19,1.19,0,0,0-1.11,1.4C110.71,17,111.81,17.24,112.32,17.19Z" fill="#2ec639" fill-rule="evenodd"/><path d="M53.5,32.58c.24-1.1,1.63-3.81,2-5.2a7.13,7.13,0,0,1,.31-.92c0-.12-.26-.32-.25-.43s.16-.29.14-.5c-.11-1.6-1.66-1.14-3-.47-1,1.84-2.64,5.12-2.3,7.06,1,.14,1.21.77,2.16,1.29A1.27,1.27,0,0,1,53.5,32.58Z" fill="#2ec639" fill-rule="evenodd"/><path d="M94,19.76a8.52,8.52,0,0,0,1-.18c.93-.08,1.94.06,2.34-.25.91-.66.34-1.8,0-2.54a6.69,6.69,0,0,0-3.76-.39c-1.26.24-2.29.92-2.33,2.22A6.84,6.84,0,0,0,94,19.76Z" fill="#2ec639" fill-rule="evenodd"/><path d="M85.18,18.21c.41-1.37-.34-2.61-1.79-3.43A7.48,7.48,0,0,0,80.78,14a9.06,9.06,0,0,0-3.14.18c-1.18,1.5.09,2.52,1.8,3.25A12.07,12.07,0,0,0,85.18,18.21Z" fill="#2ec639" fill-rule="evenodd"/><path d="M127,14.09a13.23,13.23,0,0,0,5.82,3,9,9,0,0,1,2.08-.47c0-.43.1-.42.12-1a3.25,3.25,0,0,0-2.61-2,10.74,10.74,0,0,0-3-1.11,5.09,5.09,0,0,0-3.09,0C125.31,13.19,126.38,13.59,127,14.09Z" fill="#2ec639" fill-rule="evenodd"/><path d="M49.54,36c-.5-.27-.83,0-1.13-.42a13.28,13.28,0,0,0-.93,1.16,9.07,9.07,0,0,0-.87,1.64,3.16,3.16,0,0,0,0,3.22c1-.1,1.67-1,2.22-2.11a6.19,6.19,0,0,0,.57-1.75A4.92,4.92,0,0,0,49.54,36Z" fill="#2ec639" fill-rule="evenodd"/><path d="M105.74,20.21c.33-.05.73.11,1,0,.58-.21.6-.81.79-1.21-.47,0-.58-.61-.89-.87a6.93,6.93,0,0,0-5.28-.43c0,.41-.25.56-.21,1.07a6.36,6.36,0,0,0,4,1.64C105.37,20.42,105.51,20.24,105.74,20.21Z" fill="#2ec639" fill-rule="evenodd"/><path d="M66,20.88a22.38,22.38,0,0,1,4.48-1.78c.89-1.17,0-2.48-2-2.53a7.12,7.12,0,0,0-.94.3c-.92.18-1.83-.16-2.51.36-.81.7-1.89,1.2-2.61,1.8s-1.11,1.2-.65,1.9a1.9,1.9,0,0,0,1.9.55A9.83,9.83,0,0,0,66,20.88Z" fill="#2ec639" fill-rule="evenodd"/><path d="M105.4,26.35c.58-1.15-1-1.56-1.32-2.63a12.21,12.21,0,0,0-6.43.37,2.32,2.32,0,0,0,0,2.06c.41.43,1.17.12,2,.29s1.73.75,2.59.75C103.51,27.27,105.08,27,105.4,26.35Z" fill="#2ec639" fill-rule="evenodd"/><path d="M57.28,35.41c.16-.28.38-.57.31-.79-.09-.48-.63-.44-.81-.76a3.2,3.2,0,0,0-1.43.73,6,6,0,0,0-1.25,1.53,9,9,0,0,0-1.23,4.21c.25.38,1,.53.62,1.07a4.18,4.18,0,0,1,1.54.3c.14-.38.62-.67.67-.82s-.14-.22,0-.37c.25-.32.55-.29.78-.63a4.26,4.26,0,0,0,.62-2.09,3.83,3.83,0,0,0,.24-2C57.28,35.68,57.42,35.53,57.28,35.41Z" fill="#2ec639" fill-rule="evenodd"/><path d="M129.22,22.69c1.19.17,2.75-.14,2.95-1.1s-.92-1.2-1.39-1.91a10.54,10.54,0,0,1-2.23-.85,7,7,0,0,0-3.55,0,2.11,2.11,0,0,0-1.74,2c.08.3.86.43,1.11.55.58.23,1.47.42,2.34.66S128.6,22.59,129.22,22.69Z" fill="#2ec639" fill-rule="evenodd"/><path d="M66,24.93a4.91,4.91,0,0,0-3.53.83,8.9,8.9,0,0,0-1.69,1.31,9,9,0,0,0-1.34,1.54c.31.75.13,1.49,1.08,2.17.56-.28,1.14-.57,1.69-.88A15.88,15.88,0,0,0,63.85,29a8.8,8.8,0,0,0,1.54-1.1,7.21,7.21,0,0,0,1.32-1.42A3.36,3.36,0,0,0,66,24.93Z" fill="#2ec639" fill-rule="evenodd"/><path d="M118.61,22.73c-.4-.64-.51-1.23-1.11-1.67-1-.76-3.13-.46-4.78.3s-2.93,1.9-2.54,3a2.46,2.46,0,0,1,1.74.45c.66.33.87.06,1.7-.08C115.5,24.42,117.91,24.61,118.61,22.73Z" fill="#2ec639" fill-rule="evenodd"/><path d="M79.16,23.79c-.22-.64-.27-1.44-.53-2.06-1.52-1.17-4.41-.53-6.57-.18-.35.43-1.06.65-1,1.25s.42.49.67,1.06a10.32,10.32,0,0,0,2.57.44c.38,0,.87-.15,1.25-.11C76.77,24.29,78.3,24.65,79.16,23.79Z" fill="#2ec639" fill-rule="evenodd"/><path d="M92.56,24.63c-.32-.31-.31-.83-.52-1.2a18.18,18.18,0,0,0-7.89-1.26,1.36,1.36,0,0,0-.61,1.48c2.48,1.23,5.31,2.56,8.31,2.07A4.77,4.77,0,0,1,92.56,24.63Z" fill="#2ec639" fill-rule="evenodd"/><path d="M67.52,28.07s0,.45-.21.27c.23.84-.1,1.48.69,2.25a12.28,12.28,0,0,1,1.64.12l1.54.3c.51-.08,1-.08,1.48-.19a1,1,0,0,0,.93-.89c-.27-.75-.71-1.1-1-2A4.46,4.46,0,0,0,67.52,28.07Z" fill="#2ec639" fill-rule="evenodd"/><path d="M82.64,26.44c-.88-.58-2.29-.25-3-.35-.26.07-.32.39-.58.46a1.56,1.56,0,0,0-1.2,0c-.38.16-.73.39-1,.54.09.49-.13.62-.06,1.08.52.12.47,1,.88,1.18,1.15.09,1.91-.25,3.07.19.63-.39,1.47-.49,2.1-.94a2.65,2.65,0,0,1,.56-1.37C83,27.09,83,26.69,82.64,26.44Z" fill="#2ec639" fill-rule="evenodd"/><path d="M110.61,28.5c-2-.3-2.84,1.13-4.85,1.43-.57.4-1.23.74-1.82,1.14a3.28,3.28,0,0,0-1.36,1.4c.28.1.3.41.49.58,1.29,0,1.84-.06,2.33.42a11.85,11.85,0,0,0,3.59-1,11.12,11.12,0,0,0,2.71-1.74c-.32-.64,0-1,0-1.5C111.21,29,110.94,28.51,110.61,28.5Z" fill="#2ec639" fill-rule="evenodd"/><path d="M117.36,26.25c-.28.82-1,1.88-.43,2.81.67.34,1.43-.17,1.88-.5.71.05,1.69.19,2.51.19s1.48-.14,1.88-.85a11.39,11.39,0,0,0-.47-1.75A5.68,5.68,0,0,0,117.36,26.25Z" fill="#2ec639" fill-rule="evenodd"/><path d="M61.61,37.51c.78.63.68,1,1.78,1.46a6.84,6.84,0,0,0,2.32-4.27,2.27,2.27,0,0,0-2-1.51A4,4,0,0,0,61.61,37.51Z" fill="#2ec639" fill-rule="evenodd"/><path d="M126.54,25.49a3.33,3.33,0,0,0-.48,1.16c0,1.21.94,1.85,1.6,2.47,1,.95,1.71,1.34,3,.62a2.46,2.46,0,0,0-.5-3.35A4.58,4.58,0,0,0,126.54,25.49Z" fill="#2ec639" fill-rule="evenodd"/><path d="M93.44,29.91,91,29.46a9,9,0,0,0-2.8-.19c.08.58-.19.48-.33,1,.19.52.49,1,.71,1.49,2.09.44,4.15,2.16,6.52,1.88a7.35,7.35,0,0,0,1.34-1.39c0-.46-.59-.57-.58-1.05A3.92,3.92,0,0,1,93.44,29.91Z" fill="#2ec639" fill-rule="evenodd"/><path d="M62.08,40.86a1.51,1.51,0,0,0-1.5.09.88.88,0,0,0-.11,1.16,2.9,2.9,0,0,0,2.71,0c-.19-.57.44-.86.41-1.23-.25-.28-.48-.13-.76-.38A.82.82,0,0,1,62.08,40.86Z" fill="#2ec639" fill-rule="evenodd"/><path d="M203.67,19.1c.14.1.55,0,.77.12.61.3,1.18,1,1.55,1a1.65,1.65,0,0,0,1.24-.69,2.12,2.12,0,0,0,.7-1.42,1.85,1.85,0,0,0-.65-1.45,2,2,0,0,0-1-.43,3.85,3.85,0,0,0-.75.24,4.06,4.06,0,0,1-.93.28,1,1,0,0,0-1.36.53A1.58,1.58,0,0,0,203.67,19.1Z" fill="#2ec639" fill-rule="evenodd"/><path d="M145.57,21.49c.91,0,3.35.22,4.39-.23l.71-.22c.08-.06.12-.39.19-.46s.23,0,.36-.18c.9-1.06.11-1.93-.53-2.66-1.28.27-3.59,0-5,.76,0,1-.52,1.33-.88,2.36A.94.94,0,0,1,145.57,21.49Z" fill="#2ec639" fill-rule="evenodd"/><path d="M182.78,11.45c.36,0,.8-.15,1.31-.14a20.2,20.2,0,0,0,3.12.2c1.3-.37.76-1.68.3-2.55a9.91,9.91,0,0,0-5.83-.89c-1.94.31-3.22,1.31-2.82,2.57.41.07,1,.26,1.73.4A15.68,15.68,0,0,0,182.78,11.45Z" fill="#2ec639" fill-rule="evenodd"/><path d="M171.17,13.66a2,2,0,0,0-1.54-1.23,5,5,0,0,0-2.57.3,7.84,7.84,0,0,0-4.15,3.38c.41,1.59,1.68,2,3.27,1.32A17.32,17.32,0,0,0,171.17,13.66Z" fill="#2ec639" fill-rule="evenodd"/><path d="M211.12,18.43a4.72,4.72,0,0,0,2.44.28,8.19,8.19,0,0,0,3.1-1.2c.2-.65,1.05-1.23,1.59-1.82-.29-.34-.19-.39-.54-.82a4,4,0,0,0-3.7.42,16.23,16.23,0,0,0-2.6.9c-.85.38-1.33.64-1.35,1C210,18,210.54,18.22,211.12,18.43Z" fill="#2ec639" fill-rule="evenodd"/><path d="M142.57,18.24c.23-.51,0-.81.38-1.14-.79-.88-3.08-2.87-4.57-1.75C138.2,17.21,140.78,18.76,142.57,18.24Z" fill="#2ec639" fill-rule="evenodd"/><path d="M197,17.07c.32.2.58.61.83.71.62.26,1.06-.16,1.47-.32-.38-.3,0-.86-.12-1.27A7.77,7.77,0,0,0,197,13.67a9.67,9.67,0,0,0-3.9-1.85c-.21.35-.58.37-.72.86a17.83,17.83,0,0,0,3.86,4.15C196.47,17,196.73,16.92,197,17.07Z" fill="#2ec639" fill-rule="evenodd"/><path d="M158.64,23a15.52,15.52,0,0,0,3-1,2.4,2.4,0,0,0-1.74-2.53c-.13,0-.23.16-.39.15-.48-.06-.9-.58-1.22-.32-.81.73-2.27.25-2.24,1.93C156.05,22.48,157.64,23.05,158.64,23Z" fill="#2ec639" fill-rule="evenodd"/><path d="M192.8,21.64c1.16-.6.11-1.84.44-2.9a8.62,8.62,0,0,0-6.47-2.44,2.39,2.39,0,0,0-.47,2c.26.52,1,.39,1.75.83s1.21,1.27,1.88,1.67C190.89,21.36,192.19,22,192.8,21.64Z" fill="#2ec639" fill-rule="evenodd"/><path d="M143.6,25.78c.32.1.68.25.88.14.46-.19.27-.71.55-1-.78-1.75-3.8-3.07-6.48-3.38-.38.22-.62,1-1.09.53a4,4,0,0,1-.48,1.48c.36.23.63.69.79.77s.24-.13.39,0c.32.28.28.58.63.84a4.55,4.55,0,0,0,2.29.64,3.89,3.89,0,0,0,2.09.05C143.32,25.84,143.51,25.94,143.6,25.78Z" fill="#2ec639" fill-rule="evenodd"/><path d="M217.7,24.14c1.07-.7,1.93-1.94,1.46-2.8s-1.49-.29-2.3-.48a7.67,7.67,0,0,1-2.16.77,9.65,9.65,0,0,0-2.63,1.63,2.54,2.54,0,0,0-1,2.37c.13.3,1,.22,1.31.23a7.73,7.73,0,0,0,2.69-.58A13.79,13.79,0,0,0,217.7,24.14Z" fill="#2ec639" fill-rule="evenodd"/><path d="M157.55,26.73c-1.59-1.3-4.61-1.47-6.93-1.56-.42.68-1.16.94-1.26,2.09a12.91,12.91,0,0,0,3.88,1.58,6.82,6.82,0,0,0,4.33-.42A3,3,0,0,0,157.55,26.73Z" fill="#2ec639" fill-rule="evenodd"/><path d="M205.75,27a6.75,6.75,0,0,0-.36-2c-.58-1.09-2.24-1.86-3.9-2.34s-3.39-.52-3.86.57a2.48,2.48,0,0,1,1,1.51c.29.68.62.65,1.38,1.09a15.72,15.72,0,0,0,2.85,1.52,4.18,4.18,0,0,0,1.54.23A2.29,2.29,0,0,0,205.75,27Z" fill="#2ec639" fill-rule="evenodd"/><path d="M170.58,22.08c-.61-.28-1.22-.8-1.84-1.07-1.87.24-3.41,2.44-5.27,3.12-.17.5-.79.77-.67,1.37s.47.43.82.94a9.57,9.57,0,0,0,1.38-.05,5.57,5.57,0,0,0,1.6-.48c.42-.22.83-.68,1.22-.9C169.09,24.29,170.6,23.31,170.58,22.08Z" fill="#2ec639" fill-rule="evenodd"/><path d="M181.56,16.36c-.34-.27-.38-.79-.65-1.14a8.69,8.69,0,0,0-4.42,0,8.38,8.38,0,0,0-3.55,2.1,1.33,1.33,0,0,0,.55,1.5,22.68,22.68,0,0,1,3.76-.66,19.1,19.1,0,0,0,3.71-.69A4.1,4.1,0,0,1,181.56,16.36Z" fill="#2ec639" fill-rule="evenodd"/><path d="M157.57,30.22c-.06,0-.23.42-.42.15-.25.86-1.18,1.26-.79,2.32a25,25,0,0,0,4.94,1.37c2.09-.21,4.62-.43,5.4-2-.52-.63-1.31-.78-1.68-1.6a16.87,16.87,0,0,0-3.6-.39A18.51,18.51,0,0,0,157.57,30.22Z" fill="#2ec639" fill-rule="evenodd"/><path d="M174.79,21.47c-.89.11-1.59,1.33-2.21,1.87-.15.24,0,.51-.11.76-.88.39-1.2,1.56-1.65,2.32.41.29.24.61.6.91.67-.41,1.14.28,1.77,0,1.27-1.07,1.63-2,2.67-2.45a13.16,13.16,0,0,0,.45-1.86,3.4,3.4,0,0,1-.59-1.34C175.41,21.79,175.19,21.42,174.79,21.47Z" fill="#2ec639" fill-rule="evenodd"/><path d="M195.15,26.54c-1.26-1.57-2.7-1-4.19-1.81-1.17.11-2.39,0-3.28.85.12.19,0,.46,0,.68.77.44,1.07.65,1.09,1.26.18.09.37.17.57.25a7.07,7.07,0,0,0,.69.27c.46.17,1,.32,1.47.45a13,13,0,0,0,2.94.38c.2-.68.65-.77,1-1.11C195.26,27.28,195.38,26.76,195.15,26.54Z" fill="#2ec639" fill-rule="evenodd"/><path d="M202.5,29.4c-.79.5-2.31.84-2.33,1.94.49.73,1.79.85,2.65.84a13.53,13.53,0,0,0,4.08,1.41c1.69.24,3.52.07,4.57-.81a7.5,7.5,0,0,0-.86-1.67C207.64,30.64,205.43,29.65,202.5,29.4Z" fill="#2ec639" fill-rule="evenodd"/><path d="M142.42,30.44c-.55.87-1.1.8-1.33,2A11.14,11.14,0,0,0,149,33.78c.87-.69.66-1.74,0-2.56A10.34,10.34,0,0,0,142.42,30.44Z" fill="#2ec639" fill-rule="evenodd"/><path d="M216.9,28.26c0,.47-.18,1,0,1.35.59,1.07,2.59.59,3.72.47,1.77-.2,2.48-.33,2.58-1.51-.46-1.5-1.18-2.33-2.35-2.3S218.27,27.15,216.9,28.26Z" fill="#2ec639" fill-rule="evenodd"/><path d="M182.19,21.58a5.53,5.53,0,0,0-.81-.16,8,8,0,0,0-.84-.09,2.33,2.33,0,0,0-1.65.37c.16.54,0,.51.06,1.08a13.54,13.54,0,0,1,.54,1.28,2.88,2.88,0,0,1,1.41.69,2.38,2.38,0,0,0,1.74.54A14.35,14.35,0,0,0,183.8,24c.09-.44-.25-.6-.14-1.06A2.73,2.73,0,0,1,182.19,21.58Z" fill="#2ec639" fill-rule="evenodd"/><path d="M137.94,30.87A1.42,1.42,0,0,0,136.12,29c-.92.85-.37,2.08.08,2.81.85,0,1.43.61,2,.67.36-.23.09-.5.38-.76A1.16,1.16,0,0,1,137.94,30.87Z" fill="#2ec639" fill-rule="evenodd"/><path d="M291.62,8.69c.22.15.78.18,1.12.37.94.51,1.65,1.52,2.17,1.76a4.89,4.89,0,0,0,2.14.25c.5,0,1.66,0,2-.49s-.14-1.45-.9-2.2a8,8,0,0,0-2.29-1.55,16.66,16.66,0,0,0-3.09-.4,1.49,1.49,0,0,0-2.11.2C290.24,7.41,291.17,8.35,291.62,8.69Z" fill="#2ec639" fill-rule="evenodd"/><path d="M232.28,16.09c1.09-.07,4,.26,5.3.08.28,0,.88-.07.91-.07s.18-.36.28-.41.3,0,.47-.08c1.3-.79.43-1.93-.51-2.85-1.82-.11-5.18-.63-6.92.3.16,1-.36,1.39-.57,2.46A1.21,1.21,0,0,1,232.28,16.09Z" fill="#2ec639" fill-rule="evenodd"/><path d="M266.44,10.91c.28-.16.47-.54.84-.84.86-.72,2.08-1.26,2.4-1.78.78-1.12-.51-1.77-1.41-2.14a9.06,9.06,0,0,0-4.48,2.55c-1,1.15-1.35,2.4-.48,3.36A10.06,10.06,0,0,0,266.44,10.91Z" fill="#2ec639" fill-rule="evenodd"/><path d="M258.69,16a3.16,3.16,0,0,0-3.35-1.54,5.77,5.77,0,0,0-3.65,1.9c0,1.61,1.17,2.34,2.72,2.15A6.64,6.64,0,0,0,258.69,16Z" fill="#2ec639" fill-rule="evenodd"/><path d="M304.08,15.69a9,9,0,0,0,3,5.21c.63-.06,1.32.39,2,.5.21-.38.28-.34.55-.8a3,3,0,0,0-1.17-2.82c-.46-1-2.87-3.8-3.93-3.73S303.89,15,304.08,15.69Z" fill="#2ec639" fill-rule="evenodd"/><path d="M227.83,13.35c.1-.56-.28-.79,0-1.2a8.45,8.45,0,0,0-1.43-.51c-.29-.09-.6-.16-.92-.23s-.67-.08-1-.1a3.61,3.61,0,0,0-3.26,1.15c.45.86,1.65,1.23,2.91,1.37A7.24,7.24,0,0,0,227.83,13.35Z" fill="#2ec639" fill-rule="evenodd"/><path d="M282.26,7.26c.48.07,1,.35,1.33.37.83.1,1.19-.43,1.65-.67-.62-.21-.45-.84-.74-1.23a6.51,6.51,0,0,0-1.82-1,9,9,0,0,0-2.36-.61,11.87,11.87,0,0,0-2.67-.06A12.76,12.76,0,0,0,275,4.7c0,.42-.31.66-.13,1.14.68.19,1.75.52,2.9.75.57.09,1.18.3,1.78.41s1.2.19,1.77.31C281.63,7.35,281.91,7.21,282.26,7.26Z" fill="#2ec639" fill-rule="evenodd"/><path d="M246.94,21.41a5.13,5.13,0,0,0,2.35.23c.45-1-.22-2.36-.52-3-.05-.09-.13.06-.19,0s-.12-.85-.27-.68-.82,0-1.51-.2-1.32-.12-1.66.65C244.57,19.55,246.25,21,246.94,21.41Z" fill="#2ec639" fill-rule="evenodd"/><path d="M280.33,13.16c.74-1.1-.74-1.65-1-2.75a6.6,6.6,0,0,0-.85-.21c-.3,0-.62,0-.94,0a7,7,0,0,0-2,.3,7.21,7.21,0,0,0-3.12,1.76,2.38,2.38,0,0,0,.93,1.83c.52.23,1-.33,1.85-.45s1.67.29,2.4.29C278.64,13.81,280,13.74,280.33,13.16Z" fill="#2ec639" fill-rule="evenodd"/><path d="M230.75,20.56c.32.06.67.17.86,0,.43-.24.21-.73.47-1a4.58,4.58,0,0,0-3-1.86,8.76,8.76,0,0,0-4.43.14c-.28.35-.16,1.16-.82.95a3.94,3.94,0,0,1,.24,1.54c.4,0,.82.36,1,.36s.16-.2.34-.15c.38.14.43.41.82.56a2.05,2.05,0,0,0,1,.1l1.17-.15a4.22,4.22,0,0,0,1.94-.35C230.49,20.65,230.68,20.73,230.75,20.56Z" fill="#2ec639" fill-rule="evenodd"/><path d="M301.18,24c1,.81,2.51,1.27,3.14.52s-.23-1.49-.28-2.33c-.63-.41-1.12-1.51-1.42-1.83a7.47,7.47,0,0,0-2.8-2,2.19,2.19,0,0,0-2.59.52c-.14.29.4.89.54,1.13a14.89,14.89,0,0,0,1.57,2A18.77,18.77,0,0,0,301.18,24Z" fill="#2ec639" fill-rule="evenodd"/><path d="M244.11,24.12c-.74-2-3.86-3.42-6.26-3.91-.56.58-1.32.71-1.59,1.85,2,1.6,4.19,3.46,7.05,3.54A3.25,3.25,0,0,0,244.11,24.12Z" fill="#2ec639" fill-rule="evenodd"/><path d="M292.45,17.12a4.91,4.91,0,0,0,.4-2,3.24,3.24,0,0,0-1.25-1.83,7.36,7.36,0,0,0-2.53-1.28,5.3,5.3,0,0,0-2.58-.18A1.47,1.47,0,0,0,285.18,13c.77.36.85.78,1.13,1.31s.6.57,1.28,1,1.53,1.15,2.32,1.58A2.54,2.54,0,0,0,292.45,17.12Z" fill="#2ec639" fill-rule="evenodd"/><path d="M257.65,24c-.55-.41-1-1.06-1.56-1.46a5.92,5.92,0,0,0-2.9.69c-.49.22-1,.48-1.5.67a5.57,5.57,0,0,1-1.4.39c-.29.48-.95.53-1,1.14s.3.56.47,1.16a5.49,5.49,0,0,0,3.13.16c.46-.11.94-.45,1.36-.57C255.59,25.82,257.35,25.23,257.65,24Z" fill="#2ec639" fill-rule="evenodd"/><path d="M268.43,15.58c-.44,0-.77-.43-1.19-.56a17.38,17.38,0,0,0-6.6,4.54,1.4,1.4,0,0,0,.55,1.51c2.75-.8,5.61-2,7.41-4.2A3.92,3.92,0,0,1,268.43,15.58Z" fill="#2ec639" fill-rule="evenodd"/><path d="M242.46,27.19c-.05,0-.36.28-.38,0-.59.66-1.43.68-1.6,1.79.44.53.78,1,1.26,1.6.25.29.51.58.82.88a5.12,5.12,0,0,0,.61.5c.23.17.46.34.7.5a14.29,14.29,0,0,0,3.91,1.15,4.11,4.11,0,0,0,3.19-.74c-.34-.75-1.16-1.13-1.24-2-.95-.52-2.34-1.09-3.69-1.82l-2-1.08A8.76,8.76,0,0,0,242.46,27.19Z" fill="#2ec639" fill-rule="evenodd"/><path d="M262.36,23.75c-1.11.22-2.18,1.44-3,1.88-.23.23-.11.53-.34.75-1,.25-1.67,1.29-2.28,1.92.32.39.08.65.35,1,.73-.23,1,.56,1.72.46,1.62-.78,2.29-1.65,3.8-2.21A15.74,15.74,0,0,0,264,25.27a2.52,2.52,0,0,1-.47-1.41C263.06,24,262.86,23.65,262.36,23.75Z" fill="#2ec639" fill-rule="evenodd"/><path d="M283.61,16.79c-1.24-1.11-2.21,0-3.44,0-.39.33-.8.61-1.14.95a2.57,2.57,0,0,0-.65,1.44c.15.09.19.4.3.56.61-.08.88,0,1.09.54a12.47,12.47,0,0,0,3.59-1.07,2.75,2.75,0,0,1,.61-1.33C283.78,17.44,283.81,16.93,283.61,16.79Z" fill="#2ec639" fill-rule="evenodd"/><path d="M289.12,18.75c-.74.42-1.86.75-2.09,1.82.16.67.94.72,1.46.83.85,1,2.24,3.19,4,2.85a10,10,0,0,0,.75-1.66C292.3,20.87,291.22,19.34,289.12,18.75Z" fill="#2ec639" fill-rule="evenodd"/><path d="M230.09,25.32c-.37.94-.78,1-.88,2.15a8.46,8.46,0,0,0,5.52.93,2,2,0,0,0,.54-2.49A4.89,4.89,0,0,0,230.09,25.32Z" fill="#2ec639" fill-rule="evenodd"/><path d="M297.25,24.83c-.39.23-.84.3-1.11.65-.72.95-.06,2.22.31,3.2.57,1.49,1.14,2.31,2.68,2.35C301.93,29.36,299.75,26,297.25,24.83Z" fill="#2ec639" fill-rule="evenodd"/><path d="M272.22,19.27a19.64,19.64,0,0,0-1.8,1,6.19,6.19,0,0,0-1.95,1.61c.45.36.2.48.49,1,.49.26,1,.37,1.47.63,1.64-1,3.68-.63,4.64-1.68a13.33,13.33,0,0,0,.05-1.7c-.2-.39-.56-.3-.77-.73A3.16,3.16,0,0,1,272.22,19.27Z" fill="#2ec639" fill-rule="evenodd"/><path d="M227,26.77c.13-1.34-.95-2-1.54-1.14a3.3,3.3,0,0,0,.76,2.58c.45-.29.84.09,1.18,0,.19-.32,0-.5.13-.83C227.27,27.33,227.12,27.05,227,26.77Z" fill="#2ec639" fill-rule="evenodd"/><path d="M107.59,14.48c.16.12.59.06.83.18.66.35,1.25,1.09,1.66,1.18a2.27,2.27,0,0,0,1.56-.42c.36-.18,1.12-.62,1.26-1.17.33-1.38-1.64-2.27-2.27-2.39-.46,0-1.43.26-2.06.3a1,1,0,0,0-1.5.45A1.64,1.64,0,0,0,107.59,14.48Z" fill="#2ec639" fill-rule="evenodd"/><path d="M54.21,21.51a20.81,20.81,0,0,0,4.3-1.16c.21-.12.68-.31.7-.33s.06-.4.13-.48.24-.07.35-.23c.85-1.17-.16-1.94-1-2.56-1.42.46-3.94.72-5.13,1.85.22.94-.14,1.43-.2,2.52A.89.89,0,0,1,54.21,21.51Z" fill="#2ec639" fill-rule="evenodd"/><path d="M87.34,8.8c.32,0,.69-.19,1.13-.22a15.21,15.21,0,0,0,2.79-.08c1.16-.53.58-1.74.14-2.56a8.53,8.53,0,0,0-5-.47C84.69,5.83,83.65,6.78,84,8A16,16,0,0,0,87.34,8.8Z" fill="#2ec639" fill-rule="evenodd"/><path d="M77.36,9.84c-.22-1.4-1.59-2.19-3.54-2a8.74,8.74,0,0,0-5.92,3.55c0,1,.45,1.45,1.13,1.55a6.24,6.24,0,0,0,2.57-.45A27,27,0,0,0,77.36,9.84Z" fill="#2ec639" fill-rule="evenodd"/><path d="M117,16c.89,1.15,2.14,2.08,3.83,1.57.19-.52.73-.8,1-1.28-.2-.38-.14-.41-.37-.89-.65-.49-1.21-1.13-2-.84-.65-.24-2.36-.77-2.83-.14S116.65,15.53,117,16Z" fill="#2ec639" fill-rule="evenodd"/><path d="M50.62,19.22c.07-.56-.2-.78,0-1.2-1-.62-3.39-1.88-4.35-.4C46.55,19.46,49.14,20.23,50.62,19.22Z" fill="#2ec639" fill-rule="evenodd"/><path d="M100.72,12.71c.33.17.61.54.87.63.63.2,1-.26,1.44-.44-.41-.28-.12-.86-.22-1.27a8.3,8.3,0,0,0-6.14-3.56c-.16.37-.5.44-.59.94A14.68,14.68,0,0,0,100,12.55C100.22,12.66,100.47,12.59,100.72,12.71Z" fill="#2ec639" fill-rule="evenodd"/><path d="M65.64,21.47c.65-.32.8-1.32,1.21-1.85A4.18,4.18,0,0,0,64.3,18c-.08,0,0,.14-.08.15-.23,0-.71-.47-.64-.21s-.12.41-.21.57-.12.45.1,1.3a2.51,2.51,0,0,0,.94,1.46A1.26,1.26,0,0,0,65.64,21.47Z" fill="#2ec639" fill-rule="evenodd"/><path d="M97.15,17.74c1-.75-.05-1.81.17-2.91a7.65,7.65,0,0,0-6.18-1.55,2.55,2.55,0,0,0-.29,2c.27.49,1,.28,1.68.62s1.23,1.1,1.89,1.4C95.35,17.74,96.62,18.13,97.15,17.74Z" fill="#2ec639" fill-rule="evenodd"/><path d="M53.46,26.17c.31,0,.66.07.81-.09.36-.31.08-.76.27-1.07-1.11-1.52-4.19-1.91-6.61-1.45-.28.31-.3,1.16-.84.81A4.51,4.51,0,0,1,47,25.93c.37.12.74.48.9.51s.18-.18.35-.1c.35.17.39.47.78.63a4,4,0,0,0,2.18,0,3.58,3.58,0,0,0,1.86-.53C53.23,26.3,53.42,26.35,53.46,26.17Z" fill="#2ec639" fill-rule="evenodd"/><path d="M120,24.08a3.55,3.55,0,0,0,1.76-.79,1.36,1.36,0,0,0,.52-1.37c-.25-.84-1.26-.67-1.87-1.19-.61.25-1.58-.19-1.94-.23-1.86-.11-4.18,0-4.62,2,0,.32.74.6,1,.72a8.17,8.17,0,0,0,2.4.71A9.4,9.4,0,0,0,120,24.08Z" fill="#2ec639" fill-rule="evenodd"/><path d="M66.26,25.42a9.15,9.15,0,0,0-3.06-1.26,12.39,12.39,0,0,0-3.45,0c-.32.73-1,1.09-.89,2.25.55.23,1.13.47,1.73.67.29.11.6.2.9.29a8.9,8.9,0,0,0,1,.21A6.15,6.15,0,0,0,66.79,27,3.06,3.06,0,0,0,66.26,25.42Z" fill="#2ec639" fill-rule="evenodd"/><path d="M108.88,22.51a5.89,5.89,0,0,0,0-2c-.37-1.15-1.94-2.07-3.53-2.52s-3.23-.37-3.63.74c.67.43.69.86.91,1.42s.56.6,1.23,1C105.33,22.07,107.24,23.74,108.88,22.51Z" fill="#2ec639" fill-rule="evenodd"/><path d="M75.37,17.67c-.54-.38-1.08-1-1.66-1.3a3.66,3.66,0,0,0-2.57,1.53l-.53.7-.45.76c-.16.24-.29.5-.42.73s-.22.4-.33.58c.18.5-.11,1,.32,1.51s.58.15,1.13.43a9.49,9.49,0,0,0,1-.79l.52-.5c.16-.15.31-.29.45-.44s.33-.66.59-.86C74.22,19.34,75.33,18.8,75.37,17.67Z" fill="#2ec639" fill-rule="evenodd"/><path d="M86.34,13.76c-.32-.27-.37-.78-.62-1.12a9.66,9.66,0,0,0-7.47,1.19,1.42,1.42,0,0,0,.19,1.59c2.53,0,4.94.38,7.36-.5A4,4,0,0,1,86.34,13.76Z" fill="#2ec639" fill-rule="evenodd"/><path d="M67.32,28.74c-.06,0-.13.44-.41.2,0,.86-1,1.33-.29,2.34A10.67,10.67,0,0,0,72.46,31a11.13,11.13,0,0,0,2.76-2.26,4,4,0,0,0,1.09-2.86c-.77-.27-1.49.08-2.22-.46A27.39,27.39,0,0,0,71,27.16,17.09,17.09,0,0,1,67.32,28.74Z" fill="#2ec639" fill-rule="evenodd"/><path d="M79.08,18.26c-.83-.13-1.6.74-2,1-.11.17,0,.44-.06.62-.65.1-.71,1-.74,1.44.39.31.38.49.74.78.29-.13.86.5,1.18.53.46-.32.59-.89,1.36-.93.1-.54.45-1,.63-1.57a3.59,3.59,0,0,1-.25-1.45C79.58,18.72,79.46,18.32,79.08,18.26Z" fill="#2ec639" fill-rule="evenodd"/><path d="M99.49,22.22c-1.14-1.4-2.41-.65-3.78-1.18-1.09.26-2.24.29-3,1.28.13.17,0,.46.08.67.76.32,1.07.49,1.13,1.08a11.69,11.69,0,0,0,5,.49c.18-.68.57-.82.87-1.19C99.59,22.93,99.7,22.41,99.49,22.22Z" fill="#2ec639" fill-rule="evenodd"/><path d="M105.77,24.66c-.73.48-2,.83-2.15,1.92.33.7,1.37.8,2,.83a13.83,13.83,0,0,0,2.83,1.72,4.1,4.1,0,0,0,3.37.21,9.21,9.21,0,0,0-.11-1.85C109.77,26.25,108.21,25,105.77,24.66Z" fill="#2ec639" fill-rule="evenodd"/><path d="M53.52,31c-.25,1-.74,1.07-.66,2.26a8.83,8.83,0,0,0,6.45-.36,2,2,0,0,0-.25-2.53A6.37,6.37,0,0,0,53.52,31Z" fill="#2ec639" fill-rule="evenodd"/><path d="M117.38,27.39c-.2.42-.59.76-.59,1.21,0,1.2,1.83,1.77,3.25,2.13,2.13.55,3.72.4,4.91-.95.13-1.66-1-2.39-2.46-2.62A16.73,16.73,0,0,0,117.38,27.39Z" fill="#2ec639" fill-rule="evenodd"/><path d="M87.14,18.94a11.34,11.34,0,0,0-1.69-.19,3,3,0,0,0-1.83.36c.16.54,0,.51,0,1.08.21.47.46.83.64,1.29,1.17,0,2.23,1.44,3.62,1.14a11.93,11.93,0,0,0,1-1.37c.06-.45-.29-.56-.22-1A2.75,2.75,0,0,1,87.14,18.94Z" fill="#2ec639" fill-rule="evenodd"/><path d="M49.78,32.64a1.33,1.33,0,0,0-2.14-1.28c-.64,1.06.22,2.1.82,2.67.77-.28,1.43.17,1.95.07.26-.32,0-.5.15-.83A1.06,1.06,0,0,1,49.78,32.64Z" fill="#2ec639" fill-rule="evenodd"/><path d="M190.79,12.28c.19.07.62-.11.92,0,.82.18,1.66.78,2.12.79a3.11,3.11,0,0,0,1.68-.69c.37-.25,1.21-.77,1.27-1.33.15-1.43-2.65-2-3.39-2a14.31,14.31,0,0,0-2.26.76,1.1,1.1,0,0,0-1.46.83C189.51,11.46,190.36,12.12,190.79,12.28Z" fill="#2ec639" fill-rule="evenodd"/><path d="M132.4,14.11a20.88,20.88,0,0,1,2.32-1c1-.38,2.07-.73,2.76-1.05a7.28,7.28,0,0,1,1-.35c.11-.06.08-.4.19-.47s.35-.06.51-.21c.64-.56.62-1.05.21-1.48a5.08,5.08,0,0,0-1.93-1.08c-.56.14-1.24.27-1.9.48a14.14,14.14,0,0,0-2,.69,6.2,6.2,0,0,0-2.82,2c.56.81.31,1.4.59,2.45A1.08,1.08,0,0,1,132.4,14.11Z" fill="#2ec639" fill-rule="evenodd"/><path d="M170.82,11.46c.28,0,.6-.22,1-.28a8.1,8.1,0,0,0,2.39-.4c.92-.69.29-1.8-.12-2.54A7.06,7.06,0,0,0,170,8.16c-1.34.4-2.31,1.26-2.1,2.55A9,9,0,0,0,170.82,11.46Z" fill="#2ec639" fill-rule="evenodd"/><path d="M161.57,11.83c0-1.42-1.28-2.36-3-2.54a6.9,6.9,0,0,0-4.79,1.27c-.28,1.64.78,2.47,2.39,2.57A12,12,0,0,0,161.57,11.83Z" fill="#2ec639" fill-rule="evenodd"/><path d="M202.51,12.73a6.67,6.67,0,0,0,4.74,2.47c.42-.43,1.16-.49,1.68-.81-.05-.43,0-.43,0-1-.53-.71-.94-1.52-2.28-1.53-.83-.48-3.84-1.39-4.54-.77S202,12.23,202.51,12.73Z" fill="#2ec639" fill-rule="evenodd"/><path d="M127.8,13.34c-.14-.55-.5-.64-.42-1.13a9.27,9.27,0,0,0-2.48,0c-.87.14-1.56.5-1.67,1.34C124.1,15.2,126.69,14.89,127.8,13.34Z" fill="#2ec639" fill-rule="evenodd"/><path d="M183.49,12.58c.37.06.74.33,1,.34.65,0,.9-.56,1.23-.86-.47-.14-.37-.78-.59-1.14a8,8,0,0,0-6.42-1.66c-.07.41-.34.55-.33,1.06a10.7,10.7,0,0,0,4.41,2.32C183,12.69,183.23,12.54,183.49,12.58Z" fill="#2ec639" fill-rule="evenodd"/><path d="M147.76,15.49a10.19,10.19,0,0,0,2.63.1c.58-1-.11-2.36-.64-3-.07-.09-.18.06-.27,0-.25-.19-.35-.85-.67-.7a3.62,3.62,0,0,1-1.55,0,1.19,1.19,0,0,0-1.34.92C145.54,14.1,146.94,15.23,147.76,15.49Z" fill="#2ec639" fill-rule="evenodd"/><path d="M181.58,18.44c.77-1-.58-1.72-.67-2.84a8.37,8.37,0,0,0-6.22-.07,2.5,2.5,0,0,0,.05,2c.37.43,1,.1,1.82.28s1.49.81,2.22.93C179.82,19,181.18,19,181.58,18.44Z" fill="#2ec639" fill-rule="evenodd"/><path d="M133.06,18.78c.29-.09.63-.13.72-.32.26-.39-.13-.75,0-1.1a4.09,4.09,0,0,0-3.22-.45,9.84,9.84,0,0,0-3.55,1.5c-.13.4.19,1.18-.44,1.07a4.59,4.59,0,0,1,.56,1.46,9.55,9.55,0,0,1,1,.12c.13,0,.1-.25.28-.24.39,0,.55.28,1,.27.76,0,1.18-.41,2-.86a3.65,3.65,0,0,0,1.49-1.12C132.89,19,133.08,19,133.06,18.78Z" fill="#2ec639" fill-rule="evenodd"/><path d="M204.51,21.22c1.19.09,2.62-.46,2.67-1.44s-1-1.06-1.46-1.7c-.69.05-1.63-.57-2-.67-2-.47-4.58-.28-4.88,1.73,0,.33.74.56,1,.69a11.15,11.15,0,0,0,2.24.81A14.57,14.57,0,0,0,204.51,21.22Z" fill="#2ec639" fill-rule="evenodd"/><path d="M145.45,18.61a4.92,4.92,0,0,0-2.53-2.11,8.62,8.62,0,0,0-3.86-.7c-.39.72-1,1.07-.94,2.23,1,.46,2,1,3.08,1.52a6.88,6.88,0,0,0,3.67.64A3.39,3.39,0,0,0,145.45,18.61Z" fill="#2ec639" fill-rule="evenodd"/><path d="M194,19.8a6,6,0,0,0-.4-2c-1.2-2.11-7.3-2.18-7.4.18.77.21.93.61,1.29,1.08s.7.41,1.44.61C190.64,20.17,192.72,21.32,194,19.8Z" fill="#2ec639" fill-rule="evenodd"/><path d="M158.21,19.18c-.43-.52-.76-1.24-1.2-1.74-1.69-.6-3.85.77-5.66.81-.3.43-.92.46-1,1.06s.28.57.44,1.18a5.62,5.62,0,0,0,2.74.51c.42,0,.92-.3,1.32-.35C156.16,20.51,157.77,20.29,158.21,19.18Z" fill="#2ec639" fill-rule="evenodd"/><path d="M170,16.46c-.32-.27-.37-.78-.62-1.12a11.42,11.42,0,0,0-7.48.57,1.44,1.44,0,0,0,0,1.6c2.49.34,5,1,7.6.12A4.67,4.67,0,0,1,170,16.46Z" fill="#2ec639" fill-rule="evenodd"/><path d="M144.24,21.89c-.05,0-.32.32-.38,0-.5.72-1.32.85-1.37,2A18.83,18.83,0,0,0,146,26.77a15.28,15.28,0,0,0,3.24.71,3.21,3.21,0,0,0,2.63-.71c-.27-.77-.94-1.18-1-2.08a24.17,24.17,0,0,0-3.23-1.62A14.7,14.7,0,0,0,144.24,21.89Z" fill="#2ec639" fill-rule="evenodd"/><path d="M162.08,20.41c-.84-.26-1.9.55-2.62.76-.22.16-.15.47-.37.63-.88,0-1.55.86-2.16,1.36.25.44,0,.64.21,1.06.67-.08.87.74,1.45.79,1.41-.4,2-1,3.12-1a16,16,0,0,0,1.17-1.53,3.34,3.34,0,0,1,0-1.47C162.52,20.94,162.46,20.52,162.08,20.41Z" fill="#2ec639" fill-rule="evenodd"/><path d="M185.18,22c-1.51-1-2.51.12-4,0-1,.57-2.2.89-2.73,2,.19.13.17.44.29.63.93.12,1.29.2,1.55.75a11.22,11.22,0,0,0,5.05-1c0-.7.29-1,.47-1.4C185.49,22.67,185.43,22.14,185.18,22Z" fill="#2ec639" fill-rule="evenodd"/><path d="M191.59,22.59c-.57.64-1.63,1.32-1.49,2.4.45.58,1.36.41,1.94.29,1.31.65,3.89,2,5.34.84a9.44,9.44,0,0,0-.18-1.82C195.48,23.27,193.85,22.36,191.59,22.59Z" fill="#2ec639" fill-rule="evenodd"/><path d="M134.57,23.34c.1,1-.22,1.21.21,2.32a4.49,4.49,0,0,0,2-.16,4.29,4.29,0,0,0,1.45-1,3.17,3.17,0,0,0,0-2.53,2.17,2.17,0,0,0-2-.08A3.65,3.65,0,0,0,134.57,23.34Z" fill="#2ec639" fill-rule="evenodd"/><path d="M201.83,24.11c-.2.41-.53.71-.57,1.16-.08,1.2,1.2,1.88,2.09,2.47,1.33.89,2.32,1.23,3.54.32C208.08,25,204.53,23.75,201.83,24.11Z" fill="#2ec639" fill-rule="evenodd"/><path d="M171.18,21.6c-.63-.08-1.33-.11-2-.15a4.83,4.83,0,0,0-2.23.29c.14.55-.08.51-.1,1.08.22.47.51.85.73,1.33,1.61.05,3.25,1.51,5.13,1.07a7.63,7.63,0,0,0,1.05-1.47c0-.45-.48-.53-.48-1A3.17,3.17,0,0,1,171.18,21.6Z" fill="#2ec639" fill-rule="evenodd"/><path d="M132.2,26a1.29,1.29,0,0,0-2.41-.36c-.16,1.24,1,1.85,1.81,2.13.56-.54,1.31-.37,1.67-.63.08-.38-.23-.45-.2-.82A1,1,0,0,1,132.2,26Z" fill="#2ec639" fill-rule="evenodd"/><path d="M276.44,12.59c.14.11.51,0,.72.12.58.27,1.12,1,1.5,1a2,2,0,0,0,1.41-.58c.31-.23,1-.74,1.05-1.3a1.62,1.62,0,0,0-.82-1.55A2.72,2.72,0,0,0,279,9.75c-.38,0-1.17.41-1.67.49-.39-.29-.94,0-1.24.56A1.53,1.53,0,0,0,276.44,12.59Z" fill="#2ec639" fill-rule="evenodd"/><path d="M219.32,16.77c.89-.17,3.26-.4,4.2-1,.2-.12.62-.3.64-.32s.06-.4.13-.48.21-.07.31-.23c.73-1.17-.13-1.93-.87-2.56-1.21.45-3.68.57-4.95,1.64.17.95-.21,1.42-.34,2.5A.9.9,0,0,1,219.32,16.77Z" fill="#2ec639" fill-rule="evenodd"/><path d="M255.09,9.14c.27-.07.52-.36.89-.52.89-.38,2-.57,2.3-1,.78-.89-.12-1.82-.73-2.44-2.68-.25-6.37,1.44-5.41,3.88A7.82,7.82,0,0,0,255.09,9.14Z" fill="#2ec639" fill-rule="evenodd"/><path d="M246.79,11.06c-.36-2.82-4.52-3.38-7.37-1.36-.43,1.68.82,2.44,2.43,2.58A8,8,0,0,0,246.79,11.06Z" fill="#2ec639" fill-rule="evenodd"/><path d="M285.45,13.08a4,4,0,0,0,4.24,1.25c.18-.54.7-.83.94-1.32-.21-.38-.16-.41-.41-.87-.64-.45-1.2-1.11-2.07-.74a7.2,7.2,0,0,0-1.75-.24c-.67,0-1.31,0-1.51.41C284.45,12.35,285,12.67,285.45,13.08Z" fill="#2ec639" fill-rule="evenodd"/><path d="M215.86,14.29c.1-.55-.16-.79.1-1.19-.93-.67-3.28-2-4.32-.63C211.78,14.32,214.33,15.22,215.86,14.29Z" fill="#2ec639" fill-rule="evenodd"/><path d="M270.7,10.66c.33.25.54.67.76.79.54.29,1-.15,1.34-.31-.28-.26.1-.79.11-1.18a3.81,3.81,0,0,0-.71-1.34,6.82,6.82,0,0,0-.7-.78A6.2,6.2,0,0,0,271,7.4a7.33,7.33,0,0,0-.64-.45A9.62,9.62,0,0,0,264,5.35c-.09.4-.56.55-.48,1.05.74.37,1.88.9,3,1.6s2.34,1.6,3.36,2.33C270.16,10.49,270.45,10.48,270.7,10.66Z" fill="#2ec639" fill-rule="evenodd"/><path d="M231.91,16.5c1-.15,2.15-.85,3.32-1.08a2,2,0,0,0-1.71-2.6c-.18,0-.36.17-.58.17-.6,0-1.16-.51-1.54-.19-1,.82-2.42.47-2.2,2.15C229.34,16.24,230.89,16.66,231.91,16.5Z" fill="#2ec639" fill-rule="evenodd"/><path d="M266.38,15.07a1.16,1.16,0,0,0,.5-1.29,5.53,5.53,0,0,1-.21-1.63,4.93,4.93,0,0,0-3.61-1.08,6.22,6.22,0,0,0-3.19,1.09,2.55,2.55,0,0,0,.49,2c.45.34,1-.13,1.77-.06s1.33.64,1.9.78C264.86,15.05,265.85,15.41,266.38,15.07Z" fill="#2ec639" fill-rule="evenodd"/><path d="M218.33,21.38c.31,0,.65.11.81-.05.38-.28.12-.75.33-1-1-1.58-4.09-2.12-6.53-1.79-.29.29-.35,1.14-.87.76a4.76,4.76,0,0,1-.14,1.56c.36.13.71.52.87.56s.19-.18.35-.09c.35.19.37.49.75.67a4,4,0,0,0,2.18.07,3.51,3.51,0,0,0,1.89-.43C218.09,21.5,218.28,21.56,218.33,21.38Z" fill="#2ec639" fill-rule="evenodd"/><path d="M289.19,20.89c1.26-.28,2.48-1.36,2.13-2.29S290,18,289.39,17.52a2.36,2.36,0,0,1-1.1.07,7.36,7.36,0,0,0-.91-.16c-1.92,0-4.21.47-4.41,2.47,0,.32.8.51,1.06.6a8.4,8.4,0,0,0,2.44.44A10.45,10.45,0,0,0,289.19,20.89Z" fill="#2ec639" fill-rule="evenodd"/><path d="M231.19,20.33c-1.61-1.15-4.39-1-6.55-.77-.3.73-.94,1.09-.89,2.24a12.27,12.27,0,0,0,3.72,1.07,6,6,0,0,0,3.91-.86A3.24,3.24,0,0,0,231.19,20.33Z" fill="#2ec639" fill-rule="evenodd"/><path d="M278,20.46a6.25,6.25,0,0,0-.18-2c-.48-1.09-2-1.91-3.54-2.33a6.56,6.56,0,0,0-2.17-.26,1.69,1.69,0,0,0-1.45.84,2.31,2.31,0,0,1,.84,1.5c.23.7.57.63,1.26,1.07C274.3,20.26,276.46,21.86,278,20.46Z" fill="#2ec639" fill-rule="evenodd"/><path d="M243.78,18.39c-.41-.53-.72-1.26-1.15-1.77-1.69-.65-3.93.75-5.79,1.17-.24.49-.87.67-.79,1.27s.42.49.7,1a6.89,6.89,0,0,0,2.61.13c.39-.07.82-.35,1.2-.41C241.76,19.64,243.31,19.49,243.78,18.39Z" fill="#2ec639" fill-rule="evenodd"/><path d="M255.52,14.18c-.38-.18-.56-.66-.88-.94a14.65,14.65,0,0,0-7.16,1.86,1.42,1.42,0,0,0,.06,1.59c2.61.18,5.44.25,7.75-1.25A4.15,4.15,0,0,1,255.52,14.18Z" fill="#2ec639" fill-rule="evenodd"/><path d="M231.58,23.8c-.06,0-.16.44-.36.19-.14.87-.94,1.36-.47,2.37,1.46.42,2.91.81,4.37,1.09,1.68-.22,3.42-.11,3.95-1.42-.37-.72-.95-1-1.25-1.86A9.41,9.41,0,0,0,231.58,23.8Z" fill="#2ec639" fill-rule="evenodd"/><path d="M247.85,19.59c-1-.17-2.14.63-2.87.82-.22.15-.17.47-.39.62-.87-.05-1.5.81-2,1.28.24.44,0,.63.24,1.06.58-.06.78.76,1.3.83,1.25-.33,1.89-.92,3.17-1a20.29,20.29,0,0,0,1.54-1.68,3,3,0,0,1-.05-1.47C248.38,20.08,248.3,19.67,247.85,19.59Z" fill="#2ec639" fill-rule="evenodd"/><path d="M268,19.88a3.2,3.2,0,0,0-1.84-1.31c-.58-.15-1.24-.21-1.48-.32a2.56,2.56,0,0,0-1.57,1.85,2.69,2.69,0,0,1-.05.6c.14.07.19.15,0,.64.05,0,.08,0,.2-.05s.57.14,1,.26a16.51,16.51,0,0,0,2.93.63c.23-.68.71-.73,1.07-1.05C268.08,20.64,268.23,20.12,268,19.88Z" fill="#2ec639" fill-rule="evenodd"/><path d="M275,22.82c-.75.53-2.14.85-2.21,1.95.42.75,1.61.8,2.34.82a13.46,13.46,0,0,0,3.24,1.52,4.25,4.25,0,0,0,3.49-.16,9.33,9.33,0,0,0-.33-1.82C279.34,24.12,277.58,23.08,275,22.82Z" fill="#2ec639" fill-rule="evenodd"/><path d="M218.13,26.18c-.3,1-.79,1-.78,2.22a9.43,9.43,0,0,0,6.87-.09,1.84,1.84,0,0,0-.29-2.53A7.15,7.15,0,0,0,218.13,26.18Z" fill="#2ec639" fill-rule="evenodd"/><path d="M287,24.39c-.14.44-.48.81-.43,1.25a1.74,1.74,0,0,0,1.17,1.28,11.25,11.25,0,0,0,2.06.58,6.67,6.67,0,0,0,2.6.11,3.5,3.5,0,0,0,2-1.28c.07-1.67-1.12-2.34-2.57-2.51a9.57,9.57,0,0,0-2.38.05A13.91,13.91,0,0,0,287,24.39Z" fill="#2ec639" fill-rule="evenodd"/><path d="M257.92,18.88c-.62.08-1.32.22-2,.36a6.17,6.17,0,0,0-2.28.82c.28.5,0,.51.12,1.08.35.41.76.71,1.1,1.12,1.8-.36,3.77.63,5.33-.21a9.06,9.06,0,0,0,.62-1.66c-.13-.43-.56-.41-.67-.87A3.15,3.15,0,0,1,257.92,18.88Z" fill="#2ec639" fill-rule="evenodd"/><path d="M214.31,27.65a1.33,1.33,0,0,0-2.07-1.39c-.69,1,.11,2.11.68,2.71.78-.24,1.42.25,2,.17.27-.3,0-.5.19-.82A1,1,0,0,1,214.31,27.65Z" fill="#2ec639" fill-rule="evenodd"/><path d="M156.18,29.83c3.55-2.51,7.43-5.54,7.9-9.86.3-2.71-1.2-5.77-2.8-8a9.09,9.09,0,0,0-3.23-3c-3.19-1.55-7,.05-10.07,1.8A11.37,11.37,0,0,0,144,14a10.14,10.14,0,0,0-1.37,5.29,16.24,16.24,0,0,0,.82,6.61c.8,2.1,3.09,3.32,5.18,4.13a8.83,8.83,0,0,0,7.56-.38" fill="#db2323"/><path d="M163.49,22.82c1-3.21,1-5.62-.87-8.48-1.46-2.23-3.86-4.85-6.61-5.45-5.57-1.23-10.83,3.23-12.28,8.22-1.63,5.59-.86,12.25,5.76,13.68,5,1.09,12.22-3.57,14-8.16.35-.9-1.1-1.29-1.45-.4-1.45,3.72-8,7.92-12.17,7.12-5.71-1.1-6-7.24-4.7-11.84s6.35-8.53,11.31-6.8,6.94,7.18,5.55,11.71c-.28.92,1.16,1.32,1.45.4Z" fill="#9b1313"/><path d="M156.08,29.45c.1.23-.64.5-.3.73a14,14,0,0,1-5.9.78,6.88,6.88,0,0,1-2.35-.65A15,15,0,0,1,145.37,29c-.09-.05-.26,0-.33-.09-.25-.21-.47-.55-.68-.76A6.75,6.75,0,0,1,143,26.48a9.39,9.39,0,0,1-.75-4.67c.06-.78.37-1.63.42-2.59.11-1.87.1-3.67,1-5.28A9.6,9.6,0,0,1,148.33,10c.43-.2.81-.26,1.25-.44s.8-.4,1.19-.53a20.27,20.27,0,0,1,2.84-.68,11.56,11.56,0,0,1,3-.24,6.22,6.22,0,0,1,3,1.06c.63.44,1.12,1.12,1.73,1.55.41,1,1.49,2.19,1.94,3.38.17.41,0,.57.09.78a10.52,10.52,0,0,1,.65,1.36,10.47,10.47,0,0,1,.41,1.48A8.16,8.16,0,0,1,163.31,24a12.43,12.43,0,0,1-1.64,1.84c-.18.16-.41.25-.5.35-.45.46-1.2,1.26-1.67,1.7a11.73,11.73,0,0,1-2.92,2.44c-.78-.16.4-1,1.1-1.69.33-.32.54-.68.88-1a13.72,13.72,0,0,0,2.58-2.49,6.66,6.66,0,0,0,2-2.67,7.46,7.46,0,0,0,.61-1.64,7.7,7.7,0,0,0-.57-4.06,23.48,23.48,0,0,0-1.56-4A19.94,19.94,0,0,0,160,11.32a8.82,8.82,0,0,0-2.22-1.91,6.26,6.26,0,0,0-4-.33,28.17,28.17,0,0,0-3.73,1.17c-.81.55-1.16,1.18-1.94,1.71-.54.37-1.32.62-2,1.11a6.05,6.05,0,0,0-2.38,4,12.26,12.26,0,0,0-.36,2.14A18.33,18.33,0,0,0,144,24a9.85,9.85,0,0,0,.21,1.59,8.6,8.6,0,0,0,2.63,3.2,6.82,6.82,0,0,0,1.1,1,4.89,4.89,0,0,0,1.42.38,10.61,10.61,0,0,0,3.6,0C154,30,155.16,29.51,156.08,29.45Z" fill-rule="evenodd"/><path d="M159.47,20.69c.25-1.73,0-4.23-1.52-5.39a.75.75,0,0,0-.75,0c-.77.38-1.13,2.13-1,2.9a6.81,6.81,0,0,0,.78,1.95c.25.52.47,1.25,1,1.56.9.55,1.73-.51,1.82-1.32a8.59,8.59,0,0,0-1.07-4.24c-.4-.88-1.69-.12-1.29.76a11.13,11.13,0,0,1,.67,1.94,7.07,7.07,0,0,0,.21,1.18l.44.33-.24-.47a10,10,0,0,1-.77-1.66A6.71,6.71,0,0,1,158,16.6h-.75a3.57,3.57,0,0,1,.7,1.6,5.26,5.26,0,0,1,.12,2.09c-.13.95,1.31,1.35,1.45.4Z" fill="#9b1313"/><path d="M154.69,24c-1.16-.32-2.32-.67-3.45-1.09-1-.34-2-.93-2.92-.27s-.82,2-.09,2.87A3.82,3.82,0,0,0,151,27a16.06,16.06,0,0,0,2.92.29c1.1-.1,2.16-.93,1.84-2.15-.61-2.31-3.32-2.88-5.33-3.06s-1.91,2.82,0,3c.54.05,2.3.14,2.45.9l.38-1.45c.44-.16.48-.24.13-.25l-.31-.07c-.41-.07-.81-.13-1.22-.16a2.82,2.82,0,0,1-.92-.08.36.36,0,0,1-.27-.17c-.26-.36-.28-.29-.06.2l-.74,1.3c-.76,0-.85.09-.29.24l.71.27,1.08.38c.84.29,1.69.54,2.55.77a1.5,1.5,0,0,0,.8-2.89Z" fill="#9b1313"/><path d="M151.92,19.32c.78-1.43,4-5.71.86-6.52-1.09-.28-2.21.76-3,1.36a16.25,16.25,0,0,0-2.68,2.56c-.72.88-1.49,1.92-1.08,3.12a2.54,2.54,0,0,0,2.79,1.55c2.66-.26,3.77-3.2,5-5.2a1.5,1.5,0,0,0-2.59-1.51l-1.47,2.47a3.88,3.88,0,0,1-.7,1,.76.76,0,0,1-.55.23c.15.87.33,1.11.55.71a7.21,7.21,0,0,0,.82-1c.29-.32.6-.63.92-.92a7.53,7.53,0,0,1,2-1.53l-1.16-.15.17.1-.68-.9,0-.28-.3.56-.51.92-1,1.86c-.93,1.69,1.66,3.21,2.59,1.51Z" fill="#9b1313"/><path d="M228.11,19.18c2.62,3.47,5.77,7.24,10.11,7.57,2.72.21,5.72-1.39,7.87-3.06A9.07,9.07,0,0,0,249,20.36c1.45-3.25-.28-7-2.13-10a11.28,11.28,0,0,0-3.34-3.87,10.18,10.18,0,0,0-5.33-1.2,16.38,16.38,0,0,0-6.59,1c-2.06.87-3.21,3.2-3.95,5.31a8.84,8.84,0,0,0,.63,7.55" fill="#db2323"/><path d="M235.33,26.24a10.92,10.92,0,0,0,13.27-6.83c2.08-5.38-2.43-11.31-7.45-12.86C235.36,4.76,228.9,5.46,227.07,12c-1.46,5.21,3.76,12.46,8.45,14.26.9.34,1.29-1.11.39-1.45-4.42-1.69-9-9.08-6.87-13.72,1.93-4.2,7-4.35,11-3.31s7.39,4.46,7.47,8.85c.06,3.1-2.11,5.57-4.47,7.2s-4.46,1.75-7.29,1a.75.75,0,0,0-.4,1.44Z" fill="#9b1313"/><path d="M228.48,19.06c-.23.12-.52-.61-.74-.27a13.94,13.94,0,0,1-1-5.87,7.09,7.09,0,0,1,.57-2.37,15.9,15.9,0,0,1,1.28-2.21c0-.08,0-.25.08-.33a9.63,9.63,0,0,1,.74-.7A6.51,6.51,0,0,1,231,5.89,9.48,9.48,0,0,1,235.66,5c.78,0,1.63.32,2.6.34,1.86,0,3.67,0,5.3.77a9.59,9.59,0,0,1,4.11,4.59c.21.42.29.79.48,1.23s.43.79.57,1.18a18.67,18.67,0,0,1,.77,2.81,11.05,11.05,0,0,1,.34,3,6,6,0,0,1-1,3.07c-.42.65-1.08,1.16-1.49,1.78-1,.45-2.13,1.57-3.31,2.06-.41.17-.57,0-.77.11a10.86,10.86,0,0,1-1.34.7,9.3,9.3,0,0,1-1.47.45,8.15,8.15,0,0,1-6.29-1,11.78,11.78,0,0,1-1.89-1.58c-.16-.17-.27-.39-.37-.49-.47-.43-1.29-1.16-1.75-1.61a11.42,11.42,0,0,1-2.53-2.83c.13-.79,1,.36,1.72,1,.33.31.69.52,1,.84A13.27,13.27,0,0,0,233,24a6.58,6.58,0,0,0,2.73,1.89,7,7,0,0,0,1.66.55,7.52,7.52,0,0,0,4-.7,23.1,23.1,0,0,0,4-1.69,17.16,17.16,0,0,0,1.36-1.64,9,9,0,0,0,1.83-2.28,6.22,6.22,0,0,0,.21-4,32.41,32.41,0,0,0-1.3-3.69c-.58-.79-1.22-1.12-1.77-1.87-.4-.53-.67-1.3-1.18-2a6.06,6.06,0,0,0-4.12-2.25A12.38,12.38,0,0,0,238.25,6a18.82,18.82,0,0,0-4.7.74A10.85,10.85,0,0,0,232,7a8.7,8.7,0,0,0-3.11,2.74,6.56,6.56,0,0,0-.94,1.14,4.89,4.89,0,0,0-.32,1.42,10.67,10.67,0,0,0,.11,3.6C227.91,17,228.38,18.15,228.48,19.06Z" fill-rule="evenodd"/><path d="M237.52,22.18c1.65.18,4.11-.22,5.15-1.69a.76.76,0,0,0,0-.76c-.41-.75-2.14-1.07-2.92-1a6.34,6.34,0,0,0-1.92.85c-.52.27-1.24.51-1.55,1-.53.89.51,1.71,1.32,1.79a8.46,8.46,0,0,0,4.24-1.19c.86-.43.1-1.72-.76-1.29a11.32,11.32,0,0,1-2.1.79,6.81,6.81,0,0,0-.92.19c-.28-.09-.4,0-.38.25-.13.3-.05.32.25.06.57-.13,1.08-.65,1.63-.84a1.57,1.57,0,0,1,1.11,0c.09,0,.8.28.7.1v-.76a3.64,3.64,0,0,1-1.72.83,5.67,5.67,0,0,1-2.13.12c-1-.1-1,1.4,0,1.5Z" fill="#9b1313"/><path d="M233.84,17.55c.27-1.18.59-2.34,1-3.49s.92-2.14.09-3.1a1.87,1.87,0,0,0-2.74.1,3.85,3.85,0,0,0-1.37,2.77c-.1,1.43-.77,5.5,2,4.76,2.3-.62,2.81-3.41,2.93-5.4s-2.89-1.92-3,0c0,.51,0,2.35-.78,2.52l1.46.38c.15.45.22.49.2.14l.06-.32c.05-.41.12-.81.13-1.22a4.39,4.39,0,0,1,0-1c.17-.49.71-.36-.08-.34L232.67,13l.1.13L232.34,12a10.59,10.59,0,0,1-.71,2.15c-.26.85-.48,1.71-.69,2.58-.44,1.88,2.45,2.68,2.9.8Z" fill="#9b1313"/><path d="M238.42,14.55c1.53.77,5.44,3.63,6.5.89.43-1.13-.57-2.18-1.23-3a16.23,16.23,0,0,0-2.61-2.63c-.9-.71-1.91-1.49-3.13-1.17a2.41,2.41,0,0,0-1.7,2.49c.05,2.89,3.23,4,5.36,5.16,1.69.93,3.21-1.66,1.51-2.59-.83-.46-1.68-.92-2.51-1.39a9.64,9.64,0,0,1-1.18-.78.6.6,0,0,1-.18-.4c-1,.15-1.15.35-.58.6a6,6,0,0,0,.86.68,12.89,12.89,0,0,1,1.07,1,7.44,7.44,0,0,1,1.5,1.83l.15-1.15-.09.17.89-.69.28.08-.57-.29-.94-.47L239.93,12c-1.72-.87-3.24,1.72-1.51,2.59Z" fill="#9b1313"/><path d="M74.29,62c-7.46-.84-15.07-4.35-18.73-10.9-5.13-9.19-.34-21.71,8.6-27.26s20.59-5.11,30.42-1.37A34.72,34.72,0,0,0,101,24.64c4,.68,8.49.63,12-1.37C126,16,135,20.53,144.54,25.22c10.15,5,15-.44,15.78-1.13,5.16-4.42,12.4-5.86,19.15-5.08s9.1,3.54,15.07,6.79a13.15,13.15,0,0,0,4.23,1.72c2.66.39,5.34-.74,7.6-2.19,23.6-15.11,40.74-5.42,44.94-2.75,6.73,4.29,10,1.86,17.72-.08,6.35-1.6,14-7.61,30.23-2.77,10.47,3.12,22.2,42-36.69,42C262.57,61.68,81.75,62.89,74.29,62Z" fill="#ce9b57"/><path d="M80.74,64.32c-2.78-.25-2.88-.9-5.82-1.23,3.73-.17-.58-.9-.64-1a31.2,31.2,0,0,1,4-.87c1.59-.28,3.41-.51,5.4-.71,5.52,0,10.77.45,16.57.55,12.78.25,26.84-.26,40.36,0,11.94.19,26.07,0,38.93,0,3.9,0,7.66.27,11.54.31,8.26.08,17.58,0,25.95-.14l42.21-.41c1.73,0,3.48,0,5.2-.06s3.47,0,5.2-.18l2.61-.17c.87-.05,1.74-.19,2.62-.28s1.75-.18,2.62-.31l2.62-.44a53.39,53.39,0,0,0,10.41-2.88A32,32,0,0,0,300,50.78a18.12,18.12,0,0,0,1.9-2c.32-.36.57-.78.86-1.15s.57-.72.78-1.09A19.61,19.61,0,0,0,307,38.34a20.76,20.76,0,0,0-1.25-10.15,18.56,18.56,0,0,0-2.56-4.56,9.2,9.2,0,0,0-3.9-3.1A43,43,0,0,0,289,18.7a33.71,33.71,0,0,0-9.91,1c-2,.52-3.74,1.22-5.52,1.52a18.75,18.75,0,0,1-4.7,1.81c-1.79.43-3.72,1-5.63,1.5a16,16,0,0,1-6,.79,13.69,13.69,0,0,1-5.79-2.1,50.2,50.2,0,0,0-9.27-4.46,55.76,55.76,0,0,0-8.52-.93,46,46,0,0,0-10.31.94c-.91.17-1.81.46-2.73.69l-1.38.37-1.36.49-2.76,1-2.7,1.25-1.36.63-1.31.75-2.62,1.51a16.26,16.26,0,0,1-5.76,2.5,8.07,8.07,0,0,1-4.18-.3,27.61,27.61,0,0,1-3.79-1.84c-2.53-1.35-5-3.18-7.94-4.59a24.32,24.32,0,0,0-12.67-1.64,22,22,0,0,0-11.27,4.51c-.32.27-.64.51-.93.8s-.68.6-1,.88a11.51,11.51,0,0,1-2.38,1.36,12.15,12.15,0,0,1-5.16.86c-3.4-.12-6.26-1.49-8.56-2.52-1.71-.81-4.63-2.34-5.38-2A30.82,30.82,0,0,0,131,21a21.08,21.08,0,0,0-7.57-.29,26.34,26.34,0,0,0-7.67,2.45l-1.88,1a15.85,15.85,0,0,1-2.19,1,16.33,16.33,0,0,1-4.86,1,23.78,23.78,0,0,1-3.68,0,23.39,23.39,0,0,1-3.7-.61c-2.48-.66-4.63-1.77-6.81-2.49A38.47,38.47,0,0,0,79.4,20.85a34,34,0,0,0-5.91.68,28.94,28.94,0,0,0-5.65,1.92,21.24,21.24,0,0,0-8.56,7.19,21.84,21.84,0,0,0-3.39,7.61,17.12,17.12,0,0,0-.08,7.36A13.8,13.8,0,0,0,58.29,51a18.87,18.87,0,0,0,3.39,3.41A42.19,42.19,0,0,0,70,59.32c3.07,1.36,4.5,1.79,4.37,2.28s-1.73.84-4.47.92a28.93,28.93,0,0,1-5.67-1.81,21.87,21.87,0,0,1-5.27-3.27,19.52,19.52,0,0,1-4.68-6.12,17.07,17.07,0,0,1-1.08-2.48,16.78,16.78,0,0,1-.77-2.62,17.93,17.93,0,0,1-.32-5.41,24.43,24.43,0,0,1,7-14.78,27.06,27.06,0,0,1,15.06-7.36A40.25,40.25,0,0,1,94.65,21.1c1.66.62,3.2,1.34,4.75,1.83a15.31,15.31,0,0,0,2.36.56c.82.13,1.65.23,2.48.29a18.89,18.89,0,0,0,4.93-.28,12.19,12.19,0,0,0,2.32-.7c.38-.15.72-.33,1.1-.52l1.23-.62a28.23,28.23,0,0,1,10.65-3.07,25.88,25.88,0,0,1,5.63.27,32.8,32.8,0,0,1,5.44,1.45,110.74,110.74,0,0,1,10.15,4.56,17.44,17.44,0,0,0,5.1,1.53,10.9,10.9,0,0,0,5.17-.47,9.87,9.87,0,0,0,3.46-2.1,20.73,20.73,0,0,1,3.72-2.67,24.87,24.87,0,0,1,8.62-2.84,30.51,30.51,0,0,1,9.05.11,20.74,20.74,0,0,1,4.42,1.23,28.92,28.92,0,0,1,4,2.11,81.3,81.3,0,0,0,7.57,4.42,6.92,6.92,0,0,0,3.94.67,11.42,11.42,0,0,0,3.93-1.32c1.22-.67,2.51-1.48,3.79-2.21l1.93-1.13,2-1,2-1c.68-.3,1.39-.54,2.08-.81l2.08-.79c.7-.23,1.42-.42,2.13-.63a41.78,41.78,0,0,1,12.91-1.68A38.12,38.12,0,0,1,246.36,19a36.87,36.87,0,0,1,5.8,3,12.48,12.48,0,0,0,5.53,2,17.43,17.43,0,0,0,5.94-.95l3.07-.87,3.07-.81c1.66-.5,3.31-1.18,5-1.78A45.18,45.18,0,0,1,280,18a33.86,33.86,0,0,1,11-.7l2.8.38,2.81.57,2.82.76a8.18,8.18,0,0,1,2.8,1.55,15.71,15.71,0,0,1,3.88,5,22.15,22.15,0,0,1,2.07,6.29,21.48,21.48,0,0,1,.28,5.32,20.85,20.85,0,0,1-1,5.28,22.15,22.15,0,0,1-5.89,9,32.15,32.15,0,0,1-9.16,5.81,57,57,0,0,1-10.39,3.21A88.38,88.38,0,0,1,267,62.1c-5.06.1-10.05,0-14.84.1-9.57.06-18.23.25-24.29.83a7.81,7.81,0,0,0-3.61-.34c-12.33.44-25.21.16-38.22.32l-30.27.49c-12.54.14-24.42.63-36,.81l-13.7.25c-1.53,0-3.57,0-5.05,0-2.29.07-4.26.34-6.49.35-4.11,0-8.53-.53-12.28-.2C83.64,64.16,82.24,64,80.74,64.32Z" fill-rule="evenodd"/><path d="M117.75,50.67a.7.7,0,0,0,.4-.23,2,2,0,0,0,.37-.64c.06-.12.22-.26.26-.37s0-.22,0-.34.17-.26.2-.37,0-.28,0-.43.09-.33.11-.49-.08-.33.11-.49c-.23-.31-.14-.69-.18-1-.09-.85-.34-1.64-.47-2.43a11.23,11.23,0,0,0-.62-2.38,16.31,16.31,0,0,0-1.64-3A26.24,26.24,0,0,0,114.6,36a3.44,3.44,0,0,0-.38-.46c-.09-.07-.26-.08-.35-.14s-.23-.32-.38-.44a5.47,5.47,0,0,0-1-.63,5.7,5.7,0,0,1-1-.5,7.72,7.72,0,0,0-1.36,0c0-.11-.22,0-.29-.1s0-.18-.1-.25-.26.17-.33.14,0-.19-.17,0-.24.42-.39.61-.23,0-.4.16c.11.11,0,.18-.11.36a3.3,3.3,0,0,0,.08,1.45c0,.07-.3.19-.2.24.11.58.54,1.43.62,2.18a.42.42,0,0,1-.08.37c.21.22.15.58.23.85a7.73,7.73,0,0,0,.69,1.38c.14.23.21.49.36.72a14.51,14.51,0,0,0,1.22,1.64,12.1,12.1,0,0,1,1.09,1.37c.09.12.16.12.25.19s.06.12.1.16c.27.36.39.68.61,1,.11.17.3.32.41.5.24.39.38.83.59,1.24.29.62.76,1.23,1,1.94.12.3.16.56.48.77.06,0,.24-.11.36,0,.11.31-.08.54.35.76.27,0,.25-.11.54-.08C117.31,51.17,117.79,51,117.75,50.67Zm.1-.19c.18,0,0,.07,0,.12C117.71,50.61,117.84,50.5,117.85,50.48Z" fill="#e8c8a3" fill-rule="evenodd"/><path d="M145.32,48.86a.66.66,0,0,0,.4-.21,1.8,1.8,0,0,0,.38-.6c.06-.1.22-.23.27-.34s0-.2,0-.32.18-.24.21-.34a2.64,2.64,0,0,0,0-.4c0-.15.1-.3.12-.45s-.08-.3.12-.46c-.23-.29-.13-.63-.16-1-.08-.78-.3-1.51-.41-2.25a9.93,9.93,0,0,0-.55-2.21,14.26,14.26,0,0,0-1.51-2.82,25.09,25.09,0,0,0-1.58-2.22c-.14-.14-.21-.32-.35-.42s-.26-.07-.34-.13-.22-.3-.35-.41a4.82,4.82,0,0,0-.93-.57,4.75,4.75,0,0,1-.9-.46,10,10,0,0,0-1.33,0c0-.11-.21,0-.27-.09s0-.17-.08-.24-.26.17-.33.15,0-.18-.17,0-.25.41-.41.59-.22,0-.39.16c.1.1,0,.17-.13.35a2.93,2.93,0,0,0,0,1.36c0,.07-.31.19-.21.23a19.81,19.81,0,0,1,.49,2,.46.46,0,0,1-.09.35c.19.2.11.54.18.79a6.18,6.18,0,0,0,.61,1.27c.12.22.18.45.32.66a12.36,12.36,0,0,0,1.14,1.5,12.66,12.66,0,0,1,1,1.24c.07.11.14.11.23.18a1.19,1.19,0,0,1,.09.15,7.23,7.23,0,0,1,.58.94c.11.15.29.29.4.45.23.36.36.76.55,1.13.28.57.74,1.13,1,1.78.12.27.16.51.47.7.06,0,.24-.1.36,0,.1.29-.09.5.34.7.28,0,.25-.1.54-.08C144.88,49.33,145.36,49.19,145.32,48.86Zm.11-.17c.18,0-.06.06,0,.11C145.28,48.81,145.41,48.71,145.43,48.69Z" fill="#e8c8a3" fill-rule="evenodd"/><path d="M172.38,47.7a.78.78,0,0,0,.4-.2,1.59,1.59,0,0,0,.37-.53c.06-.09.22-.21.27-.3s0-.18,0-.27.18-.22.21-.31,0-.22,0-.34.1-.26.12-.39-.08-.26.12-.4c-.23-.23-.13-.54-.16-.81-.07-.67-.3-1.29-.4-1.92a7.58,7.58,0,0,0-.51-1.87A11.16,11.16,0,0,0,171.39,38a18.73,18.73,0,0,0-1.48-1.8c-.12-.11-.19-.26-.32-.33s-.24,0-.32-.08-.2-.24-.33-.33a3.66,3.66,0,0,0-.87-.4,4.39,4.39,0,0,1-.84-.3A7,7,0,0,0,166,35c0-.1-.2,0-.26,0s0-.16-.06-.2-.25.18-.32.17,0-.16-.15,0-.26.39-.41.57-.21.07-.37.2c.09.07,0,.15-.14.32a2.55,2.55,0,0,0-.05,1.21c0,.06-.3.2-.21.23,0,.47.36,1.11.38,1.71a.41.41,0,0,1-.11.31c.18.15.09.45.14.66a4.43,4.43,0,0,0,.53,1,5.29,5.29,0,0,0,.29.52,7.41,7.41,0,0,0,1.05,1.13,8.85,8.85,0,0,1,1,.94c.08.09.14.08.23.13s.06.09.09.11a7.06,7.06,0,0,1,.55.74c.1.12.28.22.38.34a9.32,9.32,0,0,1,.54.9c.28.45.73.89,1,1.41.12.23.16.43.47.56.07,0,.24-.09.36,0,.11.23-.09.42.35.56a2.26,2.26,0,0,1,.53-.09C172,48.12,172.43,48,172.38,47.7Zm.11-.15c.18,0-.06.06,0,.09C172.35,47.66,172.47,47.57,172.49,47.55Z" fill="#e8c8a3" fill-rule="evenodd"/><path d="M202.89,47.32a.91.91,0,0,0,.39-.22,1.78,1.78,0,0,0,.33-.51c.06-.09.21-.22.25-.3s0-.16,0-.25.16-.21.18-.29,0-.19,0-.3.08-.25.11-.36-.09-.22.1-.37c-.23-.18-.14-.46-.17-.7-.08-.59-.3-1.12-.38-1.68a7,7,0,0,0-.43-1.64,10.75,10.75,0,0,0-1.23-2.07c-.46-.56-.79-1.2-1.24-1.64-.11-.1-.15-.24-.27-.32s-.23,0-.3-.08-.16-.22-.27-.31a3.52,3.52,0,0,0-.77-.41,3.78,3.78,0,0,1-.76-.33,10.71,10.71,0,0,0-1.23.08c0-.09-.2,0-.24-.07s0-.14,0-.19-.27.14-.33.13,0-.15-.15,0-.31.34-.49.5-.21,0-.39.15c.08.08-.06.14-.19.29a2.34,2.34,0,0,0-.23,1.15c0,.05-.32.17-.24.2,0,.46.21,1.1.16,1.68a.37.37,0,0,1-.13.3c.15.16,0,.45.07.65a3.9,3.9,0,0,0,.46,1,5,5,0,0,0,.25.52,6.24,6.24,0,0,0,1,1.12,12.05,12.05,0,0,1,1,.9c.07.09.14.07.22.12s.06.08.09.11a6.82,6.82,0,0,1,.55.68c.1.11.29.19.39.31s.36.55.56.82.76.78,1.05,1.24c.13.2.19.38.51.47.07,0,.23-.11.36-.06s-.06.39.38.47a2.35,2.35,0,0,1,.52-.14C202.5,47.75,203,47.56,202.89,47.32Zm.1-.15c.17,0-.05.06,0,.08C202.86,47.29,203,47.19,203,47.17Z" fill="#e8c8a3" fill-rule="evenodd"/><path d="M231.35,46.75a.86.86,0,0,0,.43-.11,1.7,1.7,0,0,0,.46-.42c.08-.08.26-.16.32-.24s0-.17.07-.25.21-.18.26-.25,0-.22.06-.33.14-.23.19-.35,0-.25.18-.36c-.19-.25,0-.53,0-.79,0-.65-.09-1.26-.11-1.88a7,7,0,0,0-.26-1.85,9.18,9.18,0,0,0-1.16-2.35,15.28,15.28,0,0,0-1.31-1.82c-.11-.11-.17-.25-.3-.33s-.23,0-.3-.09-.18-.23-.3-.32a3.55,3.55,0,0,0-.83-.4,4.53,4.53,0,0,1-.81-.29,7.7,7.7,0,0,0-1.22.19c0-.08-.2,0-.25,0s0-.15-.05-.19-.25.18-.32.18,0-.16-.14,0a4.38,4.38,0,0,0-.42.55c-.16.12-.21.08-.37.2.08.07,0,.15-.16.31a2.38,2.38,0,0,0-.14,1.13s-.3.19-.22.21a11,11,0,0,1,.19,1.54.41.41,0,0,1-.14.28c.15.13,0,.4.06.58a2.92,2.92,0,0,0,.38.89c.08.14.11.31.21.46a7.32,7.32,0,0,0,.87,1,6,6,0,0,1,.81.88c.06.08.13.08.21.13s0,.08.07.11a4.62,4.62,0,0,1,.43.69c.07.12.24.22.32.34a7.26,7.26,0,0,1,.38.86,13.7,13.7,0,0,1,.72,1.38.86.86,0,0,0,.37.58c.06,0,.25,0,.36,0,.06.23-.17.36.23.56a3.25,3.25,0,0,1,.54,0C230.85,47.06,231.34,47,231.35,46.75Zm.13-.12c.18,0-.06,0,0,.09C231.32,46.71,231.46,46.64,231.48,46.63Z" fill="#e8c8a3" fill-rule="evenodd"/><path d="M258.33,48.9a.86.86,0,0,0,.4-.21,1.66,1.66,0,0,0,.37-.52c.06-.1.22-.21.26-.31s0-.16,0-.26.17-.21.2-.29,0-.22,0-.33.1-.26.12-.38-.07-.25.13-.38c-.22-.23-.11-.52-.13-.78,0-.64-.23-1.24-.27-1.85a8.15,8.15,0,0,0-.34-1.82,11.69,11.69,0,0,0-1.1-2.36c-.42-.66-.72-1.39-1.14-1.93-.1-.12-.13-.28-.25-.37s-.23-.08-.29-.13-.15-.27-.25-.37a4,4,0,0,0-.76-.55,4,4,0,0,1-.75-.47,9.93,9.93,0,0,0-1.25-.09c0-.1-.2,0-.24-.11s0-.15,0-.22-.28.12-.35.09,0-.15-.14,0-.34.32-.53.47-.22,0-.41.09c.07.1-.07.14-.21.29a2.53,2.53,0,0,0-.32,1.21s-.33.13-.25.18c-.05.49.15,1.23.07,1.85a.43.43,0,0,1-.16.31c.15.2,0,.5,0,.73a4.25,4.25,0,0,0,.41,1.18c.08.2.12.41.22.61a7.88,7.88,0,0,0,1,1.37,12.37,12.37,0,0,1,.91,1.11c.07.1.14.1.22.16s.05.09.08.13a6.21,6.21,0,0,1,.52.82c.1.13.28.25.37.38a10.11,10.11,0,0,1,.52,1c.27.48.72,1,1,1.48.12.23.16.44.48.57.06,0,.24-.1.36,0,.11.23-.08.43.36.56a2.27,2.27,0,0,1,.53-.11C257.91,49.32,258.39,49.16,258.33,48.9Zm.11-.16c.18,0-.05.06,0,.09C258.3,48.85,258.42,48.76,258.44,48.74Z" fill="#e8c8a3" fill-rule="evenodd"/><path d="M283.22,46.86a1,1,0,0,0,.45-.08,1.61,1.61,0,0,0,.48-.41c.09-.08.27-.15.33-.23s0-.17.09-.25.23-.17.27-.25,0-.21.09-.32.15-.24.2-.36,0-.26.2-.36c-.17-.27,0-.54,0-.82.06-.66,0-1.3,0-1.94a7.12,7.12,0,0,0-.21-1.92A9.73,9.73,0,0,0,284,37.46a15.59,15.59,0,0,0-1.33-1.89c-.12-.12-.17-.27-.3-.35s-.24,0-.31-.09-.19-.25-.31-.34a3.64,3.64,0,0,0-.84-.41,5.75,5.75,0,0,1-.83-.3,7.14,7.14,0,0,0-1.23.2c0-.09-.19,0-.24,0s0-.15-.06-.19-.25.18-.31.17,0-.15-.15,0a5,5,0,0,0-.41.57c-.15.11-.2.07-.37.2.09.07,0,.15-.15.31a2.6,2.6,0,0,0-.12,1.13c0,.06-.29.2-.22.22a8.6,8.6,0,0,1,.2,1.53.43.43,0,0,1-.13.28c.14.14,0,.4,0,.58a3.26,3.26,0,0,0,.38.88c.08.15.1.32.19.47a7.92,7.92,0,0,0,.85,1,6,6,0,0,1,.79.91c.06.08.13.08.2.13a.6.6,0,0,1,.06.11,5.27,5.27,0,0,1,.41.72c.07.12.23.23.3.36a5.52,5.52,0,0,1,.34.88,12.57,12.57,0,0,1,.64,1.43c.07.23.06.41.33.61.06,0,.25,0,.36.05,0,.24-.19.35.19.59a2,2,0,0,1,.54.06C282.7,47.13,283.2,47.12,283.22,46.86Zm.15-.12c.17,0-.07,0,0,.09C283.2,46.81,283.35,46.76,283.37,46.74Z" fill="#e8c8a3" fill-rule="evenodd"/><path d="M85.21,50.2a.84.84,0,0,0,.44-.08c.24-.11.31-.26.49-.41s.26-.15.33-.23,0-.17.09-.25.22-.17.27-.25,0-.21.09-.32.16-.23.21-.35,0-.26.21-.35c-.16-.28,0-.55,0-.82.09-.66,0-1.3.06-1.93a7.53,7.53,0,0,0-.08-1.91,10.22,10.22,0,0,0-.9-2.55,18.16,18.16,0,0,0-1.09-2c-.1-.13-.13-.29-.25-.39s-.23-.07-.29-.13-.15-.27-.26-.38a3.92,3.92,0,0,0-.77-.54,4.07,4.07,0,0,1-.77-.44,8.6,8.6,0,0,0-1.25,0c0-.09-.2,0-.24-.09s0-.14,0-.2-.27.13-.34.12,0-.16-.14,0-.32.34-.5.49-.22,0-.4.13c.07.09-.07.14-.2.29a2.52,2.52,0,0,0-.29,1.15s-.32.14-.25.18a13,13,0,0,1,0,1.67.36.36,0,0,1-.16.27c.13.18,0,.44,0,.64a3.69,3.69,0,0,0,.3,1c.07.17.08.36.16.54a8,8,0,0,0,.78,1.24,8.47,8.47,0,0,1,.73,1.07c.06.09.12.1.19.16s0,.09.07.12a7,7,0,0,1,.36.8c.07.14.23.26.29.4a8.31,8.31,0,0,1,.32,1c.15.48.48,1,.61,1.54a.88.88,0,0,0,.32.64c.06,0,.25,0,.36,0,0,.24-.19.37.19.61a2.47,2.47,0,0,1,.54,0C84.69,50.49,85.19,50.47,85.21,50.2Zm.14-.11c.18,0-.07,0,0,.08C85.19,50.15,85.33,50.1,85.35,50.09Z" fill="#e8c8a3" fill-rule="evenodd"/><path d="M14.07,46c.23,0,.59-.37.93-.44.93-.21,2.09,0,2.63-.22A4.69,4.69,0,0,0,19.33,44c.36-.37,1.26-1.2,1.18-1.75-.13-.71-1.21-.94-2.33-.91a8.19,8.19,0,0,0-2.67.51,14.3,14.3,0,0,0-2.15,1.73,1.19,1.19,0,0,0-1.1,1.4C12.46,45.86,13.56,46.1,14.07,46Z" fill="#2ec639" fill-rule="evenodd"/><path d="M215.34,109.94a7,7,0,0,0,1-.19c.93-.07,1.94.06,2.34-.24.91-.66.35-1.8,0-2.54a6.75,6.75,0,0,0-3.76-.4c-1.26.24-2.29.93-2.33,2.23A7.28,7.28,0,0,0,215.34,109.94Z" fill="#2ec639" fill-rule="evenodd"/><path d="M106.56,98.21c.4-1.36-.34-2.61-1.79-3.42a7.27,7.27,0,0,0-2.62-.82,9,9,0,0,0-3.13.18c-1.19,1.49.08,2.52,1.79,3.25A12.1,12.1,0,0,0,106.56,98.21Z" fill="#2ec639" fill-rule="evenodd"/><path d="M29.78,77.92a13.13,13.13,0,0,0,5.82,3,8.54,8.54,0,0,1,2.08-.46c0-.44.09-.43.11-1a3.24,3.24,0,0,0-2.61-2,11.11,11.11,0,0,0-3-1.11c-1.29-.3-2.62-.38-3.1-.05C28.06,77,29.13,77.42,29.78,77.92Z" fill="#2ec639" fill-rule="evenodd"/><path d="M78.8,118.06a23,23,0,0,1,4.48-1.78c.89-1.16,0-2.48-2-2.53a6.68,6.68,0,0,0-.94.3c-.92.18-1.84-.15-2.52.36-.81.71-1.88,1.2-2.6,1.8s-1.11,1.2-.65,1.91a1.88,1.88,0,0,0,1.9.54A10,10,0,0,0,78.8,118.06Z" fill="#2ec639" fill-rule="evenodd"/><path d="M251,112.32c1.19.17,2.74-.13,2.94-1.1s-.91-1.2-1.38-1.91a10,10,0,0,1-2.23-.85,7,7,0,0,0-3.55,0c-1.06.34-1.76,1-1.74,2,.07.3.85.43,1.11.55.58.23,1.46.43,2.34.67S250.37,112.22,251,112.32Z" fill="#2ec639" fill-rule="evenodd"/><path d="M162.2,104.18c-.41-.64-.51-1.23-1.11-1.68-1-.76-3.13-.45-4.78.31s-2.93,1.9-2.54,3a2.37,2.37,0,0,1,1.73.44c.67.33.88.07,1.71-.07C159.09,105.86,161.5,106.05,162.2,104.18Z" fill="#2ec639" fill-rule="evenodd"/><path d="M134.73,112.56c-.21-.63-.26-1.43-.52-2.06-1.52-1.17-4.41-.53-6.57-.18-.35.44-1.06.66-1,1.26s.42.49.67,1a10.3,10.3,0,0,0,2.56.45c.39,0,.88-.15,1.26-.12C132.35,113.06,133.88,113.42,134.73,112.56Z" fill="#2ec639" fill-rule="evenodd"/><path d="M111,86.28c.15.1.55,0,.77.12.62.3,1.19,1,1.55,1a1.67,1.67,0,0,0,1.25-.69,2.19,2.19,0,0,0,.7-1.42,1.85,1.85,0,0,0-.66-1.45,2,2,0,0,0-1-.43,4.07,4.07,0,0,0-.75.24,4,4,0,0,1-.92.28,1,1,0,0,0-1.37.53A1.58,1.58,0,0,0,111,86.28Z" fill="#2ec639" fill-rule="evenodd"/><path d="M65.8,70.66c.91,0,3.35.23,4.39-.22l.71-.23c.08,0,.12-.38.19-.45s.23,0,.36-.18c.9-1.06.11-1.93-.53-2.67-1.28.28-3.59,0-5,.76,0,1-.52,1.34-.88,2.37A.94.94,0,0,1,65.8,70.66Z" fill="#2ec639" fill-rule="evenodd"/><path d="M32.61,65.32c.35,0,.79-.15,1.3-.14a21.89,21.89,0,0,0,3.12.21c1.3-.38.76-1.68.3-2.55a10,10,0,0,0-5.83-.9c-1.93.32-3.22,1.31-2.82,2.57.41.07,1,.26,1.73.4A15.82,15.82,0,0,0,32.61,65.32Z" fill="#2ec639" fill-rule="evenodd"/><path d="M69.57,77.3A2,2,0,0,0,68,76.07a5,5,0,0,0-2.57.3,7.84,7.84,0,0,0-4.15,3.38c.41,1.59,1.69,2,3.27,1.32A17.32,17.32,0,0,0,69.57,77.3Z" fill="#2ec639" fill-rule="evenodd"/><path d="M78.39,83.92a4.94,4.94,0,0,0,2.44.28,8.36,8.36,0,0,0,3.1-1.2c.2-.65,1-1.24,1.59-1.83-.29-.34-.19-.39-.54-.82a4,4,0,0,0-3.7.43,15.3,15.3,0,0,0-2.6.9c-.85.38-1.33.64-1.35,1C77.29,83.53,77.81,83.7,78.39,83.92Z" fill="#2ec639" fill-rule="evenodd"/><path d="M5.89,72.6c.23-.51,0-.8.38-1.13-.79-.88-3.07-2.88-4.57-1.75C1.53,71.57,4.1,73.12,5.89,72.6Z" fill="#2ec639" fill-rule="evenodd"/><path d="M85,72.94c.32.2.58.61.83.71.61.26,1.06-.16,1.47-.32-.38-.3,0-.86-.12-1.27a8,8,0,0,0-2.11-2.52,9.67,9.67,0,0,0-3.9-1.85c-.21.35-.58.37-.73.86a18.11,18.11,0,0,0,3.87,4.15C84.48,72.84,84.75,72.79,85,72.94Z" fill="#2ec639" fill-rule="evenodd"/><path d="M16,90.05a16.47,16.47,0,0,0,3-1,2.41,2.41,0,0,0-1.73-2.54c-.13,0-.23.16-.4.15-.48-.06-.89-.57-1.21-.32-.81.74-2.28.25-2.24,1.94C13.42,89.56,15,90.14,16,90.05Z" fill="#2ec639" fill-rule="evenodd"/><path d="M32.79,28.08c1.16-.59.11-1.83.44-2.9a8.65,8.65,0,0,0-6.47-2.43,2.38,2.38,0,0,0-.47,2c.26.53,1,.4,1.75.84s1.21,1.27,1.88,1.67C30.87,27.81,32.18,28.4,32.79,28.08Z" fill="#2ec639" fill-rule="evenodd"/><path d="M56.06,96c.32.09.67.25.88.14.45-.19.27-.71.54-1-.78-1.75-3.8-3.07-6.47-3.38-.38.22-.63,1-1.1.53a4.09,4.09,0,0,1-.48,1.48c.36.23.64.69.79.77s.25-.13.4,0c.32.27.27.58.63.84a4.62,4.62,0,0,0,2.28.64,3.93,3.93,0,0,0,2.1,0C55.78,96.08,56,96.19,56.06,96Z" fill="#2ec639" fill-rule="evenodd"/><path d="M38.72,92.61c1.07-.7,1.93-1.94,1.46-2.8s-1.49-.29-2.3-.48a7.61,7.61,0,0,1-2.17.77,9.74,9.74,0,0,0-2.62,1.63,2.54,2.54,0,0,0-1,2.37c.13.3,1,.22,1.31.23a7.73,7.73,0,0,0,2.69-.58A13.79,13.79,0,0,0,38.72,92.61Z" fill="#2ec639" fill-rule="evenodd"/><path d="M340.71,41.26a6.45,6.45,0,0,0-.35-2c-.58-1.08-2.24-1.86-3.91-2.34s-3.38-.52-3.85.58c.72.48.74.92,1,1.5s.62.66,1.38,1.09a16.15,16.15,0,0,0,2.86,1.52,4,4,0,0,0,1.53.23A2.32,2.32,0,0,0,340.71,41.26Z" fill="#2ec639" fill-rule="evenodd"/><path d="M59.62,64.88c-.34-.27-.38-.79-.65-1.14a8.58,8.58,0,0,0-4.42,0A8.36,8.36,0,0,0,51,65.88a1.34,1.34,0,0,0,.55,1.51,22.68,22.68,0,0,1,3.76-.66A18.64,18.64,0,0,0,59,66,3.91,3.91,0,0,1,59.62,64.88Z" fill="#2ec639" fill-rule="evenodd"/><path d="M288.89,118.43c-1.26-1.57-2.69-1-4.19-1.8-1.16.11-2.39,0-3.28.85.12.18,0,.46,0,.68.77.44,1.08.65,1.09,1.25.19.09.37.18.57.26l.69.27a13.23,13.23,0,0,0,1.47.44,12.59,12.59,0,0,0,2.94.39c.2-.69.66-.78,1-1.12C289,119.18,289.12,118.66,288.89,118.43Z" fill="#2ec639" fill-rule="evenodd"/><path d="M333.34,52.27c-.79.5-2.31.84-2.33,1.94.49.73,1.79.85,2.65.84a13.81,13.81,0,0,0,4.08,1.41c1.69.24,3.52.07,4.57-.81a7.5,7.5,0,0,0-.86-1.67C338.48,53.51,336.27,52.52,333.34,52.27Z" fill="#2ec639" fill-rule="evenodd"/><path d="M129.21,92c0,.46-.18,1,0,1.35.59,1.06,2.59.59,3.72.47,1.77-.21,2.47-.34,2.58-1.52-.46-1.5-1.18-2.33-2.35-2.3S130.58,90.9,129.21,92Z" fill="#2ec639" fill-rule="evenodd"/><path d="M162.85,76.1c.21.16.78.18,1.12.38.94.51,1.65,1.52,2.17,1.75a4.59,4.59,0,0,0,2.13.25c.5,0,1.67,0,2-.48s-.13-1.45-.9-2.21a8.23,8.23,0,0,0-2.28-1.55,16.92,16.92,0,0,0-3.09-.39,1.48,1.48,0,0,0-2.11.2C161.47,74.83,162.4,75.76,162.85,76.1Z" fill="#2ec639" fill-rule="evenodd"/><path d="M144.11,86.61c1.09-.07,4,.26,5.31.08.28,0,.87-.07.9-.07s.18-.36.28-.41.3,0,.47-.08c1.3-.79.43-1.93-.51-2.85-1.82-.11-5.18-.63-6.92.3.16,1-.36,1.39-.57,2.46A1.21,1.21,0,0,1,144.11,86.61Z" fill="#2ec639" fill-rule="evenodd"/><path d="M125.66,78.31c.28-.17.47-.54.84-.84.86-.72,2.08-1.27,2.4-1.78.78-1.12-.51-1.77-1.41-2.14A9.06,9.06,0,0,0,123,76.1c-1,1.15-1.35,2.4-.48,3.36A10.23,10.23,0,0,0,125.66,78.31Z" fill="#2ec639" fill-rule="evenodd"/><path d="M258.37,70.2A3.15,3.15,0,0,0,255,68.67a5.76,5.76,0,0,0-3.65,1.89c0,1.62,1.17,2.34,2.72,2.15A6.56,6.56,0,0,0,258.37,70.2Z" fill="#2ec639" fill-rule="evenodd"/><path d="M317.84,46.4a9.07,9.07,0,0,0,3,5.2c.63-.06,1.32.39,2,.5.22-.38.29-.33.56-.8-.07-.93.07-1.88-1.18-2.81-.45-1-2.86-3.81-3.93-3.74S317.66,45.67,317.84,46.4Z" fill="#2ec639" fill-rule="evenodd"/><path d="M102.56,77.27c.1-.56-.29-.79,0-1.2a8.45,8.45,0,0,0-1.43-.51c-.29-.09-.6-.16-.92-.23s-.67-.08-1-.1A3.63,3.63,0,0,0,96,76.38c.45.86,1.65,1.23,2.91,1.37A7.28,7.28,0,0,0,102.56,77.27Z" fill="#2ec639" fill-rule="evenodd"/><path d="M169.75,91.49c.48.07,1,.34,1.33.36.83.1,1.19-.43,1.65-.67-.62-.21-.44-.84-.73-1.23a6.79,6.79,0,0,0-1.82-1,9.05,9.05,0,0,0-2.37-.62,11.87,11.87,0,0,0-2.67-.06,12.78,12.78,0,0,0-2.63.63c0,.41-.31.65-.13,1.13.69.19,1.76.52,2.9.75.58.1,1.18.3,1.78.41s1.2.19,1.78.31C169.13,91.58,169.4,91.43,169.75,91.49Z" fill="#2ec639" fill-rule="evenodd"/><path d="M143.53,74.43a5.29,5.29,0,0,0,2.35.24c.45-1-.22-2.37-.52-3,0-.09-.12.06-.18,0s-.13-.86-.28-.69-.81,0-1.5-.2-1.32-.12-1.67.65C141.17,72.58,142.84,74.07,143.53,74.43Z" fill="#2ec639" fill-rule="evenodd"/><path d="M213.87,75.68c.74-1.09-.73-1.64-1-2.74a5.69,5.69,0,0,0-.86-.21,7.31,7.31,0,0,0-.94,0,7,7,0,0,0-2,.29A7.28,7.28,0,0,0,206,74.78a2.38,2.38,0,0,0,.93,1.83c.52.23,1-.33,1.84-.45s1.68.29,2.41.29C212.19,76.34,213.5,76.27,213.87,75.68Z" fill="#2ec639" fill-rule="evenodd"/><path d="M112.08,71.87c.32.06.67.17.86,0,.43-.24.21-.73.47-1a4.55,4.55,0,0,0-3-1.86,8.76,8.76,0,0,0-4.43.14c-.28.35-.16,1.15-.82.95a3.94,3.94,0,0,1,.24,1.54c.4,0,.82.36,1,.36s.16-.2.34-.15c.37.14.43.41.82.56a1.93,1.93,0,0,0,1,.09l1.17-.14a4.07,4.07,0,0,0,1.94-.36C111.82,72,112,72,112.08,71.87Z" fill="#2ec639" fill-rule="evenodd"/><path d="M329.26,70.14c1,.81,2.52,1.28,3.14.52s-.22-1.49-.28-2.32c-.63-.41-1.11-1.52-1.42-1.84a7.55,7.55,0,0,0-2.79-2,2.2,2.2,0,0,0-2.6.52c-.14.29.4.89.55,1.14a15.37,15.37,0,0,0,1.56,2A19.89,19.89,0,0,0,329.26,70.14Z" fill="#2ec639" fill-rule="evenodd"/><path d="M229.85,72.26c-.74-2-3.85-3.42-6.26-3.91-.55.58-1.32.71-1.59,1.85,2,1.6,4.2,3.46,7.05,3.54A3.16,3.16,0,0,0,229.85,72.26Z" fill="#2ec639" fill-rule="evenodd"/><path d="M298.19,79.07a4.94,4.94,0,0,0,.39-2,3.15,3.15,0,0,0-1.24-1.82A7.36,7.36,0,0,0,294.81,74a5.32,5.32,0,0,0-2.58-.19c-.72.16-1.21.51-1.32,1.09.78.37.86.79,1.13,1.32s.61.57,1.29,1,1.52,1.15,2.32,1.58A2.56,2.56,0,0,0,298.19,79.07Z" fill="#2ec639" fill-rule="evenodd"/><path d="M238.39,81.65c-.54-.41-1-1.06-1.55-1.46a5.92,5.92,0,0,0-2.9.69c-.5.22-1,.47-1.5.67a6,6,0,0,1-1.41.39c-.28.47-.94.53-1,1.14s.3.56.47,1.16a5.48,5.48,0,0,0,3.13.16c.45-.11.94-.45,1.36-.58C236.33,83.47,238.09,82.89,238.39,81.65Z" fill="#2ec639" fill-rule="evenodd"/><path d="M202.94,89.57c-.44,0-.77-.42-1.19-.56a17.26,17.26,0,0,0-6.59,4.54,1.37,1.37,0,0,0,.54,1.51c2.75-.8,5.61-2,7.41-4.2A3.92,3.92,0,0,1,202.94,89.57Z" fill="#2ec639" fill-rule="evenodd"/><path d="M216.06,82.21c-.06,0-.37.28-.39,0-.58.66-1.43.68-1.59,1.78.44.54.78,1,1.26,1.61a10.86,10.86,0,0,0,.82.88,5.12,5.12,0,0,0,.61.5c.22.17.46.33.69.5a14.35,14.35,0,0,0,3.92,1.15,4.17,4.17,0,0,0,3.19-.75c-.34-.74-1.16-1.13-1.25-2-.94-.52-2.33-1.09-3.68-1.82l-2-1.08A8.11,8.11,0,0,0,216.06,82.21Z" fill="#2ec639" fill-rule="evenodd"/><path d="M190.75,82.38c-1.1.22-2.18,1.44-3,1.88-.23.23-.11.53-.34.75-1,.24-1.67,1.28-2.28,1.92.32.39.08.65.35,1,.74-.23,1,.56,1.72.46,1.62-.78,2.3-1.65,3.81-2.21a16.6,16.6,0,0,0,1.34-2.31,2.6,2.6,0,0,1-.47-1.41C191.45,82.65,191.25,82.28,190.75,82.38Z" fill="#2ec639" fill-rule="evenodd"/><path d="M280.74,88.58c-1.23-1.11-2.2,0-3.43,0-.39.33-.81.61-1.14.94a2.61,2.61,0,0,0-.66,1.44c.16.09.2.4.31.57.61-.08.88,0,1.08.53A12.1,12.1,0,0,0,280.5,91a2.7,2.7,0,0,1,.61-1.33C280.92,89.22,281,88.72,280.74,88.58Z" fill="#2ec639" fill-rule="evenodd"/><path d="M297.59,96.1c-.74.42-1.86.76-2.09,1.82.16.68.94.73,1.46.84.85,1,2.25,3.19,4,2.85a9,9,0,0,0,.75-1.67C300.77,98.23,299.69,96.7,297.59,96.1Z" fill="#2ec639" fill-rule="evenodd"/><path d="M241.29,73.35c-.37.94-.78,1-.88,2.15a8.47,8.47,0,0,0,5.52.93,2,2,0,0,0,.54-2.49A4.89,4.89,0,0,0,241.29,73.35Z" fill="#2ec639" fill-rule="evenodd"/><path d="M309,55c-.39.23-.84.3-1.11.66-.72.94-.06,2.21.31,3.2.56,1.48,1.14,2.31,2.68,2.34C313.63,59.54,311.45,56.22,309,55Z" fill="#2ec639" fill-rule="evenodd"/><path d="M258.62,85.4a17.56,17.56,0,0,0-1.81,1A6.26,6.26,0,0,0,254.87,88c.45.36.2.47.49,1,.48.25,1,.36,1.47.63,1.63-1,3.67-.63,4.63-1.69a13,13,0,0,0,.06-1.69c-.21-.4-.56-.31-.78-.73A3.19,3.19,0,0,1,258.62,85.4Z" fill="#2ec639" fill-rule="evenodd"/><path d="M184.56,74.7c.12-1.33-1-2-1.55-1.14a3.34,3.34,0,0,0,.76,2.58c.45-.29.84.1,1.18,0,.19-.31,0-.5.13-.83A.87.87,0,0,1,184.56,74.7Z" fill="#2ec639" fill-rule="evenodd"/></svg>