<svg xmlns="http://www.w3.org/2000/svg" viewBox="0 0 152 86"><title>illo-electrical-tape</title><path d="M61.8,35.3c3,.44,4.86,2.22,7,4.17,2.34,2.1,6.43,3,8-.58A3.67,3.67,0,0,0,75.58,34c-1.53-.9-4.08-.48-4.88,1.28l-.2.44,1.28-1.28-.44.25,1.8-.48c.7,0,.86.47.25-.27a11.65,11.65,0,0,0-1.27-1.16,28.23,28.23,0,0,0-2.62-2,14.19,14.19,0,0,0-5.8-2.34,3.69,3.69,0,0,0-4.4,2.49c-.46,1.69.58,4.11,2.5,4.4Z"/><path d="M49.1,40.57c4.76-2,10.21-4.71,15.42-5,5.88-.37,10.76,3,14.56,7.21,3.12,3.44,8-1.58,5-5.05L76.42,28.5l-4.33,5.61a66.17,66.17,0,0,1,8.55,4.57c3.9,2.46,7.49-3.72,3.61-6.17a66.29,66.29,0,0,0-8.56-4.57,3.59,3.59,0,0,0-4.33,5.61l7.72,9.19,5-5.05c-4.35-4.78-9.95-8.5-16.49-9.23-7-.78-14.12,2.56-20.44,5.22-4.18,1.75-2.34,8.67,1.9,6.89Z"/><path d="M39.8,32.5c-12.24.13-28.9-1-33.13,13.86C3.19,58.59,12,69.6,22.22,75c11.83,6.18,26.64,10.64,40.05,9.6,14.14-1.11,26.63-8,38.47-15.35,4.66-2.87,1.62-11.5-3.9-9.26-16.58,6.74-36,14.83-53.78,7.56a61.93,61.93,0,0,1-11.19-6.38c-3.39-2.32-7.64-4.92-9.66-8.64a7.14,7.14,0,0,1-1-2.86l-3.7-.59c-.51.54.11,4.94.17,5.77a16.83,16.83,0,0,0,3.7,9.84c2.87,3.72,8.51.36,8.65-3.58q.36-10.12.05-20.23C30,38.31,27.78,35.51,25,35.78,17.14,36.53,9.25,39,4.43,45.65,0,51.72-.7,59.84,3.63,66.16S16,75.6,23.1,78a67.06,67.06,0,0,0,27.63,3.58c9.41-.85,18.5-3.35,27.68-5.43,3.51-.79,10.48-3.49,14-2,1.65.7,2.66,3,3.86,4.25a15.25,15.25,0,0,0,4.38,3.17c8,3.84,16.17-.77,24.26-1.41,3.92-.3,8.79,1.08,12.42-.6s3.89-5.87,4.62-9.36A5.15,5.15,0,0,0,137,63.77a32.1,32.1,0,0,0-13.34,2.1c-6,2.32-3.79,11.22,2.69,9.78A61.42,61.42,0,0,0,143.49,69l-6.93-6.94-3.78,8c-2.77,5.87,6,11,8.76,5.12l3.77-8c2.09-4.42-2.27-9.59-6.93-6.94a51.93,51.93,0,0,1-14.68,5.62l2.69,9.78A24.69,24.69,0,0,1,137,73.91l-4.89-6.42-.68,3.24,2.36-.61c-.19.32-4.54-.22-5.37-.21a52.57,52.57,0,0,0-10.24,1c-3.17.64-6.31,2-9.56,2.07-3.54.12-4.86-1.42-7-3.94-3.92-4.53-8.48-5.62-14.3-4.83-7.3,1-14.42,2.87-21.58,4.53C50.63,72.24,37,72.67,22.32,67c-4.7-1.82-12.1-4.85-11.52-11,.64-6.8,8.47-9.48,14.18-10l-5.07-5.06q.32,10.11-.05,20.23l8.65-3.58c-1.59-2.06-.72-6-.9-8.45-.16-2.2-.43-4.47-1.83-6.27a8.05,8.05,0,0,0-11.72-.71c-9.34,8.54,3,20.82,9.78,25.77C34.38,75.52,45.78,80.63,59,80.43c14.21-.21,27.52-5.42,40.5-10.69l-3.91-9.27C87.07,65.75,78.29,71,68.43,73.39,57.57,76,46.72,73.6,36.39,70c-7.83-2.75-18.16-6.76-20-15.93C13.55,40.53,31.75,42.72,39.8,42.63c6.52-.06,6.53-10.2,0-10.13Z"/><path d="M150.3,51.42a3.54,3.54,0,0,0-2.57-3.37c-11.86-2.49-20.18,6.15-30,11.09-1.08.55-8.11,3.61-8.35,3.17-.14-.26,2.41-6.56,2.66-7.71,1-4.62,2.23-9.84,1-14.51-1.39-5.24-4.14-10.48-6.63-15.26s-5.12-9.54-8.9-13.29C89.1,3.2,76.87,2.28,65.69,1.81a3.32,3.32,0,0,0-.91.08,3.62,3.62,0,0,0-3.12-1c-11,1.5-23.4,5.78-30.76,14.55a21,21,0,0,0-5,13.13,2.94,2.94,0,0,0-1.09,2.59c.37,5.43,1.33,22.34,1.6,24.36l0,1a3.09,3.09,0,0,0,1,2.42,11.23,11.23,0,0,0,.93,1.58C30.79,63.94,42.66,73.66,53.19,75c7.09.89,30.34-.91,31.38-1.29,4.29-1.57,12-6.54,12.06-6.62,1.69,1.33.71,3,2.46,4.29,2.34,1.76,6,3.91,8.85,4.13,3.11.24,11.74-5.62,15-6,.39,0,5.7-.51,6-.65q8.92-.24,17.82-.88a3.57,3.57,0,0,0,3.5-3.5ZM82,34.62a.63.63,0,0,1-.17.2c-2.27,1.62-4.12,3.78-7,4.38l-.35,0a13.24,13.24,0,0,1-3.23.94c-3.09.44-6.8.89-9.63-.71a.45.45,0,0,1-.21-.26A17.81,17.81,0,0,1,51.31,35.4a.54.54,0,0,1-.48-.53.51.51,0,0,1,.41-.56A26.2,26.2,0,0,1,58.12,30a22.28,22.28,0,0,1,8.27-1.67c3.31-.06,6.53,1,9.63,2.05,2.33.8,4.7,1.61,6.46,3.41A.51.51,0,0,1,82,34.62Z" fill="#56544f"/><path d="M79.38,19.54A1.62,1.62,0,0,0,78,19.19c-3.1-2.49-8.17-2.31-11.86-2.18-7.16.25-17.3,3.91-17.88,12.4a1.25,1.25,0,0,0,.4,1,16.65,16.65,0,0,0-.18,2c0,1.82,2.59,1.93,3,.33a25.43,25.43,0,0,1,28.27-1.2,1.41,1.41,0,0,0,.89.18c.37,1.32,2.64,1.49,2.88,0A13,13,0,0,0,79.38,19.54Z" fill="#afaa98"/><path d="M79.38,19.54A1.62,1.62,0,0,0,78,19.19c-3.1-2.49-8.17-2.31-11.86-2.18a26.82,26.82,0,0,0-5.06.7A17.12,17.12,0,0,1,65.94,20a29.33,29.33,0,0,1,8,9,27.85,27.85,0,0,1,5.81,2.57,1.41,1.41,0,0,0,.89.18c.37,1.32,2.64,1.49,2.88,0A13,13,0,0,0,79.38,19.54Z" fill="#56544f" opacity="0.4"/><path d="M102.6,12.91c1.62,2.83,1.88,4.82,1.67,6.46-1.11-.38-1.56.34-1.93.68-.86-.65-1.46-.41-2.28-1-1-1.1-.73-1.37-1.39-2.21a41.57,41.57,0,0,0-7.47-6A20.12,20.12,0,0,0,89,9.71l-1.16-.49-1.25-.48c-1.66-.61-3.24-1.16-4.7-1.59A75.34,75.34,0,0,0,67.42,4.49,47.82,47.82,0,0,0,61.13,4a49.27,49.27,0,0,0-16,2.74,30.91,30.91,0,0,0-7.69,3.77,30.77,30.77,0,0,0-4.86,4.3c-.67.84-1.43,1.61-2,2.52-.31.45-.65.87-.94,1.33s-.56.95-.85,1.42A10.86,10.86,0,0,0,27.88,22c-.19.65-.4,1.26-.57,1.86A9.16,9.16,0,0,1,26.88,25c-.13.39-.26.79-.35,1.19a18.08,18.08,0,0,0,.09,6.88,23.14,23.14,0,0,0,5.59,11.34C35.31,47.81,39.88,50.24,45,52c.93.23,1.11-.2,2.13.06a45.07,45.07,0,0,0,10.62,2.54,61.35,61.35,0,0,0,11.33.3c.46,0,1.24,0,1.73,0,3-.43,6.88-1,10.87-1.79a44.17,44.17,0,0,0,5.76-1.57,23.42,23.42,0,0,0,4.87-2.36,62.39,62.39,0,0,0,5.08-3.71,35.46,35.46,0,0,0,4.46-3.88,9.64,9.64,0,0,0,1.38-2,12.73,12.73,0,0,0,.9-2.25,18.53,18.53,0,0,0,.73-4.67,20.84,20.84,0,0,0-.43-4.19c-.26-1.39-.56-2.72-.74-4.05a13.69,13.69,0,0,1,.1-3.25c.12-1,.38-1.93.87-2a2.32,2.32,0,0,1,1.24.41c.46.28.92.63,1.21.76.08.05-.08-1,.27.24a12.9,12.9,0,0,1,2.52,5.25,18.78,18.78,0,0,1,.29,6.29,22.9,22.9,0,0,1-.54,4.21,23.66,23.66,0,0,1-1.56,4,15.28,15.28,0,0,1-2.17,3.89,20.33,20.33,0,0,1-4.64,3.75l-4.59,2.95c-1.22.79-2.52,1.64-3.9,2.39a27,27,0,0,1-4.23,1.86,52.7,52.7,0,0,1-9.64,2.11,77.87,77.87,0,0,1-10,.69l-8.13,0c-7.48-1.09-18.76-3.76-25.34-8a23.05,23.05,0,0,1-4.2-3.08,10.2,10.2,0,0,1-1.22-1.54c-.39-.54-.74-1.11-1.12-1.67s-.86-1.38-1.3-2.1-.79-1.5-1.11-2.33a27.55,27.55,0,0,1-1.75-5.54,22.34,22.34,0,0,1-.4-6.64,19.11,19.11,0,0,1,2.32-7.63,31.16,31.16,0,0,1,4.87-6.48,37.1,37.1,0,0,1,14-8.66c3-1.08,5.14-1.21,7.82-2.47a71.89,71.89,0,0,1,8.46-1,73.41,73.41,0,0,1,13.88,1c.37.05.94-.05,1.25,0,1.46.24,3,.72,4.42,1,1.28.28,2.64.36,3.89.71.89.23,1.84.51,2.85.81s2.1.65,3.24,1.09a28.31,28.31,0,0,1,6.41,3.53A41.78,41.78,0,0,1,102.6,12.91Z" fill-rule="evenodd"/><path d="M82,25.91a1.41,1.41,0,0,1,1.54,0,3,3,0,0,1,1.16,1.64,9.24,9.24,0,0,1-.12,4.95,6.28,6.28,0,0,1-.88,2.08A8.19,8.19,0,0,1,82,36.22,37.36,37.36,0,0,1,78.31,39a16.78,16.78,0,0,1-3.4,1.84A30.29,30.29,0,0,1,67.14,42a15.56,15.56,0,0,1-1.81.08c-.48,0-.92-.29-1.46-.34-1-.08-2.13-.06-3.13-.18a25.37,25.37,0,0,1-7.46-2.05,13,13,0,0,1-3.39-2.28,12.18,12.18,0,0,1-2.58-3.62A11.31,11.31,0,0,1,46.19,28a9.08,9.08,0,0,1,.63-2.89,12.12,12.12,0,0,1,1.43-2.52A17.49,17.49,0,0,1,56,16.77a23.83,23.83,0,0,1,9.63-1.62c2,.06,4,.36,5.91.58,1,.12,2.11.1,3.25.28l1.8.27c.3,0,.58.09.9.16a8.36,8.36,0,0,1,1,.27,6.48,6.48,0,0,1,3.39,2.42,12.66,12.66,0,0,1,.74,1.4c.63,1.19,1.43,2.16,1.55,3.27a1.2,1.2,0,0,1-1.51.87,6.38,6.38,0,0,1-2.18-1.32,17.09,17.09,0,0,0-2.29-1.61A7.46,7.46,0,0,0,76,20.9c-1.78-.41-4.18-1.37-6.25-1.72a31.43,31.43,0,0,0-4.88-.42,33.57,33.57,0,0,0-4.69.3,9.55,9.55,0,0,0-1.18.16,20,20,0,0,0-4.57,1.64,14.25,14.25,0,0,0-2.76,2.29,15.46,15.46,0,0,0-1.75,2,5.85,5.85,0,0,0-1,2.26,9.11,9.11,0,0,0,2.44,7.94C53.43,37.56,57,38.49,59.94,39a41.36,41.36,0,0,0,4.9.46c.31,0,.58.26.9.29a10.21,10.21,0,0,0,2-.11c1-.1,2.24-.07,3.61-.13a14.33,14.33,0,0,0,4-.61,10,10,0,0,0,2.4-1.2c.83-.56,1.71-1.29,2.64-2a7.81,7.81,0,0,0,2-2.12,8.44,8.44,0,0,0,.94-2.81,6.1,6.1,0,0,0-.17-3C82.84,26.83,82.34,26.62,82,25.91Z" fill-rule="evenodd"/><path d="M97.17,66.45c.46.54.22,1,.67,1.71-1.52.81-1.52,1.53-2.74,1.36A18.67,18.67,0,0,1,90.16,72c-2.5,1.88-5.68,2.66-8.89,3.37a44.26,44.26,0,0,1-5.49,1.07c-1.21.08-2.4-.07-3.61,0-.69,0-1.29.22-2,.21-1,0-2.09-.39-3.18-.43-2.09-.07-4.27-.08-6.35-.21-1.77-.1-4.07-.18-5.54-.18a21.48,21.48,0,0,1-3-.47,10.24,10.24,0,0,1-3-.67c-.54-.25-.62.07-.94.09a36.25,36.25,0,0,1-10-4.07,32.88,32.88,0,0,1-4-3,28.09,28.09,0,0,0-4.87-5.76c-1-.93-2-1.63-2.95-2.59a5.56,5.56,0,0,1-1.17-1.69,4.76,4.76,0,0,1-.38-1.78c-.66-1.32-.25-2.69-.21-4.44.12-3-.3-6.35.3-8.93-.4-3.72-.36-7.1-1.45-10.52.3-.56.2-1.78.54-2.3.9-.34.81.27,1.42.59.08,1.64.71,2.6.95,4.13a3.71,3.71,0,0,0,.33,2.4c-.23,1.13.21,4.51.27,5.9-.58,1.34-.32,2.55-.41,4.43a50.42,50.42,0,0,0-.11,6.19c0,.55.31,1.06.36,1.56a9,9,0,0,0,.08,1.68,4.42,4.42,0,0,0,1.39,1.83c.52.48,1.23,1,1.86,1.52a18.45,18.45,0,0,1,1.75,1.61c1.4,1.52,2.5,3.29,3.9,4.68a22.31,22.31,0,0,0,4.54,3.73c.52.29,1.37.44,2,.72A18,18,0,0,0,45,71.9c3.58,1,6.56,1.26,10.44,1.94.34,0,.75.08.74-.24a75.46,75.46,0,0,0,11,.72c2.14.05,4.34.34,6.58.2.75,0,1.44-.3,2.21-.4,2.09-.21,5.79-.48,7.09-1.48a14.34,14.34,0,0,0,6.78-3A9.93,9.93,0,0,0,93.57,68C94.85,67.19,96.07,66.42,97.17,66.45Z" fill-rule="evenodd"/><path d="M79.24,32.48c-.46.21-.81,0-1.18-.39A3.29,3.29,0,0,0,77,31.24c-.17,0-.39.1-.52.07-1.2-.31-2.34-.73-3.53-1.08-.43-.12-.93,0-1.39-.13s-.63-.36-1-.39c-.56-.06-1.19.26-1.7.15-.2,0-.35-.25-.53-.29a6.8,6.8,0,0,0-1.75,0c-.1,0-.17-.15-.27-.12s-.16.23-.24.24c-.7,0-1.39-.11-2.07,0-.36.06-.72.19-1.06.26-1.66.33-3.37.93-5.1,1.46a21.57,21.57,0,0,0-3.57,1.4c-.61.32-1.2.72-1.81,1.11-.3.2-.62.41-.92.59s-.45.28-.49.26a1.37,1.37,0,0,0-.68-.26,10.82,10.82,0,0,1-1.15,0c-.31-.22-.15-.93.2-1.29s.7-.58.78-.79c.16-.39.68-.28,1-.45,1.15-.65,1.89-1.9,3.11-2.51a21.79,21.79,0,0,1,2.08-.67c1.37-.51,2.54-1.56,4.08-2a8.84,8.84,0,0,1,1.78-.13c1-.08,1.92-.26,2.88-.29a3.7,3.7,0,0,1,.94,0c.16,0,.27.21.43.24.45.05,1,0,1.42.05a29.75,29.75,0,0,1,5.91.82,6.3,6.3,0,0,1,1.66.77,4.4,4.4,0,0,0,.52.39c.48.18,1.11.1,1.64.3.78.27,1.28.94,2.34.78a4.05,4.05,0,0,0,1.24,1.36c.19.09.83-.22.85.21,0,.07-.2.16-.11.23s.23-.13.33,0a7.57,7.57,0,0,0,1.18,1.11c-.49.63-.11,1.07-.71,1.5a2.1,2.1,0,0,1-2,.34c-.15-.08-.22-.29-.3-.53a1.84,1.84,0,0,0-.41-.67C79.83,33,79.19,33.14,79.24,32.48Z" fill-rule="evenodd"/><path d="M100.08,59.17c.66-.26,1,.33,1.86.17a3.14,3.14,0,0,0,.36,1.18c.13.19.14.08.1,0a3.07,3.07,0,0,1,1.21.53,12.64,12.64,0,0,1,2.46.31l1,.22a7.31,7.31,0,0,0,.92.14,16.21,16.21,0,0,0,3.47.05,44,44,0,0,0,11.78-6.39,83.79,83.79,0,0,1,6.75-5,33.68,33.68,0,0,1,5.1-2.32,17.29,17.29,0,0,1,3-1,19.64,19.64,0,0,1,5.08.06,38.34,38.34,0,0,1,4.89.68l1.21.26a3.42,3.42,0,0,1,1.4.61,2,2,0,0,1,.56.79,2.44,2.44,0,0,1,.14.83c0,.46,0,.82,0,1.23,0,2.71-.28,6.21-.3,8.38,0,1.44-.34,3-.35,4.47,0,.9.07,1.88,0,3.1a1.53,1.53,0,0,1-1.58,1.48,1.21,1.21,0,0,1-.38-.06h0c-.39-.11-.79-.27-1.24-.42-.8-.28-.85,0-1.29.06-5.1-1-10.8,0-15,1-2.39.55-4.85.81-7.14,1.35a13.38,13.38,0,0,0-5.1,1.05,21.34,21.34,0,0,0-2.62,1.31,24,24,0,0,1-2.79,1.35,16,16,0,0,1-6,1.32,9.17,9.17,0,0,1-5.26-1.49,4.86,4.86,0,0,1-1.44-.72,10.87,10.87,0,0,1-1.26-1.07,10.1,10.1,0,0,1-3.2-7.14c-.09-1.26-.08-2.45-.07-3.65a14.09,14.09,0,0,1,1.4-6.56,11,11,0,0,1,2-3.75c.88-1.08,1.83-2,2.63-3.08a13.11,13.11,0,0,0,2.8-7c.56-.66.78-2.39,1.18-3.12.94-.45.77.44,1.3,1-.16,1.3-.25,2.36-.4,3.41a13,13,0,0,1-.88,3.3,20.47,20.47,0,0,0-2,3.53c-.69.69-2,2-3,3.24a9.2,9.2,0,0,0-1.21,1.87,13.46,13.46,0,0,0-.63,1.63c-1.1,1.51-1.09,3.37-1.23,6.14a22.31,22.31,0,0,0,.06,4.4,6.31,6.31,0,0,0,2.11,3.79c.59.55,1.32.83,1.95,1.32a9.74,9.74,0,0,0,2.18,1.45,9.32,9.32,0,0,0,3.82.4,17.13,17.13,0,0,0,6.26-2.07l2.1-1a20.38,20.38,0,0,1,2.39-.93A35.91,35.91,0,0,1,124,68.62c1.53-.26,3.05-.41,4.55-.61s3-.46,4.5-.74c.89-.17,2.1-.65,3.13-.79,1.22-.17,3.08-.16,4.56-.24a27.3,27.3,0,0,1,8.64.68l-.69.48a43.69,43.69,0,0,1,.34-7.77c0-.52.1-1.15-.22-1.11a60.13,60.13,0,0,0,.65-8,2.33,2.33,0,0,0,0-.34.12.12,0,0,0,0,0l.09,0c.05,0,0,0,0,0l0,0,0,0,0,0-.23-.1c-.21-.07-.58-.14-.93-.22l-1.05-.22a32.31,32.31,0,0,0-4.35-.56,17.6,17.6,0,0,0-9.39,1.84,30.15,30.15,0,0,0-2.83,1.88c-2.71,1.75-7.36,4.9-9.06,6.64-1.41.7-3.15,1.72-5,2.65a26.73,26.73,0,0,1-5.78,2.18c-.9-.11-2-.13-3.12-.3-.58-.06-1.16-.21-1.77-.33a14.26,14.26,0,0,0-1.61-.29c-.54-.07-1.07-.1-1.67-.16a4.5,4.5,0,0,1-1-.24,2.2,2.2,0,0,1-1-.75,3.29,3.29,0,0,1-.56-1.67A4.07,4.07,0,0,1,100.08,59.17Z" fill-rule="evenodd"/><path d="M109.1,62.75c-1.46-.93-.27-1.57-.06-2.23.1-.32-.09-.89,0-1.31s.59-.68.33-1.1a26.75,26.75,0,0,0,2.38-7.62,31.72,31.72,0,0,0,.17-7.26c-.08-1.2-.39-2.18-.41-3.38a17.6,17.6,0,0,0-.74-2.92c-.09-.44,0-.91-.08-1.35s-.23-.81-.33-1.23,0-.69-.1-1.06-.41-.81-.52-1.23-.06-.71-.18-1.08-.2-1.25-.38-2a3.33,3.33,0,0,0-1-1.93,9.54,9.54,0,0,0,.73-1.51,3.55,3.55,0,0,1,2,2.38,16.45,16.45,0,0,0,1,2.95c-.24.82.31,1.61.46,2.47.19,1.17.18,2.43,1,3.27-.27.59.2,1,.33,1.55.07.31,0,.64,0,1,.11.61.45,1.2.55,1.82.06.37-.17.82-.1,1.19a14.76,14.76,0,0,1,.45,1.67c0,.59-.15,1.22-.11,1.84,0,.29.24.57.27.86a16.05,16.05,0,0,1-.26,3.38c0,.3,0,.64,0,.94-.1.57-.49,1.06-.62,1.61a22,22,0,0,1-.39,2.39,20.46,20.46,0,0,1-1.15,2.87c-.23.45-.37,1.3-.68,1.61C110.73,60.19,110.45,62,109.1,62.75Z" fill-rule="evenodd"/></svg>