<svg xmlns="http://www.w3.org/2000/svg" viewBox="0 0 60 80"><title>illo-bev-whiskey</title><path d="M13.56,32q-.21,9.61.27,19.24a1.08,1.08,0,0,0,.4.93,2.89,2.89,0,0,0,1,.33,73.22,73.22,0,0,0,32.11-.63,187.27,187.27,0,0,1-.44-20.24c-10.9,0-21.8.42-32.71.38" fill="#e5b570"/><path d="M13.56,21.46c-.71-.14-.74-.54-1.48-.66.94-.19-.16-.53-.18-.59a6.28,6.28,0,0,1,2.42-1.07c1.43,0,2.79.24,4.29.31,3.3.16,6.93-.11,10.43.07,3.08.15,6.73.07,10.06.13,1,0,2,.19,3,.23,2,.09,4.26.07,6.32.05a.46.46,0,0,1,.46.45h0v.41c0,7.61,0,14.07.1,22.15,0,.44.11,1,.11,1.48,0,.79-.15,1.58-.15,2.43,0,3,.33,6.23.43,9.17v0a.43.43,0,0,1-.29.42c-.59.22-1.16.42-1.71.59a3.53,3.53,0,0,1-1.49.29,4,4,0,0,1-1.19.53c-.47.12-1,.22-1.47.36-.95.3-2,.55-3,.81a11.82,11.82,0,0,1-2.69.34c-2.49,1.07-7,.85-11.19.69l-2.1-.1c-.73-.07-1.51-.16-2.39-.28-2.21-.38-4.63-.87-6.62-1.36-.87-.23-1.71-.51-2.51-.79a2.55,2.55,0,0,1-1.19-.8,2.76,2.76,0,0,1-.44-1.2c-.09-.55,0-1.37-.36-1.52a83,83,0,0,0-.21-8.57c-.07-2.39,0-5,0-7.27-.06-2.1-.22-4.37-.32-6.34-.09-1.59-.19-3.17-.29-4.48-.21-2.72-.57-3.9.19-6,.68-1.81,1-1.48,1.9-.16a29.14,29.14,0,0,1,.11,3c0,.59-.15,1.23-.16,1.86,0,.85.12,1.74.14,2.6,0,2.59,0,5.44,0,8.19,0,3.39-.07,6.94-.1,10.62,0,1.84,0,3.71,0,5.6l0,1.42a5.77,5.77,0,0,0,.1,1.31,1,1,0,0,0,.66.74,12,12,0,0,0,1.32.44A51.16,51.16,0,0,0,31.9,59.38,58.38,58.38,0,0,0,44.74,57c.67-.2,1.34-.4,2-.62l2-.73-.29.47c-.09-2.29-.19-4.69-.23-7.52-.06-3.56-.12-7.27-.19-11-.11-5,.27-10.83-.35-14,.1-.27.33-.18.24-.93s-.06-1.5-.06-2.26l.57.58c-2.49,0-5-.09-7.62-.06l-7.82.17c-3.24,0-6.31.29-9.32.38-1.34,0-2.36.06-3.54.12-.39,0-.92,0-1.3,0-.59,0-1.1.21-1.68.21a15.38,15.38,0,0,0-3.16-.09C14.31,21.34,14,21.27,13.56,21.46Z" fill-rule="evenodd"/><path d="M45.35,53.83c0-.09-.19-.11-.31-.13a6,6,0,0,0-1,0c-.18,0-.37,0-.54,0s-.35.07-.52.08-.38,0-.54,0-.44.09-.66.11l-.73.08a2,2,0,0,1-.72.09,10.75,10.75,0,0,1-1.6.41,30.42,30.42,0,0,1-3.55.69c-1.09.13-2.52.23-3.55.28a36.34,36.34,0,0,1-5-.08c-1.55-.13-3.13-.36-4.44-.49-.31,0-.62-.1-.89-.12s-.32,0-.48,0c-.31,0-.59-.1-.87-.13-.55-.06-1.11-.1-1.65-.14s-1-.07-1.5-.17c-.42.07-1,0-1.36.09-.19-.08-.26,0-.43-.07s-.2-.12-.39-.18-.09.11-.19.1-.25-.14-.24,0,.22.29.28.42-.21,0-.25.1c.26.08.19.12.31.26a10.14,10.14,0,0,0,2,1c.09,0-.07.14.1.17,1,.37,2.67.8,3.91,1.16a1.8,1.8,0,0,1,.5.2c.57.08,1.07.27,1.6.38,1,.2,1.89.31,2.89.44.5.06,1,.14,1.55.19a22.12,22.12,0,0,0,3.91-.05c1.09-.11,2.18-.29,3.14-.46.27,0,.3-.09.48-.13l.34-.07c.77-.18,1.38-.29,2.1-.49.35-.09.68-.24,1-.34.78-.24,1.57-.5,2.29-.74,1.11-.36,2.25-.77,3.47-1.1a6.67,6.67,0,0,0,1.37-.45c.06,0-.14-.08,0-.16a3.82,3.82,0,0,0,1.29-.37c0-.11-.14-.08-.08-.22C46.11,53.9,45.91,53.71,45.35,53.83Zm-.29,0c0-.09.1,0,.19,0S45.09,53.83,45.06,53.83Z" fill-rule="evenodd"/><path d="M14.81,48.85s.06-.13.07-.21,0-.45,0-.71,0-.27,0-.4,0-.22,0-.38,0-.31,0-.39,0-.32,0-.5v-.53a3.12,3.12,0,0,1,0-.53c-.06-.41,0-.81-.06-1.21,0-1-.08-1.91-.08-2.83s0-2,0-2.81c0-1.06,0-2.79,0-4s0-2.34,0-3.4c0-.23,0-.47,0-.68l0-.36v-.68c0-.42,0-.85-.07-1.26s-.05-.73-.06-1.16-.12-.71-.21-1,0-.18,0-.32,0-.18,0-.32-.06,0-.07-.12,0-.21,0-.18-.1.23-.16.31,0-.14-.08-.16c0,.21,0,.17-.08.28A15.52,15.52,0,0,0,13.68,27c0,.07-.07,0-.06.1-.07.82-.16,2-.25,3a1.89,1.89,0,0,1-.06.39c0,.42-.07.82-.09,1.21,0,.73,0,1.43-.06,2.19,0,.39,0,.76,0,1.15,0,1,0,1.9.09,2.81s.1,1.62.15,2.31a2.6,2.6,0,0,0,0,.36l0,.25c0,.62.07,1,.11,1.59,0,.24.06.55.09.79.06.61.11,1.19.17,1.79.09.89.24,1.8.37,2.75a6.61,6.61,0,0,0,.2,1.07s0-.1.09,0a4.63,4.63,0,0,0,.17,1c.06,0,0-.1.12,0A3.23,3.23,0,0,0,14.81,48.85Zm0-.21s0,.08,0,.14S14.81,48.66,14.82,48.64Z" fill-rule="evenodd"/><path d="M46.07,49.07s.09-.12.13-.21.12-.48.19-.76.09-.28.12-.42,0-.29.05-.43.07-.32.09-.42,0-.35.06-.55,0-.4.07-.58a2.65,2.65,0,0,1,.07-.59,11.75,11.75,0,0,1,0-1.33c0-1.07,0-2.12,0-3.12s-.06-2.18-.1-3.07c-.08-1.15-.2-3-.28-4.29s-.12-2.56-.15-3.64c0-.25,0-.51,0-.74l0-.39c0-.3,0-.5,0-.76a9.63,9.63,0,0,0-.2-1.4,9,9,0,0,0-.36-1.27,4.62,4.62,0,0,0-.64-.93c-.07-.16-.13-.17-.21-.3a1.17,1.17,0,0,0-.23-.29c-.07,0-.07,0-.15,0s-.2-.14-.18-.08.17.2.18.29-.13-.05-.16,0c.13.1.09.11.12.21A7,7,0,0,1,45,25.49c0,.07-.09,0,0,.12a12.16,12.16,0,0,1,.1,3.08,1.61,1.61,0,0,1-.06.41c0,.46-.05.89-.06,1.33,0,.8,0,1.56,0,2.39,0,.41,0,.82,0,1.24.06,1,.16,2,.26,3s.17,1.73.24,2.47c0,.21,0,.24.06.39a2.28,2.28,0,0,0,0,.27c0,.61.08,1.11.11,1.69,0,.28.06.57.07.85,0,.64,0,1.29,0,1.93,0,1,0,1.94,0,3a8.32,8.32,0,0,0-.06,1.17c0,.05.07-.09.07.05A5.4,5.4,0,0,0,45.65,50c.06,0,.07-.09.12,0A3.82,3.82,0,0,0,46.07,49.07Zm.07-.23s0,.08,0,.16S46.13,48.87,46.14,48.84Z" fill-rule="evenodd"/><path d="M35.09,52.18a.12.12,0,0,0-.11,0c-.09,0-.18,0-.29,0l-.17,0c-.05,0-.09,0-.15,0h-.15l-.2,0h-.2c-.07,0-.15,0-.21,0a1.93,1.93,0,0,1-.47.05c-.39,0-.76,0-1.14,0l-1.14-.11L29.22,52l-1.45-.14-.29,0-.16,0-.29,0a5.07,5.07,0,0,0-.55,0c-.18,0-.33,0-.51,0a2.57,2.57,0,0,0-.45.2c-.06,0-.08,0-.14,0s-.07,0-.14,0,0,.07,0,.08-.09,0-.08,0,.09.11.12.16-.06,0-.07.09.07,0,.12.07a3,3,0,0,0,.66.24s0,.08,0,.07c.3.09.84.19,1.23.32a.44.44,0,0,1,.15.08,3.65,3.65,0,0,1,.5.13,8.83,8.83,0,0,0,.92.15,4.44,4.44,0,0,0,.49.07,10.2,10.2,0,0,0,1.23,0l1,0a.65.65,0,0,0,.16,0h.11l.7-.06c.11,0,.23-.06.35-.07s.53-.08.78-.14a6,6,0,0,0,1.17-.41,1,1,0,0,0,.41-.24s-.06,0,0-.08.27-.09.36-.23-.06,0-.06-.1S35.25,52.11,35.09,52.18Zm-.08,0s0,0,.05,0S35,52.19,35,52.19Z" fill-rule="evenodd"/></svg>