<svg xmlns="http://www.w3.org/2000/svg" viewBox="0 0 155 135"><title>illo-eggs</title><path d="M41.22,98a50.68,50.68,0,0,0-27.76,2c-6.65,2.52-15.32,8.5-11,16.75,3.82,7.39,14.9,7.61,22.05,7.91A91.45,91.45,0,0,0,40.15,124c2.69-.35,5.36-.82,8-1.37a47.05,47.05,0,0,1,5.11-1c1.12-.12,4.41.45,3.43-.42l-1.19-2.87c0,3.28-1.29,5.33,1.31,8.34,2.93,3.4,8.32,3.91,12.43,4.66,10,1.82,20.51,2.51,30.15-1.19,4.1-1.57,7.1-4.15,10.7-6.46,2.27-1.47,2.68.06,4.89.9a13.61,13.61,0,0,0,6.27.63c9.65-.92,18.6-5.55,25.84-11.83,3.15-2.75-.22-7.78-4-6.78-6,1.6-12,3.26-18.08,4.82-4.45,1.15-10.53,2.92-14.49-.36l-1.79,6.78a9.19,9.19,0,0,1,8.23.58l1-7.41c-3,.55-4.74-1.65-7.54-1.81a8.12,8.12,0,0,0-5.18,1.88c-4.2,3-7.63,5.46-12.85,6.51a60.83,60.83,0,0,1-14.64.71c-4.75-.2-13.06.38-14-5.78l-2.83,5c3.73-.67,7.61,2.26,10.91,3.62A17.79,17.79,0,0,0,82,122.43c2.93-.45,4-4.93,1.79-6.78a48.93,48.93,0,0,0-14.19-8.75c-5.43-2-10.33.2-15.74,1.31a104.7,104.7,0,0,1-20.58,2.13c-3.16,0-6.32-.09-9.47-.34-2.68-.22-7.35-.09-9-2.7l-2.43,6a89.36,89.36,0,0,1,27.12-.48v-8.11l-10.79,0c-5.22,0-5.23,8.14,0,8.12l10.79-.06c5.38,0,5-7.46,0-8.11a95.79,95.79,0,0,0-29.27.77c-2.56.45-3.73,3.9-2.43,6,2.59,4.07,6.54,5.55,11.15,6.2a103.44,103.44,0,0,0,21,.61,117,117,0,0,0,19.8-3c3.83-.93,6.07-1.36,9.72.47A44.61,44.61,0,0,1,78,121.39l1.79-6.78c-3.73.57-7.65-2.41-10.94-3.75a17.26,17.26,0,0,0-10.07-1.21c-2.33.42-3.14,3-2.83,5,2,13.27,21,12.34,30.88,11.72,6.06-.37,12.15-1.53,17.49-4.56,1.85-1,4.77-4.08,6.33-4.07,1.22,0,2.75,1.13,4.08,1.35a14.81,14.81,0,0,0,5.39-.28c3.49-.65,3.87-5.8,1-7.42a17.14,17.14,0,0,0-14.48-1.4c-2.61.91-4.32,4.69-1.79,6.78,5,4.1,10.61,4.69,16.82,3.68,8-1.3,15.85-4,23.65-6l-3.95-6.78c-5.18,4.5-14.35,10.33-21.63,9.57-3.21-.34-4.9-3.6-8.39-3.34-3.25.24-5.22,2.7-7.58,4.61-6.21,5-14.37,6.5-22.17,6.22a75,75,0,0,1-12-1.55c-1-.19-6-.63-6.48-1.66-.17-.38.62-2.53.56-3.16-.65-6.38-9.51-5.16-13.87-4.36-8.49,1.58-16.62,3-25.31,2.64-3.84-.16-8.6-.15-12.21-1.7-4.64-2-1.29-5,2-6.48a41.47,41.47,0,0,1,24.81-2.54c5.1,1,7.28-6.83,2.15-7.82Z"/><path d="M150.43,50.25a54.9,54.9,0,0,0-4.83-14.7c-1.76-3.45-3.29-6.88-6-9.62a17.78,17.78,0,0,0-11.49-4.72c-6.6,0-11.81,5.73-14.78,11.63a45.64,45.64,0,0,0-3,33.14l18.93,5.52L149,65.72A25.05,25.05,0,0,0,150.43,50.25Z" fill="#fff"/><path d="M107,65.11c-.45,9,6,17.43,10.92,25a27.65,27.65,0,0,0-9.9,18.46c17.82,7,26.3,5.82,42.26.49.59-6.42-3-12.58-7.63-17.06a2.63,2.63,0,0,1-1-1.59,2.68,2.68,0,0,1,1.16-1.91c6.42-5.94,12.81-19.53,9.27-23.58l-14.56,2.75A64,64,0,0,1,126.6,69c-6.69.09-13.21-1.93-19.59-3.92" fill="#ce9b57"/><path d="M105.31,70.73c-.27-2.87.52-4.73,1.38-5.64.43.91,1,.64,1.34.64.18.82.6.94.88,1.66.19,1.15,0,1.22.1,2.09a63.82,63.82,0,0,0,3.27,8c1.38,2.79,3,5.55,4.37,7.79l2.56,4h0a1.53,1.53,0,0,1-.32,2A26.73,26.73,0,0,0,113.71,97a22.73,22.73,0,0,0-2.63,4.58,25.59,25.59,0,0,0-1.91,7.08l-.72-1.18,3,1.19,3.25,1.18a44.69,44.69,0,0,0,7.22,2,40.79,40.79,0,0,0,11.37.27c1.32-.12,2.53-.49,3.67-.66.69-.13,1.48-.14,2.22-.26a61.09,61.09,0,0,0,6.06-1.58c1.34-.39,2.73-.84,4.75-1.51l-.69.86a16.6,16.6,0,0,0-1.66-8.47A24.71,24.71,0,0,0,145,96.13c-.53-.7-1.08-1.39-1.69-2.06-.3-.33-.6-.67-.93-1s-.64-.62-1-1.1a5.24,5.24,0,0,1-.81-1.08,2.08,2.08,0,0,1,0-1.76,7.17,7.17,0,0,1,1.83-2,22,22,0,0,0,1.58-1.61,29.2,29.2,0,0,0,2.89-3.9,34.69,34.69,0,0,0,3.93-8.74,12.07,12.07,0,0,0,.41-1.37,16.22,16.22,0,0,0,.26-3,3.84,3.84,0,0,0-.68-2.46l1.69.58c-4.19.88-8.9,1.76-12.81,2.52a86.08,86.08,0,0,1-11.22,1.68,47.14,47.14,0,0,1-10.14-.63c-2.68-.4-5.85-.87-8.28-2.18-1.84-1-3.28-3-2.73-3.5.33-.29,1.59-.22,2-.33.07,0-.51-.48.27,0a72.68,72.68,0,0,1,8.7,2.24c.35.09,1.76.32,3.13.56,1.06.19,2,.48,3.11.58a30.07,30.07,0,0,0,3.16,0,69.69,69.69,0,0,0,9.17-.6c2.4-.35,5.07-.9,7.49-1.35L152,64.18h0a.66.66,0,0,1,.64.23,4.83,4.83,0,0,1,1,2.3,9.16,9.16,0,0,1,.08,2.39,19.87,19.87,0,0,1-1,4.58A64.6,64.6,0,0,1,150,80.15,40.77,40.77,0,0,1,142.9,89a2.49,2.49,0,0,0-.74,1,1.05,1.05,0,0,0,.27,1c.25.33.64.67,1,1s.69.71,1,1.07a31.41,31.41,0,0,1,3.28,4.32,20.92,20.92,0,0,1,2.06,3.91,17,17,0,0,1,.71,3.3,16.62,16.62,0,0,1,.15,4.37h0a.35.35,0,0,1-.24.29l-4.63,1.48c-.75.24-1.55.48-2.45.74s-1.86.52-2.95.78a46.07,46.07,0,0,1-13.49,1.43,46.66,46.66,0,0,1-6.93-.92,68.92,68.92,0,0,1-6.82-1.87c-2.1-.68-3.52-1.43-5.33-1.85a.53.53,0,0,1-.4-.52v-.14q0-.63-.06-1.32a34.35,34.35,0,0,1,1.91-7.08,29,29,0,0,1,6.85-9.91c.24-.22.5-.64.71-.83s.2-.17.3-.27l-.26,1.72c-.62-.93-1.21-2-1.85-2.86s-1.41-1.73-2-2.65a79.77,79.77,0,0,1-5.64-9.71A44,44,0,0,1,105.31,70.73Z" fill-rule="evenodd"/><path d="M116.68,105.47a.56.56,0,0,0,.36-.27c.18-.26.26-.55.44-.86.09-.15.25-.29.33-.43s.09-.32.18-.46.26-.28.34-.41.16-.38.28-.56.28-.36.42-.55.21-.46.45-.53a3.67,3.67,0,0,1,.87-1.3A22.4,22.4,0,0,1,123,97.22c1-.84,2.25-2,3.18-2.93a27.85,27.85,0,0,0,2.16-2.44l.29-.37a5.73,5.73,0,0,0,.49-.75,3.79,3.79,0,0,0,.46-1.51,3.73,3.73,0,0,0-.2-1.58,4.5,4.5,0,0,0-1-1.59,7.51,7.51,0,0,0-.66-.6,31.8,31.8,0,0,1-3.38-3.4c-.22-.25-.4-.54-.62-.75s-.31-.2-.43-.32-.38-.55-.58-.79c-.39-.47-.83-.93-1.24-1.38a11.16,11.16,0,0,1-1.09-1.34c-.48-.27-.89-.76-1.38-1-.07-.23-.23-.22-.31-.41a1.92,1.92,0,0,0-.11-.48c-.07-.1-.25,0-.32-.07s-.05-.33-.18-.23-.21.46-.35.64c-.15,0-.23-.15-.39-.11.13.29,0,.27-.08.5a8.12,8.12,0,0,0,.43,2.67c0,.11-.28.08-.16.25a34.81,34.81,0,0,0,2,4.55,1.5,1.5,0,0,1,.19.65c.44.56.68,1.19,1.06,1.75a19.45,19.45,0,0,0,2.4,2.77c.42.41,1.08,1.09,1,.93a1.72,1.72,0,0,1-.2-.49,2.17,2.17,0,0,1,.08-1.2c.15-.35.26-.42.22-.35l-.26.37c-.36.53-.74,1.07-1.13,1.6-.69.93-1.42,1.89-2.14,2.75a2.72,2.72,0,0,0-.31.49l-.26.3c-.55.73-1.06,1.26-1.58,2-.25.35-.43.75-.68,1.12A22.56,22.56,0,0,0,116.33,99a14.45,14.45,0,0,0-1.22,4.42,3.6,3.6,0,0,0,.1,1.78c0,.07.2-.14.28.07,0,.62-.08,1.07.31,1.54.22-.06.19-.18.43-.11C116.33,106.24,116.7,106.05,116.68,105.47Zm.12-.28c.14,0-.06.1,0,.19C116.67,105.37,116.78,105.21,116.8,105.19Z" fill="#a07035" fill-rule="evenodd"/><path d="M111.05,62.74a5.54,5.54,0,0,1-.53,3.17c-.42-.4-.75-.16-1-.08-.25-.46-.57-.46-.83-.9-.27-.72-.08-.79-.19-1.34-1.21-3-1.3-7.62-1.12-10.74a50.11,50.11,0,0,1,.76-7.61c.19-.88.5-2,.82-3.19a43.84,43.84,0,0,1,3-8c.69-1.4,1.43-2.64,2.18-3.91a24,24,0,0,1,4.23-5.48,15.9,15.9,0,0,1,1.72-1.54,10.84,10.84,0,0,1,1.22-.65A15.18,15.18,0,0,1,124.82,21a12.53,12.53,0,0,1,3.37-.47,15.43,15.43,0,0,1,3.64.48A18.37,18.37,0,0,1,139,24.56c.41.29.58.14,1,.52a31.84,31.84,0,0,1,3.43,4.65c1.05,1.73,2,3.53,2.88,5.06.11.2.25.58.39.8a28.74,28.74,0,0,1,2.47,5.22,54.56,54.56,0,0,1,1.79,6c.26,1.09.5,2.18.71,3.25s.36,2.19.46,3.26a36.17,36.17,0,0,1,0,5.87,11,11,0,0,1-1.16,5c-.68,1.1-2.13,1.72-2.42,1.33-.18-.23-.09-.93-.16-1.19,0,0-.32.24,0-.16.27-1.51.77-3,1.16-4.85.05-.21.11-1,.19-1.81.06-.61.21-1.2.22-1.82s-.1-1.28-.13-1.84a41.79,41.79,0,0,0-.42-5.29,39.07,39.07,0,0,0-1-4.24,47.8,47.8,0,0,0-3.44-9,33.41,33.41,0,0,0-1.92-3.46,21.62,21.62,0,0,0-3.44-5.38A14.73,14.73,0,0,0,134.41,23a21.67,21.67,0,0,0-2.34-.73,18.72,18.72,0,0,0-1.79-.55,10.87,10.87,0,0,0-5.12.19,12.88,12.88,0,0,0-2.92,1.22,19,19,0,0,0-5.65,5.14,32.79,32.79,0,0,0-3.93,6.91c-.29.72-.58,1.29-.81,1.87a6.66,6.66,0,0,0-.42,1.87c-.24.67-.43,1.33-.6,2s-.3,1.3-.44,1.94a49.69,49.69,0,0,0-1,6.58c0,.18.08.44.07.59,0,.7-.15,1.46-.13,2.16s.11,1.26.15,1.88a32.69,32.69,0,0,0,.69,6.12A21.55,21.55,0,0,0,111.05,62.74Z" fill-rule="evenodd"/><path d="M74.81,50.25A54.9,54.9,0,0,0,70,35.55c-1.76-3.45-3.29-6.88-6-9.62a17.78,17.78,0,0,0-11.49-4.72c-6.6,0-11.8,5.73-14.78,11.63a45.64,45.64,0,0,0-3,33.14L53.63,71.5l19.78-5.78A25.12,25.12,0,0,0,74.81,50.25Z" fill="#fff"/><path d="M31.39,65.11c-.45,9,6,17.43,10.92,25a27.65,27.65,0,0,0-9.9,18.46c17.82,7,26.3,5.82,42.26.49.59-6.42-3-12.58-7.63-17.06a2.68,2.68,0,0,1-1-1.59c0-.77.6-1.39,1.16-1.91C73.61,82.51,80,68.92,76.47,64.87L61.9,67.62A63.88,63.88,0,0,1,51,69c-6.69.09-13.2-1.93-19.59-3.92" fill="#ce9b57"/><path d="M29.69,70.73c-.27-2.87.52-4.73,1.38-5.64.43.91,1,.64,1.34.64.19.82.6.94.88,1.66.19,1.15,0,1.22.1,2.09a65.38,65.38,0,0,0,3.27,8C38,80.23,39.62,83,41,85.23l2.56,4h0a1.53,1.53,0,0,1-.32,2A26.4,26.4,0,0,0,38.1,97a22.72,22.72,0,0,0-2.64,4.58,25.59,25.59,0,0,0-1.91,7.08l-.72-1.18,3,1.19,3.25,1.18a44.69,44.69,0,0,0,7.22,2,40.86,40.86,0,0,0,11.38.27c1.32-.12,2.52-.49,3.66-.66.69-.13,1.49-.14,2.22-.26a61.09,61.09,0,0,0,6.06-1.58c1.34-.39,2.73-.84,4.75-1.51l-.68.86A16.72,16.72,0,0,0,72,100.44a24.11,24.11,0,0,0-2.62-4.31c-.53-.7-1.08-1.39-1.69-2.06-.3-.33-.6-.67-.92-1s-.65-.62-1-1.1a4.83,4.83,0,0,1-.8-1.08,2,2,0,0,1,0-1.76,7,7,0,0,1,1.82-2,18.56,18.56,0,0,0,1.58-1.61,29.2,29.2,0,0,0,2.89-3.9,35.1,35.1,0,0,0,3.94-8.74c.1-.37.34-1,.4-1.37a17.1,17.1,0,0,0,.27-3,3.9,3.9,0,0,0-.69-2.46l1.69.58c-4.19.88-8.9,1.76-12.81,2.52a86.08,86.08,0,0,1-11.22,1.68,47,47,0,0,1-10.13-.63c-2.69-.4-5.86-.87-8.29-2.18-1.84-1-3.28-3-2.72-3.5.32-.29,1.58-.22,2-.33.07,0-.51-.48.27,0a72.68,72.68,0,0,1,8.7,2.24c.35.09,1.76.32,3.13.56,1.06.19,2,.48,3.11.58a30.07,30.07,0,0,0,3.16,0,69.58,69.58,0,0,0,9.17-.6c2.4-.35,5.07-.9,7.49-1.35l7.66-1.39h0a.66.66,0,0,1,.64.23,4.83,4.83,0,0,1,1,2.3,9.16,9.16,0,0,1,.08,2.39,19.85,19.85,0,0,1-1,4.58,67.13,67.13,0,0,1-2.66,6.47A40.77,40.77,0,0,1,67.28,89a2.58,2.58,0,0,0-.74,1,1.05,1.05,0,0,0,.27,1c.25.33.64.67,1,1s.69.71,1,1.07a30.63,30.63,0,0,1,3.28,4.32,20.35,20.35,0,0,1,2.06,3.91,17.76,17.76,0,0,1,.72,3.3A17.07,17.07,0,0,1,75,109h0a.35.35,0,0,1-.23.29l-4.64,1.48c-.74.24-1.55.48-2.44.74s-1.87.52-3,.78a46,46,0,0,1-13.49,1.43,46.66,46.66,0,0,1-6.93-.92A68,68,0,0,1,37.51,111c-2.11-.68-3.53-1.43-5.33-1.85a.53.53,0,0,1-.41-.52v-.14q0-.63-.06-1.32a33.74,33.74,0,0,1,1.92-7.08,28.88,28.88,0,0,1,6.84-9.91c.24-.22.5-.64.71-.83l.31-.27-.27,1.72c-.62-.93-1.21-2-1.85-2.86s-1.41-1.73-2-2.65a78.5,78.5,0,0,1-5.63-9.71A42.14,42.14,0,0,1,29.69,70.73Z" fill-rule="evenodd"/><path d="M41.07,105.47a.54.54,0,0,0,.35-.27c.18-.26.26-.55.44-.86.09-.15.25-.29.34-.43s.08-.32.17-.46.26-.28.34-.41.16-.38.28-.56.28-.36.42-.55.21-.46.45-.53a3.67,3.67,0,0,1,.87-1.3,23.14,23.14,0,0,1,2.67-2.88c1-.84,2.26-2,3.18-2.93a26.3,26.3,0,0,0,2.16-2.44l.29-.37a5.73,5.73,0,0,0,.49-.75A4,4,0,0,0,54,89.22a3.89,3.89,0,0,0-.21-1.58,4.5,4.5,0,0,0-1-1.59,7.51,7.51,0,0,0-.66-.6,31.8,31.8,0,0,1-3.38-3.4c-.22-.25-.4-.54-.61-.75s-.32-.2-.44-.32-.38-.55-.58-.79c-.38-.47-.82-.93-1.23-1.38a10.33,10.33,0,0,1-1.1-1.34c-.48-.27-.89-.76-1.38-1-.06-.23-.23-.22-.3-.41s0-.28-.12-.48-.25,0-.32-.07,0-.33-.18-.23-.21.46-.35.64c-.15,0-.22-.15-.39-.11.13.29,0,.27-.08.5A8.12,8.12,0,0,0,42.07,79c0,.11-.28.08-.15.25a33.36,33.36,0,0,0,2,4.55,1.5,1.5,0,0,1,.19.65c.44.56.69,1.19,1.06,1.75A19.45,19.45,0,0,0,47.53,89c.42.41,1.09,1.09,1,.93a1.72,1.72,0,0,1-.2-.49,2.17,2.17,0,0,1,.08-1.2c.15-.35.26-.42.22-.35l-.25.37c-.37.53-.75,1.07-1.14,1.6-.68.93-1.42,1.89-2.14,2.75a2.72,2.72,0,0,0-.31.49c-.06.09-.19.21-.25.3-.55.73-1.06,1.26-1.58,2-.26.35-.44.75-.68,1.12A21.25,21.25,0,0,0,40.71,99a14.16,14.16,0,0,0-1.21,4.42,3.49,3.49,0,0,0,.09,1.78c0,.07.2-.14.29.07,0,.62-.09,1.07.3,1.54.22-.06.19-.18.43-.11C40.71,106.24,41.08,106.05,41.07,105.47Zm.11-.28c.14,0,0,.1,0,.19C41.05,105.37,41.16,105.21,41.18,105.19Z" fill="#a07035" fill-rule="evenodd"/><path d="M35.43,62.74a5.54,5.54,0,0,1-.53,3.17c-.41-.4-.75-.16-1-.08-.25-.46-.56-.46-.82-.9-.28-.72-.09-.79-.2-1.34-1.21-3-1.3-7.62-1.12-10.74a51.43,51.43,0,0,1,.76-7.61c.19-.88.5-2,.82-3.19a43.84,43.84,0,0,1,3-8c.69-1.4,1.43-2.64,2.18-3.91a24.23,24.23,0,0,1,4.23-5.48,15.9,15.9,0,0,1,1.72-1.54,11.78,11.78,0,0,1,1.22-.65A15.18,15.18,0,0,1,49.2,21a12.58,12.58,0,0,1,3.37-.47,15.51,15.51,0,0,1,3.65.48,18.39,18.39,0,0,1,7.2,3.56c.41.29.58.14,1,.52a32.56,32.56,0,0,1,3.42,4.65c1.06,1.73,2,3.53,2.88,5.06.11.2.25.58.39.8a28.74,28.74,0,0,1,2.47,5.22,54.56,54.56,0,0,1,1.79,6c.27,1.09.5,2.18.71,3.25s.36,2.19.46,3.26a36.17,36.17,0,0,1,0,5.87,11,11,0,0,1-1.16,5c-.68,1.1-2.13,1.72-2.42,1.33-.18-.23-.09-.93-.16-1.19,0,0-.32.24,0-.16.28-1.51.77-3,1.16-4.85,0-.21.11-1,.19-1.81.06-.61.21-1.2.22-1.82s-.1-1.28-.13-1.84a40,40,0,0,0-.41-5.29,41.6,41.6,0,0,0-1-4.24,48.46,48.46,0,0,0-3.43-9,35.47,35.47,0,0,0-1.93-3.46,21.62,21.62,0,0,0-3.44-5.38A14.73,14.73,0,0,0,58.79,23a21,21,0,0,0-2.34-.73,18.72,18.72,0,0,0-1.79-.55,10.87,10.87,0,0,0-5.12.19,13.27,13.27,0,0,0-2.92,1.22A19.16,19.16,0,0,0,41,28.22a32.32,32.32,0,0,0-3.92,6.91c-.29.72-.59,1.29-.82,1.87a7,7,0,0,0-.42,1.87c-.24.67-.42,1.33-.6,2s-.29,1.3-.44,1.94a49.69,49.69,0,0,0-1,6.58c0,.18.08.44.07.59,0,.7-.15,1.46-.12,2.16s.1,1.26.14,1.88a31.92,31.92,0,0,0,.7,6.12A19.89,19.89,0,0,0,35.43,62.74Z" fill-rule="evenodd"/><path d="M144.82,22.18q-5.55-9-11.11-17.94c-.54-.87-1.18-1.82-2.14-2-3,2.45-5.13,6-7.37,9.25a86.63,86.63,0,0,1-12.15,14.26,15.43,15.43,0,0,1-5.25,3.61,28.06,28.06,0,0,1-5.57.83A21,21,0,0,0,84.71,43.7l8.4,11.17L103,47c1.47-4.25,9.87-5.71,14-5.31,14.27,1.4,22.58-10.07,27.82-17.46a1.92,1.92,0,0,0,.46-1.05A2,2,0,0,0,144.82,22.18Z" fill="#eaeaea"/><path d="M107.27,50.82a6.78,6.78,0,0,0-2-3.1,2.48,2.48,0,0,0-3.36.2c-.45.61-.49,1.44-.92,2a2,2,0,0,1-3.39-.82c-1.9-1.53-4.11,2.05-6.13,1s-3.43-2.91-4.81-4.7c-1.24-1.59-3.21-3.33-5-2.4-.35.19-.65.47-1,.63-1.54.69-1.49-4.2-4-2.3-6.52,7.7-7.3,19.69-6.42,28.65L90.42,80.86l20.84-9.78C112,65.2,109.45,56.32,107.27,50.82Z" fill="#fff"/><path d="M78.12,35.22c-2.18-3.45-4.46-7.26-4-11.32a15.3,15.3,0,0,1,1.29-4.26,15.92,15.92,0,0,1,2.64-4.44c3.14-3.47,8.57-4.13,13-2.61s8,4.83,11.08,8.37c-1.31,2.27-4.8-2-6.44-1.65-3.58,2.14.12,4-.24,6s-1.74,3.95-3.72,4.11c-1.3.1-2.51-.62-3.71-1.15s-2.68-.88-3.75-.12-1.21,2.09-1.7,3.22c-.85,2-1.83,3.9-4,4.08" fill="#fff"/><path d="M68,71c-.44,9,6,17.43,10.92,25a27.67,27.67,0,0,0-9.9,18.46c17.82,7,26.3,5.82,42.26.49.59-6.42-3-12.58-7.63-17.06a2.65,2.65,0,0,1-1-1.59c0-.77.6-1.39,1.16-1.91,6.42-5.94,12.82-19.53,9.28-23.58L98.54,73.48a63.88,63.88,0,0,1-10.92,1.41C80.93,75,74.42,73,68,71" fill="#ce9b57"/><path d="M66.33,76.59c-.27-2.87.52-4.73,1.38-5.64.43.91,1,.65,1.34.64.19.82.6.94.88,1.67.19,1.14,0,1.22.1,2.08a65.38,65.38,0,0,0,3.27,8c1.39,2.79,3,5.55,4.37,7.79l2.56,4h0a1.53,1.53,0,0,1-.32,2,26.4,26.4,0,0,0-5.18,5.72,22.72,22.72,0,0,0-2.64,4.58,25.59,25.59,0,0,0-1.91,7.08l-.72-1.18,3,1.19,3.24,1.18a45.8,45.8,0,0,0,7.22,2,41.24,41.24,0,0,0,11.38.26c1.32-.12,2.52-.49,3.66-.65.69-.14,1.49-.15,2.22-.27,2-.4,4.16-1,6.06-1.57,1.34-.4,2.73-.85,4.75-1.52l-.68.86a16.56,16.56,0,0,0-1.67-8.46A24.35,24.35,0,0,0,106,102c-.53-.7-1.09-1.39-1.7-2-.3-.34-.6-.67-.92-1s-.65-.62-1-1.1a5.54,5.54,0,0,1-.8-1.08,2,2,0,0,1,0-1.76,7,7,0,0,1,1.82-2,17.24,17.24,0,0,0,1.58-1.61,29.2,29.2,0,0,0,2.89-3.9,34.94,34.94,0,0,0,3.94-8.74,13.69,13.69,0,0,0,.4-1.37,17.1,17.1,0,0,0,.27-3,4,4,0,0,0-.68-2.46l1.68.58c-4.18.89-8.9,1.76-12.81,2.52a86.08,86.08,0,0,1-11.22,1.68,47,47,0,0,1-10.13-.63c-2.69-.4-5.86-.87-8.29-2.17-1.83-1-3.28-3-2.72-3.51.32-.29,1.58-.21,2-.32.07,0-.51-.49.27,0a72.68,72.68,0,0,1,8.7,2.24c.35.09,1.76.32,3.14.56,1,.2,2,.48,3.1.58a30.11,30.11,0,0,0,3.16,0,71.33,71.33,0,0,0,9.17-.6c2.41-.36,5.07-.91,7.49-1.36L113,70h0a.66.66,0,0,1,.64.23,4.88,4.88,0,0,1,1,2.3,9.23,9.23,0,0,1,.08,2.4,19.77,19.77,0,0,1-1,4.57A67.13,67.13,0,0,1,111.06,86a40.75,40.75,0,0,1-7.14,8.9,2.49,2.49,0,0,0-.74,1,1.05,1.05,0,0,0,.27,1c.26.33.64.67,1,1s.69.71,1,1.07a29.89,29.89,0,0,1,3.28,4.32,20.35,20.35,0,0,1,2.06,3.91,17.69,17.69,0,0,1,.72,3.31,17,17,0,0,1,.14,4.36h0a.35.35,0,0,1-.23.28l-4.64,1.48c-.74.24-1.55.49-2.44.74s-1.87.52-3,.78a46,46,0,0,1-13.49,1.43A46.66,46.66,0,0,1,81,118.7a68,68,0,0,1-6.81-1.87c-2.11-.68-3.53-1.43-5.33-1.85a.53.53,0,0,1-.41-.51v-.15q0-.63-.06-1.32a33.74,33.74,0,0,1,1.92-7.08A28.88,28.88,0,0,1,77.11,96c.24-.22.5-.64.71-.83l.31-.27-.27,1.72c-.61-.92-1.21-1.95-1.85-2.85S74.6,92,74,91.12a78.5,78.5,0,0,1-5.63-9.71A40.68,40.68,0,0,1,66.33,76.59Z" fill-rule="evenodd"/><path d="M71.51,67.49a4.16,4.16,0,0,1-1.1,2.56.83.83,0,0,0-.94-.2c-.17-.41-.47-.46-.64-.85-.13-.63.07-.66,0-1.12-.66-2.62-.21-6.39.15-9a53,53,0,0,1,1.1-6.29c.22-.72.54-1.64.89-2.61a28.18,28.18,0,0,1,3.16-6.4c.62-1,1.34-1.73,2-2.57h0l.09-.08.52-.33a2.24,2.24,0,0,1,1-.24,1.54,1.54,0,0,1,.55.11,1.92,1.92,0,0,1,.46.27,4.12,4.12,0,0,1,1,1.3,4.86,4.86,0,0,0,.64,1s0,0,0,0-.07.18,0,.11a.05.05,0,0,0,0,0s0-.22,0-.18l.14-.07.26-.17a4.63,4.63,0,0,1,1-.6A2.78,2.78,0,0,1,82.93,42a3.44,3.44,0,0,1,1.29.47,8.83,8.83,0,0,1,2.58,2.12,26.29,26.29,0,0,0,3.64,4.1,7.77,7.77,0,0,0,1.18.78.9.9,0,0,0,.27.13.65.65,0,0,0,.23.06.7.7,0,0,0,.25,0,1.06,1.06,0,0,0,.29,0c.84-.2,1.71-.94,3-1.37a2.72,2.72,0,0,0,.49-.26,1,1,0,0,1,.66-.14,2.72,2.72,0,0,1,1.34.63l.1.08a.58.58,0,0,1,.22.48.88.88,0,0,0,.7.72,1,1,0,0,0,1.1-.23c.26-.28.29-1,.76-1.93a2.91,2.91,0,0,1,1.14-1.09,3.48,3.48,0,0,1,1.39-.35,4.63,4.63,0,0,1,1,.14,3.76,3.76,0,0,1,1.32.49,4.87,4.87,0,0,1,1.11,1,9.27,9.27,0,0,1,1.42,2.48c.69,1.64,1.29,3.39,1.78,4.89a75.17,75.17,0,0,1,2.32,10,9.21,9.21,0,0,1,.2,4.22c-.29,1-1.46,1.91-1.85,1.66s-.41-.72-.55-.9c0,0-.24.27-.05-.12a27.11,27.11,0,0,1-.23-4.2c0-.18-.12-.86-.19-1.53s0-1-.07-1.56-.28-1-.35-1.52c-.28-1.53-.35-3-.68-4.42-.27-1.13-.7-2.36-1.08-3.47a38.09,38.09,0,0,0-1.43-3.66,3.11,3.11,0,0,0-2.7-2,1.55,1.55,0,0,0-1.17.51,3.47,3.47,0,0,0-.49,1.38,2.84,2.84,0,0,1-.81,1.14,2.2,2.2,0,0,1-1.47.44,2.77,2.77,0,0,1-1.46-.49,2,2,0,0,1-.85-1.37l.12.22a1.33,1.33,0,0,0-1.17-.3,5,5,0,0,0-1.31.53,6.1,6.1,0,0,1-2.69,1A2.85,2.85,0,0,1,91,50.38a5.42,5.42,0,0,1-.93-.55A9.8,9.8,0,0,1,89,48.66c-.94-.95-1.72-2.1-2.81-3.42a8.24,8.24,0,0,0-2-1.69,2.56,2.56,0,0,0-2-.37,3.2,3.2,0,0,0-1,.52,1.93,1.93,0,0,1-.59.32.87.87,0,0,1-.81-.12,3.06,3.06,0,0,1-.8-1.06,10.54,10.54,0,0,0-.59-1,1,1,0,0,0-.73-.5c-.26,0-.58.18-.88.37l.06-.05-1.08,1.42-1,1.56a7.18,7.18,0,0,0-1.31,3,11.67,11.67,0,0,0-.63,1.59c-.18.53-.32,1.06-.47,1.58a35.39,35.39,0,0,0-1.13,5.4c0,.15,0,.38,0,.5-.08.58-.2,1.2-.24,1.78s0,1.06,0,1.58a34.34,34.34,0,0,0,0,5.16A21.76,21.76,0,0,0,71.51,67.49Z" fill-rule="evenodd"/><path d="M78.17,32.4a4,4,0,0,1,.14,2.7.88.88,0,0,0-.93.26c-.32-.28-.61-.17-.93-.43-.39-.48-.23-.6-.45-1a12.26,12.26,0,0,1-2.19-3.87A14.61,14.61,0,0,1,73,25.54a12,12,0,0,1,.45-3.48,18.11,18.11,0,0,1,1-2.77c.33-.64.78-1.48,1.3-2.35A10.82,10.82,0,0,1,81,12.24a16.1,16.1,0,0,1,3.59-.89,14,14,0,0,1,5.65.22,13.79,13.79,0,0,1,1.8.49c.32.13.63.38,1,.55.9.47,1.83,1,2.64,1.51a34.15,34.15,0,0,1,7,6.38l.06.07a.59.59,0,0,1,0,.74,3.52,3.52,0,0,1-.45.55,1.87,1.87,0,0,1-.81.4A2.76,2.76,0,0,1,99.83,22c-.42-.14-.54.05-1-.16-.54-.37-1.08-.77-1.63-1.13a6.76,6.76,0,0,0-.82-.46,2,2,0,0,0-.56-.16l.27-.1-.45.32c-.14.11-.25.23-.37.34a1,1,0,0,0-.28.62A4.17,4.17,0,0,0,95.86,23c.1.18.23.52.35.74a2.94,2.94,0,0,1,.36,1.41,4.42,4.42,0,0,1-.07.74c0,.21-.09.43-.16.65a6.59,6.59,0,0,1-1.41,2.56,4.76,4.76,0,0,1-3,1.57,5.94,5.94,0,0,1-3-.55c-.91-.38-1.63-.79-2.27-1a2.3,2.3,0,0,0-1.55-.05c-.31.13-.56.49-.8,1.12-.11.3-.21.65-.33,1s-.28.76-.39,1.06a12.88,12.88,0,0,1-.87,2A4,4,0,0,1,81,35.92a2.09,2.09,0,0,1-1.78-.1c-.45-.27-.62-.63-.57-.85s.47-.55.51-.75c0,0-.24-.13.06-.08a8,8,0,0,0,.94-1,15.37,15.37,0,0,0,1.08-1.61c0-.07.12-.26.23-.5s.22-.52.33-.8c.2-.46.49-.93.78-1.46a3.77,3.77,0,0,1,1.31-1.57A3.49,3.49,0,0,1,86.66,27a10.73,10.73,0,0,1,2.1,1,5.44,5.44,0,0,0,3,.9,3.55,3.55,0,0,0,2.57-2A5.94,5.94,0,0,0,95,25.18a2.57,2.57,0,0,0-.45-1.57,11,11,0,0,1-.75-1.5,2.41,2.41,0,0,1,.13-2,4.7,4.7,0,0,1,1.53-1.23l0,0a.27.27,0,0,1,.12,0,3.33,3.33,0,0,1,1.94.65l1.57,1a5.58,5.58,0,0,0,1.57.74,1,1,0,0,0,1.17-.47l0,.36c-.36-.41-.68-.76-1-1.08-.47-.5-1-.9-1.44-1.38s-.62-.78-1-1.13a20.08,20.08,0,0,0-3.26-2.64A22.94,22.94,0,0,0,93,13.68a13.5,13.5,0,0,0-12-.23,4.29,4.29,0,0,0-2.31,1.93A8.93,8.93,0,0,0,77,18a23.89,23.89,0,0,0-1.85,4.88c0,.14,0,.35,0,.46a8.42,8.42,0,0,0-.18,1.59,10.48,10.48,0,0,0,.25,1.38,12.12,12.12,0,0,0,1.66,4.39A16.94,16.94,0,0,0,78.17,32.4Z" fill-rule="evenodd"/><path d="M115,41.3a8.34,8.34,0,0,1,2.18-.11c.86,0,1.83.14,2.83.1a20.46,20.46,0,0,0,3-.21c.47-.08.92-.14,1.34-.22l1.11-.32a11,11,0,0,0,1.66-.7,25.28,25.28,0,0,0,6.34-3.69,40.12,40.12,0,0,0,5.35-5.08c1.19-1.34,2.23-2.83,3.35-4.33.41-.56.85-1.11,1.27-1.66l.63-.83a6.77,6.77,0,0,0,.53-.77.59.59,0,0,0,.05-.44,2.14,2.14,0,0,0-.32-.57l-1-1.39c-.64-.92-1.26-1.83-1.83-2.76-.43-.7-.74-1.37-1.14-2-1.25-2-2.65-4.17-3.86-6-.21-.33-.33-.67-.57-1s-.39-.42-.58-.71l-2-3.22c-.34-.54-.65-1.09-1-1.51a1.85,1.85,0,0,0-1-.78l.73-.17c-.29.24-.57.48-.84.74A24.67,24.67,0,0,0,128.42,7c-1,1.43-2,3-3.1,4.64s-2.25,3.28-3.49,4.89a76.82,76.82,0,0,1-8.11,9,37.07,37.07,0,0,1-3.26,2.82,11.48,11.48,0,0,1-4,2,22.7,22.7,0,0,1-4.06.52,18.59,18.59,0,0,0-3.53.57A20.53,20.53,0,0,0,86.37,41.75c-.66.71-1.5,2.41-1.8,1.82a8.68,8.68,0,0,1,.43-1.4,18.67,18.67,0,0,1,1-1.9c.35-.66.8-1.27,1.15-1.81s.7-1,.89-1.23a15.94,15.94,0,0,1,3.06-2.92,23.12,23.12,0,0,1,6.71-3.8,18.54,18.54,0,0,1,3.77-.92c1.28-.17,2.54-.23,3.74-.44,2.58-.38,4.74-2.07,6.65-3.86A77.56,77.56,0,0,0,122.5,12.68l3.7-5.3a28.07,28.07,0,0,1,4.94-5.7.68.68,0,0,1,.56-.14h0a3.22,3.22,0,0,1,1.71,1.09,10.75,10.75,0,0,1,1,1.4c.54.87,1.33,2.07,1.85,2.93.3.52.45.93.77,1.44.89,1.46,1.9,3,2.83,4.49,1.06,1.68,2.08,3.31,3.09,4.89l1.49,2.36.74,1.16.37.59a2.87,2.87,0,0,1,.38.84,1.92,1.92,0,0,1-.07,1.14,3.73,3.73,0,0,1-.43.76l-.79,1.13c-.52.75-1.05,1.49-1.61,2.24-1.09,1.49-2.28,2.94-3.55,4.39A35.42,35.42,0,0,1,134.43,37c-.61.41-1.43,1-2,1.31a27.32,27.32,0,0,1-5.4,2.93,31.79,31.79,0,0,1-8.68,1.48l-1.25-.13c-.5,0-1-.13-1.49-.15a14.36,14.36,0,0,0-3.13.19,15.56,15.56,0,0,1-2.33.65c-.16,0,.06-.14-.26-.05a2,2,0,0,1-.59.29,10,10,0,0,0-3.91,2,1.2,1.2,0,0,0-.58.24,2.48,2.48,0,0,0-.59.48c-.39.33-.58.74-.83.82s-.37-.21-.26-.83a4.4,4.4,0,0,1,.45-1,5.1,5.1,0,0,1,.86-1,8.53,8.53,0,0,1,2.46-1.41,26.84,26.84,0,0,1,3.21-1A13.55,13.55,0,0,1,115,41.3Z" fill-rule="evenodd"/><path d="M98.65,45.78c-.77.59-.81,0-1-.16s-.39-.49-.58-.68-.28-.1-.38-.16a6.43,6.43,0,0,1-.54-.49s-.11,0-.14-.1,0-.12,0-.16-.18-.1-.26-.16c-.4-.29-.66-.64-1.09-1a6.44,6.44,0,0,1-.7-.68c-.39-.43-.79-.8-1.18-1.25a1.9,1.9,0,0,0-.38-.37c-.09,0-.23,0-.34-.1a1.66,1.66,0,0,1-.39-.18.47.47,0,0,1-.17-.49,1.33,1.33,0,0,1,.1-.28c.07-.21,0-.5.33-.59a3,3,0,0,1,.65.2.48.48,0,0,0,.3,0l.15,0h.08l.15.07c.11,0,.22.34.34.49a3.16,3.16,0,0,1,.59.77s0,.09,0,.12a4.6,4.6,0,0,1,.25.44c.07.11.21.16.28.26s.16.37.27.53a6.65,6.65,0,0,0,1.34,1.37,3.79,3.79,0,0,1,.39.31s0,.1,0,.13a.43.43,0,0,0,.17.12c.17.1.18.5.37.67a3.39,3.39,0,0,1,.48.41,1.71,1.71,0,0,0,.25.22c.18.18.24.43.43.58S98.63,45.66,98.65,45.78Z" fill-rule="evenodd"/><path d="M104.62,39.25c.45.18.55.38.48.56s-.28.3-.4.43-.6.53-.84.77-.13.33-.21.46-.44.47-.62.69c0,.06-.07.14-.13.18s-.15,0-.19,0a1.77,1.77,0,0,0-.21.32l0,.06a.14.14,0,0,1-.19,0h0l0,0c-.42-.44-.69-.89-1.13-1.4a9.31,9.31,0,0,1-.76-1c-.4-.61-.82-1.19-1.21-1.85a2.83,2.83,0,0,0-.38-.57,3.54,3.54,0,0,0-.35-.23c-.11-.1-.26-.18-.36-.27A.39.39,0,0,1,97.9,37c0-.08.08-.15.1-.23s-.06-.3.1-.52c1-.72,1.36.06,1.65.32s.22.5.35.73a5.34,5.34,0,0,1,.56,1.09s0,.11,0,.15.14.4.24.6.22.24.29.38.16.48.26.7a9.19,9.19,0,0,0,1.44,1.94l.06.06-1.17-.14a3.79,3.79,0,0,1,.34-.43s.12,0,.15,0a.62.62,0,0,0,.16-.2c.13-.22.6-.31.81-.55a6.34,6.34,0,0,1,.53-.61c.11-.09.18-.22.28-.32s.45-.31.52-.49S104.54,39.28,104.62,39.25Z" fill-rule="evenodd"/><path d="M106.13,35c-.44-.89.55-1.05,1.1-1.07a2.18,2.18,0,0,1,1.59.46,3.5,3.5,0,0,1,.62.41,6.4,6.4,0,0,1,.75,1.31,1.83,1.83,0,0,1,.18.3c0,.09,0,.21,0,.3s.19.37.27.55a4.9,4.9,0,0,1,.33,1.48,2.11,2.11,0,0,1-.12.84,1.8,1.8,0,0,1-.61.76,2.51,2.51,0,0,1-2.28.27,5.13,5.13,0,0,1-2.74-2.64l-.51-1.06a6.89,6.89,0,0,1-.37-.59,3.83,3.83,0,0,1-.3-.78,1.12,1.12,0,0,1,.16-.86,2.29,2.29,0,0,1,.27-.27c.1-.11.18-.27.31-.41a.64.64,0,0,1,.58-.23c.23.24.14.5.24.65s.2.19.22.31a5.79,5.79,0,0,0,.15.84c.1.25.07.68.21,1,.22.56.55,1.08.79,1.6a1.76,1.76,0,0,0,.09.2,5.76,5.76,0,0,0,.53.69,2.46,2.46,0,0,0,.53.28,2.39,2.39,0,0,0,.82.36,1,1,0,0,0,1.06-.49,2.79,2.79,0,0,0-.19-1.52c-.1-.29-.25-.57-.35-.85,0,0,.05-.13,0-.19a1.09,1.09,0,0,0-.19-.33c-.2-.3-.24-1-.51-1.3a1.72,1.72,0,0,0-.74-.45,1.21,1.21,0,0,0-.46,0,2,2,0,0,0-1.07.15C106.34,34.75,106.32,34.92,106.13,35Z" fill-rule="evenodd"/><path d="M112.23,29.67c.92-.34,1,.5,1.21,1s.44,1,.64,1.45c.09.19.32.35.42.52a8.83,8.83,0,0,1,.54,1.18,1,1,0,0,1,.14.27c0,.07,0,.17,0,.26a4.93,4.93,0,0,0,.23.46,12.39,12.39,0,0,1,.69,2.54l0,.21a.34.34,0,0,1-.26.4.41.41,0,0,1-.22,0l-.06,0a8.58,8.58,0,0,1-1.35-.86,28,28,0,0,1-2.33-2,2.31,2.31,0,0,0-1.19-.83c-.17-.09-.37-.15-.53-.23a.64.64,0,0,1-.34-.43c0-.09,0-.19,0-.28s-.25-.3-.22-.6c.49-1.13,1.51-.31,2,0a4.92,4.92,0,0,1,.81.83,9.31,9.31,0,0,1,1.19,1.25,1.13,1.13,0,0,0,.12.18c.2.2.35.45.56.66s.36.24.52.39.43.5.67.7a4.5,4.5,0,0,0,.63.45l-.9.56a9,9,0,0,0-.6-2.38c-.1-.26-.24-.51-.32-.76,0,0,0-.13,0-.18a1.05,1.05,0,0,0-.15-.3c-.17-.28-.13-.89-.33-1.28s-.35-.6-.51-1c-.08-.18-.19-.34-.28-.51-.21-.38-.28-.81-.49-1.15C112.43,29.91,112.26,29.87,112.23,29.67Z" fill-rule="evenodd"/><path d="M122.42,33.33c.7.68,0,1.09-.36,1.51s-.73.85-1,1.23c-.14.17-.15.45-.27.6a.3.3,0,0,1-.32.12.57.57,0,0,1-.26-.25c-.12-.18-.24-.36-.36-.52s-.14-.15-.19-.24,0-.18,0-.25a2.51,2.51,0,0,0-.33-.4c-.52-.71-.85-1.4-1.35-2.23a13,13,0,0,1-.8-1.58c-.41-.93-.82-1.84-1.16-2.85a1.07,1.07,0,0,1-.09-.42.68.68,0,0,1,.2-.46.81.81,0,0,1,.29-.19,2.24,2.24,0,0,0,.44-.2c.13-.08.26-.24.42-.34s.31-.27.47-.37a.68.68,0,0,1,.57-.09c.09,0,.17.08.26.11s.41-.05.65.13c.64,1-.53,1.43-1,1.71a5.57,5.57,0,0,1-1.09.32l-.2.08c0,.22-.23-.57-.26-.56a.41.41,0,0,0-.09-.13.28.28,0,0,0,.14,0,1,1,0,0,0,.24,0c.07,0,.48-.14.38-.1l.06.19a5.36,5.36,0,0,1,.22.81,1.36,1.36,0,0,0,0,.21c.1.27.12.57.22.85s.22.39.29.6.15.67.25,1A13.86,13.86,0,0,0,120,34.5c.16.23.36.46.49.69,0,0,0,.13,0,.18a1.46,1.46,0,0,0,.21.28,1.22,1.22,0,0,1,.25.51h0l-.08.06-.13.12a.72.72,0,0,0-.13.14c0,.06,0,.06,0,0a1,1,0,0,0-.18-.32s0,0,0-.06a8,8,0,0,1,.61-.9c.13-.16.22-.33.33-.49.26-.35.62-.6.84-.95C122.29,33.6,122.25,33.44,122.42,33.33Z" fill-rule="evenodd"/><path d="M121,29.35c.56.79.21.65.12.75s-.23.15-.32.24,0,.19,0,.25-.14.17-.2.27,0,.07,0,.08-.09-.05-.1,0,0,.11,0,.15c-.1.22-.27.32-.4.54a1.37,1.37,0,0,1-.29.34c-.19.16-.34.37-.55.53a.4.4,0,0,0-.16.18,2.15,2.15,0,0,0,0,.23c0,.07,0,.18,0,.24s-.06.08-.17,0l-.16-.13c-.12-.07-.13,0-.31-.18-.77-.91-.51-1.08-.49-1.26s.18-.08.26-.13.2-.21.37-.22c0,0,.06,0,.07,0s.17,0,.24-.06,0-.11.1-.14a2.85,2.85,0,0,1,.29,0c.24-.08.44-.38.59-.63,0-.06.06-.16.11-.2s.08.05.09.05,0-.06,0-.09.29,0,.36-.09a.84.84,0,0,1,.16-.24s.06-.09.09-.12.23-.06.28-.15S121,29.33,121,29.35Z" fill-rule="evenodd"/><path d="M125.47,25l.06,0c.08,0,.15,0,.16,0s-.07.08-.1.12a.87.87,0,0,1-.39.17c-.06,0-.11.18-.17.22a1.39,1.39,0,0,1-.42.14s-.07.06-.1.05-.06-.09-.09-.1-.11.08-.17.1a3.46,3.46,0,0,1-.92.05,1.67,1.67,0,0,1-.63-.1,4.55,4.55,0,0,1-1-.42.92.92,0,0,0-.31-.16c-.07,0-.19,0-.27,0a2.8,2.8,0,0,1-.29,0c-.1,0-.14-.08-.11-.22s.06-.13.08-.19,0-.17.09-.39c.81-.87,1-.61,1.22-.63s.13.17.21.23.28.13.37.29,0,.07,0,.08.1.14.17.19.15,0,.2,0,.14.18.22.24a1.24,1.24,0,0,0,1,0c.08,0,.16-.09.23-.09s0,.09.05.1.06,0,.09-.05.25.16.37.1l.21-.14s0,0,0-.05c.09.17.36.36.38.33A.13.13,0,0,0,125.47,25Z" fill-rule="evenodd"/><path d="M131.13,32.09c-1,.17-.82-.52-1-.93s-.3-.86-.46-1.21c-.08-.16-.3-.27-.4-.4-.21-.29-.36-.62-.54-.89-.05-.07-.12-.12-.16-.19s0-.15,0-.22-.2-.2-.28-.31c-.45-.54-.75-1.07-1.26-1.66-.31-.35-.6-.72-.88-1.1-.49-.64-1-1.24-1.53-1.91a2.79,2.79,0,0,0-.49-.58c-.1-.08-.28-.13-.4-.22s-.31-.16-.43-.25a.47.47,0,0,1-.2-.43,2.21,2.21,0,0,1,.05-.25c0-.21-.12-.32,0-.57.84-.88,1.4-.07,1.75.19s.33.52.51.76a6.88,6.88,0,0,1,.8,1.14.67.67,0,0,0,.06.17c.15.19.22.43.36.64s.26.26.36.42.23.53.36.77A25.13,25.13,0,0,0,129,27.33c.14.2.32.38.44.58,0,0,0,.12,0,.17a1,1,0,0,0,.17.23c.2.22.19.76.37,1.08a5.12,5.12,0,0,1,.45.82c.07.16.16.29.23.45.15.34.15.72.28,1C131,31.86,131.14,31.91,131.13,32.09Z" fill-rule="evenodd"/><path d="M128.19,20.64c-.48-.85.47-1.17,1-1.22a1.94,1.94,0,0,1,1.53.61c.18.16.47.26.64.42a5.46,5.46,0,0,1,.88,1.25,2.9,2.9,0,0,1,.19.29c0,.09,0,.21,0,.3a5.62,5.62,0,0,0,.35.5,4.28,4.28,0,0,1,.63,1.39,2.25,2.25,0,0,1-.25,1.74,1.81,1.81,0,0,1-1,.78,2.12,2.12,0,0,1-1.25,0,5.83,5.83,0,0,1-2.87-2.55c-.21-.34-.38-.7-.59-1s-.3-.33-.43-.52-.31-.41-.42-.62a1,1,0,0,1-.1-.73c0-.11.09-.2.13-.31.08-.26,0-.51.21-.75,1.13-.43,1.31.88,1.64,1.35.17.3.23.78.4,1.13.28.57.64,1,.94,1.58a1.86,1.86,0,0,0,.1.2,7.69,7.69,0,0,0,.58.7,2.64,2.64,0,0,0,.55.29,1.44,1.44,0,0,0,.74.29.88.88,0,0,0,.77-.81,2.73,2.73,0,0,0-.51-1.53c-.17-.28-.37-.56-.51-.83,0-.06,0-.15,0-.21a1.85,1.85,0,0,0-.21-.33c-.21-.31-.33-.95-.66-1.29a3.76,3.76,0,0,0-.82-.6,1,1,0,0,0-.41-.09,1.19,1.19,0,0,0-.9.22C128.42,20.39,128.41,20.57,128.19,20.64Z" fill-rule="evenodd"/><path d="M132.29,14.84c.81-.55,1.11.31,1.45.75s.68,1,1,1.42c.13.19.39.33.53.49a9.86,9.86,0,0,1,.76,1.19,1,1,0,0,1,.19.27c0,.07,0,.19,0,.27s.23.31.32.47a4.22,4.22,0,0,1,.57,1.3,1.57,1.57,0,0,1-.45,1.63,1.87,1.87,0,0,1-2.22-.25,11.55,11.55,0,0,1-1.21-1.22l-1.1-1.26a6.27,6.27,0,0,0-.7-.75c-.13-.11-.34-.19-.5-.31s-.38-.22-.54-.35a.73.73,0,0,1-.32-.53c0-.1,0-.2,0-.3s-.21-.39-.13-.69c.73-1,1.57.05,2,.4a7.2,7.2,0,0,1,.75,1,10.86,10.86,0,0,1,1.16,1.47A1.39,1.39,0,0,0,134,20c.21.24.35.54.55.8s.34.3.48.45a2.32,2.32,0,0,0,.58.56.69.69,0,0,0,.46.05c.12,0,.17-.11.2-.26a2.48,2.48,0,0,0-.44-1.34c-.15-.27-.34-.52-.48-.78,0-.05,0-.14,0-.2a1,1,0,0,0-.21-.3c-.22-.28-.29-.92-.57-1.31s-.47-.58-.71-.93c-.12-.18-.26-.32-.39-.48-.29-.37-.46-.79-.76-1.1C132.55,15,132.37,15,132.29,14.84Z" fill-rule="evenodd"/><path d="M77.71,111.33a.54.54,0,0,0,.35-.27c.18-.26.26-.55.44-.86.09-.15.25-.29.34-.43s.08-.32.17-.46.26-.28.34-.41.16-.38.28-.56.28-.36.42-.55.21-.46.45-.52a3.62,3.62,0,0,1,.87-1.31A23.14,23.14,0,0,1,84,103.08c.95-.84,2.26-2,3.18-2.93a26.3,26.3,0,0,0,2.16-2.44l.29-.37a5.45,5.45,0,0,0,.49-.74,3.89,3.89,0,0,0,.47-1.52,3.75,3.75,0,0,0-.21-1.58,4.5,4.5,0,0,0-1-1.59,7.51,7.51,0,0,0-.66-.6,31.8,31.8,0,0,1-3.38-3.4c-.22-.25-.4-.54-.61-.74s-.32-.21-.44-.33-.38-.55-.58-.79c-.38-.47-.82-.93-1.23-1.38a10.33,10.33,0,0,1-1.1-1.34c-.48-.26-.89-.76-1.38-1-.06-.23-.23-.22-.3-.41s0-.28-.11-.48-.25,0-.33-.07,0-.33-.18-.23-.21.46-.34.64c-.16,0-.23-.15-.4-.11.13.29,0,.27-.08.5a8.12,8.12,0,0,0,.43,2.67c0,.12-.28.08-.15.25a34.65,34.65,0,0,0,2,4.55,1.54,1.54,0,0,1,.19.66A20.26,20.26,0,0,1,81.77,92a18.91,18.91,0,0,0,2.4,2.77c.42.41,1.09,1.09,1,.93a1.55,1.55,0,0,1-.19-.49,2.08,2.08,0,0,1,.07-1.2c.15-.35.26-.42.22-.35l-.25.37c-.37.53-.75,1.07-1.14,1.6-.68.93-1.42,1.9-2.14,2.75a2.72,2.72,0,0,0-.31.49c-.06.1-.19.21-.25.3-.55.73-1.06,1.26-1.58,2-.26.34-.44.74-.68,1.11a21.17,21.17,0,0,0-1.52,2.55,13.91,13.91,0,0,0-1.22,4.42,3.49,3.49,0,0,0,.09,1.78c0,.07.2-.14.29.07,0,.63-.09,1.07.3,1.54.22-.06.19-.17.43-.11C77.35,112.1,77.72,111.91,77.71,111.33Zm.11-.28c.14,0,0,.1,0,.19C77.69,111.23,77.8,111.08,77.82,111.05Z" fill="#a07035" fill-rule="evenodd"/></svg>