<svg xmlns="http://www.w3.org/2000/svg" viewBox="0 0 60 80"><title>illo-bev-martini</title><path d="M28.25,40.41a1.2,1.2,0,0,0-.12-.32c-.13-.3-.3-.64-.49-1-.08-.16-.2-.41-.27-.57s-.18-.35-.29-.56l-.27-.57-.37-.71-.38-.77c-.12-.25-.3-.56-.38-.77-.33-.58-.61-1.17-.9-1.74-.72-1.41-1.41-2.77-2.1-4.11s-1.45-2.89-2.05-4.06c-.78-1.55-2.07-4.05-2.91-5.71l-2.5-4.9-.49-1-.29-.51-.49-1L13,10.33l-.88-1.65c-.25-.41-.57-1-.81-1.36s-.15-.26-.25-.46-.11-.27-.22-.47-.06,0-.12-.15-.13-.31-.13-.25.11.36.13.49c0,0-.12-.2-.15-.2a1.46,1.46,0,0,1,.16.43c.32.78.76,1.78,1.06,2.42,0,.1-.06,0,0,.16l2.05,4.38c.09.21.19.42.24.58.32.61.57,1.19.85,1.76l1.56,3.16.83,1.65,2.09,4,1.74,3.27.29.51.19.36,1.19,2.24.62,1.12,1.37,2.55L27,38.78c.33.58.6,1.08.88,1.5,0,.07-.05-.14.07,0,.33.56.52,1,.83,1.4,0,0,0-.15,0-.08C28.63,41.21,28.59,41,28.25,40.41Zm-.15-.31s0,.11.11.2A.62.62,0,0,1,28.1,40.1Z" fill-rule="evenodd"/><path d="M16.4,10.72a2.54,2.54,0,0,0-2.43.45,6,6,0,0,0-1.57,2,6.12,6.12,0,0,0-.8,2.17,5.37,5.37,0,0,0,.13,1.74,6.19,6.19,0,0,0,.85,2.27,3,3,0,0,0,1.95,1.35,3.05,3.05,0,0,0,2.29-.7,6.61,6.61,0,0,0,1.53-1.91A8.48,8.48,0,0,0,19.53,15a4.39,4.39,0,0,0,0-1.4,3.65,3.65,0,0,0-2.93-2.84" fill="#8ba53a"/><path d="M17.45,11.17s.1.09.17.15a4,4,0,0,1,.57.49,2.78,2.78,0,0,1,.26.32,3.81,3.81,0,0,1,.24.32,2.31,2.31,0,0,1,.17.36,2.43,2.43,0,0,1,.19.47,4.94,4.94,0,0,1,.1.53,2.43,2.43,0,0,1,0,.54A4.13,4.13,0,0,1,19,15.61a10.07,10.07,0,0,1-1.32,2.79,4.13,4.13,0,0,1-2.15,1.79,2,2,0,0,1-1.74-.27,3.39,3.39,0,0,1-1.22-1.56,8,8,0,0,1-.49-1.82,3.91,3.91,0,0,1,0-1.68,6,6,0,0,1,.23-.68c.05-.13.09-.25.14-.37s.24-.46.35-.67A7.59,7.59,0,0,1,13.53,12a3.36,3.36,0,0,1,.88-.84,3,3,0,0,1,.95-.47,2.28,2.28,0,0,1,.36,0,1.63,1.63,0,0,1,.35,0c.08,0,0,0,.13,0s.22.09.2.05a1.88,1.88,0,0,0-.32-.18s.16,0,.18,0a2.05,2.05,0,0,1-.33-.11A2.74,2.74,0,0,0,14,10.8c-.07,0,0-.06-.13,0a4.83,4.83,0,0,0-1.21,1.22,16.23,16.23,0,0,0-.95,1.59l-.21.41a5,5,0,0,0-.39,1.46,7.86,7.86,0,0,0,.38,2.61,5.2,5.2,0,0,0,.56,1.29,3.29,3.29,0,0,0,3,1.74,3.84,3.84,0,0,0,2.49-1.33,3.89,3.89,0,0,0,.27-.34l.18-.24a12.9,12.9,0,0,0,.92-1.58,9,9,0,0,0,.36-.85,7.09,7.09,0,0,0,.49-2,3.81,3.81,0,0,0-1-3,3.1,3.1,0,0,0-1-.74c-.05,0,.07.08-.06,0a2.57,2.57,0,0,0-1.09-.35s.1.06,0,.08A5.93,5.93,0,0,1,17.45,11.17Zm.19.12s-.06,0-.13-.07S17.62,11.28,17.64,11.29Z" fill-rule="evenodd"/><path d="M13.87,13.72a1.65,1.65,0,1,0,1.52-2,1.82,1.82,0,0,0-1.69,1.5,1.5,1.5,0,1,0,2.89.8.72.72,0,0,1,.07-.25l-.38.66-.14.09-.75.2-.21,0-.67-.39.06.07-.44-1.06v.1l.2-.76-.05.08.54-.54-.09.05,1.16-.16h-.09l.66.38-.07-.07.39.67,0-.1a1.5,1.5,0,0,0-2.9.8Z" fill="#d14b4b"/><path d="M18.11,28.73a2.53,2.53,0,0,0,2.47-.09,6,6,0,0,0,1.86-1.77,6,6,0,0,0,1.11-2,5.58,5.58,0,0,0,.13-1.73,6,6,0,0,0-.5-2.37,3,3,0,0,0-1.73-1.63,3.06,3.06,0,0,0-2.37.35,6.58,6.58,0,0,0-1.79,1.66,8.73,8.73,0,0,0-1.65,2.94,4.66,4.66,0,0,0-.18,1.39,3.65,3.65,0,0,0,2.47,3.25" fill="#8ba53a"/><path d="M17.14,28.12A.82.82,0,0,0,17,28a4.94,4.94,0,0,1-.49-.57,3.12,3.12,0,0,1-.2-.35,2.47,2.47,0,0,1-.19-.36,3.3,3.3,0,0,1-.12-.38,2.7,2.7,0,0,1-.12-.49,3.25,3.25,0,0,1,0-.54,1.86,1.86,0,0,1,.07-.54,4.24,4.24,0,0,1,.37-1.21A10,10,0,0,1,18,21a4.1,4.1,0,0,1,2.4-1.45A2.06,2.06,0,0,1,22.1,20a3.44,3.44,0,0,1,1,1.72,8.47,8.47,0,0,1,.21,1.88,3.89,3.89,0,0,1-.3,1.65,4.79,4.79,0,0,1-.33.64c-.07.12-.12.23-.19.34s-.3.42-.44.61a9.34,9.34,0,0,1-.88,1.06,3.19,3.19,0,0,1-1,.69,2.92,2.92,0,0,1-1,.33,2.06,2.06,0,0,1-.36,0,1.81,1.81,0,0,1-.34-.1c-.08,0-.05,0-.13,0s-.21-.12-.19-.08.21.18.29.23-.16,0-.18,0a2.33,2.33,0,0,1,.3.16,2.76,2.76,0,0,0,2-.1c.09,0,0,.06.14,0A4.79,4.79,0,0,0,22,28a14.44,14.44,0,0,0,1.17-1.43l.28-.38a5,5,0,0,0,.59-1.39,7.5,7.5,0,0,0,0-2.63,6.19,6.19,0,0,0-.35-1.36A3.33,3.33,0,0,0,21,18.6a3.83,3.83,0,0,0-2.66.95,3.52,3.52,0,0,0-.32.29c-.07.08-.15.15-.21.21a13.47,13.47,0,0,0-1.16,1.43c-.17.25-.32.52-.48.79a7.4,7.4,0,0,0-.79,1.93A3.84,3.84,0,0,0,16,27.32a3,3,0,0,0,.89.88s-.07-.09.06,0a2.68,2.68,0,0,0,1,.5s-.09-.07,0-.08A4.93,4.93,0,0,1,17.14,28.12ZM17,28s.06.06.12.1S17,28,17,28Z" fill-rule="evenodd"/><path d="M21.07,26.32a1.72,1.72,0,0,0-1.66-1.71,1.67,1.67,0,1,0,0,3.33,1.91,1.91,0,0,0,1.8-1.46,1.51,1.51,0,0,0-1.05-1.84,1.53,1.53,0,0,0-1.85,1l.19-.33.66-.38.2,0,.76.21-.08-.05.53.54,0-.08.2.76v-.1l-.44,1.06.06-.07-.66.39.09,0H19l.08,0-.89-.69.06.08-.21-.76v.1a1.5,1.5,0,0,0,3,0Z" fill="#d14b4b"/><path d="M51,18.35a3.41,3.41,0,0,1,.79-.79,4.44,4.44,0,0,0,.37-.3l.2-.22.11-.13s.1-.16.07-.07c-.41,1.09.54,0,.64,0a11.91,11.91,0,0,1-.86,3.54c-1,1.81-2.21,3.41-3.37,5.27-2.58,4.07-5.13,8.73-8.16,12.86l-1.63,2.21L37.41,43c-.65.74-1.22,1.54-1.94,2.25-.36.36-.68.74-1.06,1.08l-1.19,1,.27-.54c0,1.11,0,2.17,0,3.22,0,1.46-.14,2.88-.15,4.34,0,3.11,0,6.61.11,9.76,0,1.15,0,2.28.08,3.34l-.25-.4,11.29,6h0a.52.52,0,0,1,.22.7.56.56,0,0,1-.41.28,85.05,85.05,0,0,1-13.73.17h.09c-.69.06-1.59.14-2.51.2-.64,0-1.51.16-2.18.17-1.16,0-2.3-.12-3.55-.14-1.77,0-3.6-.07-5.47-.18a.37.37,0,0,1-.35-.38.38.38,0,0,1,.18-.3h0c3.11-1.83,6.26-3.72,9.15-5.24a9.11,9.11,0,0,1,2-.9l0,0-.09.15a24.49,24.49,0,0,1-.11-4c-.05-2.88-.26-6.27,0-8.41a52.34,52.34,0,0,1-.33-8.2l.18.33c-.51-.44-1.07-.83-1.54-1.32s-1-1-1.41-1.48l-1.34-1.56-1.29-1.6c-1.25-1.52-2.48-3.11-3.93-5.21l-5.47-8.11c-1.45-2.16-2.69-4.4-3.74-6-.39-.59-1-1.7-1.35-1.72-.43-.84-.89-1.67-1.36-2.51v0a.57.57,0,0,1,.5-.86c3,0,6.13-.17,9.77-.23s7.32,0,10.71,0l9.51-.26,6.8-.17c4.17-.13,6.21-.27,8.7.12,2.17.33,1.39.46-1.19.94-1.57.08-2.84.16-4.41.19H44.07c-1.23,0-2.6.14-3.85.18-3.75.14-7.81.22-11.74.3-6.79.14-14,0-21.7,0l.41-.73c1.6,2.8,3.31,5.64,5.1,8.46,2.36,3.71,4.76,7.43,7.3,11q1.89,2.73,4,5.3c.69.85,1.41,1.68,2.16,2.47l1.15,1.14,1.26,1,0,0a.37.37,0,0,1,.14.29v.07c.11,6.46.4,12.85.37,19.25V67.5h0a.47.47,0,0,1-.24.42L17.3,74.19l-.17-.74c.83.06,1.89.12,3,.16a78.75,78.75,0,0,0,10.59-.25h.05c1.72.13,3.53.19,5.34.18,2.68,0,5.52-.1,8.24-.34l-.09.5a103.47,103.47,0,0,0-10.8-5.38c-.23-.19-.17-.31-.54-.53l0,0a.39.39,0,0,1-.18-.34,5.09,5.09,0,0,0,0-.63c-.27-4.63-.13-9.48-.24-14.37-.06-1.87-.11-3.76-.17-5.65a.54.54,0,0,1,.2-.44l.06-.06,1-.89c.34-.3.64-.68,1-1,.65-.66,1.2-1.44,1.8-2.15a114.31,114.31,0,0,0,7.31-11.3c1-1.67,1.75-3,2.58-4.44.28-.5.71-1.13,1-1.62.41-.76.65-1.47,1.06-2.2a32.29,32.29,0,0,0,2.36-3.94C50.58,19.34,50.9,18.92,51,18.35Z" fill-rule="evenodd"/><path d="M32.89,47.65a1.64,1.64,0,0,0,.07-.23,1.51,1.51,0,0,0,0-.26S33,47,33,47s0,0,0-.05,0-.12,0-.15,0,0,0-.06a.48.48,0,0,1,0-.12s0,0,0-.12c-.07.07-.07,0-.09-.06s-.13-.1-.18-.19a.44.44,0,0,0-.18-.18.7.7,0,0,0-.37,0c-.13.06-.23,0-.34.11s-.05,0-.08,0a.67.67,0,0,1-.07.11s0,0-.07,0a1.37,1.37,0,0,0-.19.21l-.19.22c-.11.21-.18.3-.3.54,0,0,0,.08-.06.08s0-.06,0-.05a1.42,1.42,0,0,1-.08.18s0,0,0,.05-.07.24-.11.36a2,2,0,0,1-.1.21s0,.07,0,.17a1.35,1.35,0,0,0,0,.46s-.07.19-.05.17c0,.15.08.24.09.43,0,0,0,.06,0,.15s0,.11.05.16.1.07.16.08.06,0,.09,0a.69.69,0,0,0,.31-.17c.1-.07.21-.17.29-.22s0,0,.06-.07l0,0c.08-.07.12-.06.18-.1l.12-.12c.07,0,.13,0,.19-.09s.24-.2.35-.26.08,0,.16-.16a1.6,1.6,0,0,1,.07-.19c.05,0,0,.1.13-.1s0-.14.11-.28S32.93,47.66,32.89,47.65Zm0-.07c0-.1,0,0,0,0S32.9,47.59,32.9,47.58Z" fill-rule="evenodd"/><path d="M29.5,47.63a1.42,1.42,0,0,0,0-.24,1.15,1.15,0,0,0-.06-.25s0-.15,0-.18,0,0-.05,0a.46.46,0,0,0-.05-.14s0,0-.06-.05l-.07-.1s0,0-.07-.11c0,.1-.1,0-.16,0s-.24,0-.37,0a.7.7,0,0,0-.38,0,.88.88,0,0,0-.38.36c-.08.16-.2.25-.24.41s0,0,0,.09a.43.43,0,0,0,0,.12c0,.05,0,.05,0,.09a1,1,0,0,0,.08.29c0,.1.09.2.11.27a5,5,0,0,0,.38.48s.06.07.06.08-.06,0-.05,0l.15.13s-.05,0,0,.05l.29.23.17.16s.06,0,.14.11l.34.28.12.12a2.11,2.11,0,0,1,.23.3l.08.11s0,.09.06.12,0,0,0,0,0,0,0,0a.79.79,0,0,1-.15-.22,1.83,1.83,0,0,1-.11-.29l0-.09v0a.49.49,0,0,1,0-.15l0-.15a.42.42,0,0,1,0-.16,1.18,1.18,0,0,1,.05-.37,1,1,0,0,0,0-.21,1.56,1.56,0,0,1,0-.2s0,.09.06-.14,0-.14,0-.3S29.54,47.63,29.5,47.63Zm0-.07c0-.1,0,0,0,0S29.49,47.57,29.49,47.56Z" fill-rule="evenodd"/><path d="M29.46,68.51s0-.09.05-.16,0-.33,0-.53,0-.2,0-.3v-.3c0-.1,0-.2,0-.29s0-.25,0-.38l0-.4a1.82,1.82,0,0,1,0-.41c0-.31,0-.61,0-.92,0-.73,0-1.46,0-2.16s0-1.51,0-2.14c0-.81,0-2.14,0-3s0-1.82,0-2.58c0-.18,0-.36,0-.52l0-.27c0-.18,0-.35,0-.52s0-.64-.05-1,0-.55-.06-.87-.07-.54-.12-.75,0-.14,0-.24,0-.13,0-.24,0,0,0-.09,0-.16,0-.14-.05.18-.08.24,0-.11,0-.11a.48.48,0,0,1,0,.21c0,.39-.08.9-.09,1.24,0,0,0,0,0,.07,0,.57,0,1.55-.07,2.27a2,2,0,0,1,0,.29c0,.32,0,.62,0,.92,0,.55,0,1.08,0,1.65,0,.29,0,.58,0,.87,0,.71,0,1.43.05,2.12s.05,1.19.06,1.74c0,.15,0,.16,0,.27a1.21,1.21,0,0,1,0,.19c0,.43,0,.78,0,1.19l0,.6,0,1.36c0,.67.06,1.37.07,2.09a6.44,6.44,0,0,0,.05.82s0-.07,0,0a4.63,4.63,0,0,0,0,.76s0-.07.06,0A3.15,3.15,0,0,0,29.46,68.51Zm0-.16s0,.06,0,.11S29.47,68.36,29.48,68.35Z" fill-rule="evenodd"/><path d="M31.57,65s0-.08,0-.13a2.81,2.81,0,0,0,.05-.45c0-.08,0-.16,0-.24s0-.17,0-.25l0-.24c0-.1,0-.21,0-.32s0-.22,0-.33a1.83,1.83,0,0,1,0-.34,6.4,6.4,0,0,1,0-.76c0-.61,0-1.21,0-1.8s0-1.25,0-1.77c0-.68,0-1.78,0-2.5s0-1.5,0-2.13c0-.15,0-.3,0-.43s0-.15,0-.23,0-.29,0-.43l-.06-.79c0-.25,0-.45-.05-.72s-.07-.45-.13-.62a1.27,1.27,0,0,0,0-.2,1.33,1.33,0,0,0,0-.2s0,0,0-.07,0-.14,0-.12-.05.15-.07.2,0-.09-.05-.1a.36.36,0,0,1,0,.18,10,10,0,0,0-.09,1s0,0,0,.06c0,.47,0,1.28-.07,1.88a1.71,1.71,0,0,1,0,.25c0,.26,0,.51,0,.76,0,.46,0,.89,0,1.37v.72c0,.59,0,1.18.06,1.75s0,1,.06,1.45a1.18,1.18,0,0,0,0,.22v.16c0,.36,0,.65,0,1,0,.17,0,.33,0,.5,0,.37,0,.75,0,1.13,0,.55.06,1.13.08,1.73a6.56,6.56,0,0,0,0,.68s0-.06,0,0a3.17,3.17,0,0,0,0,.63s0-.06.06,0A3,3,0,0,0,31.57,65Zm0-.14s0,.05,0,.09S31.58,64.9,31.58,64.88Z" fill-rule="evenodd"/><path d="M23.78,71.92s0,0,.07,0l.19-.09.1,0,.1-.06.1,0,.12-.07.13-.07a.28.28,0,0,1,.13-.07A1.26,1.26,0,0,1,25,71.3c.23-.15.45-.3.67-.43l.67-.38.95-.55c.28-.16.59-.3.84-.42l.17-.08s.05,0,.08-.06l.17-.08.31-.17a2.69,2.69,0,0,1,.29-.16c.06-.07.17-.12.22-.19s.05,0,.09,0,.05,0,.08,0,0,0,0,0,.06,0,.05,0-.08,0-.11,0,0,0,0,0-.05,0-.09,0a2.26,2.26,0,0,0-.47,0s0,0,0,0c-.21,0-.56.15-.83.22l-.12,0c-.11,0-.22.07-.33.11a4.92,4.92,0,0,0-.58.26l-.29.14c-.24.14-.47.28-.69.43l-.54.39s0,.05-.07.07l-.06,0-.36.28-.17.15c-.17.12-.26.2-.4.31l-.59.53a1.14,1.14,0,0,0-.22.22s0,0,0,0-.16.11-.2.2,0,0,0,0S23.68,72,23.78,71.92Zm0,0s0,0,0,0S23.83,71.9,23.83,71.9Z" fill-rule="evenodd"/><path d="M40.19,72.49a.15.15,0,0,0,0-.14,2.94,2.94,0,0,0-.25-.26s-.09-.12-.14-.16-.12-.06-.17-.1a1.92,1.92,0,0,0-.15-.14,2.39,2.39,0,0,1-.22-.12L39,71.43c-.07,0-.18-.07-.23-.14a3.19,3.19,0,0,1-.57-.2c-.46-.16-.91-.27-1.33-.39l-1.24-.36c-.47-.12-1.18-.35-1.65-.52a3.3,3.3,0,0,1-.59-.28.87.87,0,0,1-.31-.34,2.2,2.2,0,0,0-.15-.26l-.11-.12c-.06-.09-.09-.19-.14-.27s-.21-.33-.32-.49a3.4,3.4,0,0,1-.28-.45c-.14-.1-.24-.27-.38-.35s-.06-.07-.08-.13a.4.4,0,0,0,0-.15s-.07,0-.09,0,0-.1,0-.08-.07.14-.11.19-.06-.06-.11,0,0,.08,0,.15a3.37,3.37,0,0,0,.08.81s-.08,0,0,.06c.07.36.27,1,.41,1.4a.49.49,0,0,1,0,.2c.12.21.12.35.28.63a2.55,2.55,0,0,0,1.12.89c.18.08.34.16.53.23a6.7,6.7,0,0,0,1.34.37l1.1.17a1.07,1.07,0,0,0,.18,0l.11,0c.28,0,.48.08.73.11l.37,0c.27,0,.53.11.79.17a8.66,8.66,0,0,1,1.21.36,1.58,1.58,0,0,0,.47.17s0-.07.05-.06.24.21.42.22,0-.07.06-.11S40.37,72.6,40.19,72.49Zm-.07-.08s0,0,.06,0S40.13,72.41,40.12,72.41Z" fill-rule="evenodd"/><path d="M32,43.45c.1.06.24,0,.35,0a4.07,4.07,0,0,0,.7-.49,4.1,4.1,0,0,0,.41-.26c.12-.09.2-.23.31-.33s.28-.19.38-.28.25-.3.38-.44l.44-.44c.14-.14.25-.38.45-.44a5.4,5.4,0,0,1,.81-1.13c.67-.9,1.25-1.82,1.87-2.68s1.32-1.86,1.8-2.66c.64-1,1.61-2.8,2.19-4s1.27-2.41,1.73-3.47c.11-.24.26-.48.34-.7s0-.29.09-.42.23-.48.32-.71a11.87,11.87,0,0,0,.43-1.4c.12-.46.19-.84.35-1.31A9,9,0,0,0,45.23,21c.08-.16,0-.24.05-.39s.13-.17.16-.35-.16-.08-.16-.18.07-.26,0-.21-.27.21-.42.25-.08-.16-.19-.18c0,.16-.11.11-.23.17a10.24,10.24,0,0,0-1.09,1.4c-.05.06-.16-.11-.2,0-.47.67-1.2,1.91-1.86,2.75a.88.88,0,0,1-.33.31,8.37,8.37,0,0,1-.77,1.11c-.46.68-.81,1.36-1.23,2.1-.21.37-.44.72-.64,1.1-.5.93-1,1.88-1.39,2.82s-.72,1.62-1.09,2.34a2.73,2.73,0,0,0-.14.39,1.92,1.92,0,0,1-.12.25c-.27.59-.55,1-.82,1.57-.14.27-.22.56-.36.82-.31.6-.67,1.18-1,1.75-.49.87-.93,1.82-1.5,2.73a3.85,3.85,0,0,0-.57,1.07c0,.06.17,0,.13.16-.26.38-.55.52-.63,1,.12.1.17,0,.24.18C31.35,43.76,31.66,43.84,32,43.45Zm.22-.15c.06.09-.08.05-.11.13S32.16,43.31,32.19,43.3Z" fill-rule="evenodd"/><g opacity="0.4"><path d="M10.55,20.33c1.66,1.6,2.21,3.82,3.6,5.65C17.9,30.89,21.57,36,25,41.14a13.86,13.86,0,0,0,3.64,3.48,1.37,1.37,0,0,0,.88.31,6.12,6.12,0,0,0,1.83-.43c2.57-2.11,4.25-4.64,6.42-7.16,1.42-1.65,1.95-3.24,3.1-5.09,2.13-3.43,4.8-7.3,6.79-12.5l-12.24.16a61.25,61.25,0,0,0-7,.36c-.89.11-1.77.26-2.66.35a44.53,44.53,0,0,1-8.08-.11l-2.25-.17" fill="#d1edde"/></g></svg>