<svg xmlns="http://www.w3.org/2000/svg" viewBox="0 0 60 80"><title>illo-bev-olives</title><path d="M21.86,6.83a2.56,2.56,0,0,1,1.32-2.09A6.07,6.07,0,0,1,25.65,4,6.24,6.24,0,0,1,28,4.09a5.82,5.82,0,0,1,1.56.77,6.2,6.2,0,0,1,1.79,1.63,3,3,0,0,1,.53,2.31,3,3,0,0,1-1.5,1.87,6.56,6.56,0,0,1-2.34.71,8.49,8.49,0,0,1-3.37-.07,4.42,4.42,0,0,1-1.29-.54A3.64,3.64,0,0,1,21.8,7" fill="#8ba53a"/><path d="M21.57,8s0,.15,0,.26a3.11,3.11,0,0,0,.15.84,3.39,3.39,0,0,0,.15.45c.07.14.16.28.24.42a4.15,4.15,0,0,0,.27.41,3,3,0,0,0,.44.44,3.56,3.56,0,0,0,.53.41c.18.11.44.22.59.3a7.06,7.06,0,0,0,1.44.36,10.71,10.71,0,0,0,3.36-.16,6.45,6.45,0,0,0,1.66-.52,4,4,0,0,0,1.38-1.12,3,3,0,0,0,.55-2.49A4.23,4.23,0,0,0,31,5.44a9.84,9.84,0,0,0-1.7-1.22,4.68,4.68,0,0,0-1.91-.63,5.81,5.81,0,0,0-.83,0l-.42,0-.79.1a7.19,7.19,0,0,0-1.43.38,3.93,3.93,0,0,0-1.2.69,2.72,2.72,0,0,0-.65,1,1.43,1.43,0,0,0-.13.36,1.44,1.44,0,0,0-.11.35c0,.09,0,0,0,.14s0,.24,0,.2.07-.26.12-.33,0,.15,0,.16c0-.21,0-.16.09-.28a2.71,2.71,0,0,1,1.06-1.28c.06,0,0,0,.11,0a6.76,6.76,0,0,1,3.1-.7,2.62,2.62,0,0,1,.42,0,3.77,3.77,0,0,1,1.2.2,7.8,7.8,0,0,1,2,1.17,4.72,4.72,0,0,1,.84.83,2.49,2.49,0,0,1,.5,2.51,3,3,0,0,1-1.66,1.53l-.35.15-.26.08a10.31,10.31,0,0,1-1.71.33c-.29,0-.58.07-.87.08a6.42,6.42,0,0,1-1.95-.21,3.46,3.46,0,0,1-2.3-1.77,4.7,4.7,0,0,1-.39-1.12c0-.05,0,.1-.05,0a5.33,5.33,0,0,1,0-1.14s-.05.1-.07,0A2.24,2.24,0,0,0,21.57,8Zm0,.26s0-.09,0-.17S21.58,8.22,21.58,8.25Z" fill-rule="evenodd"/><path d="M39.64,7.61a2.54,2.54,0,0,1,2.46-.29,6.14,6.14,0,0,1,2.11,1.47,6,6,0,0,1,1.41,1.83,5.42,5.42,0,0,1,.4,1.69,6.42,6.42,0,0,1-.14,2.43A2.74,2.74,0,0,1,42,16.62a6.47,6.47,0,0,1-2-1.36,8.65,8.65,0,0,1-2.08-2.66,4.57,4.57,0,0,1-.39-1.34,3.66,3.66,0,0,1,1.95-3.59" fill="#8ba53a"/><path d="M38.56,8.12s-.14.06-.22.14a3.07,3.07,0,0,0-.55.65,3.94,3.94,0,0,0-.26.4c-.07.14-.12.3-.18.45a4.75,4.75,0,0,0-.14.46,4.05,4.05,0,0,0-.07.62,3.72,3.72,0,0,0,0,.67c0,.22.1.48.13.66a8.13,8.13,0,0,0,.63,1.33A10.87,10.87,0,0,0,40.17,16a6.37,6.37,0,0,0,1.46,1,4,4,0,0,0,1.74.37,3,3,0,0,0,2.28-1.15,4.2,4.2,0,0,0,.84-2.36,9.09,9.09,0,0,0-.13-2.1,4.56,4.56,0,0,0-.72-1.88,4.34,4.34,0,0,0-.51-.64c-.1-.11-.2-.2-.3-.3s-.39-.38-.58-.55a6.86,6.86,0,0,0-1.19-.87A4.22,4.22,0,0,0,41.76,7a2.62,2.62,0,0,0-1.16.11,1.27,1.27,0,0,0-.36.12,1.59,1.59,0,0,0-.35.14c-.07,0,0,0-.08.11s-.21.13-.16.13.24-.11.33-.12-.11.1-.1.13a.43.43,0,0,1,.27-.11,2.68,2.68,0,0,1,1.66,0c.07,0,0,0,.09.07a6.7,6.7,0,0,1,2.5,2,2.42,2.42,0,0,1,.24.33A3.42,3.42,0,0,1,45.25,11a7.7,7.7,0,0,1,.35,2.26,5.08,5.08,0,0,1-.12,1.18,2.51,2.51,0,0,1-1.63,2,3.06,3.06,0,0,1-2.23-.33l-.34-.18-.23-.15a11,11,0,0,1-1.33-1.11c-.21-.21-.42-.41-.62-.63A6.49,6.49,0,0,1,38,12.34,3.43,3.43,0,0,1,38,9.43a4.65,4.65,0,0,1,.62-1s-.09.05,0-.07a5.33,5.33,0,0,1,.89-.7s-.11,0-.06,0A2.57,2.57,0,0,0,38.56,8.12Zm-.19.17s.06-.07.11-.13S38.39,8.27,38.37,8.29Z" fill-rule="evenodd"/><path d="M36.57,3.33a2.56,2.56,0,0,1,2.37.74,6.16,6.16,0,0,1,1.32,2.2,5.93,5.93,0,0,1,.53,2.25,5.58,5.58,0,0,1-.33,1.71,6.12,6.12,0,0,1-1.11,2.15,2.74,2.74,0,0,1-4.29.15,6.38,6.38,0,0,1-1.29-2.08A8.7,8.7,0,0,1,33,7.18a4.67,4.67,0,0,1,.19-1.39A3.66,3.66,0,0,1,36.4,3.31" fill="#8ba53a"/><path d="M35.37,3.35s-.15,0-.25,0a2.91,2.91,0,0,0-.77.36A2.8,2.8,0,0,0,34,4c-.12.1-.23.22-.34.33a2.83,2.83,0,0,0-.33.37,3.88,3.88,0,0,0-.31.53,3.48,3.48,0,0,0-.26.63c-.06.2-.09.48-.14.65a8,8,0,0,0,0,1.47,11,11,0,0,0,1,3.21,5.86,5.86,0,0,0,.94,1.47A3.92,3.92,0,0,0,36,13.73a3,3,0,0,0,2.55-.11,4.28,4.28,0,0,0,1.74-1.81,10.23,10.23,0,0,0,.73-2,4.46,4.46,0,0,0,.12-2,5.5,5.5,0,0,0-.2-.8c0-.14-.11-.26-.16-.39s-.2-.51-.3-.74a7,7,0,0,0-.73-1.28,4.14,4.14,0,0,0-1-1,2.88,2.88,0,0,0-1.11-.38,2.73,2.73,0,0,0-.38,0,2.16,2.16,0,0,0-.37,0c-.09,0,0,0-.12.06s-.24,0-.2.06.27,0,.35,0-.14,0-.15.07a.67.67,0,0,1,.3,0,2.83,2.83,0,0,1,1.51.7c0,.05-.05,0,0,.09a6.78,6.78,0,0,1,1.47,2.82,1.92,1.92,0,0,1,.09.41,3.47,3.47,0,0,1,.12,1.22,7.88,7.88,0,0,1-.61,2.21,5.12,5.12,0,0,1-.59,1,2.5,2.5,0,0,1-2.29,1.14,3,3,0,0,1-1.91-1.21l-.24-.31-.14-.22a9.86,9.86,0,0,1-.76-1.57c-.11-.27-.22-.54-.31-.82A6.7,6.7,0,0,1,33.17,7,3.46,3.46,0,0,1,34.29,4.3a5.44,5.44,0,0,1,1-.66s-.1,0,0-.06a4.89,4.89,0,0,1,1.1-.27s-.11,0,0-.07A2.31,2.31,0,0,0,35.37,3.35Zm-.24.07s.09,0,.16-.06S35.16,3.42,35.13,3.42Z" fill-rule="evenodd"/><path d="M34,6.46l0,.09.38-.67-.07.06,1.06-.44h-.1l.76.21-.08,0,.54.53,0-.08.15,1.15V7.18l-.38.66.06-.07-.66.39.1,0h-.8l-.18-.08-.54-.54-.09-.38a1.5,1.5,0,1,0,3,0,1.91,1.91,0,0,0-1.3-1.88,1.71,1.71,0,0,0-2.1,1.12,1.66,1.66,0,1,0,3.2.87,1.5,1.5,0,0,0-1-1.84,1.53,1.53,0,0,0-1.84,1Z" fill="#d14b4b"/><path d="M24,24.5a2.53,2.53,0,0,0-1.42-2,6.12,6.12,0,0,0-2.5-.59,6.18,6.18,0,0,0-2.31.18,5.63,5.63,0,0,0-1.52.83,6.22,6.22,0,0,0-1.71,1.72A3,3,0,0,0,14.15,27a3,3,0,0,0,1.59,1.79,6.63,6.63,0,0,0,2.37.6,8.63,8.63,0,0,0,3.36-.23,4.46,4.46,0,0,0,1.26-.61,3.67,3.67,0,0,0,1.38-3.84" fill="#8ba53a"/><path d="M24.06,25.64s0,.13-.07.22a4,4,0,0,1-.21.72,2.53,2.53,0,0,1-.18.37,2.43,2.43,0,0,1-.2.35,2.1,2.1,0,0,1-.25.31,3,3,0,0,1-.35.37,2.63,2.63,0,0,1-.44.3,2,2,0,0,1-.49.24,4.37,4.37,0,0,1-1.22.35,9.7,9.7,0,0,1-3.09-.05A4.07,4.07,0,0,1,15,27.61a2,2,0,0,1-.48-1.69,3.47,3.47,0,0,1,.91-1.75A8.54,8.54,0,0,1,16.93,23a3.82,3.82,0,0,1,1.55-.65,6.08,6.08,0,0,1,.71-.07l.39,0c.26,0,.52,0,.76,0a8.57,8.57,0,0,1,1.36.16,3.52,3.52,0,0,1,1.13.45,3.17,3.17,0,0,1,.82.67,3.49,3.49,0,0,1,.18.31,2.31,2.31,0,0,1,.1.34c0,.08.05,0,.07.12s0,.24,0,.2,0-.27,0-.37.06.16.08.17a1.84,1.84,0,0,1,0-.35A2.78,2.78,0,0,0,23,22.36c-.07-.05.05,0-.09-.1a4.65,4.65,0,0,0-1.62-.6,15.57,15.57,0,0,0-1.83-.21l-.47,0a5,5,0,0,0-1.49.26,7.74,7.74,0,0,0-2.21,1.42,5.92,5.92,0,0,0-.94,1.05A3.31,3.31,0,0,0,14,27.61a3.82,3.82,0,0,0,2.25,1.71c.22.07.26.07.42.11l.29.06a11.68,11.68,0,0,0,1.82.18c.31,0,.61,0,.92,0a7.3,7.3,0,0,0,2.06-.4A3.83,3.83,0,0,0,24,27.07a3.09,3.09,0,0,0,.25-1.22c0-.05,0,.1,0-.05a2.4,2.4,0,0,0-.14-1.13s0,.11-.06,0A6.48,6.48,0,0,1,24.06,25.64Zm0,.23s0-.08,0-.15S24,25.85,24,25.87Z" fill-rule="evenodd"/><path d="M20.46,23.3a1.73,1.73,0,0,0-.63,2.3,1.67,1.67,0,1,0,2.86-1.71,1.89,1.89,0,0,0-2.19-.79,1.5,1.5,0,0,0,.8,2.9h-.41l-.66-.39-.11-.15-.2-.76v.1l.21-.76,0,.08.53-.54-.08.05.76-.21h-.1l1.06.44-.07-.06.38.66,0-.09v.8l0-.09L21.9,26,22,25.9a1.56,1.56,0,0,0,.54-2.06,1.51,1.51,0,0,0-2.05-.54Z" fill="#d14b4b"/><path d="M37.1,11.26a2.55,2.55,0,0,1,2.38.68,6.3,6.3,0,0,1,1.37,2.17,5.91,5.91,0,0,1,.59,2.24,5.53,5.53,0,0,1-.29,1.71,6.23,6.23,0,0,1-1.06,2.18,2.74,2.74,0,0,1-4.29.25,6.55,6.55,0,0,1-1.34-2,8.6,8.6,0,0,1-.88-3.25,4.64,4.64,0,0,1,.16-1.39,3.67,3.67,0,0,1,3.18-2.56" fill="#8ba53a"/><path d="M35.9,11.3s-.15,0-.25,0a3,3,0,0,0-.77.38,4.73,4.73,0,0,0-.39.28c-.11.1-.22.22-.33.34a3.52,3.52,0,0,0-.32.37,4.1,4.1,0,0,0-.3.55,3.41,3.41,0,0,0-.24.63c-.06.2-.09.48-.13.65A7.89,7.89,0,0,0,33.23,16a10.84,10.84,0,0,0,1.1,3.19,6.18,6.18,0,0,0,1,1.44,3.89,3.89,0,0,0,1.46,1,3,3,0,0,0,2.54-.17A4.2,4.2,0,0,0,41,19.64a9.32,9.32,0,0,0,.69-2,4.43,4.43,0,0,0,.07-2,5.3,5.3,0,0,0-.22-.79,3.52,3.52,0,0,0-.17-.39c-.11-.26-.2-.5-.31-.73a6.62,6.62,0,0,0-.77-1.27,4,4,0,0,0-1-1,2.66,2.66,0,0,0-1.12-.35,1.2,1.2,0,0,0-.37,0,2.28,2.28,0,0,0-.37,0c-.09,0,0,0-.13.07s-.24,0-.19.06.27,0,.35,0-.14.05-.15.07c.21,0,.17,0,.3,0a2.75,2.75,0,0,1,1.52.66c0,.05-.05,0,.06.09a7,7,0,0,1,1.54,2.79,2.72,2.72,0,0,1,.09.4A3.3,3.3,0,0,1,41,16.52a7.55,7.55,0,0,1-.56,2.22,5.18,5.18,0,0,1-.56,1A2.51,2.51,0,0,1,37.58,21a3,3,0,0,1-1.93-1.17l-.25-.29-.15-.23a10.28,10.28,0,0,1-.79-1.55,7.22,7.22,0,0,1-.33-.81A6.7,6.7,0,0,1,33.78,15a3.49,3.49,0,0,1,1.06-2.71,4.54,4.54,0,0,1,1-.68s-.11,0,0-.06a4.6,4.6,0,0,1,1.09-.3s-.11,0,0-.07A2.54,2.54,0,0,0,35.9,11.3Zm-.24.08s.09,0,.16-.06S35.69,11.38,35.66,11.38Z" fill-rule="evenodd"/><path d="M47.34,23.39A2.56,2.56,0,0,0,49,21.56,6.18,6.18,0,0,0,49,19a5.82,5.82,0,0,0-.68-2.21,5.5,5.5,0,0,0-1.15-1.31,6.13,6.13,0,0,0-2-1.29,3,3,0,0,0-2.37.11,3,3,0,0,0-1.4,1.94,6.72,6.72,0,0,0-.06,2.45,8.47,8.47,0,0,0,1,3.23A4.55,4.55,0,0,0,43.14,23a3.67,3.67,0,0,0,4.06.5" fill="#8ba53a"/><path d="M46.23,23.66s-.13,0-.23,0a3.23,3.23,0,0,1-.74,0c-.14,0-.27-.06-.4-.09l-.39-.12a3,3,0,0,1-.36-.18,3.28,3.28,0,0,1-.43-.26,2.69,2.69,0,0,1-.39-.36,2.13,2.13,0,0,1-.34-.43,4,4,0,0,1-.61-1.11,10,10,0,0,1-.64-3,4.1,4.1,0,0,1,.63-2.73,2.06,2.06,0,0,1,1.54-.84,3.38,3.38,0,0,1,1.91.51,7.57,7.57,0,0,1,1.5,1.15,3.88,3.88,0,0,1,1,1.37,6.69,6.69,0,0,1,.22.68c0,.13.08.25.11.38s.1.5.14.74a9.23,9.23,0,0,1,.14,1.36,3.33,3.33,0,0,1-.2,1.2,2.64,2.64,0,0,1-.47.95,1.52,1.52,0,0,1-.26.25l-.31.17c-.07,0,0,.05-.1.09s-.23.06-.18.08.27,0,.36-.05-.14.09-.14.12a2,2,0,0,1,.33-.11,2.74,2.74,0,0,0,1.3-1.48c0-.08,0,.05.08-.11a4.64,4.64,0,0,0,.22-1.71,14.43,14.43,0,0,0-.2-1.83l-.08-.46a5.05,5.05,0,0,0-.58-1.4,7.64,7.64,0,0,0-1.88-1.84,5.62,5.62,0,0,0-1.22-.7,3.31,3.31,0,0,0-3.44.44,3.82,3.82,0,0,0-1.18,2.56,3.46,3.46,0,0,0,0,.44v.3a12.92,12.92,0,0,0,.23,1.82c.06.3.14.59.22.89a7.76,7.76,0,0,0,.84,1.91A3.82,3.82,0,0,0,44.84,24a3,3,0,0,0,1.24,0c.06,0-.1,0,0-.05a2.67,2.67,0,0,0,1.08-.39s-.12,0-.06,0A5.28,5.28,0,0,1,46.23,23.66Zm-.23,0s.09,0,.16,0S46,23.68,46,23.68Z" fill-rule="evenodd"/><path d="M47.69,19.6a1.73,1.73,0,0,0-2.38,0,1.66,1.66,0,1,0,2.37,2.33,1.88,1.88,0,0,0,.22-2.31,1.5,1.5,0,1,0-2.59,1.51l-.11-.38.21-.75.11-.15.66-.39-.09,0h.8l-.09,0,.66.38-.06-.07.44,1.06v-.1l-.2.76,0-.09-.54.54.09,0-.76.21h.09l-1.06-.44.08.06a1.54,1.54,0,0,0,2.12,0,1.52,1.52,0,0,0,0-2.12Z" fill="#d14b4b"/><path d="M15.41,16a2.56,2.56,0,0,0,2.2,1.14,6.06,6.06,0,0,0,2.49-.62,6.09,6.09,0,0,0,2-1.22,5.44,5.44,0,0,0,1-1.44,6.12,6.12,0,0,0,.73-2.31,3,3,0,0,0-.7-2.27,3,3,0,0,0-2.23-.86,6.56,6.56,0,0,0-2.38.55,8.57,8.57,0,0,0-2.88,1.75,4.42,4.42,0,0,0-.85,1.12,3.66,3.66,0,0,0,.54,4" fill="#8ba53a"/><path d="M14.87,15s0-.13,0-.22a4.59,4.59,0,0,1-.15-.74c0-.13,0-.28,0-.41a2.67,2.67,0,0,1,0-.4,3.33,3.33,0,0,1,.08-.39,3.4,3.4,0,0,1,.15-.49,2.64,2.64,0,0,1,.25-.47,1.87,1.87,0,0,1,.33-.43,4,4,0,0,1,.92-.88,10.17,10.17,0,0,1,2.76-1.37A4.11,4.11,0,0,1,22,9.07a2,2,0,0,1,1.2,1.28,3.42,3.42,0,0,1,0,2,8.09,8.09,0,0,1-.75,1.74,3.85,3.85,0,0,1-1.07,1.29,6.17,6.17,0,0,1-.61.39l-.33.2c-.23.12-.47.22-.69.31a8,8,0,0,1-1.28.48,3.07,3.07,0,0,1-1.21.12,3,3,0,0,1-1-.22,1.72,1.72,0,0,1-.3-.19,2.11,2.11,0,0,1-.25-.26c-.06-.06-.05,0-.11-.07s-.12-.21-.12-.16.09.26.13.34-.12-.11-.15-.1a2,2,0,0,1,.19.28,2.77,2.77,0,0,0,1.76.89c.09,0,0,.05.13.05a5,5,0,0,0,1.71-.21,14.34,14.34,0,0,0,1.72-.66c.16-.07.31-.15.43-.19a5.13,5.13,0,0,0,1.2-.91,7.71,7.71,0,0,0,1.32-2.28,6,6,0,0,0,.36-1.36,3.34,3.34,0,0,0-1.28-3.23,3.86,3.86,0,0,0-2.78-.49,3.53,3.53,0,0,0-.43.1l-.28.08a11.48,11.48,0,0,0-1.71.67,9.21,9.21,0,0,0-.81.45,7.3,7.3,0,0,0-1.64,1.29,3.81,3.81,0,0,0-1,3,3.09,3.09,0,0,0,.34,1.2c0,.05,0-.1.06,0a2.44,2.44,0,0,0,.64.94s0-.1,0-.07A7.18,7.18,0,0,1,14.87,15Zm-.08-.22s0,.08.06.15S14.8,14.76,14.79,14.73Z" fill-rule="evenodd"/><path d="M19.17,15.33a1.68,1.68,0,0,0-.42-2.18,1.65,1.65,0,0,0-2.41.47A1.71,1.71,0,0,0,17,15.93a1.92,1.92,0,0,0,2.28-.39,1.5,1.5,0,1,0-2.12-2.12l.33-.2h.79l-.12,0,.66.39-.09-.09.44,1.06,0-.13-.2.76L19,15.1l-.9.68.09,0h-.8l.09,0-.66-.39.06.08L16.4,14.4l0,.09.2-.76,0,.09a1.54,1.54,0,0,0,.54,2,1.5,1.5,0,0,0,2.05-.54Z" fill="#d14b4b"/><path d="M39.14,39a2.51,2.51,0,0,1-1.65,1.84,6.09,6.09,0,0,1-2.55.29,5.88,5.88,0,0,1-2.27-.44,5.41,5.41,0,0,1-1.42-1,6.28,6.28,0,0,1-1.5-1.9,3,3,0,0,1-.14-2.37,3.08,3.08,0,0,1,1.79-1.6,6.56,6.56,0,0,1,2.42-.31,8.47,8.47,0,0,1,3.31.62,4.57,4.57,0,0,1,1.19.74,3.66,3.66,0,0,1,.91,4" fill="#8ba53a"/><path d="M39.62,37.9s.06-.14.07-.25a3,3,0,0,0,0-.85,2.43,2.43,0,0,0-.08-.47,3.57,3.57,0,0,0-.16-.46,2.94,2.94,0,0,0-.2-.44,2.79,2.79,0,0,0-.36-.51,3.56,3.56,0,0,0-.46-.49c-.16-.14-.4-.29-.53-.4a7.58,7.58,0,0,0-1.35-.59,11.2,11.2,0,0,0-3.35-.4,6.39,6.39,0,0,0-1.72.25,4,4,0,0,0-1.55.87,3,3,0,0,0-1,2.37,4.16,4.16,0,0,0,.93,2.33,9.48,9.48,0,0,0,1.48,1.49,4.62,4.62,0,0,0,1.78.93,5.4,5.4,0,0,0,.81.15c.15,0,.29,0,.43,0l.79,0a7.24,7.24,0,0,0,1.47-.13,4.68,4.68,0,0,0,1.3-.49,2.71,2.71,0,0,0,.8-.86,5.21,5.21,0,0,0,.36-.66c0-.08,0-.05,0-.13s.06-.24,0-.21-.11.25-.17.31,0-.15,0-.16a.51.51,0,0,1-.14.26,2.77,2.77,0,0,1-1.25,1.09c-.07,0,0,0-.11,0a7,7,0,0,1-3.18.17,2.09,2.09,0,0,1-.41-.09,3.33,3.33,0,0,1-1.15-.4A7.48,7.48,0,0,1,31,38.72a4.42,4.42,0,0,1-.69-.95,2.51,2.51,0,0,1-.09-2.56A3,3,0,0,1,32.08,34l.38-.09.26,0a11.3,11.3,0,0,1,1.74,0c.29,0,.58,0,.88.06a6.42,6.42,0,0,1,1.88.53,3.41,3.41,0,0,1,2,2.13,5,5,0,0,1,.2,1.17c0,.05,0-.11,0,0a4.57,4.57,0,0,1-.2,1.12s.07-.09.07,0A2.2,2.2,0,0,0,39.62,37.9Zm0-.25s0,.09,0,.17S39.65,37.67,39.66,37.65Z" fill-rule="evenodd"/><path d="M26.32,37.54a2.55,2.55,0,0,1,2.4-.6A6.11,6.11,0,0,1,31,38.14a5.92,5.92,0,0,1,1.63,1.64,5.8,5.8,0,0,1,.6,1.63,6.39,6.39,0,0,1,.17,2.42,2.73,2.73,0,0,1-3.59,2.35,6.74,6.74,0,0,1-2.19-1.1,8.73,8.73,0,0,1-2.39-2.38,4.67,4.67,0,0,1-.55-1.28,3.68,3.68,0,0,1,1.48-3.81" fill="#8ba53a"/><path d="M25.3,38.17s-.12.09-.19.17a3.12,3.12,0,0,0-.47.71,2.76,2.76,0,0,0-.2.43,2.49,2.49,0,0,0-.12.47,2.88,2.88,0,0,0-.09.48,3.24,3.24,0,0,0,0,.62,3,3,0,0,0,.11.67c0,.2.16.46.21.63a8.29,8.29,0,0,0,.79,1.25,11.21,11.21,0,0,0,2.54,2.21,6.29,6.29,0,0,0,1.56.76,3.9,3.9,0,0,0,1.77.15,3,3,0,0,0,2.12-1.41,4.22,4.22,0,0,0,.55-2.46,9.88,9.88,0,0,0-.39-2.06,4.45,4.45,0,0,0-1-1.77,4.53,4.53,0,0,0-.58-.58c-.12-.1-.23-.17-.35-.26L31,37.71a6.85,6.85,0,0,0-1.3-.72,3.93,3.93,0,0,0-1.34-.32,2.77,2.77,0,0,0-1.14.25,1.61,1.61,0,0,0-.35.16,1.79,1.79,0,0,0-.32.18c-.07.06,0,.06-.07.12s-.19.16-.14.15.23-.14.31-.16-.1.12-.09.14c.16-.14.15-.09.26-.14a2.67,2.67,0,0,1,1.65-.19c.07,0,0,0,.1,0a6.77,6.77,0,0,1,2.72,1.65,2.65,2.65,0,0,1,.29.3,3.53,3.53,0,0,1,.73,1,7.8,7.8,0,0,1,.63,2.21,5.84,5.84,0,0,1,0,1.18,2.54,2.54,0,0,1-1.37,2.16,3.1,3.1,0,0,1-2.26,0L29,45.53l-.25-.12a12.13,12.13,0,0,1-1.46-.94c-.23-.18-.46-.35-.68-.55a6.69,6.69,0,0,1-1.27-1.49,3.52,3.52,0,0,1-.44-2.88,6.07,6.07,0,0,1,.5-1.08s-.08.07,0-.06a4.65,4.65,0,0,1,.8-.8s-.11,0-.07,0A2.53,2.53,0,0,0,25.3,38.17Zm-.16.19s.06-.07.1-.13S25.15,38.34,25.14,38.36Z" fill-rule="evenodd"/><path d="M27.18,39.41l0,.1v-.8l0,.09.69-.9-.07.06.75-.21h-.09l.76.21-.08-.06.69.9,0-.09v.8l0-.09-.38.66.06-.07-.66.39-.2,0-.76-.21-.25-.27a1.5,1.5,0,1,0,2.59-1.52,1.94,1.94,0,0,0-2.08-1,1.66,1.66,0,1,0,2,1.15,1.5,1.5,0,0,0-1.84-1,1.52,1.52,0,0,0-1.05,1.84Z" fill="#d14b4b"/><path d="M26.73,8.76a2.55,2.55,0,0,1,2.4-.6,6.11,6.11,0,0,1,2.28,1.2A6.2,6.2,0,0,1,33,11a5.61,5.61,0,0,1,.6,1.63,6.4,6.4,0,0,1,.17,2.42,3,3,0,0,1-1.22,2,3.07,3.07,0,0,1-2.37.32A6.57,6.57,0,0,1,28,16.3a8.43,8.43,0,0,1-2.38-2.38,4.19,4.19,0,0,1-.56-1.28,3.66,3.66,0,0,1,1.48-3.8" fill="#8ba53a"/><path d="M25.71,9.4s-.12.08-.19.16a3.2,3.2,0,0,0-.47.72,2.11,2.11,0,0,0-.2.43,3.59,3.59,0,0,0-.12.47,3,3,0,0,0-.09.47,3.34,3.34,0,0,0,0,.63,3,3,0,0,0,.11.66c0,.21.16.46.21.63a8.29,8.29,0,0,0,.79,1.25A10.74,10.74,0,0,0,28.3,17a5.89,5.89,0,0,0,1.57.77,3.84,3.84,0,0,0,1.76.15,3,3,0,0,0,2.12-1.42,4.19,4.19,0,0,0,.55-2.45A9.76,9.76,0,0,0,33.91,12,4.49,4.49,0,0,0,33,10.24a5.29,5.29,0,0,0-.58-.58A3.79,3.79,0,0,0,32,9.41c-.22-.17-.42-.33-.63-.47a6.89,6.89,0,0,0-1.3-.73,4.46,4.46,0,0,0-1.34-.32,2.77,2.77,0,0,0-1.14.25,2.29,2.29,0,0,0-.35.16,1.9,1.9,0,0,0-.32.19c-.07.06,0,.06-.07.12s-.19.16-.14.15.23-.15.31-.16-.1.11-.09.14a.44.44,0,0,1,.26-.14,2.75,2.75,0,0,1,1.65-.2c.07,0,0,0,.1.06a6.85,6.85,0,0,1,2.72,1.64,3.89,3.89,0,0,1,.29.3,3.51,3.51,0,0,1,.73,1,7.83,7.83,0,0,1,.63,2.2,5.86,5.86,0,0,1,0,1.18A2.49,2.49,0,0,1,32,16.93a3,3,0,0,1-2.26,0l-.36-.14-.25-.12a10.09,10.09,0,0,1-1.46-.94,8.46,8.46,0,0,1-.68-.54,6.52,6.52,0,0,1-1.27-1.5,3.45,3.45,0,0,1-.43-2.87,5,5,0,0,1,.49-1.08s-.08.06,0-.06a5.12,5.12,0,0,1,.8-.81s-.11,0-.07,0A2.44,2.44,0,0,0,25.71,9.4Zm-.16.19s.06-.07.1-.14S25.57,9.57,25.55,9.59Z" fill-rule="evenodd"/><path d="M27.59,10.64l0,.09V9.94l0,.09.69-.9-.07,0,.75-.2h-.09l.76.2-.08,0,.69.89,0-.08v.79l0-.09-.38.67.06-.07-.66.38-.2,0-.76-.2L28,11.16A1.5,1.5,0,1,0,30.6,9.65a1.93,1.93,0,0,0-2.08-1,1.66,1.66,0,1,0,2,1.14,1.5,1.5,0,1,0-2.89.8Z" fill="#d14b4b"/><path d="M35.89,26.63a2.53,2.53,0,0,1-2.27,1,6.18,6.18,0,0,1-2.44-.81,5.88,5.88,0,0,1-1.87-1.36,5.37,5.37,0,0,1-.86-1.51,6.23,6.23,0,0,1-.56-2.36,2.74,2.74,0,0,1,3.16-2.9,6.72,6.72,0,0,1,2.34.73,8.79,8.79,0,0,1,2.74,2,4.53,4.53,0,0,1,.76,1.17,3.67,3.67,0,0,1-.85,4" fill="#8ba53a"/><path d="M36.79,25.83s.11-.1.17-.19a3.15,3.15,0,0,0,.35-.78,4,4,0,0,0,.13-.46c0-.16,0-.32,0-.48a4.09,4.09,0,0,0,0-.49,3.41,3.41,0,0,0-.11-.61,3.72,3.72,0,0,0-.22-.64c-.08-.2-.23-.43-.31-.59a8,8,0,0,0-1-1.1A10.72,10.72,0,0,0,33,18.72a6.1,6.1,0,0,0-1.66-.5,3.7,3.7,0,0,0-1.77.14,2.94,2.94,0,0,0-1.86,1.74,4.22,4.22,0,0,0-.14,2.51,9.25,9.25,0,0,0,.72,2,4.55,4.55,0,0,0,1.21,1.6,5.22,5.22,0,0,0,.68.47c.13.08.25.13.38.2l.7.36a6.86,6.86,0,0,0,1.4.5,3.92,3.92,0,0,0,1.38.1,2.82,2.82,0,0,0,1.08-.43,1.86,1.86,0,0,0,.31-.21,1.93,1.93,0,0,0,.29-.24c.06-.07,0-.06.06-.13s.15-.19.11-.17-.2.18-.29.21.08-.13.07-.15c-.14.16-.13.11-.23.18a2.78,2.78,0,0,1-1.6.46c-.07,0,0,0-.1,0a6.85,6.85,0,0,1-3-1.18,2.54,2.54,0,0,1-.33-.26,3.37,3.37,0,0,1-.88-.84,8,8,0,0,1-1-2.08,5.27,5.27,0,0,1-.22-1.16,2.55,2.55,0,0,1,1-2.36,3.07,3.07,0,0,1,2.24-.32l.38.08.26.08a10.75,10.75,0,0,1,1.59.69c.26.13.52.27.77.42a6.52,6.52,0,0,1,1.49,1.28A3.43,3.43,0,0,1,37,24.4a5.3,5.3,0,0,1-.31,1.15s.07-.08,0,.06a5.18,5.18,0,0,1-.66.92s.1-.05.07,0A2.43,2.43,0,0,0,36.79,25.83Zm.14-.21s0,.08-.08.15S36.91,25.64,36.93,25.62Z" fill-rule="evenodd"/><path d="M35.9,22.82l0-.09v.8l0-.1-.39.66.07-.06-1.06.44.09,0-.76-.2.09,0-.54-.54,0,.08-.15-1.15,0,.12.39-.67-.1.09.66-.38-.13,0h.8l.34.17a1.51,1.51,0,1,0-2.13,2.13,1.87,1.87,0,0,0,2.1.49A1.68,1.68,0,0,0,36,22.32a1.7,1.7,0,0,0-1.92-.8,1.67,1.67,0,0,0-1.1,2.1,1.54,1.54,0,0,0,1.84,1,1.5,1.5,0,0,0,1-1.84Z" fill="#d14b4b"/><path d="M24.48,38.44A2.53,2.53,0,0,1,22,38a6.29,6.29,0,0,1-1.57-2,6.1,6.1,0,0,1-.79-2.17A5.37,5.37,0,0,1,19.81,32a6.21,6.21,0,0,1,.86-2.27,3,3,0,0,1,1.95-1.34,3,3,0,0,1,2.29.7A6.78,6.78,0,0,1,26.44,31a8.64,8.64,0,0,1,1.17,3.16,4.38,4.38,0,0,1,0,1.4,3.68,3.68,0,0,1-2.94,2.84" fill="#8ba53a"/><path d="M25.67,38.29s.15,0,.24-.07a3.53,3.53,0,0,0,.73-.45c.12-.1.25-.2.36-.31a3.57,3.57,0,0,0,.3-.38,4.14,4.14,0,0,0,.28-.39,2.74,2.74,0,0,0,.25-.58,3.69,3.69,0,0,0,.18-.65c0-.21,0-.49.07-.66a8.57,8.57,0,0,0-.19-1.46,11.17,11.17,0,0,0-1.39-3.07,6.4,6.4,0,0,0-1.11-1.35,3.86,3.86,0,0,0-1.54-.87,3,3,0,0,0-2.52.4,4.22,4.22,0,0,0-1.52,2,9.41,9.41,0,0,0-.5,2,4.5,4.5,0,0,0,.12,2,4.59,4.59,0,0,0,.29.77c.06.14.14.25.2.38s.26.48.38.69a6.91,6.91,0,0,0,.88,1.19,4.23,4.23,0,0,0,1.09.86,3,3,0,0,0,1.15.25,1.5,1.5,0,0,0,.37,0,1.63,1.63,0,0,0,.37,0c.09,0,0-.05.12-.08s.24-.07.19-.08-.27,0-.36,0,.14-.06.15-.09a.54.54,0,0,1-.3,0,2.76,2.76,0,0,1-1.58-.51c-.05-.05.05,0-.06-.09a6.78,6.78,0,0,1-1.79-2.63,2.42,2.42,0,0,1-.14-.4,3.55,3.55,0,0,1-.26-1.19,8,8,0,0,1,.35-2.27A5.05,5.05,0,0,1,21,30.21a2.5,2.5,0,0,1,2.14-1.39,3,3,0,0,1,2,1l.27.27.17.21a11.43,11.43,0,0,1,.94,1.47c.14.26.28.51.4.78a6.58,6.58,0,0,1,.52,1.88,3.48,3.48,0,0,1-.8,2.8,4.68,4.68,0,0,1-.9.77s.11,0,0,.07a5.16,5.16,0,0,1-1.06.4s.12,0,.05.06A2.4,2.4,0,0,0,25.67,38.29Zm.23-.11s-.08,0-.15.09S25.87,38.19,25.9,38.18Z" fill-rule="evenodd"/><path d="M19.68,19.57a2.56,2.56,0,0,1,.09-2.47,6.19,6.19,0,0,1,1.78-1.86,6.2,6.2,0,0,1,2-1.11A5.58,5.58,0,0,1,25.31,14a6.23,6.23,0,0,1,2.38.51,3.06,3.06,0,0,1,1.62,1.73A3,3,0,0,1,29,18.61a6.58,6.58,0,0,1-1.66,1.79A8.49,8.49,0,0,1,24.34,22a4.29,4.29,0,0,1-1.38.18,3.65,3.65,0,0,1-3.25-2.47" fill="#8ba53a"/><path d="M20,20.73a.62.62,0,0,0,.11.23,3.46,3.46,0,0,0,.55.65c.12.11.24.22.36.31s.28.17.42.25.3.16.43.21a2.87,2.87,0,0,0,.61.16,3,3,0,0,0,.67.08c.21,0,.49,0,.66,0a8,8,0,0,0,1.42-.41,10.84,10.84,0,0,0,2.83-1.83,6.39,6.39,0,0,0,1.16-1.29,4,4,0,0,0,.64-1.66A3,3,0,0,0,29.09,15a4.2,4.2,0,0,0-2.21-1.2,9.37,9.37,0,0,0-2.09-.2,4.53,4.53,0,0,0-2,.42,6.64,6.64,0,0,0-.72.4l-.34.26-.63.48a7,7,0,0,0-1.05,1,3.87,3.87,0,0,0-.68,1.21,2.73,2.73,0,0,0-.08,1.16,3.79,3.79,0,0,0,.06.38,2.1,2.1,0,0,0,.09.36c0,.08.05,0,.09.1s.11.22.11.18-.07-.26-.07-.35.09.13.11.13c-.09-.2,0-.17-.06-.29a2.77,2.77,0,0,1,.27-1.64c0-.06,0,0,.08-.08a6.82,6.82,0,0,1,2.33-2.16,1.86,1.86,0,0,1,.37-.19,3.14,3.14,0,0,1,1.15-.44,7.65,7.65,0,0,1,2.29,0,5.29,5.29,0,0,1,1.14.29A2.51,2.51,0,0,1,29,16.77a3,3,0,0,1-.66,2.16l-.24.31-.18.2a10.1,10.1,0,0,1-1.31,1.14c-.23.18-.46.35-.71.51a6.62,6.62,0,0,1-1.78.8,3.5,3.5,0,0,1-2.89-.37,5.53,5.53,0,0,1-.9-.77s0,.1-.06,0a5.24,5.24,0,0,1-.55-1s0,.11-.06.05A2.57,2.57,0,0,0,20,20.73Zm.14.21s0-.08-.1-.14S20.14,20.92,20.15,20.94Z" fill-rule="evenodd"/><path d="M38.65,22.26A2.58,2.58,0,0,1,41.11,22a6.1,6.1,0,0,1,2.1,1.47,6,6,0,0,1,1.41,1.83A5.55,5.55,0,0,1,45,27a6.35,6.35,0,0,1-.13,2.42,3,3,0,0,1-1.47,1.87,3,3,0,0,1-2.39,0,6.92,6.92,0,0,1-2-1.37,8.5,8.5,0,0,1-2.07-2.66,4.42,4.42,0,0,1-.4-1.34,3.66,3.66,0,0,1,1.95-3.59" fill="#8ba53a"/><path d="M37.56,22.77s-.14.07-.21.14a2.83,2.83,0,0,0-.56.65c-.09.13-.18.26-.26.4s-.12.3-.17.45a3.49,3.49,0,0,0-.15.46,4.19,4.19,0,0,0-.07.63,3.76,3.76,0,0,0,0,.67c0,.21.11.48.13.65a8.24,8.24,0,0,0,.63,1.34,10.91,10.91,0,0,0,2.25,2.51,6.28,6.28,0,0,0,1.45.95,3.85,3.85,0,0,0,1.74.37,3,3,0,0,0,2.28-1.14,4.2,4.2,0,0,0,.84-2.37,9,9,0,0,0-.13-2.09,4.49,4.49,0,0,0-.71-1.88,6.14,6.14,0,0,0-.51-.65l-.31-.3c-.2-.19-.39-.38-.57-.54a6.85,6.85,0,0,0-1.2-.88,4.54,4.54,0,0,0-1.29-.49,3,3,0,0,0-1.17.11,1.69,1.69,0,0,0-.36.12,1.36,1.36,0,0,0-.34.14c-.08.05,0,.06-.09.11s-.2.14-.16.13.25-.11.34-.12-.12.1-.11.13c.18-.12.16-.07.27-.11a2.84,2.84,0,0,1,1.66,0c.07,0,0,0,.09.07a6.91,6.91,0,0,1,2.5,2,2.08,2.08,0,0,1,.25.34,3.34,3.34,0,0,1,.6,1.06,7.82,7.82,0,0,1,.35,2.27,4.56,4.56,0,0,1-.12,1.17,2.51,2.51,0,0,1-1.62,2,3.08,3.08,0,0,1-2.24-.32l-.34-.19-.23-.14a12.11,12.11,0,0,1-1.33-1.12c-.21-.2-.42-.4-.61-.62A6.48,6.48,0,0,1,37,27a3.45,3.45,0,0,1-.08-2.9,5.18,5.18,0,0,1,.63-1s-.1.05,0-.07a5.44,5.44,0,0,1,.89-.7s-.11,0-.06,0A2.31,2.31,0,0,0,37.56,22.77Zm-.19.17s.07-.06.12-.12Z" fill-rule="evenodd"/><path d="M12.81,13.82a2.55,2.55,0,0,0-2,1.5,6.15,6.15,0,0,0-.48,2.52,5.94,5.94,0,0,0,.26,2.3,5.66,5.66,0,0,0,.89,1.49,6.35,6.35,0,0,0,1.79,1.64,3,3,0,0,0,2.35.33,3,3,0,0,0,1.73-1.66,6.47,6.47,0,0,0,.5-2.39,8.42,8.42,0,0,0-.36-3.35A4.73,4.73,0,0,0,16.87,15,3.66,3.66,0,0,0,13,13.74" fill="#8ba53a"/><path d="M14,13.75s.13,0,.22.06a3.87,3.87,0,0,1,.73.18,2.48,2.48,0,0,1,.37.17,2.42,2.42,0,0,1,.36.18,2.05,2.05,0,0,1,.32.24,3,3,0,0,1,.38.34,2.59,2.59,0,0,1,.32.42,2.13,2.13,0,0,1,.26.49,4.58,4.58,0,0,1,.4,1.2,10.34,10.34,0,0,1,.07,3.09,4.12,4.12,0,0,1-1.11,2.56,2.06,2.06,0,0,1-1.67.55,3.41,3.41,0,0,1-1.79-.85A7.79,7.79,0,0,1,11.54,21a4,4,0,0,1-.71-1.52,6,6,0,0,1-.09-.71,2.58,2.58,0,0,1,0-.39c0-.26,0-.51,0-.75a8.74,8.74,0,0,1,.11-1.37,3.19,3.19,0,0,1,.41-1.14,3,3,0,0,1,.64-.85,2.61,2.61,0,0,1,.3-.2l.33-.11c.09,0,0,0,.12-.07s.24,0,.2,0-.28,0-.37,0,.15-.07.16-.1a1.71,1.71,0,0,1-.34.06A2.71,2.71,0,0,0,10.71,15c-.05.07,0-.06-.1.09a4.6,4.6,0,0,0-.53,1.63,13.56,13.56,0,0,0-.14,1.84c0,.18,0,.35,0,.47a5.28,5.28,0,0,0,.31,1.48,7.84,7.84,0,0,0,1.51,2.16,5.93,5.93,0,0,0,1.08.9,3.3,3.3,0,0,0,3.46.2,3.82,3.82,0,0,0,1.63-2.31A4.12,4.12,0,0,0,18,21a2.18,2.18,0,0,1,.05-.29,11.64,11.64,0,0,0,.11-1.84c0-.3,0-.61-.06-.91a7.14,7.14,0,0,0-.48-2,3.81,3.81,0,0,0-2.26-2.22,3,3,0,0,0-1.23-.2c-.06,0,.1,0-.05,0a2.66,2.66,0,0,0-1.13.18s.12,0,0,.06A6.11,6.11,0,0,1,14,13.75Zm.23,0s-.08,0-.15,0S14.16,13.77,14.18,13.77Z" fill-rule="evenodd"/><path d="M12,17.69a1.65,1.65,0,0,0,2.5-2.14,1.7,1.7,0,0,0-2.2-.37,1.87,1.87,0,0,0-.73,2.16,1.5,1.5,0,1,0,2.9-.8l-.12.69-.54.54.09-.05-.76.21h.1l-.76-.21.08,0L12,17.21l0,.09-.2-.76v.09l.2-.75L12,16l.89-.69-.09,0h.8l-.09,0,.66.38-.06-.07a1.51,1.51,0,0,0-2.12,0,1.53,1.53,0,0,0,0,2.12Z" fill="#d14b4b"/><path d="M38.49,30.85a2.56,2.56,0,0,0-1.42-2,6.12,6.12,0,0,0-2.51-.58,5.94,5.94,0,0,0-2.3.17,5.87,5.87,0,0,0-1.53.84A6.36,6.36,0,0,0,29,31a2.74,2.74,0,0,0,1.17,4.12,6.48,6.48,0,0,0,2.38.6,8.64,8.64,0,0,0,3.36-.23,4.43,4.43,0,0,0,1.26-.6A3.67,3.67,0,0,0,38.56,31" fill="#8ba53a"/><path d="M38.51,32a1.13,1.13,0,0,0-.07.22,4.18,4.18,0,0,1-.2.72c-.05.12-.13.24-.18.36s-.12.24-.2.36-.17.22-.25.31a3.91,3.91,0,0,1-.35.36,4.37,4.37,0,0,1-.44.31,2.23,2.23,0,0,1-.5.23,4,4,0,0,1-1.22.35,9.94,9.94,0,0,1-3.08,0A4.12,4.12,0,0,1,29.5,34,2,2,0,0,1,29,32.27a3.42,3.42,0,0,1,.91-1.76,8.17,8.17,0,0,1,1.46-1.21,4.08,4.08,0,0,1,1.54-.65c.24,0,.5,0,.72-.07l.39,0c.26,0,.52,0,.75,0a9.74,9.74,0,0,1,1.36.16,3.17,3.17,0,0,1,1.13.46,2.72,2.72,0,0,1,.83.67,3.49,3.49,0,0,1,.18.31c.05.12.05.18.1.33s0,0,.06.12,0,.24,0,.2,0-.27,0-.37,0,.16.08.17c0-.24,0-.2,0-.35a2.74,2.74,0,0,0-1.16-1.59c-.07-.05.06,0-.09-.1a4.8,4.8,0,0,0-1.61-.6,13.8,13.8,0,0,0-1.83-.2c-.17,0-.35,0-.47,0a5.36,5.36,0,0,0-1.49.26,7.43,7.43,0,0,0-2.21,1.43,5.57,5.57,0,0,0-.95,1A3.29,3.29,0,0,0,28.43,34a3.8,3.8,0,0,0,2.24,1.71,3,3,0,0,0,.42.11l.29.06a12,12,0,0,0,1.83.19c.31,0,.61,0,.92,0a7.17,7.17,0,0,0,2-.4,3.81,3.81,0,0,0,2.3-2.18,3,3,0,0,0,.26-1.22s0,.1,0,0A2.55,2.55,0,0,0,38.56,31s0,.11-.06,0A5.54,5.54,0,0,1,38.51,32Zm0,.22s0-.08,0-.15S38.48,32.19,38.48,32.21Z" fill-rule="evenodd"/><path d="M34.91,29.65a1.72,1.72,0,0,0-.62,2.29,1.66,1.66,0,1,0,2.85-1.71A1.87,1.87,0,0,0,35,29.45a1.5,1.5,0,1,0,.8,2.89h-.41l-.66-.39-.11-.15L34.37,31v.1l.2-.76,0,.09.54-.54L35,30l.76-.21h-.09l1.06.44-.08-.06.39.66,0-.09v.8l0-.09-.69.9.08-.06A1.54,1.54,0,0,0,37,30.19a1.51,1.51,0,0,0-2.05-.54Z" fill="#d14b4b"/><path d="M51,21.06a3.33,3.33,0,0,1,.79-.78,3.2,3.2,0,0,0,.37-.31l.2-.21.11-.14s.1-.16.07-.06c-.41,1.09.54,0,.64,0a11.91,11.91,0,0,1-.86,3.54c-1,1.82-2.21,3.42-3.37,5.27-2.58,4.08-5.13,8.74-8.16,12.87l-1.63,2.2-1.77,2.28c-.65.75-1.22,1.55-1.94,2.26-.36.36-.68.74-1.06,1.08l-1.19,1,.27-.54c0,1.1,0,2.17,0,3.21,0,1.47-.14,2.88-.15,4.34,0,3.11,0,6.61.11,9.76,0,1.15,0,2.28.08,3.35l-.25-.41,11.29,6h0a.53.53,0,0,1,.22.71.52.52,0,0,1-.41.27,83.86,83.86,0,0,1-13.73.18h.09l-2.51.19c-.64,0-1.51.16-2.18.17-1.16,0-2.3-.11-3.55-.14-1.77,0-3.6-.07-5.47-.17a.38.38,0,0,1-.35-.39.36.36,0,0,1,.18-.29h0C20,74.4,23.18,72.51,26.07,71a9.17,9.17,0,0,1,2-.91l0,0-.09.15a24.46,24.46,0,0,1-.11-4c-.05-2.88-.26-6.27,0-8.4a52.48,52.48,0,0,1-.33-8.21l.18.33c-.51-.43-1.07-.83-1.54-1.31s-1-1-1.41-1.48l-1.34-1.57L22.12,44c-1.25-1.53-2.48-3.11-3.93-5.22l-5.47-8.1c-1.45-2.16-2.69-4.41-3.74-6-.39-.6-1-1.71-1.35-1.72-.43-.84-.89-1.68-1.36-2.52h0a.57.57,0,0,1,.22-.79.6.6,0,0,1,.28-.08c3,0,6.13-.17,9.77-.23s7.32,0,10.71,0L36.75,19l6.8-.18c4.17-.13,6.21-.27,8.7.13,2.17.33,1.39.46-1.19.94-1.57.07-2.84.15-4.41.18H44.07c-1.23,0-2.6.14-3.85.19-3.75.13-7.81.22-11.74.29-6.79.15-14,.05-21.7,0l.41-.74c1.6,2.81,3.31,5.65,5.1,8.47,2.36,3.7,4.76,7.42,7.3,11,1.26,1.81,2.58,3.58,4,5.29.69.85,1.41,1.68,2.16,2.47l1.15,1.15,1.26,1,0,0a.37.37,0,0,1,.14.28v.07c.11,6.47.4,12.85.37,19.26v1.33h0a.45.45,0,0,1-.24.41L17.3,76.9l-.17-.74c.83.07,1.89.13,3,.17a78.75,78.75,0,0,0,10.59-.25h.05c1.72.13,3.53.18,5.34.17,2.68,0,5.52-.09,8.24-.33l-.09.5A99.62,99.62,0,0,0,33.44,71c-.23-.19-.17-.31-.54-.54l0,0a.38.38,0,0,1-.18-.33,5,5,0,0,0,0-.63c-.27-4.64-.13-9.49-.24-14.38-.06-1.87-.11-3.76-.17-5.65a.57.57,0,0,1,.2-.44l.06-.06,1-.89c.34-.3.64-.67,1-1,.65-.66,1.2-1.43,1.8-2.14a114.31,114.31,0,0,0,7.31-11.3c1-1.67,1.75-3,2.58-4.44.28-.5.71-1.14,1-1.62.41-.76.65-1.48,1.06-2.2a32.39,32.39,0,0,0,2.36-3.95C50.58,22.05,50.9,21.63,51,21.06Z" fill-rule="evenodd"/><path d="M32.89,50.36a1.32,1.32,0,0,0,.07-.23,1.41,1.41,0,0,0,0-.25c0-.05,0-.14,0-.18s0,0,0-.05,0-.12,0-.15,0,0,0,0a.48.48,0,0,1,0-.12s0,0,0-.13c-.07.08-.07,0-.09-.06s-.13-.09-.18-.18a.44.44,0,0,0-.18-.18.55.55,0,0,0-.37,0c-.13.06-.23,0-.34.1s-.05,0-.08,0a.36.36,0,0,1-.07.1s0,0-.07,0a1.37,1.37,0,0,0-.19.21,1.58,1.58,0,0,1-.19.22c-.11.21-.18.31-.3.55,0,0,0,.07-.06.07s0-.06,0-.05a1,1,0,0,1-.08.18s0,0,0,.06-.07.24-.11.36-.05.1-.1.21,0,.07,0,.17a1.35,1.35,0,0,0,0,.46s-.07.18-.05.16c0,.15.08.25.09.44,0,0,0,.06,0,.14s0,.12.05.16.1.07.16.09.06,0,.09,0a.66.66,0,0,0,.31-.16c.1-.08.21-.17.29-.22a.24.24,0,0,0,.06-.08l0,0c.08-.06.12,0,.18-.1s.09-.09.12-.11.13-.06.19-.1.24-.2.35-.26.08,0,.16-.16a1.08,1.08,0,0,1,.07-.18c.05,0,0,.09.13-.11s0-.13.11-.28S32.93,50.37,32.89,50.36Zm0-.07c0-.09,0,0,0,0S32.9,50.3,32.9,50.29Z" fill-rule="evenodd"/><path d="M29.5,50.34a1.56,1.56,0,0,0,0-.24,1.31,1.31,0,0,0-.06-.25,1.36,1.36,0,0,1,0-.17s0,0-.05,0a.58.58,0,0,0-.05-.14s0,0-.06,0l-.07-.11s0,0-.07-.11c0,.1-.1,0-.16,0s-.24,0-.37,0a.61.61,0,0,0-.38,0,.82.82,0,0,0-.38.36c-.08.16-.2.25-.24.4s0,0,0,.09a.69.69,0,0,0,0,.13s0,0,0,.08a.91.91,0,0,0,.08.29c0,.1.09.21.11.28a4.9,4.9,0,0,0,.38.47s.06.08.06.08-.06,0-.05,0l.15.13s-.05,0,0,.05l.29.24.17.15s.06,0,.14.11a4.14,4.14,0,0,1,.34.29l.12.12a2.67,2.67,0,0,1,.23.29l.08.12s0,.09.06.12,0,0,0,0,0,0,0,0a.9.9,0,0,1-.15-.23,1.31,1.31,0,0,1-.11-.29l0-.08v0a.55.55,0,0,1,0-.16l0-.15a.42.42,0,0,1,0-.16,1.18,1.18,0,0,1,.05-.37.82.82,0,0,0,0-.2,1.48,1.48,0,0,1,0-.2s0,.08.06-.14l0-.3C29.53,50.62,29.54,50.34,29.5,50.34Zm0-.07c0-.1,0,0,0,0S29.49,50.28,29.49,50.27Z" fill-rule="evenodd"/><path d="M29.46,71.22s0-.09.05-.15,0-.34,0-.54,0-.2,0-.29v-.3c0-.1,0-.21,0-.3s0-.25,0-.37l0-.41a1.7,1.7,0,0,1,0-.4c0-.31,0-.62,0-.92,0-.74,0-1.47,0-2.17s0-1.51,0-2.13c0-.82,0-2.15,0-3s0-1.81,0-2.58c0-.18,0-.36,0-.51l0-.28c0-.18,0-.35,0-.51,0-.32,0-.64-.05-1s0-.56-.06-.88-.07-.54-.12-.74,0-.14,0-.25,0-.13,0-.24,0,0,0-.09,0-.16,0-.13-.05.18-.08.23,0-.1,0-.11a.48.48,0,0,1,0,.21c0,.4-.08.91-.09,1.24,0,0,0,0,0,.08,0,.56,0,1.54-.07,2.26a2.33,2.33,0,0,1,0,.3c0,.32,0,.62,0,.92,0,.55,0,1.07,0,1.65,0,.29,0,.57,0,.86,0,.72,0,1.43.05,2.12S29,64,29,64.57c0,.15,0,.17,0,.27a1.28,1.28,0,0,1,0,.19c0,.44,0,.79,0,1.2l0,.6c0,.45,0,.91,0,1.35,0,.68.06,1.37.07,2.1a6.39,6.39,0,0,0,.05.81s0-.07,0,0a4.79,4.79,0,0,0,0,.77s0-.08.06,0A3.15,3.15,0,0,0,29.46,71.22Zm0-.16s0,.06,0,.11S29.47,71.08,29.48,71.06Z" fill-rule="evenodd"/><path d="M31.57,67.73s0-.07,0-.13a2.81,2.81,0,0,0,.05-.44c0-.08,0-.17,0-.25s0-.16,0-.24,0-.18,0-.25,0-.21,0-.31,0-.22,0-.34a1.72,1.72,0,0,1,0-.33,6.6,6.6,0,0,1,0-.77c0-.61,0-1.21,0-1.79s0-1.26,0-1.77c0-.68,0-1.78,0-2.5s0-1.5,0-2.14c0-.15,0-.3,0-.43s0-.15,0-.22,0-.3,0-.43l-.06-.79c0-.25,0-.46-.05-.73s-.07-.44-.13-.61a1.41,1.41,0,0,0,0-.21,1.33,1.33,0,0,0,0-.2c0-.05,0,0,0-.07s0-.13,0-.11-.05.14-.07.19,0-.08-.05-.09a.39.39,0,0,1,0,.18,9.85,9.85,0,0,0-.09,1c0,.05,0,0,0,.07,0,.46,0,1.28-.07,1.88a1.42,1.42,0,0,1,0,.24c0,.27,0,.51,0,.76,0,.46,0,.9,0,1.37V59c0,.59,0,1.19.06,1.76s0,1,.06,1.44a1.3,1.3,0,0,0,0,.23v.16c0,.36,0,.64,0,1,0,.16,0,.33,0,.49,0,.38,0,.76,0,1.13,0,.56.06,1.13.08,1.74a6.19,6.19,0,0,0,0,.67s0-.05,0,0a3.17,3.17,0,0,0,0,.63s0-.06.06,0A2.85,2.85,0,0,0,31.57,67.73Zm0-.13s0,.05,0,.09S31.58,67.61,31.58,67.6Z" fill-rule="evenodd"/><path d="M23.78,74.64a.08.08,0,0,0,.07,0l.19-.08.1,0,.1-.06.1,0,.12-.08.13-.07s.09-.07.13-.07A1.73,1.73,0,0,1,25,74l.67-.42.67-.39.95-.54c.28-.16.59-.3.84-.43l.17-.08.08-.06.17-.08.31-.17.29-.15c.06-.07.17-.13.22-.2s.05,0,.09,0l.08,0s0,0,0-.05.06,0,.05,0-.08,0-.11,0,0,0,0-.06-.05,0-.09,0a2.26,2.26,0,0,0-.47.05s0,0,0,0c-.21,0-.56.16-.83.23a.25.25,0,0,1-.12,0,1.42,1.42,0,0,1-.33.11c-.2.08-.38.16-.58.26l-.29.15a8,8,0,0,0-.69.43l-.54.39a.46.46,0,0,0-.07.07l-.06,0-.36.27-.17.15-.4.32c-.2.16-.39.35-.59.53a.77.77,0,0,0-.22.22s0,0,0,0-.16.1-.2.19,0,0,0,0S23.68,74.71,23.78,74.64Zm0,0s0,0,0,0S23.83,74.61,23.83,74.61Z" fill-rule="evenodd"/><path d="M40.19,75.2a.13.13,0,0,0,0-.13,2.05,2.05,0,0,0-.25-.27s-.09-.11-.14-.15l-.17-.11-.15-.14-.22-.11L39,74.14c-.07,0-.18-.06-.23-.13a3.2,3.2,0,0,1-.57-.21c-.46-.16-.91-.26-1.33-.39l-1.24-.36c-.47-.12-1.18-.34-1.65-.52a2.73,2.73,0,0,1-.59-.28c-.15-.1-.16-.11-.31-.34a2.07,2.07,0,0,0-.15-.25s-.08-.08-.11-.13-.09-.18-.14-.27l-.32-.49a3.4,3.4,0,0,1-.28-.45c-.14-.1-.24-.26-.38-.35s-.06-.07-.08-.13a.49.49,0,0,0,0-.15s-.07,0-.09,0,0-.1,0-.07-.07.13-.11.18-.06,0-.11,0,0,.09,0,.16a3.29,3.29,0,0,0,.08.8s-.08,0,0,.07c.07.36.27.94.41,1.4a.49.49,0,0,1,0,.2c.12.2.12.35.28.63a2.52,2.52,0,0,0,1.12.88,5.05,5.05,0,0,0,.53.24,7.44,7.44,0,0,0,1.34.37c.39.07.77.11,1.1.16a.59.59,0,0,0,.18,0l.11,0c.28,0,.48.07.73.11l.37,0c.27,0,.53.12.79.18a8.58,8.58,0,0,1,1.21.35,1.62,1.62,0,0,0,.47.18s0-.07.05-.06.24.2.42.21,0-.07.06-.1S40.37,75.32,40.19,75.2Zm-.07-.08s0,0,.06,0S40.13,75.13,40.12,75.12Z" fill-rule="evenodd"/><path d="M32,46.16a.4.4,0,0,0,.35,0,3.58,3.58,0,0,0,.7-.49,4.06,4.06,0,0,0,.41-.25c.12-.1.2-.24.31-.34s.28-.18.38-.28.25-.3.38-.44l.44-.44c.14-.14.25-.37.45-.43a5.47,5.47,0,0,1,.81-1.14c.67-.89,1.25-1.82,1.87-2.67s1.32-1.87,1.8-2.67c.64-1,1.61-2.79,2.19-4s1.27-2.41,1.73-3.47c.11-.25.26-.48.34-.71s0-.29.09-.42.23-.47.32-.71A11.32,11.32,0,0,0,45,26.3c.12-.46.19-.84.35-1.31a9.11,9.11,0,0,0-.09-1.29c.08-.16,0-.23.05-.38s.13-.17.16-.36-.16-.08-.16-.17.07-.27,0-.22-.27.21-.42.25-.08-.16-.19-.18c0,.17-.11.12-.23.18a9.15,9.15,0,0,0-1.09,1.4c-.05.06-.16-.11-.2,0-.47.66-1.2,1.9-1.86,2.75a1.07,1.07,0,0,1-.33.31,9.92,9.92,0,0,1-.77,1.11c-.46.68-.81,1.36-1.23,2.09-.21.38-.44.73-.64,1.11-.5.93-1,1.88-1.39,2.81s-.72,1.63-1.09,2.34a3.24,3.24,0,0,0-.14.39c0,.08-.09.18-.12.26-.27.59-.55,1-.82,1.57-.14.26-.22.55-.36.82-.31.59-.67,1.17-1,1.75-.49.87-.93,1.81-1.5,2.72a3.9,3.9,0,0,0-.57,1.08s.17,0,.13.16c-.26.37-.55.51-.63.95.12.09.17,0,.24.18C31.35,46.47,31.66,46.55,32,46.16Zm.22-.15c.06.09-.08.05-.11.13S32.16,46,32.19,46Z" fill-rule="evenodd"/><path d="M23.48,23.11a2.55,2.55,0,0,1,2.45-.4,6.18,6.18,0,0,1,2.16,1.38,6.14,6.14,0,0,1,1.49,1.77,5.76,5.76,0,0,1,.47,1.68A6.35,6.35,0,0,1,30,30a2.74,2.74,0,0,1-3.77,2,6.55,6.55,0,0,1-2.09-1.28A8.68,8.68,0,0,1,22,28.16a4.79,4.79,0,0,1-.45-1.32,3.66,3.66,0,0,1,1.8-3.67" fill="#8ba53a"/><path d="M22.42,23.66s-.14.07-.21.14a3,3,0,0,0-.53.68c-.08.13-.17.27-.24.41a3.1,3.1,0,0,0-.15.46,2.92,2.92,0,0,0-.13.46,3.23,3.23,0,0,0,0,.63,3,3,0,0,0,.05.67c0,.21.13.47.16.64A7.71,7.71,0,0,0,22,29.06a11.05,11.05,0,0,0,2.35,2.42,6.2,6.2,0,0,0,1.5.89,3.93,3.93,0,0,0,1.75.3,3,3,0,0,0,2.23-1.24,4.16,4.16,0,0,0,.74-2.4A8.9,8.9,0,0,0,30.36,27a4.48,4.48,0,0,0-.79-1.85,5,5,0,0,0-.53-.63l-.33-.28c-.2-.19-.4-.37-.59-.52a6.81,6.81,0,0,0-1.23-.83,4.36,4.36,0,0,0-1.32-.43,2.87,2.87,0,0,0-1.15.15,1.69,1.69,0,0,0-.36.14,1.87,1.87,0,0,0-.34.15c-.07.06,0,.06-.08.11s-.2.15-.15.14.24-.12.33-.13-.11.1-.11.13A.6.6,0,0,1,24,23a2.75,2.75,0,0,1,1.65-.05c.07,0,0,0,.1.06a6.82,6.82,0,0,1,2.57,1.86,1.68,1.68,0,0,1,.26.33,3.16,3.16,0,0,1,.65,1,7.56,7.56,0,0,1,.44,2.25,4.65,4.65,0,0,1-.06,1.18,2.52,2.52,0,0,1-1.55,2,3.09,3.09,0,0,1-2.25-.23l-.34-.17-.23-.14a9.7,9.7,0,0,1-1.38-1.06,7.22,7.22,0,0,1-.64-.6,6.61,6.61,0,0,1-1.14-1.59,3.52,3.52,0,0,1-.2-2.9,5,5,0,0,1,.59-1s-.09.06,0-.06a5.15,5.15,0,0,1,.86-.74s-.1,0-.06,0A2.36,2.36,0,0,0,22.42,23.66Zm-.18.17s.06-.06.11-.13S22.25,23.81,22.24,23.83Z" fill-rule="evenodd"/><path d="M23,25.67v.1l.21-.76,0,.09.54-.54-.09.05.76-.21h-.09l1.06.44-.08-.06.39.66,0-.09v.8l0-.09-.39.66.08-.06-.66.39-.21,0-.76-.21-.27-.25a1.5,1.5,0,1,0,2.59-1.52,1.88,1.88,0,0,0-1.86-1,1.66,1.66,0,0,0,.2,3.31A1.64,1.64,0,0,0,26,25.67a1.54,1.54,0,0,0-1.5-1.5c-.73,0-1.6.67-1.5,1.5Z" fill="#d14b4b"/></svg>