<svg xmlns="http://www.w3.org/2000/svg" viewBox="0 0 158 106"><title>illo-pizza</title><path d="M51.25,34.93C38,33.3,21,33.41,9.87,41.87c-10.88,8.25-12.64,23.78-2,33C18.42,84,34.1,86,47.4,87.22c14.78,1.31,30.83,2.7,45.32-1.16,8.08-2.15,6.76-15.88-2-15a100.26,100.26,0,0,1-35.61-2.66,92.66,92.66,0,0,1-16.39-5.91c-2.66-1.28-10.76-4.34-10-8.4C30.59,44.45,15.85,40.33,14,50,10.53,67.7,28.91,75.64,42.58,80.52a111.57,111.57,0,0,0,48.11,5.81l-2-15c-10.36,2.76-21.38,1.75-32,1.22C45.79,72,34.42,71.14,24.21,67,17.47,64.3,12,58.27,20.33,53.2c8.51-5.15,21.51-4.13,30.92-3,4.11.5,7.65-3.88,7.65-7.65,0-4.56-3.53-7.15-7.65-7.65Z"/><path d="M108.49,20.43c-25.15-1.2-51.92-1.28-73.44,11.81C28.89,36,23,41.4,21.89,48.54a20.68,20.68,0,0,0,1.77,11c4.23,9.92,13.39,17.12,23.42,21.1s21,5.08,31.73,5.65c19,1,38.8.33,55.86-8.1,9.72-4.8,18.73-12.88,20.7-23.54,1.73-9.4-4.67-14.87-11.74-21.3s-25.64-12-35.14-12.94" fill="#fff"/><path d="M108.81,20.72c-.8-.7.1-.9,1.52-.89.7,0,1.52.12,2.3.21l2.07.34c2.36.42,5,1.2,6.29,1.51.5.11.87,0,1.3.11,3.63,1,7.23,2.37,10.44,3.58.61.24.47,0,.68,0a1.44,1.44,0,0,1,.52.47,16.07,16.07,0,0,1,1.58.44,37.71,37.71,0,0,1,5.89,3.25l1.41,1c.48.34.92.76,1.37,1.14.9.77,1.64,1.51,2.48,2.25a42.38,42.38,0,0,1,7.41,8.06,17.78,17.78,0,0,1,2.4,5.2,16.86,16.86,0,0,1,.48,6,23.91,23.91,0,0,1-1.6,7,25.34,25.34,0,0,1-3.5,5.91c-1.36,1.73-2.79,3.25-4.14,4.66-1.3,1.06-.05,1-1,1.86-1.4,1.36-1.79,1-2.89,1.78-2.72,2.56-6.05,4.23-9.22,5.85a74.4,74.4,0,0,1-6.83,3.34,37.5,37.5,0,0,1-4,1.38c-1.36.44-2.77.8-4.24,1.19-2.21.61-5.21,1.19-7.71,1.78-1.59.37-2.75.93-4.13,1.28-1.55.34-3.55.61-5.22.85a81.8,81.8,0,0,1-14.42,1c-2.47,0-5.16-.14-7.18-.31-.47,0-.65.13-1,.08s0-.22-.64-.26c-2.94-.2-4.5-.16-8.15-.51l-7.59-.7c-1.42-.15-2.94-.48-4.3-.69-2.44-.38-4.72-.71-7.08-1.23a39,39,0,0,1-7.54-2.41,39.66,39.66,0,0,1-7.85-4.71c-1-.78-1.57-1.54-2.33-2.21-1-.89-1.89-1.5-2.92-2.5-.38-.39-.3-.41-1.18-1.31a46.6,46.6,0,0,1-4-4.38A37.35,37.35,0,0,1,22,62.59a29.83,29.83,0,0,1-2.21-8.13,22.25,22.25,0,0,1,.05-7,17.83,17.83,0,0,1,2.72-6.85A32.18,32.18,0,0,1,33.29,31a72.47,72.47,0,0,1,13.08-5.86,80.33,80.33,0,0,1,8.77-2.48A34.13,34.13,0,0,1,59,22l1.92-.23c.65-.07,1.3-.13,1.94-.21,2.7-.4,5.37-1,7.95-1.22L75,20l4.47-.29c2-.1,4.09,0,5.78-.13,1.1-.06,2.1-.37,3.19-.41.8,0,1.66.08,2.57.1h3.53c1.48,0,2.86.3,4.18.3s3.21-.28,4.8-.32c1.33,0,3.38-.27,4.81.42,1,1.09-2.26.84-3.22.8-3.48.48-8.29.19-12.78.29-2.93.05-5.64.32-8.58.48-1.12.07-2.27.13-3.44.17l-3.54.22a118.61,118.61,0,0,0-15,2.24A82.33,82.33,0,0,0,50,27.12a43,43,0,0,0-5.11,2.22,24.62,24.62,0,0,0-3.78,2.41,18,18,0,0,0-2.9,1.4c-.93.54-1.89,1.07-2.79,1.69a29,29,0,0,0-8.27,7.94A13.37,13.37,0,0,0,25,52.58a23.25,23.25,0,0,0,3,8.05,29.1,29.1,0,0,0,3.77,4.66A39.33,39.33,0,0,0,39.71,72a41.38,41.38,0,0,0,8.77,3.86,123.31,123.31,0,0,0,21.94,5c2.59.39,5.09.92,7.78,1.23s5.69.45,8.5.65c2.5.18,5,.56,7.56.57,1.73,0,3.59-.16,5.31-.21,4.19-.14,8.4,0,12.54-.47a28.82,28.82,0,0,0,3.26-.55l3.17-.66c2-.4,3.94-.67,5.84-1.17a68.85,68.85,0,0,0,10.75-4.16c.73-.33,1.51-.75,2.32-1.09s1.59-.71,2.27-1c2-1.52,4.39-3.16,6.57-5.14a19.78,19.78,0,0,0,5.11-6.69,20.45,20.45,0,0,0,3.39-8,13.85,13.85,0,0,0-1.57-9.57,35.44,35.44,0,0,0-6.73-8c-1.27-1.19-2.52-2.43-3.77-3.51a33.2,33.2,0,0,0-3.95-2.86c-.74-.48-1.39-1-2.15-1.4-1.76-.9-3.72-1.32-4.93-2.32-3.55-.84-8.71-3-13.45-4.16-1.74-.44-3.5-.86-5-1.09C111.51,21,110.12,21.3,108.81,20.72Z" fill-rule="evenodd"/><path d="M146.28,57.72a6.58,6.58,0,0,1-2,3.44c-.57.6-1.2,1.18-1.82,1.75s-1.25,1.12-1.83,1.62-1.07,1.28-1.76,1.82a38,38,0,0,1-6,4.12,14.46,14.46,0,0,1-1.63.46c-.24.1-.64.65-.89.74s-.52-.11-.88,0-.9.53-1.5.76a55.57,55.57,0,0,1-9.38,3,41.9,41.9,0,0,1-9.55,1c-4.56.82-10,.78-15.86.65-2.82-.05-5.55-.07-8.64-.23-1.06,0-2,.06-3.08,0-2.56-.07-5.25-.36-7.53-.51a53.39,53.39,0,0,1-11.47-2.15c-3.65-1-7.08-2.32-10.54-3.46-.93-1.19-2.82-1.46-4.46-2.46a63.12,63.12,0,0,1-6.07-4.63c-.92-.75-1.76-1.7-2.48-2.35a10.9,10.9,0,0,0-1.29-1,7.28,7.28,0,0,1-1.18-1.12A4.12,4.12,0,0,1,36,57.11c.73,0,1.6.77,2.59,1.69.47.48,1,1,1.5,1.46s1,1,1.45,1.35a40.86,40.86,0,0,0,10.22,7.14c.45.22,1.07.73,1.62.44,1.8,1.43,4.06,1.82,6,2.52,3,1.08,6.43,2.39,9.89,2.37a33.72,33.72,0,0,0,6.78,1.28c3.59.28,7.19.26,10.85.42,4.57.18,9,.12,14.15-.06.75,0,1.46.06,2.2,0,.43,0,1-.29,1.38-.31,2.36-.07,4.75.13,7.11-.17.76-.08,1.42-.4,2.16-.53l6.62-1.17a34.92,34.92,0,0,0,6.33-1.82c.53-.24,1.15-.74,1.67-1a53.09,53.09,0,0,0,5.64-2.6c3.66-2.19,6.4-5.11,9.23-8.23a2.28,2.28,0,0,1,.28-.82C144.84,58.77,145.23,57.15,146.28,57.72Z" fill-rule="evenodd"/><path d="M126.47,34a3.36,3.36,0,0,1-2.49-.53,22.49,22.49,0,0,0-2.85-1.3c-.49-.15-1.08-.09-1.6-.23l-2.26-.53c-.75-.15-1.48-.29-2.2-.47-.41-.1-.57-.42-.94-.55-.16-.06-.6.18-.76.13s-.19-.37-.44-.42-.66,0-1.06-.08c-4.05-.74-8.32-.81-12.21-1.53-2.94.36-6.38.34-10,.74-1.77.18-3.46.5-5.4.75-.66.08-1.22.34-1.89.46-1.58.31-3.27.49-4.66.81-4.87,1.13-9.72.8-13.94,2.59-1-.49-1.95.35-3.1.63a35.23,35.23,0,0,0-4.63,1c-.7.24-1.48.37-2,.61s-1.08.84-1.75,1-.93-.29-1.37-.47c.15-1.27,2.49-2,4-2.49,2.45-.8,5.37-1.15,7.9-1.84.31-.09.85,0,1-.51,1.52.24,2.84-.46,4.19-.63,2.06-.27,4.4-.12,6.45-1a20.94,20.94,0,0,0,4.4-.25c2.25-.39,4.49-.94,6.8-1.23,2.89-.38,5.71-.9,9-1.15.48,0,.94.05,1.42,0,.28,0,.65-.27.9-.27,1.55,0,3.07.39,4.61.44.5,0,1-.17,1.45-.18,3,0,5.85,1,8.63,1.34.38.05.92-.11,1.29,0,1.37.28,2.69.82,3.94,1.17,2.68.74,5.34,1,7.92,2.25a1.38,1.38,0,0,1,.62-.06C125.71,33.06,126.87,33,126.47,34Z" fill-rule="evenodd"/><path d="M50.5,24.52c-1.91,2.55.51,6.09,1.63,8.48,2.27,4.86,5.47,9.13,7.73,14C64.75,57.63,68,68.89,77.72,76.21c2,1.49,3.91-1.85,2-3.33-8.3-6.23-11.51-16.33-15.46-25.48a94,94,0,0,0-6.69-12.12c-.81-1.33-4.58-7.63-3.7-8.82,1.49-2-1.85-3.91-3.32-1.94Z"/><path d="M98.57,47.2a4.45,4.45,0,0,1-.82-.39c1-.83.38-1.7.46-2.6a11.77,11.77,0,0,1,.72-2.37,3.27,3.27,0,0,1,.69-1.33c.19-.2.55-.29.7-.5s.18-.78.37-1.12a5.05,5.05,0,0,1,1.44-1.64c.3-.22.76-.18,1.06-.37s.53-.58.84-.8a5.24,5.24,0,0,1,1.06-.4c.29-.13.49-.55.82-.61.57-.12,1.51.34,2.17.16a2.69,2.69,0,0,1,1.18-.26c.34.05.74-.16,1,.45-.06,1.24-.37.92-.73,1a6.63,6.63,0,0,1-1.77.38c-.61,0-1.41-.32-2.2.1a2.94,2.94,0,0,0-.65.62c-.07.06-.18,0-.24.1s-.22.72-.72.48c0,.38-.25.48-.48.69s-.56.37-.48.78c-.6-.23-.56.34-.81.53s-.92.32-1,.78a1.7,1.7,0,0,1-.43.78,5.66,5.66,0,0,0-.77,2.27,6,6,0,0,0-.3.94c0,.09.15.23.16.34,0,.28-.28,1,.38,1.28-.45.12-.31.43-.23.69s.13.48-.54.58C98.57,47.91,98.27,47.54,98.57,47.2Z" fill-rule="evenodd"/><path d="M93,49.42l.51.65c-.91-.53-.55.17-.62.43s-.34.32-.42.57-.09.29-.27.33-.32-.1-.36,0,.1.37.09.51a.9.9,0,0,1-.24.59c-.08.06-.36-.06-.43,0s0,.32,0,.43-.2.09-.26.18.13.36,0,.4-.76-.21-.82,0,0,.33-.11.36,0,.26-.5-.09c-.9-.85-.61-.72-.6-.86s0-.49.22-.58.72.12.82-.14c0-.09,0-.28,0-.41s.07,0,.06,0-.26-.5.15-.24c-.19-.28-.09-.3,0-.4s.19-.12,0-.41c.48.32.24-.07.35-.11s.55.15.52-.07a.21.21,0,0,1,.16-.25c.25-.07.23-.48.39-.69s.23-.09.27-.19-.1-.19-.09-.23.33-.13-.07-.66c.7.55-.11-.65.87.26C93.17,49.31,93.29,49.58,93,49.42Z" fill-rule="evenodd"/><path d="M53.46,21a13.34,13.34,0,0,1-3.59-6.11,2.84,2.84,0,0,1,0-1.82A3.12,3.12,0,0,1,51,11.76C57.55,7.2,65.47,5.15,73.27,3.57A87.71,87.71,0,0,1,87.59,1.63C99.08,1.22,110.42,4.55,121,9.15a14.49,14.49,0,0,1,4.29,2.54A5.19,5.19,0,0,1,127,16.16a3.24,3.24,0,0,1-3.56,2.72" fill="#ce9b57"/><path d="M54.09,21A262.28,262.28,0,0,0,75.44,70.3a131.93,131.93,0,0,1,7,13.37,71.36,71.36,0,0,1,4.66,18.26c.14,1,.35,2.26,1.26,2.81,1.45.88,3.17-.6,4.22-1.94l9.12-11.62a20.23,20.23,0,0,0,2.46-3.64,20,20,0,0,0,1.33-4.14q3-12.33,4.89-24.88c2-13.1,3.51-27.17,12-37.33a2.49,2.49,0,0,0,.75-1.46c0-1-1.17-1.52-2.13-1.78a115.14,115.14,0,0,0-66.95,2.18" fill="#db2323"/><path d="M113.66,17.37a7.66,7.66,0,0,0-6.3-.37A23,23,0,0,1,103,18.53c-3,.46-5.53-1.46-8.49-1.65a52.68,52.68,0,0,0-5.62,0c-2.06.09-3.49,1-5.35,1.72a16,16,0,0,1-8.57.53c-1.87-.32-3.79-1.17-5.68-.55-1.63.54-3,1.78-4.53,2.52a12.17,12.17,0,0,1-8.53.84,10.22,10.22,0,0,1-2.08-.9A262.82,262.82,0,0,0,75.44,70.3a131.93,131.93,0,0,1,7,13.37,71.36,71.36,0,0,1,4.66,18.26c.14,1,.35,2.26,1.26,2.81,1.45.88,3.17-.6,4.22-1.94l9.12-11.62a20.23,20.23,0,0,0,2.46-3.64,20,20,0,0,0,1.33-4.14q3-12.33,4.89-24.88c1.94-12.66,3.43-26.2,11.2-36.27C119,20.51,116.64,18.65,113.66,17.37Z" fill="#e5c45a"/><path d="M57.52,21.23c-1.24.17-1.5-.44-2.79-.24,1.46-.8-.55-.74-.62-.8a11.12,11.12,0,0,1,3.53-3c1.22-.35,2.45-.59,3.68-.83s2.51-.37,3.81-.64c5.75-1.09,12.08-2.56,18.3-2.69a144.72,144.72,0,0,1,17.83.31c1.78.19,3.46.62,5.2.94,3.73.58,7.92,1.33,11.65,2.16l2.44.57a6.51,6.51,0,0,1,2.58,1,2.26,2.26,0,0,1,.89,1.65,2.66,2.66,0,0,1-.57,1.65L122,23.2a39.4,39.4,0,0,0-4.49,8c-2.39,5.69-3.75,11.9-4.9,18.87-.13.76-.15,1.81-.29,2.6-.24,1.36-.73,2.67-1,4.15-1.07,6.2-1.84,13.25-3.42,19a7.38,7.38,0,0,1-.91,2.48c.11,1.33-.58,3.08-1,4.82a19.9,19.9,0,0,1-1.67,5.27,15.14,15.14,0,0,1-3,3.75,37.37,37.37,0,0,1-5,7.16l-3.44,4.1a7,7,0,0,1-2.36,1.84,2.79,2.79,0,0,1-1.68.19,2.48,2.48,0,0,1-1.43-1,4.8,4.8,0,0,1-.74-1.88c-.1-.61-.2-1.22-.31-1.86-.22-1.26-.45-2.6-.71-4.1a52.48,52.48,0,0,0-3.25-11.17,65.26,65.26,0,0,0-3.56-7.61c-.44-.73-1-2.11-1.67-2.05-1.83-4.21-4.57-8.14-7.25-13.23-2-3.72-3.74-8-5.47-11.58-1.6-3.33-3.39-6.92-4.86-10.08l-3.3-7.2c-2-4.37-3.25-6.17-3.23-10,0-3.39.78-3,2.86-1.27.69,1.7,1.29,3,1.88,4.86.33,1,.49,2.1.86,3.14.5,1.42,1.24,2.8,1.81,4.19,1.68,4.19,3.52,8.83,5.45,13.23,2.37,5.43,4.9,11.11,7.76,16.87,1.42,2.89,3,5.77,4.54,8.7s3.2,5.91,4.62,9.06A62.12,62.12,0,0,1,87.26,98c.22,1.33.4,2.67.57,4a4.79,4.79,0,0,0,.45,1.66,1.21,1.21,0,0,0,1.06.65,2.55,2.55,0,0,0,1.42-.6,7.61,7.61,0,0,0,1.3-1.3l2.45-3.14c2.39-3.08,4.7-6.2,7-9.28a19.12,19.12,0,0,0,1.52-2.31,11.89,11.89,0,0,0,1-2.49c.5-1.77.92-3.69,1.41-5.54,1.6-6.33,2.72-12.25,4.11-20.14,1.07-6.14,2-12.61,3.41-19a61.39,61.39,0,0,1,1.91-6.56,52.11,52.11,0,0,1,2.71-6.22c.47-1,1.05-1.9,1.54-2.81s1-1.75,1.6-2.52c.26-.4.53-.78.78-1.16s.51-.75.65-1,.11-.46,0-.52a1.68,1.68,0,0,0-.34-.15c-.15-.24.18-.61-1-.82-5.43-1.09-11.07-2.54-16.9-3.1a116.59,116.59,0,0,0-13.6-.34,102.32,102.32,0,0,0-16,2l-3.1.61c-1,.2-1.88.45-2.86.7-.66.17-1.57.25-2.2.46-1,.3-1.76.78-2.71,1-1.75.48-3.8.5-5.27,1.35C58.68,20.65,58.06,20.73,57.52,21.23Z" fill-rule="evenodd"/><path d="M125,20.89c-.9,0-1-.71-1.66-1,.47-.1.41-.36.3-.54s-.28-.39-.28-.43a3.83,3.83,0,0,0,.91-1.84c.33-.15,1.06-.3,1.37-.89a2.52,2.52,0,0,0-.36-2.35,9.41,9.41,0,0,0-2-2.09c-1.41-1.2-3.86-1.95-5.86-2.85-.61-.28-1.11-.78-1.71-1.07a26.73,26.73,0,0,0-4.21-1.52A106.92,106.92,0,0,0,97.18,3c-.29,0-.7,0-1,0-.51-.08-1-.42-1.56-.52-2.37-.37-5.05.06-7.3-.19-.37,0-.68,0-1-.32-.46.43-1.18.19-1.85.26-1.32.14-2.82.64-3.86.33-1.55,1.28-4.59.82-7.33,1.55a27.79,27.79,0,0,1-2.91.74A26.22,26.22,0,0,0,66,6c-1.12.42-2.3.53-3.09.91-.3.14-.88.18-.79.76-1.79.1-3.32,1.13-5.21,2.09A33.27,33.27,0,0,0,52.75,12c-.27.2-.55.42-.82.64a3.47,3.47,0,0,0-.64.63c-.14.19-.14.3-.1.34s.07.17.14.36a8.67,8.67,0,0,0,.54,1.14,7,7,0,0,0,.69,1c.5.62,1,.94,1.29,1.32a2.07,2.07,0,0,1,.39,1.65c-.06,1.48-.48,1.9-2.22,2.19a5.73,5.73,0,0,1-1.56-1.58c-.24-.38-.3-.9-.52-1.31s-.77-1-1-1.65a10.06,10.06,0,0,1-.5-1.4,5.27,5.27,0,0,1-.25-1.89,3.39,3.39,0,0,1,.34-1.23,3.35,3.35,0,0,1,.72-1,8.35,8.35,0,0,1,1.34-1,30.9,30.9,0,0,1,6.68-3.17c2.4-.83,4.9-1.52,7.42-2.28C68.6,3.61,72.74,3,76.74,2.23c2.93-.57,5.85-1.39,8.87-1.4a64.06,64.06,0,0,1,8,.26c2.41.27,4.89.67,7.38,1.08,3.38.56,7,2.15,9.35,1.75.13.2,0,.54.49.53,2.18.32,4.2,1.41,6.35,2.15,1.66.59,3.38,1.08,5,1.73a25.53,25.53,0,0,1,3.21,1.43,7.64,7.64,0,0,1,2.81,2.65,7.14,7.14,0,0,1,1,3.27,6.51,6.51,0,0,1-.21,1.4,4.81,4.81,0,0,1-.5,1.88,4.08,4.08,0,0,1-1.4,1.21,14.8,14.8,0,0,0-1.57.94C125.8,20.43,125.38,20.48,125,20.89Z" fill-rule="evenodd"/><path d="M79.41,27.1a.3.3,0,0,0,0-.6.3.3,0,0,0,0,.6Z" fill="#5e2f1b"/><path d="M87.56,34.45a.3.3,0,0,0,0-.6.3.3,0,0,0,0,.6Z" fill="#5e2f1b"/><path d="M96.93,22.15a.3.3,0,0,0,0-.6.3.3,0,0,0,0,.6Z" fill="#5e2f1b"/><path d="M97.19,30.57a.3.3,0,0,0,0-.6.3.3,0,0,0,0,.6Z" fill="#5e2f1b"/><path d="M113.38,23.22a.3.3,0,0,0,0-.6.3.3,0,0,0,0,.6Z" fill="#5e2f1b"/><path d="M108.16,17.6a.3.3,0,0,0,0-.6.3.3,0,0,0,0,.6Z" fill="#5e2f1b"/><path d="M72.85,22.41a.3.3,0,0,0,0-.6.3.3,0,0,0,0,.6Z" fill="#5e2f1b"/><path d="M66,30.57a.3.3,0,0,0,0-.6.3.3,0,0,0,0,.6Z" fill="#5e2f1b"/><path d="M77.53,38.6a.3.3,0,0,0,0-.6.3.3,0,0,0,0,.6Z" fill="#5e2f1b"/><path d="M73.92,47.83a.3.3,0,0,0,0-.6.3.3,0,0,0,0,.6Z" fill="#5e2f1b"/><path d="M88.37,47.56a.3.3,0,0,0,0-.6.3.3,0,0,0,0,.6Z" fill="#5e2f1b"/><path d="M82.22,57.86a.3.3,0,0,0,0-.6.3.3,0,0,0,0,.6Z" fill="#5e2f1b"/><path d="M92.65,59.19a.3.3,0,0,0,0-.6.3.3,0,0,0,0,.6Z" fill="#5e2f1b"/><path d="M92.65,59.19a.3.3,0,0,0,0-.6.3.3,0,0,0,0,.6Z" fill="#5e2f1b"/><path d="M86.36,68.16a.3.3,0,0,0,0-.6.3.3,0,0,0,0,.6Z" fill="#5e2f1b"/><path d="M97.46,71.63a.3.3,0,0,0,0-.6.3.3,0,0,0,0,.6Z" fill="#5e2f1b"/><path d="M88.23,77.12a.3.3,0,0,0,0-.6.3.3,0,0,0,0,.6Z" fill="#5e2f1b"/><path d="M79.94,65a.3.3,0,0,0,0-.6.3.3,0,0,0,0,.6Z" fill="#5e2f1b"/><path d="M104.82,63.61a.3.3,0,0,0,0-.6.3.3,0,0,0,0,.6Z" fill="#5e2f1b"/><path d="M97.73,49.43a.3.3,0,0,0,0-.6.3.3,0,0,0,0,.6Z" fill="#5e2f1b"/><path d="M104,49.83a.3.3,0,0,0,0-.6.3.3,0,0,0,0,.6Z" fill="#5e2f1b"/><path d="M97.86,41.54a.3.3,0,0,0,0-.6.3.3,0,0,0,0,.6Z" fill="#5e2f1b"/><path d="M107.63,27.76a.3.3,0,0,0,0-.6.3.3,0,0,0,0,.6Z" fill="#5e2f1b"/><path d="M110.84,37a.3.3,0,0,0,0-.6.3.3,0,0,0,0,.6Z" fill="#5e2f1b"/><path d="M105.22,35.92a.3.3,0,0,0,0-.6.3.3,0,0,0,0,.6Z" fill="#5e2f1b"/><path d="M87.56,19.74a.3.3,0,0,0,0-.6.3.3,0,0,0,0,.6Z" fill="#5e2f1b"/><path d="M67.64,38.6a.3.3,0,0,0,0-.6.3.3,0,0,0,0,.6Z" fill="#5e2f1b"/><path d="M61.89,22.41a.3.3,0,0,0,0-.6.3.3,0,0,0,0,.6Z" fill="#5e2f1b"/><path d="M91.58,86.75a.3.3,0,0,0,0-.6.3.3,0,0,0,0,.6Z" fill="#5e2f1b"/><path d="M90.51,92.9a.3.3,0,0,0,0-.6.3.3,0,0,0,0,.6Z" fill="#5e2f1b"/><path d="M98.8,87.42a.3.3,0,0,0,0-.6.3.3,0,0,0,0,.6Z" fill="#5e2f1b"/><path d="M94.92,80.06a.3.3,0,0,0,0-.6.3.3,0,0,0,0,.6Z" fill="#5e2f1b"/><path d="M104.55,79.93a.3.3,0,0,0,0-.6.3.3,0,0,0,0,.6Z" fill="#5e2f1b"/><path d="M102.68,71.77a.3.3,0,0,0,0-.6.3.3,0,0,0,0,.6Z" fill="#5e2f1b"/><path d="M92.25,25.22a.3.3,0,0,0,0-.6.3.3,0,0,0,0,.6Z" fill="#5e2f1b"/><path d="M79.41,48a.3.3,0,0,0,0-.6.3.3,0,0,0,0,.6Z" fill="#5e2f1b"/><path d="M76,28.19a14,14,0,0,1-5.34.6,1.5,1.5,0,0,0-1.5,1.5c.15,2.94,3,3.94,5.58,3.46,2.76-.53,3.8-3,3.62-5.58a1.52,1.52,0,0,0-1.5-1.5,3.11,3.11,0,0,0-2.19.78c-.59.49-.93,1.22-1.75,1.26-1.92.09-1.93,3.09,0,3a4.2,4.2,0,0,0,2.29-.65c.41-.29,1.16-1.41,1.65-1.39l-1.5-1.5c.06.81.15,1.95-.63,2.45-.49.31-2.52.62-2.57-.33l-1.5,1.5a16.31,16.31,0,0,0,6.13-.7c1.84-.57,1.06-3.47-.79-2.9Z" fill="#e57ca4"/><path d="M107.41,38.43h-2.62a3,3,0,0,0-2.21.52c-1.11,1-.79,3,.12,4a3.86,3.86,0,0,0,4.44.92c1.47-.73,2.09-2.61,2.81-4a1.51,1.51,0,0,0-1.29-2.25,6,6,0,0,0-3.5,1c-1.61,1.06-.11,3.66,1.51,2.59a3.22,3.22,0,0,1,2-.57l-1.3-2.26c-.36.69-.73,1.38-1.1,2.07s-.36.75-1.17.63c-.57-.08.39-.65-.63,0-.84.57.05.29.51.29h2.44a1.5,1.5,0,0,0,0-3Z" fill="#e57ca4"/><path d="M89.26,57.68c-.73.18-1.5-.17-2.27.06a2.5,2.5,0,0,0-1.67,1.56c-.55,1.8,1.19,2.7,2.54,3.24s3.6,1.38,4.92,0a6.29,6.29,0,0,0,1.34-4.81,1.54,1.54,0,0,0-1.9-1.45,6,6,0,0,0-3.56,2c-1.29,1.43.82,3.56,2.12,2.12A3.52,3.52,0,0,1,93,59.22l-1.9-1.45A4.82,4.82,0,0,1,90.87,60c-.06.18-.32.45-.12.39s-.74-.26-.9-.31q-.51-.16-1-.36l-.54-.22c-.45-.24-.56.12-.35,1.1.37.32,1.67.08,2.09,0,1.87-.48,1.08-3.37-.8-2.89Z" fill="#e57ca4"/><path d="M77.08,48.58c-1.09-.06-2.7-.47-3.71,0s-1,1.87-1,2.88c.16,2.62,3.38,2.42,5.32,2.23s4-1.21,3.66-3.44a2.84,2.84,0,0,0-4.88-1.5c-1.39,1.35.74,3.47,2.12,2.12.07-.06-.08-.41-.12-.42s-.24.14-.3.14c-.48,0-.93.14-1.43.16A8.43,8.43,0,0,0,75,50.71c-.38-.13-.35,0,.09.37q.41.78.33.21c.11-.23,0-.66,0-.92l-.69.9c-.63.13-.63.19,0,.17l.7,0,1.63.1c1.93.12,1.92-2.88,0-3Z" fill="#e57ca4"/><path d="M93.2,27.45c-.33,2.14-2.5,6.31,1.13,6.7,2.6.28,5.19-2.3,6.22-4.47a3.87,3.87,0,0,0,0-3.69,2.39,2.39,0,0,0-3.28-.78,10.26,10.26,0,0,0-1.71,1.45,7.94,7.94,0,0,0-1.49,1.52c-.7,1.13-.47,2.65-.22,3.87A1.52,1.52,0,0,0,96,33a5.46,5.46,0,0,0,2.71-3.23c.62-1.83-2.27-2.62-2.9-.8a2.41,2.41,0,0,1-1.32,1.44l2.2.9a3.36,3.36,0,0,1-.1-1.57c.15-.34.93-.81,1.22-1.08.08-.08.74-.58.73-.67L98,27.61V28a11,11,0,0,1-1,1.61,7.31,7.31,0,0,1-1.17,1.12,2.56,2.56,0,0,1-.68.39c-.35.12-.79,0-.24.37s.37.11.52-.37c.09-.28.18-.57.25-.85a19.14,19.14,0,0,0,.41-2c.29-1.89-2.6-2.71-2.9-.8Z" fill="#e57ca4"/><path d="M94,40.21a3.22,3.22,0,0,1-2.53.36,1.5,1.5,0,0,0-.8,2.89,6.26,6.26,0,0,0,4.84-.66A1.5,1.5,0,0,0,94,40.21Z" fill="#e57ca4"/><path d="M102.8,54.92c-1.1,1.52-2,6,1.13,5.88a2.57,2.57,0,0,0,2.19-2.14c.36-1.33.57-2.72.86-4.07.4-1.88-2.49-2.69-2.89-.8l-.55,2.59-.24,1.11a4.34,4.34,0,0,1-.14.6c-.18.28,0,.17.57-.31l.75.2c.21.41.3.46.26.14a1.66,1.66,0,0,1,.08-.58,3.17,3.17,0,0,1,.57-1.11c1.13-1.57-1.47-3.06-2.59-1.51Z" fill="#e57ca4"/><path d="M87.85,81.4c-2.31,1.06-2.24,4-1,5.86.59.89,1.47,2.17,2.67,2.16,1.37,0,2-1.56,2.46-2.59,1-2.08,2.68-5.27-.29-6.41a2.69,2.69,0,0,0-3.33.75c-.78,1.16-.94,2.87-1.29,4.2-.49,1.87,2.41,2.67,2.89.8l.63-2.41.17-.66-.41,0c.39.23.47.14.22-.26-.09-.51-.17-.5-.24,0a16.34,16.34,0,0,0-.76,2c-.17.39-.36.77-.56,1.15l-.2.38c-.27.43-.28.49,0,.17l1.16-.16c.49.16-.07-.18-.26-.43a4.35,4.35,0,0,1-.6-.93c-.18-.48-.16-.89.32-1.12,1.75-.8.23-3.39-1.52-2.59Z" fill="#e57ca4"/><path d="M70.74,42.42l2.91,3.06a1.51,1.51,0,0,0,2.51-.66A5.6,5.6,0,0,0,75,40c-1-1.17-3.33-2.18-4.26-.31s1.73,3.25,2.59,1.52l-.06.07-.66.39c-.19.07-.21-.13,0,.12a6.61,6.61,0,0,1,.54.71A2.41,2.41,0,0,1,73.27,44l2.51-.66L72.86,40.3c-1.33-1.4-3.45.72-2.12,2.12Z" fill="#f7ff8d"/><path d="M85.94,23.58l.12,2.9a1.51,1.51,0,0,0,2.79.76,25.66,25.66,0,0,0,2-3.51c.58-1.58-.87-2.33-2-3.07a1.5,1.5,0,0,0-2,.54,7.54,7.54,0,0,0-.73,3c-.06,1.93,2.94,1.93,3,0a3.77,3.77,0,0,1,.32-1.52l-2,.54.56.38c.22.25.31.29.28.12L87.94,23v.17l.2-.76c-.55,1.14-1.25,2.22-1.87,3.32l2.8.76-.12-2.9c-.07-1.92-3.07-1.93-3,0Z" fill="#f7ff8d"/><path d="M88.26,49.16a17,17,0,0,0,3.48,4.2,1.52,1.52,0,0,0,2.51-.66,6.12,6.12,0,0,0-.46-4.39,3.86,3.86,0,0,0-3.42-1.93c-1.92.09-1.93,3.09,0,3,1.26-.06,1.14,1.71,1,2.52l2.5-.66a14.29,14.29,0,0,1-3-3.6,1.5,1.5,0,0,0-2.59,1.52Z" fill="#f7ff8d"/><path d="M108.72,25.51V30a1.53,1.53,0,0,0,1.5,1.5,2.16,2.16,0,0,0,2-1.38,17.15,17.15,0,0,0,1.17-2.77c.49-1.85-.85-3.84-2.89-3.33-1.87.47-1.08,3.37.8,2.89l-.78-.41c0,.1-.06.2-.1.3a5,5,0,0,0-.31.72l-.28.62c0,.05-.43.75-.15.56l.76-.2h-.2l1.5,1.5V25.51a1.5,1.5,0,0,0-3,0Z" fill="#f7ff8d"/><path d="M90.17,70.32c0,1.78,0,3.56,0,5.34a1.51,1.51,0,0,0,2.79.75,8.31,8.31,0,0,0,1.26-5.07c0-1.61-1-3.6-3-2.89-1.8.65-1,3.55.8,2.89q-1-1-.84-.18v.37c0,.43,0,.86-.06,1.28a4.06,4.06,0,0,1-.79,2.09l2.8.76c-.08-1.78-.1-3.56,0-5.34s-3-1.93-3,0Z" fill="#f7ff8d"/><path d="M93,70l-.88-.24-.36-.1c-.36-.12-.25,0,.31.27l.15,1.16c-.55.37-.61.49-.2.36l-.8-2.89a3.91,3.91,0,0,0-2.49,2.88,7.5,7.5,0,0,0,.92,4.58,1.5,1.5,0,1,0,2.59-1.51C92,74,91,71.89,92,71.48a1.5,1.5,0,0,0-.8-2.89,2.18,2.18,0,0,0-1.9,2.53c.3,1.32,1.8,1.5,2.89,1.81A1.5,1.5,0,0,0,93,70Z" fill="#f7ff8d"/><path d="M93.14,90.44,93,95.37a1.52,1.52,0,0,0,2.56,1.06,13.36,13.36,0,0,0,3.28-4.57,2,2,0,0,0-.5-2.22,2.58,2.58,0,0,0-1.14-.58L96.51,89c-.26-.08-.18,0,.26.21-.82-1.75-3.4-.23-2.59,1.51a2.16,2.16,0,0,0,1.29,1.1,1.78,1.78,0,0,0,.78.15c.42.12.43-.08,0-.61-.1-.74-.23-.84-.41-.3a10.47,10.47,0,0,0-1,1.59,14.61,14.61,0,0,1-1.47,1.68L96,95.37l.18-4.93c.07-1.93-2.93-1.93-3,0Z" fill="#f7ff8d"/><path d="M77.57,67.22C78.81,69.15,80,72,82.15,73a1.52,1.52,0,0,0,2.26-1.29,7.25,7.25,0,0,0-4.28-6.6l.54,2.05c.4-.57,0-.8-1.22-.69a3.91,3.91,0,0,1,.14.68,5.86,5.86,0,0,1,0,1.62,1.55,1.55,0,0,0,1,1.85,1.51,1.51,0,0,0,1.85-1c.2-1.43.45-3.83-.73-5s-3-.31-3.68,1a1.51,1.51,0,0,0,.54,2,4.34,4.34,0,0,1,2.79,4l2.25-1.3a4.72,4.72,0,0,1-1.74-2l-1.76-2.74c-1-1.62-3.63-.12-2.59,1.51Z" fill="#f7ff8d"/><path d="M103.19,76.94c-.11.37-.24.11-.43.06s-.16.06-.19,0-.2-.18-.34-.23a15.49,15.49,0,0,0-3.63-1,3.66,3.66,0,0,0-.74,0c-.25,0-.47.17-.7.19-.08,0-.17-.12-.25-.11s-.13.13-.2.13-.34,0-.51,0c-.39.09-.76.28-1.14.39-.19,0-.41,0-.6.07-.5.14-1,.38-1.55.52a10.2,10.2,0,0,1-1.11.14c-.32.06-.65.2-1,.25-.71.12-1.45.08-2.15.18-.14,0-.26.12-.4.14-.56.07-1.16-.06-1.75,0a7.85,7.85,0,0,1-.84,0c-.25,0-.55.11-.76-.29,0-.39.11-.37.25-.48s.28,0,.53,0c.53,0,1.07-.09,1.88-.11a23.68,23.68,0,0,0,5.07-.64l.71-.23a26.37,26.37,0,0,1,3.32-.77,10.81,10.81,0,0,1,1.5-.2c.63,0,1.35.18,1.75.15.83.28,1.55.64,2.25.9a1.87,1.87,0,0,1,.78.37C103.06,76.53,103.27,76.65,103.19,76.94Z" fill-rule="evenodd"/><path d="M121.5,22.42c-.15.56-.8-.06-1.44-.41-.2-.1-.49-.11-.61-.18-.42-.25-.76-.66-1.23-1-2-1.27-4-2.83-6.23-3.48a5.84,5.84,0,0,0-3.39,0c-1.14.33-2.25.88-3.41,1.34a12.3,12.3,0,0,1-3,.82,7.38,7.38,0,0,1-3.11-.15c-.35-.1-.57-.39-.88-.53s-.59-.08-.86-.21c-.63-.31-1.13-.72-1.73-1a5.69,5.69,0,0,0-2.08-.46,6.5,6.5,0,0,0-2,.33,6.69,6.69,0,0,1-1.27.24L89,17.9a7.73,7.73,0,0,0-2.79.49,19.51,19.51,0,0,1-3,1A29.55,29.55,0,0,1,79,20a21.82,21.82,0,0,1-3.91.29A21.45,21.45,0,0,1,71,19.41a3.28,3.28,0,0,0-1.73,0,5.07,5.07,0,0,0-1.59.93c-.42.32-.74.72-1.16,1a12.2,12.2,0,0,1-1.41.91,4.19,4.19,0,0,1-1.81.57,22.34,22.34,0,0,1-3.47-.29c-1-.11-2.12-.26-3.17-.41s-2.13-.13-2.75-.81c.14-.58.56-.49,1.17-.58a6.48,6.48,0,0,1,2,.26c1,.16,2,.27,3.16.39a9.15,9.15,0,0,0,3.65,0,11.24,11.24,0,0,0,1.82-1.08L67.63,19a4.38,4.38,0,0,1,2.57-.83,10.5,10.5,0,0,1,2.54.5,12.05,12.05,0,0,0,2.35.46,15.82,15.82,0,0,0,2.48,0,29.48,29.48,0,0,0,5.1-.84,24.28,24.28,0,0,0,2.75-.89l.73-.28a7,7,0,0,1,.84-.18c.54-.08,1.07-.11,1.6-.14s1.06-.07,1.55-.15a5,5,0,0,0,.72-.17l.83-.23a6.73,6.73,0,0,1,3.45.18,29.61,29.61,0,0,1,3,1.3,7.9,7.9,0,0,0,2.54.73,7.64,7.64,0,0,0,2.52-.24,23.78,23.78,0,0,0,3.2-1.2,25,25,0,0,1,2.82-1,8.08,8.08,0,0,1,4.8,1,33.18,33.18,0,0,1,3.76,2.38,29,29,0,0,1,2.69,1.89C120.82,21.5,121.58,22,121.5,22.42Z" fill-rule="evenodd"/><path d="M72.76,37.42c-.09.37-.15.16-.25.16s-.09.09-.11.09-.1-.12-.18-.13c-.64-.08-1.31-.31-2-.42a1.61,1.61,0,0,0-.38,0c-.13,0-.26.13-.37.13s-.08-.12-.12-.13-.07.12-.1.11-.17-.08-.26-.07-.38.17-.56.21-.21,0-.31,0a2.59,2.59,0,0,0-.67.32c-.14.07-.34.07-.48.17s-.19.25-.31.36-.6.44-.89.72c0,.06,0,.17-.12.23a2.58,2.58,0,0,1-1,.35,1.18,1.18,0,0,1-.53,0c-.14,0-.4,0-.35-.41s.17-.32.25-.41.07,0,.16,0,.39,0,.7-.18c.64-.24,1.19-1.1,2.16-1.62a2.06,2.06,0,0,1,.39-.21,7.56,7.56,0,0,1,1.84-.33,7.43,7.43,0,0,1,.81-.09c.33,0,.7.17.92.09a5.86,5.86,0,0,0,1.19.45c.16,0,.3,0,.43.16A.38.38,0,0,1,72.76,37.42Z" fill-rule="evenodd"/><path d="M103.69,36.86c-.31.22-.19.08-.23.06s-.11,0-.11,0,0-.1,0-.12c-.25-.14-.45-.37-.71-.53a.35.35,0,0,0-.17-.06c-.07,0-.17.1-.22.08s0-.13,0-.15-.06.1-.08.09,0-.1-.09-.11-.22.07-.31.05-.08-.1-.13-.11a2.54,2.54,0,0,0-.39,0c-.09,0-.17-.11-.26-.12s-.17.08-.25.08-.37-.1-.55-.06-.06.1-.09.11-.32-.11-.47-.08a.54.54,0,0,1-.22,0c-.07,0-.14.09-.25-.31s0-.36,0-.47.07,0,.14,0,.29,0,.51,0c.44,0,.93,0,1.46.05a.77.77,0,0,1,.22,0l.94.22c.14,0,.3,0,.44.05s.31.25.47.21a3.54,3.54,0,0,0,.45.58c.07.06.17.07.14.22S103.93,36.68,103.69,36.86Z" fill-rule="evenodd"/><path d="M102.06,54.69c-.22.31-.16.13-.22.12s-.08.07-.09.07,0-.11-.06-.12a3.79,3.79,0,0,0-1.07-.16.38.38,0,0,0-.21.07c-.06,0-.08.17-.14.2s-.08-.1-.11-.09,0,.11,0,.12-.12,0-.16,0-.1.22-.18.3-.15,0-.19.07a2.83,2.83,0,0,0-.3.44c-.08.09-.24.13-.34.23s-.1.23-.2.32a2.82,2.82,0,0,1-.78.43c-.05,0-.07.13-.13.16-.23.1-.52,0-.78-.05a.62.62,0,0,1-.36-.14c-.09,0-.28-.09-.06-.43a1.83,1.83,0,0,1,.34-.32c.08-.08,0,0,.06.05s.17,0,.35,0a1.6,1.6,0,0,0,1.22-.81,1.6,1.6,0,0,1,.16-.23,5.45,5.45,0,0,1,1-.82,2.4,2.4,0,0,1,.51-.31c.25-.08.54,0,.69-.11.34.12.62.27.89.37.11,0,.24,0,.28.2S102.23,54.44,102.06,54.69Z" fill-rule="evenodd"/><path d="M94.61,63.57c-.06.37-.1.18-.18.19s-.06.11-.07.11-.07-.11-.13-.1a10.87,10.87,0,0,1-1.38-.12.88.88,0,0,0-.28,0c-.09,0-.17.15-.26.15s-.06-.12-.09-.13,0,.12-.07.11-.13-.08-.19-.07-.28.14-.43.16-.15-.07-.22-.06a3.5,3.5,0,0,0-.56.13c-.12,0-.27-.06-.4,0s-.21.13-.32.16a5,5,0,0,0-.76.11s-.06.12-.1.14-.44,0-.63.09a1,1,0,0,1-.29.09c-.09,0-.15.14-.38-.2s-.12-.34-.11-.46.1-.06.2-.06.37-.18.68-.25l1.94-.41a1.23,1.23,0,0,1,.29-.07c.4,0,.85,0,1.26-.09.19,0,.37-.11.56-.13s.49.1.64,0a2.91,2.91,0,0,0,.88.26c.11,0,.21,0,.31.09S94.65,63.27,94.61,63.57Z" fill-rule="evenodd"/><path d="M89.56,29.06c-.28.26-.19.09-.25.06s-.11.05-.12,0,0-.12,0-.14a9.44,9.44,0,0,0-1.14-.6.57.57,0,0,0-.26,0c-.09,0-.19.11-.27.1s0-.13-.07-.14-.06.1-.08.1-.11-.1-.17-.1-.29.11-.42.12-.15-.08-.22-.08a2.62,2.62,0,0,0-.54.12c-.12,0-.27-.05-.4,0s-.21.13-.32.16a4.89,4.89,0,0,0-.76.16s-.06.12-.11.14-.45,0-.64.12a1.57,1.57,0,0,1-.31.08c-.09,0-.16.15-.38-.2s-.11-.35-.09-.47.09-.05.19-.05.37-.18.68-.25c.59-.15,1.24-.34,2-.48a1.32,1.32,0,0,1,.3-.08c.42,0,.9,0,1.34,0a4,4,0,0,1,.6,0c.25,0,.5.23.68.18.29.23.52.46.77.64s.23.08.24.27S89.77,28.85,89.56,29.06Z" fill-rule="evenodd"/><path d="M114.84,29.36c.22.31.1.17.1.2s.06.09.06.1-.07-.06-.08-.05-.16.15-.27.19a0,0,0,0,0,0,.05s0,.14,0,.16-.08-.1-.1-.1.06.1,0,.1-.07-.06-.08,0,0,.13,0,.15-.08,0-.09,0-.05.09-.09.11-.11-.05-.14,0,0,.1,0,.11-.17,0-.21,0,0,.09,0,.1-.16-.07-.2,0-.05,0-.08,0,0,.08-.24-.24a3.42,3.42,0,0,1-.25-.4c0-.1,0,0,0,0s.07-.07.15-.07a.72.72,0,0,0,.43-.15s0-.05,0-.05a.41.41,0,0,0,.26-.13s0-.12,0-.16.14,0,.09-.11c.12,0,.22.07.26,0s0-.09.09,0A1.08,1.08,0,0,1,114.84,29.36Z" fill-rule="evenodd"/><path d="M81.94,52.58c0,.38-.08.19-.13.21s0,.11-.06.11-.06-.09-.11-.08c-.36.07-.75,0-1.13.08a.52.52,0,0,0-.21.07c-.07,0-.1.18-.17.2s-.08-.11-.11-.11,0,.12,0,.12-.13,0-.17,0-.18.19-.28.24-.15,0-.2,0a2.12,2.12,0,0,0-.38.26c-.09.06-.24,0-.33.09s-.1.17-.18.23-.39.18-.52.35,0,.12,0,.15-.34.16-.42.31a1.54,1.54,0,0,1-.17.19c-.06.05,0,.17-.41,0s-.3-.21-.36-.31,0-.09.12-.14.2-.32.41-.52A11.52,11.52,0,0,1,78.5,53a1,1,0,0,1,.21-.15l1-.43a3.81,3.81,0,0,1,.45-.23c.19-.08.45,0,.56-.15a2.78,2.78,0,0,0,.81.13c.1,0,.19-.06.28.07S82,52.28,81.94,52.58Z" fill-rule="evenodd"/></svg>