<svg xmlns="http://www.w3.org/2000/svg" viewBox="0 0 60 80"><title>iillo-bev-marg</title><path d="M10.87,15.89A16.57,16.57,0,0,0,20,24.67a.93.93,0,0,1,.51.33,1,1,0,0,1,.07.56c-.2,2.74.77,5.42,1.85,8a17,17,0,0,0,2.76,4.83,6.6,6.6,0,0,0,4.87,2.38c2.5-.06,4.57-2,6-4a23.35,23.35,0,0,0,4.41-13c2-.4,4.11-.86,5.62-2.23A9.32,9.32,0,0,0,48,18.86a24.58,24.58,0,0,0,1.49-3.6c.41-1.3.63-2.95-.41-3.84a3.86,3.86,0,0,0-2.35-.64l-6.59-.32a10.29,10.29,0,0,1-2.35-.3c-.86-.26-1.64-.74-2.51-1-2.34-.58-4.66.8-7,1.37a21.62,21.62,0,0,1-7.27.06,7.31,7.31,0,0,0-2.47,0c-.74.19-1.41.62-2.16.8s-1.46.1-2.18.22a4.3,4.3,0,0,0-3.45,3.83" fill="#ffc197"/><path d="M11.07,15.26c-.14,0-.17-.33-.17-.61s0-.54-.23-.42a4.31,4.31,0,0,1,3.94-2.84A7.25,7.25,0,0,0,17,11.18a7.86,7.86,0,0,1,2.36-.67c.89-.06,2.5.25,4.14.33a11,11,0,0,0,4.29-.41c.16,0,.27-.24.42-.29.49-.17,1.1-.32,1.54-.53a14.87,14.87,0,0,1,3.1-1.41,5.61,5.61,0,0,1,2-.1,6.07,6.07,0,0,1,2,.69,7.58,7.58,0,0,0,1.7.67,15.45,15.45,0,0,0,1.72.29,41.33,41.33,0,0,0,4.21.68q1.17.06,2.28.06A4.49,4.49,0,0,1,49,10.9a2.49,2.49,0,0,1,1.15,1.92A6.16,6.16,0,0,1,50,15a20.48,20.48,0,0,1-1.7,4.54,8,8,0,0,1-1.57,2.14,6.94,6.94,0,0,1-2.53,1.47A13.8,13.8,0,0,1,42,23.6l-1.4.31.36-.42c0,.25,0,.49,0,.71a30.93,30.93,0,0,1-1,4.67,25.09,25.09,0,0,1-3.92,9,17.47,17.47,0,0,1-2.81,2.6,9.63,9.63,0,0,1-3.26.72,6,6,0,0,1-3.42-1c-.63-.44-.57-.71-.87-1,0,0-.42-.3-.82-.67a8.7,8.7,0,0,1-1-1.06,17.53,17.53,0,0,1-1.35-2.07,38.28,38.28,0,0,1-2.21-4.56,12.55,12.55,0,0,1-1-5c0-.17,0-.34,0-.5a1.29,1.29,0,0,1,0-.28.76.76,0,0,0,.23.4c.12.1.12.06,0,0a18.55,18.55,0,0,1-1.92-1c-.33-.2-.6-.49-.8-.62a22.47,22.47,0,0,1-3.21-2.34A12.22,12.22,0,0,1,9.83,16.3c.09-.57.4-.28.79.31a24.18,24.18,0,0,0,1.49,2.09c.5.57,1,1,1.55,1.51,1.46,1.49,3.24,3.07,4.71,3.54a6.74,6.74,0,0,0,1,.6c.32.18.86.34.95.51a1.13,1.13,0,0,1,0,.52c0,.25,0,.5,0,.75a12.41,12.41,0,0,0,.16,1.65,15.58,15.58,0,0,0,.69,2.77,17.84,17.84,0,0,0,1.57,3.12c.57,1,1.17,1.87,1.81,2.78A11.45,11.45,0,0,0,26.9,39a5.67,5.67,0,0,0,3.16,1.25A5.82,5.82,0,0,0,33,38.75a14.66,14.66,0,0,0,3.39-3.57A20.75,20.75,0,0,0,39,29.37a30.91,30.91,0,0,0,1-5.91v-.05a.52.52,0,0,1,.46-.49l1.15-.17a10.72,10.72,0,0,0,3.35-2,8.32,8.32,0,0,0,2.26-2.61,16.89,16.89,0,0,0,1.57-3.93,3.72,3.72,0,0,0,.06-1.71,1.11,1.11,0,0,0-.82-.85,7,7,0,0,0-1.62-.26c-.63-.06-1.26-.12-1.88-.15-1.56-.08-3.06-.06-4.46,0a10.28,10.28,0,0,1-2.19-.14A8,8,0,0,1,36,10.4c-.43-.2-.76-.39-1.1-.51a2.6,2.6,0,0,0-1.11-.19,10,10,0,0,0-3.28,1.1,10.9,10.9,0,0,1-4.23,1.1,19.41,19.41,0,0,1-3-.3c-.93-.1-2-.11-2.83-.19a6.54,6.54,0,0,0-1.39,0,6.11,6.11,0,0,0-1.36.42,5.47,5.47,0,0,1-1.9.41c-.61,0-1.11,0-1.51,0a3.6,3.6,0,0,0-2,1.08A5.21,5.21,0,0,0,11.07,15.26Z" fill-rule="evenodd"/><path d="M41.12,28.18c.37-1,.74-.92,1.09-1.94-.12,1.36.53-.11.59-.18a10.67,10.67,0,0,1,.09,3.75,41.31,41.31,0,0,1-2.39,5.95A36.24,36.24,0,0,1,38,40.42a14.89,14.89,0,0,1-3.75,4.15l.32-.62c0,1.61,0,3.23,0,4.83-.07,4.4.08,9.57.12,14.33l-.29-.52.4.26c1.22.84,2.32,1.76,3.53,2.61,2.26,1.59,4.84,3.29,7.22,4.85a.43.43,0,0,1,.12.58.42.42,0,0,1-.32.19l-1.17.11a92.91,92.91,0,0,1-13.54.18h.09a96.55,96.55,0,0,1-14.71.18.51.51,0,0,1-.49-.54.54.54,0,0,1,.22-.39L19.47,68c.53-.37,1.19-.94,1.75-1.32,1-.66,2-1.19,3-1.9L27,62.92l-.15.29c-.08-4.34-.28-8.88-.18-12.85a9.46,9.46,0,0,1,.17-2.19,25.31,25.31,0,0,1-.12-4.12h0c.05.09-.1-.19.11.19h0l0,0-.06,0-.11-.08-.23-.17-.46-.34A8,8,0,0,1,25,42.8a15.73,15.73,0,0,1-1.56-1.72,15.56,15.56,0,0,1-2-3.46c-1.78-2.35-3.26-6.59-4.28-11.14l.22.24a19.2,19.2,0,0,1-4.19-1.94,13.56,13.56,0,0,1-4.73-4.7,15.78,15.78,0,0,1-2.06-5.45.34.34,0,0,1,.29-.4h.07l4.15-.12c2.63-.09,5.21,0,7.13-.09.72,0,2,0,2.18-.3,3.86.22,7.82-.06,12.61-.16,3.5-.07,7.33,0,10.69-.07,3.08-.08,6.41-.25,9.31-.39l.38,0a.9.9,0,0,1,.93.85.49.49,0,0,1,0,.12v0a16.69,16.69,0,0,1-2,6.31,14.19,14.19,0,0,1-3.21,4A9,9,0,0,1,45,26.36c-2.26.1-2.68.1-1-1.47a18.83,18.83,0,0,0,3.52-2.29c.33-.24.66-.51,1-.8a6.88,6.88,0,0,0,.94-.93,12.76,12.76,0,0,0,1.81-3.14,13.74,13.74,0,0,0,1.12-3.82l.87.94-7.78.08c-10,.09-20.94-.19-32.33,0L6.78,15l.43-.49a14.53,14.53,0,0,0,3.5,7.25,15,15,0,0,0,6.88,4.27.38.38,0,0,1,.25.27c.28,1.18.62,2.36,1,3.51a42.49,42.49,0,0,0,3.25,7.62A17.85,17.85,0,0,0,27.2,43.6l0,0a.53.53,0,0,1,.23.42v2.75c0,5.22.07,10.06.09,16.41h0a.35.35,0,0,1-.16.3l-.7.49c-3.38,2.34-6.87,4.77-10.41,7.28l-.15-.53c1.11.07,2.28.11,3.45.13a98.31,98.31,0,0,0,11.14-.28h0a41.67,41.67,0,0,0,9.32-.27,2,2,0,0,0,1.38.15l3.86-.34-.24,1c-2.9-1.91-5.81-4-8.81-5.93l-2.46-1.6a.56.56,0,0,1-.25-.43v0c-.09-2.85-.18-5.74-.26-8.57-.09-3.66-.3-7.17-.45-10.58a.87.87,0,0,1,.3-.72l.14-.13c.35-.32.72-.61,1.06-.93s.65-.7.95-1.06a20.84,20.84,0,0,0,2.54-4.22c.23-.51.6-1.16.78-1.67.32-.79.43-1.53.72-2.29a21.36,21.36,0,0,0,1.45-4.3C40.94,29.25,41.14,28.77,41.12,28.18Z" fill-rule="evenodd"/><path d="M31.5,40.92c.1.07.23,0,.34,0a4.82,4.82,0,0,0,.74-.5c.13-.09.3-.17.43-.27s.2-.25.32-.36.3-.19.4-.3.24-.32.38-.48.32-.31.46-.48.25-.42.45-.5a7.59,7.59,0,0,1,.79-1.28,33.77,33.77,0,0,0,1.61-3.17,21.63,21.63,0,0,0,1.22-3.3,23.59,23.59,0,0,0,.48-2.4c.06-.45.13-.89.16-1.32s.07-.91.06-1.07v-.08l-.26-.08a1.39,1.39,0,0,1-.27-.1,2.29,2.29,0,0,1-.25-.13,1.82,1.82,0,0,1,.26.25c.07.09.16.19.27.34a0,0,0,0,1,0,0l.12-.08.41-.25c.55-.34,1.13-.69,1.65-1a8.1,8.1,0,0,0,.71-.51c.12-.11.2-.26.32-.36s.49-.39.69-.59a6.29,6.29,0,0,0,1-1.42,9.77,9.77,0,0,0,.61-1.48,3.6,3.6,0,0,0-.16-1.41c.05-.19,0-.25,0-.41a1.25,1.25,0,0,0,.06-.4c0-.09-.17,0-.2-.13s0-.26-.07-.21-.23.28-.36.36-.12-.14-.24-.15c0,.2-.07.16-.17.27a12,12,0,0,1-.82,1.28s-.17-.11-.2,0a5.76,5.76,0,0,1-2.16,1.69.74.74,0,0,1-.4.1,6,6,0,0,1-1.18.54c-.38.17-.74.36-1.12.57-.2.12-.35.19-.71.43a3.33,3.33,0,0,0-.57.49,3,3,0,0,0-.53.77A4.05,4.05,0,0,0,35.4,25c0,.23,0,.45-.07.68-.07,1-.17,2-.28,3a18.73,18.73,0,0,1-.42,2.49,4.09,4.09,0,0,0-.05.41,2.68,2.68,0,0,1-.07.27c-.14.62-.34,1.09-.52,1.67-.1.28-.15.58-.25.86-.24.62-.54,1.24-.83,1.84A25,25,0,0,1,31.45,39a4.14,4.14,0,0,0-.61,1.09c0,.06.17,0,.12.17-.27.37-.57.52-.66,1,.12.1.18,0,.24.18C30.86,41.23,31.16,41.31,31.5,40.92Zm.22-.14c.05.09-.09,0-.12.13S31.69,40.79,31.72,40.78Z" fill-rule="evenodd"/><path d="M33.32,44.44c0-.11,0-.17.07-.23a1.29,1.29,0,0,0,0-.25l0-.18s0,0,0-.05,0-.12,0-.15,0,0,0,0V43.4s0,0,0-.12c-.07.08-.06,0-.08-.06s-.14-.1-.19-.18a.32.32,0,0,0-.18-.18.55.55,0,0,0-.37,0,1.91,1.91,0,0,0-.34.1s0,0-.07,0l-.07.1s0,0-.08,0a2.2,2.2,0,0,0-.19.21,1.51,1.51,0,0,1-.19.22c-.1.21-.18.31-.29.54,0,0-.05.08-.06.08s0-.06,0-.05a1.42,1.42,0,0,0-.08.18s0-.05,0,.06-.07.23-.11.36A2.2,2.2,0,0,0,31,45s0,.07,0,.17a1.46,1.46,0,0,0,0,.46s-.07.18-.05.16c0,.15.09.25.1.44a.53.53,0,0,1,0,.14s0,.12,0,.16.1.07.17.08.05,0,.09,0a.71.71,0,0,0,.31-.16,2.22,2.22,0,0,1,.29-.22l.06-.08,0,0c.08-.06.11-.05.18-.1a1.31,1.31,0,0,0,.11-.12l.2-.09c.1,0,.24-.2.34-.26s.08,0,.16-.16a1.26,1.26,0,0,1,.08-.18s0,.09.13-.11,0-.13.1-.28S33.35,44.45,33.32,44.44Zm0-.07c0-.09,0,0,0,0S33.32,44.38,33.33,44.37Z" fill-rule="evenodd"/><path d="M28.5,44.83a1.37,1.37,0,0,0-.07-.5,1.36,1.36,0,0,1,0-.17s0,0-.05,0a.78.78,0,0,0-.05-.14s0,0-.06,0l-.07-.11s0,0-.07-.11c0,.1-.1,0-.16,0s-.24,0-.37,0a.61.61,0,0,0-.38,0,.82.82,0,0,0-.38.36c-.08.16-.2.25-.24.4s0,0,0,.09,0,.1,0,.13,0,0,0,.08a.91.91,0,0,0,.08.29c0,.11.09.21.11.28a5,5,0,0,0,.38.48s.06.07.06.07-.06,0-.05,0l.15.14s-.05,0,0,0l.29.24.17.15.14.11.34.29.12.12a2.67,2.67,0,0,1,.23.29l.08.12s0,.09.06.12,0,0,0,0,0,0,0,0a.79.79,0,0,1-.15-.22,1.83,1.83,0,0,1-.11-.29l0-.09v0a.55.55,0,0,1,0-.16l0-.15a.42.42,0,0,1,0-.16,1.72,1.72,0,0,1,.05-.37.82.82,0,0,0,0-.2,1.48,1.48,0,0,1,0-.2s0,.08.06-.14l0-.3C28.53,45.1,28.54,44.82,28.5,44.83Zm0-.08c0-.1,0,0,0,0S28.49,44.76,28.49,44.75Z" fill-rule="evenodd"/><path d="M29,64.26s0-.09.05-.15,0-.3,0-.49,0-.18,0-.27v-.27c0-.1,0-.19,0-.28s0-.23,0-.34,0-.25,0-.38a2.22,2.22,0,0,1,0-.37c0-.28,0-.57,0-.84,0-.68,0-1.35,0-2s0-1.4,0-2c0-.75,0-2,0-2.77s0-1.67,0-2.37c0-.17,0-.33,0-.48l0-.25c0-.16,0-.32,0-.47s0-.59-.05-.88,0-.51-.06-.8-.07-.5-.12-.69,0-.13,0-.22,0-.13,0-.23,0,0,0-.07,0-.15,0-.13-.05.16-.08.22,0-.1,0-.11a.43.43,0,0,1,0,.2c0,.36-.08.83-.09,1.14,0,0,0,0,0,.07,0,.52,0,1.42-.07,2.08a1.85,1.85,0,0,1,0,.27c0,.3,0,.57,0,.85,0,.51,0,1,0,1.52,0,.26,0,.53,0,.8,0,.65,0,1.31.05,1.94s.05,1.11.06,1.61c0,.13,0,.15,0,.25a1,1,0,0,1,0,.17c0,.4,0,.72,0,1.1l0,.55,0,1.25c0,.62.06,1.26.07,1.93a5.54,5.54,0,0,0,.05.75s0-.07,0,0a4,4,0,0,0,0,.7s0-.07.06,0A2.8,2.8,0,0,0,29,64.26Zm0-.15s0,0,0,.1S29,64.12,29,64.11Z" fill-rule="evenodd"/><path d="M32.07,60.77s0-.07,0-.12a2.3,2.3,0,0,0,0-.4c0-.08,0-.15,0-.22s0-.15,0-.23l0-.22a2.72,2.72,0,0,1,0-.28c0-.1,0-.2,0-.31a1.46,1.46,0,0,1,0-.3,5.3,5.3,0,0,1,0-.69c0-.55,0-1.1,0-1.62s0-1.14,0-1.6c0-.62,0-1.61,0-2.26s0-1.36,0-1.93c0-.14,0-.27,0-.39s0-.14,0-.2,0-.27,0-.39l-.06-.72c0-.22,0-.41,0-.65s-.07-.41-.13-.56a1,1,0,0,0,0-.18,1.2,1.2,0,0,0,0-.19s0,0,0-.06,0-.12,0-.1-.05.13-.07.17,0-.07-.05-.08a.3.3,0,0,1,0,.16,8.09,8.09,0,0,0-.09.93s0,0,0,.06c0,.42,0,1.15-.07,1.7a1.3,1.3,0,0,1,0,.22c0,.24,0,.46,0,.68,0,.42,0,.81,0,1.24v.65q0,.81.06,1.59c0,.45,0,.9.06,1.31a1,1,0,0,0,0,.2v.14c0,.33,0,.59,0,.9,0,.15,0,.3,0,.45,0,.33,0,.68,0,1,0,.5.06,1,.08,1.57a5.35,5.35,0,0,0,0,.61s0-.05,0,0a2.58,2.58,0,0,0,0,.57s0,0,.06,0A2.51,2.51,0,0,0,32.07,60.77Zm0-.12s0,0,0,.08S32.08,60.66,32.08,60.65Z" fill-rule="evenodd"/><path d="M22.76,69s0,0,.08,0,.09-.1.15-.16l.1-.08.08-.1.09-.08.1-.12.11-.12s.07-.1.12-.12a1.37,1.37,0,0,1,.24-.29,7.48,7.48,0,0,1,.61-.64c.2-.19.46-.41.66-.57s.68-.55,1-.76.63-.41.89-.57l.19-.1.09-.07.19-.1c.12-.06.23-.14.34-.2l.32-.18c.08-.08.19-.14.26-.22s.05,0,.09,0l.1,0s0,0,0,0,.06,0,.05,0-.09,0-.12,0,0,0,0-.06-.05,0-.09,0a2.8,2.8,0,0,0-.54.08s0,0,0,0c-.24.06-.65.21-.94.32l-.13,0-.38.16a6.74,6.74,0,0,0-.63.36l-.32.21a6.82,6.82,0,0,0-.71.6c-.19.18-.37.38-.53.55s-.05.06-.08.09l-.05.06c-.12.15-.23.25-.34.4l-.16.21c-.12.15-.23.31-.35.47s-.31.5-.47.77a1.13,1.13,0,0,0-.15.32s0,0,0,0-.13.18-.14.29,0,0,.06,0S22.69,69.11,22.76,69Zm0,0s0,0,0,0S22.8,69,22.81,68.94Z" fill-rule="evenodd"/><path d="M40.71,70.18s0-.09,0-.13a1.65,1.65,0,0,0-.21-.27s-.07-.12-.11-.17-.1-.07-.15-.12-.07-.11-.11-.15l-.19-.14L39.74,69c-.07,0-.16-.1-.19-.18a2.51,2.51,0,0,1-.48-.32c-.38-.26-.77-.49-1.13-.73s-.81-.51-1.15-.69a16.81,16.81,0,0,0-1.71-.8,9.34,9.34,0,0,1-1.27-.57.73.73,0,0,1-.13-.1.3.3,0,0,1-.08,0,.37.37,0,0,1-.07-.14A1.84,1.84,0,0,1,33.4,65a3.88,3.88,0,0,1-.06-.53,2.71,2.71,0,0,0-.22-.49c0-.08,0-.09,0-.16s0-.08,0-.15-.07,0-.09,0,0-.11,0-.08-.08.13-.12.17-.06-.05-.1-.05,0,.07-.06.12c-.06.21-.15.47-.19.67,0,0-.08,0-.07,0a4.06,4.06,0,0,0-.12.73,2.36,2.36,0,0,0,.2,1,1.25,1.25,0,0,1,.12.27,4.42,4.42,0,0,0,.6.57,6.86,6.86,0,0,0,1,.49l.47.22c.39.18.79.34,1.18.49s.68.26,1,.4l.16.05.11,0c.24.1.42.21.65.31l.34.14c.25.12.49.26.73.39s.76.36,1.14.58a1.48,1.48,0,0,0,.46.22s0-.07.06,0,.23.21.41.23,0-.08.06-.11S40.88,70.3,40.71,70.18Zm-.06-.08s0,0,.05,0S40.66,70.11,40.65,70.1Z" fill-rule="evenodd"/><path d="M49,15.41a1.35,1.35,0,0,0-.34-.05c-.35,0-.73,0-1.18,0l-.64,0h-.65c-.22,0-.45,0-.64,0h-.83l-.88,0c-.29,0-.66,0-.89,0-.68,0-1.35,0-2,0-1.62,0-3.2,0-4.73,0l-4.68,0c-1.78,0-4.69,0-6.58,0l-5.63,0H18.19l-.6,0H16.46l-2.08,0-1.91.05c-.5,0-1.18.07-1.63.12l-.54,0H9.77c-.13,0-.06,0-.18,0s-.36,0-.3,0,.39.05.51.08c0,0-.23,0-.25,0a2.15,2.15,0,0,1,.47,0c.86,0,2,.08,2.7.09.12,0,0,0,.17,0,1.24,0,3.38.05,5,.08l.65,0c.7,0,1.35,0,2,0,1.21,0,2.36,0,3.62,0H26c1.56,0,3.12,0,4.63,0l3.81-.06.59,0h.42l2.61,0c.44,0,.87,0,1.31,0l3,0c1.48,0,3-.05,4.58-.07.68,0,1.26,0,1.79,0,.07,0-.16,0,.06,0,.67,0,1.11,0,1.67,0,0,0-.16,0-.05-.06C49.91,15.46,49.72,15.41,49,15.41Zm-.35,0s.12,0,.24,0A1,1,0,0,1,48.65,15.39Z" fill="#fff" fill-rule="evenodd"/></svg>