<svg xmlns="http://www.w3.org/2000/svg" viewBox="0 0 60 80"><title>illo-bev-lemon</title><path d="M39.6,11.94l-.37-2.46a6.17,6.17,0,0,0-.86-2.74,2.13,2.13,0,0,0-2.53-.86c-.77.39-1.07,1.31-1.62,2-1.36,1.61-3.85,1.38-5.87,2-3,.9-5,3.75-6.38,6.58-2.21,4.54-3.44,10-1.53,14.63,1.27,3.09,3.82,5.64,4.47,8.92a1.32,1.32,0,0,0,.27.68c.57.57,1.37-.33,1.88-.94,1.28-1.54,3.57-1.54,5.52-2,5-1.06,8.87-5.63,10-10.65s1.75-11.95-3.13-15.76" fill="#f2e355"/><path d="M41.52,13.86a6.65,6.65,0,0,0,.32.7A10.83,10.83,0,0,1,42.69,17a13.36,13.36,0,0,1,.23,1.41c.07.46.09.95.13,1.43s0,1,0,1.44-.07,1.23-.13,1.84-.18,1.29-.3,1.95-.27,1.44-.41,1.93a14.24,14.24,0,0,1-1.63,4.1,12.58,12.58,0,0,1-7.94,6.18c-.77.18-1.64.27-2.56.49a5.19,5.19,0,0,0-2.64,1.39,5.52,5.52,0,0,1-.46.48,3.48,3.48,0,0,1-.48.38,1.55,1.55,0,0,1-.89.33.16.16,0,0,1-.06,0,.9.9,0,0,1-.09-.15c-.09-.16-.17-.35-.25-.53s-.16-.37-.23-.55l-.08-.21-.06-.29a11,11,0,0,0-1.38-3.29C22.78,34.2,22,33.13,21.39,32A13.1,13.1,0,0,1,20,24.92a21.15,21.15,0,0,1,1.47-6.28,22.06,22.06,0,0,1,2.84-5.31A10.32,10.32,0,0,1,26,11.55,8.19,8.19,0,0,1,27,10.79,7.17,7.17,0,0,1,29.31,10c1.48-.33,3.23-.36,4.59-1.42a6.41,6.41,0,0,0,1.32-1.74A1.54,1.54,0,0,1,36.84,6a2.31,2.31,0,0,1,1.45.9,5.14,5.14,0,0,1,.7,1.6c.11.57.14.68.22,1.19s.09.66.16,1.19c.05.29.06.13.11.42a5.31,5.31,0,0,0,.11.66c0,.05-.07-.88-.08-1.16,0,.07.1.51.13.54a9.46,9.46,0,0,1-.11-1.05,10.89,10.89,0,0,0-.66-3.16,2.65,2.65,0,0,0-2.61-1.63c-.3.06.11-.1-.45.09-.84.33-1.24,1.24-1.72,1.9a3.66,3.66,0,0,1-2.23,1.32c-.93.23-2,.32-3,.54a7.91,7.91,0,0,0-2.77,1.15,13.77,13.77,0,0,0-1.21.93,16.31,16.31,0,0,0-2.81,3.73,26,26,0,0,0-2.8,7.82,16.93,16.93,0,0,0-.22,4.39,13.32,13.32,0,0,0,1.57,5.21c.86,1.59,2,2.94,2.68,4.43A9.44,9.44,0,0,1,24,39a6.43,6.43,0,0,0,.43,1.11c.08.17.16.34.26.51a1,1,0,0,0,.57.55,1.69,1.69,0,0,0,1.33-.22,4,4,0,0,0,.94-.68c.3-.28.47-.54.71-.74A4,4,0,0,1,29,39a5.29,5.29,0,0,1,1.2-.44c.25-.07.64-.15.9-.2a12.77,12.77,0,0,0,5.61-2.06,13.39,13.39,0,0,0,2.28-2,15.56,15.56,0,0,0,3.42-5.84,28,28,0,0,0,1-5,20,20,0,0,0-.08-5.29A11.1,11.1,0,0,0,42,14.3c-.09-.15.14.32-.12-.11a8.75,8.75,0,0,0-2.45-2.84c0,.06.25.26,0,.12a9.05,9.05,0,0,1,1,1L41,13Zm.37.69a4.1,4.1,0,0,1-.26-.46S41.85,14.48,41.89,14.55Z" fill-rule="evenodd"/><path d="M25.06,29a.33.33,0,0,0,.19-.21,3.53,3.53,0,0,0,.14-.54c0-.09.1-.2.12-.29s0-.18,0-.28.08-.2.09-.28,0-.23,0-.34.06-.25.08-.37,0-.27.07-.37a1.84,1.84,0,0,1,0-.81,12.71,12.71,0,0,1,.2-1.9c.06-.29.13-.62.22-.94s.14-.63.21-.9c.14-.7.47-1.82.69-2.56.12-.38.27-.75.42-1.12s.33-.69.47-1c.06-.15.17-.27.21-.41s0-.19,0-.28a2.2,2.2,0,0,1,.23-.4,5.76,5.76,0,0,0,.33-.85,6,6,0,0,1,.35-.78c0-.33.11-.61.08-.94.09-.06,0-.16.11-.23s.14,0,.2-.13-.09-.15-.07-.21.16-.07.06-.14-.29-.06-.42-.12,0-.16-.07-.25c-.1.12-.14,0-.27,0a3.18,3.18,0,0,0-1.25.61c-.06,0-.13-.16-.18-.06a17.39,17.39,0,0,0-1.85,1.7.63.63,0,0,1-.31.19,10.29,10.29,0,0,1-.65.8,8.47,8.47,0,0,0-.89,1.62,7.09,7.09,0,0,0-.37.9,9.84,9.84,0,0,0-.5,2.31c-.07.66-.08,1.33-.1,1.92a1.14,1.14,0,0,0,0,.3,1.47,1.47,0,0,1,0,.21c.05.48,0,.85,0,1.29,0,.22.1.43.12.65,0,.47.11,1,.17,1.43a20.25,20.25,0,0,0,.63,2.12,1.42,1.42,0,0,0,.39.77s.11-.1.2,0c.11.29.05.52.33.7.14-.05.12-.1.28-.1C24.9,29.45,25.14,29.29,25.06,29Zm0-.17c.1,0,0,.06,0,.1S25.08,28.85,25.09,28.83Z" fill="#fff" fill-rule="evenodd"/><path d="M51,18.6a3.33,3.33,0,0,1,.79-.78,3.2,3.2,0,0,0,.37-.31l.2-.21.11-.13s.1-.16.07-.07c-.41,1.09.54,0,.64,0a11.86,11.86,0,0,1-.86,3.53c-1,1.82-2.21,3.42-3.37,5.27-2.58,4.08-5.13,8.74-8.16,12.87L39.18,41l-1.77,2.28c-.65.74-1.22,1.54-1.94,2.25-.36.36-.68.74-1.06,1.08l-1.19,1,.27-.54c0,1.11,0,2.17,0,3.21,0,1.47-.14,2.89-.15,4.35,0,3.1,0,6.61.11,9.76,0,1.15,0,2.28.08,3.34l-.25-.4,11.29,6h0a.51.51,0,0,1-.19,1,83.86,83.86,0,0,1-13.73.18h.09c-.69.06-1.59.14-2.51.19-.64,0-1.51.16-2.18.18-1.16,0-2.3-.12-3.55-.15-1.77,0-3.6-.07-5.47-.17a.37.37,0,0,1-.35-.39.38.38,0,0,1,.18-.29h0C20,72,23.18,70.06,26.07,68.54a9.11,9.11,0,0,1,2-.9l0,0-.09.15a24.53,24.53,0,0,1-.11-4c-.05-2.88-.26-6.28,0-8.41a52.48,52.48,0,0,1-.33-8.21l.18.33c-.51-.43-1.07-.83-1.54-1.31s-1-1-1.41-1.48l-1.34-1.56-1.29-1.6c-1.25-1.53-2.48-3.11-3.93-5.21l-5.47-8.11C11.27,26,10,23.77,9,22.18c-.39-.6-1-1.71-1.35-1.72-.43-.84-.89-1.67-1.36-2.52h0a.57.57,0,0,1,.5-.86c3,0,6.13-.17,9.77-.23s7.33,0,10.71,0l9.51-.25,6.8-.18c4.17-.13,6.21-.26,8.7.13,2.17.33,1.39.46-1.19.94-1.57.08-2.84.15-4.41.19l-2.58,0c-1.23,0-2.6.14-3.85.19-3.75.14-7.81.22-11.74.3-6.79.14-14,0-21.7,0l.41-.74c1.6,2.81,3.31,5.65,5.1,8.47,2.36,3.7,4.76,7.42,7.3,11,1.26,1.82,2.58,3.58,4,5.3.69.85,1.41,1.68,2.16,2.46l1.15,1.15,1.26,1,0,0a.37.37,0,0,1,.14.28v.08c.11,6.46.4,12.85.37,19.25v1.33h0a.45.45,0,0,1-.24.41L17.3,74.45l-.17-.74c.83.06,1.89.12,3,.16a78.64,78.64,0,0,0,10.58-.25h.05c1.72.13,3.53.19,5.34.18,2.68,0,5.52-.1,8.24-.34l-.09.5a99.62,99.62,0,0,0-10.8-5.38c-.23-.19-.17-.31-.54-.54l0,0a.41.41,0,0,1-.18-.34,5,5,0,0,0,0-.63c-.27-4.64-.13-9.48-.24-14.37-.06-1.88-.11-3.77-.17-5.65a.58.58,0,0,1,.2-.45l.06-.06,1-.89c.34-.3.64-.67,1-1,.65-.66,1.2-1.44,1.8-2.15a114.31,114.31,0,0,0,7.31-11.3c1-1.67,1.75-3,2.58-4.44.28-.5.71-1.14,1-1.62.41-.76.65-1.47,1.06-2.2a31.65,31.65,0,0,0,2.36-4C50.58,19.6,50.9,19.18,51,18.6Z" fill-rule="evenodd"/><path d="M32.89,47.91a1.64,1.64,0,0,0,.07-.23,1.51,1.51,0,0,0,0-.26s0-.14,0-.18,0,0,0-.05,0-.12,0-.14,0,0,0-.06a.48.48,0,0,1,0-.12s0,0,0-.12c-.07.07-.07,0-.09-.07s-.13-.09-.18-.18a.44.44,0,0,0-.18-.18.7.7,0,0,0-.37,0c-.13.06-.23,0-.34.1s-.05,0-.08,0a.67.67,0,0,1-.07.11s0,0-.07,0a1.11,1.11,0,0,0-.19.22l-.19.22c-.11.2-.18.3-.3.54,0,0,0,.08-.06.07s0-.06,0,0a1.42,1.42,0,0,1-.08.18s0-.06,0,0-.07.24-.11.36-.05.1-.1.21,0,.07,0,.17a1.35,1.35,0,0,0,0,.46s-.07.19-.05.16c0,.15.08.25.09.44,0,0,0,.06,0,.15s0,.11.05.15.1.07.16.09.05,0,.09,0a.81.81,0,0,0,.31-.17c.1-.08.21-.17.29-.22s0,0,.06-.07l0,0c.08-.07.12-.06.18-.11s.09-.09.12-.11a1.07,1.07,0,0,1,.19-.09c.1-.06.24-.21.35-.26s.08,0,.16-.17a1.57,1.57,0,0,1,.07-.18c.05,0,0,.1.13-.1l.11-.29C32.84,48.18,32.93,47.92,32.89,47.91Zm0-.08c0-.09,0,0,0,0S32.9,47.84,32.9,47.83Z" fill-rule="evenodd"/><path d="M29.5,47.89a1.37,1.37,0,0,0-.07-.5,1.36,1.36,0,0,1,0-.17s0,0-.05,0a.66.66,0,0,0-.05-.15s0,0-.06,0l-.07-.11s0,0-.07-.1c0,.09-.1,0-.16,0s-.24,0-.37,0a.55.55,0,0,0-.38,0,.82.82,0,0,0-.38.36c-.08.16-.2.25-.24.41s0,0,0,.08,0,.1,0,.13,0,.05,0,.08a1,1,0,0,0,.08.3c0,.1.09.2.11.27a5,5,0,0,0,.38.48s.06.07.06.07-.06,0-.05,0l.15.14s-.05,0,0,0l.29.23.17.16s.06,0,.14.1l.34.29.12.12a2.67,2.67,0,0,1,.23.29l.08.12s0,.09.06.12,0,0,0,0,0,0,0,0a.79.79,0,0,1-.15-.22,1.83,1.83,0,0,1-.11-.29l0-.09v0a.55.55,0,0,1,0-.16l0-.15a.37.37,0,0,1,0-.15,1.57,1.57,0,0,1,.05-.37,1.21,1.21,0,0,0,0-.21,1.56,1.56,0,0,1,0-.2s0,.08.06-.14l0-.3C29.53,48.16,29.54,47.89,29.5,47.89Zm0-.08c0-.1,0,0,0,0S29.49,47.82,29.49,47.81Z" fill-rule="evenodd"/><path d="M29.46,68.77s0-.1.05-.16,0-.33,0-.54,0-.2,0-.29v-.3c0-.1,0-.21,0-.29s0-.26,0-.38,0-.27,0-.41a2.6,2.6,0,0,1,0-.4c0-.31,0-.62,0-.92,0-.74,0-1.46,0-2.16s0-1.52,0-2.14c0-.82,0-2.14,0-3s0-1.81,0-2.57c0-.18,0-.37,0-.52s0-.18,0-.27,0-.36,0-.52c0-.32,0-.64-.05-1s0-.55-.06-.87-.07-.55-.12-.75,0-.14,0-.24,0-.14,0-.25,0,0,0-.08,0-.16,0-.14-.05.18-.08.24,0-.11,0-.12a.5.5,0,0,1,0,.22c0,.39-.08.9-.09,1.23,0,.06,0,0,0,.08,0,.57,0,1.54-.07,2.27a2.16,2.16,0,0,1,0,.29c0,.32,0,.62,0,.92,0,.55,0,1.08,0,1.65,0,.29,0,.57,0,.87,0,.71,0,1.42.05,2.11s.05,1.2.06,1.74c0,.15,0,.17,0,.28a1.15,1.15,0,0,1,0,.19c0,.43,0,.78,0,1.19l0,.6,0,1.36c0,.67.06,1.36.07,2.09a6.56,6.56,0,0,0,.05.82s0-.07,0,0a4.7,4.7,0,0,0,0,.76s0-.07.06,0A3.36,3.36,0,0,0,29.46,68.77Zm0-.17s0,.06,0,.11S29.47,68.62,29.48,68.6Z" fill-rule="evenodd"/><path d="M31.57,65.27s0-.07,0-.13a2.67,2.67,0,0,0,.05-.44c0-.08,0-.17,0-.25s0-.16,0-.24l0-.25c0-.09,0-.21,0-.31s0-.22,0-.34a1.77,1.77,0,0,1,0-.33,6.4,6.4,0,0,1,0-.76c0-.62,0-1.22,0-1.8s0-1.26,0-1.77c0-.68,0-1.78,0-2.5s0-1.5,0-2.14c0-.14,0-.3,0-.42s0-.16,0-.23,0-.29,0-.43l-.06-.79c0-.25,0-.46-.05-.72s-.07-.45-.13-.62a1.21,1.21,0,0,0,0-.2,1.47,1.47,0,0,0,0-.21s0,0,0-.07,0-.13,0-.11-.05.15-.07.2,0-.09-.05-.1a.39.39,0,0,1,0,.18,9.85,9.85,0,0,0-.09,1c0,.05,0,0,0,.07,0,.47,0,1.28-.07,1.88a1.42,1.42,0,0,1,0,.24c0,.27,0,.52,0,.76,0,.46,0,.9,0,1.37v.72c0,.6,0,1.19.06,1.76s0,1,.06,1.44a1.3,1.3,0,0,0,0,.23v.16c0,.36,0,.65,0,1,0,.16,0,.33,0,.5,0,.37,0,.75,0,1.12,0,.56.06,1.14.08,1.74a6.56,6.56,0,0,0,0,.68s0-.06,0,0a3.13,3.13,0,0,0,0,.63s0-.06.06,0A3,3,0,0,0,31.57,65.27Zm0-.13s0,0,0,.09S31.58,65.15,31.58,65.14Z" fill-rule="evenodd"/><path d="M23.78,72.18s0,0,.07,0A1,1,0,0,0,24,72.1l.1,0,.1-.06.1,0,.12-.08.13-.07a.83.83,0,0,1,.13-.07,1.73,1.73,0,0,1,.28-.19l.67-.42.67-.38.95-.55c.28-.16.59-.3.84-.43l.17-.08.08-.06.17-.07.31-.17a2.69,2.69,0,0,1,.29-.16c.06-.07.17-.12.22-.2s.05,0,.09,0,.05,0,.08,0,0,0,0,0,.06,0,.05,0-.08,0-.11-.05,0,0,0-.06-.05,0-.09,0a1.73,1.73,0,0,0-.47.06s0,0,0,0c-.21,0-.56.16-.83.23a.25.25,0,0,1-.12,0,2.19,2.19,0,0,1-.33.12c-.2.07-.38.16-.58.25l-.29.15a8,8,0,0,0-.69.43l-.54.39-.07.07-.06,0-.36.27-.17.15-.4.32c-.2.16-.39.35-.59.53a1.14,1.14,0,0,0-.22.22s0,0,0,0-.16.1-.2.2,0,0,0,0S23.68,72.26,23.78,72.18Zm0,0s0,0,0,0S23.82,72.16,23.83,72.15Z" fill-rule="evenodd"/><path d="M40.19,72.74a.13.13,0,0,0,0-.13,2.05,2.05,0,0,0-.25-.27s-.09-.11-.14-.15-.12-.06-.17-.1a1,1,0,0,0-.15-.14,2.39,2.39,0,0,0-.22-.12L39,71.68c-.07,0-.18-.06-.23-.13a3.19,3.19,0,0,1-.57-.2c-.46-.16-.91-.27-1.33-.4l-1.24-.36c-.47-.12-1.18-.34-1.65-.52a2.33,2.33,0,0,1-.59-.28c-.15-.1-.16-.11-.31-.34a2.07,2.07,0,0,0-.15-.25s-.08-.08-.11-.13a2.29,2.29,0,0,1-.14-.27l-.32-.48a3.52,3.52,0,0,1-.28-.46c-.14-.09-.24-.26-.38-.35s-.06-.07-.08-.13a.39.39,0,0,0,0-.14s-.07,0-.09,0,0-.1,0-.08-.07.13-.11.18-.06,0-.11,0,0,.08,0,.15a3.23,3.23,0,0,0,.08.8s-.08,0,0,.07c.07.36.27.95.41,1.4a.49.49,0,0,1,0,.2c.12.2.12.35.28.63a2.62,2.62,0,0,0,1.12.89c.18.08.34.16.53.23A7.44,7.44,0,0,0,35,72l1.1.17h.18l.11,0c.28,0,.48.08.73.11l.37,0,.79.18a7.49,7.49,0,0,1,1.21.36,1.91,1.91,0,0,0,.47.17s0-.07.05-.06.24.2.42.22,0-.08.06-.11S40.37,72.86,40.19,72.74Zm-.07-.08s0,0,.06,0S40.13,72.67,40.12,72.66Z" fill-rule="evenodd"/><path d="M32,43.7c.1.07.24,0,.35,0a4.16,4.16,0,0,0,.7-.5,4.06,4.06,0,0,0,.41-.25c.12-.1.2-.23.31-.34s.28-.18.38-.28.25-.3.38-.44l.44-.43c.14-.15.25-.38.45-.44a5.74,5.74,0,0,1,.81-1.14c.67-.89,1.25-1.82,1.87-2.67s1.32-1.87,1.8-2.67c.64-1,1.61-2.79,2.19-4s1.27-2.41,1.73-3.47c.11-.25.26-.48.34-.7s0-.29.09-.43.23-.47.32-.7A11.47,11.47,0,0,0,45,23.84c.12-.45.19-.84.35-1.31a9.11,9.11,0,0,0-.09-1.29c.08-.16,0-.23.05-.38s.13-.17.16-.35-.16-.09-.16-.18.07-.26,0-.21-.27.2-.42.24-.08-.15-.19-.18c0,.17-.11.12-.23.18a9.66,9.66,0,0,0-1.09,1.4c-.05.06-.16-.11-.2,0-.47.67-1.2,1.9-1.86,2.75a1,1,0,0,1-.33.31A9.08,9.08,0,0,1,40.15,26c-.46.68-.81,1.36-1.23,2.1-.21.37-.44.72-.64,1.1-.5.93-1,1.88-1.39,2.81s-.72,1.63-1.09,2.35a2.36,2.36,0,0,0-.14.39c0,.07-.09.18-.12.25-.27.59-.55,1-.82,1.57-.14.26-.22.56-.36.82-.31.59-.67,1.17-1,1.75-.49.87-.93,1.81-1.49,2.72a3.82,3.82,0,0,0-.58,1.08c0,.06.17,0,.13.16-.26.38-.55.52-.63.95.12.09.17,0,.24.18C31.35,44,31.66,44.09,32,43.7Zm.22-.14c.06.08-.08,0-.11.12S32.16,43.57,32.19,43.56Z" fill-rule="evenodd"/></svg>