<svg xmlns="http://www.w3.org/2000/svg" viewBox="0 0 103 125"><title>illo-clam-chowder</title><path d="M21.93,94A100.81,100.81,0,0,0,7.72,91.34a5.07,5.07,0,0,0-4.89,3.72c-.83,4.37-1.39,8.88.85,13a24.94,24.94,0,0,0,8,8.42c6.85,4.3,17.75,4.13,21.18-4,1.07-2.54-1.15-5.55-3.54-6.23-2.91-.84-5.17,1-6.23,3.53.9-.92.55-1.17-1-.75a26.87,26.87,0,0,1-2.84-.36,7.14,7.14,0,0,1-3.64-2c-3-2.83-3.73-4.71-3-8.82l-4.88,3.72a82.17,82.17,0,0,1,11.52,2.32c6.3,1.71,9-8.07,2.69-9.77Z"/><path d="M43.54,90.52c-5.95.4-11.08-3.76-17.1-3.83A12.34,12.34,0,0,0,15.07,93c-5,9.51,3.86,19.53,11.74,23.81,9.35,5.09,21.74,7.42,32.31,7.33,13-.11,24.46-6.22,35.45-12.51l-7.44-5.72c-.39,2-5.51,4-7.08,4.65a35.5,35.5,0,0,1-7.85,2.14,42.63,42.63,0,0,1-16.3-.85,67.85,67.85,0,0,1-15.63-6c-4.74-2.47-10.45-5.08-13-10l-3,7.44c3.51-.59,6.3,1,8.47,3.64,4.2,5,11.33-2.2,7.17-7.17-4.65-5.53-11.36-7.41-18.33-6.24-3.43.57-4.36,4.81-3,7.44,3.36,6.62,10.25,10.37,16.59,13.67a73.84,73.84,0,0,0,23.12,7.94,49.47,49.47,0,0,0,22.17-1.44c5.93-1.88,15.16-5.66,16.46-12.53.81-4.23-3.39-8-7.44-5.73-7.75,4.43-15.73,9.09-24.65,10.65-8,1.4-16.58-.22-24.34-2.29-5.64-1.5-15.2-4.66-16.44-11.39-.79-4.29,3.88-3,6.48-2.14,4.44,1.44,8.24,3.27,13,3,6.47-.44,6.52-10.58,0-10.14Z"/><path d="M20.24,94.89c-3-.72-4.91-3.72-6-6.63-2.16-5.93-2.17-12.42-1.78-18.72a12.51,12.51,0,0,1,.72-4,4.33,4.33,0,0,1,2.87-2.68,6.61,6.61,0,0,1,2.65.14c2.41.47,6.38,1.92,9.17,2.63l-.16-2.46c-2.47-.89-5.36-1.78-7.83-2.66-3-1.07-6.49-1.64-9.06.18-2,1.44-2.68,4.15-2.93,6.63-.74,7.18.43,14.4,1.59,21.52.34,2.07.72,4.24,2,5.89C13.8,97.63,18,98,21.63,98A9.65,9.65,0,0,0,25,97.66a7.63,7.63,0,0,0,4.79-4.25l-.19-2.85C27.08,93.19,23.74,95.73,20.24,94.89Z" fill="#fff"/><path d="M29.53,93.29c.14.1-.21.45-.29.65-.12.37.44,0,.18.42a8.06,8.06,0,0,1-2.72,2.79c-.43.32.4-.19.06.14a6.78,6.78,0,0,1-2.57,1,15.11,15.11,0,0,1-4.43.22c0,.16.43.07.6.13a15.3,15.3,0,0,1-7-1.43,7.47,7.47,0,0,1-2.84-2.58,10.72,10.72,0,0,1-1.37-3.56c-.13-.57-.17-1.15-.26-1.69s-.35-1.25-.46-1.89C8.25,86.27,8.13,85,8,83.71c-.34-2.33-.83-4.7-1-7.09-.1-1.36-.13-2.71-.18-3.89,0-.18,0-.42,0-.6a1.65,1.65,0,0,0-.15-.26c0-.17.16-.38.18-.59,0-.49-.08-1.45,0-2.09.11-.92.3-1.8.49-3a12.53,12.53,0,0,1,1-3.39A7.11,7.11,0,0,1,10.59,60a7.78,7.78,0,0,1,4.95-1.38c2.43.13,4.57,1.09,6.53,1.6.73.19,1.54.28,2.25.53a7.55,7.55,0,0,0,2.23.86,2.43,2.43,0,0,0,1.5.74c-.18.48-.94.13-1.41.2a3.38,3.38,0,0,1-1,.25c-1.48-.43-2.7-.73-4.25-1A13.16,13.16,0,0,1,19,61a6.31,6.31,0,0,0-.92-.15,14.18,14.18,0,0,0-3-.58,6.55,6.55,0,0,0-1.62.3,4.63,4.63,0,0,0-.91.21c-.15.07-.22.22-.34.28a5.16,5.16,0,0,0-1.12.64,5.57,5.57,0,0,0-.77,1.16,9.41,9.41,0,0,0-1.18,2.84,23.67,23.67,0,0,0-.41,3.68c-.07,1.28-.07,2.58-.06,3.87a73.77,73.77,0,0,0,1.46,12c.23,1.3.37,2.71.64,4a14.1,14.1,0,0,0,1.35,4.25,5.91,5.91,0,0,0,3.38,2.56,23.62,23.62,0,0,0,6.09.87,10.85,10.85,0,0,0,2.89-.09,8.72,8.72,0,0,0,2.54-1C28.19,95.05,28.74,94,29.53,93.29Z" fill-rule="evenodd"/><path d="M29.59,90.16c.11.13-.27.31-.37.46s.4.13.11.42c-.77.74-1.48,1.47-2.34,2.16-.3.31.31-.19.08.13a7.23,7.23,0,0,1-1.87,1.22,8.05,8.05,0,0,1-1.58.76,5.37,5.37,0,0,1-2,.31c0,.17.38,0,.53.08a6.49,6.49,0,0,1-3-.43,7.34,7.34,0,0,1-2.57-1.75,14,14,0,0,1-3-5.28c-.15-.45-.25-.92-.37-1.36s-.44-1-.57-1.53A25.88,25.88,0,0,1,12,82.18a46.32,46.32,0,0,1-.64-5.89c0-1.13,0-2.23,0-3.19a4.38,4.38,0,0,0,0-.5.83.83,0,0,0-.14-.21c0-.14.18-.31.2-.48,0-.39-.07-1.17,0-1.69.1-.74.25-1.46.38-2.48a8.92,8.92,0,0,1,.85-2.85,5.88,5.88,0,0,1,2-2.28A4.58,4.58,0,0,1,17,61.93a8.28,8.28,0,0,1,2.06.2c1.88.43,3.55,1,5.22,1.42.61.14,1.27.16,1.86.34s1.05.66,1.82.62a1.42,1.42,0,0,0,1.21.51c-.1.5-.73.28-1.12.4a2.68,2.68,0,0,1-.86.38c-1.24-.28-2.25-.48-3.54-.68a9.39,9.39,0,0,1-2-.56c-.27-.09-.5,0-.79-.11-.82-.2-1.66-.61-2.47-.74a7,7,0,0,0-1.36,0,2.71,2.71,0,0,0-.7,0c-.11,0-.16.17-.24.2a2.33,2.33,0,0,0-.85.39,4.45,4.45,0,0,0-.62.9,6,6,0,0,0-1,2.18,21.6,21.6,0,0,0-.27,3c-.05,1.06-.09,2.13-.13,3.2a40.09,40.09,0,0,0,.87,9.77,23.8,23.8,0,0,0,.76,3.13A26.79,26.79,0,0,0,16.35,90a8.21,8.21,0,0,0,2.32,2.87,5.35,5.35,0,0,0,4.15,1,11.18,11.18,0,0,0,4.25-1.92A14.63,14.63,0,0,1,29.59,90.16Z" fill-rule="evenodd"/><path d="M26.59,56.09C27.23,57.77,30,70.18,30,70.18s-.68,33.31.69,35.61c5.47,9.17,17,12.81,32.24,12.67,19.15-.18,30.85-6.68,34.08-13.67.73-1.56-1.65-36.14-1.65-36.14l2-12.27" fill="#fff"/><path d="M25.85,61.17a9.59,9.59,0,0,1,.47-5,1,1,0,0,0,1.34.16c.39.75.8.78,1.18,1.48a12.2,12.2,0,0,1,.34,2.09,60.53,60.53,0,0,1,2.47,9.89l.05.26v.15c-.13,2.35-.28,4.64-.35,6.59-.16,4.28-.13,8.58-.16,11.86-.06,1.39-.14,3.2-.15,5.1,0,2.18,0,4.3,0,6.46,0,1.08.07,2.17.15,3.26a13.31,13.31,0,0,0,.2,1.55c0,.24.39.76.67,1.24a18,18,0,0,0,4.49,4.93A29.43,29.43,0,0,0,46,115.5c.58.16,1.16.28,1.72.39s1.11.18,1.62.3,1.32.38,2,.52a43.35,43.35,0,0,0,5.7.67,77.86,77.86,0,0,0,10.56,0,65.33,65.33,0,0,0,12-1.91c.71-.25.67-.53,1.45-.79A28.33,28.33,0,0,0,89,111.38a17.9,17.9,0,0,0,6.12-5.9,10.12,10.12,0,0,0,.61-1.08l0-.09,0,0v0h0l1,.45-.06,0a4.67,4.67,0,0,0-.51-.23l-.26-.08c-.07,0-.23-.07-.2,0s0,0,0,.06V104l0-.94q-.06-1-.12-2.13c-.08-1.51-.17-3.12-.27-4.76-.18-3.31-.38-6.75-.54-9.7-.4-6.38-.68-12.73-1.15-17.69l0-.16,0-.25c.06-.5.12-.94.18-1.36.3-2.38.41-5.23,1.3-7.57.68-1.77,2.32-3.35,2.84-2.91.3.26.39,1.42.54,1.8,0,.07.38-.53,0,.25a39.72,39.72,0,0,1-1.28,8.3c-.06.25-.16,1-.33,2l0-.36c0,.28,0,.63,0,1,0,1-.09,2,0,3s.21,2.1.24,3c.1,3-.13,5.77-.07,8.61,0,2.24.22,4.73.33,7,.12,2.52.22,5,.28,7.61,0,1.28.06,2.57,0,3.88a15.18,15.18,0,0,1-.12,2.06,2.22,2.22,0,0,1-.11.36l-.12.23-.25.45a6.63,6.63,0,0,1-.53.88,23.49,23.49,0,0,1-4.39,4.79,37.39,37.39,0,0,1-9.5,4.46,64.28,64.28,0,0,1-10.19,2.33c-1.36.16-2.64.48-4,.54-1,0-2,0-3,0-2.51.06-5.1,0-8.42-.13l-2.34-.16c-.85-.09-1.77-.18-2.79-.32a49.57,49.57,0,0,1-6-1.24c-1-.23-2-.61-3-.93s-2-.76-2.92-1.25a22.55,22.55,0,0,1-9.68-8.52,1.86,1.86,0,0,1-.25-.51c0-.18-.08-.32-.11-.48s-.09-.58-.12-.86c0-.54-.09-1-.13-1.56a17.58,17.58,0,0,0-.48-3.06c0-2.31-.21-4.43-.27-6.55-.09-3.69-.14-7.36-.16-10.75,0-.28-.14-.7-.14-.94,0-1.14.07-2.37.06-3.5s-.17-2-.17-3c0-1.4,0-3.06,0-4.79l0,.34c-.41-1.7-.85-3.47-1.32-5.09C26.87,64,26.32,62.52,25.85,61.17Z" fill-rule="evenodd"/><path d="M24.37,49.48c-5.52,8.49,6,15.05,10,17.82s8.94,4.08,13.84,4.81c13.1,2,26.26,1.12,38.32-4.07,3.36-1.45,8.27-6,10-7.85,4.78-5.13,2.77-11.85-1.32-16.61" fill="#fff"/><path d="M97.52,45.45c1.19-.84,1.13.2,1.42.52.13.16.57.26.75.52s0,.63.42.69a14.08,14.08,0,0,1-.77,10.25,8.71,8.71,0,0,1-1.07,2,15.06,15.06,0,0,0-.88,1.75c-.16.25-.46.4-.64.62s-.28.49-.46.71a5,5,0,0,1-.54.46c-.2.2-.26.56-.47.78s-.42.27-.61.45c-.51.51-1.9.83-2.36,1.7-.4-.19-.8-.49-1.16-.68a2.09,2.09,0,0,1,1.12-1.43,3.16,3.16,0,0,0,1.33-1.19c.58,0,.73-.62,1.08-1s1.1-1,1-1.74c.43-.08.33-.52.48-.79s.27-.26.37-.43c.18-.32.19-.73.34-1.05s.42-.29.49-.5,0-.68.17-1,.44-.55.52-.89c0-.15-.08-.36-.06-.52,0-.59.38-1.15.42-1.74,0-.17-.06-.35,0-.51s.29-.56.32-.87-.22-.84-.22-1.26,0-.53,0-.8a6.75,6.75,0,0,1-.09-.8c0-.28-.34-.61-.27-.87s-.13-.73-.27-1.11A2.12,2.12,0,0,1,97.52,45.45Z" fill-rule="evenodd"/><path d="M34.49,67.11c-.94,1.12-1.11.17-1.49,0-.18-.1-.61,0-.85-.13s-.29-.52-.64-.36c-1.29-1.23-2.61-2.33-3.82-3.48a18,18,0,0,1-3.12-3.74l-.58-1a3,3,0,0,1-.44-1.06,2.78,2.78,0,0,0-.42-.93,4.47,4.47,0,0,1-.41-1,5,5,0,0,1,0-.95c0-.29-.1-.59-.13-.89a2.47,2.47,0,0,1,.09-.76c.06-.31-.11-.65-.06-1a6.29,6.29,0,0,1,.24-.78,7.58,7.58,0,0,1,.71-1.31,3.15,3.15,0,0,0,.66-1.43c.43,0,.91.12,1.3.13a1.87,1.87,0,0,1-.39,1.74c-.23.52-.62,1.06-.5,1.62-.42.33-.24.89-.28,1.36,0,.65-.17,1.43.52,1.84-.23.35.12.57.27.82s0,.36.11.53a5.27,5.27,0,0,0,.63.86c.11.18,0,.5.12.67s.54.41.72.67.21.67.44.93.35.13.48.24c.45.39.76,1,1.22,1.39.12.12.32.18.44.3s.28.61.51.84.82.45,1.14.78.85.8,1.25,1.27c.2.22.68.4.77.66C33.22,65.77,34.31,66.05,34.49,67.11Z" fill-rule="evenodd"/><path d="M96.42,52.14c.25-3.57-3.32-6.4-7.2-8.62s-8.66-3.34-13.41-4C63.1,37.64,50.64,38,38.9,41.61a32.32,32.32,0,0,0-8.66,4c-1.51,1-5.37,5-5.91,6.51,0,0,5.33,15.43,36.28,15.43S96.42,52.14,96.42,52.14Z" fill="#ede7ce"/><path d="M41.55,36.68A4.09,4.09,0,0,0,43,36.61c1.44-.15,3-.44,4.91-.62.88-.09,1.83-.1,2.71-.18s1.82-.21,2.73-.29,1.91-.05,2.73-.1c1.06-.06,2.32-.18,3.48-.23l1.73,0H61l2,.3a37.7,37.7,0,0,1,3.73.55c2.91.22,5.7.68,8.45,1.13a76.69,76.69,0,0,1,9.7,2.14,26.19,26.19,0,0,1,8.18,3.9,9.37,9.37,0,0,1,2.44,2.91A6.32,6.32,0,0,1,96,49.73a14.07,14.07,0,0,1-.51,2.09l-.2.58h0l.63.21h0l-.1,0-.19-.07-.18-.08c-.06,0-.15-.07-.12-.06s0,0,0,0a3,3,0,0,1-.44.52,29.13,29.13,0,0,1-3.38,2.59c-.4.28-.81.56-1.28.91l-.71.55-.58.47a26.75,26.75,0,0,1-2.56,1.77,32.44,32.44,0,0,1-6.28,2.89,57.76,57.76,0,0,1-13.29,3.05,63.14,63.14,0,0,1-12.06.11,87.64,87.64,0,0,1-11.16-1.71,45.2,45.2,0,0,1-4.38-1.31c-.79-.28-1.53-.49-2.25-.82a19.9,19.9,0,0,1-3.78-2.3A28.37,28.37,0,0,1,27,53.46,6.27,6.27,0,0,1,26.14,47a8.37,8.37,0,0,1,1.6-2.82A30.18,30.18,0,0,1,30,41.72c.91-.6,1-.82,1.84-1.34s1.11-.58,2-1.1c.46-.3.11-.31.58-.61S35.77,38,35.49,38a15.51,15.51,0,0,0-2.15.68c.06-.18.8-.61.79-.77a6.62,6.62,0,0,1-1.85.82A27.53,27.53,0,0,0,27,42a11.3,11.3,0,0,0-3.67,5c-.2.57-.18-.3-.44.79a9,9,0,0,0,.41,5.56,15.8,15.8,0,0,0,3.46,5.08,48,48,0,0,0,4.48,4,27.51,27.51,0,0,0,5,3.08c1,.47,2,.89,2.69,1.24a70.55,70.55,0,0,0,8.67,2.27,69.74,69.74,0,0,0,15.92,1.18,62.65,62.65,0,0,0,8.39-.87,57.61,57.61,0,0,0,10-2.77,33.57,33.57,0,0,0,9.21-4.94L92,61l.77-.65c.47-.37,1-.78,1.6-1.2a29.37,29.37,0,0,0,3.46-2.82,6.53,6.53,0,0,0,1.66-2.42c.22-.7.42-1.37.58-2.12a11.9,11.9,0,0,0,.17-4.57,8.6,8.6,0,0,0-1-2.9,14.36,14.36,0,0,0-1.12-1.77,16.24,16.24,0,0,0-4.87-3.95L92,37.87c-.43-.22-.87-.38-1.31-.58l-1.34-.56-1.4-.46a43.49,43.49,0,0,0-5.58-1.43A126.49,126.49,0,0,0,69.66,33c-2.75-.28-5.52-.5-8.35-.75h-.14c-3.68.3-7.4.74-11.22,1.33a49.72,49.72,0,0,0-7.52,1.6c-.31.12.66,0-.23.31-2.76.73-4.68,1.16-6.66,2.53.16.13.68-.14.35.24.48-.2.89-.35,1.28-.48l1.19-.29c.4-.11.84-.2,1.36-.32ZM43,36.41c-.15.15-.52.07-1,.23C42.07,36.53,42.86,36.42,43,36.41Z" fill-rule="evenodd"/><path d="M95.2,56.22A4.08,4.08,0,0,1,94,57.5a2.71,2.71,0,0,1-1.19.45c-.05-.53-.46-.63-.68-.75.09-.42-.15-.63-.1-1,.23-.53.37-.46.56-.84a19.35,19.35,0,0,0,.7-3.8A6.7,6.7,0,0,0,92.46,48a10.69,10.69,0,0,0-4.18-3.76A16.44,16.44,0,0,0,86,43a38.87,38.87,0,0,0-6.49-2.12A29.78,29.78,0,0,0,76,40.13c-1.87-.21-3.67-.34-5.6-.5-.65-.05-1.27,0-1.83-.07-.35,0-.72-.16-1.08-.2-1-.13-2.08-.15-3-.19a94,94,0,0,0-12,.39c-.39.08-.38.32-.82.39a35.27,35.27,0,0,0-9.14,1.78c-.19.06-.51.09-.71.17-1.17.5-2.75,1-4.32,1.61a34.75,34.75,0,0,0-4.45,2.06c-.38.22-.76.44-1.13.67l-.55.35-.26.18-.16.12a9.8,9.8,0,0,0-1.54,1.71,8.28,8.28,0,0,0-1.6,3.71,6.45,6.45,0,0,0,0,.76c.06.24,0,.5.13.72s.09.47.19.68.09.47.18.71a3.28,3.28,0,0,1,0,.66,4.18,4.18,0,0,1,0,.71c0,.48-.11.93-.33,1s-.88-.17-1.16-.22c-.05,0,.1.41-.15-.07a6.37,6.37,0,0,1-.87-.92,7.31,7.31,0,0,1-.61-1.22A5.88,5.88,0,0,1,25,52.29a7.65,7.65,0,0,1,.43-1.8A12.77,12.77,0,0,1,26.32,49a16.68,16.68,0,0,1,.85-1.5,9.94,9.94,0,0,1,1.74-1.75l.5-.37A5.7,5.7,0,0,1,30,45l1-.53c1.05-.57,2.22-1.22,3.33-1.71a45.87,45.87,0,0,1,7.78-2.5c1-.27,2.21-.54,3.23-.9,3.09-.43,7.79-1,10.92-1.16.71-.06,1.39-.17,2.09-.19.52,0,1.05.09,1.6.1l4.43.09c.76,0,1.63,0,2.71.11a95.39,95.39,0,0,1,13.21,1.55,12.48,12.48,0,0,0,3.31.64c1.17.4,2.27.69,3.34,1.11A18.72,18.72,0,0,1,92,44.52c.12.1.36.18.47.28a11.75,11.75,0,0,1,1.3,1.51c.2.22.37.46.56.69a3.08,3.08,0,0,1,.49.76,9,9,0,0,1,.86,2.75,11.54,11.54,0,0,1,0,3.11,11.85,11.85,0,0,1-.2,1.31A8.4,8.4,0,0,1,95.2,56.22Z" fill-rule="evenodd"/><path d="M70,72.72s.08,0,.12,0,.22.12.28.12.15-.09.21-.17a.48.48,0,0,0,.15-.28c0-.29-.36-.37-.46-.34s-.19.13-.28.19-.17,0-.18.19A.35.35,0,0,0,70,72.72Z" fill-rule="evenodd"/><path d="M56.4,76.88a2.4,2.4,0,0,0,.54-.29l.09-.07s0-.08,0-.1,0,0,0,0c.1-.24,0-.38-.16-.5-.17.11-.5.19-.64.44a2.08,2.08,0,0,1,0,.5C56.34,76.79,56.37,76.83,56.4,76.88Z" fill-rule="evenodd"/><path d="M87.23,101.84s.07,0,.12-.07.24-.06.29-.13,0-.36,0-.5a.53.53,0,0,0-.73.58A.62.62,0,0,0,87.23,101.84Z" fill-rule="evenodd"/><path d="M73,106.48c0-.57-.43-.87-.82-.66A.56.56,0,0,0,73,106.48Z" fill-rule="evenodd"/><path d="M82.76,73.18a.77.77,0,0,0,.63.42c0-.1.14-.12.21-.19a1.37,1.37,0,0,0,0-.19c-.07-.14-.13-.29-.3-.27s-.51-.22-.59-.08S82.69,73.09,82.76,73.18Z" fill-rule="evenodd"/><path d="M40.45,72.15c0-.11,0-.15,0-.24-.13-.11-.46-.33-.57,0C39.93,72.25,40.27,72.37,40.45,72.15Z" fill-rule="evenodd"/><path d="M72.35,96.28c.05,0,.1,0,.13,0s.11-.13.15-.19,0-.15-.09-.22a.72.72,0,0,0-.84-.21.66.66,0,0,0,0,.21,1.18,1.18,0,0,0,.59.39S72.32,96.28,72.35,96.28Z" fill-rule="evenodd"/><path d="M60.34,95.93a3.89,3.89,0,0,1,.49,0,.48.48,0,0,0-.13-.6s-.06,0-.09,0-.15-.15-.22-.11-.43,0-.43.35A.44.44,0,0,0,60.34,95.93Z" fill-rule="evenodd"/><path d="M68.27,84.14c.09-.22-.09-.33-.11-.55a.71.71,0,0,0-.8.1.74.74,0,0,0,0,.4c0,.08.13,0,.23,0s.2.13.3.14S68.23,84.25,68.27,84.14Z" fill-rule="evenodd"/><path d="M50.74,85.13s.09,0,.1,0,0-.15,0-.22a.68.68,0,0,0-.86-.2c0,.07,0,.24-.1.17a1.66,1.66,0,0,1,0,.31s.1.09.12.1,0,0,0,0,.06.09.11.12.16,0,.28,0,.18-.06.23-.13S50.74,85.17,50.74,85.13Z" fill-rule="evenodd"/><path d="M90.82,88.82a.34.34,0,0,0,.32-.34c0-.17-.13-.19-.2-.31s-.21-.09-.26-.1c-.27-.06-.59,0-.61.42,0,.07.1.1.13.12a1,1,0,0,0,.29.13A1.93,1.93,0,0,0,90.82,88.82Z" fill-rule="evenodd"/><path d="M36.22,101.11a.75.75,0,0,0-.86-.21,1.1,1.1,0,0,0-.09.46.83.83,0,0,0,.94.08A.89.89,0,0,0,36.22,101.11Z" fill-rule="evenodd"/><path d="M80.73,88.61a2.09,2.09,0,0,0-.07-.39c-.18-.4-1-.31-1,.16.1,0,.13.11.18.2s.09.06.19.09S80.57,88.93,80.73,88.61Z" fill-rule="evenodd"/><path d="M58.23,114a2.14,2.14,0,0,0-.07-.38c-.18-.4-1-.31-.95.16.1,0,.13.11.18.19s.09.07.19.1S58.08,114.3,58.23,114Z" fill-rule="evenodd"/><path d="M79.65,100.88a2.14,2.14,0,0,0-.07-.38c-.18-.4-1-.32-1,.16.1,0,.13.1.18.19s.09.07.19.1S79.49,101.21,79.65,100.88Z" fill-rule="evenodd"/><path d="M84.83,109.75a2.14,2.14,0,0,0-.07-.38c-.18-.4-1-.31-1,.16.1,0,.13.11.18.19s.09.07.19.1S84.67,110.08,84.83,109.75Z" fill-rule="evenodd"/><path d="M94.24,103.32a1.18,1.18,0,0,0-.07-.39c-.17-.4-1-.31-.94.16.1,0,.12.11.17.2s.1.06.2.09S94.09,103.64,94.24,103.32Z" fill-rule="evenodd"/><path d="M67.79,100a2.09,2.09,0,0,0-.07-.39c-.18-.4-1-.31-1,.17.1,0,.13.1.18.19s.09.07.19.1S67.64,100.32,67.79,100Z" fill-rule="evenodd"/><path d="M46.11,111.21a2.14,2.14,0,0,0-.07-.38c-.18-.4-1-.31-.95.16.1,0,.13.11.18.19s.09.07.19.1S46,111.54,46.11,111.21Z" fill-rule="evenodd"/><path d="M46.23,77.51c0-.12,0-.28-.08-.4s-.5-.1-.75-.13c0,.08-.13.08-.15.2s0,.11,0,.24a1.05,1.05,0,0,0,.31.18s.12,0,.17,0S46.13,77.7,46.23,77.51Z" fill-rule="evenodd"/><path d="M35.36,83.3s0-.15-.09-.22a1.43,1.43,0,0,0-.94.06.41.41,0,0,0,0,.32,1,1,0,0,0,1,.08A1.2,1.2,0,0,1,35.36,83.3Z" fill-rule="evenodd"/><path d="M58,85s0,.08,0,0c0,.17-.12.24-.08.46s.29.25.43.37.36.16.47-.06a2.74,2.74,0,0,1-.08-.43A.73.73,0,0,0,58,85Z" fill-rule="evenodd"/><path d="M45.82,93.73s0,.08,0,0c0,.17-.12.25-.08.46l.43.37c.18,0,.36.16.47-.06a2.74,2.74,0,0,1-.08-.43A.74.74,0,0,0,45.82,93.73Z" fill-rule="evenodd"/><path d="M55.35,104.74s0,.08,0,0c0,.17-.12.24-.08.46l.43.37c.18,0,.36.16.47-.06a2.74,2.74,0,0,1-.08-.43A.75.75,0,0,0,55.35,104.74Z" fill-rule="evenodd"/><path d="M67.34,113.34s0,.08,0,0c0,.16-.12.24-.08.45l.43.38c.18,0,.36.15.47-.06a2.74,2.74,0,0,1-.08-.43A.73.73,0,0,0,67.34,113.34Z" fill-rule="evenodd"/><path d="M83.62,94.39s0,.08,0,0c0,.16-.12.24-.08.45l.43.38c.17,0,.36.15.46-.06s-.07-.26-.07-.43A.74.74,0,0,0,83.62,94.39Z" fill-rule="evenodd"/><path d="M40.12,91.46c-.12-.08-.29,0-.39,0s0,.08-.08.1-.22.06-.3.12,0,.12,0,.22.07.19.13.23.29-.06.45,0a2.11,2.11,0,0,0,.27-.25.64.64,0,0,1,0-.29S40.18,91.5,40.12,91.46Z" fill-rule="evenodd"/><path d="M91.45,95.76c-.12-.08-.3,0-.4,0s0,.08-.07.1-.22.06-.31.12,0,.13,0,.22.07.19.13.24.29-.07.46,0c.08-.09.19-.14.26-.25a1.12,1.12,0,0,1,0-.29S91.5,95.8,91.45,95.76Z" fill-rule="evenodd"/><path d="M76.48,110.41c-.12-.08-.3,0-.4,0s0,.08-.07.09-.23.07-.31.13,0,.12,0,.22.07.19.13.23.29-.06.46,0a3.07,3.07,0,0,0,.26-.25,1.12,1.12,0,0,1,0-.29S76.53,110.45,76.48,110.41Z" fill-rule="evenodd"/><path d="M62.24,73.16c-.12-.08-.3,0-.4,0s0,.08-.07.1-.22.06-.31.12,0,.12,0,.22.07.19.13.23.29-.06.46,0c.08-.09.19-.14.26-.25a1.12,1.12,0,0,1,0-.29C62.29,73.28,62.29,73.2,62.24,73.16Z" fill-rule="evenodd"/><path d="M82.51,82.4c-.2-.17-.32.07-.51.07a1,1,0,0,0-.33.46s0,.08,0,.12.16,0,.2.12a1,1,0,0,0,.63-.29.76.76,0,0,1,0-.29C82.56,82.52,82.54,82.42,82.51,82.4Z" fill-rule="evenodd"/><path d="M74.45,77.48a.88.88,0,0,0-.17.5c.07.11.18.06.25,0s.52.33.69.08a3.29,3.29,0,0,0,0-.36C75,77.55,74.74,77.39,74.45,77.48Z" fill-rule="evenodd"/><path d="M84.74,67.22a.85.85,0,0,0-.16.5c.06.11.18.06.25,0s.51.33.69.07a3.6,3.6,0,0,0,0-.36A.81.81,0,0,0,84.74,67.22Z" fill-rule="evenodd"/><path d="M34.58,69.66a.85.85,0,0,0-.16.5c.06.11.18.06.25,0s.51.33.69.07a3.6,3.6,0,0,0,0-.36A.81.81,0,0,0,34.58,69.66Z" fill-rule="evenodd"/><path d="M31.71,90.27a.88.88,0,0,0-.17.5c.07.11.18.06.25,0s.52.33.69.07a3.6,3.6,0,0,0,0-.36C32.21,90.34,32,90.18,31.71,90.27Z" fill-rule="evenodd"/><path d="M38.48,107.39a.81.81,0,0,0-.17.5c.07.11.18.06.25,0s.52.33.69.08a3.29,3.29,0,0,0,0-.36C39,107.46,38.76,107.3,38.48,107.39Z" fill-rule="evenodd"/><path d="M65,91c0,.2-.09.22-.07.46a.79.79,0,0,0,.82-.15A.41.41,0,1,0,65,91Z" fill-rule="evenodd"/><path d="M89.8,79.16a.73.73,0,0,0-.07.24.59.59,0,0,0,.29.46c.18.16.31.21.46,0C90.6,79.25,90.14,79.05,89.8,79.16Z" fill-rule="evenodd"/><path d="M62.9,106.1a.73.73,0,0,0-.07.24.59.59,0,0,0,.29.46c.18.16.31.21.46,0C63.7,106.19,63.24,106,62.9,106.1Z" fill-rule="evenodd"/><path d="M74.36,88h-.28a.58.58,0,0,0-.32.07c0,.11,0,.1,0,.22l.12.26c.25,0,.5.26.73.14a1.43,1.43,0,0,0,.12-.31c0-.09-.07-.1-.07-.2A.36.36,0,0,1,74.36,88Z" fill-rule="evenodd"/><path d="M47.17,102.07h-.28a.6.6,0,0,0-.32.07c0,.11,0,.1,0,.22s.08.17.12.26c.25,0,.5.26.73.14a2.39,2.39,0,0,0,.11-.32c0-.09-.06-.09-.07-.19A.36.36,0,0,1,47.17,102.07Z" fill-rule="evenodd"/><path d="M53.47,95.22c0-.27-.17-.38-.28-.23a.53.53,0,0,0,.13.52c.09-.06.18,0,.24,0s0-.1,0-.17A.14.14,0,0,1,53.47,95.22Z" fill-rule="evenodd"/><path d="M41.69,100c0-.27-.16-.38-.28-.23a.58.58,0,0,0,.13.52c.1-.06.18,0,.25,0s0-.1,0-.17S41.72,100.1,41.69,100Z" fill-rule="evenodd"/><path d="M34.85,96.15c0-.27-.17-.37-.29-.22a.56.56,0,0,0,.14.52c.09-.07.18,0,.24,0s0-.1,0-.17S34.87,96.21,34.85,96.15Z" fill-rule="evenodd"/><path d="M34.06,104.33c0-.27-.17-.38-.29-.23a.58.58,0,0,0,.13.52c.1-.06.19,0,.25,0s0-.1,0-.17S34.08,104.38,34.06,104.33Z" fill-rule="evenodd"/><path d="M53.81,109.37c0-.27-.17-.38-.28-.23a.53.53,0,0,0,.13.52c.09-.07.18,0,.25,0s0-.1,0-.17A.15.15,0,0,1,53.81,109.37Z" fill-rule="evenodd"/><path d="M61,101c0-.27-.17-.38-.29-.23a.58.58,0,0,0,.13.52c.1-.06.19,0,.25,0s0-.1,0-.17S61,101,61,101Z" fill-rule="evenodd"/><path d="M55.41,88.25c0-.27-.17-.38-.29-.23a.58.58,0,0,0,.13.52c.1-.06.19,0,.25,0s0-.1,0-.17S55.43,88.31,55.41,88.25Z" fill-rule="evenodd"/><path d="M54.07,100.11c0-.27-.17-.38-.29-.23a.6.6,0,0,0,.13.53c.1-.07.19,0,.25,0s0-.1,0-.17S54.09,100.17,54.07,100.11Z" fill-rule="evenodd"/><path d="M45.21,106.85c0-.27-.17-.38-.28-.23a.58.58,0,0,0,.13.52c.09-.06.18,0,.25,0s0-.1,0-.17S45.24,106.9,45.21,106.85Z" fill-rule="evenodd"/><path d="M50.82,113.24c0-.27-.17-.37-.28-.22a.58.58,0,0,0,.13.52c.09-.07.18,0,.25,0s0-.1,0-.17S50.84,113.3,50.82,113.24Z" fill-rule="evenodd"/><path d="M41.62,113.49c0-.27-.16-.38-.28-.23a.6.6,0,0,0,.13.53c.1-.07.18,0,.25,0s0-.1,0-.16S41.65,113.55,41.62,113.49Z" fill-rule="evenodd"/><path d="M89.88,70c0-.27-.17-.38-.28-.23a.58.58,0,0,0,.13.52c.09-.06.18,0,.25,0s0-.1,0-.17S89.91,70.06,89.88,70Z" fill-rule="evenodd"/><path d="M81.8,77.82c0-.26-.17-.37-.28-.22a.56.56,0,0,0,.13.52c.09-.07.18,0,.25,0s0-.1,0-.17S81.82,77.88,81.8,77.82Z" fill-rule="evenodd"/><path d="M77.09,71.63c0-.27-.17-.38-.28-.23a.53.53,0,0,0,.13.52c.09-.06.18,0,.24,0s0-.1,0-.16S77.11,71.69,77.09,71.63Z" fill-rule="evenodd"/><path d="M87.43,91.29c0-.27-.17-.38-.28-.23a.6.6,0,0,0,.13.53c.09-.07.18,0,.25,0s0-.1,0-.16S87.46,91.35,87.43,91.29Z" fill-rule="evenodd"/><path d="M78.56,94.35c0-.27-.17-.38-.29-.23a.6.6,0,0,0,.13.53c.1-.07.19,0,.25,0s0-.1,0-.17S78.58,94.41,78.56,94.35Z" fill-rule="evenodd"/><path d="M70.71,91.5c0-.27-.17-.38-.28-.23a.58.58,0,0,0,.13.52c.09-.06.18,0,.25,0s0-.1,0-.17S70.73,91.56,70.71,91.5Z" fill-rule="evenodd"/><path d="M66.9,94.29c0-.27-.17-.38-.28-.23a.6.6,0,0,0,.13.53c.09-.07.18,0,.25,0s0-.1,0-.17S66.92,94.35,66.9,94.29Z" fill-rule="evenodd"/><path d="M63.42,86c0-.27-.17-.38-.28-.23a.6.6,0,0,0,.13.53c.09-.07.18,0,.25,0s0-.1,0-.17S63.44,86.05,63.42,86Z" fill-rule="evenodd"/><path d="M38.52,87.21c0-.27-.17-.38-.29-.23a.58.58,0,0,0,.13.52c.1-.06.19,0,.25,0s0-.1,0-.17S38.54,87.27,38.52,87.21Z" fill-rule="evenodd"/><path d="M40,77.65c0-.27-.16-.38-.28-.23a.58.58,0,0,0,.13.52c.09-.06.18,0,.25,0s0-.1,0-.17S40,77.71,40,77.65Z" fill-rule="evenodd"/><path d="M32.65,77.61c0-.27-.17-.38-.28-.23a.55.55,0,0,0,.13.52c.09-.06.18,0,.25,0s0-.1,0-.17S32.67,77.67,32.65,77.61Z" fill-rule="evenodd"/><path d="M46.73,88.61c0-.27-.17-.38-.29-.22a.58.58,0,0,0,.13.52c.1-.07.19,0,.25,0s0-.1,0-.17S46.75,88.67,46.73,88.61Z" fill-rule="evenodd"/><path d="M45.2,70.43c0-.27-.17-.37-.29-.22a.58.58,0,0,0,.13.52c.1-.07.19,0,.25,0s0-.1,0-.17S45.22,70.49,45.2,70.43Z" fill-rule="evenodd"/><path d="M87.93,75.74c0-.27-.17-.38-.29-.23a.6.6,0,0,0,.13.53c.1-.07.19,0,.25,0s0-.09,0-.16S88,75.8,87.93,75.74Z" fill-rule="evenodd"/><path d="M86.84,86.41c0-.27-.17-.38-.28-.23a.55.55,0,0,0,.13.52c.09-.06.18,0,.25,0s0-.1,0-.17S86.86,86.47,86.84,86.41Z" fill-rule="evenodd"/><path d="M93.44,82.52c0-.27-.17-.38-.29-.23a.58.58,0,0,0,.13.52c.1-.06.19,0,.25,0s0-.1,0-.17S93.46,82.57,93.44,82.52Z" fill-rule="evenodd"/><path d="M93.59,92.72c0-.27-.17-.38-.29-.22a.56.56,0,0,0,.14.52c.09-.07.18,0,.24,0s0-.1,0-.17S93.61,92.78,93.59,92.72Z" fill-rule="evenodd"/><path d="M82.58,104.58c0-.27-.17-.38-.28-.23a.58.58,0,0,0,.13.52c.09-.06.18,0,.25,0s0-.1,0-.17S82.61,104.64,82.58,104.58Z" fill-rule="evenodd"/><path d="M90.7,106.65c0-.27-.17-.38-.28-.23a.58.58,0,0,0,.13.52c.09-.06.18,0,.25,0s0-.1,0-.17S90.73,106.71,90.7,106.65Z" fill-rule="evenodd"/><path d="M81.41,113.7c0-.27-.17-.38-.29-.23a.58.58,0,0,0,.13.52c.1-.06.19,0,.25,0s0-.1,0-.17S81.43,113.76,81.41,113.7Z" fill-rule="evenodd"/><path d="M77.11,107.57c0-.27-.17-.38-.29-.23a.56.56,0,0,0,.14.52c.09-.06.18,0,.24,0s0-.1,0-.17S77.13,107.62,77.11,107.57Z" fill-rule="evenodd"/><path d="M73.09,100.74c0-.27-.17-.38-.28-.23a.58.58,0,0,0,.13.52c.09-.07.18,0,.25,0s0-.1,0-.17A.15.15,0,0,1,73.09,100.74Z" fill-rule="evenodd"/><path d="M67.8,106.53c0-.27-.17-.38-.28-.23a.58.58,0,0,0,.13.52c.09-.06.18,0,.25,0s0-.1,0-.16S67.82,106.59,67.8,106.53Z" fill-rule="evenodd"/><path d="M63.87,113c0-.27-.17-.38-.29-.23a.56.56,0,0,0,.14.52c.09-.06.18,0,.24,0s0-.1,0-.17S63.89,113.07,63.87,113Z" fill-rule="evenodd"/><path d="M60.71,109c0-.27-.17-.38-.29-.23a.6.6,0,0,0,.13.53c.1-.07.19,0,.25,0s0-.1,0-.17S60.73,109.05,60.71,109Z" fill-rule="evenodd"/><path d="M73.22,115.3c0-.27-.17-.38-.28-.23a.58.58,0,0,0,.13.52c.09-.07.18,0,.25,0s0-.1,0-.17S73.25,115.35,73.22,115.3Z" fill-rule="evenodd"/><path d="M70.15,110.7c0-.27-.17-.37-.28-.22A.58.58,0,0,0,70,111c.09-.07.18,0,.25,0s0-.1,0-.17S70.17,110.76,70.15,110.7Z" fill-rule="evenodd"/><path d="M61.24,117.68c0-.27-.17-.37-.28-.22a.53.53,0,0,0,.13.52c.09-.07.18,0,.24,0s0-.1,0-.17S61.26,117.74,61.24,117.68Z" fill-rule="evenodd"/><path d="M76.17,82.72c0-.27-.17-.38-.28-.23A.6.6,0,0,0,76,83c.09-.07.18,0,.25,0s0-.1,0-.17S76.2,82.78,76.17,82.72Z" fill-rule="evenodd"/><path d="M67.27,77.42c0-.27-.17-.38-.29-.23a.55.55,0,0,0,.14.52c.09-.06.18,0,.24,0s0-.1,0-.17S67.29,77.48,67.27,77.42Z" fill-rule="evenodd"/><path d="M59.93,81.13c0-.27-.17-.38-.28-.23a.58.58,0,0,0,.13.52c.09-.06.18,0,.25,0s0-.1,0-.17S60,81.19,59.93,81.13Z" fill-rule="evenodd"/><path d="M52.64,74.56c0-.27-.17-.38-.28-.23a.58.58,0,0,0,.13.52c.09-.06.18,0,.25,0s0-.1,0-.17S52.67,74.62,52.64,74.56Z" fill-rule="evenodd"/><path d="M43.55,84.58c0-.27-.17-.38-.29-.23a.55.55,0,0,0,.14.52c.09-.06.18,0,.24,0s0-.1,0-.17S43.57,84.64,43.55,84.58Z" fill-rule="evenodd"/><path d="M36.46,75.77c0-.27-.16-.38-.28-.23a.58.58,0,0,0,.13.52c.1-.06.18,0,.25,0s0-.1,0-.17S36.49,75.83,36.46,75.77Z" fill-rule="evenodd"/><path d="M11.78,107.87a34,34,0,0,0,6.13,2.65A5.11,5.11,0,0,0,24.14,107a5.17,5.17,0,0,0-3.54-6.23c-.45-.15-.9-.3-1.35-.47l-.34-.13.22.09a5.06,5.06,0,0,0-1-.45c-.43-.21-.85-.44-1.27-.67a5.07,5.07,0,0,0-5.11,8.75Z"/><path d="M46,46.66c-1.25.3-3.16,1-3.23,2.61,0,.81,1.08.91,1.66,1a7.12,7.12,0,0,0,3.76-.79c.75-.39,3-1.95,1.35-2.61a6.15,6.15,0,0,0-3.53,0,4.52,4.52,0,0,0-2.45,1.26c-1.31,1.5,2,1.66,2.76,1.61,1.42-.1,4-.47,4.23-2.24s-2-1.8-3.09-1.74c-1.65.1-3.82.64-4.7,2.23-.28.5-.55,1.27,0,1.71a3,3,0,0,0,1.24.45c.4.1.81.21,1.21.29a6.21,6.21,0,0,0,4.49-.7,2.8,2.8,0,0,0,.84-2.12c.1-.86-4.79-.74-5,.68,0,.24,0,1-.28,1.2l1.43-.58-.2.06,1.92-.18c.28,0-.39-.11-.38-.11a2.46,2.46,0,0,1-.61-.14c-.29-.15,0,0,0,0a.69.69,0,0,1,0-.4,2.18,2.18,0,0,1,.42-.76s.27-.26.28-.24l-.07,0a4.85,4.85,0,0,1-1.86.3l-.93-.17c.21.07.24.06.32.35a1.25,1.25,0,0,1,0,.64l-.08.12c.27-.35.7-.42,1.29-.22A1.48,1.48,0,0,1,48.09,48L47.93,48c.13.32.33.29.39,0,0,0-.68.25-.21.12l-1.23.28L45.22,48a1.07,1.07,0,0,1-.15.22,1.64,1.64,0,0,1-.26.27,3.81,3.81,0,0,1-.32.24c.06,0,0,0-.06,0-.63.31-.06.2,1.7-.33l1.12.06.45.14a.54.54,0,0,1,0-.22,3.9,3.9,0,0,0,.19-.35c.26-.4.41-.26-.41-.06.39-.09,2.17-.54,1.6-1.24-.24-.28-.9-.32-1.21-.33a6.56,6.56,0,0,0-1.92.18Z" fill="#d3ccae"/><path d="M59.59,61.86c0-.45-.12-1.6.39-1.73a2.24,2.24,0,0,1,.81.11c.06,0,.72.24.47.1l-1.54-1.16.12.11-1.11-1.41c.14.37-1,.61-1.29.7s-1.17.61-1.51.48l2.79,2-.1-.11.68,1c-.18-.87,1-2,1.84-2L60,59.48l.13.07-2.3-2,.08.12-.34-.6v.14c0,.32.5.8.68,1a9.18,9.18,0,0,0,1.46,1.25c.2.14,1.85,1.22,1.81.54s-.62-1.1-1-1.46a8.64,8.64,0,0,0-2.33-1.69,1.84,1.84,0,0,0-2.16.48,2.12,2.12,0,0,0-.73,1.78c.16.68,1,1.33,1.46,1.75a6.49,6.49,0,0,0,2.26,1.4c.78.21,1.72-.36,2.44-.62s1.52-.39,1.06-1.27a6.64,6.64,0,0,0-1.89-1.88,7.78,7.78,0,0,0-1.81-1,7.2,7.2,0,0,0-2.82-.59l-.17.06a8.2,8.2,0,0,0-.24,2.15c0,.31.51.82.68,1a8.69,8.69,0,0,0,1.46,1.25c.22.15,1.82,1.23,1.81.54Z" fill="#d3ccae"/><path d="M79.39,45.81c-1.54-.17-3.42,0-4.31,1.44-1.27,2.06,1.48,3.07,3,3.38s3.61.51,5-.33a1.52,1.52,0,0,0,.8-1.42c-.06-.83-.76-1.28-1.42-1.67a4.78,4.78,0,0,0-3.36-.69c-1,.36,0,1.11.52,1.39l.15.1-.77-.56c.35.37-.17.94-.51,1.08a2.23,2.23,0,0,1-.77.14c-.29,0-.49,0-.12.07l1.62.75-.14-.09.51.55c-.58-1,.82-2.08,1.71-2,.57.06,1.85,0,1.2-.88s-2.22-1.17-3.19-1.28Z" fill="#d3ccae"/><path d="M68.39,49.25a6.09,6.09,0,0,0-3.27-.45,3.42,3.42,0,0,0-2.17.68c-.8.91.28,1.63,1,1.94A9.2,9.2,0,0,0,69,52a2.19,2.19,0,0,0,1.52-.75,1.92,1.92,0,0,0,.19-1.18c-.07-.73-2-.72-2.5-.72a6.6,6.6,0,0,0-1.77.21c-.2.06-.76.21-.73.5a2.43,2.43,0,0,1,0,.66c0,.07,0,.15,0,.22s-.16.11-.07.07l.89-.25a4.35,4.35,0,0,1,2.21,0l-.38-.11a3.32,3.32,0,0,1-.41-.17c-.18-.12-.35-.52-.09-.64l-.9.26-1,.07L64.17,50l-.1,0a5.63,5.63,0,0,0,3.42.27c.44-.09,1.84-.46.9-1Z" fill="#d3ccae"/><path d="M43.84,54c-1,0-2,0-2.92,0s-1.58.68-1.07,1.67a6.11,6.11,0,0,0,6.62,2.83c.91-.2-.46-1.71-.7-1.93C45.16,56,44,55,43,55.16a3.56,3.56,0,0,1-2,0l1,.51-.14-.09,1.44,1.27-.1-.11.5.8c0,.14,0,.12.12,0a1.59,1.59,0,0,1,.38-.07c.22,0,.45,0,.68,0h1.81c1,0,.45-1,0-1.49a6.08,6.08,0,0,0-1.45-1.27A3,3,0,0,0,43.84,54Z" fill="#d3ccae"/><path d="M59.43,42.41l-1.45,0a3.69,3.69,0,0,0-1,0c-1.23.39.45,1.46.84,1.68a10.07,10.07,0,0,0,4.44,1.5c.67,0,1.51-.26,1.53-1,0-.26-.38-.49-.54-.6a9,9,0,0,0-1.57-.83c-.17-.07-2.47-.92-2.49-.53a.9.9,0,0,1-.33.7,1.84,1.84,0,0,1-.36.15l-.11,0a4.6,4.6,0,0,0,2,.83l.76.51c-.23-.18.4-.28.44-.28.56,0,1.11,0,1.66,0,1,0-.31-.82-.56-1a12.16,12.16,0,0,0-1.76-.8,4.92,4.92,0,0,0-1.46-.38Z" fill="#d3ccae"/><path d="M78.08,55.42a5.82,5.82,0,0,0-2.39.82,5.68,5.68,0,0,0-2.3,2c-.59,1.13.72,1.33,1.55,1.24a8.66,8.66,0,0,0,4.56-2.31c.4-.36,1-.89,1-1.46S80,55,79.5,55a6.17,6.17,0,0,0-1.82.14,8.23,8.23,0,0,0-2.77,1.55c-.83.68-1.93,2-.41,2.61a5.83,5.83,0,0,0,3.53.07c1.3-.45,3.5-1.59,3.36-3.22,0-.44-.08-1.24-.47-1.54s-1.24,0-1.72.19a9.21,9.21,0,0,0-2.81,1.43c-.52.4-1.59,1.17-1.28,1.94.24.62,2.21-.56,2.48-.74.44-.28,2-1.22,1.74-1.93v-.06l-.37.61-.59.51-1.66,1c-.25.12.17-.05.25-.08l.48-.15-.71.08c.38,0,.43,1.39.35,1.7l.37-.61-.09.11,2.51-1.72-.12,0,.89-.27A7.09,7.09,0,0,1,79,56.55a3.27,3.27,0,0,1-.62-.14c-.78-.34.22-.6-1.2.4l-1.66,1,.2-.08-.89.26c.23,0,1.61-.24,1.4.25l.38-.61c-.59.74,1.4-1.22,1.6-1,.16,0,.16-.06,0,0a1.22,1.22,0,0,1-.27,0c-.34,0-.49-.12-.34-.46l-.38.6.12-.14L76,57.71l.19-.11-1.6.77a.26.26,0,0,1,.26,0,6,6,0,0,0,3-1.62c.32-.29,1.32-1.39.25-1.29Z" fill="#d3ccae"/><path d="M46.71,58.51c-.19,0-2.25-3.29-3.54-3.29.19,0,2.25,3.29,3.54,3.29Z" fill="#d3ccae"/><path d="M36.35,51.73c.72.06,2.12.33,2.34-.66s-.95-1.46-1.65-1.68a5.92,5.92,0,0,0-2.74-.18c-.87.15-1.47.87-1,1.71a3.61,3.61,0,0,0,2.22,1.36c.76.2,2,.45,2.44-.42a2,2,0,0,0-.31-2.28,2,2,0,0,0-2.47-.33c-.52.36-.31.92.07,1.29a5.53,5.53,0,0,0,1.47,1c.49.23,1.27.37,1.66-.13s-.06-1.08-.51-1.3a3.23,3.23,0,0,1-1-.68L37,50.74h0l-.6,0c-.44-.45-.66-.49-.66-.13l-.06.24.42-.27L36,50.7l.59-.06a2.19,2.19,0,0,1-.67-.11l-.29-.1c-.28-.18-.27-.11,0,.22l-.29.37H35.2l.33,0A2.27,2.27,0,0,1,36,51l.32,0,.32.1c.14,0,.14,0,0,0l-.33-.44,0,.13,0-.48,0,.12.3-.37-.13.06L37,50a6,6,0,0,1-.73-.06c-.5,0-1.18.16-1.15.78s.76,1,1.28,1Z" fill="#fcfaf2"/><path d="M55.14,50.2a2.53,2.53,0,0,0,1.27,2.2c.52.34,1.27.45,1.56-.23.53-1.21-1.57-3.45-2.71-2.37-.57.54,1.09,2.41,1.64,1.88l.17-.12.12,0c-.52-1.27-.85-1.64-1-1.1a.71.71,0,0,0-.08.15.18.18,0,0,1-.07,0c-.34.2-.08.45.77.77l.14.47,0-.05a1.84,1.84,0,0,0-.72-1.42c-.13-.12-1-.74-1.09-.21Z" fill="#fcfaf2"/><path d="M70.14,57.45a10,10,0,0,0-2,.09c-.7.17-.55.72-.19,1.18s1.31,1.43,2.09,1.39a4.83,4.83,0,0,0,1.93-1c.27-.16-1.16-1.33-1.27-1.4-.55-.37-1.2-.65-1.78-.2-.19.15,1.47,2,1.89,1.64a.79.79,0,0,1,.42-.2c.16,0,.41.13.12-.07l-1.27-1.41-1,.6c-.16.09-.31.2-.47.27-.64.28-.63-.34.44.74l.49.58c-.24-.4.56-.47.75-.48l1.52,0c.35,0-.39-.77-.44-.82-.28-.26-.85-.88-1.29-.86Z" fill="#fcfaf2"/><path d="M73.15,47a2.71,2.71,0,0,0-1.55.19,1.29,1.29,0,0,0-.48,1.54,2.26,2.26,0,0,0,2.48,1.56,1.12,1.12,0,0,0,.79-1.42,1.31,1.31,0,0,0-1.42-1,.34.34,0,0,1,.21.08s.15.4.1.17l0,.62v-.08l-.51.7c-.23,0-.22.06,0,0h.38c1.55,0,1.37-2.41,0-2.43Z" fill="#fcfaf2"/><path d="M88.22,47.51a1.39,1.39,0,0,0-1.47.27c-.43.54.08,1.31.43,1.73a2.35,2.35,0,0,0,1.55,1c.57,0,.92-.46,1.19-.9.39-.61-.68-1.55-1.12-1.84a1.74,1.74,0,0,0-2.31.23c-.44.55.83,1.84,1.33,1.93a1.71,1.71,0,0,0,1.72-.54c.47-.58-1.25-2.35-1.62-1.91a1.23,1.23,0,0,1-1.14.5l1.33,1.93a1,1,0,0,1,1.32-.36L88.3,47.69a2.62,2.62,0,0,1-.45.6,1.31,1.31,0,0,1-.24.17c-.57.22-.2-.76.6.87l.16.45c-.07-.39.68-.37.88-.31.54.16.33-.52.21-.76a2.46,2.46,0,0,0-1.24-1.2Z" fill="#fcfaf2"/><path d="M66,40.81c-.61,0-1.42-.14-1.93.28a.92.92,0,0,0,.07,1.43,4,4,0,0,0,3.84.34.64.64,0,0,0,.17-1.12,1.78,1.78,0,0,0-1.75-.27c-.11,0-.27,0-.38.08s-.2,0-.15,0a1.39,1.39,0,0,0,.37.51l-.38.3.13-.05-.58.12c.34,0,.68,0,1,0s1.15-.28,1-.84-.93-.78-1.44-.79Z" fill="#fcfaf2"/><path d="M51,61.46,50,61.54c-1.3.1-.62,1.1.21,1.39a5.5,5.5,0,0,0,4.62-.34c.79-.47-.25-1.13-.71-1.3a3.35,3.35,0,0,0-2.72.1C50.3,62,52.44,63.1,53.2,62.7c.15-.08.29-.18.45-.12l-.71-1.3a2.74,2.74,0,0,1-2.37.37L50.79,63,51.85,63c.43,0,1-.21.71-.74A1.82,1.82,0,0,0,51,61.46Z" fill="#fcfaf2"/><path d="M36.24,54.35,38,53.28a9.26,9.26,0,0,1,.86-.51c.3-.14,1-.15.46-.47.14.08,1.09.62,1.22.37s-.88-.78-1-.83a2.86,2.86,0,0,0-2.66-.39A27.41,27.41,0,0,0,34,53.16c-.17.1.9.78,1,.82.27.15.91.56,1.22.37Z" fill="#ede7ce"/><path d="M42.46,51.71a3.41,3.41,0,0,0,2-.15,4,4,0,0,0,.65-.41c.67-.47,0-.27.34,0,1.51,1,2.79.7,4.5.84,1.54.12,1.61-1.6.08-1.73a16.9,16.9,0,0,1-2.14,0c-.72-.15-1.19-.71-1.9-.93a2.81,2.81,0,0,0-1.52-.07,7.13,7.13,0,0,0-1.27.88c-.5-.08-1.35-.06-1.56.53s.31,1,.82,1.1Z" fill="#ede7ce"/><path d="M65,54.33a1.38,1.38,0,0,1,1-1.62,3.16,3.16,0,0,1,1.89.19,4.12,4.12,0,0,0,2.67-.1c.49-.34.35-.55,1-.8.27-.1.46,0,.63-.28.4-.73-.82-1.33-1-1.85a2.61,2.61,0,0,0-1.21-1c-.08,0-1.06-.45-.93-.15a3.63,3.63,0,0,0,.66.94c.75,1,.12.57-.48,1-.23.15-.27.37-.47.54a2.14,2.14,0,0,1-1.64.43c-1,0-2-.67-3.06-.31a1.58,1.58,0,0,0-1.15,1.88C63,53.82,65,54.52,65,54.33Z" fill="#ede7ce"/><path d="M78.29,52a.86.86,0,0,1,1-.92c.31,0,.6.42.87.58a1.68,1.68,0,0,0,1.27.28,1.92,1.92,0,0,0,1.14-.57c.32-.31.64-1.31,1-.91.73.77,2.68-.73,1.82-1.65A2.16,2.16,0,0,0,83,48.44c-1.08.43-1.52,1.35-2.2,2.21L81.86,50l-.34,0,.76.14c-1.51-.77-2.59-1.61-4.34-.74A3.38,3.38,0,0,0,76,52.86c.14,1.21,2.42.21,2.29-.88Z" fill="#ede7ce"/><path d="M75.13,62.19a4.18,4.18,0,0,1,4.07-2.35c1.13.25,1.8,1,2.85,0S80.88,57.69,80,58.52l-.19.18.74-.33c.4,0-.37-.24-.54-.3a4.42,4.42,0,0,0-1.19-.24,5.71,5.71,0,0,0-2.61.46,5.37,5.37,0,0,0-3.39,3c-.41,1.21,1.93,2.11,2.33.9Z" fill="#ede7ce"/><path d="M70.83,58.85a1.64,1.64,0,0,0-1.43.44c-.62.63.87,2.38,1.61,1.92a8.19,8.19,0,0,0,1.35-1.06c.64-.62-1-2.5-1.61-1.91a7.64,7.64,0,0,1-1.35,1L71,61.21a.83.83,0,0,1,.73-.3c.56.07.52-.53.37-.89a2,2,0,0,0-1.28-1.17Z" fill="#ede7ce"/><path d="M75.14,51.52a2.74,2.74,0,0,0-.31-1.69A2.17,2.17,0,0,0,73.27,49a2.48,2.48,0,0,0-2.83,2.13c-.09,1.32,2.38,1.07,2.45-.11,0,0,0-.32.08-.28s-.49.21-.48.11.16.21.16.21a1.44,1.44,0,0,1,0,.62c-.07,1.33,2.4,1.07,2.46-.11Z" fill="#ede7ce"/><path d="M69.64,42.15a10.11,10.11,0,0,0-3.25.18,4.56,4.56,0,0,0-2,2.26c-.26.48,2,1.28,2.44.57s.86-1.62,1.55-1.85a8,8,0,0,1,2.3,0c.39,0,.85-.12.59-.56s-1.2-.56-1.63-.56Z" fill="#ede7ce"/><path d="M59.19,51.81c-1.88-.25-4.19,0-5,2-.57,1.33,1.78,2.12,2.31.89.43-1,1.53-.92,2.45-.8a1.06,1.06,0,1,0,.29-2.08Z" fill="#ede7ce"/><path d="M54.46,63.07l-.16-.15.38,1.29c.34-1.25,2.29,0,2.91.07A1.56,1.56,0,0,0,59,63.69c.63-.74.49-1.62,1.73-1.65,1.07,0,1.93.62,3.06.48l-1.1-2.1c-1.24.3-2.49.57-3.75.77-.25,0-1.13,0-1.31.18-.56.51,1.46.7,1.62.8,1.36.92,1.84-.82.71-1.59a3.13,3.13,0,0,0-3.28-.51,1.48,1.48,0,0,0-.63,2.11c1.3,2.68,5.88.81,8,.3,1.11-.27-.25-2.21-1.1-2.11-1.42.17-2.75-.89-4.17-.43a2,2,0,0,0-1.1.82c-.58.87-.48,1.18-1.65.89s-2-.59-2.89.4a1.43,1.43,0,0,0,.12,2.17c1.08,1.08,2.31,0,1.22-1.15Z" fill="#ede7ce"/><path d="M49.33,58.62c.4-1.55-.65-2.23-2.14-1.88a4.86,4.86,0,0,0-2,1.12c-.43.42-.27.31-.81.39a12.44,12.44,0,0,1-1.93,0c-.37,0-1.39.1-1.48.59s.58.6.95.6a12.4,12.4,0,0,0,3.8-.17,5,5,0,0,0,1.33-.8,7.9,7.9,0,0,0,.69-.49c.53-.28.47-.32-.19-.12-.54-.07-.76.18-.63.75-.23.87,2.24.77,2.43,0Z" fill="#ede7ce"/><path d="M86.73,51.42a5.9,5.9,0,0,0,2.61-.29c.28-.12,2.07-1,1.15-1.32A3.46,3.46,0,0,0,88,50c-.72.3-1.76.79-2,1.61-.1.34.85,0,.94-.08.33-.13,1.17-.45,1.29-.85s.3-.36-.37,0-.42.21,0,.27c.13,0,.77.08.67.26l.44-.41.66-.34.73-.22a7.43,7.43,0,0,1-1.49,0,3.05,3.05,0,0,0-1.47.51,2.05,2.05,0,0,0-.61.45s-.19.24,0,.24Z" fill="#ede7ce"/><path d="M49.2,47.58a.34.34,0,0,1,.59-.18c.2.14.34.4.54.47s.28-.08.4,0a6.84,6.84,0,0,1,.93.34c.08,0,0,.27.07.34s.21-.15.24-.12-.07.24,0,.27.16,0,.24,0c.76.43,1.7.65,2.17,1.48a5.63,5.63,0,0,1,2.07.74c.35.16.73.26,1.1.47.13.08.32,0,.47.09a2.31,2.31,0,0,1,.49.3c.2.15.35.29.49.38a2.61,2.61,0,0,1,.87,1.49,2,2,0,0,0,.81,1.3c-.39.41.12.42.23.65s0,.65.35,1c.11.12.13.3.26.38s.49.06.57.19-.28.34-.46.5a1.07,1.07,0,0,1-1.4-.38c-.35-.43-.36-1.11-.67-1.57,0-.06.06-.23-.3-.1.26-.48-.15-.6-.21-.88s0-1.09-.59-1.2a1.11,1.11,0,0,0-.34-.92A9.73,9.73,0,0,0,56.75,52a16.87,16.87,0,0,0-1.86-.62c-.09,0-.14-.14-.23-.18s-.23.11-.27.08c-.28-.16-.41-.56-.7-.7-.1,0-.26.05-.36,0-.62-.16-.91-.88-1.46-1.09-.08,0-.26.09-.33,0-.25-.13-.41-.45-.64-.59-.48-.3-1.14-.2-1.52-.52a.57.57,0,0,1-.15.18C49.25,48.08,49.22,48.5,49.2,47.58Z" fill="#30a565" fill-rule="evenodd"/><path d="M59.12,53.25C58,53.41,59,53,58.9,52.9s-.29,0-.32,0-.24-.18-.24-.29.33-.1.38-.14-.35,0-.33,0,.36-.08.36-.1-.14,0-.14,0c0-.28-.5-.52.15-.88-.57-.13-.56-.38-.78-.61s-.31-.22-.37-.35-.24-.07-.3-.12-.08-.23-.2-.33c-.46-.34,1-.76.11-1,.8-.1.11-.15.11-.24s.37-.21.17-.34,0-.11-.1-.15-.63-.08-.65-.13a6.53,6.53,0,0,1,1-.1c1.38,0,1.52.18,1.63.29s-.23.37-.11.54-.24.07.32.06c-.66.12-.2.2-.32.3s-.86.34-.22.45c-.35.12-.56.24-.5.34s.39.28.5.42.55.34.8.52c0,0-.07.07,0,.1s.33,0,.33,0-.37.25-.31.34.27,0,.32,0c.29.15-.39.45-.24.61s.32,0,.32,0-.26.23-.28.32.56.25.33.48l.34,0A8.6,8.6,0,0,1,59.12,53.25Z" fill="#30a565" fill-rule="evenodd"/><path d="M57.34,50.86c-1.11.36-.17-.15-.25-.23s-.28,0-.31,0-.25-.08-.26-.16.3-.16.35-.2-.34.1-.32.08.34-.14.34-.16-.14,0-.15,0c-.08-.21-.55-.28,0-.73-.57.05-.59-.14-.85-.26s-.33-.08-.42-.16-.23,0-.3,0-.12-.15-.26-.18c-.5-.1.84-.89-.11-.79.73-.33.07-.14,0-.2s.29-.28.07-.31,0-.08-.13-.07-.62.16-.65.13.55-.25.86-.4c1.31-.47,1.48-.39,1.61-.36s-.11.37,0,.46-.21.13.32-.06c-.6.31-.14.22-.23.34s-.73.53-.1.41c-.31.2-.48.36-.41.42s.43.1.57.18a6.26,6.26,0,0,0,.86.19s0,.08,0,.09.32-.08.32-.07-.31.3-.24.36.26-.05.32,0c.31,0-.31.46-.14.55a3.06,3.06,0,0,0,.32,0c0,.07-.23.25-.23.33s.57.09.38.33a2.1,2.1,0,0,1,.32-.1A9.87,9.87,0,0,1,57.34,50.86Z" fill="#30a565" fill-rule="evenodd"/><path d="M55.35,50.87c-1.14.23-.15-.18-.22-.28s-.28,0-.31,0-.23-.13-.24-.21.33-.12.38-.16l-.33,0s.35-.1.36-.12-.15,0-.15,0c-.05-.23-.51-.38.12-.76-.57,0-.58-.25-.81-.41s-.33-.14-.4-.24-.24,0-.31,0-.1-.18-.23-.24c-.48-.21.95-.79,0-.86.77-.21.09-.14.07-.2s.34-.24.12-.31,0-.09-.13-.1-.63,0-.66,0a6.71,6.71,0,0,1,.92-.25c1.36-.24,1.53-.13,1.65-.06s-.16.35,0,.48-.23.09.33,0c-.64.22-.17.21-.28.31s-.8.42-.16.41c-.33.15-.52.29-.46.36s.42.18.54.29a5.39,5.39,0,0,0,.84.34s-.06.07,0,.09.33,0,.33,0-.34.26-.28.34.26,0,.31,0c.3.09-.36.43-.21.55s.32,0,.32,0-.25.22-.27.3.56.17.33.39l.33-.05A8.66,8.66,0,0,1,55.35,50.87Z" fill="#30a565" fill-rule="evenodd"/><path d="M53.73,49.74c-1.11.35-.18-.17-.26-.26s-.29,0-.31,0-.26-.1-.27-.19.31-.15.35-.19-.34.08-.33.07.35-.14.35-.16-.14,0-.15,0c-.08-.23-.56-.35,0-.79-.57,0-.6-.2-.85-.36s-.33-.12-.42-.22-.24,0-.31,0-.11-.18-.25-.23c-.5-.19.9-.87-.06-.9.76-.25.08-.15.07-.22s.32-.26.1-.32,0-.1-.13-.11a6.16,6.16,0,0,1-.66,0,7.14,7.14,0,0,1,.91-.29c1.35-.29,1.52-.19,1.65-.13s-.16.37,0,.49-.23.11.32,0c-.63.25-.16.21-.26.32s-.78.48-.14.43c-.32.18-.5.32-.43.39s.42.16.56.26a4.83,4.83,0,0,0,.86.28s-.06.08,0,.1.32-.07.33-.06-.32.29-.26.36.27,0,.32,0c.31.07-.32.46-.14.57,0,0,.3,0,.31,0s-.22.25-.23.33.58.11.38.35l.33-.09A9.87,9.87,0,0,1,53.73,49.74Z" fill="#30a565" fill-rule="evenodd"/><path d="M52.52,50.31c-.9.74-.26-.12-.38-.19s-.26.13-.3.12-.3-.05-.35-.14.24-.25.26-.31-.3.19-.29.17.28-.25.27-.26-.13,0-.15,0c-.17-.22-.7-.25-.27-.86-.57.13-.67-.11-1-.25a1.79,1.79,0,0,1-.49-.19s-.25,0-.33,0-.17-.2-.32-.25c-.57-.2.71-1.11-.27-1.09.74-.34.06-.18,0-.27s.29-.32.06-.4,0-.11-.14-.13-.63.09-.67,0A6.29,6.29,0,0,1,49.1,46c1.35-.33,1.52-.22,1.65-.16s-.12.41,0,.54-.22.13.32-.05c-.6.32-.13.25-.22.37s-.69.61-.06.49c-.28.23-.43.42-.35.5s.47.12.63.2a3.5,3.5,0,0,0,.93.14c.05,0,0,.09,0,.1s.3-.14.31-.13-.23.37-.14.43.24-.1.3-.1c.32,0-.16.56,0,.62,0,0,.28-.14.3-.13s-.13.32-.11.4.6-.07.51.23l.27-.21A10.41,10.41,0,0,1,52.52,50.31Z" fill="#30a565" fill-rule="evenodd"/><path d="M47,49.05c0-1.16.18-.11.28-.15s.06-.28.08-.3.16-.2.24-.19,0,.35,0,.4,0-.35,0-.33,0,.37,0,.38,0-.14.06-.14c.21,0,.43-.41.63.29.14-.55.32-.51.51-.7s.18-.29.28-.34.06-.23.1-.28.17-.06.24-.18c.26-.43.5,1.1.73.17,0,.81.1.12.16.12s.14.38.24.18.08,0,.11-.1a4.84,4.84,0,0,1,.1-.64c0,.11,0,.6.06.94,0,1.39-.15,1.52-.23,1.63s-.28-.23-.41-.12,0-.25-.06.32c-.07-.68-.14-.21-.21-.34s-.22-.88-.33-.25c-.07-.35-.15-.57-.23-.52s-.23.36-.35.46a7.7,7.7,0,0,0-.46.74s0-.08-.07-.05,0,.32,0,.32-.16-.39-.24-.35,0,.26-.07.31c-.15.27-.3-.46-.44-.33s0,.31-.06.31-.14-.3-.21-.33-.27.51-.41.24c0,.16,0,.26,0,.33A11.21,11.21,0,0,1,47,49.05Z" fill="#30a565" fill-rule="evenodd"/><path d="M47.75,49.76c0-1.16.2-.12.31-.16s0-.29.07-.31.15-.21.24-.2.06.34.08.39,0-.35,0-.33,0,.37.05.37,0-.14,0-.14c.23,0,.44-.44.7.24.13-.55.32-.52.51-.73s.18-.3.28-.35.06-.24.09-.3.18-.07.26-.19c.25-.45.61,1.06.8.12.09.8.11.11.18.11s.18.37.27.16.09,0,.11-.1,0-.63.07-.66a9.22,9.22,0,0,1,.13.94c.06,1.39-.07,1.53-.15,1.65s-.31-.22-.45-.1-.06-.24,0,.33c-.12-.67-.17-.21-.25-.33s-.3-.86-.38-.22c-.1-.35-.2-.56-.28-.51s-.23.38-.35.48-.28.54-.45.77c0,0-.06-.07-.08,0s0,.32,0,.33-.19-.39-.27-.34,0,.26-.06.31c-.15.28-.35-.43-.5-.29s0,.31,0,.32-.17-.29-.24-.32-.27.52-.44.26a1.68,1.68,0,0,1,0,.34A10.88,10.88,0,0,1,47.75,49.76Z" fill="#30a565" fill-rule="evenodd"/><path d="M47.74,51.3c.08-1.16.26-.11.39-.15s.07-.28.11-.3.21-.2.31-.19a3.27,3.27,0,0,1,.07.4s0-.35.05-.33,0,.37,0,.38,0-.14.07-.14c.28,0,.57-.41.84.28.2-.54.44-.5.69-.7s.24-.28.38-.33.08-.23.13-.29.23-.06.33-.18c.34-.42.66,1.11,1,.18.06.81.14.12.22.12s.19.38.32.18.11,0,.15-.1.09-.63.13-.65a7.07,7.07,0,0,1,.09,1c0,1.39-.2,1.52-.31,1.63s-.38-.23-.55-.12-.06-.25-.08.32c-.1-.68-.19-.22-.29-.34s-.29-.88-.44-.25c-.1-.36-.2-.57-.3-.53s-.31.37-.47.47-.4.51-.62.74c0,0-.06-.08-.1-.06s0,.33-.06.33-.21-.4-.31-.35-.06.26-.1.3c-.2.27-.4-.45-.59-.32,0,0-.06.31-.08.31s-.19-.3-.28-.33-.36.5-.55.23c0,.17,0,.26,0,.34A9,9,0,0,1,47.74,51.3Z" fill="#30a565" fill-rule="evenodd"/><path d="M50.92,52c-.13-1.16.16-.14.24-.19s0-.29,0-.31.11-.22.19-.22.08.34.11.39,0-.35,0-.33.07.36.08.37,0-.14,0-.15c.2,0,.34-.47.64.19.06-.56.23-.54.38-.76s.12-.31.21-.37,0-.24,0-.3.15-.09.2-.21c.18-.46.64,1,.71.06.16.79.11.1.17.1s.19.35.26.14.07,0,.08-.11,0-.63,0-.66.13.59.2.93c.19,1.37.09,1.52,0,1.65s-.3-.2-.41-.07-.08-.24,0,.33c-.18-.66-.17-.19-.26-.31s-.34-.83-.35-.19c-.12-.35-.23-.55-.29-.49s-.16.39-.26.51a6.41,6.41,0,0,0-.32.79s-.06-.06-.08,0,0,.33,0,.33-.21-.37-.27-.31a2.69,2.69,0,0,0,0,.31c-.1.29-.35-.4-.47-.26s0,.32,0,.32-.18-.27-.24-.3-.18.54-.36.3a2.92,2.92,0,0,1,0,.34A11.21,11.21,0,0,1,50.92,52Z" fill="#30a565" fill-rule="evenodd"/><path d="M52,52.34c0-1.16.32-.12.48-.16s.08-.29.12-.31.26-.21.39-.2.07.34.11.39,0-.35,0-.33,0,.37.06.38.06-.15.09-.15c.35,0,.7-.44,1.07.25.23-.56.53-.53.84-.74.15-.1.29-.29.45-.35s.1-.23.16-.29.28-.08.4-.2c.42-.44.88,1.07,1.23.13.11.8.18.11.28.11s.26.36.42.16.13,0,.17-.11.09-.63.15-.65a8.61,8.61,0,0,1,.14.94c0,1.39-.19,1.53-.32,1.65s-.48-.22-.7-.1c0,0-.08-.25-.08.32-.15-.67-.26-.2-.38-.32s-.4-.86-.57-.23c-.13-.35-.27-.56-.39-.51s-.38.38-.58.49-.47.53-.74.77c0,0-.08-.07-.12-.05s-.05.33-.07.33-.27-.38-.4-.34-.07.27-.11.32c-.24.28-.52-.44-.76-.3,0,0-.06.31-.09.32s-.25-.29-.36-.32-.44.52-.69.26a2.22,2.22,0,0,1,0,.34A6.22,6.22,0,0,1,52,52.34Z" fill="#30a565" fill-rule="evenodd"/><path d="M53.93,53.81c0-1.16.25-.14.38-.19s0-.29.07-.31.19-.23.29-.23.09.33.13.39,0-.36,0-.34.07.37.09.37,0-.14,0-.15c.29,0,.52-.49.9.15.11-.57.35-.57.57-.81s.18-.32.31-.4,0-.24.07-.3.21-.11.28-.24c.24-.49.89.94,1,0,.24.77.16.08.24.07s.27.32.36.1.1,0,.11-.13-.07-.64,0-.67.2.58.32.9c.31,1.35.18,1.52.1,1.66s-.44-.14-.6,0-.11-.24,0,.32c-.25-.63-.25-.16-.37-.26s-.49-.79-.5-.14c-.18-.33-.32-.52-.41-.45s-.25.42-.39.54a6.84,6.84,0,0,0-.5.85s-.08-.06-.11,0,0,.33,0,.34-.28-.36-.38-.3,0,.27-.06.32c-.16.3-.48-.38-.66-.23,0,0,0,.32,0,.33s-.23-.27-.33-.29-.32.55-.55.3a1.87,1.87,0,0,1,0,.34A7,7,0,0,1,53.93,53.81Z" fill="#30a565" fill-rule="evenodd"/><path d="M54.29,54.33c-.16-1.15.24-.15.35-.22s0-.29.06-.31.18-.24.29-.24a3.3,3.3,0,0,1,.13.38s0-.35,0-.33.07.36.09.37,0-.15,0-.15c.28,0,.54-.49.88.17.15-.56.39-.54.64-.75s.23-.3.37-.36.09-.23.13-.29.25-.07.35-.19c.38-.43.7,1.1,1,.18,0,.81.14.13.22.13s.19.39.34.2.11,0,.16-.09a5.66,5.66,0,0,1,.19-.63,6.83,6.83,0,0,1,0,.95c-.15,1.38-.31,1.5-.42,1.6s-.35-.26-.53-.15c0,0,0-.25-.08.32-.07-.68-.18-.22-.26-.35s-.29-.88-.43-.25c-.1-.35-.21-.57-.31-.52s-.3.38-.45.48-.35.54-.54.78c0,0-.07-.07-.1,0s0,.32,0,.33-.24-.38-.33-.33,0,.27-.06.32c-.14.29-.42-.4-.59-.25,0,0,0,.31,0,.32s-.22-.27-.31-.29-.24.56-.47.33c0,.16,0,.26,0,.34A9.2,9.2,0,0,1,54.29,54.33Z" fill="#30a565" fill-rule="evenodd"/><path d="M69.94,51.89c-.34.71-.38,0-.61,0,0,0-.14.16-.19.16a2.93,2.93,0,0,1-.48.07s0-.23-.08-.27-.08.23-.09.21,0-.25,0-.25-.07.09-.12.08c-.43,0-.83.29-1.3-.11-.25.4-.59.44-.92.66a4.25,4.25,0,0,1-.47.37c-.06,0-.07.19-.12.24s-.29.15-.4.28c-.34.43-1.2-.3-1.35.47-.32-.45-.22,0-.33.07s-.37-.1-.49.11-.15.07-.17.16.08.44,0,.48a2.76,2.76,0,0,1-.4-.5c-.39-.84-.2-1-.09-1.18s.59-.13.81-.32c0,0,.15.11,0-.24.34.34.34,0,.51,0s.66.35.71-.13c.23.16.43.24.56.15s.38-.39.6-.53.51-.5.85-.72c0,0,.11,0,.16,0s0-.23.07-.23.39.2.55.15.09-.18.15-.22c.33-.21.7.26,1,.18,0,0,.11-.2.15-.2s.32.22.47.26.69-.24,1,0a.69.69,0,0,1,.13-.2C70,51.39,70.21,51,69.94,51.89Z" fill="#30a565" fill-rule="evenodd"/><path d="M67.93,48.4c.6,1-.15.23-.24.35s.12.26.1.3-.05.29-.13.34-.25-.24-.31-.27.19.3.17.29-.25-.28-.26-.27,0,.13,0,.15c-.23.18-.16.67-.83.35.23.54,0,.67,0,1,0,.15,0,.36,0,.49s.11.21.13.28-.09.2-.06.34c.15.49-1.28-.17-.65.56-.7-.4-.15,0-.18.06s-.4-.06-.25.1,0,0,.07.11a5,5,0,0,0,.61.21c-.11,0-.59-.13-.93-.18-1.36-.27-1.43-.58-1.47-.76s.43-.37.44-.6c0,0,.25.08-.21-.25.62.28.3-.07.47-.08s.88.29.49-.23c.34.15.57.21.6.1s-.06-.48,0-.67-.09-.65-.07-1c0,0,.1,0,.11,0s-.19-.26-.18-.28.44.13.5,0-.13-.24-.13-.3c0-.35.63,0,.71-.18,0,0-.15-.29-.13-.31s.35.11.45.07,0-.65.35-.55a1.85,1.85,0,0,1-.16-.3A7.28,7.28,0,0,1,67.93,48.4Z" fill="#30a565" fill-rule="evenodd"/><path d="M69.89,49.59c0,1.16-.17.12-.27.17s0,.29-.05.31-.12.22-.19.21a3.72,3.72,0,0,1-.11-.38s0,.35,0,.33-.08-.36-.09-.37,0,.14,0,.15c-.21,0-.29.48-.67-.13,0,.56-.15.57-.25.82s0,.32-.1.4a2,2,0,0,0,0,.29c0,.16-.1.11-.1.25,0,.45-.9-.77-.58.13-.47-.65-.14-.05-.18,0s-.31-.23-.27,0-.06,0,0,.14.35.53.34.56-.4-.45-.63-.71c-.87-1.08-.84-1.28-.83-1.42s.39,0,.45-.17c0,0,.18.18-.12-.3.43.52.26.09.39.15s.63.65.44,0c.23.28.4.44.44.36s.06-.43.14-.57.11-.59.23-.87c0,0,.08,0,.1,0s-.07-.32,0-.32.29.32.37.25,0-.26,0-.32c.12-.3.46.36.59.21s0-.32,0-.33.21.27.29.29.27-.54.47-.29a1.68,1.68,0,0,1,0-.34A8.32,8.32,0,0,1,69.89,49.59Z" fill="#30a565" fill-rule="evenodd"/><path d="M72.9,50.65c-.07,1.16-.22.11-.34.14s-.06.29-.09.31-.19.2-.27.18,0-.34-.07-.4,0,.35,0,.33,0-.37,0-.37S72,51,72,51c-.24,0-.5.42-.73-.28-.17.55-.38.51-.6.7s-.2.29-.32.34-.07.22-.11.28-.2.06-.29.18c-.29.43-.57-1.1-.84-.17,0-.81-.12-.12-.19-.12s-.16-.38-.28-.18-.09,0-.12.1a6.28,6.28,0,0,1-.12.64,7.74,7.74,0,0,1-.07-.94c0-1.39.17-1.52.26-1.63s.33.23.48.12.05.25.06-.32c.09.67.17.21.25.34s.26.88.39.25c.08.35.17.57.26.52s.27-.36.41-.46A5.75,5.75,0,0,0,71,49.6s0,.07.08,0,0-.32,0-.32.18.39.27.35.06-.26.09-.31c.17-.27.34.45.51.33,0,0,0-.32.07-.32s.17.3.24.34.32-.51.48-.24c0-.16,0-.26,0-.34A9.5,9.5,0,0,1,72.9,50.65Z" fill="#30a565" fill-rule="evenodd"/><path d="M69.66,53.32c0,1.16-.22.11-.33.15s-.06.28-.1.3-.2.19-.29.17,0-.34,0-.4-.05.35-.06.33,0-.37,0-.38,0,.14-.07.13c-.24,0-.57.36-.69-.37-.26.51-.47.43-.74.56a1.67,1.67,0,0,1-.43.24s-.14.19-.2.23-.23,0-.37.08c-.49.27-.18-1.21-1-.66.39-.7-.08-.2-.2-.31s0-.48-.25-.62c-.12-.07-.08-.22-.21-.3S64,52.3,64,52.11s.62-.16,1-.16.61.13.82.16l.27,0h.1l0,0a.72.72,0,0,0,.27-.18s-.07.13,0,.1-.12.22.2-.25c-.33.58,0,.22-.06.35s-.13.89.2.34c0,.36,0,.6.07.58s.36-.27.51-.33.43-.42.64-.6c0,0,0,.08.06.06s.09-.31.1-.31.08.42.17.39.09-.25.12-.3c.17-.25.23.49.39.38s.07-.31.09-.31.11.31.18.34.28-.49.41-.22c0-.16,0-.26,0-.34A13,13,0,0,1,69.66,53.32Z" fill="#30a565" fill-rule="evenodd"/><path d="M72.36,52.87c-.21,1.14-.25.08-.38.1s-.1.28-.14.29-.22.17-.31.15,0-.35,0-.41-.08.35-.09.33,0-.38,0-.38-.06.13-.09.12c-.26,0-.61.34-.74-.4-.28.51-.5.42-.79.55-.14.06-.31.21-.46.22s-.16.19-.22.23-.25,0-.39.06c-.52.27-.24-1.27-.87-.54.27-.76-.08-.16-.15-.2s0-.41-.21-.29-.09-.05-.17,0-.35.53-.4.53a7.19,7.19,0,0,1,.34-.89c.62-1.24.81-1.29.95-1.35s.21.35.4.32c0,0,0,.25.19-.27-.19.65.08.27.1.41s-.07.92.28.38c0,.36,0,.6.08.59s.39-.26.55-.31.46-.41.68-.6c0,0,0,.09.07.07s.1-.31.11-.31.1.42.2.4.09-.25.13-.29c.2-.24.27.5.46.39,0,0,.1-.3.12-.3s.13.32.2.36.4-.46.54-.17c0-.16.05-.25.07-.33A9.1,9.1,0,0,1,72.36,52.87Z" fill="#30a565" fill-rule="evenodd"/><path d="M69.28,55.12c-.12,1.15-.25.09-.34.11s-.12.27-.16.28-.25.15-.34.11,0-.34,0-.4-.13.32-.14.3.1-.36.09-.37-.09.12-.11.11c-.22-.08-.72.13-.55-.59-.45.36-.63.18-.94.14a1.55,1.55,0,0,1-.53-.07s-.23.06-.32,0-.21-.18-.38-.22-.18-.42-.06-.69.21-.46-.3-.53c.76-.28.07-.2.05-.34s.34-.32.17-.58.05-.2,0-.32-.5-.47-.41-.64.61.17.9.35a5.19,5.19,0,0,0,1,.78.32.32,0,0,0,.14,0c.08,0,.35,0,.19,0s-.13.08-.07.11-.23.1.32,0c-.63.24-.16.17-.27.27s-.7.57-.09.38c-.28.23-.4.43-.32.48s.45,0,.6,0a1.92,1.92,0,0,0,.8-.26s0,.09,0,.08.22-.25.23-.25-.14.39-.06.39.16-.21.2-.24c.2-.19,0,.5.14.43a2.6,2.6,0,0,0,.15-.28s0,.32,0,.36.28-.46.33-.19c0-.15,0-.25,0-.33C69.26,54.38,69.32,53.76,69.28,55.12Z" fill="#30a565" fill-rule="evenodd"/><path d="M47.81,14,48,14l.29-.06a1.88,1.88,0,0,0,.46-.16,5.23,5.23,0,0,0,.65-.25c0-.11.51-.18.45-.32a4.82,4.82,0,0,1,1.36-.05,1.35,1.35,0,0,1,.19,1.14,3.69,3.69,0,0,1-.42.89c-.22.4-.3.79-.49,1.05-.07.1-.22.15-.28.24s0,.29-.09.4-.18.08-.22.14a3.07,3.07,0,0,0-.2.41,1.49,1.49,0,0,0-.17.36.71.71,0,0,0,0,.43c.06.1.37.16.48.24s.12.14.2.2.2.08.21.15-.1.33,0,.47.33.26.56.43c.07,0,.1.23.19.25s.19-.09.25-.06.08.18.15.22c.24.15.64.13,1,.29a9.26,9.26,0,0,0,.87.51c.23.06.72-.06,1,.15a1.35,1.35,0,0,1,.32.53c.1.19,0,.68.06,1,0,0,.13,0,.12.06a2.46,2.46,0,0,0-.06.58,8.78,8.78,0,0,1,.36,1.45c0,.5.09.95.14,1.45,0,.31.22.74-.28.86.14.17,0,.49,0,.82s.07.8-.56.68-.38-.33-.74-.52a2.32,2.32,0,0,0,.43-1.24c0-.14-.16-.3-.17-.43s.2-.46.14-.68-.2-.22-.22-.33.07-.21.06-.31-.15-.19-.18-.28c-.08-.27.25-.71-.21-.85a1.2,1.2,0,0,0-.18-1.07,1.3,1.3,0,0,0-1.12-.46c-.19,0-.57.31-.79.32a.89.89,0,0,1-.49-.19c-.08-.08,0-.23-.13-.29s-.5-.12-.76-.23-.58-.6-1-.71c0,0-.1.08-.16.08s-.08-.11-.14-.11c-.24,0-.53.09-.86.06-.55-.44-.34-1.27-.37-1.8a9.3,9.3,0,0,1-.25-2.29s.1-.05.1-.12-.13-.12-.14-.11.22-.14.29-.21a1.94,1.94,0,0,0,.31-.68c0-.16,0-.36,0-.48s.24-.13.28-.24a2.7,2.7,0,0,0-.12-.94c0-.22-.08-.35-.42-.35Z" fill-rule="evenodd"/><path d="M54.55,2.85a4.5,4.5,0,0,0,1.12.2,4.67,4.67,0,0,0,.64.27c.11-.09.47.27.55.13.38.39.62.58,1,.9.1.51-.4.7-.65,1.08a4.53,4.53,0,0,0-.34,1c0,.12-.16.22-.2.35s.06.36,0,.54-.14.2-.17.31,0,.53,0,.82a6.78,6.78,0,0,0,0,.77,2.3,2.3,0,0,0,.09.77c.09.19.44.38.6.6s.18.35.29.52a2.6,2.6,0,0,1,.32.5c0,.21-.07.51,0,.74a5,5,0,0,0,.6,1c.06.11.05.33.14.42s.24.05.3.12,0,.25.08.33c.22.32.66.54.94.84a4.66,4.66,0,0,0,.85.82c.26.14.91.18,1.27.78A2.05,2.05,0,0,1,62,17.79c0,.33-.44.72-.54,1.07,0,0,.11.09.06.15a2.08,2.08,0,0,0-.36.57c-.13.53-.08,1.23-.17,1.9a8.43,8.43,0,0,0,0,1.88c0,.41.23.93-.26,1.16.14.21,0,.66.05,1.11s.16,1.08-.48,1-.41-.37-.79-.56a5,5,0,0,0,.31-1.82c0-.2-.17-.41-.17-.61s.2-.7.17-1-.19-.35-.19-.52.11-.33.12-.48-.11-.34-.11-.51c0-.49.47-1,.14-1.47A3.65,3.65,0,0,0,60.29,18c0-.54-.46-.69-1.11-1-.28-.13-.85,0-1.18-.21a2.18,2.18,0,0,1-.61-.6c-.07-.14,0-.29-.07-.41-.19-.33-.53-.5-.76-.79s-.37-1-.7-1.26c0,0-.13,0-.19,0s0-.14-.1-.17c-.22-.12-.55-.13-.84-.24-.4-.55-.07-1.33-.1-1.94-.05-.84-.42-1.63-.51-2.58,0,0,.08-.09.06-.16A.89.89,0,0,0,54,8.58c0-.1.17-.21.21-.31a2.81,2.81,0,0,0,.07-.95,5.57,5.57,0,0,1-.1-.66c0-.19.2-.3.21-.48a14.32,14.32,0,0,1-.09-1.6,2.07,2.07,0,0,0,0-1.41C54.35,3,54.52,3.05,54.55,2.85Z" fill-rule="evenodd"/><path d="M69,10.43a4.06,4.06,0,0,0,1-.49,5.71,5.71,0,0,0,.64-.25c0-.12.52-.16.48-.29l1.32-.11c.46.37.2.94.15,1.4s.1.77.06,1.14c0,.14-.12.27-.13.4s.11.35.09.54-.14.21-.16.31c-.05.25-.05.52-.12.8s-.18.48-.24.7a5,5,0,0,0-.2.69c0,.19.21.52.21.8a3.22,3.22,0,0,1-.08.58,1.5,1.5,0,0,1-.12.58c-.13.18-.42.27-.58.43s-.3.65-.54,1c-.06.09-.26.16-.31.26s0,.23,0,.3-.21.08-.27.15c-.23.25-.33.69-.58,1s-.54.46-.65.7,0,.64-.09.84-.25.16-.37.23-.58,0-.8.22c0,0,.08.11,0,.12a1.26,1.26,0,0,0-.48.2,5.81,5.81,0,0,0-.59,1.25,3.16,3.16,0,0,0-.26,1.33c0,.3.18.67-.31.8.14.16,0,.48.07.8s.24.74-.41.78-.44-.23-.84-.35a4.8,4.8,0,0,0,.29-1.47c0-.15-.16-.34-.14-.51s.26-.53.27-.8-.13-.32-.1-.45.16-.25.21-.36,0-.31,0-.44c.12-.42.69-.6.54-1.12a5.08,5.08,0,0,0,1.09-1,3.63,3.63,0,0,0,.72-1.41c.07-.21-.12-.69-.06-.91a1,1,0,0,1,.3-.42c.09-.06.23,0,.31,0s.17-.42.27-.62.55-.43.53-.74c0,0-.1-.07-.12-.11s.07-.07,0-.12a3.3,3.3,0,0,0-.44-.55c0-.36.71-.48,1-.8s.28-1,.35-1.57c0,0,.1,0,.09-.09a.4.4,0,0,0-.15-.07c0-.06.19-.11.24-.17a.84.84,0,0,0,.1-.6c0-.15-.16-.29-.16-.41s.16-.21.14-.32c0-.28-.4-.56-.56-.88s-.21-.52-.65-.59C68.92,10.56,69.08,10.51,69,10.43Z" fill-rule="evenodd"/></svg>