<svg xmlns="http://www.w3.org/2000/svg" viewBox="0 0 60 80"><title>illo-bev-hubcap</title><path d="M18.66,14.71a.25.25,0,0,0-.37-.15l-.16.09c-.26-.06-.43,0-.62.37,0,0,0,.07,0,.11a5.33,5.33,0,0,1-1.69.46.71.71,0,0,1-.73.59.75.75,0,0,1-.75-.93,3.13,3.13,0,0,1-.53-.39.27.27,0,0,0-.27,0c-1.45-1.56-3.52-.14-5.32,1a.23.23,0,0,0-.11.21.27.27,0,0,0,0,.47,3.6,3.6,0,0,0,.3,1.36c.06.15.29.27.42.11.78-.95,3.27-2.26,4.45-1,.33.34.25.76.7,1,1.36.62,4-1,5-1.76a.28.28,0,0,0,.12-.29Z" fill="#c13333"/><path d="M20.45,19.83c-.29-.68-.37-1.1-.49-1.31s0-.15-.08-.28a.26.26,0,0,0-.24-.19h-.12a.27.27,0,0,0-.22.13.41.41,0,0,0-.05.09.26.26,0,0,0,0,.21l-.41.17c-1.31.57-2.27,1.55-3.91,1.51-1.39.35-2.26.1-2.6-.75a3.55,3.55,0,0,0-.23-.31A5,5,0,0,0,9.5,20a.2.2,0,0,0-.1.2l-.21,0a.23.23,0,0,0-.16.24s0,0,0,0c-.67,2.14-4.17,2.42-3,5a.26.26,0,0,0,.4.05A15.16,15.16,0,0,1,11.63,22c2.07-.76,1,.45,2.17,1,1.94,1,5.2-2.07,6.56-2.88A.27.27,0,0,0,20.45,19.83Z" fill="#c13333"/><path d="M9,20.36c0-.08-.08-.14-.11-.22.05-.84-.52-1.57-.55-2.45,0-.21-.44-2.16-.88-1.5s-1.7,1.88-2.13,2.5c-.13.11-.22.25-.37.36a.79.79,0,0,0-.28.88,7.35,7.35,0,0,0,.46,3.14c.17.81,1.21.63,1.46,0,.33-.83,1.2-1.2,1.77-1.82C8.85,21.22,9.25,20.88,9,20.36Z" fill="#3143c4"/><path d="M38.46,29.44C27.58,28.92,16,28.88,6.68,34.55,4,36.17,1.44,38.51,1,41.6a9,9,0,0,0,.77,4.77c1.83,4.29,5.8,7.41,10.14,9.13S21,57.7,25.61,58c8.23.43,16.79.14,24.18-3.51,4.2-2.08,8.1-5.57,9-10.19.75-4.06-2-6.43-5.07-9.21s-11.1-5.18-15.21-5.6" fill="#fff"/><path d="M38.6,29.51c-.72-.36,1.57-.09,2.5.12s2.15.51,2.71.66c.21.05.36.05.54.1a45.34,45.34,0,0,1,4.49,1.54c.26.11.18,0,.27.07a.91.91,0,0,1,.24.15c.34.13.36.1.66.24a18.19,18.19,0,0,1,2.51,1.37,17.11,17.11,0,0,1,2.25,1.86,19.36,19.36,0,0,1,3.16,3.43,6.94,6.94,0,0,1,1.2,4.64,10,10,0,0,1-.72,2.91,14.17,14.17,0,0,1-3.2,4.48c-.54.47-.12.31-.52.68a6.53,6.53,0,0,1-1.16.83,19,19,0,0,1-4,2.44c-1,.48-1.91.94-2.94,1.33a31.38,31.38,0,0,1-3.5,1.06c-1,.25-2.23.49-3.3.71-.68.13-1.19.28-1.78.39s-1.52.22-2.23.29a46.93,46.93,0,0,1-6.17.3c-1,0-2.21-.06-3.07-.12-.21,0-.28,0-.42,0s0,0-.28-.06c-1.27-.08-1.93-.09-3.49-.23s-2.14-.2-3.23-.33c-.6-.07-1.24-.19-1.82-.29a26.44,26.44,0,0,1-6.09-1.62,18.9,18.9,0,0,1-3.31-1.84c-.43-.3-.69-.56-1-.82s-.8-.61-1.23-1l-.52-.51A19.12,19.12,0,0,1,3.47,50.5a15.44,15.44,0,0,1-1.9-3.09,12,12,0,0,1-1-3.33,8.58,8.58,0,0,1,0-2.86,7.57,7.57,0,0,1,1.13-2.79,13.74,13.74,0,0,1,4.46-4.07,31.77,31.77,0,0,1,5.54-2.6,34.25,34.25,0,0,1,3.75-1.13c.54-.15,1.1-.22,1.64-.32s1.1-.18,1.66-.26c1.16-.2,2.32-.39,3.43-.52s2.34-.21,3.74-.29l2.5-.08c.48,0,.91-.08,1.38-.1s.71,0,1.11,0h1.52c.64,0,1.24.08,1.81.09s1.39,0,2.08,0a8.66,8.66,0,0,1,2.07.14c.43.24-1,.16-1.38.14-1.5.07-3.59,0-5.53,0-1.27,0-2.45.08-3.72.13-1,0-2,.08-3,.16a54.39,54.39,0,0,0-6.54.91,28.32,28.32,0,0,0-9.11,3.25,21.06,21.06,0,0,0-2.5,1.38,13.09,13.09,0,0,0-3.78,3.54,6.46,6.46,0,0,0-1.12,4.65A10.62,10.62,0,0,0,3,47.19a13.78,13.78,0,0,0,1.63,2.2,17.23,17.23,0,0,0,3.55,3.1,19.14,19.14,0,0,0,3.91,1.91,42.74,42.74,0,0,0,9.8,2.21c1.14.14,2.24.3,3.41.4s2.48.15,3.71.21,2.18.14,3.3.13c.76,0,1.58-.06,2.33-.09,1.83-.08,3.67-.14,5.47-.39.94-.12,1.94-.35,2.82-.55s1.71-.37,2.53-.6a31,31,0,0,0,4.7-1.89l2-1A25.89,25.89,0,0,0,55,50.54a10.78,10.78,0,0,0,2.26-2.93,9.76,9.76,0,0,0,1.4-3.56,6.26,6.26,0,0,0-.72-4.22A15.17,15.17,0,0,0,55,36.37c-.55-.51-1.09-1-1.65-1.51a14.28,14.28,0,0,0-1.73-1.22c-.33-.2-.63-.38-1-.56-.76-.39-1.58-.65-2.14-1-1.49-.47-3.76-1.34-5.81-1.83-.75-.2-1.52-.37-2.16-.48S39.18,29.67,38.6,29.51Z" fill-rule="evenodd"/><path d="M37.9,32.69c-10.22-.49-21.09-.59-29.79,3.8C5.62,37.75,3.22,39.58,2.81,42a6.14,6.14,0,0,0,.76,3.76,18.14,18.14,0,0,0,9.57,8.31,48,48,0,0,0,12.9,2c7.72.4,15.76.22,22.66-2.6,3.93-1.6,7.57-5.38,8.33-9,.68-3.2-1.94-5.08-4.82-7.29S41.76,33.05,37.9,32.69" fill="#704311"/><path d="M38,30.8a6.36,6.36,0,0,1,1.26.15c.67.07-.37-.24.51-.09a47.05,47.05,0,0,1,6.57,1.71c.87.26-.7-.26.05-.06a23.36,23.36,0,0,1,4.31,1.87,10.54,10.54,0,0,1,1.42.9c.5.37,1,.79,1.49,1.23a14.18,14.18,0,0,1,2.82,3c.11,0-.41-.65-.6-.89a7.11,7.11,0,0,1,1.5,2.69,6.19,6.19,0,0,1,0,3.14,11.2,11.2,0,0,1-3.19,5.31c-3,2.94-7.09,4.6-11.22,5.61-1,.23-2,.4-2.93.55-1.15.19-2.26.38-3.4.49a64.13,64.13,0,0,1-6.8.16,70.73,70.73,0,0,1-12.53-1.05,26.55,26.55,0,0,1-6.5-2.22l-.94-.53c-.11-.06-.43-.18-.43-.18-.27-.15-.53-.43-.84-.63A17.15,17.15,0,0,1,5.72,49.6,13.64,13.64,0,0,1,2.94,45a7.85,7.85,0,0,1-.46-3,6.44,6.44,0,0,1,1-3,12.72,12.72,0,0,1,4.3-4,30.16,30.16,0,0,1,7.69-3.31,55.75,55.75,0,0,1,11.39-1.66c1.34-.08,2.74-.19,4.08-.18s2.61.18,4.23.13a16.63,16.63,0,0,0,2.93.23c0,.24-1.49.13-2.24.2a13.28,13.28,0,0,1-1.59.22,75.65,75.65,0,0,0-7.66.2c-1.72.15-2.32.16-4.41.38-.6.07-1,.17-1.68.28A41.62,41.62,0,0,0,15,32.69l-1.5.51L12,33.8l-1.72.74c-.29.13-.48.32-.73.45a18.45,18.45,0,0,0-2.33,1.33,12.79,12.79,0,0,0-2.14,1.93A7.53,7.53,0,0,0,3.6,40.61a5.42,5.42,0,0,0-.23,2.83,11.34,11.34,0,0,0,3.1,5.64A18.07,18.07,0,0,0,12,52.93a31.45,31.45,0,0,0,10.36,2.43,94.07,94.07,0,0,0,10.71.32A49.43,49.43,0,0,0,40.17,55a34.48,34.48,0,0,0,8.18-2.46,16.37,16.37,0,0,0,6.8-5.36,8.07,8.07,0,0,0,1.49-5c-.21-1.74-1.47-3.21-2.83-4.48-.68-.63-1.41-1.3-2.1-1.86a13.17,13.17,0,0,0-2.3-1.42,35.81,35.81,0,0,0-4.93-2A65,65,0,0,0,38,30.8Z" fill-rule="evenodd"/><path d="M57.81,46.64c.12,0,.07.43.09.62.06.34.3-.22.29.24a7.08,7.08,0,0,1-1.07,3.33c-.21.43.23-.31.09.08a8.08,8.08,0,0,1-1.49,1.93,14,14,0,0,1-3,2.64c0,.13.34-.19.49-.25a36.46,36.46,0,0,1-11.42,5.51c-.49.14-1,.24-1.48.37s-1.11.4-1.68.55c-1.11.26-2.29.42-3.44.6a46.1,46.1,0,0,1-6.45.7c-1.24,0-2.46-.05-3.52-.11a5.24,5.24,0,0,0-.54-.06,1,1,0,0,0-.25.09c-.15,0-.33-.16-.52-.19-.43-.06-1.3-.07-1.87-.19-.81-.18-1.59-.43-2.65-.7a35,35,0,0,1-5.7-2.06,21.11,21.11,0,0,1-3.81-2.07,33.5,33.5,0,0,1-4.46-4A12.9,12.9,0,0,1,4,52.05a12.11,12.11,0,0,0-1.16-1.9,2.65,2.65,0,0,0-.6-1.42c.35-.18.67.51,1,.76A4.1,4.1,0,0,1,4,50a16,16,0,0,0,2.52,2.94c.63.59.83.81,1.56,1.58.21.21.43.3.68.51A27.13,27.13,0,0,0,11,56.8c.43.3.95.5,1.4.76.28.15.53.35.81.49s.3.06.43.12c.41.19.76.47,1.2.63s.92.29,1.41.46c.92.35,1.85.77,2.85,1.05a33.21,33.21,0,0,0,6.78,1.09,38.91,38.91,0,0,0,10.77-.91,35,35,0,0,0,3.51-.81,48.5,48.5,0,0,0,8.29-3.16,37.41,37.41,0,0,0,4.84-3,14,14,0,0,0,3.68-3.83A8.6,8.6,0,0,0,57.81,46.64Z" fill-rule="evenodd"/><path d="M44,40.73a174.09,174.09,0,0,1,4.47-19,2.81,2.81,0,0,1,.33-.8,2.83,2.83,0,0,1,1.06-.84c1.79-1,6.88-1.47,8.88-1.81a4.84,4.84,0,0,1,.25,2.2c-1.6.32-5.49,1.15-7.09,1.47a1.53,1.53,0,0,0-.78.31c-.2.18-.5-.08-.59.18a88.29,88.29,0,0,0-4,17.89" fill="#fff"/><path d="M46.64,40.34c-.06,0,0-.41.06-.58s-.16.16-.12-.24c.14-1,.28-2,.42-3.08,0-.41-.07.34,0,0s.21-1.28.36-2.11.38-2.28.69-3.43c-.06-.05-.1.32-.15.45q.59-2.66,1.4-5.35c.27-.9.55-1.8.86-2.71.08-.23.14-.45.24-.69a1.24,1.24,0,0,1,.56-.69,6.79,6.79,0,0,1,1.48-.39l1.33-.23,1.52-.36,3-.58.63-.13-.22.25a4.52,4.52,0,0,0-.27-2.06l.35.21-2.8.48c-1.08.18-2.13.37-3,.58-.15,0-.33.06-.47.1a1.59,1.59,0,0,0-.18.11c-.13,0-.31,0-.47.05a12.07,12.07,0,0,0-1.49.55,4.28,4.28,0,0,0-.89.49,1.64,1.64,0,0,0-.57.95c-.52,1.65-1.08,3.49-1.49,5.1-.3,1.25-.59,2.49-.88,3.68-.44,1.75-.86,3.45-1.16,5.09-.11.6-.18,1.23-.3,1.83a11.53,11.53,0,0,0-.41,1.88,3.78,3.78,0,0,0-.33,1.3c-.19,0,0-.7-.05-1a3.92,3.92,0,0,1-.08-.75c.2-1.21.37-2.2.58-3.47.13-.79.2-1.05.43-2,.06-.27.07-.47.13-.77.18-.82.46-1.71.66-2.52l.31-1.44c.06-.28.17-.56.23-.84s0-.27.06-.4c.1-.41.24-.79.35-1.2s.18-.88.31-1.34c.24-.87.55-1.76.83-2.68a5.47,5.47,0,0,1,.61-1.53,3.73,3.73,0,0,1,1.41-1,16.41,16.41,0,0,1,3.13-.92c1.79-.37,3.63-.66,5.44-1a.39.39,0,0,1,.42.25h0a5.22,5.22,0,0,1,.29,2.38.42.42,0,0,1-.32.36h0l-2.11.44L53.72,22l-1.9.39c-.34.06-.58.13-.66.25a2.54,2.54,0,0,0-.33.79C50.39,24.7,50,26,49.6,27.33c-.94,3.34-1.8,6.89-2.38,10A30.13,30.13,0,0,1,46.64,40.34Z" fill-rule="evenodd"/><path d="M47.35,40c0,.28,0,0,0,.08s0,.62,0,.62-.12.07-.19.14,0,.05,0,.26-.08,0-.13.08-.14.37-.22.24c0,.27,0,.08,0,.16a.86.86,0,0,1-.74.12s-.06-.11-.09-.11-.07.24-.11.26-.13-.13-.2-.13-.27.3-.4.29-.14,0-.2,0,0-.08,0,0,0,.23,0,.23,0-.27,0-.29-.08.18-.11.12-.08-.31-.14-.34-.23-.17-.35-.07-.2.33-.28.3-.22-.16-.36,0-.14.37-.18.34,0-.54-.11-.17c0-.41,0-.56,0-.37a7.77,7.77,0,0,1,.22-1c.08-.39.13-.66.18-.94a2,2,0,0,0,.29-.57c.07-.19.08-.15.13-.08s0-.16.06-.18.08.25.13.22.08-.2.11-.25,0,.11,0,.07,0-.21.05-.22,0,.15.06.11a2,2,0,0,1,.1-.26c.05,0,.08.21.14.24s.23,0,.35,0,.39-.19.57-.32.12.1.18,0,.3.1.45,0,.4.21.61.68C47.21,39.43,47.26,39.33,47.35,40Z" fill="#704311" fill-rule="evenodd"/><path d="M50.72,23.07s0,0,0,0,0,.06-.05.05,0,0-.08-.05,0,0,0,0,0,0-.06,0-.07,0-.09,0,0,0,0,0l-.26-.17s0,0,0,0,0,0-.06,0L50,22.79a1.31,1.31,0,0,0-.15-.05l-.08,0s0,0,0,0l0,0v0s0,0,0,0l0-.06a.54.54,0,0,0-.13-.07h-.11s-.09-.06-.14-.05,0,0-.06,0,0-.07,0,0,0-.07,0,0,0-.07.06-.11l.06-.09.12,0s0,0,.06,0,0,0,0,0,0,0,.06,0h0s0,0,0,0l0,0,0,0s0,0,0,0,0,0,.07.05.11.05.16.09a1.17,1.17,0,0,0,.28.11s0,.05.08.06.13.1.2.14a.48.48,0,0,1,.19.25S50.75,23,50.72,23.07Z" fill-rule="evenodd"/><path d="M50.91,22.23s0,0,0,0,0,.05-.06,0a.12.12,0,0,0,0-.05s0,0,0,0,0,0,0,0-.07,0-.07,0,0,0,0,0a1.09,1.09,0,0,1-.18-.19s0,0,0,0H50.4s0-.05,0-.06-.09,0-.12-.07l-.05,0s0,0,0,0l0,0,0,0s0,0,0,0,0,0,0-.07a.34.34,0,0,0-.09-.08s-.07,0-.09,0a.15.15,0,0,0-.1-.06s-.05,0-.06,0,0-.07,0,0,0-.06,0-.05.06-.06.09-.09l.07-.08a.22.22,0,0,0,.11,0s0,0,0,0,0,0,0,0,0,0,0,.05h0s0,0,0,0h0s0,0,0,0h.05s0,0,0,.07a1,1,0,0,1,.11.1,1.53,1.53,0,0,0,.21.14s0,0,.06.06.08.1.13.15a.32.32,0,0,1,.1.25S51,22.17,50.91,22.23Z" fill-rule="evenodd"/><path d="M51.37,22s0,0,0,0-.07,0-.07,0a.19.19,0,0,0,0-.07s0,0,0,0,0,0,0-.05,0-.05,0-.07,0,0,0,0a1.07,1.07,0,0,1,0-.25v0s0,0,0,0,0,0,0-.06,0-.08,0-.12a.15.15,0,0,0,0-.07s0,0,0,0h0s0,0,0,0,0,0,0-.06a.2.2,0,0,0,0-.11S51,21,51,21a.16.16,0,0,0,0-.1s-.05,0-.05,0,.05,0,0,0,.06,0,0,0a.27.27,0,0,1,.12,0l.1,0a.23.23,0,0,0,.1,0s0,0,0,0,0,0,0,0,0,0,0,.06l0,0s0,0,0,0h0s0,0,0,0l0,0s0,.05,0,.07a.8.8,0,0,1,0,.15,2.17,2.17,0,0,0,.07.24s0,.05,0,.07,0,.13,0,.19a.36.36,0,0,1-.07.24S51.44,22,51.37,22Z" fill-rule="evenodd"/><path d="M10.45,41.38c-.08,0,0-.17-.08-.23s-.15.11-.19-.06c-.09-.43-.22-.84-.34-1.27-.08-.17,0,.14-.07,0A5.43,5.43,0,0,1,9.53,39a10.56,10.56,0,0,1-.43-1.42c-.08,0,0,.14,0,.2-.43-1.47-.83-3-1.26-4.61,0-.18-.08-.38-.13-.56s-.18-.41-.25-.62c-.12-.41-.2-.85-.32-1.27-.22-.78-.53-1.55-.75-2.33L6,27.07c0-.06,0-.14,0-.2l-.09-.06c0-.06,0-.15,0-.22s-.18-.45-.22-.67-.08-.61-.19-1c-.18-.72-.37-1.52-.58-2.2-.16-.52-.37-1-.5-1.54-.18-.75-.33-1.48-.56-2.16a5.16,5.16,0,0,1-.29-.74c-.06-.28,0-.54-.15-.82a.63.63,0,0,0,0-.58c.23-.05.26.24.39.36a1.27,1.27,0,0,1,.34.23,11,11,0,0,0,.52,1.42,3.42,3.42,0,0,1,.23.83c0,.12.1.19.13.31.1.34.12.75.22,1.09s.16.39.23.58,0,.25.07.37.09.09.11.14,0,.35.11.52.16.35.22.55c.11.36.15.77.25,1.16L7,27c.36,1.34.83,2.71,1.24,4,.14.44.23.91.38,1.35.34,1,.59,2.24.9,3.35a32.56,32.56,0,0,1,.89,4.32A3.46,3.46,0,0,1,10.45,41.38Z" fill-rule="evenodd"/><path d="M4.21,17.19c0-.06,0,0,0-.05S4.09,17,4.11,17a.31.31,0,0,0,.09-.21s0,0-.06,0,0-.07,0-.13-.07-.16,0-.22,0,0,0,0A.83.83,0,0,0,3.86,16s0,0,0,0-.07,0-.09,0-.08-.06-.12-.06-.18.1-.24.13a.17.17,0,0,0-.1.06s0,0,0,0l0,.05-.07,0s0,.06,0,.06-.1,0-.11,0a.15.15,0,0,0,0,.19s.14.05.16.09.09.13.16.08a.44.44,0,0,0,.05-.09s0,.15,0,0c0,.12,0,.16,0,.1.08.23,0,.2,0,.3a.8.8,0,0,1,0,.28l-.4.11c-.1,0-.13,0-.21-.08s-.08,0-.11,0-.11-.18-.17-.25a1.19,1.19,0,0,1-.15-.09s0-.08,0-.1H2.4c0-.05,0-.11,0-.16s-.1-.09-.12-.15A.9.9,0,0,1,2.32,16a1.11,1.11,0,0,1,.42-.67A1.66,1.66,0,0,1,3.86,15a1.7,1.7,0,0,1,.41.15,1.23,1.23,0,0,1,.61.83,1,1,0,0,1-.32,1.1C4.46,17.16,4.4,17.27,4.21,17.19Z" fill-rule="evenodd"/><path d="M6.5,28.69c0-.06.22-.21.3-.3s-.17,0,0-.2c.57-.49,1.12-1,1.72-1.47.23-.2-.2.15,0,0a15.53,15.53,0,0,1,1.24-.95l1-.71a2.42,2.42,0,0,1,1.32-.55c0-.06-.29,0-.39,0a1.15,1.15,0,0,1,1.14.19c.33.29.38.7.52.92.24.49.92.23,1.48-.12,1.2-.68,2.47-1.26,3.73-1.89.3-.14.6-.27.88-.42s.67-.41.95-.59a.59.59,0,0,0,.23-.72c-.08-.34-.2-.72-.3-1.07l-1.27-4c-.23-.75-.46-1.56-.66-2.13,0-.08-.05-.11,0-.09v.05a.37.37,0,0,0-.22,0c-.24.15-.68.49-1,.68s-.86.54-1.54.91a1.21,1.21,0,0,1-1.16,0,1.64,1.64,0,0,1-.55-1,1.35,1.35,0,0,0-1.18-1,3,3,0,0,0-1.29.13,7.61,7.61,0,0,0-1.24.44A10.47,10.47,0,0,0,7.1,16.93c-.31.3-.59.66-.89,1a5.36,5.36,0,0,0-.91,1,2.14,2.14,0,0,0-.61.74c-.13-.09.16-.48.26-.72a2.29,2.29,0,0,1,.17-.53,20.63,20.63,0,0,1,1.7-1.95,6.6,6.6,0,0,1,1.17-1c.16-.12.27-.23.46-.36a10.1,10.1,0,0,1,1.74-.87c.33-.13.68-.29,1-.39s.44-.08.66-.11a1.7,1.7,0,0,1,.31-.06,2.55,2.55,0,0,1,1,.16,1.83,1.83,0,0,1,1,.69,4.36,4.36,0,0,1,.38,1c.1.27.21.37.46.34a2.19,2.19,0,0,0,.88-.42l1-.63,1-.64a1.11,1.11,0,0,1,.33-.17.63.63,0,0,1,.54.06,1.15,1.15,0,0,1,.37.68c.68,2.29,1.45,4.61,2.16,6.9a1.55,1.55,0,0,1,0,.78,1.24,1.24,0,0,1-.53.66c-.39.23-.72.4-1.08.6-.8.45-1.7.87-2.61,1.31-.45.21-.91.44-1.35.67a8.82,8.82,0,0,1-1.41.7A1.2,1.2,0,0,1,13,26.13a4.22,4.22,0,0,1-.46-.91A.46.46,0,0,0,12,25a2.21,2.21,0,0,0-.76.28c-1,.66-2.08,1.38-3,2.06C7.56,27.88,7,28.39,6.5,28.69Z" fill-rule="evenodd"/><path d="M7.81,16.09c.05,0,0,.06,0,.08s.1-.06.12,0a3.5,3.5,0,0,0,.14.46c0,.06,0-.05.05,0s.05.2.09.32a1.76,1.76,0,0,1,.18.52c.05,0,0-.06,0-.08.18.53.31,1.1.46,1.69,0,.07,0,.14,0,.21s.09.15.11.22.06.32.1.48a3.45,3.45,0,0,0,.14.42.78.78,0,0,1,0,.62c-.2.31-.34.31-.44.44s-.05,0-.06,0v.05s-.06,0-.09,0-.11.14-.18.18a2.4,2.4,0,0,0-.32.19,6.59,6.59,0,0,0-.64.52c-.15.14-.27.3-.41.42a4,4,0,0,0-.62.53,2,2,0,0,1-.17.23c-.08.06-.21,0-.25.17s-.14,0-.21.08c-.1-.12,0-.17,0-.25a.53.53,0,0,1,0-.21A2.56,2.56,0,0,0,6.23,23a.72.72,0,0,1,.24-.21s0-.07.07-.11.24-.14.34-.23S7,22.3,7,22.25s.08,0,.11-.08,0-.05,0-.07.11-.06.16-.11.08-.12.13-.18.25-.15.37-.24l.75-.63.22-.17s.05,0,0,0,0,0,0,0a1.17,1.17,0,0,0,0-.15l-.24-.73c-.05-.16-.06-.33-.12-.49-.14-.36-.19-.82-.31-1.22a7.37,7.37,0,0,1-.27-1.58C7.78,16.39,7.72,16.25,7.81,16.09Z" fill-rule="evenodd"/><path d="M19.12,16.24c0,.05-.07,0-.1.07s.09.08,0,.12-.38.23-.58.35.07,0,0,0-.25.13-.4.24a4.47,4.47,0,0,1-.64.4c0,.05.07,0,.1,0a9.24,9.24,0,0,1-2.24,1c-.1,0-.2,0-.3.06a3.57,3.57,0,0,1-.35.1,2.33,2.33,0,0,1-.74,0,1,1,0,0,1-.67-.45A1.91,1.91,0,0,1,13,17.5a2.24,2.24,0,0,0-.14-.58s0-.05,0-.06h-.05s0-.06,0-.09-.12-.06-.18-.09a.66.66,0,0,0-.39-.09,4.28,4.28,0,0,0-1.07.25c-.26.09-.49.24-.72.34a3.78,3.78,0,0,0-.94.54c-.1.08-.17.2-.27.27s-.26.07-.33.22-.16,0-.26.13c-.1-.12,0-.19,0-.29a.48.48,0,0,1,0-.24l.56-.55A1,1,0,0,1,9.6,17c.06,0,.08-.08.14-.12a5.09,5.09,0,0,1,.54-.22,2.61,2.61,0,0,0,.28-.17c.06,0,.13,0,.19-.06s0-.05.07-.07a2.86,2.86,0,0,0,.28-.07,2.51,2.51,0,0,1,.28-.13,4.16,4.16,0,0,1,.63-.09,1.63,1.63,0,0,1,.81,0,1,1,0,0,1,.63.66c.14.41.15.78.27,1s.22.25.56.23a2.76,2.76,0,0,0,.63-.07,8.93,8.93,0,0,0,1.55-.6,15.11,15.11,0,0,1,2-.94A1.36,1.36,0,0,1,19.12,16.24Z" fill-rule="evenodd"/><path d="M19.44,18.1s-.07,0-.09.08.09.07,0,.12a4.49,4.49,0,0,0-.51.38c-.06.06.06,0,0,0s-.22.14-.36.25a2.89,2.89,0,0,1-.59.42c0,.05.07,0,.1,0a9,9,0,0,1-2.11,1l-.27.07c-.11,0-.2.1-.31.13a4.64,4.64,0,0,1-.65.11,5.58,5.58,0,0,1-1.23.12,1.75,1.75,0,0,1-.75-.17c-.05,0-.09-.08-.13-.11l-.09,0s0-.12,0-.16A2.52,2.52,0,0,1,12.3,20a1.34,1.34,0,0,0-.15-.42c-.16-.27-.4-.45-.67-.37s-.46.19-.69.26a3.73,3.73,0,0,0-.92.44,2.18,2.18,0,0,1-.28.25c-.1.06-.25,0-.32.19-.14,0-.16,0-.25.1-.1-.13,0-.19,0-.28a.64.64,0,0,1,0-.24l.57-.49a1.09,1.09,0,0,1,.37-.21c.06,0,.08-.07.14-.11a5.34,5.34,0,0,1,.53-.16c.1,0,.19-.11.28-.15s.13,0,.19,0,0-.06.07-.07.2,0,.31,0a1.07,1.07,0,0,1,.4,0,1.17,1.17,0,0,1,.58.48,2.86,2.86,0,0,1,.35.64c.05.11.08.22.11.27s0,0,.08.07a2.52,2.52,0,0,0,.89.05,4.86,4.86,0,0,0,.94-.16,3.4,3.4,0,0,0,.63-.15A11.3,11.3,0,0,0,17,19.3c.61-.34,1.27-.68,1.86-1C19.07,18.22,19.23,18.08,19.44,18.1Z" fill-rule="evenodd"/><path d="M20.21,20.39s-.1.06-.13.1.11.07,0,.13a8.58,8.58,0,0,0-.7.53c-.08.09.09,0,0,0a5.29,5.29,0,0,1-.47.38,6.24,6.24,0,0,1-.78.62s.09,0,.13-.05a7.63,7.63,0,0,1-2.88,1.47c-.13,0-.27,0-.4.05s-.3.08-.46.1a3.6,3.6,0,0,1-.92-.1h-.07a.23.23,0,0,1-.16-.11h0c-.12-.23-.25-.45-.38-.68l-.18-.3a.17.17,0,0,0-.13-.08,3,3,0,0,0-.76.08l-.13,0s0,.06,0,.06-.09,0-.14,0a4.45,4.45,0,0,0-.42.15,3.2,3.2,0,0,0-.61.19,8.53,8.53,0,0,0-1.27.76c-.29.21-.55.46-.84.66a12.35,12.35,0,0,0-1.21.85,4.25,4.25,0,0,1-.39.35c-.15.1-.32.11-.41.28s-.18,0-.26.19c-.13-.09,0-.21,0-.32a.62.62,0,0,1,0-.27c.27-.25.49-.43.75-.69a2.73,2.73,0,0,1,.47-.34c.06,0,.09-.1.16-.15s.43-.25.63-.39.2-.19.31-.27.14-.08.21-.13,0-.08.07-.1.2-.11.3-.19.19-.18.3-.26.48-.24.73-.37A5.49,5.49,0,0,1,12,22a5.63,5.63,0,0,1,.61-.08,1.07,1.07,0,0,1,.41.06.72.72,0,0,1,.36.3l.58,1-.24-.18a3.42,3.42,0,0,0,.44,0,3,3,0,0,0,.84,0,6.79,6.79,0,0,0,2-.76c.81-.5,1.64-1.1,2.43-1.56A1.93,1.93,0,0,1,20.21,20.39Z" fill-rule="evenodd"/></svg>