<svg xmlns="http://www.w3.org/2000/svg" viewBox="0 0 60 80"><title>illo-bev-orange</title><path d="M21.38,16.82a5.61,5.61,0,0,1,1.81-1.35c.45-.23.73-.43,1.25-.08A1.55,1.55,0,0,1,25,16.64l1.12-.31A2.16,2.16,0,0,0,24.44,15a3.86,3.86,0,0,0-2.62.27l.82.22c.19.42.91-.76.94-.84.24-.63-.59-.9-1-.58l-1.49,1.16c-.61.47.24,1.31.85.84l1.49-1.15-1-.59c-.11.31-.7.44-.87.8a1,1,0,0,0,.05,1,.6.6,0,0,0,.82.22,2.3,2.3,0,0,1,1.49-.15,1.24,1.24,0,0,1,1.2.76.61.61,0,0,0,1.12-.3c-.07-1.13-.76-2.53-2-2.67s-2.86,1.1-3.66,2c-.52.58.33,1.43.84.85Z" fill="#fff"/><path d="M18.84,19.69a8.43,8.43,0,0,1,0,2.13H20l0-.07-1.1.47,1.3,1.7a.6.6,0,0,0,1.09-.46,2.33,2.33,0,0,0-1.21-1.62.6.6,0,0,0-.9.52A3.73,3.73,0,0,0,22.07,26a.6.6,0,0,0,.58-1l-1.56-1.89-.85.85c1,.92,1.5,2.18,2.51,3.07a.6.6,0,0,0,.94-.73l-1.16-2.16-.94.73a3.72,3.72,0,0,1,.77.71c.82,2.16.49,3.22-1,3.19-.7.28-1.56.11-2.28.38a2.16,2.16,0,0,0-1.5,1.53c-.56,2.13,1.67,3.15,3.41,3,.29,0,.64-.26.6-.6A.94.94,0,0,1,22,31.88a.6.6,0,0,0-.31-1.16c-1.23.35-1.48,1.18-1.34,2.41l.6-.6q-2.09-2.37-.42-2.43l1.11-.16a5.28,5.28,0,0,0,1.55-.32,2.23,2.23,0,0,0,1.09-1.19C25,26.78,23.65,25,22.44,24a.61.61,0,0,0-1,.73l1.17,2.16.94-.73c-1-.86-1.51-2.16-2.51-3.07a.6.6,0,0,0-.85.85l1.56,1.89.59-1-2-2.49-.91.52.67.9,1.09-.46-1.29-1.71c-.37-.49-1.37-.23-1.1.46l0,.07a.6.6,0,0,0,1.15,0A7.19,7.19,0,0,0,20,19.69a.6.6,0,0,0-1.2,0Z" fill="#fff"/><path d="M26.51,18.25a3.43,3.43,0,0,0,.14-3.93A3.39,3.39,0,0,0,23.16,13c-3.6.39-4.29,5.37-4.14,8.24,0,.76,1.24.77,1.2,0-.11-2,.14-4.68,1.53-6.28,1.86-2.13,5.65.17,3.72,2.71-.47.62.57,1.22,1,.61Z" fill="#ff822e"/><path d="M19.35,19.93a3.66,3.66,0,0,0,1.44,3.77c.81.68,1.8,1.18,2.59,1.87,1.63,1.43,1,2.84.38,4.49-.27.73.89,1,1.16.32.58-1.53,1.26-3.42.18-4.91-1.59-2.17-4.93-2.17-4.55-5.54.08-.77-1.12-.76-1.2,0Z" fill="#ff822e"/><path d="M25.37,30c1-1.51,1.64-4.22.85-6a4.42,4.42,0,0,0-2.31-1.87,11.83,11.83,0,0,1-3.79-2.7l-.59,1c.89.3,1.64,1.92,2.27,2.59.9,1,2.78,1.81,2.72,3.33,0,.77,1.17.77,1.2,0,.06-1.74-1.18-2.44-2.36-3.48s-2-3.1-3.51-3.59c-.6-.2-1,.58-.58,1a12.51,12.51,0,0,0,4,2.89c2.39,1.19,2.45,4.14,1,6.2-.44.64.6,1.24,1,.61Z" fill="#ff822e"/><path d="M19.39,20.72c.69.87,1.05,2,1.82,2.77s1.64.91,2.33,1.55,1.42-.32.85-.85-1.68-.86-2.33-1.55-1.13-1.9-1.82-2.77c-.48-.6-1.33.25-.85.85Z" fill="#ff822e"/><path d="M24.06,29.07a6.26,6.26,0,0,1-3.74,1c-.82.06-1.64.2-2,1.06-.91,2.32,2.25,3.36,3.93,3.74a.6.6,0,0,0,.32-1.15,6.85,6.85,0,0,1-2-1.18c-.07-.06-.59-.42-.58-.49s.93-.38.92-.38l-.82-.82a2.64,2.64,0,0,0-.21,2.48c.23.57,1.21.58,1.18-.16s0-1.53,1-1.79a7.83,7.83,0,0,1,1,0,2.16,2.16,0,0,0,1.39-.63c.55-.54-.3-1.39-.85-.85-.7.7-2,.07-2.86.79a2.94,2.94,0,0,0-.81,2.49L21.06,33a1.56,1.56,0,0,1,.09-1.55c.34-.57-.31-1-.82-.82-.86.37-2.08.89-1.39,2a7,7,0,0,0,3.34,2.23l.32-1.15a6.87,6.87,0,0,1-2.51-1c-1.86-1.41.5-1.47,1.4-1.57a6.12,6.12,0,0,0,3.42-1.29c.6-.49-.25-1.33-.85-.85Z" fill="#ff822e"/><path d="M18.2,22.67a6.85,6.85,0,0,0,.92,3.49c.79,1.07,1.86.94,3.06.93a.6.6,0,0,0,.3-1.11c-.76-.41-2.33-1-2.45-2l-1,.42a10.47,10.47,0,0,0,2.29,2.36c.15.1.91.36,1,.53l-.56.95a2,2,0,0,1-.89.29,6.58,6.58,0,0,1-1.09.08.6.6,0,0,0,0,1.2c1.6,0,3.74-.5,3.74-2.52a1.08,1.08,0,0,0-.67-1.11,9.36,9.36,0,0,1-2.94-2.63.6.6,0,0,0-1,.43c.21,1.63,1.71,2.31,3,3l.31-1.12c-1,0-1.91.08-2.35-1a6.91,6.91,0,0,1-.43-2.25c-.06-.77-1.26-.77-1.2,0Z" fill="#ff822e"/><path d="M21.79,26.91s-.08,0-.13,0a3,3,0,0,1-.42,0L21,26.82l-.22-.05-.2-.1a1.51,1.51,0,0,1-.26-.12,2.2,2.2,0,0,1-.25-.17c-.08-.06-.19-.13-.22-.21a1.66,1.66,0,0,1-.43-.52A4.05,4.05,0,0,1,18.92,24a15.39,15.39,0,0,1-.07-1.8A20.46,20.46,0,0,1,19,19.66a15.28,15.28,0,0,1,.46-2.15l.13-.42c0-.06.05-.18.06-.23s.09-.26.15-.41.19-.52.29-.77a5.12,5.12,0,0,1,.31-.68c0-.2.18-.44.23-.62s0-.11.11-.19.08-.08.13-.16,0,0,0-.09.09-.11.06-.11-.14.09-.2.12,0-.09,0-.12-.08.08-.14.13a5.34,5.34,0,0,0-.7.87s0,0-.07,0a13.33,13.33,0,0,0-.95,1.82,1.78,1.78,0,0,1-.12.24l-.28.78a13.52,13.52,0,0,0-.35,1.46c0,.26-.09.51-.12.77a13.68,13.68,0,0,0-.1,1.9c0,.54,0,1.08.09,1.57,0,.13,0,.15,0,.24l0,.17a7.24,7.24,0,0,0,.23,1.07c.06.18.14.35.21.52a3.9,3.9,0,0,0,.7,1.06,2.92,2.92,0,0,0,1.74.79,1.62,1.62,0,0,0,.75-.09s-.07,0,0-.05a1.16,1.16,0,0,0,.59-.32s-.07,0-.06-.05A4.27,4.27,0,0,1,21.79,26.91Zm-.13,0s.05,0,.09,0S21.67,26.93,21.66,26.93Z" fill-rule="evenodd"/><path d="M22.82,34.23s-.08,0-.14,0a4.23,4.23,0,0,1-.43,0l-.25,0h-.24l-.25,0-.33,0-.34,0a1.61,1.61,0,0,1-.33-.06,2.44,2.44,0,0,1-.72-.16A3.16,3.16,0,0,1,18.4,33a2.65,2.65,0,0,1-.64-1.42,2.49,2.49,0,0,1,.15-1.07,2.1,2.1,0,0,1,.63-.89,3.78,3.78,0,0,1,1.95-.55c.17,0,.33-.05.48-.09a2.67,2.67,0,0,0,.26-.09c.16-.06.33-.12.47-.19a1.93,1.93,0,0,0,.74-.65,1.6,1.6,0,0,0,.24-.88,1.77,1.77,0,0,0-.25-.67c0-.11-.07-.12-.1-.21s0-.11-.07-.2-.05,0-.08-.05-.05-.14-.06-.1,0,.16,0,.22-.07-.07-.09-.07,0,.11,0,.19a2.28,2.28,0,0,1,.11,1s0,0-.05,0a1,1,0,0,1-.39.57,2,2,0,0,1-.81.34.92.92,0,0,1-.23,0,6.65,6.65,0,0,1-.78.06,3.87,3.87,0,0,0-1.59.41,2.67,2.67,0,0,0-.72.57,3,3,0,0,0-.74,2,3.09,3.09,0,0,0,.48,1.66,1.83,1.83,0,0,0,.16.22l.11.14a3.62,3.62,0,0,0,.85.77,3.46,3.46,0,0,0,.5.27,4.42,4.42,0,0,0,1.21.36,9.29,9.29,0,0,0,1.9,0,1.9,1.9,0,0,0,.72-.19s-.07,0,0-.05a1.2,1.2,0,0,0,.58-.34s-.07,0-.06-.05C23.16,34.14,23.07,34.13,22.82,34.23Zm-.13,0s0,0,.09,0S22.71,34.26,22.69,34.26Z" fill-rule="evenodd"/><path d="M25.24,23.47s0,.07.07.11.17.19.27.31l.12.19.13.18.11.19a2,2,0,0,1,.13.25c.05.09.08.18.12.27a1.9,1.9,0,0,1,.09.29,2.47,2.47,0,0,1,.16.65,4.05,4.05,0,0,1-.1,1.59A6.26,6.26,0,0,1,25.72,29a4.64,4.64,0,0,1-1.49,1.62,2.4,2.4,0,0,1-.88.33,4.82,4.82,0,0,0-1.06.26,1.69,1.69,0,0,0-.46.27,1.3,1.3,0,0,0-.19.22,1.33,1.33,0,0,0-.28.49,1.11,1.11,0,0,0,.23,1,3.24,3.24,0,0,0,.59.52,2.29,2.29,0,0,0,.61.23A1.14,1.14,0,0,0,23,34a.84.84,0,0,0,.19.08s0,0,.08,0,.13.05.11,0-.12-.1-.15-.14.09,0,.1,0a.28.28,0,0,1-.14-.09,4.21,4.21,0,0,1-.75-.57s0,0,0-.06a1.53,1.53,0,0,1-.39-.57.48.48,0,0,1,.22-.48.37.37,0,0,1,.15-.08A1.32,1.32,0,0,1,23,31.9a5.49,5.49,0,0,0,1.41-.34,3.29,3.29,0,0,0,.7-.41,4.76,4.76,0,0,0,1.24-1.42,7.62,7.62,0,0,0,.62-1.38c0-.12,0-.14,0-.23L27,28a5.27,5.27,0,0,0,.16-1,4.47,4.47,0,0,0,0-.52,4.42,4.42,0,0,0-.22-1.15A4.08,4.08,0,0,0,26,23.76a2,2,0,0,0-.54-.42s0,.05-.05,0a1.54,1.54,0,0,0-.55-.29s0,.06,0,.07C25,23.25,25,23.33,25.24,23.47Zm.09.08s0,0-.07,0S25.32,23.55,25.33,23.55Z" fill-rule="evenodd"/><path d="M25.61,19s.08-.06.12-.11a1.3,1.3,0,0,0,.18-.46,2.16,2.16,0,0,0,.05-.27,2.48,2.48,0,0,0,0-.27,2,2,0,0,0,0-.27,2.15,2.15,0,0,0-.13-.32,2.53,2.53,0,0,0-.16-.33c-.07-.1-.17-.22-.22-.31a3.78,3.78,0,0,0-.68-.51,3.18,3.18,0,0,0-1.89-.24,4.07,4.07,0,0,0-1.74.6,2.34,2.34,0,0,0-.9,1.09A2.94,2.94,0,0,0,20.05,19a3.49,3.49,0,0,0,.85,2.05,2,2,0,0,0,.37.3l.22.1.41.18c.25.08.5.13.73.18a3.45,3.45,0,0,1,.63.17,4.61,4.61,0,0,1,.56.12c.08,0,.11,0,.18.08l.15.11s0,0,.08,0,.09.08.09.05-.08-.13-.1-.18.08,0,.1,0-.07-.07-.11-.13a3.51,3.51,0,0,0-.84-.56s0,0,0-.06a10.68,10.68,0,0,1-1.54-.67c-.05,0-.11-.08-.13-.13a1.12,1.12,0,0,1-.33-.42,3.31,3.31,0,0,1-.34-1,4.08,4.08,0,0,1,0-.59,1.46,1.46,0,0,1,.42-1.15,2.53,2.53,0,0,1,1-.59l.18-.07.14,0a3.65,3.65,0,0,1,.84-.13,3,3,0,0,1,.42,0,1.71,1.71,0,0,1,.85.37,1.82,1.82,0,0,1,.72,1.24,2,2,0,0,1-.07.58s.05,0,0,0a1.19,1.19,0,0,1-.38.42s.06,0,0,0A.68.68,0,0,0,25.61,19Zm.08-.12s0,0,0,.08S25.69,18.92,25.69,18.91Z" fill-rule="evenodd"/><path d="M25.8,18.83s.06,0,.1,0l.3-.12.18-.06.19-.09.2-.09.24-.19a1.48,1.48,0,0,0,.25-.25c.06-.08.12-.21.18-.28a2.92,2.92,0,0,0,.18-.72,4.92,4.92,0,0,0-.13-1.56A4.52,4.52,0,0,0,26.94,14a2.91,2.91,0,0,0-.78-.86,2.76,2.76,0,0,0-1.1-.44,5.8,5.8,0,0,0-1.82,0c-.12,0-.24,0-.35.06l-.18.05-.35.08a3.29,3.29,0,0,0-.62.23,4.1,4.1,0,0,0-.54.3,1.83,1.83,0,0,0-.35.4c-.07.05-.07.08-.12.13l-.12.1s0,0,0,.08-.09.07-.05.07.12,0,.16-.05,0,.07,0,.09.07,0,.12-.07a6.17,6.17,0,0,1,.66-.35s0,.05.06,0a4.58,4.58,0,0,1,1.35-.29.57.57,0,0,1,.19,0,5.78,5.78,0,0,1,.58,0,6.47,6.47,0,0,1,1,0,2.3,2.3,0,0,1,.47.1,1.89,1.89,0,0,1,.92.61,3,3,0,0,1,.52.88l.08.16,0,.11a4.79,4.79,0,0,1,.19.72c0,.12.06.24.08.37a2.43,2.43,0,0,1,0,.81,1.42,1.42,0,0,1-.77.93,1.81,1.81,0,0,0-.45.33s.06,0,0,.05a.64.64,0,0,0-.27.43s.05,0,.07,0C25.6,19,25.67,19,25.8,18.83Zm.08,0s0,0-.05,0S25.87,18.78,25.88,18.78Z" fill-rule="evenodd"/><g opacity="0.76"><path d="M16.69,31.49c-.37,4.84-1.35,9.5-1.7,14.34a17.6,17.6,0,0,0,6.16,15c4.63,3.75,12.13,5,17.49,2A14.15,14.15,0,0,0,45.7,51.7c.82-8.26-1.86-17.9-2.45-20.3a1.7,1.7,0,0,0-.61-1.09,2.27,2.27,0,0,0-1.33-.22c-6.59.25-18,1.15-24.62,1.4" fill="#f9a243"/></g><path d="M16.84,24.45c-.68-.11-.73-.51-1.43-.61.87-.22-.18-.52-.2-.57a5.61,5.61,0,0,1,2.23-1.17c1.34-.05,2.63.15,4,.16,3.11,0,6.52-.37,9.81-.32,2.91,0,6.34-.18,9.46-.24a10.84,10.84,0,0,1,1.47.07,2.16,2.16,0,0,1,1.57.9,4.71,4.71,0,0,1,.52,1.64c.11.51.23,1,.35,1.55.26,1,.54,2.07.81,3.05,1,3.47,1.64,6.72,2.26,10.05a43.78,43.78,0,0,1,.73,10.68c0,.42,0,1-.06,1.43-.11.75-.39,1.46-.57,2.25a38.06,38.06,0,0,1-1.45,5.11,13.92,13.92,0,0,1-2.6,4.51c-.39.37-.65.77-1.13.91a2.54,2.54,0,0,1-.86.91c-.19.13-.38.27-.59.4s-.44.23-.65.36a12.9,12.9,0,0,1-1.35.63,14.31,14.31,0,0,1-1.4.46,8,8,0,0,1-2.55.35,11.05,11.05,0,0,1-4.73.38c-.92-.08-1.88-.19-2.85-.29l-1.47-.13a8.28,8.28,0,0,1-1.54-.22,9.05,9.05,0,0,1-3.79-2.07,34.55,34.55,0,0,1-4.51-4.55,24.89,24.89,0,0,1-2.35-4c-.21-.42-.46-1.2-.83-1.21a48.8,48.8,0,0,1-1.83-8,35,35,0,0,1,.28-7c.22-2,.5-4.13.78-6,.23-1.48.45-2.95.58-4.16.26-2.53.06-3.61,1-5.4.78-1.59,1.12-1.33,1.89,0a15.47,15.47,0,0,1-.22,2.85c-.1.56-.32,1.14-.44,1.72-.16.8-.19,1.66-.34,2.46-.45,2.4-1.08,5-1.49,7.51A34.49,34.49,0,0,0,13,48.59a22.82,22.82,0,0,0,3.37,9.8,25.8,25.8,0,0,0,5.73,6.12,7.33,7.33,0,0,0,3.66,1.65c1.41.1,2.86.21,4.26.29a23.88,23.88,0,0,0,6.11-.34A21.17,21.17,0,0,0,39,65.3a9.79,9.79,0,0,0,2.52-1.41A12.19,12.19,0,0,0,44.65,60a24.1,24.1,0,0,0,2.06-5.31,29.26,29.26,0,0,0,.84-10.14c-.39-4.67-1.32-10.1-2.58-12.81,0-.27.27-.24,0-.9-.46-1.42-.86-2.9-1.21-4.42-.17-.77-.33-1.53-.5-2.31a2.25,2.25,0,0,0-.32-.88.85.85,0,0,0-.66-.31,15.58,15.58,0,0,0-1.74.07l-1.84.12L35,23.34c-3.05.16-5.92.53-8.74.73-1.27.09-2.23.15-3.33.25-.37,0-.86,0-1.22,0-.56.06-1,.25-1.57.27a14.05,14.05,0,0,0-3,0C17.53,24.31,17.19,24.25,16.84,24.45Z" fill-rule="evenodd"/><g opacity="0.4"><path d="M21.39,51.1C20.6,52.34,19.73,53.39,20,55a3.74,3.74,0,0,0,3.11,2.86c1.48.37,3.11.28,3.83-1.27a9.73,9.73,0,0,0,.56-2.2,12,12,0,0,0,.37-2.45c0-1.86-2.46-2-3.83-2.18-1.64-.25-3.52-.65-3.93,1.44-.51,2.53,1.64,6.92,4.78,5.33,1.61-.82,1.67-3,.83-4.43a1.78,1.78,0,0,0-2.15-.75c-.81.3-.95,1-1.41,1.55-1.17,1.54,1.44,3,2.59,1.52a1.27,1.27,0,0,0,.29-.55c.16-.35.12-.31-.13.14l-1.16.15.21.06-.89-.69s.39,1.28.56.29c0-.09-.18-.25-.24-.36-.23-.38-.61-1.24-.34-1.68l-1.29.74a7.63,7.63,0,0,1,1.9.2,6.64,6.64,0,0,1,1.95.41l-.75-1.29A7.88,7.88,0,0,1,24.54,54a3.65,3.65,0,0,1-.21.95c-.09.21-.07.25.05.13a3.89,3.89,0,0,1-.47-.09c-.49-.12-1-.18-.94-.73s.74-1.17,1-1.6c1-1.64-1.56-3.14-2.59-1.51Z" fill="#fff"/></g><g opacity="0.52"><path d="M21.05,53.88c.06,0,0-.05-.06,0s0,0,.05-.07,0-.16,0-.21-.09-.06,0-.12,0-.1.1-.08.08-.16,0-.2a.4.4,0,0,0,.18-.11s-.06,0-.07-.09.12-.27.19-.4c.24,0,.24-.1.45-.1.05,0,0,0,0,0s.14.07.23.09a.12.12,0,0,1,0,.08c.07,0,0,.06.11.07-.08,0,.08.18,0,.26s.11,0,.13.06a.57.57,0,0,0,0,.29c0,.08.14.16.16.25.1.29.22.62.31.93,0,0,0,0,.05.06l0,0s.07.06.07.1,0,0,0,0h0l-.17.13-.12.1h0a.89.89,0,0,0,.12-.15s.06-.1.09-.17,0,0,0,0a1.71,1.71,0,0,1,.49,0,2.16,2.16,0,0,0,.27.05,1.63,1.63,0,0,1,.5.06,5.13,5.13,0,0,1,.64.39l.15.08a.92.92,0,0,0,.32.14.54.54,0,0,1,.27.11c.12.09.26,0,.24.26.1,0,.18.12.26.18s.06,0,.07.13c-.1.33-.26.18-.38.36a.55.55,0,0,0-.4.09s0,0,0,0-.1,0-.14.14a2.5,2.5,0,0,0-.47,0s-.07,0-.11,0l-.06,0c-.1,0-.22-.12-.32,0s-.34-.07-.49-.1l-.35,0c-.09,0-.17-.08-.26,0s-.22-.1-.3-.11l-.05,0s0-.06,0-.06a.88.88,0,0,0-.28-.06,2,2,0,0,1-.88-.41,4.41,4.41,0,0,1-.28-.52c0-.1-.07-.2-.11-.31l-.2-.51c.08-.06,0-.14,0-.21s.11-.34,0-.52Z" fill="#fff" fill-rule="evenodd"/></g><g opacity="0.4"><path d="M37.17,42.94c-1.05,1.21-2.34,2.42-1.88,4.2.43,1.61,2.3,2.13,3.67,2.65,1.53.58,2.92.88,3.91-.73A7.85,7.85,0,0,0,44,44.29c-.34-3.09-5.22-4.26-6-.86-.33,1.39-.16,3.43,1.55,3.79s2.74-1.38,2.46-2.93c-.34-1.9-3.23-1.1-2.89.79,1.21.27,1.8,0,1.77-.85q.34-.88-.3.12a1.93,1.93,0,0,1,.41.12c.13.07.16.2.08.39a9.6,9.6,0,0,1-.73,2.69c.77-.13.85-.25.25-.37l-.78-.28c-.39-.15-.79-.3-1.17-.47a5.12,5.12,0,0,1-.52-.27c.1.32.2.31.27,0a6.09,6.09,0,0,0,1-1.06c1.26-1.46-.86-3.59-2.12-2.12Z" fill="#fff"/></g><g opacity="0.4"><path d="M34.61,48.27c-1.27-.08-2.9-.48-4.13-.08a3.25,3.25,0,0,0-1.93,3.05,4,4,0,0,0,.84,3.43,5.17,5.17,0,0,0,3.83.93,6.18,6.18,0,0,0,3.56-1.21,3.39,3.39,0,0,0,.54-3.21,2.88,2.88,0,0,0-3-1.77,4.05,4.05,0,0,0-3.1,2c-1.08,1.6,1.52,3.11,2.59,1.52a1.38,1.38,0,0,1,.44-.46c.28,0,.34-.12.17-.37v.35c.46-.34.44-.39,0-.13a4.47,4.47,0,0,1-2.55.23c-.43-.18-.35-.2-.32-.77,0-.17,0-.58.09-.7s1.06.07,1.29.08l1.72.11c1.93.13,1.92-2.87,0-3Z" fill="#fff"/></g><g opacity="0.4"><path d="M23.93,42.16c-3.17,1.85-.46,6.6,2.38,7.11,3.48.63,4.59-4.61,3.38-7a3.21,3.21,0,0,0-3.86-1.67c-2,.46-2.18,1.91-2.21,3.7,0,1.49.39,3.17,2.19,3.29a2.92,2.92,0,0,0,2.8-3.09,1.57,1.57,0,0,0-1.1-1.44c-.76-.31-1.23.13-1.76.38-1.75.81-.23,3.4,1.51,2.59.16-.07.36-.24.46-.29l-1.16.15.15.06-1.1-1.45a.57.57,0,0,1-.08.28c.82.53,1.18.51,1.08-.07.06-.15-.06-1.61,0-1.63-.4.43-.41.57,0,.42a.31.31,0,0,1,.31,0c.25.14.29.86.29,1.1A2.82,2.82,0,0,1,27,45.72a4,4,0,0,1-.3.49c-.32.28-.29.32.09.11a5.44,5.44,0,0,1-.86-.74,4.25,4.25,0,0,1-.5-.83,1.5,1.5,0,0,0-1.51-2.59Z" fill="#fff"/></g><g opacity="0.4"><path d="M32.63,57.08c-1.62-.11-3.94-.32-5.28.82a3.13,3.13,0,0,0,0,4.2,8,8,0,0,0,5.15,1.37,3.48,3.48,0,0,0,2.36-.72,3.54,3.54,0,0,0,.75-2.13c.21-1.55.5-3.74-1.2-4.54-1.44-.69-3.4-.08-4.9.15s-3.24,1.14-2.36,3a3.57,3.57,0,0,0,2.12,1.58,5.49,5.49,0,0,0,1.2.27c.13,0,1.21.12,1.06,0,1.36,1.38,3.48-.74,2.13-2.12a2.65,2.65,0,0,0-1.78-.78c-.33,0-.67,0-1,0s-.9-.46-.92,0l-.44,1.06c0-.05,1.15-.13,1.38-.16a14.93,14.93,0,0,0,1.78-.23c.43.1.51,0,.23-.27s-.21-.34-.17,0a5.35,5.35,0,0,0,0,1.06,8.58,8.58,0,0,0-.1.87l-.08.42c.52-.36.57-.5.18-.41a14.86,14.86,0,0,0-1.93-.11c-.28-.06-.54-.16-.82-.24l-.43-.17c.09.16.11.12.07-.12s0-.28-.1.09-.18.36.08.24c.21.07.73-.12,1-.13a19.77,19.77,0,0,1,2,.07c1.93.14,1.92-2.86,0-3Z" fill="#fff"/></g><g opacity="0.4"><path d="M39.87,53.38c-.95,1-2.43,2.06-2.71,3.47a3,3,0,0,0,1.57,3.36c1.33.5,2.46-.34,3.15-1.42s1.91-2.72,1.9-4.21a2.91,2.91,0,0,0-2.22-2.78c-1.54-.35-2.47.6-3.22,1.77s-2.19,2.23-2.19,3.68a3.34,3.34,0,0,0,2.2,3.2c1.84.62,2.63-2.28.8-2.89.16,0,0-.33,0-.34.15.11-.4.6.14.08a10.49,10.49,0,0,0,1-1.23,5.16,5.16,0,0,0,.88-1.32c.08-.3,0-.27-.3,0a1.48,1.48,0,0,0-.31.48c-.26.48-.56,1-.84,1.42-.08.14-.4.51-.4.67s.69.45.83.38c0,0,0-.18,0-.22.19-.17.36-.37.54-.56L42,55.5c1.34-1.39-.78-3.51-2.12-2.12Z" fill="#fff"/></g><g opacity="0.52"><path d="M26.74,43.83c0-.07,0,0,0,.06s0,0-.06-.06-.11,0-.15.05,0,.09-.08,0-.08,0-.09-.08-.15,0-.17,0a.32.32,0,0,0-.15-.12s0,.06,0,.08-.26,0-.4,0c-.14-.19-.22-.13-.36-.28s0,0,0,0,0-.15-.05-.24a.23.23,0,0,1,.11,0c0-.07,0-.06,0-.13s.16-.19.28-.2,0-.11,0-.15A1.42,1.42,0,0,0,26,42.6a1.83,1.83,0,0,1,.31-.24,3.28,3.28,0,0,1,.67-.19,2.22,2.22,0,0,1,.38,0,1.08,1.08,0,0,1,.39.06,1,1,0,0,1,.49.4,1,1,0,0,1,.15.26c0,.07,0,.12,0,.17a1.12,1.12,0,0,1,.05.27s-.05,0-.05.06c0,.36.12.76.14,1.17,0,.11,0,.21,0,.32a2.24,2.24,0,0,1,.05.57,6.86,6.86,0,0,1-.28.81l-.06.18a1.59,1.59,0,0,0-.09.39.73.73,0,0,1-.06.32c-.08.15,0,.29-.24.31,0,.12-.1.23-.15.33s0,.07-.12.1c-.34-.05-.21-.26-.41-.35a.59.59,0,0,0-.13-.43s0,0,0,0,0-.11-.16-.13a2.19,2.19,0,0,0-.12-.49s0-.08,0-.12l-.05-.06c0-.11.09-.26,0-.35s0-.38,0-.54,0-.25,0-.38,0-.19,0-.27.05-.26,0-.34-.05,0-.05,0,.05,0,.05-.05a1.08,1.08,0,0,0,0-.31,1.17,1.17,0,0,0-.07-.49c0-.11,0-.51,0-.17a.69.69,0,0,0,.2.36.88.88,0,0,0,.37.22c.18.05.08,0,0,.06s-.09,0-.14,0-.24-.14-.36,0A.07.07,0,0,1,26.74,43.83Z" fill="#fff" fill-rule="evenodd"/></g><g opacity="0.52"><path d="M29.47,51.57c.08,0,0,0,0,0s0,0,.07-.05,0-.14,0-.19-.08-.06,0-.1,0-.09.11-.07.08-.13.05-.17.15-.05.18-.09-.05,0-.06-.08.13-.24.2-.36c.23,0,.23-.1.44-.12,0,0,0,0,0,.06s.14.06.23.08a.15.15,0,0,1,0,.09c.07,0,0,.06.11.07s.08.18,0,.26.11,0,.13.07a.76.76,0,0,0,0,.3c0,.09.12.19.13.28a5.93,5.93,0,0,1,.11,1.05s0,0,0,.07,0,0,0,0,0,.08,0,.11l0,0a.27.27,0,0,0,.11.25.67.67,0,0,0,.18,0l.08,0c.08,0,.17,0,.23,0a2.17,2.17,0,0,0,.37.25l.13,0a.59.59,0,0,0,.3,0,.5.5,0,0,1,.27,0c.14,0,.26-.06.32.17.1,0,.23.06.33.09s.08,0,.12.11c0,.35-.22.24-.27.46a.44.44,0,0,0-.35.21s0,0,0,0-.1,0-.09.19a3.9,3.9,0,0,0-.42.2s-.07,0-.11,0,0,.05-.06.05-.26-.05-.35,0-.43,0-.62,0a2.46,2.46,0,0,1-.47-.1c-.11,0-.21-.13-.34-.12s-.29-.24-.39-.32-.07,0-.08,0,0-.08,0-.09a4.24,4.24,0,0,1-.31-.4c-.14-.23-.22-.52-.32-.71a5.68,5.68,0,0,0-.1-1.06c.1,0,0-.11,0-.18s.17-.26.11-.43Z" fill="#fff" fill-rule="evenodd"/></g><g opacity="0.52"><path d="M39.5,45.67c0-.07,0,0,0,.06s0,0-.07,0-.15,0-.2,0-.05.09-.11,0-.09,0-.09-.1-.16,0-.2,0a.3.3,0,0,0-.12-.16s0,.06-.08.07-.29-.07-.43-.12c-.05-.22-.15-.21-.21-.41s0,0,0,0,.05-.15.05-.24a.12.12,0,0,1,.1,0c0-.07.06,0,.06-.12s.18-.12.28-.09,0-.11,0-.14a.72.72,0,0,0,.33,0c.1,0,.18-.15.28-.18a7.94,7.94,0,0,1,1.14-.32s.07,0,.11,0,.06,0,.1,0a.92.92,0,0,1,.3,0c.06,0,.1.06.15.08a1.36,1.36,0,0,1,.57.36l.27.28a2.52,2.52,0,0,1,.45.62c.06.11.09.24.15.36a1.8,1.8,0,0,1,.23.66,3.06,3.06,0,0,1-.17,1,1.55,1.55,0,0,1,0,.21,1.42,1.42,0,0,0-.08.42.88.88,0,0,1-.07.32c-.08.16,0,.3-.24.31,0,.12-.11.22-.15.32s-.05.06-.13.09c-.34-.06-.2-.26-.4-.36a.55.55,0,0,0-.13-.41s0,0,0,0,0-.12-.15-.13a1.93,1.93,0,0,0-.13-.47s0-.07,0-.11,0,0,0-.05.07-.23,0-.31,0-.32-.06-.45-.07-.2-.09-.29,0-.15-.09-.19,0-.19-.06-.24-.06,0-.06,0,0,0,0,0-.08-.12-.11-.17-.15-.21-.22-.16a.81.81,0,0,0,.26.15c.15,0,.2,0,.18,0l-.45.15c0-.09-.12,0-.19,0s-.31-.11-.48,0A.11.11,0,0,1,39.5,45.67Z" fill="#fff" fill-rule="evenodd"/></g><g opacity="0.52"><path d="M40.2,55.11c.06,0,0,0-.06,0s0,0,0-.07,0-.1-.08-.12-.09,0,0-.08,0-.07.07-.11c-.06,0,0-.14-.05-.15a.34.34,0,0,0,.1-.17s-.07,0-.09,0,0-.25-.05-.39c.18-.14.13-.21.28-.35s0,0,0,0,.14,0,.23-.07a.15.15,0,0,1,0,.09c.07,0,.06,0,.13,0s.17.1.18.2.11,0,.15,0a.62.62,0,0,0,.17.26c.07.06.2.1.26.18a2.65,2.65,0,0,1,.56,1.11s0,.06,0,.09,0,0,0,.07.06.11.06.16,0,.05,0,.07a5,5,0,0,1,0,1.34c0,.11-.08.2-.1.31a1.41,1.41,0,0,1-.16.54,2.88,2.88,0,0,1-.58.58l-.14.14a1.34,1.34,0,0,0-.26.27.58.58,0,0,1-.22.22c-.14.08-.16.23-.36.11-.06.09-.21.11-.3.15s-.07,0-.15,0c-.23-.26,0-.31-.12-.51a.44.44,0,0,0,.1-.38s0,0,0,0,0-.09-.07-.18a1.38,1.38,0,0,0,.11-.41s0,0,0-.08,0-.06,0-.07.16-.13.11-.25.14-.25.18-.37,0-.19.08-.28.09-.12,0-.21.09-.16.1-.21,0,0,0-.05l0,0c.05-.05,0-.13,0-.18s0-.18-.07-.24,0-.29-.15-.44c.09-.05,0-.08,0-.12s.07-.24,0-.32Z" fill="#fff" fill-rule="evenodd"/></g><g opacity="0.52"><path d="M30.07,57.9c.06.05,0,0,0-.07s0,0,.1,0,.17-.1.21-.15,0-.11.12-.07.11,0,.14,0c.06-.08.2,0,.23-.1s.14.09.2.08,0-.08.06-.11a1.59,1.59,0,0,0,.52-.13c.14.19.25.12.38.27s0,0,0,0,0,.16,0,.25a.19.19,0,0,1-.12,0c0,.08-.05.07,0,.14s-.16.21-.29.24,0,.12,0,.16a1.18,1.18,0,0,0-.35.23,2.52,2.52,0,0,1-.24.33c-.31.29-.77.66-1.09.9,0,0,0,.05,0,.06h0s0,.07,0,.08h0c-.06.06.11.2.26.28s.07.08.14.1a2.22,2.22,0,0,1,.42.16c.22.14.45.37.64.47l.17.07a.76.76,0,0,0,.37.11.84.84,0,0,1,.31,0c.15.06.27,0,.34.19.11,0,.25.05.36.06s.08,0,.14.1c.06.34-.2.27-.26.48a1,1,0,0,0-.48.22s0,0,0,0-.14,0-.14.18c-.21,0-.43.09-.65.11-.06,0-.11,0-.16,0l-.09,0c-.15,0-.34-.14-.48-.07s-.53-.15-.74-.24a4.71,4.71,0,0,1-.52-.21c-.13-.07-.24-.19-.39-.21s-.32-.32-.43-.45-.08,0-.09,0,0-.1,0-.11a6.28,6.28,0,0,1-.31-.58,2.84,2.84,0,0,1-.11-1.15,2.43,2.43,0,0,1,.68-1l.56-.5c.1.05.15,0,.23-.1s.4-.07.56-.25A.13.13,0,0,1,30.07,57.9Z" fill="#fff" fill-rule="evenodd"/></g></svg>