<svg xmlns="http://www.w3.org/2000/svg" viewBox="0 0 60 80"><title>illo-bev-shots</title><path d="M12,16.44c2.27,5.87,1.82,12.29,1.19,18.56a1.35,1.35,0,0,0,.16,1,1.26,1.26,0,0,0,1,.35,64.28,64.28,0,0,0,7.21.1,1.55,1.55,0,0,0,1.37-.56,1.53,1.53,0,0,0,.12-.83,76.6,76.6,0,0,1,1.11-18.92A31.28,31.28,0,0,1,11.87,16" fill="#e5b570"/><path d="M8.64,11c-.41-.21-.35-.6-.77-.81.6-.09,0-.54,0-.59A3.65,3.65,0,0,1,9.47,8.8c.82.13,1.57.47,2.44.63,1.92.35,4.07.18,6.11.34a36.9,36.9,0,0,0,5.9-.22c.59,0,1.18.06,1.77,0s.93-.11,1.42-.18h0a.43.43,0,0,1,.49.36.44.44,0,0,1,0,.2c-.26.8-.51,1.63-.7,2.43A72.71,72.71,0,0,0,25,25.28c0,.26,0,.61,0,.88,0,.46-.23.92-.27,1.42-.16,2.13.17,4.5,0,6.52a1.52,1.52,0,0,1-.19.89,2.71,2.71,0,0,1,.06,1.72,1.45,1.45,0,0,1-.59.91,2.4,2.4,0,0,1-1,.38,4.24,4.24,0,0,1-1.65,0c-1.53.69-4.17.11-6.67.08l-1.25,0A3.87,3.87,0,0,1,12,37.78a1.47,1.47,0,0,1-.81-1.06,4.26,4.26,0,0,1,0-1.13c0-.68.08-1.34.07-1.94,0-1,.16-2.08.1-2.85,0-.29.06-.79-.29-.88a17.55,17.55,0,0,0-.26-5c-.17-1.38-.23-2.92-.51-4.23A29.14,29.14,0,0,0,9.23,17.1c-.31-.88-.64-1.74-1-2.44-.68-1.45-1.25-1.95-1-3.33.24-1.23.64-1.2,1.74-.77a8.44,8.44,0,0,1,.73,1.65c.11.35.12.75.22,1.12s.43,1,.59,1.46a39.46,39.46,0,0,1,1.14,4.82,63.29,63.29,0,0,1,.52,13.21c0,.91-.09,1.82-.19,2.73a3,3,0,0,0,0,1.13c.07.24.3.37.71.44a50,50,0,0,0,5.36.29c1.31,0,2.62-.08,3.91-.19a3.25,3.25,0,0,0,1.58-.34.61.61,0,0,0,.25-.44,5.54,5.54,0,0,0,0-.86c0-2.23-.09-4.29,0-7,.09-2.12.24-4.33.43-6.55.22-3,1.19-6.34,1-8.32.12-.14.33,0,.34-.5a18.71,18.71,0,0,1,1-3.57l.63.73-2.23.32c-1.54.24-3.12.48-4.67.59-1.95.13-3.81.38-5.64.38l-2.16,0c-.24,0-.55-.08-.79-.08a7.43,7.43,0,0,1-1,.09c-.65-.06-1.3-.49-1.92-.35C9.11,11,8.91,10.88,8.64,11Z" fill-rule="evenodd"/><path d="M21.49,34.36a.19.19,0,0,0-.1-.1.76.76,0,0,0-.21-.08s-.08-.06-.12-.07H21l-.11-.06s-.08,0-.13,0l-.14,0s-.1,0-.15,0-.22,0-.33,0c-.28,0-.57,0-.86-.05a5.47,5.47,0,0,0-.89-.06,10.81,10.81,0,0,0-1.24.09c-.37.05-.75.05-1.07.11a.71.71,0,0,0-.21,0s-.08.05-.12.06-.14,0-.21,0a3,3,0,0,0-.39.14,1.84,1.84,0,0,1-.36.15c-.1.12-.23.19-.31.33s-.06.05-.11.05-.05,0-.1,0,0,.1,0,.11-.07,0-.06,0,.07.14.1.21-.05.06-.05.12.05,0,.09.09a1.17,1.17,0,0,0,.51.24s0,.11,0,.09c.24.08.64.11.94.21a.18.18,0,0,1,.12.08,1.22,1.22,0,0,1,.38.07,3.86,3.86,0,0,0,.68,0h.36a6.45,6.45,0,0,0,.88-.14c.25-.06.49-.13.72-.17a.28.28,0,0,0,.11,0h.08c.18-.05.32-.05.5-.09s.16-.06.25-.08l.58-.1a5.39,5.39,0,0,0,.9-.32.53.53,0,0,0,.31-.21s-.05-.06,0-.11.22,0,.26-.19-.06-.06-.08-.14S21.6,34.32,21.49,34.36Zm-.07,0c0-.05,0,0,0,0S21.43,34.35,21.42,34.34Z" fill-rule="evenodd"/><path d="M15,30s.08-.07.1-.12a3.83,3.83,0,0,0,.11-.43,2.17,2.17,0,0,0,.07-.24,1.94,1.94,0,0,0,0-.24c0-.08.05-.17.06-.24a2.83,2.83,0,0,0,0-.3l0-.33a1.11,1.11,0,0,1,0-.33,3.76,3.76,0,0,1,0-.75c0-.6,0-1.19,0-1.76s-.05-1.23-.11-1.74-.23-1.73-.37-2.42-.27-1.45-.43-2.05a4,4,0,0,0-.11-.41,1.89,1.89,0,0,0-.09-.21c0-.18-.06-.25-.1-.4s-.18-.5-.27-.73-.19-.42-.27-.66a5.37,5.37,0,0,0-.38-.52c0-.1-.06-.1-.09-.19a.68.68,0,0,0,0-.19s-.07,0-.09,0,0-.14,0-.1-.06.16-.1.22-.06-.07-.11-.07,0,.11,0,.18a6,6,0,0,0,.08,1s-.08,0-.05.07c.05.45.2,1.21.25,1.79A1,1,0,0,1,13,19a4.41,4.41,0,0,1,.08.72c.06.43.14.84.22,1.28,0,.23.06.44.1.68.09.5.19,1,.31,1.64s.18.94.25,1.36a.81.81,0,0,0,0,.21c0,.07,0,.11,0,.15,0,.35.08.62.12.95,0,.13.06.34.08.47.05.35.06.72.09,1.08,0,.53.12,1.08.15,1.66a3.3,3.3,0,0,0,.06.66s.06-.06.08,0a1.79,1.79,0,0,0,0,.62c.06,0,.06-.06.12,0C14.85,30.31,15,30.24,15,30Zm0-.13s0,.05,0,.09S15,29.86,15,29.84Z" fill-rule="evenodd"/><path d="M35.87,16.44c2.27,5.87,1.82,12.29,1.19,18.56a1.39,1.39,0,0,0,.15,1,1.28,1.28,0,0,0,1,.35,64.21,64.21,0,0,0,7.21.1c.51,0,1.12-.11,1.37-.56a1.44,1.44,0,0,0,.11-.83A77.09,77.09,0,0,1,48,16.13,31.29,31.29,0,0,1,35.71,16" fill="#e5b570"/><path d="M32.49,11c-.41-.21-.35-.6-.77-.81.59-.09,0-.54,0-.59a3.69,3.69,0,0,1,1.6-.82c.82.13,1.57.47,2.44.63,1.92.35,4.06.18,6.11.34a36.94,36.94,0,0,0,5.9-.22c.59,0,1.18.06,1.77,0s.92-.11,1.41-.18h0a.42.42,0,0,1,.47.56c-.25.8-.51,1.63-.69,2.43a72.71,72.71,0,0,0-1.92,12.91c0,.26,0,.61,0,.88,0,.46-.23.92-.27,1.42-.15,2.13.18,4.5,0,6.52a1.51,1.51,0,0,1-.18.89,2.78,2.78,0,0,1,.06,1.72,1.47,1.47,0,0,1-.6.91,2.34,2.34,0,0,1-1,.38,4.18,4.18,0,0,1-1.64,0c-1.53.69-4.17.11-6.67.08l-1.25,0a3.84,3.84,0,0,1-1.53-.24A1.47,1.47,0,0,1,35,36.72a4.29,4.29,0,0,1,0-1.13c0-.68.09-1.34.07-1.94,0-1,.16-2.08.11-2.85,0-.29.06-.79-.3-.88a17.2,17.2,0,0,0-.26-5c-.16-1.38-.22-2.92-.51-4.23a27.47,27.47,0,0,0-1.05-3.57c-.31-.88-.64-1.74-1-2.44-.67-1.45-1.24-1.95-1-3.33.24-1.23.63-1.2,1.73-.77a8.47,8.47,0,0,1,.74,1.65c.1.35.11.75.21,1.12s.44,1,.6,1.46a41.4,41.4,0,0,1,1.14,4.82,64,64,0,0,1,.52,13.21c0,.91-.1,1.82-.19,2.73a3,3,0,0,0,0,1.13c.08.24.31.37.71.44a50.23,50.23,0,0,0,5.36.29c1.32,0,2.62-.08,3.92-.19a3.25,3.25,0,0,0,1.58-.34.65.65,0,0,0,.25-.44,7.15,7.15,0,0,0,0-.86c0-2.23-.09-4.29,0-7,.09-2.12.24-4.33.42-6.55.22-3,1.19-6.34,1-8.32.12-.14.33,0,.34-.5a18,18,0,0,1,1-3.57l.62.73-2.22.32c-1.54.24-3.12.48-4.68.59-1.94.13-3.8.38-5.63.38l-2.16,0c-.24,0-.56-.08-.79-.08a7.57,7.57,0,0,1-1,.09c-.65-.06-1.29-.49-1.91-.35C33,11,32.75,10.88,32.49,11Z" fill-rule="evenodd"/><path d="M45.34,34.36a.24.24,0,0,0-.1-.1.76.76,0,0,0-.21-.08s-.09-.06-.12-.07h-.1s-.08,0-.11-.06-.09,0-.13,0l-.14,0s-.11,0-.15,0-.22,0-.33,0c-.28,0-.57,0-.87-.05a5.28,5.28,0,0,0-.88-.06,10.82,10.82,0,0,0-1.25.09c-.36.05-.74.05-1.06.11a.78.78,0,0,0-.22,0s-.07.05-.11.06-.14,0-.21,0a3.17,3.17,0,0,0-.4.14,1.61,1.61,0,0,1-.36.15c-.09.12-.22.19-.31.33s-.06.05-.1.05,0,0-.1,0,0,.1,0,.11-.06,0,0,0,.07.14.1.21-.05.06-.05.12.05,0,.09.09a1.17,1.17,0,0,0,.51.24s0,.11,0,.09c.23.08.64.11.94.21a.21.21,0,0,1,.12.08,1.27,1.27,0,0,1,.38.07,3.83,3.83,0,0,0,.68,0h.36a6.31,6.31,0,0,0,.87-.14c.25-.06.5-.13.72-.17s.07,0,.12,0h.08c.18-.05.32-.05.49-.09a2.41,2.41,0,0,0,.25-.08l.59-.1a5.29,5.29,0,0,0,.89-.32.52.52,0,0,0,.32-.21s0-.06,0-.11.22,0,.26-.19-.06-.06-.08-.14S45.44,34.32,45.34,34.36Zm-.07,0c0-.05,0,0,0,0S45.28,34.35,45.27,34.34Z" fill-rule="evenodd"/><path d="M38.81,30s.07-.07.1-.12a3.83,3.83,0,0,0,.11-.43c0-.08,0-.16.07-.24s0-.16,0-.24,0-.17.06-.24,0-.2,0-.3l0-.33a.86.86,0,0,1,0-.33,4.7,4.7,0,0,1,0-.75c0-.6,0-1.19,0-1.76s0-1.23-.1-1.74-.23-1.73-.37-2.42-.28-1.45-.44-2.05c0-.14-.06-.29-.1-.41s-.07-.14-.09-.21L38,18a5.76,5.76,0,0,0-.27-.73c-.09-.23-.18-.42-.27-.66a3.31,3.31,0,0,0-.38-.52c0-.1-.06-.1-.08-.19a1.48,1.48,0,0,0,0-.19s-.07,0-.1,0,0-.14-.05-.1,0,.16-.09.22-.07-.07-.11-.07,0,.11,0,.18a6.11,6.11,0,0,0,.07,1s-.08,0,0,.07c.06.45.21,1.21.25,1.79a.48.48,0,0,1,0,.24,4.43,4.43,0,0,1,.09.72c.06.43.14.84.21,1.28,0,.23.07.44.1.68.1.5.2,1,.31,1.64s.19.94.25,1.36a1.42,1.42,0,0,0,.06.21l0,.15c.05.35.07.62.12.95l.07.47c0,.35.07.72.1,1.08,0,.53.12,1.08.14,1.66a3.26,3.26,0,0,0,.07.66s.06-.06.08,0a1.58,1.58,0,0,0,0,.62c.06,0,.06-.06.12,0C38.69,30.31,38.8,30.24,38.81,30Zm0-.13s0,.05,0,.09S38.84,29.86,38.84,29.84Z" fill-rule="evenodd"/><path d="M13.11,49c2.27,5.88,1.82,12.3,1.19,18.56a1.41,1.41,0,0,0,.15,1,1.38,1.38,0,0,0,1,.35,64.25,64.25,0,0,0,7.21.1c.52,0,1.12-.11,1.37-.56a1.56,1.56,0,0,0,.12-.83,77.05,77.05,0,0,1,1.1-18.92A31.29,31.29,0,0,1,13,48.57" fill="#e5b570"/><path d="M9.73,43.62c-.41-.21-.35-.61-.77-.81.6-.09,0-.54,0-.59a3.59,3.59,0,0,1,1.59-.82c.82.12,1.57.47,2.44.63,1.92.35,4.07.18,6.11.34a36.94,36.94,0,0,0,5.9-.22c.59,0,1.18.06,1.77,0s.93-.11,1.42-.18h0a.42.42,0,0,1,.49.36.66.66,0,0,1,0,.2c-.26.8-.51,1.63-.7,2.42a73,73,0,0,0-1.91,12.91c0,.26,0,.62,0,.89,0,.46-.22.92-.26,1.42-.16,2.12.17,4.5,0,6.51a1.63,1.63,0,0,1-.19.9,2.71,2.71,0,0,1,.06,1.72,1.47,1.47,0,0,1-.6.91,2.34,2.34,0,0,1-1,.38,4,4,0,0,1-1.64,0c-1.53.7-4.17.12-6.67.08H14.61a3.88,3.88,0,0,1-1.53-.25,1.43,1.43,0,0,1-.81-1.05,4.37,4.37,0,0,1,0-1.14c0-.67.09-1.33.08-1.93,0-1,.16-2.08.1-2.85,0-.29.06-.8-.29-.88a17.21,17.21,0,0,0-.27-5c-.16-1.39-.22-2.92-.51-4.23a27.47,27.47,0,0,0-1-3.57,25.84,25.84,0,0,0-1-2.44c-.67-1.45-1.24-1.95-1-3.34.24-1.22.64-1.2,1.73-.76a8.21,8.21,0,0,1,.74,1.65c.1.34.12.75.22,1.11s.43,1,.59,1.47a39.46,39.46,0,0,1,1.14,4.82,63.26,63.26,0,0,1,.52,13.21c0,.9-.1,1.81-.19,2.72a3.06,3.06,0,0,0,0,1.14c.07.23.3.37.71.44A49.9,49.9,0,0,0,19.2,70c1.32,0,2.62-.09,3.92-.19a3.37,3.37,0,0,0,1.58-.34A.65.65,0,0,0,25,69a7.33,7.33,0,0,0,0-.87c0-2.22-.09-4.28,0-7,.09-2.12.24-4.33.43-6.55.22-3,1.19-6.35,1-8.33.12-.14.33,0,.34-.49a18,18,0,0,1,1-3.57l.63.73-2.23.32c-1.54.24-3.12.48-4.68.59-1.94.13-3.8.38-5.63.38l-2.16,0c-.24,0-.56-.09-.79-.08a9.3,9.3,0,0,1-1.05.09c-.65-.06-1.29-.49-1.91-.36C10.2,43.57,10,43.48,9.73,43.62Z" fill-rule="evenodd"/><path d="M22.58,67a.27.27,0,0,0-.1-.11,1.29,1.29,0,0,0-.21-.07s-.08-.06-.12-.07-.06,0-.1,0-.08,0-.11-.06-.08,0-.13,0l-.14-.05c-.05,0-.11,0-.15,0s-.22,0-.33,0c-.28,0-.57,0-.86-.06a6.83,6.83,0,0,0-.89,0,10.46,10.46,0,0,0-1.24.08c-.37,0-.75.06-1.07.12a1.36,1.36,0,0,0-.21,0,.75.75,0,0,1-.12.07c-.07,0-.14,0-.21,0a2.58,2.58,0,0,0-.39.14c-.13,0-.23.11-.37.15s-.22.18-.31.32,0,.05-.1.05-.05,0-.1,0,0,.09,0,.11-.07,0-.06,0,.07.13.1.2-.05.06-.05.13.05,0,.09.09a1.46,1.46,0,0,0,.51.24s0,.11,0,.09c.23.08.64.11.94.21a.21.21,0,0,1,.12.07,1.72,1.72,0,0,1,.38.08,5.12,5.12,0,0,0,.68,0c.12,0,.24,0,.36,0a8.49,8.49,0,0,0,.88-.14c.24-.06.49-.13.72-.17a.28.28,0,0,0,.11,0h.08c.18,0,.32,0,.49-.09l.26-.08.58-.1a7,7,0,0,0,.9-.32.64.64,0,0,0,.31-.21s0-.06,0-.11.22,0,.26-.19-.06-.06-.08-.15S22.69,66.91,22.58,67Zm-.07,0s0,0,0,0S22.52,66.94,22.51,66.94Z" fill-rule="evenodd"/><path d="M16.05,62.57c.05,0,.08-.07.1-.12a3.83,3.83,0,0,0,.11-.43,2.17,2.17,0,0,0,.07-.24,1.94,1.94,0,0,0,0-.24c0-.08,0-.17.06-.24s0-.2,0-.31,0-.23,0-.33a.83.83,0,0,1,0-.32,3.76,3.76,0,0,1,0-.75c0-.6,0-1.19-.05-1.76a16.29,16.29,0,0,0-.1-1.74c-.06-.66-.23-1.73-.37-2.42s-.28-1.45-.44-2.05a4.11,4.11,0,0,0-.1-.41c0-.07-.07-.14-.09-.21s-.07-.25-.1-.4-.18-.5-.27-.73-.19-.42-.27-.66-.24-.39-.38-.53-.07-.1-.09-.18a.68.68,0,0,0,0-.19s-.07,0-.09-.05,0-.13-.06-.1-.05.17-.09.22-.06-.07-.11-.06,0,.1,0,.18a5.13,5.13,0,0,0,.08,1s-.08,0,0,.07c0,.45.2,1.21.25,1.78a.9.9,0,0,1,0,.24,4.66,4.66,0,0,1,.08.72c.06.44.14.84.21,1.29,0,.23.07.44.11.67.09.51.19,1,.31,1.65s.18.93.24,1.36a1.42,1.42,0,0,0,.06.21l0,.15c0,.34.08.62.12.94,0,.14.06.34.08.48,0,.35.06.72.09,1.07,0,.54.12,1.09.15,1.67a3.13,3.13,0,0,0,.06.65s.06-.05.08,0c0,.25-.05.41,0,.61.06,0,.05-.05.11,0C15.94,62.9,16,62.83,16.05,62.57Zm0-.13s0,.05,0,.09S16.08,62.46,16.08,62.44Z" fill-rule="evenodd"/><path d="M37,49c2.28,5.88,1.83,12.3,1.2,18.56a1,1,0,0,0,1.12,1.35,64.21,64.21,0,0,0,7.21.1c.51,0,1.12-.11,1.37-.56a1.47,1.47,0,0,0,.11-.83,77.06,77.06,0,0,1,1.11-18.92,31.28,31.28,0,0,1-12.27-.16" fill="#e5b570"/><path d="M33.58,43.62c-.41-.21-.36-.61-.77-.81.59-.09,0-.54,0-.59a3.63,3.63,0,0,1,1.6-.82c.82.12,1.57.47,2.44.63,1.91.35,4.06.18,6.11.34a36.94,36.94,0,0,0,5.9-.22c.59,0,1.17.06,1.77,0,.45,0,.92-.11,1.41-.18h0a.44.44,0,0,1,.49.36.44.44,0,0,1,0,.2c-.26.8-.51,1.63-.69,2.42a73,73,0,0,0-1.92,12.91c0,.26.05.62,0,.89,0,.46-.23.92-.27,1.42-.15,2.12.17,4.5,0,6.51a1.54,1.54,0,0,1-.18.9,2.78,2.78,0,0,1,.06,1.72,1.51,1.51,0,0,1-.6.91,2.4,2.4,0,0,1-1,.38,4,4,0,0,1-1.64,0c-1.54.7-4.18.12-6.67.08H38.46a3.88,3.88,0,0,1-1.53-.25,1.41,1.41,0,0,1-.81-1.05,4.37,4.37,0,0,1,0-1.14c0-.67.08-1.33.07-1.93,0-1,.16-2.08.11-2.85,0-.29.06-.8-.3-.88a17.19,17.19,0,0,0-.26-5c-.16-1.39-.22-2.92-.51-4.23a29.13,29.13,0,0,0-1-3.57,25.84,25.84,0,0,0-1-2.44c-.67-1.45-1.24-1.95-1-3.34.24-1.22.63-1.2,1.73-.76a8.21,8.21,0,0,1,.74,1.65c.1.34.11.75.21,1.11s.44,1,.59,1.47a39.46,39.46,0,0,1,1.15,4.82,63.29,63.29,0,0,1,.51,13.21c0,.9-.09,1.81-.18,2.72a2.89,2.89,0,0,0,0,1.14c.07.23.3.37.71.44a50.09,50.09,0,0,0,5.36.29c1.32,0,2.62-.09,3.92-.19a3.4,3.4,0,0,0,1.58-.34A.65.65,0,0,0,48.8,69a5.85,5.85,0,0,0,0-.87c0-2.22-.08-4.28,0-7,.1-2.12.25-4.33.43-6.55.22-3,1.19-6.35,1-8.33.13-.14.34,0,.35-.49a17.35,17.35,0,0,1,1-3.57l.62.73L50,43.27c-1.54.24-3.12.48-4.68.59-2,.13-3.8.38-5.63.38l-2.16,0c-.24,0-.56-.09-.79-.08a9.71,9.71,0,0,1-1,.09c-.65-.06-1.29-.49-1.91-.36C34.05,43.57,33.84,43.48,33.58,43.62Z" fill-rule="evenodd"/><path d="M46.43,67a.27.27,0,0,0-.1-.11,1.29,1.29,0,0,0-.21-.07s-.09-.06-.12-.07-.07,0-.1,0-.08,0-.11-.06-.09,0-.13,0l-.15-.05s-.1,0-.14,0-.22,0-.34,0c-.27,0-.57,0-.86-.06a6.58,6.58,0,0,0-.88,0,10.76,10.76,0,0,0-1.25.08c-.37,0-.75.06-1.06.12a1.5,1.5,0,0,0-.22,0s-.07.06-.11.07-.15,0-.21,0a2.7,2.7,0,0,0-.4.14,3.88,3.88,0,0,1-.36.15c-.09.12-.22.18-.31.32s-.06.05-.1.05-.06,0-.1,0,0,.09,0,.11-.06,0-.05,0,.07.13.09.2,0,.06,0,.13,0,0,.08.09a1.64,1.64,0,0,0,.51.24s0,.11,0,.09c.23.08.64.11.93.21a.24.24,0,0,1,.13.07,1.53,1.53,0,0,1,.37.08,5.27,5.27,0,0,0,.69,0c.12,0,.24,0,.36,0a8.3,8.3,0,0,0,.87-.14c.25-.06.5-.13.72-.17a.43.43,0,0,0,.12,0H44c.19,0,.33,0,.5-.09l.25-.08.59-.1a6.83,6.83,0,0,0,.89-.32.67.67,0,0,0,.32-.21s0-.06,0-.11.22,0,.27-.19-.06-.06-.08-.15S46.53,66.91,46.43,67Zm-.07,0s0,0,0,0S46.36,66.94,46.36,66.94Z" fill-rule="evenodd"/><path d="M39.9,62.57c.05,0,.07-.07.1-.12a3.83,3.83,0,0,0,.11-.43,2.17,2.17,0,0,1,.07-.24,1.94,1.94,0,0,1,0-.24c0-.08,0-.17.06-.24s0-.2,0-.31,0-.23,0-.33a.83.83,0,0,1,0-.32,4.73,4.73,0,0,1,0-.75c0-.6,0-1.19,0-1.76s-.05-1.24-.1-1.74c-.07-.66-.23-1.73-.37-2.42s-.28-1.45-.44-2.05c0-.14-.06-.29-.1-.41a1.89,1.89,0,0,1-.09-.21l-.11-.4c-.08-.25-.17-.5-.27-.73s-.18-.42-.27-.66-.24-.39-.38-.53-.06-.1-.08-.18a1.62,1.62,0,0,0,0-.19s-.07,0-.09-.05,0-.13,0-.1-.06.17-.09.22-.07-.07-.11-.06,0,.1,0,.18a7.37,7.37,0,0,0,.08,1s-.08,0-.05.07c.06.45.21,1.21.25,1.78a.47.47,0,0,1,0,.24,4.72,4.72,0,0,1,.09.72c.06.44.14.84.21,1.29,0,.23.07.44.1.67.1.51.2,1,.31,1.65s.19.93.25,1.36a1.65,1.65,0,0,0,0,.21l0,.15c.06.34.08.62.12.94,0,.14.06.34.08.48.05.35.06.72.1,1.07,0,.54.12,1.09.14,1.67a3.08,3.08,0,0,0,.07.65s0-.05.08,0a1.52,1.52,0,0,0,0,.61c.06,0,.06-.05.12,0C39.78,62.9,39.89,62.83,39.9,62.57Zm0-.13s0,.05,0,.09S39.93,62.46,39.93,62.44Z" fill-rule="evenodd"/></svg>