<svg xmlns="http://www.w3.org/2000/svg" viewBox="0 0 164 190"><title>illo-chili</title><path d="M48.81,136.39c-8.23-.06-16.42.66-24.64,1-7.27.31-13.31,2.5-18.3,8.07-4.73,5.26-5.93,13.83-2.63,20.08,3.52,6.64,10,9.26,16.51,12.35,14.39,6.83,29.56,9.84,45.42,10.65,15.45.8,31.63,1.31,46.55-3.28C125.54,181,143.06,176,146,159.46c.94-5.27-3.41-11.48-9.41-9.4C116.37,157,95,156.12,74,153.91c-10.69-1.12-21.43-2.28-32-4.12-10.74-1.86-21.13-5.71-31.53-.57-5.37,2.66-4.56,10.35,0,13.21a192.21,192.21,0,0,0,40.44,19.16C60.27,184.77,64.28,170,55,166.84a174.77,174.77,0,0,1-36.79-17.62v13.21c3.9-1.92,9,0,13,.81,5.44,1.16,10.93,2,16.43,2.78,10.59,1.46,21.23,2.75,31.87,3.73,20.49,1.89,41.5,1.85,61.15-4.94l-9.41-9.41c-1,5.44-4.64,8.22-9.57,10.36A124,124,0,0,1,102.5,172c-7.3,1.82-14.84,1.54-22.31,1.57a221.91,221.91,0,0,1-22.48-.82,97.18,97.18,0,0,1-21.54-4.46,82.82,82.82,0,0,1-9.49-3.94C24,163,19.45,161.6,17.3,159.53c.89.85-.68-.91-.72-1.31a5.06,5.06,0,0,1,.53-2.48c1.52-2.43,4.57-3,7.06-3.05,8.22-.31,16.4-1.06,24.64-1,9.84.07,9.85-15.23,0-15.29Z"/><path d="M148.49,51.86C137,40.83,112.37,40,83.68,39.36c-36-.83-49.91,14.89-49.91,14.89a19.16,19.16,0,0,0-4.84,23.47h0c.73,26.06,2.47,42.57,3.19,68.62.08,2.58.16,9.22,1.16,11.6a17.18,17.18,0,0,0,6,7.15C78,192.14,126.1,176.66,144,159c4.19-4.13,3.68-11.09,4-17,1.32-24,2.23-41.51,3.55-65.54C155.6,69,156.29,59.34,148.49,51.86Z" fill="#cecbc2"/><path d="M148.14,58.05C132.78,44.52,111.08,44.87,93,43.26c-16.56-1.47-34.72.18-49.73,7.34-7.53,3.59-14.67,10.65-13.8,18.95.84,7.94,8.54,13.26,15.93,16.3,21.17,8.67,45.11,7.62,67.56,3.27,9.09-1.77,18.22-4.1,26.18-8.81C143,78,146.7,75,148.76,71s2.18-9.32-.62-12.9" fill="#a39f95"/><path d="M150.24,63.81s0,0,0,0C133,50.39,118.57,54,118.5,54c-3.67-.39-8.72-2.56-12.42-2.44-3.25.1-6,2.07-9.29,1.56-4.79-.75-7.13-4-12-2.75a35.57,35.57,0,0,1-12.49,1c-1.83-.28-3.52-1.36-5.39-1.4-2.39-.07-5,1.15-7,2.25A37.17,37.17,0,0,1,54.46,55a33.34,33.34,0,0,1-5.41,1.13c-7.68,1.22-14.21,3.22-19.67,8.73,0,.4,0,4.31.05,4.72.84,7.94,8.54,13.26,15.93,16.3,21.17,8.67,45.11,7.62,67.56,3.27,9.09-1.77,18.22-4.1,26.18-8.81C143,78,146.7,75,148.76,71A13.83,13.83,0,0,0,150.24,63.81Z" fill="#844f34"/><path d="M66.06,63,61,62.58c-1.74-.13-2,2.47-.4,2.94a5,5,0,0,0,6.34-6l-1,1.85.42,0L66,59a14,14,0,0,1-3.12,1.85,1.51,1.51,0,0,0,0,2.59c2.37,1.17,5.17.76,7.46,2V62.82a6.42,6.42,0,0,1-2.09.73l1.46,2.51.49-.45c1.43-1.31-.7-3.42-2.12-2.12l-.49.45C66.39,65,67.67,66.7,69,66.45a9.43,9.43,0,0,0,2.81-1,1.51,1.51,0,0,0,0-2.59c-2.36-1.27-5.11-.84-7.46-2v2.59a17,17,0,0,0,3.72-2.32,1.5,1.5,0,0,0-.3-2.35,3,3,0,0,0-2.74-.27,1.54,1.54,0,0,0-1,1.85,2,2,0,0,1-2.65,2.31L61,65.58l5.08.38c1.92.14,1.91-2.86,0-3Z" fill="#5e2f1b"/><path d="M58.19,75.31H50.91a1.5,1.5,0,0,0,0,3l4.38,0-1.06-2.56c-1.31,1.07-2.39,3-1,4.51a3.21,3.21,0,0,0,2.17.89c1.09.1,2.72-.39,3.72-.09l-.89-.69c.4.55.25,1.9.28,2.55.1,1.92,3.1,1.93,3,0-.08-1.53-.16-3.07-.23-4.6-.05-1.19.74-2.06.7-3.19a2.09,2.09,0,0,0-3.53-1.5l2.5.66a2,2,0,0,0-1.69-1.62c-1.89-.28-2.7,2.61-.8,2.89l-.4-.47a1.52,1.52,0,0,0,2.51.66l.22-.2L59.34,76c-.33-.79-.57-.85-.74-.17a3,3,0,0,0-.27.83A7.06,7.06,0,0,0,58.26,78c0,1.65.17,3.3.25,4.95h3c-.07-1.39.14-3.73-1.23-4.6a2.75,2.75,0,0,0-1.67-.23c-.6,0-1.19.1-1.78.11s-1.18.24-.48-.32c1.06-.86.14-2.55-1.06-2.57l-4.38,0v3h7.28a1.5,1.5,0,0,0,0-3Z" fill="#5e2f1b"/><path d="M58,72.72c.3,0-.24-.24-.37-.31s-.42-.27-.64-.38a3,3,0,0,0-2.19-.31,3.1,3.1,0,0,0-1.74,1.34c-.41.61-.49,1.47-1,2-1.22,1.48.89,3.61,2.12,2.12a6,6,0,0,0,1-1.77,5.51,5.51,0,0,0,.33-.75q.3-.27-.18-.09a.37.37,0,0,1,.2.07,4.07,4.07,0,0,0,1.35.76,3.12,3.12,0,0,0,1.86.18c1.9-.32,1.09-3.21-.8-2.89Z" fill="#5e2f1b"/><path d="M48.78,61.37l-8.48.51A1.52,1.52,0,0,0,39,64.14c.86,1.69,2.16,3.39,4.26,3.33s3.06-1.9,4.83-2.52,1-3.54-.8-2.9a11.3,11.3,0,0,0-2.93,1.79c-1.48,1.06-2,.2-2.77-1.22L40.3,64.88l8.48-.51c1.92-.12,1.93-3.12,0-3Z" fill="#5e2f1b"/><path d="M89.94,55.89c.53-1.18,2.93.18,3.79.41a7.28,7.28,0,0,0,1.47.24c.5,0,1.4-.32,1.84-.11,1.74.82,3.26-1.77,1.51-2.59a4.75,4.75,0,0,0-2.67-.33c-1.36.06-2.43-.57-3.72-.88-1.82-.43-4-.15-4.81,1.74s1.8,3.28,2.59,1.52Z" fill="#5e2f1b"/><path d="M95.61,89.09a4.92,4.92,0,0,1,2-1.58c.73-.17,1,.08,1.7.31a8.88,8.88,0,0,0,4.12.45l-.4-3a32.92,32.92,0,0,1-7.41.73c-1.92,0-1.93,3,0,3a35.88,35.88,0,0,0,8.21-.84c1.6-.39,1.31-3.15-.4-2.94a7,7,0,0,1-3-.23,6.73,6.73,0,0,0-2.44-.67c-1.72,0-3.33,1.4-4.44,2.6-1.32,1.41.8,3.54,2.12,2.12Z" fill="#5e2f1b"/><path d="M109.47,62.88a5,5,0,0,0-6.65,2.2,1.53,1.53,0,0,0,.53,2c1.35.75,2.56.35,3.87-.28,1.7-.81,3.38-1.67,5.08-2.5L110.48,62l-4.16,3.27c-1.09.86-.11,2.51,1.06,2.56a12.39,12.39,0,0,0,5.28-.93c1.76-.73,1-3.63-.8-2.89a10.41,10.41,0,0,1-4.48.82l1.06,2.56,4.16-3.27c1.41-1.11-.38-3.07-1.82-2.36l-3.2,1.58c-.43.21-2.26,1.45-2.71,1.2l.54,2A2,2,0,0,1,108,65.47c1.74.78,3.27-1.8,1.51-2.59Z" fill="#5e2f1b"/><path d="M131,78.61a3.27,3.27,0,0,0,3.68-3.24,1.52,1.52,0,0,0-1.9-1.45c-3,1.1-5.52,4.58-7.79,6.76-1.18,1.14.09,2.72,1.46,2.51a19.16,19.16,0,0,0,6-1.93c1.85-1,3.59-2.88,5.77-3,1.34-.09,2.23-2.13.76-2.8a10.46,10.46,0,0,0-4.92-1c-1.92.08-1.93,3.08,0,3a7.11,7.11,0,0,1,3.4.6l.76-2.79a10.13,10.13,0,0,0-5.22,2.17,17.9,17.9,0,0,1-7.38,2.89l1.46,2.51,3.16-3c.91-.87,2.1-2.5,3.31-2.94l-1.9-1.45-.68.24c-1.91-.25-1.89,2.75,0,3Z" fill="#5e2f1b"/><path d="M144.82,61.58a10.62,10.62,0,0,1-5.14-2.23l-.76,2.8A6.32,6.32,0,0,1,144.48,65a1.54,1.54,0,0,0,2.05.53,2.18,2.18,0,0,0,1.32-1.66c.33-1.56-2-2.8-2.74-1.16-.39.87-.77,1.75-1.17,2.61s-.36.51-1.26,0a3.35,3.35,0,0,0-3.71-.21,1.51,1.51,0,0,0,.76,2.79c1.1,0,2.78-.23,3.82.18l-.9-.69c.64.82.42,1.72,1.38,2.4a4,4,0,0,0,2.18.65c2.22,0,2.56-2.21,2.27-3.93-.31-1.89-1.26-3.92-3.35-4.28s-3.41,1.39-4.09,3.21h2.89l-.67-2.61c-.47-1.87-3.37-1.08-2.89.8l.67,2.61a1.51,1.51,0,0,0,2.89,0c.29-.77.57-1.36,1.21-.52.35.45.15,1.19.45,1.59,0,.39.17.44.62.13-.15-.12-.27-.13-.37,0a3.14,3.14,0,0,0-.35-1.2c-1-1.85-4.05-1.27-5.76-1.3l.76,2.8c.35-.24,1.83.91,2.22,1a2.91,2.91,0,0,0,2.19,0c1.62-.69,2.15-3,2.8-4.49L145,63.09l0-.13,2.06.54a9.41,9.41,0,0,0-8.15-4.35,1.51,1.51,0,0,0-.75,2.79,13.45,13.45,0,0,0,6.65,2.64c1.91.24,1.9-2.76,0-3Z" fill="#5e2f1b"/><path d="M127.7,59.92a4,4,0,0,0-2.9.13,2.4,2.4,0,0,0-1.15,2.72c.68,2.49,3.83,2.29,5.7,1.5a4.31,4.31,0,0,0,2.35-2,2.17,2.17,0,0,0-.76-2.8c-2-1.23-4.64.42-5.58,2.21A1.52,1.52,0,0,0,126.65,64a10.09,10.09,0,0,0,3-.22c1.89-.4,1.09-3.29-.8-2.89a7.38,7.38,0,0,1-2.25.11l1.3,2.26a2,2,0,0,1,.87-.94c.07,0,.65-.15.66-.18L129,61a.52.52,0,0,1-.18.18,10.71,10.71,0,0,1-1.43.59c-.23.05-.48,0-.71.07s-.15,0-.18-.13v.8c-.06.34-.53,0-.1.21a4.91,4.91,0,0,0,.5.1c1.87.48,2.67-2.41.8-2.89Z" fill="#5e2f1b"/><path d="M129.54,63.86a1.5,1.5,0,0,0,0-3,1.5,1.5,0,0,0,0,3Z" fill="#5e2f1b"/><path d="M119.72,56.6a2.84,2.84,0,0,1-.88-.68l-.22-.23c-.16-.2.1.13-.05-.07a5.51,5.51,0,0,1-.37-.61,1.5,1.5,0,1,0-2.59,1.51,6.68,6.68,0,0,0,2.6,2.67,1.5,1.5,0,1,0,1.51-2.59Z" fill="#5e2f1b"/><path d="M113.62,72a2,2,0,0,0,1.4,1.91,1.49,1.49,0,0,0,1.7-.69c.66-1.46,1.53-4-.43-4.92-1.57-.7-3.49.69-4.16,2.07a1.52,1.52,0,0,0,1.69,2.2l1.67-.44a1.5,1.5,0,0,0-.8-2.89l-1.66.44,1.69,2.2a1.19,1.19,0,0,1,.43-.58c-.14.11.1-.06.15-.09s.09,0,0,0l.23-.07c.51-.12.17-.4-1-.85v.16c0-.16-.07.34-.07.33a5.24,5.24,0,0,1-.3.95l1.69-.69-.11,0,.66.39.25.64a1.5,1.5,0,0,0-3,0Z" fill="#5e2f1b"/><path d="M114.66,85.73c1,0,2.5.36,3.3-.45A1.62,1.62,0,0,0,118,83a1.71,1.71,0,0,0-2-.26,1.44,1.44,0,0,0-.74,1.3v0a1.5,1.5,0,0,0,3,0v0l-.75,1.3,0,0-.75.21h.06l-.75-.21.05,0-.69-.9,0,.07.15-1.16,0,.08.53-.54c.51-.1.63-.14.37-.14h-.29l-.49,0-1.07,0a1.5,1.5,0,0,0-1.5,1.5,1.52,1.52,0,0,0,1.5,1.5Z" fill="#5e2f1b"/><path d="M100.19,77.59a3.62,3.62,0,0,0,4.52,1.21,1.51,1.51,0,0,0,.53-2.06,1.53,1.53,0,0,0-2-.53c.16-.07.15-.08,0,0,.18,0,.18,0,0,0s-.18,0,0,0l-.19,0a.6.6,0,0,1-.19-.06c.16.07.16.06,0,0s-.14-.09,0,0c-.11-.13-.12-.13,0,0a1.54,1.54,0,0,0-2-.53,1.51,1.51,0,0,0-.54,2Z" fill="#5e2f1b"/><path d="M121.25,75.79a.25.25,0,0,1,.17,0l-.57-.08a2.61,2.61,0,0,0-.68.06,2.13,2.13,0,0,0-1.28,1,1.82,1.82,0,0,0,1.55,2.7,2.75,2.75,0,0,0,2.41-1.34,4.44,4.44,0,0,0,.49-2.82,1.54,1.54,0,0,0-1.5-1.5,1.52,1.52,0,0,0-1.5,1.5,4.47,4.47,0,0,1,0,1.16c0,.12,0,.12,0,0q-.14.22,0,.06c.1,0,.25-.1.39-.06l.66.39.08.11.2.76c-.21.82-.55,1.14-1,1l.56.08a2.83,2.83,0,0,0,.87-.08,1.5,1.5,0,1,0-.8-2.89Z" fill="#5e2f1b"/><path d="M131.1,68.74a3.41,3.41,0,0,0-.72,3.33,1.52,1.52,0,0,0,2.51.66,2.62,2.62,0,0,0,.72-1.22,1.5,1.5,0,0,0-2.9-.79c0-.08.28-.32.06-.11l2.5.66s-.09-.39-.07-.21,0-.33,0,0a1.43,1.43,0,0,1,.07-.28c-.1.29.16-.17,0,0a1.54,1.54,0,0,0,0-2.12,1.52,1.52,0,0,0-2.12,0Z" fill="#5e2f1b"/><path d="M142,71.88a3,3,0,0,0-1,3.87,1.53,1.53,0,0,0,2.05.54,3.67,3.67,0,0,0,2-3.21,1.51,1.51,0,0,0-1.5-1.5,1.54,1.54,0,0,0-1.5,1.5c0,.19,0,.19,0,0l0,.13c-.05.17-.06.18,0,0a1.74,1.74,0,0,1-.11.18c-.06.09-.05.08,0,0l-.15.15c-.08.07-.07.06,0,0l-.25.13,2,.54c.11.23,0-.1,0,.07s.08-.37,0,.09c0-.24.05,0,0,0s.09-.15,0-.06a.26.26,0,0,1-.14.13,1.54,1.54,0,0,0,.54-2,1.51,1.51,0,0,0-2.05-.54Z" fill="#5e2f1b"/><path d="M83.44,89.31a10.57,10.57,0,0,0,5.22.69,1.57,1.57,0,0,0,1.45-1.1,1.53,1.53,0,0,0-.69-1.69,6.45,6.45,0,0,0-3.65-.73,1.54,1.54,0,0,0-1.5,1.5,1.5,1.5,0,0,0,1.5,1.5,3.63,3.63,0,0,1,2.13.32l.76-2.8a8.68,8.68,0,0,1-4.42-.58,1.52,1.52,0,0,0-1.85,1,1.54,1.54,0,0,0,1,1.84Z" fill="#5e2f1b"/><path d="M87.43,78c-1.31,1.15-.31,3.31,1.26,3.52s2.58-1.29,2.76-2.74a1.51,1.51,0,0,0-1.5-1.5,1.54,1.54,0,0,0-1.5,1.5c0-.35,0,0-.06.1.07-.16.06-.16,0,0a.36.36,0,0,1,.14-.16c.83-.71,1.86.7,1,1.41a1.52,1.52,0,0,0,0-2.12,1.54,1.54,0,0,0-2.12,0Z" fill="#5e2f1b"/><path d="M97.36,65.89l-4.44,0c-1.42,0-2.14,2.12-.76,2.8a3.06,3.06,0,0,0,3.61-.5c1.41-1.32-.71-3.44-2.12-2.12,0,0,0,0,0,0l-.75,2.79,4.44,0a1.5,1.5,0,0,0,0-3Z" fill="#5e2f1b"/><path d="M107,56.57a3.42,3.42,0,0,0-.23,2.91A1.53,1.53,0,0,0,108,60.56a1.49,1.49,0,0,0,1.5-.72,7,7,0,0,0,.73-2.73,1.51,1.51,0,0,0-1.5-1.5,1.54,1.54,0,0,0-1.5,1.5,2.58,2.58,0,0,1-.1.62,3.08,3.08,0,0,1-.22.6l2.74.36-.11-.29c-.08-.24,0,0,0-.13s0,.2,0-.05-.14.23,0-.13a1.55,1.55,0,0,0-.54-2.06,1.52,1.52,0,0,0-2,.54Z" fill="#5e2f1b"/><path d="M73.5,73l-.32.72c-.49,1.11.33,2.64,1.7,2.21A10,10,0,0,0,80,72.15a1.51,1.51,0,0,0-.24-1.82,1.91,1.91,0,0,0-2.37-.3c-1.65,1-.14,3.6,1.51,2.59l.13-.08-.75.21-.09,0-.66-.39.11.11-.23-1.82A6.63,6.63,0,0,1,74.08,73l1.69,2.2.32-.72a1.54,1.54,0,0,0-.54-2,1.5,1.5,0,0,0-2,.53Z" fill="#5e2f1b"/><path d="M71.57,88.14a2,2,0,0,0,1.85-.48,2.27,2.27,0,0,0,.71-1.61,2.77,2.77,0,0,0-1.84-2.42,1.55,1.55,0,0,0-2.05.54,1.51,1.51,0,0,0,.54,2l.37.19.13.07.07,0c-.16.13-.2-1-.22-.53,0-.55.58-.86,1.24-.76a1.5,1.5,0,0,0-.8,2.9Z" fill="#5e2f1b"/><path d="M66.26,78.12v-.88a1.5,1.5,0,0,0-3,0v.88a1.51,1.51,0,0,0,1.5,1.5,1.53,1.53,0,0,0,1.5-1.5Z" fill="#5e2f1b"/><path d="M58.41,72.83a1.5,1.5,0,0,0,0-3,1.5,1.5,0,0,0,0,3Z" fill="#5e2f1b"/><path d="M41.42,74a2.43,2.43,0,0,0-2-.34l.8,2.9a2.16,2.16,0,1,0-1.66-3.91,2.24,2.24,0,0,0-.42,3.28,3,3,0,0,0,3.5.69,1.56,1.56,0,0,0,1.05-1.85,1.52,1.52,0,0,0-1.85-1.05,3.52,3.52,0,0,1-.42.15l-.26.07,0,0s.15.06.19.09a.51.51,0,0,1,.19.29.86.86,0,0,1-1,.95.89.89,0,0,1-.6-1.07.76.76,0,0,1,.48-.52,1.52,1.52,0,0,0-1,1.85,1.53,1.53,0,0,0,1.84,1,.64.64,0,0,1-.43,0c-.09,0-.07,0,.07.06A1.5,1.5,0,0,0,42,76.05,1.55,1.55,0,0,0,41.42,74Z" fill="#5e2f1b"/><path d="M32.63,67.19a2.29,2.29,0,0,0,.49,3.48c1,.69,2.5,1.1,3.44.12a2.5,2.5,0,0,0,.28-3,3.59,3.59,0,0,0-3.12-1.34,1.5,1.5,0,0,0-1.5,1.5,1.53,1.53,0,0,0,1.5,1.5c.05,0,.62,0,.37,0,.07,0,.43.13.44.11s-.26-.22-.25-.21c-.07-.2-.08-.21,0,0a.39.39,0,0,1,0-.28c0-.12,0-.12,0,0a.81.81,0,0,1,.4-.51l.61-.11c.06,0,0,0-.11,0s-.39-.15-.38-.21a.36.36,0,0,1,.15.15.82.82,0,0,1-.15,1,1.55,1.55,0,0,0,0-2.13,1.53,1.53,0,0,0-2.12,0Z" fill="#5e2f1b"/><path d="M47.86,85.41c1.24.31,3,.77,3.59-.82.53-1.4-.75-2.78-1.93-3.37A1.5,1.5,0,1,0,48,83.81l.33.18c.19.12-.18-.21.1.09l.21.21c-.07-.09-.07-.09,0,0s.08.07-.06-.28l.21-.75.86-.5h-.12l.17,0-.26-.07-.78-.19a1.5,1.5,0,1,0-.8,2.89Z" fill="#5e2f1b"/><path d="M61.74,56.12a2,2,0,1,0,0-3.73,1.54,1.54,0,0,0-1.05,1.85,1.52,1.52,0,0,0,1.84,1,1,1,0,0,1-1.16-.64v-.8a1.08,1.08,0,0,1,1.17-.62,1.5,1.5,0,1,0-.8,2.89Z" fill="#5e2f1b"/><path d="M79.64,54.08l-2.74,0A1.5,1.5,0,0,0,76.5,57a6.62,6.62,0,0,0,3.19,0,1.5,1.5,0,0,0,1-1.84,1.52,1.52,0,0,0-1.84-1.05,3.29,3.29,0,0,1-1.59,0l-.4,3,2.74,0a1.5,1.5,0,0,0,0-3Z" fill="#5e2f1b"/><path d="M85.33,63c-1.33,0-3.44-.1-3.49,1.79,0,1.59,1.73,2.13,3,2.33s2.73.08,3.45-1.15A2.22,2.22,0,0,0,87,62.75c-1.87-.47-2.67,2.42-.79,2.89-.59-.31-.76-.69-.52-1.14.42-.26.47-.34.16-.23a3.15,3.15,0,0,1-.37,0,2.69,2.69,0,0,1-1.28-.41l.53.54-.09-.14.21.76,0-.16-.2.76.08-.14-.54.54c-.35.07-.36.09,0,.07h1.19a1.5,1.5,0,0,0,0-3Z" fill="#5e2f1b"/><path d="M143.53,50.79a24.05,24.05,0,0,1,2.1,1.94,9.87,9.87,0,0,1,1.47,1.82,8.6,8.6,0,0,1,1.34,3.16c-1.43-.36-1.65.5-1.95.89-1.15-.58-1.69-.22-2.76-.71-1.57-.9-1.39-1.26-2.49-2a120.36,120.36,0,0,0-12-5,83.6,83.6,0,0,0-12.76-3.24c-6.75-1.13-13.71-1.44-19-1.92-2.26-.25-5.22-.68-8.23-.94a116.06,116.06,0,0,0-21.2.25,67.33,67.33,0,0,0-11,1.89,70.42,70.42,0,0,0-8,2.74c-1.3.54-2.61,1.09-3.89,1.72a36.42,36.42,0,0,0-3.77,2,30.22,30.22,0,0,0-4.2,3.34l-1.22,1a8.7,8.7,0,0,0-1.18,1.08,14.66,14.66,0,0,0-3.81,7.62A11.39,11.39,0,0,0,31,70a11.61,11.61,0,0,0,1.18,3.6A14.6,14.6,0,0,0,34.44,77a21.42,21.42,0,0,0,3.2,2.93,37.27,37.27,0,0,0,8.15,4.56c1.54.58,3.09,1.22,4.69,1.77s3.23,1.1,4.91,1.52c1.21.24,1.39-.19,2.7.11a66.07,66.07,0,0,0,13.8,2.42,98.54,98.54,0,0,0,14.61-.07c.59,0,1.59,0,2.23-.09,3.87-.5,8.92-1.12,14.17-2s10.71-1.83,15.29-2.91a81.17,81.17,0,0,0,15.21-4.94c4.56-2.12,8.53-4.72,10.78-7.61a13.86,13.86,0,0,0,2.35-4.48,25.65,25.65,0,0,0,.92-4.78c.2-1.27.41-2.61.57-3.67s.32-2.16.87-2.19a2.67,2.67,0,0,1,1.41.81c.52.47,1,1.05,1.27,1.32.09.1,0-1.25.27.41a12.26,12.26,0,0,1,.87,7.66,14.53,14.53,0,0,1-1.35,3.91,17.49,17.49,0,0,1-2.39,3.5c-.2.24-.68.85-1.34,1.59A21.43,21.43,0,0,1,145.15,79a37.16,37.16,0,0,1-4.48,2.69c-1.43.79-3,1.88-4.47,2.51-4.65,2.07-9.18,2.9-13.71,3.92-3.57.8-7.56,1.71-11.18,2.34a166,166,0,0,1-24.93,2.69c-1.64,0-3.39.11-5.14.12l-2.62.07-2.56,0a127.6,127.6,0,0,1-16.72-2.57,94.65,94.65,0,0,1-16.15-5.22,35.71,35.71,0,0,1-5.81-3.07,26.26,26.26,0,0,1-3.69-3.42,17.81,17.81,0,0,1-3.62-5.36A14.83,14.83,0,0,1,29,66.39a15,15,0,0,1,1-3.79,21.4,21.4,0,0,1,1-2c.42-.65.83-1.36,1.36-2a27.93,27.93,0,0,1,7.51-6.76,35,35,0,0,1,4.53-2.4c1.54-.73,3.14-1.35,4.75-2a86.15,86.15,0,0,1,20.34-4.78c4-.43,6.69-.23,10.29-1.07,3.77,0,7.24-.07,10.71.11l17.42,1.12c.46,0,1.16-.11,1.55-.09,1.86.12,3.85.49,5.7.66,1.66.18,3.37.14,5,.42a89.44,89.44,0,0,1,16.28,4.13c1.16.45,2.37.91,3.59,1.34S142.39,50.28,143.53,50.79Z" fill-rule="evenodd"/><path d="M27.36,85.66c.18-3.94.72-6.45,1.46-7.93.43,1.32.94.92,1.25.88.21,1.32.62,1.52.84,2.76a33,33,0,0,1-.05,3.43c.9,8.11,1,19.58,1.33,27.62.31,7.08.76,14.18,1,19.6,0,2.3.09,5.3.15,8.45.1,3.6.1,7.16.24,10.7a36.75,36.75,0,0,0,.52,5.27,7.34,7.34,0,0,0,.33,1.17A11.75,11.75,0,0,0,35,158.8a13.49,13.49,0,0,0,1.49,2.25,18.23,18.23,0,0,0,4.13,3.77,54.79,54.79,0,0,0,4.73,3,82,82,0,0,0,16,7c1,.34,1.93.55,2.85.78s1.81.47,2.67.65c1.05.24,2.18.66,3.28.91a72.63,72.63,0,0,0,9.4,1.35,93.65,93.65,0,0,0,37.15-4.64c1.17-.46,1.13-.77,2.42-1.25a66.39,66.39,0,0,0,13-5.94,55.74,55.74,0,0,0,6.3-4.28c.49-.39,1-.76,1.45-1.16l1.36-1.19c.46-.39.86-.82,1.28-1.22a12.33,12.33,0,0,0,1.14-1.18A8.08,8.08,0,0,0,144.8,156a17.77,17.77,0,0,0,1.42-6.07c.2-2.39.17-5,.29-7.84.28-5.47.57-11.16.81-16,.59-11.48,1.36-22.86,1.63-31.5.12-4,0-8.64.74-12.66.55-3,2.08-6,2.62-5.35a14.69,14.69,0,0,1,.68,2.83c0,.1.34-1,0,.4a105.31,105.31,0,0,1-.66,13.83c0,.57-.12,2.8-.29,5-.13,1.69-.4,3.28-.52,5s-.11,3.48-.22,5c-.36,5-1,9.44-1.37,14.1-.29,3.68-.47,7.8-.68,11.51-.22,4.18-.52,8.31-.65,12.53a35.46,35.46,0,0,1-.76,6.42,15,15,0,0,1-1.07,3.15,10.44,10.44,0,0,1-1.9,2.82,66.87,66.87,0,0,1-8,6.8,89.69,89.69,0,0,1-15.36,7.63,102.07,102.07,0,0,1-16.5,4.82c-1.1.24-2.18.48-3.25.67s-2.14.41-3.22.52c-.81.09-1.63.15-2.46.21s-1.69.05-2.54.11a101.32,101.32,0,0,1-13.87-.1c-1.19-.09-2.47-.17-3.86-.37l-2.18-.28c-.76-.12-1.55-.27-2.39-.41a81.77,81.77,0,0,1-19.55-6.1c-1.62-.67-3.14-1.54-4.72-2.32s-3.07-1.73-4.57-2.66l-2.23-1.46a22.66,22.66,0,0,1-2.2-1.56,18.11,18.11,0,0,1-3.7-4,12.75,12.75,0,0,1-1.34-2.62,13.79,13.79,0,0,1-.56-2.58c-.23-1.65-.4-3.24-.73-5.06-.08-3.82-.28-7.28-.45-10.77-.27-6.06-.62-12.09-1-17.67,0-.47-.21-1.14-.23-1.54-.14-1.87-.17-3.89-.3-5.76-.13-1.67-.39-3.35-.5-5-.3-4.63-.67-11-1.1-16.55C27.91,90.62,27.59,88,27.36,85.66Z" fill-rule="evenodd"/><path d="M141.79,87.06c.2-.94,1.59-1.92,3.14-3.24a25.8,25.8,0,0,0,4.31-4.46,29,29,0,0,0,2.82-5.85c.87-2.15,1.59-4.21,1.43-5.8a17.18,17.18,0,0,0-1.82-10.4A18.88,18.88,0,0,0,148.51,53l-.47-.48-.51-.44-1-.86a16.52,16.52,0,0,0-2.16-1.57,38.75,38.75,0,0,0-9.73-4.39A74.89,74.89,0,0,0,124.25,43a181.87,181.87,0,0,0-20.69-1.91c-6.79-.31-13.47-.47-20-.63a119.09,119.09,0,0,0-18.47,1.21c-1.34.22-2.66.46-4,.71l-3.86,1c-2.53.77-5,1.66-7.49,2.65-1.12.42-2.2.93-3.32,1.37s-2.16,1-3.22,1.55a44.6,44.6,0,0,0-5.66,3.78A35.19,35.19,0,0,0,34.86,55l-.06.07,0,0c-.46.43-.94.87-1.43,1.34a7.11,7.11,0,0,0-1.12,1.32,15.9,15.9,0,0,0-1,1.43,23.8,23.8,0,0,0-1.49,3.1c-.16.43-.39.84-.53,1.29s-.26.91-.39,1.38l-.2.7c-.05.24-.07.48-.11.73-.06.49-.13,1-.19,1.5,0,.68,0,1.45,0,2.26s.2,1.69.29,2.61.44,1.84.76,2.78c.2.46.39.93.59,1.4.1.24.19.48.3.71l.4.67c.27.45.54.9.8,1.35s.65.84,1,1.26a14.67,14.67,0,0,0,1,1.2l1.15,1.07A15.47,15.47,0,0,0,37,85.08a13.57,13.57,0,0,0,2.51,1.34c.31.28.61.56.91.82s.61.48.93.72c.63.47,1.29,1,2.11,1.45a22,22,0,0,1-13.29-8.69,21.45,21.45,0,0,1-3.3-7.87,21.79,21.79,0,0,1,0-8.09,25.62,25.62,0,0,1,1-2.81l.63-1.47.81-1.42a19.88,19.88,0,0,1,1.91-2.78A9.83,9.83,0,0,1,32.4,55l1.22-1.19-.06.05.38-.39a40.59,40.59,0,0,1,7.79-5.58c2.7-1.55,5.36-2.88,7.7-4,1.41-.35,2.72-.89,4.07-1.32a39.5,39.5,0,0,1,4.07-1.33c1.67-.43,3.33-.75,5.07-1s3.29-.69,5-.91l2.49-.38,1.25-.18,1.25-.09c1-.07,2.08-.08,3.14-.08l1.58,0c.53,0,1,0,1.54,0,1.54,0,3-.1,4.49-.17s2.92,0,4.43,0c3.1.08,6.32.35,9.51.44,1.51,0,3-.09,4.48,0,5.62.13,11.57.65,17.3,1.3,1.59.21,3.26.27,4.82.54a85.52,85.52,0,0,1,8.65,2,45.21,45.21,0,0,1,12,4.54l1.77,1.19.87.59.81.69L149.56,51c.47.51,1,1,1.43,1.54A21.59,21.59,0,0,1,153.4,56,19.8,19.8,0,0,1,155,60a21.35,21.35,0,0,1,.77,5,17.35,17.35,0,0,1-.44,4.6,30.45,30.45,0,0,1-4.75,10.19A20.66,20.66,0,0,1,141.79,87.06Z" fill-rule="evenodd"/><path d="M116.86,92.2a1,1,0,0,1-.6,1.37c-.52.27-1.18.33-1.63.52A15.14,15.14,0,0,1,113,95c-.62.18-1.24.06-1.59.47-4,.62-7.76,1-11.42,1.37s-7.18.6-10.55.63c-1.72,0-3.15.19-4.84.07-1.41-.1-2.77.22-4.18.23-.63,0-1.27-.14-1.89-.15s-1.2,0-1.81.05-1-.11-1.51-.15-1.29.14-1.92.11-1-.16-1.6-.19c-1.53-.07-4.27-.92-6.25-.72-.4-.43-.68-1-1.09-1.36,2.51-.73,5.61.55,8.2.23,1,.44,2.21.19,3.38.26,1.61.09,3.31.3,4.63-.22.73.32,1.44,0,2.17,0,.43,0,.86.09,1.31.09.85,0,1.7-.24,2.55-.27.51,0,1.08.22,1.59.18.78-.06,1.49-.29,2.26-.32s1.62.13,2.44.07c.38,0,.75-.22,1.13-.27,1.42-.2,2.94-.13,4.4-.27.4,0,.81-.19,1.21-.22.75,0,1.5.13,2.25.07,1.06-.1,2.07-.44,3.15-.54l4.06-.41c.67,0,1.73-.41,2.28-.38a9.48,9.48,0,0,0,2.71-.42A17.36,17.36,0,0,1,116.86,92.2Z" fill-rule="evenodd"/><path d="M18.45,85.48c-.19.11-.67.19-.79.33a15.53,15.53,0,0,1-1.18,1.09,2.21,2.21,0,0,1-.73.42c-.19.1-.24.36-.39.51-.31.29-.74.49-1.07.78s-.74.64-1.1,1c-.1.09-.14.12-.31.29a4.32,4.32,0,0,0-.68.93,3.56,3.56,0,0,0-.36,2.08,3.83,3.83,0,0,0,.52,1.45c.18.29.29.43.34.51l.2.28.41.56c.27.38.55.74.82,1.11,1.1,1.46,2.17,2.82,3.23,4.3.17.1.41,0,.55.24.07.83.91,1.36,1.95,2a11.45,11.45,0,0,0,5.45,1.79c.16,0,.34-.12.5-.13.71,0,1.41.29,2-.06a6.06,6.06,0,0,0,3.3,0c.29.38.67.12,1,.12s.48.1.78.07a32.39,32.39,0,0,0,3.93-.32.53.53,0,0,0,.57.17c.11-.53.24-1,.7-1,.08-.4.1-.48.16-.79.32.29.51-.16.53-.65-.73-.12-1.59,0-2.08-.92-.18-.09-.23.06-.37,0A5.08,5.08,0,0,0,33,100.19c-.77.36-1.46.07-2.32,0-.34.46-.74.07-1.1,0s-.71.12-1.06.08-.76-.29-1.12,0c-.14-.19-.19,0-.39-.21a1.08,1.08,0,0,1-.47.13c-1.2,0-2.25-.41-3-.3,0-.14-.13-.19-.21-.26a1.44,1.44,0,0,1-.74-.27c-.15-.07-.14-.27-.27-.4s-.48-.29-.69-.52c-.38-.43-.85-1.06-1.26-1.6l-1.05-1.4c-.62-.85-1.27-1.58-1.83-2.43a9.34,9.34,0,0,0-.71-.91l-.29-.33a1.41,1.41,0,0,1,.14.66c-.05.58-.26.76-.16.74a2.4,2.4,0,0,0,.45-.32c.46-.41.65-1.11,1.41-1.36a4.52,4.52,0,0,1,.23-.5C20.06,89.8,21.21,88,23,87.37c.15-.06-.23-.23-.08-.25.36-.35.81-.26,1.22-.43.09,0-.05-.12,0-.17s.43-.07.56-.31-.06-.46.15-.45.26-.16.5-.08c.08-.54.43-.41.79-.51s.52-.32.78-.39c.42-.1.78.12,1.06-.08,0-.21-.11-.21,0-.45a2.34,2.34,0,0,0-1.46-.67c-.38,0-.86-.35-1.44-.14-.18,0,.14-.24-.14-.18s-.13.13-.19.19c-.07-.49-1.07-.27-1.17,0,.08,0,.19,0,.22.07a7.74,7.74,0,0,1-1.41.16c.2-.22.51,0,.68-.24a3.53,3.53,0,0,0-1.67.36c.09.27.59-.19.87,0a7.86,7.86,0,0,0-1.31.47c-.22,0,0-.41-.3-.26A11.5,11.5,0,0,0,18.45,85.48Zm1.87-1Zm-1.76,1.18c-.13-.24.17,0,.23-.16C18.91,85.64,18.61,85.61,18.56,85.62Zm.68-.35-.34.22C18.82,85.38,19.07,85,19.24,85.27ZM24,83.49c0-.2.28-.06.39-.12C24.36,83.57,24.06,83.42,24,83.49Z" fill-rule="evenodd"/><path d="M157.24,79.53c.07.11.07.46.15.51.24.13.39.42.55.61s.06.28.08.42.16.09.2.16,0,.34,0,.44a1,1,0,0,1-.1.44,2.59,2.59,0,0,1-.26.53,8.07,8.07,0,0,1-2,2c0,.13.07.36-.08.42-.61-.11-.78.45-1.2.84-.73.68-1.76,1.28-2.44,2-.07.08-.06.27-.13.35-.3.38-.82.52-.87,1.07a3.06,3.06,0,0,0-1.56,1.57c-.39-.17-.4.19-.54.31s-.29.12-.41.25c-.62.67-1.32,1-1.82,1.43-.14-.12-.29-.15-.35-.06.12.52.2,1-.09,1,.06.41.07.49.1.79-.28-.24-.3.22-.23.71.58,0,1.15-.23,1.85.43.18,0,.15-.13.27-.15a3.15,3.15,0,0,0,3.14-.12c.28-.67.87-.8,1.39-1.2-.11-.52.35-.43.6-.56s.28-.45.49-.61.57-.19.53-.63c.19.06.12-.06.33,0a.59.59,0,0,1,.14-.35c.56-.62,1.42-1,1.73-1.76.12.08.23,0,.34,0,.15-.32.45-.48.61-.67s.34-.1.49-.22.31-.44.49-.61c.71-.62,1.69-1.43,2.2-2a9.89,9.89,0,0,0,1.61-2.24,5.39,5.39,0,0,0,.51-2.26,5.57,5.57,0,0,0,.11-1.3c-.1-.7-.65-1.19-.69-2-.14-.12-.3-.2-.43-.33-1-1.65-2.44-2.32-3.72-3.68-.11-.11-.1.31-.18.19-.44-.14-.61-.56-1-.76-.07,0-.06.13-.14.11s-.29-.25-.53-.16-.28.37-.38.24-.25,0-.33-.22c-.38.37-.49.08-.75,0s-.49,0-.67-.06-.36-.43-.63-.4-.06.22-.23.4a1.64,1.64,0,0,0,.41,1.18c.23.13.23.67.63.78.09.09-.21.12,0,.21s.13,0,.2,0c-.26.4.28.74.48.62,0,0-.1-.08,0-.17.09.11.53.42.57.72-.19,0-.12-.35-.36-.25.25.36.4.67.66.81.18-.24-.24-.28-.18-.57.22.17.46.55.59.6s-.29.23-.15.36C156.51,79,157,79.14,157.24,79.53Zm-.73-1Zm.85.86c-.19.19,0-.13-.1-.12C157.4,79.1,157.36,79.36,157.36,79.39Zm-.22-.41.15.19C157.2,79.26,156.9,79.25,157.14,79ZM155,76.79c-.11.16-.15-.1-.24-.12C154.83,76.52,154.87,76.78,155,76.79Z" fill-rule="evenodd"/><path d="M42.23,102.08c0-.06,0-.34,0-.33s-.16-.13-.25-.16-.06-.16-.08-.26-.1.06-.13,0-.11-.21-.18-.27c-.6-.53-1.3-.4-1.91-.58,0,.07-.1.31-.14.26,0-.47-.2-.17-.35-.15s-.54-.18-.81-.09c0,0-.08.15-.11.18s-.23-.15-.39.24c-.17-.17-.38-.19-.6.19,0-.37-.1-.11-.15-.09S37,101,37,101c-.27.16-.48,0-.71.26,0-.17,0-.26-.08-.2-.08.53-.16,1-.23,1-.06.4-.07.48-.12.78,0-.31-.1.12-.15.61.1.16.25.13.23,1,0,.1,0,0,.06,0,0,1.06.21,1.45.36,1.55.17-.37.25-.1.39-.08.12-.47.14-.1.19-.05s.14-.16.19-.15.1.23.21-.13c0,.17,0,0,0,.17a.49.49,0,0,1,.1-.18c.21-.1.38.14.6-.21,0,.14,0,.14,0,.17.1-.14.16-.06.23-.1s.05.13.09.14.15-.13.21-.14a2.13,2.13,0,0,1,.61.06c.17,0,.34,0,.49.08s.25,0,.36,0,.08.2.14.24.26-.25.29.14a1.11,1.11,0,0,1,.12-.16c.26.25.63,0,.88.6,0,0,.07-.31.08-.25s.14.2.24.19,0-.13.06-.15.07.08.16-.1.14-.45.15-.38.08-.09.09,0c.17-.48.18-.28.26-.32s.16-.23.22-.26.07.21.17.06,0-.21.13-.44c.07-.51.05-.81,0-.82s0-.46-.13-.38.09-.2,0-.19-.05.09-.08.13c.14-.46,0-.51-.09-.31,0,0,0,0,0,.12a.45.45,0,0,1-.12-.35c.07-.1,0,.24.1,0s-.07-.4-.15-.39c-.08.28.06.12,0,.4-.06,0-.1-.26-.15-.25s.13-.32.09-.37C42.48,102.13,42.31,102.27,42.23,102.08Zm.21.48Zm-.26-.31c.08-.25,0,.11,0,0C42.15,102.51,42.18,102.28,42.18,102.25Zm.06.23-.05-.08C42.23,102.27,42.34,102.14,42.24,102.48Zm.56.85c.06-.19.05,0,.08,0C42.82,103.51,42.83,103.31,42.8,103.33Z" fill-rule="evenodd"/><path d="M148.47,61.47c-.2.58-1.06.25-1.54.43-2.22-1-4.44-2.31-6.82-3.55a32.09,32.09,0,0,0-7.72-3,22.17,22.17,0,0,0-5-.42l-6.06.09a25.07,25.07,0,0,1-6.09-.44c-1-.29-2.07-.71-3.45-1a21.22,21.22,0,0,0-7.5-.83c-1.29.11-2.12.79-3.37.95-1.54.22-2.61-.22-3.84.24A2.77,2.77,0,0,0,96,53.08c-3.39-.42-7.18-2.13-10.49-2-3,.11-5.33,1.4-8.48,1.23-2.83-.15-5.23-1.1-8-1.27a23.46,23.46,0,0,0-7.93,1c-1.37.51-2,1.29-3.17,1.94-.33.18-1,.26-1.55.5A15.29,15.29,0,0,1,53,55.94s-1,.14-1.62.25c-2.38.37-4.8.22-7.38.87-.33.08-.82.4-1.31.54-.19,0-.66,0-.74.07-.44.16-.92.58-1.46.78a12,12,0,0,0-5.23,3.23,11.43,11.43,0,0,0-2.68,2.09c-1,.86-1.83,1.58-2.43,1.23s.15-.89.84-1.71c.44-.53,1.1-1.24,1.5-1.65a27,27,0,0,1,4.47-3.34c.19-.13.25-.39.54-.54.57-.29,1.54-.54,2.28-.83s1.62-.81,2.2-1,1.27-.14,2-.3,1.66-.52,2.32-.63,1.1.07,1.77,0c.27,0,.77-.23,1.16-.28a7.15,7.15,0,0,0,1.91-.23,18.15,18.15,0,0,0,2.81-.46,9.66,9.66,0,0,0,3.39-2c3.42-1.07,7.4-3.15,12.34-3a12.62,12.62,0,0,0,2.08.62c.8.17,1.71.34,2.76.58a23.35,23.35,0,0,0,2.59.6,29.37,29.37,0,0,0,5-.76,26.07,26.07,0,0,1,4.8-.61,45.65,45.65,0,0,1,5.14.83c1.73.38,3.15,1.29,4.83,1.62,2.85.55,4.59-.07,6.86-.81,2.71.33,4.67.11,7.08.45a32,32,0,0,1,3.5.89c.63.15,1.22.29,1.86.48a17,17,0,0,0,7.32.31,16.75,16.75,0,0,1,2.93-.25,24.43,24.43,0,0,1,5.78.53c.86.24,1.92.71,2.94,1.07s1.91.65,2.71,1c2.32,1,4.6,2.3,6.63,3.37C145.92,59.77,147.55,60.21,148.47,61.47Z" fill-rule="evenodd"/><path d="M125.36,156.48c.21,0,.33-.26.42-.44a8.37,8.37,0,0,0,.41-1.45c.08-.26.26-.54.31-.8s0-.53.07-.8.21-.55.25-.79,0-.68.09-1,.15-.72.21-1.08,0-.81.21-1.08a9.79,9.79,0,0,1,.11-2.48c.15-2,.19-3.93.39-5.82s.41-4.08.5-5.76c.11-2.21.23-5.83.22-8.2s.12-5,0-7.06c0-.49,0-1,0-1.42,0-.26-.15-.51-.18-.76,0-.49,0-1,0-1.42-.06-.88-.22-1.78-.36-2.64a23.29,23.29,0,0,1-.39-2.41,19.21,19.21,0,0,0-1-2.08c0-.32-.15-.39-.14-.67a3.9,3.9,0,0,0,.09-.66c0-.17-.31-.08-.35-.25s.1-.44-.1-.37-.46.48-.69.63c-.19-.05-.2-.29-.41-.32,0,.42-.13.33-.33.57a15.94,15.94,0,0,0-.89,3.33c-.05.14-.36-.07-.31.19-.3,1.52-.54,4.16-1,6.1a1.72,1.72,0,0,1-.3.79,16.32,16.32,0,0,1-.38,2.47c-.2,1.49-.24,2.92-.32,4.48,0,.78-.13,1.56-.15,2.36,0,1.94,0,3.91.11,5.81.09,1.64.23,3.3.28,4.8a3.82,3.82,0,0,0,.13.75c0,.15,0,.38,0,.53.11,1.2.06,2.15.15,3.29,0,.55.17,1.1.2,1.66.07,1.24.13,2.5.19,3.73.13,1.86.45,3.77.64,5.75a6.34,6.34,0,0,0,.42,2.24c.06.09.24-.2.36.07.09.83-.11,1.39.32,2.07.27,0,.25-.2.53-.08C124.9,157.62,125.39,157.36,125.36,156.48Zm.12-.44c.18.05-.06.16,0,.29C125.33,156.32,125.46,156.09,125.48,156Z" fill="#e2e2e2" fill-rule="evenodd"/><path d="M49.79,68.17a16.44,16.44,0,0,1-2-3.38l-2,2a4.14,4.14,0,0,1,1.9,2.2c.39,1.06,2.19,1.67,2.74.36a38.36,38.36,0,0,0,1.5-4l-1.85,1,.2.08-.9-.69a12.79,12.79,0,0,1-.39,3.27l.68-.9a6.29,6.29,0,0,1-1.15.53c-1.45.58-1.44,3,.39,3,.91-.05,1.81-.15,2.71-.28l-.8-2.9c-1.53.49-5.17,1.61-3.8,3.94a2.05,2.05,0,0,0,2.43.73c.73-.21,1.52-1.14,2.25-1.09,1.92.15,1.91-2.85,0-3a3.48,3.48,0,0,0-1.81.42c-.25.14-.47.3-.71.45-.44.29-.65.14-.11.44l.69.9L49.66,71l-.16,1.15c-.1.16.69-.29.8-.33.41-.17.84-.31,1.27-.44a1.51,1.51,0,0,0-.8-2.9c-.63.1-1.27.14-1.91.18l.4,2.95a5.24,5.24,0,0,0,2.3-1.23,5.38,5.38,0,0,0,.55-2.7c.16-1.64.59-3.43-1.28-4.15a1.52,1.52,0,0,0-1.85,1,33.71,33.71,0,0,1-1.19,3.32l2.74.36a7.35,7.35,0,0,0-3.27-4,1.52,1.52,0,0,0-2.06,2,19.52,19.52,0,0,0,2.47,4c1.18,1.52,3.29-.62,2.12-2.12Z" fill="#ed83e8"/><path d="M104.53,59.79c-1.18-.23-2.46-.23-3.25.82a2.13,2.13,0,0,0,.43,3c2.57,1.88,4.18-2.09,6.51-1.88v-3h-3a1.5,1.5,0,0,0,0,3h3c2,0,1.89-2.82,0-3a4.58,4.58,0,0,0-2.87.76c-.4.25-.76.55-1.13.83-.22.18-.44.34-.68.5-.76.3-.7.91.19,1.83,1.89.37,2.69-2.52.8-2.89Z" fill="#ed83e8"/><path d="M92.75,78.22A6.92,6.92,0,0,0,91.06,78a1.52,1.52,0,0,0-1.3,2.26C90.85,82.45,94,83.55,96.1,82a2.12,2.12,0,0,0-.41-3.6A4.53,4.53,0,0,0,93.84,78c-.26,0-.53,0-.8,0l-.23-.06q.28.21,0-.06c-1.29-1.45-3.41.68-2.12,2.12a3.17,3.17,0,0,0,2.13,1c.42,0,1.23-.08,1.5.26l-.38-.66v0l.2-.76c.21-.32,0,0-.19-.1a4.22,4.22,0,0,1-.7-.1,1.57,1.57,0,0,1-.9-.87L91.06,81a3.38,3.38,0,0,1,.89.1c1.87.48,2.67-2.41.8-2.89Z" fill="#ed83e8"/><path d="M128.17,71.36c-.15-1,.21-2,0-3.08a3.34,3.34,0,0,0-1.47-2,1.52,1.52,0,0,0-2.2.9,5.77,5.77,0,0,0,0,3.65c.32,1.09.76,2.66,2,2.91,2.28.44,4.22-3.06,5-4.77s-1.71-3.27-2.59-1.51c-.67,1.34-1.93,4.55-3.74,4.38a1.51,1.51,0,0,0-.75,2.79,16.72,16.72,0,0,0,2.38.92c1.85.56,2.64-2.34.8-2.89a10.78,10.78,0,0,1-1.67-.62l-.76,2.8c3.29.3,5.09-3.41,6.33-5.87l-2.59-1.51a11.06,11.06,0,0,1-1,1.91c-.17.24-1,1.4-1.14,1.39l1.29.75a4.11,4.11,0,0,1-.63-3.53l-2.2.89c.28.2.08,1.15.06,1.36a8.74,8.74,0,0,0,.07,2c.27,1.9,3.16,1.09,2.89-.8Z" fill="#ed83e8"/><path d="M73.05,57.83A2.44,2.44,0,0,0,71.91,60a1.51,1.51,0,0,0,1.9,1.44,6.43,6.43,0,0,0,3.22-2A1.57,1.57,0,0,0,77.42,58a1.46,1.46,0,0,0-1-1,4.79,4.79,0,0,0-3.87,1,1.52,1.52,0,0,0,0,2.12,1.54,1.54,0,0,0,2.13,0c-.15.12.23-.12.23-.12.26-.14-.06,0,.24-.08.05,0,.47-.07.23,0,0,0,.48,0,.24,0l-.66-2.51a3.77,3.77,0,0,1-.85.79,2.8,2.8,0,0,1-1,.47L74.91,60c0-.21,0-.2-.06,0a.46.46,0,0,1-.28.4,1.54,1.54,0,0,0,.54-2.05,1.53,1.53,0,0,0-2.06-.54Z" fill="#ed83e8"/><path d="M73.05,81.5l-2,.1a1.51,1.51,0,0,0-.4,3,11.46,11.46,0,0,0,5.57.43,1.51,1.51,0,0,0,.9-2.21,6.12,6.12,0,0,0-3-2.31L74.82,83A4.31,4.31,0,0,0,76,80.81l-.69.89c-.45.28-.27,0,0,.4.15.22.34.37.49.61l-.15-1.16a.62.62,0,0,1-.3.41c-1.41,1.32.71,3.44,2.12,2.12a2.84,2.84,0,0,0,1.07-2.53,4.39,4.39,0,0,0-1.8-2.13A2.71,2.71,0,0,0,74,79,1.83,1.83,0,0,0,73.05,80c-.14.39,0,.58-.36.84-1,.79-.28,2.14.67,2.51a2.54,2.54,0,0,1,1.17.93l.9-2.21a8.28,8.28,0,0,1-4-.42l-.4,2.94,2-.1c1.92-.1,1.93-3.1,0-3Z" fill="#ed83e8"/><path d="M61.7,59.36l-1.54.11a1.52,1.52,0,0,0-1.44,1.9,2.59,2.59,0,0,0,4.33,1.13,1.53,1.53,0,0,0,0-2.12,2.16,2.16,0,0,0-3.36.39,1.44,1.44,0,0,0,0,1.51,4.12,4.12,0,0,0,1.54,1.42,1.53,1.53,0,0,0,2.05-.54,2.7,2.7,0,0,0,.31-2,1.52,1.52,0,0,0-1.85-1,1.54,1.54,0,0,0-1.05,1.85.57.57,0,0,1,0-.29l2.05-.54L62.48,61h0s-.32-.38-.2-.2v1.51a.88.88,0,0,1-1.35.22V60.38c-.24.28.46-.23.14-.07l.19,0c-.17,0-.15,0,.08,0-.33-.1.25.17,0,0a.53.53,0,0,1,.25.24c.07.2.09.22,0,.06l-1.45,1.9,1.54-.11a1.5,1.5,0,0,0,0-3Z" fill="#e3ea83"/><path d="M63.69,76.81c-1.54.54-4.9,1.25-3.73,3.65.9,1.85,4.11,1.62,5.79,1.41a3.11,3.11,0,0,0,2.39-1.08A2.59,2.59,0,0,0,68,78c-1-1.73-3.34-2.22-4.52-.4-1.05,1.63,1.55,3.13,2.59,1.51,0,.08-.86.31-.66.41.18.41.39.18.61-.7l-.25.06a10.15,10.15,0,0,0-2,.1,4.43,4.43,0,0,0-.81-.07c-.53-.23-.71,0-.55.77-.37.72-.35,1,0,.77a8.19,8.19,0,0,0,2.08-.73c1.81-.64,1-3.54-.8-2.9Z" fill="#e3ea83"/><path d="M105.12,70.45c-1.24-1.56-4.13-3.73-5.94-1.81a2.08,2.08,0,0,0,.46,3.21,5.37,5.37,0,0,0,3.37.55,1.55,1.55,0,0,0,1.5-1.5,1.51,1.51,0,0,0-1.5-1.5,5,5,0,0,1-1.16,0,2.94,2.94,0,0,0-.48-.1c-.26,0-.09-.17,0,.09l.21.76h0l-.39.66c-.45,0-.53,0-.24.08l.23.11a4.86,4.86,0,0,1,.68.43,6.09,6.09,0,0,1,1.1,1.11,1.51,1.51,0,0,0,2.12,0,1.53,1.53,0,0,0,0-2.12Z" fill="#e3ea83"/><path d="M132,63.75a5.27,5.27,0,0,0-1.75-5.38c-1.25-1-3.31.25-2.36,1.82l2.53,4.2a1.51,1.51,0,0,0,2.74-.36l1.12-5.63-2.94-.4a10.55,10.55,0,0,1,0,3.8c-.29,1.08-1.71.72-2.65.9a1.51,1.51,0,0,0-.36,2.74,9.27,9.27,0,0,0,4.6.91c1.92-.12,1.93-3.12,0-3a6.19,6.19,0,0,1-3.09-.5l-.35,2.75c1.79-.35,3.39-.08,4.37-2,.84-1.65.67-3.84.45-5.61-.19-1.52-2.59-2.22-2.95-.4l-1.12,5.64,2.74-.36-2.53-4.2-2.36,1.81a2.32,2.32,0,0,1,1,2.46c-.43,1.88,2.46,2.69,2.9.8Z" fill="#e3ea83"/><path d="M112.09,80.61l-2.85,0a1.54,1.54,0,0,0-1.45,1.1c-.62,1.7.7,3.71,2.6,2.8a14.3,14.3,0,0,0,1.85-1.46,10.15,10.15,0,0,0,1.24-.74c-.29-.18-.36-.17-.21,0a4.52,4.52,0,0,1,.23.5l2-2.06a6.81,6.81,0,0,0-4-.74A1.52,1.52,0,0,0,110.09,82a2.33,2.33,0,0,0,1.11,1.52c.14.08.66.4.8.35l.21-1.61a6,6,0,0,0-.58.26c-1.73.85-.22,3.44,1.51,2.59.94-.46,1.74-.95,1.55-2.19a2.18,2.18,0,0,0-.66-1.27,2.54,2.54,0,0,0-.57-.4A5.49,5.49,0,0,0,113,81c-.22-.12-.21-.06,0,.17l-1.44,1.9a4.07,4.07,0,0,1,2.5.34,1.52,1.52,0,0,0,2-2.06c-.61-1.44-1.88-2.41-3.48-1.89a8.22,8.22,0,0,0-2.18,1.23c-.29.22-.59.45-.87.68s-.36.32-.53.49c.91,1.23,1.46,1.45,1.65.67l-1.44,1.1,2.85,0a1.5,1.5,0,0,0,0-3Z" fill="#e3ea83"/><path d="M90.87,53.33c-2.37-1.13-4.25,1.46-3.59,3.7.36,1.24,1.57,1.5,2.7,1.3s2.5-.51,3.75-.76a1.51,1.51,0,0,0,.89-2.21,4.33,4.33,0,0,0-3.72-1.92c-1.93.06-1.94,3.06,0,3a1.28,1.28,0,0,1,1.13.44l.9-2.21-2,.42-1,.21c-.15,0-.87,0-.54.12l.66.39-.16-.14.39.67c0-.12,0-.34,0-.41s-.07.12-.27.1l-.76-.21.2.1c1.73.82,3.26-1.76,1.51-2.59Z" fill="#e3ea83"/><path d="M78.71,68.75c-1-.43-1.25-.47-.88-.1a5.27,5.27,0,0,1,.49.63c.29.4.56.82.82,1.24l.9-2.2c-1,.33-2.07-.18-3.11-.09a7.93,7.93,0,0,0-1.55.46c-.71.19-.32.15-1-.06-2.77-.88-2.78,1.75-2.76,3.72a1.5,1.5,0,0,0,3,0,10.05,10.05,0,0,1,0-1.9l-.69.9.29-.15L73,71.35A6.75,6.75,0,0,0,74.3,72a3.28,3.28,0,0,0,2-.4c1.43-.69,3,.15,4.49-.35a1.51,1.51,0,0,0,.89-2.2c-.86-1.38-2-3.64-4-3.34s-2.2,2.28-1.93,3.87c.31,1.9,3.21,1.1,2.89-.79Z" fill="#e3ea83"/><path d="M40.07,70.27A2,2,0,0,0,41,72.49,1.53,1.53,0,0,0,43,72a2.68,2.68,0,0,0,.29-2,1.5,1.5,0,1,0-2.89.79.53.53,0,0,1,0-.25l2-.54-.1-.07.54.54,0,.7a1.5,1.5,0,0,0-2.9-.8Z" fill="#3185ff"/><path d="M84.17,76.86a2.57,2.57,0,0,0,1.09,1.47,1.53,1.53,0,0,0,1.82-.23c1.44-1.22.74-4.07-1.19-4.34a1.56,1.56,0,0,0-1.85,1,3.69,3.69,0,0,0,.29,2.59,1.52,1.52,0,0,0,2,.54,1.54,1.54,0,0,0,.54-2.06c.1.21-.08-.28,0,0v-.17c0,.13,0,.1,0-.08l-1.85,1c.36,0,.06,0-.12-.13s-.14-.19-.06,0c-.06-.19-.08-.22,0-.12s0,.07,0-.14c0,.17,0,.14,0-.09,0,.16,0,.13,0-.08s.15-.19,0-.07l1.81-.24a.74.74,0,0,1,.29.32,1.52,1.52,0,0,0-1.85-1,1.5,1.5,0,0,0-1,1.84Z" fill="#3185ff"/><path d="M97.1,57.94a2.75,2.75,0,0,0,.38,2.36,1.55,1.55,0,0,0,1.29.74,1.51,1.51,0,0,0,1.3-.74c.62-1.12,1.7-2.61.67-3.83s-3.39-.69-3.25,1.09a1.53,1.53,0,0,0,1.5,1.5,1.51,1.51,0,0,0,1.5-1.5l0,.25-.39.66a1.14,1.14,0,0,1-1.27.2l-.53-.53-.07-.64c0-.08,0-.08,0,0a2.38,2.38,0,0,0-.23.41l-.48.87h2.59a.94.94,0,0,1-.12-.18c-.06-.09,0-.08,0,0s-.06.41,0,.1a1.5,1.5,0,1,0-2.89-.8Z" fill="#3185ff"/><path d="M133.84,69.92l0,1.31a1.52,1.52,0,0,0,1.9,1.45,3.54,3.54,0,0,0,2.49-2.53,1.52,1.52,0,0,0-1.44-1.9l-.54,0a1.5,1.5,0,0,0-1.5,1.5,1.54,1.54,0,0,0,1.5,1.5l.54,0-1.45-1.9c0,.09,0,.4,0,.15-.08.13-.1.15,0,.08s0-.06-.06,0l-.1.1c.13-.09.12-.09,0,0s.19,0-.15.06l1.9,1.44,0-1.31a1.5,1.5,0,1,0-3,0Z" fill="#3185ff"/><path d="M60.42,70.07a1.87,1.87,0,0,0,.92,2.18,1.92,1.92,0,0,0,2.54-.65,2.23,2.23,0,0,0,0-2.31A3.15,3.15,0,0,0,61.93,68a1.53,1.53,0,0,0-1.85,1,3.13,3.13,0,0,0,1,3A1.5,1.5,0,0,0,63.15,70c-.16-.13-.25-.29-.11,0,0-.18-.06-.19,0,0,0-.18,0-.19,0,0l-1.84,1.05a1.71,1.71,0,0,1,.3.09c-.11-.06-.09,0,.07,0a.63.63,0,0,1-.28-.38c-.18-.82.52-.75,2.09.2a1.49,1.49,0,0,0-1-1.84,1.53,1.53,0,0,0-1.85,1Z" fill="#db2323"/><path d="M91.43,61.88a5.5,5.5,0,0,0,.15,2.06,1.51,1.51,0,0,0,2.21.89,3.17,3.17,0,0,0,.6-4.66,1.51,1.51,0,0,0-1.82-.23,2.17,2.17,0,0,0-.95,1A1.57,1.57,0,0,0,92.16,63a1.5,1.5,0,0,0,2-.54c.12-.26,0,0-.13.08l-1.81-.24c-.11-.14-.12-.13,0,0-.07-.17-.08-.17,0,0l0-.15a1,1,0,0,1,0,.25c0-.37-.12.13,0-.17-.15.27-.15.18.06,0l2.21.9a3.1,3.1,0,0,1,0-1.26,1.51,1.51,0,0,0-1.5-1.5,1.54,1.54,0,0,0-1.5,1.5Z" fill="#db2323"/><path d="M119.1,75.43a2.61,2.61,0,0,0,.31-3.72,1.75,1.75,0,0,0-2.43.1,1.93,1.93,0,0,0-.53,1.12,2.47,2.47,0,0,0,0,.72c0,.23,0,.11,0,0a1.51,1.51,0,0,0,1.05,1.84,1.53,1.53,0,0,0,1.85-1,2.06,2.06,0,0,0,.09-.78l-.06-.47c-.08-.61-.34-.27-.77,1h-.8l.1,0-.66-.39a.77.77,0,0,1-.23-.52c0-.18,0-.18,0,0,.07-.15.06-.14,0,0,.09-.13.07-.13,0,0a1.5,1.5,0,1,0,2.12,2.12Z" fill="#db2323"/><path d="M120.27,57.8c.25,1.61,2.51,1.82,3.37.63s0-2.79-1.2-3.46a1.52,1.52,0,0,0-2,.54,3.48,3.48,0,0,0,0,3.2,1.51,1.51,0,0,0,2,.54,1.53,1.53,0,0,0,.54-2c0,.11,0,.08,0-.09,0,.11,0,.11,0,0s0-.1,0,0c0-.18,0-.21,0-.09l-2,.53.26.15.09.06a.41.41,0,0,1-.23-.34q.86-2.18,2.11-.43a1.5,1.5,0,0,0-1.84-1,1.52,1.52,0,0,0-1,1.84Z" fill="#db2323"/><path d="M51,59.89a3,3,0,0,0,0,2.63,2.26,2.26,0,0,0,2.46,1c2-.57,1.79-3.29.47-4.44a1.54,1.54,0,0,0-2.12,0,1.51,1.51,0,0,0,0,2.12,2,2,0,0,1,.21.2c-.19-.24.07.18,0,0a.35.35,0,1,0,0-.09c0,.1,0,.1,0,0,0-.42.37-.67,1-.74a1.07,1.07,0,0,1,.52.2c.1.09.12.36.2.43l0,.07a1.82,1.82,0,0,1,.07-.25c0-.14.09-.27.14-.4a1.51,1.51,0,0,0-1.05-1.85,1.55,1.55,0,0,0-1.84,1Z" fill="#39af2f"/><path d="M83.57,85.43A2.19,2.19,0,0,0,87.27,84c.08-1.74-1.46-2.69-3-2.91a1.55,1.55,0,0,0-1.7.69,2.57,2.57,0,0,0,.5,3,1.5,1.5,0,1,0,2.12-2.12c-.16-.15,0-.07,0,0s.11.23,0,.56L83.49,84c.23,0,.47.07.7.13,0,0,.28.09.18,0s-.05,0,0,0,.09,0,0,0a.7.7,0,0,1,0-.7.82.82,0,0,1,.58-.37,1.08,1.08,0,0,1,.71.23,1.51,1.51,0,0,0-2.12,0,1.53,1.53,0,0,0,0,2.12Z" fill="#39af2f"/><path d="M107.3,75.51a1.9,1.9,0,0,0,0,3.63,2.15,2.15,0,0,0,2.16-.75,2.69,2.69,0,0,0,.41-2.32,1.5,1.5,0,0,0-2.9.8v-.09c0,.21,0,.21.05,0s.17-.34.42-.37c.43-.14.52-.21.26-.22l.75.2-.34,2a1.5,1.5,0,1,0-.8-2.89Z" fill="#39af2f"/><path d="M114.77,61.15a2.47,2.47,0,0,0-.76,3.36,1.51,1.51,0,0,0,2.35.3,4.51,4.51,0,0,0,1.1-3.15,1.5,1.5,0,0,0-3,0,2.57,2.57,0,0,1,0,.48c0-.2,0,.09,0,.15s-.13.33-.06.17c0,0-.24.38-.12.23l2.36.3c-.16-.23,0,.1,0,.18a.64.64,0,0,1-.34.57,1.54,1.54,0,0,0,.53-2.05,1.51,1.51,0,0,0-2-.54Z" fill="#39af2f"/><path d="M122.36,62.08c0-2,8.6-23.86,11-32.8,2.28-8.43,4.59-16.94,8.6-24.67a2.67,2.67,0,0,1,1.38-1.49,1.84,1.84,0,0,1,2.09,1.39,5.46,5.46,0,0,1-.16,2.8c-4.61,19.26-13.34,37.2-19.68,56" fill="#cecbc2"/><path d="M125.84,63.33c-1.15-1.16.7-4.41,1.44-6.6.34-1,.57-2.59,1.07-4s1.25-2.6,1.29-3.66c3.6-8.76,7-17.22,9.81-25.51,1.4-4.15,2.68-8.24,3.74-12.3.28-1,.51-2,.77-3a13.81,13.81,0,0,0,.54-2.79,1.66,1.66,0,0,0-.22-.89.89.89,0,0,0-.5-.4c-.1,0-.15,0-.37.19a5.24,5.24,0,0,0-.64,1.07,96.41,96.41,0,0,0-4.38,10.54,99.57,99.57,0,0,0-2.66,9.6c-.39,1.45-.91,2.88-1.32,4.32s-.76,2.82-1.19,4.22c-.37,1.16-.82,2.22-1.25,3.42-.51,1.42-.83,3-1.33,4.38-.41,1.16-.94,2.32-1.4,3.59-1.2,3.43-4.15,9.51-5.16,14a12.09,12.09,0,0,0-1.92,2.6,16,16,0,0,1,.85-4.73c.48-1.59,1.06-3.2,1.68-4.82,1.23-3.23,2.57-6.45,3.39-9.44,1.16-2.08,1.88-5,2.8-7.65.63-1.83,1.31-3.71,1.81-5.54a34,34,0,0,0,1.05-5.22,28.29,28.29,0,0,0,1.4-5.06c.29-1,.71-2,1-3,.64-2,1.13-4,1.88-5.94.45-1.17,1.23-2.35,1.71-3.49l1.09-2.57a7.71,7.71,0,0,1,.67-1.36A2.76,2.76,0,0,1,143.28,2a2.61,2.61,0,0,1,2.27.73,3.33,3.33,0,0,1,1,1.88,8.36,8.36,0,0,1-.4,3.34c-.22.91-.26,1.84-.46,2.75-.79,3.4-2,6.92-3.06,10.3-.29.94-.52,1.95-.84,2.86-.58,1.74-1.43,3.34-2,5.05-.9,2.43-1.58,4.89-2.55,7.34-1.27,3.16-2.44,6.09-3.78,9.23-.64,1.49-1.5,4.09-2.1,5.25C129.5,54.12,127.86,59.69,125.84,63.33Z" fill-rule="evenodd"/><path d="M122.47,63.87a4.31,4.31,0,0,1,1.19,0c.24,0,.21.08.3.28a1.5,1.5,0,0,0,2.59-1.51c-.73-1.56-2.54-1.91-4.08-1.78a1.54,1.54,0,0,0-1.5,1.5,1.51,1.51,0,0,0,1.5,1.5Z" fill="#844f34"/></svg>