<svg xmlns="http://www.w3.org/2000/svg" viewBox="0 0 100 150"><title>Artboard 24</title><path d="M15.66,31.72A29.73,29.73,0,0,0,32.07,47.48a1.65,1.65,0,0,1,.91.6,1.63,1.63,0,0,1,.12,1c-.36,4.92,1.4,9.73,3.32,14.27a30.65,30.65,0,0,0,5,8.66,11.75,11.75,0,0,0,8.74,4.27c4.49-.1,8.19-3.52,10.83-7.16a41.94,41.94,0,0,0,7.9-23.27c3.6-.73,7.38-1.54,10.09-4a16.43,16.43,0,0,0,3.4-4.79A42.8,42.8,0,0,0,85,30.59c.75-2.33,1.14-5.29-.73-6.88a6.8,6.8,0,0,0-4.21-1.16L68.24,22A18,18,0,0,1,64,21.43c-1.55-.46-3-1.32-4.52-1.71-4.19-1-8.36,1.42-12.56,2.44s-8.69.57-13,.13a12.72,12.72,0,0,0-4.44.07c-1.34.34-2.54,1.11-3.89,1.43s-2.61.18-3.9.4a7.71,7.71,0,0,0-6.2,6.87" fill="#eac3c3"/><path d="M16,30.59c-.25,0-.32-.58-.31-1.09s0-1-.42-.76a7.76,7.76,0,0,1,7.08-5.1,12.64,12.64,0,0,0,4.29-.38,14,14,0,0,1,4.23-1.19c1.61-.11,4.49.45,7.42.6A20,20,0,0,0,46,21.93c.28-.1.47-.44.74-.53a29,29,0,0,0,2.77-.95c1.82-.86,3.41-2,5.57-2.53a10.3,10.3,0,0,1,3.56-.18A11.41,11.41,0,0,1,62.36,19a14,14,0,0,0,3,1.22c1,.25,2.1.38,3.09.52A75,75,0,0,0,76,21.92c1.4.07,2.76.11,4.11.12a7.88,7.88,0,0,1,3.93.72,4.48,4.48,0,0,1,2.06,3.45,11.17,11.17,0,0,1-.33,3.93,37.37,37.37,0,0,1-3,8.16,14.63,14.63,0,0,1-2.83,3.83,12.6,12.6,0,0,1-4.54,2.64,25.35,25.35,0,0,1-3.87.8c-.8.15-1.68.37-2.51.55l.63-.75c0,.45,0,.88-.07,1.28A55.13,55.13,0,0,1,67.85,55a65.5,65.5,0,0,1-2.65,8.29,40.68,40.68,0,0,1-1.89,4,27.16,27.16,0,0,1-2.48,3.87,31.87,31.87,0,0,1-5,4.68,17.94,17.94,0,0,1-5.86,1.29,10.77,10.77,0,0,1-6.13-1.87c-1.12-.8-1-1.29-1.56-1.73a16.22,16.22,0,0,1-1.47-1.2A16.46,16.46,0,0,1,39,70.48a32.23,32.23,0,0,1-2.43-3.71,70.94,70.94,0,0,1-4-8.19,22.74,22.74,0,0,1-1.74-9c0-.31,0-.61.06-.9a2.72,2.72,0,0,1,.06-.49,1.92,1.92,0,0,0,.1.29,1.18,1.18,0,0,0,.31.42c.21.17.22.1,0,0A33.42,33.42,0,0,1,28,47.12c-.6-.35-1.08-.88-1.43-1.1-.82-.5-1.9-1.21-3-2s-2.07-1.59-2.79-2.24a33.7,33.7,0,0,1-3.86-3.88,18,18,0,0,1-3.12-5.49c.16-1,.73-.49,1.42.57s1.71,2.61,2.67,3.74,1.83,1.77,2.8,2.71a45.2,45.2,0,0,0,4.21,3.87,14.86,14.86,0,0,0,4.24,2.5,12.93,12.93,0,0,0,1.75,1.07l1,.47a1.42,1.42,0,0,1,.7.44,2.12,2.12,0,0,1,.05,1c0,.43,0,.88,0,1.34a22.86,22.86,0,0,0,.28,3,27.27,27.27,0,0,0,1.24,5,33.27,33.27,0,0,0,2.81,5.6c1,1.72,2.1,3.36,3.26,5a20.65,20.65,0,0,0,4.23,4.61,10.09,10.09,0,0,0,5.67,2.24,6.59,6.59,0,0,0,2.77-1,25.11,25.11,0,0,0,2.47-1.76,26.61,26.61,0,0,0,6.07-6.41,37.2,37.2,0,0,0,4.65-10.42,55.16,55.16,0,0,0,1.77-10.61v-.11a1,1,0,0,1,.82-.87L70.74,44a14,14,0,0,0,3.34-1.63,32.12,32.12,0,0,0,2.66-2,16,16,0,0,0,2-1.82,14.33,14.33,0,0,0,2-2.85,29.38,29.38,0,0,0,1.65-3.51c.24-.59.45-1.19.65-1.79a15.9,15.9,0,0,0,.51-1.75,7,7,0,0,0,.13-3.08,2,2,0,0,0-.5-.94,2.12,2.12,0,0,0-1-.59,13.48,13.48,0,0,0-2.93-.47c-1.13-.1-2.26-.2-3.37-.26-2.8-.15-5.49-.11-8-.06a18.86,18.86,0,0,1-3.93-.24,14.92,14.92,0,0,1-3.37-1.19c-.78-.36-1.36-.71-2-.92a4.74,4.74,0,0,0-2-.33,18,18,0,0,0-5.88,2,26.75,26.75,0,0,1-3.54,1.34,17.13,17.13,0,0,1-4,.65A36.18,36.18,0,0,1,37.89,24c-1.65-.18-3.52-.19-5.08-.34a11.53,11.53,0,0,0-2.48,0,10.63,10.63,0,0,0-2.44.75,11.9,11.9,0,0,1-1.65.52,9.71,9.71,0,0,1-1.77.22,27,27,0,0,0-2.7.07,6.37,6.37,0,0,0-3.64,1.93A9.36,9.36,0,0,0,16,30.59Z" fill-rule="evenodd"/><g opacity="0.49"><path d="M73,50A26.68,26.68,0,0,0,91.7,28.31L8.3,29.39A26.68,26.68,0,0,0,27.53,50.61S33,74.83,44.46,82.27l.45,34.38L25.05,130.72a186.4,186.4,0,0,0,26.26-.34A186,186,0,0,0,77.57,130L57.36,116.49l-.44-34.38C68.19,74.38,73,50,73,50Z" fill="#b5bac6"/></g><path d="M70,53.79c.68-1.74,1.35-1.66,2-3.5-.22,2.45.94-.19,1-.31a18.77,18.77,0,0,1,.16,6.73,74.14,74.14,0,0,1-4.28,10.68,65.13,65.13,0,0,1-4.46,8.36,26.5,26.5,0,0,1-6.72,7.45l.57-1.11c.06,2.9.09,5.8,0,8.67-.11,7.89.16,17.18.22,25.72l-.5-.94.7.48c2.2,1.5,4.17,3.16,6.34,4.68,4.07,2.86,8.68,5.91,12.95,8.71a.76.76,0,0,1,.22,1.05.77.77,0,0,1-.56.33h0l-2.09.19a167.53,167.53,0,0,1-24.31.33h.16a174.43,174.43,0,0,1-26.41.33.93.93,0,0,1-.87-1,.91.91,0,0,1,.39-.69h0l6.58-4.64c.95-.66,2.14-1.68,3.14-2.37,1.71-1.18,3.57-2.13,5.43-3.4q2.4-1.65,4.87-3.42l-.26.52c-.14-7.78-.51-15.94-.33-23.06a16.89,16.89,0,0,1,.31-3.94c-.43-1.9-.17-4.7-.22-7.38h0l.19.35a27.33,27.33,0,0,1-6-5.68,28,28,0,0,1-3.6-6.21c-3.18-4.22-5.85-11.82-7.67-20l.4.42a35.17,35.17,0,0,1-7.53-3.47,18,18,0,0,1-2.27-1.56,20.86,20.86,0,0,1-2.2-1.86A28.8,28.8,0,0,1,13.27,42,28.78,28.78,0,0,1,7.65,29.46a.62.62,0,0,1,.52-.72H8.3l7.46-.22c4.71-.17,9.35,0,12.78-.16,1.29-.06,3.55.06,3.93-.53,6.92.39,14-.13,22.63-.3,6.29-.12,13.15,0,19.18-.12,5.53-.15,11.52-.46,16.72-.7l.67,0a1.58,1.58,0,0,1,1.67,1.51v.27a22.91,22.91,0,0,1-.52,3.21c-.23,1-.53,2-.84,2.95a32.59,32.59,0,0,1-2.31,5.18A25.15,25.15,0,0,1,83.91,47a16.13,16.13,0,0,1-7,3.5c-2,.15-3.27.1-3.56-.19s.24-1,1.76-2.44a7.27,7.27,0,0,0,.94-.49l.8-.46c.52-.33,1.07-.56,1.55-.93a36.94,36.94,0,0,0,3-2.23l.9-.69.88-.76c.29-.25.6-.5.89-.78s.53-.58.79-.88A22.84,22.84,0,0,0,88.15,35a30.59,30.59,0,0,0,1.23-3.29,22.66,22.66,0,0,0,.77-3.56l1.57,1.69-14,.13c-17.93.17-37.59-.34-58,0l-11.4.16.78-.88a25.14,25.14,0,0,0,2.21,6.92,24.94,24.94,0,0,0,4.07,6.09A27,27,0,0,0,27.72,50a.69.69,0,0,1,.45.49c.51,2.12,1.12,4.22,1.77,6.29a76.4,76.4,0,0,0,5.84,13.68c2.35,4.3,5.34,8.32,9.2,11l0,0a1,1,0,0,1,.4.76v4.93c0,9.38.12,18.07.16,29.46v0a.69.69,0,0,1-.29.55l-1.26.87c-6.07,4.2-12.33,8.56-18.69,13.07l-.27-1c2,.11,4.09.19,6.19.23a177.37,177.37,0,0,0,20-.5h.07a74.25,74.25,0,0,0,16.74-.47,3.66,3.66,0,0,0,2.46.26l6.95-.62L77,130.83c-5.2-3.43-10.42-7.13-15.81-10.65-1.46-1-2.93-1.91-4.42-2.87a1,1,0,0,1-.43-.77v0c-.16-5.12-.32-10.29-.48-15.38-.16-6.57-.53-12.87-.81-19a1.67,1.67,0,0,1,.54-1.3l.25-.23c.64-.58,1.3-1.09,1.91-1.68S59,77.68,59.49,77l1.41-1.89,1.16-1.86c.4-.59.69-1.25,1-1.87s.67-1.26,1-2c.41-.91,1.08-2.08,1.41-3,.57-1.41.76-2.73,1.29-4.11.91-2.55,2.31-5.21,2.6-7.71C69.64,55.7,70,54.84,70,53.79Z" fill-rule="evenodd"/><path d="M52.69,76.66c.18.12.42,0,.61-.07a7.8,7.8,0,0,0,1.33-.9,8.12,8.12,0,0,0,.76-.47c.22-.19.36-.45.58-.65s.54-.35.72-.53.44-.59.69-.86.57-.56.83-.87.45-.75.81-.89a13.45,13.45,0,0,1,1.41-2.31,59.58,59.58,0,0,0,2.89-5.68A37.63,37.63,0,0,0,65.5,57.5a42.34,42.34,0,0,0,.88-4.32c.1-.79.22-1.59.27-2.36q0-.57.09-1.11c0-.37,0-.68,0-.81v-.14c.1,0-.31-.08-.47-.14s-.35-.12-.48-.18a2.19,2.19,0,0,1-.45-.24h0l0,0h0l0,0,.12.1a2.78,2.78,0,0,1,.32.34c.13.15.28.33.48.6l0,0,.21-.15.74-.45c1-.61,2-1.23,3-1.89a14.22,14.22,0,0,0,1.27-.9c.23-.2.37-.47.58-.66.41-.38.87-.69,1.24-1.06a11.2,11.2,0,0,0,1.84-2.54,17.47,17.47,0,0,0,1.1-2.66A6.78,6.78,0,0,0,76,36.38c.09-.34-.08-.43-.06-.73a2.51,2.51,0,0,0,.12-.71c0-.17-.31-.07-.36-.24s.07-.46-.13-.37-.41.51-.65.64c-.19,0-.21-.26-.42-.26,0,.35-.13.28-.32.47a20.31,20.31,0,0,1-1.47,2.31c-.09.08-.29-.21-.34,0a13.3,13.3,0,0,1-1.6,1.62,9.87,9.87,0,0,1-2.28,1.41,1.41,1.41,0,0,1-.73.18,11.67,11.67,0,0,1-2.12,1c-.67.31-1.33.64-2,1a14.56,14.56,0,0,0-1.27.76,7.26,7.26,0,0,0-1,.88,6.12,6.12,0,0,0-1,1.39A7.3,7.3,0,0,0,59.7,48c-.07.58-.1.85-.14,1.24-.11,1.81-.3,3.63-.5,5.41a33.59,33.59,0,0,1-.75,4.47,4.71,4.71,0,0,0-.08.73,3.79,3.79,0,0,1-.14.48,29.42,29.42,0,0,1-.94,3c-.17.5-.26,1-.44,1.54-.42,1.12-1,2.22-1.49,3.3a45.39,45.39,0,0,1-2.61,5,7.49,7.49,0,0,0-1.1,2c0,.11.31,0,.22.3-.5.68-1,.94-1.2,1.73.22.17.32,0,.44.33C51.54,77.21,52.08,77.35,52.69,76.66Zm.39-.27c.1.16-.15.09-.2.24C52.78,76.52,53,76.42,53.08,76.39Z" fill-rule="evenodd"/><path d="M56,83a2,2,0,0,0,.13-.41,3.06,3.06,0,0,0,.06-.46c0-.08.06-.25.06-.31s0,0,0-.1a2.6,2.6,0,0,0,0-.26c0-.06,0-.05,0-.1s0-.16,0-.22-.06,0,0-.22c-.11.13-.11,0-.15-.11s-.24-.17-.33-.33a.62.62,0,0,0-.32-.32,1.15,1.15,0,0,0-.67.07c-.22.1-.4.06-.61.18-.05,0-.07,0-.13.05s-.1.16-.13.19-.08,0-.12,0a2.24,2.24,0,0,0-.35.38,3,3,0,0,1-.34.4c-.19.37-.33.55-.53,1,0,0-.09.14-.11.14s0-.11,0-.09-.12.29-.15.33,0-.1-.06.09-.13.43-.2.65-.1.18-.17.37c0,0,0,.13-.07.31a2.44,2.44,0,0,0-.06.83,2.55,2.55,0,0,0-.1.29c0,.27.16.44.18.78a.92.92,0,0,1,0,.27c.08,0,0,.2.08.28s.18.12.29.15.1.06.17.05a1.34,1.34,0,0,0,.56-.3,4.68,4.68,0,0,1,.52-.39.85.85,0,0,0,.11-.14l0,0c.14-.12.2-.1.32-.19s.15-.16.21-.2a3.7,3.7,0,0,1,.35-.17c.18-.1.43-.36.62-.47s.13,0,.28-.29c0,0,.08-.23.14-.33s0,.18.23-.18.08-.25.19-.51S56,83,56,83Zm0-.13c.07-.16,0,.06,0,0C55.93,83,56,82.86,56,82.84Z" fill-rule="evenodd"/><path d="M47.31,83.66a2.38,2.38,0,0,0,0-.43,2,2,0,0,0-.11-.45c0-.08,0-.26-.08-.32s-.05,0-.08-.07-.06-.22-.08-.26-.07,0-.11-.08-.08-.14-.13-.19-.08,0-.13-.19c-.08.17-.18,0-.28,0s-.44,0-.67-.05a1.12,1.12,0,0,0-.68,0,1.65,1.65,0,0,0-.69.65c-.14.28-.36.44-.42.73,0,.06-.07.07-.06.16a2,2,0,0,1,.08.22c0,.09-.05.08-.05.15a2,2,0,0,0,.14.52c.07.19.17.37.2.49a8.54,8.54,0,0,0,.7.86s.1.13.09.14-.09-.05-.08,0l.26.24s-.08,0,.08.09l.52.42.31.28a1.26,1.26,0,0,1,.24.2c.33.25.54.45.61.51l.21.21a3.63,3.63,0,0,1,.42.53s0,.08.15.21c0,0,.08.16.1.22s0,.07-.06.07,0,0,0,0a1.26,1.26,0,0,1-.27-.4,2.48,2.48,0,0,1-.2-.52l0-.16v0a2.21,2.21,0,0,1,0-.29,2.6,2.6,0,0,1,0-.26,1.36,1.36,0,0,1,0-.29,3.17,3.17,0,0,1,.09-.67.85.85,0,0,0,.08-.37c0-.06,0-.24,0-.36s0,.16.11-.25,0-.25,0-.54S47.38,83.66,47.31,83.66Zm0-.13c0-.18,0,.06,0,0C47.3,83.69,47.28,83.55,47.28,83.53Z" fill-rule="evenodd"/><path d="M48.14,118.54s.06-.15.08-.26c.05-.26.06-.55.09-.88,0-.16,0-.33.07-.49s0-.33,0-.49,0-.34,0-.49,0-.41,0-.62,0-.44,0-.67a4.73,4.73,0,0,1,0-.67c0-.51,0-1,0-1.52,0-1.22,0-2.41,0-3.57s0-2.5,0-3.53c0-1.35,0-3.54-.06-5s0-3-.08-4.26c0-.29,0-.59,0-.85s0-.3,0-.45,0-.58,0-.85c0-.53-.06-1.06-.1-1.58s-.08-.91-.1-1.44c-.08-.37-.12-.89-.22-1.23,0-.19,0-.23,0-.4s0-.22,0-.4-.06,0-.07-.14,0-.27,0-.23-.09.29-.13.39,0-.17-.09-.19a.64.64,0,0,1-.06.36c-.08.64-.14,1.49-.16,2,0,.09-.07,0-.06.13-.05.93-.07,2.55-.13,3.74a2.26,2.26,0,0,1-.06.49c0,.53,0,1,0,1.51,0,.92,0,1.78,0,2.73v1.43c0,1.18,0,2.36.1,3.5,0,1,.08,2,.11,2.87,0,.25,0,.28,0,.45s0,.23,0,.32c0,.72,0,1.29.06,2,0,.33,0,.66,0,1,0,.74,0,1.5.06,2.24,0,1.12.1,2.26.13,3.46a12.92,12.92,0,0,0,.08,1.35s0-.12.07,0a7.25,7.25,0,0,0,0,1.26s0-.12.11,0A6.09,6.09,0,0,0,48.14,118.54Zm0-.26s0,.09,0,.17S48.16,118.3,48.16,118.28Z" fill-rule="evenodd"/><path d="M53.71,112.27s.07-.12.08-.21a6.41,6.41,0,0,0,.09-.72c0-.13.06-.27.07-.4s0-.26,0-.39,0-.28.06-.4,0-.34,0-.51,0-.36,0-.54a3.09,3.09,0,0,1,0-.55c0-.42,0-.83,0-1.24,0-1,0-2,0-2.91s0-2,0-2.88c0-1.1,0-2.88-.06-4s0-2.44-.08-3.47c0-.24,0-.48,0-.69s0-.25,0-.37,0-.47,0-.69c0-.43-.06-.87-.1-1.29s-.08-.74-.1-1.17-.12-.73-.22-1a3.11,3.11,0,0,0,0-.33c0-.12,0-.18,0-.33s-.06,0-.07-.12,0-.21,0-.18-.09.24-.13.32,0-.14-.09-.15c0,.2,0,.16-.06.28C53.09,88.81,53,89.5,53,90c0,.07-.07,0-.06.1-.05.76-.07,2.08-.13,3a2.18,2.18,0,0,1,0,.4c0,.43,0,.83-.05,1.24,0,.74,0,1.45,0,2.22v1.17c0,1,0,1.92.1,2.85s.08,1.61.11,2.34c0,.2,0,.22,0,.37a2.09,2.09,0,0,1,0,.25c0,.59,0,1,.06,1.61,0,.27,0,.53.06.81,0,.6,0,1.22.05,1.82,0,.91.1,1.84.13,2.82a8.57,8.57,0,0,0,.08,1.1c0,.05,0-.09.07,0a4.87,4.87,0,0,0,.05,1c.06,0,0-.1.11,0A4,4,0,0,0,53.71,112.27Zm0-.21s0,.07,0,.14S53.73,112.08,53.73,112.06Z" fill-rule="evenodd"/><path d="M37,127.05s.09,0,.13-.06.17-.19.29-.29l.17-.15s.08-.12.13-.17l.17-.16.17-.21.21-.22c.07-.07.13-.18.21-.21a3.18,3.18,0,0,1,.44-.52c.36-.4.71-.8,1.09-1.15s.83-.73,1.18-1,1.22-1,1.73-1.36,1.12-.73,1.6-1l.34-.18.16-.13a2.7,2.7,0,0,1,.34-.17c.21-.11.41-.25.61-.37s.36-.21.58-.32.34-.25.46-.38.09-.06.17-.09.1,0,.18,0,0-.06,0-.09.12,0,.09,0-.15,0-.21-.07.07-.07.06-.11-.1,0-.17,0a3.87,3.87,0,0,0-1,.15s0-.07-.08,0a17,17,0,0,0-1.7.57.68.68,0,0,1-.23,0c-.22.12-.45.19-.66.29a11.87,11.87,0,0,0-1.14.65c-.2.12-.38.25-.57.38a11.23,11.23,0,0,0-1.28,1.08c-.35.32-.67.67-1,1a1.77,1.77,0,0,0-.14.17l-.09.11c-.22.27-.42.45-.61.71l-.28.38c-.22.27-.42.56-.63.84s-.56.9-.84,1.39a2.08,2.08,0,0,0-.27.57s.07,0,0,.06a1.49,1.49,0,0,0-.26.52c.06,0,.08,0,.11,0C36.76,127.26,36.88,127.26,37,127.05Zm.08-.1s0,0,0,.07S37.08,127,37.09,127Z" fill-rule="evenodd"/><path d="M69.23,129.18a.26.26,0,0,0,0-.24,3.25,3.25,0,0,0-.38-.49c-.07-.09-.13-.22-.2-.3s-.18-.13-.26-.21-.14-.2-.21-.27-.23-.17-.33-.26l-.34-.32c-.1-.1-.28-.18-.33-.32a4.58,4.58,0,0,1-.86-.57c-.68-.48-1.38-.89-2-1.32a22.5,22.5,0,0,0-2.06-1.24,30.9,30.9,0,0,0-3.07-1.43l-1.36-.56a6.67,6.67,0,0,1-.93-.46c-.1-.06-.15-.14-.22-.18s-.11,0-.14-.07a.71.71,0,0,1-.13-.26,3.07,3.07,0,0,1-.23-.77,5.28,5.28,0,0,1-.11-1,5,5,0,0,0-.39-.88c0-.14-.07-.16-.08-.28s0-.16,0-.28-.12,0-.15-.07,0-.19-.08-.14-.13.23-.21.29-.11-.08-.19-.07,0,.12-.09.21c-.11.37-.27.84-.35,1.2,0,.06-.14,0-.13.07a7.15,7.15,0,0,0-.2,1.31,4,4,0,0,0,.35,1.88,2.88,2.88,0,0,1,.22.49,6.66,6.66,0,0,0,1.07,1,11.64,11.64,0,0,0,1.76.89c.28.13.55.28.84.4.71.31,1.42.6,2.12.87s1.22.47,1.76.71a1.81,1.81,0,0,0,.29.09l.19.09c.44.18.77.37,1.18.56.19.09.41.15.61.24.44.22.88.47,1.31.7.65.34,1.35.65,2.05,1.05a2.78,2.78,0,0,0,.82.39s0-.13.11-.1c.28.18.41.38.74.41,0-.1,0-.13.11-.19C69.49,129.61,69.53,129.39,69.23,129.18Zm-.11-.15c.06,0,0,.06.09.07S69.13,129.05,69.12,129Z" fill-rule="evenodd"/><path d="M54.64,51.36a.34.34,0,0,0-.23-.09,3.07,3.07,0,0,0-.42,0c-.07,0-.18,0-.24,0s-.12.06-.19.06-.16,0-.22,0-.15.05-.24.06h-.27c-.08,0-.18.06-.27,0a1,1,0,0,1-.59.1,8.6,8.6,0,0,1-1.51-.05c-.48-.08-1.14-.21-1.66-.28-.68-.09-1.82-.2-2.56-.23s-1.56-.13-2.22-.13a3.47,3.47,0,0,0-.44,0c-.09,0-.17.07-.25.08s-.31,0-.45,0a5,5,0,0,0-.84.12,6.68,6.68,0,0,1-.78.13,6,6,0,0,0-.71.45c-.1,0-.13.06-.22.05s-.11-.07-.2-.07-.05.15-.1.17-.13-.07-.12,0,.11.25.15.37-.11.09-.13.19c.13,0,.1.07.16.18a3.3,3.3,0,0,0,1,.55s0,.17,0,.16c.46.19,1.29.37,1.88.62a.44.44,0,0,1,.23.16,3.34,3.34,0,0,1,.76.23,12.39,12.39,0,0,0,1.4.23c.24,0,.48.08.73.1a14.16,14.16,0,0,0,1.84,0l1.57-.07a1.26,1.26,0,0,0,.26-.06H50c.41,0,.73,0,1.13-.1.19,0,.37-.11.56-.15a9.44,9.44,0,0,0,1.27-.32,6.43,6.43,0,0,0,1.73-1,1.27,1.27,0,0,0,.51-.6s-.13,0-.1-.15.38-.26.37-.56c-.11-.08-.13,0-.21-.16C55,51.32,54.81,51.2,54.64,51.36Zm-.13,0c0-.07.05,0,.06,0S54.52,51.38,54.51,51.38Z" fill="#fff" fill-rule="evenodd"/><path d="M84.11,30.86a2.39,2.39,0,0,0-.62-.09c-.62,0-1.31-.06-2.11-.09l-1.15-.07H79.06c-.4,0-.81-.05-1.15-.06H76.42l-1.58-.05c-.51,0-1.18,0-1.59,0-1.23,0-2.42,0-3.61,0-2.9,0-5.75,0-8.5-.05-2.59,0-6-.05-8.39-.05-3.2,0-8.42,0-11.81,0s-7.11,0-10.12.07h-2l-1.08.05h-2c-1.25,0-2.52.06-3.74.1s-2.17.07-3.43.09c-.89.08-2.12.12-2.92.21-.46,0-.56,0-1,0s-.52,0-1,0c-.23,0-.1.06-.33.07s-.64,0-.54,0,.7.09.92.14c-.05,0-.41,0-.44.08a4.72,4.72,0,0,1,.84.06c1.54.09,3.55.15,4.85.17.21,0-.08.07.3.06,2.22,0,6.07.08,8.9.15.43,0,.85,0,1.16.05,1.26,0,2.43,0,3.6.05,2.17,0,4.23,0,6.49,0h3.4c2.8,0,5.61,0,8.31-.09l6.83-.1c.59,0,.66,0,1.07,0h.75c1.71,0,3.07,0,4.69-.05l2.35-.05,5.33,0c2.65,0,5.37-.09,8.22-.12,1.23,0,2.27,0,3.2-.07.14,0-.27-.05.13-.07,1.2,0,2,0,3-.05,0-.05-.29-.05-.09-.11C85.74,31,85.39,30.86,84.11,30.86Zm-.64,0c.08,0,.23,0,.43,0A1.54,1.54,0,0,1,83.47,30.83Z" fill="#fff" fill-rule="evenodd"/><path d="M51.66,39.4a.13.13,0,0,0,.09,0,.38.38,0,0,0,.09-.12s0,0,.06-.07,0,0,0-.06,0,0,0-.07S52,39,52,39l0-.09s0-.07,0-.09,0-.14,0-.21,0-.34,0-.5a2.77,2.77,0,0,0,0-.49,5.51,5.51,0,0,0-.06-.69c0-.2,0-.41-.08-.59a.5.5,0,0,0,0-.12l0-.06a.5.5,0,0,1,0-.12,1.38,1.38,0,0,0-.1-.22,1.11,1.11,0,0,1-.09-.19c-.09-.06-.13-.13-.22-.18s0,0,0,0,0,0,0-.06-.06,0-.07,0,0,0,0,0-.08,0-.13.06,0,0-.08,0,0,0-.07,0a.64.64,0,0,0-.15.28s-.07,0-.06,0-.08.35-.14.52a.15.15,0,0,1-.05.07c0,.07,0,.14,0,.21a1.53,1.53,0,0,0,0,.37,1.33,1.33,0,0,0,0,.2,2.65,2.65,0,0,0,.09.49c0,.13.09.27.12.4s0,0,0,.06a.06.06,0,0,0,0,0c0,.1,0,.18.06.28s0,.09.05.13a2.84,2.84,0,0,0,.06.31c0,.16.09.32.13.48s0,.14.07.19.05,0,.07,0,0,.11,0,.17h.11S51.66,39.48,51.66,39.4Zm0,0s0,0,0,0S51.68,39.37,51.69,39.36Z" fill="#fff" fill-rule="evenodd"/><path d="M54.55,47.34a.14.14,0,0,0,.08-.1,2.47,2.47,0,0,0,.1-.35c0-.06.05-.12.06-.19a1.11,1.11,0,0,0,0-.19c0-.06,0-.13,0-.19s0-.16,0-.24,0-.19,0-.26a.77.77,0,0,1,0-.27A2.9,2.9,0,0,1,55,45c0-.51,0-.91,0-1.4s0-1,0-1.39-.08-1.39-.14-2-.1-1.17-.17-1.66c0-.11,0-.23,0-.33a1.77,1.77,0,0,1-.06-.17c0-.12,0-.23,0-.34s-.09-.41-.14-.6a5.12,5.12,0,0,1-.15-.56A4.17,4.17,0,0,0,54,36.1c0-.07,0-.08,0-.15s0-.09,0-.16-.07,0-.08,0,0-.1,0-.08-.08.12-.12.16-.05-.06-.09-.06,0,.08,0,.14a4,4,0,0,0-.09.8s-.07,0,0,.06c0,.36,0,1,0,1.45a.42.42,0,0,1,0,.2,3.88,3.88,0,0,1,0,.59c0,.35,0,.68.06,1,0,.19,0,.36,0,.55,0,.46.09.92.15,1.36s.1.8.14,1.11c0,.09,0,.1,0,.17v.12c0,.28,0,.5.08.77,0,.1,0,.28,0,.38,0,.32.05.57.07.87s.1.88.13,1.35a1.64,1.64,0,0,0,.07.52s0,0,.07,0a1.29,1.29,0,0,0,0,.49c.06,0,.06,0,.11,0C54.45,47.61,54.55,47.55,54.55,47.34Zm0-.1s0,0,0,.07S54.57,47.25,54.58,47.24Z" fill="#fff" fill-rule="evenodd"/><path d="M54.3,65.11a.31.31,0,0,0,.23,0,1,1,0,0,0,.35-.19,1.45,1.45,0,0,0,.22-.09s.06-.11.11-.15.15-.07.2-.11.07-.13.13-.2l.19-.19c.05-.06.06-.17.19-.19,0-.21.14-.35.23-.52.21-.42.35-.85.52-1.26A6,6,0,0,0,57.11,61a8.88,8.88,0,0,0,.19-1.88c0-.56,0-1.13,0-1.61a2.69,2.69,0,0,0,0-.32,1.74,1.74,0,0,1-.11-.18c0-.11,0-.21,0-.31a3.28,3.28,0,0,0-.23-.59,2.81,2.81,0,0,1-.26-.52,5.38,5.38,0,0,0-.58-.41c0-.07-.08-.07-.09-.13s0-.08,0-.15-.15,0-.18,0,0-.1-.06-.08-.22.12-.33.16-.1,0-.21,0-.06.07-.15.13a2,2,0,0,0-.36.69s-.17,0-.15,0a11.36,11.36,0,0,1-.34,1.2.22.22,0,0,1-.13.14c0,.17-.1.32-.15.47a5.81,5.81,0,0,0-.1.85c0,.15,0,.29-.06.44a8.6,8.6,0,0,0,0,1.13,8,8,0,0,1,0,1c0,.08,0,.1,0,.16s0,.07,0,.1a4.65,4.65,0,0,1,0,.66c0,.11,0,.24,0,.35,0,.26-.09.5-.12.75s-.06.79-.17,1.19a.75.75,0,0,0,0,.49s.13,0,.15.1-.2.22-.09.44c.13.06.14,0,.25.12C54,65.21,54.21,65.28,54.3,65.11Zm.1-.06c.07,0,0,0,0,.06S54.39,65.06,54.4,65.05Z" fill="#fff" fill-rule="evenodd"/><path d="M51.87,83.66a.45.45,0,0,0,0-.21.62.62,0,0,0-.12-.23.77.77,0,0,0-.07-.16s0,0-.06,0a.83.83,0,0,1-.07-.13s-.06,0-.09,0a.9.9,0,0,1-.09-.1s-.07,0-.09-.1c-.08.08-.14,0-.21,0s-.34,0-.5-.09a1.46,1.46,0,0,0-.49-.09,2.52,2.52,0,0,0-.69.15c-.2.09-.41.1-.59.2s-.08,0-.12,0,0,.1-.06.11-.08,0-.12,0a1.79,1.79,0,0,0-.22.24,1.29,1.29,0,0,1-.2.25c0,.2-.12.31-.17.55,0,0,0,.08,0,.08s0-.06-.06,0,0,.16,0,.18,0,0,0,0a2.45,2.45,0,0,0,.06.34,1.33,1.33,0,0,0,0,.21s0,.06,0,.15a.94.94,0,0,0,.28.4s0,.18,0,.15c.13.13.35.18.52.34a.24.24,0,0,1,.07.13c.07,0,.14.08.21.11a.66.66,0,0,0,.37,0h.2a1.71,1.71,0,0,0,.49-.24,3.24,3.24,0,0,1,.4-.28s0,0,.06-.08,0,0,0,0a1.83,1.83,0,0,1,.28-.14s.09-.11.13-.14.21-.08.31-.14.32-.24.48-.33a.26.26,0,0,0,.19-.18s0-.13,0-.18.11.07.17-.13A2.43,2.43,0,0,1,52,84C52,83.91,51.94,83.66,51.87,83.66Zm0-.06c0-.09,0,0,0,0S51.84,83.6,51.83,83.6Z" fill="#fff" fill-rule="evenodd"/><path d="M52.22,115.15c.09-.05.11-.19.12-.3a6,6,0,0,0,0-.83c0-.15,0-.32,0-.47s-.07-.28-.07-.43,0-.33,0-.46,0-.37-.06-.56,0-.4,0-.61a1.25,1.25,0,0,1,0-.61,5.33,5.33,0,0,1-.11-1.38c0-1.12-.07-2.25,0-3.35s.08-2.4.06-3.39c0-1.3-.09-3.42-.18-4.8s-.12-2.88-.22-4.1c0-.28,0-.57,0-.82s-.1-.29-.12-.44,0-.56,0-.82c-.05-.5-.16-1-.25-1.51s-.2-.88-.26-1.39c-.21-.36-.32-.86-.55-1.18,0-.19-.09-.23-.09-.39s0-.22,0-.39-.16,0-.18-.14,0-.25-.06-.21-.22.28-.33.37-.11-.16-.21-.17c0,.24-.06.19-.16.34a9.59,9.59,0,0,0-.38,2c0,.08-.18,0-.15.12-.12.9-.16,2.46-.31,3.62a1.36,1.36,0,0,1-.13.47,13.75,13.75,0,0,1-.1,1.46c0,.88,0,1.72,0,2.63,0,.46,0,.92,0,1.38,0,1.14.14,2.27.26,3.37s.23,1.91.3,2.77a3,3,0,0,0,.08.44,2.77,2.77,0,0,1,0,.3c.09.7.1,1.26.18,1.92,0,.32.12.64.16,1,.1.72.17,1.47.3,2.19a23.5,23.5,0,0,0,.91,3.32,3.73,3.73,0,0,0,.56,1.22s.08-.14.19,0c.19.45.22.79.56,1.09.12-.07.07-.16.24-.14C52.22,115.83,52.38,115.62,52.22,115.15Zm0-.25c.1,0,0,.09.06.15S52.19,114.92,52.19,114.9Z" fill="#fff" fill-rule="evenodd"/><path d="M62.08,127.8a.32.32,0,0,0-.13-.27,3.71,3.71,0,0,0-.6-.43c-.11-.08-.21-.2-.32-.27s-.24-.08-.36-.15-.22-.18-.32-.24-.31-.11-.45-.19l-.46-.25c-.15-.08-.36-.11-.45-.26a4,4,0,0,1-1.05-.42,13.61,13.61,0,0,1-2.22-1.19,11.31,11.31,0,0,1-1.68-1.5,7.16,7.16,0,0,1-.91-1.22l-.24-.39a2.91,2.91,0,0,0-.79-1,3.66,3.66,0,0,0-1.51-.71,5,5,0,0,0-1.41-.13,4.65,4.65,0,0,0-1.31.32,10.94,10.94,0,0,0-1.63.87,5.11,5.11,0,0,0-.62.4c-.1.08-.17.21-.27.29s-.41.28-.59.43a8.62,8.62,0,0,0-.94,1c-.27.33-.48.62-.77.95a6.62,6.62,0,0,0-.36,1.09c-.12.1-.07.19-.17.29s-.16.08-.24.2.08.13,0,.2-.18.13-.08.17.32,0,.45,0,0,.17.06.25c.12-.15.15-.08.29-.09a9.58,9.58,0,0,0,1.38-.77c.07,0,.1.15.17,0a16.68,16.68,0,0,1,2.4-1.31.62.62,0,0,1,.37-.06,4.34,4.34,0,0,1,1-.4,4.23,4.23,0,0,1,1-.35,2.68,2.68,0,0,1,.4.1s0,0-.09-.15-.05-.11,0,0l.11.18.22.35a8.51,8.51,0,0,0,1,1.29,11.67,11.67,0,0,0,2.08,1.64,1.17,1.17,0,0,0,.37.17,2,2,0,0,1,.25.14,14.24,14.24,0,0,0,1.54.73c.26.1.54.16.8.24.59.19,1.18.4,1.76.55.88.23,1.8.34,2.72.55a3.25,3.25,0,0,0,1.07.15s-.05-.15.1-.16c.39.09.6.28,1,.2,0-.14-.05-.16.06-.27C62.53,128.21,62.49,127.94,62.08,127.8Zm-.18-.13c.05-.07.06,0,.14,0S61.92,127.69,61.9,127.67Z" fill="#fff" fill-rule="evenodd"/></svg>